<?xml version="1.0" encoding="UTF-8"?>
<svg id="Layer_1" data-name="Layer 1" xmlns="http://www.w3.org/2000/svg" xmlns:xlink="http://www.w3.org/1999/xlink" viewBox="0 0 471.92 768">
  <defs>
    <style>
      .cls-1 {
        fill: none;
      }

      .cls-2 {
        fill: #001ee3;
      }

      .cls-3 {
        fill: #fff;
      }

      .cls-4 {
        clip-path: url(#clippath);
      }
    </style>
    <clipPath id="clippath">
      <rect class="cls-1" x="532.39" y="220.1" width="469.91" height="547.69"/>
    </clipPath>
  </defs>
  <g>
    <path class="cls-2" d="M212.57,258.21c-7.7,0-14.74-3.4-22.78-3.4-3.81,0-7.87.75-12.34,3.06l-.66.33v-57.98h30.56c12.09,0,18.14,8.03,18.14,16.07,0,3.81-1.41,7.62-4.06,10.6,6.05,3.15,9.03,9.03,9.03,14.83,0,8.28-6.05,16.48-17.89,16.48ZM186.89,208.34v16.15h18.89c6.3,0,9.44-4.06,9.44-8.03s-3.15-8.12-9.44-8.12h-18.89ZM186.89,232.53v14c1.91-.33,3.56-.5,5.14-.5,7.87,0,12.51,3.64,18.97,3.64s9.44-4.31,9.44-8.53-3.15-8.61-9.44-8.61h-24.1ZM250.8,249.51h41.58v8.7h-51.69v-57.98h51.19v8.7h-41.08v16.32c2.24.99,4.39,1.41,6.54,1.41,7.37,0,14.16-4.89,21.45-4.89,3.48,0,7.04,1.16,10.93,4.47l.08,8.61c-4.06-2.98-7.79-4.06-11.26-4.06-7.45,0-13.92,4.72-20.96,4.72-2.24,0-4.47-.41-6.79-1.57v15.57ZM333.49,250.75c7.37,0,12.18-2.48,12.18-8.28,0-13.58-42.82-3.06-42.82-26.01,0-12.67,12.18-17.73,25.35-17.73,10.52,0,21.7,3.23,27.83,8.37l-5.47,7.87c-4.47-4.22-14-6.96-22.2-6.96s-14.74,2.57-14.74,8.61c0,12.84,42.91,2.48,42.91,25.76,0,12.42-11.02,17.64-22.28,17.64-9.28,0-15.99-5.8-22.28-5.8-2.57,0-5.22.99-7.87,3.98l-.08-10.69c2.57-1.82,5.05-2.48,7.45-2.48,7.12,0,14,5.72,22.03,5.72ZM426.39,229.22c0,20.54-17.64,30.56-32.72,30.56s-32.8-10.02-32.8-30.56,17.64-30.56,32.8-30.56,32.72,10.02,32.72,30.56ZM416.04,229.22c0-14.16-12.09-21.04-22.36-21.04s-22.45,6.87-22.45,21.04,12.09,21.04,22.45,21.04,22.36-6.96,22.36-21.04Z"/>
    <path class="cls-2" d="M43.87,273.01l-.99,1.99c-12.48-3.62-20.16-18.99-13.74-44.76,6.42-25.68,21.7-41.05,36.08-44.67v1.9c-8.68,2.26-20.07,18.27-26.22,42.77-6.06,24.6-2.71,40.6,4.88,42.77ZM147.18,187.47l.99-1.9c12.57,3.62,20.16,18.99,13.74,44.67-6.42,25.77-21.7,41.14-35.99,44.76l-.09-1.99c8.68-2.17,20.07-18.18,26.22-42.77,6.06-24.5,2.71-40.51-4.88-42.77Z"/>
    <path class="cls-2" d="M69.86,214.85c3.05,0,4.83,1.71,2.79,9.78l-3.43,13.91c-1.14,4.38.83,6.35,3.75,6.35,3.43,0,7.94-3.75,12-12l2.03-8.26c1.14-4.51,1.91-7.87.06-7.87-.25,0-.51.06-.7.13-.13.06-.25.06-.32.06-.13,0-.19,0-.19-.06l-.06-.06c-.06-.06-.06-.19-.06-.25s.06-.13.13-.19c1.27-1.08,2.86-1.52,4.57-1.52,2.98,0,4.76,1.71,2.73,9.78l-3.68,14.86c-.95,3.81-1.4,6.6.25,6.6.95,0,1.97-1.33,2.73-3.56l.19-.44c0-.19.25-.38.44-.38h.13c.19,0,.32.25.32.38-1.71,5.08-4.64,7.18-7.43,7.18-3.11,0-4.83-1.65-2.79-9.78l.38-1.59c-4.38,7.3-11.05,11.37-16,11.37-4.06,0-6.54-3.3-4.7-10.54l3.49-14.1c1.14-4.51,1.91-7.87.06-7.87-.25,0-.51.06-.76.13-.13.06-.19.06-.25.06-.13,0-.19,0-.19-.06l-.06-.06c-.06-.06-.13-.19-.06-.25,0-.06.06-.13.13-.19,1.27-1.08,2.86-1.52,4.51-1.52ZM105.82,214.85c3.05,0,4.83,1.71,2.79,9.78l-.38,1.59c4.45-7.3,11.3-11.37,16-11.37,3.94,0,6.29,3.3,4.45,10.54l-3.49,14.1c-.95,3.81-1.46,6.6.19,6.6.95,0,1.97-1.33,2.73-3.56l.19-.44c0-.19.25-.38.44-.38h.13c.19,0,.32.25.32.38-1.71,5.08-4.64,7.18-7.43,7.18-3.11,0-4.83-1.65-2.79-9.78l3.43-13.91c1.08-4.32-.64-6.35-3.43-6.35-3.24,0-7.94,3.81-12,12.13l-4.38,17.46h-6.16l6.03-24.19c1.14-4.51,1.91-7.87.06-7.87-.25,0-.51.06-.76.13-.13.06-.19.06-.25.06-.13,0-.19,0-.19-.06l-.06-.06c-.06-.06-.13-.19-.06-.25,0-.06.06-.13.13-.19,1.27-1.08,2.86-1.52,4.51-1.52Z"/>
    <path class="cls-2" d="M162.18,329.99h-4.06v-12.55h4.19c1.23,0,2.29.25,3.17.75.88.5,1.56,1.22,2.03,2.15.47.93.71,2.05.71,3.35s-.24,2.43-.72,3.37c-.47.94-1.16,1.66-2.06,2.17-.9.5-1.99.75-3.26.75ZM160.01,328.34h2.07c.96,0,1.75-.18,2.38-.54.63-.36,1.11-.89,1.42-1.58.31-.69.47-1.53.47-2.52s-.16-1.82-.47-2.51c-.31-.69-.77-1.21-1.39-1.56-.62-.36-1.38-.53-2.3-.53h-2.18v9.24ZM184.73,323.72c0,1.34-.25,2.49-.74,3.46-.49.96-1.16,1.7-2.02,2.22-.85.51-1.82.77-2.9.77s-2.06-.26-2.91-.77c-.85-.52-1.52-1.26-2.01-2.22-.49-.96-.74-2.11-.74-3.45s.25-2.49.74-3.45c.49-.96,1.16-1.7,2.01-2.22.85-.52,1.82-.78,2.91-.78s2.05.26,2.9.78c.85.51,1.53,1.25,2.02,2.22.49.96.74,2.11.74,3.45ZM182.86,323.72c0-1.02-.17-1.88-.5-2.58-.33-.7-.78-1.23-1.35-1.59-.57-.36-1.21-.55-1.93-.55s-1.37.18-1.94.55c-.57.36-1.02.89-1.35,1.59-.33.7-.49,1.56-.49,2.58s.16,1.88.49,2.59c.33.7.78,1.23,1.35,1.59.57.36,1.21.54,1.94.54s1.36-.18,1.93-.54c.57-.36,1.02-.89,1.35-1.59.33-.7.5-1.56.5-2.59ZM200.48,317.44v12.55h-1.74l-6.38-9.2h-.12v9.2h-1.89v-12.55h1.75l6.39,9.22h.12v-9.22h1.88ZM210.56,329.99h-4.06v-12.55h4.19c1.23,0,2.29.25,3.17.75.88.5,1.56,1.22,2.03,2.15.47.93.71,2.05.71,3.35s-.24,2.43-.72,3.37c-.47.94-1.16,1.66-2.06,2.17-.9.5-1.99.75-3.26.75ZM208.39,328.34h2.07c.96,0,1.75-.18,2.38-.54.63-.36,1.11-.89,1.42-1.58.31-.69.47-1.53.47-2.52s-.16-1.82-.47-2.51c-.31-.69-.77-1.21-1.39-1.56-.62-.36-1.38-.53-2.3-.53h-2.18v9.24ZM222.21,329.99v-12.55h7.87v1.63h-5.97v3.82h5.56v1.62h-5.56v3.84h6.05v1.63h-7.94ZM243.69,329.99v-12.55h7.87v1.63h-5.97v3.82h5.56v1.62h-5.56v3.84h6.05v1.63h-7.94ZM264.19,320.74c-.06-.58-.33-1.03-.81-1.35-.47-.32-1.07-.48-1.79-.48-.51,0-.96.08-1.34.25-.38.16-.67.38-.88.66-.2.28-.31.59-.31.95,0,.3.07.56.21.77.14.22.33.4.56.55.23.14.48.26.75.36.27.09.52.17.77.23l1.23.32c.4.1.81.23,1.23.4.42.17.81.39,1.17.66.36.27.65.61.87,1.02.23.4.34.89.34,1.45,0,.71-.18,1.34-.55,1.89-.36.55-.89.99-1.59,1.31-.69.32-1.53.48-2.51.48s-1.75-.15-2.44-.45c-.69-.3-1.22-.72-1.61-1.27-.39-.55-.6-1.21-.64-1.96h1.9c.04.45.18.83.44,1.13.26.3.59.52,1,.67.41.14.86.21,1.34.21.54,0,1.01-.08,1.43-.25.42-.17.75-.41.99-.71.24-.31.36-.66.36-1.07,0-.37-.11-.68-.32-.91-.21-.24-.49-.43-.85-.59-.36-.15-.76-.29-1.21-.41l-1.48-.4c-1.01-.27-1.8-.68-2.39-1.21-.58-.53-.88-1.23-.88-2.11,0-.72.2-1.35.59-1.89.39-.54.92-.96,1.59-1.26.67-.3,1.43-.45,2.27-.45s1.6.15,2.25.45c.65.3,1.17.71,1.54,1.23.38.52.57,1.12.59,1.79h-1.83ZM271.09,319.07v-1.63h9.71v1.63h-3.92v10.92h-1.89v-10.92h-3.91ZM286.21,329.99v-12.55h7.87v1.63h-5.97v3.82h5.56v1.62h-5.56v3.84h6.05v1.63h-7.94ZM289.38,316.19l1.43-2.82h1.93l-1.9,2.82h-1.46ZM306.71,320.74c-.07-.58-.34-1.03-.81-1.35-.47-.32-1.07-.48-1.79-.48-.51,0-.96.08-1.34.25-.38.16-.67.38-.88.66-.2.28-.31.59-.31.95,0,.3.07.56.21.77.14.22.33.4.56.55.23.14.48.26.75.36.27.09.52.17.77.23l1.23.32c.4.1.81.23,1.23.4.42.17.81.39,1.17.66.36.27.65.61.87,1.02.22.4.34.89.34,1.45,0,.71-.18,1.34-.55,1.89-.36.55-.89.99-1.59,1.31-.69.32-1.53.48-2.51.48s-1.75-.15-2.44-.45c-.69-.3-1.22-.72-1.61-1.27-.39-.55-.6-1.21-.64-1.96h1.9c.04.45.18.83.44,1.13.26.3.59.52,1,.67.41.14.86.21,1.34.21.53,0,1.01-.08,1.43-.25.42-.17.75-.41.99-.71.24-.31.36-.66.36-1.07,0-.37-.11-.68-.32-.91-.21-.24-.49-.43-.85-.59-.36-.15-.76-.29-1.21-.41l-1.48-.4c-1.01-.27-1.8-.68-2.39-1.21-.58-.53-.88-1.23-.88-2.11,0-.72.2-1.35.59-1.89.39-.54.92-.96,1.59-1.26.67-.3,1.43-.45,2.27-.45s1.6.15,2.25.45c.65.3,1.17.71,1.54,1.23.38.52.57,1.12.59,1.79h-1.83ZM207.97,349.32v-12.55h4.6c.89,0,1.63.15,2.21.44.58.29,1.02.68,1.31,1.18.29.49.43,1.05.43,1.67,0,.52-.1.96-.29,1.32-.19.36-.45.64-.77.86-.32.21-.67.37-1.05.47v.12c.42.02.82.16,1.22.4.4.25.73.59.99,1.05.26.45.39,1.01.39,1.65s-.15,1.22-.45,1.73c-.3.51-.76.91-1.38,1.21-.63.29-1.42.44-2.4.44h-4.81ZM209.86,347.7h2.73c.91,0,1.56-.18,1.95-.53.39-.35.59-.79.59-1.32,0-.4-.1-.76-.3-1.09-.2-.33-.49-.59-.86-.79-.37-.2-.8-.29-1.31-.29h-2.8v4.02ZM209.86,342.2h2.54c.43,0,.81-.08,1.15-.25.34-.16.62-.39.82-.69.2-.3.31-.65.31-1.05,0-.52-.18-.95-.55-1.31-.36-.35-.92-.53-1.67-.53h-2.59v3.82ZM222.52,349.32v-12.55h7.87v1.63h-5.97v3.82h5.56v1.62h-5.56v3.84h6.05v1.63h-7.94ZM236.17,349.32v-12.55h4.6c.89,0,1.63.15,2.21.44.58.29,1.02.68,1.31,1.18.29.49.43,1.05.43,1.67,0,.52-.1.96-.29,1.32-.19.36-.45.64-.77.86-.32.21-.67.37-1.05.47v.12c.42.02.82.16,1.22.4.4.25.73.59.99,1.05.26.45.39,1.01.39,1.65s-.15,1.22-.45,1.73c-.3.51-.76.91-1.38,1.21-.63.29-1.42.44-2.4.44h-4.81ZM238.07,347.7h2.73c.91,0,1.56-.18,1.95-.53.39-.35.59-.79.59-1.32,0-.4-.1-.76-.3-1.09-.2-.33-.49-.59-.86-.79-.37-.2-.8-.29-1.31-.29h-2.8v4.02ZM238.07,342.2h2.54c.43,0,.81-.08,1.15-.25.34-.16.62-.39.82-.69.2-.3.31-.65.31-1.05,0-.52-.18-.95-.55-1.31-.36-.35-.92-.53-1.67-.53h-2.59v3.82ZM250.72,349.32v-12.55h7.87v1.63h-5.97v3.82h5.56v1.62h-5.56v3.84h6.05v1.63h-7.94Z"/>
    <path class="cls-2" d="M92.54,390.74v-8.47h1.03v7.56h3.94v.91h-4.96ZM100.83,390.89c-.4,0-.77-.08-1.1-.23-.33-.15-.59-.38-.78-.67-.19-.29-.29-.64-.29-1.06,0-.36.07-.66.21-.88.14-.23.34-.41.57-.54.24-.13.5-.23.79-.29.29-.07.59-.12.88-.16.39-.05.7-.09.94-.11.24-.03.42-.07.53-.14.11-.06.17-.17.17-.33v-.03c0-.41-.11-.73-.33-.95-.22-.23-.56-.34-1.01-.34s-.83.1-1.1.31c-.27.2-.45.42-.56.65l-.93-.33c.17-.39.39-.69.66-.9.28-.22.58-.37.91-.46.33-.09.66-.13.98-.13.2,0,.44.02.7.07.27.05.53.14.77.29.25.15.46.37.62.67.17.3.25.7.25,1.21v4.19h-.98v-.86h-.05c-.07.14-.18.29-.33.44-.15.16-.36.29-.62.4-.26.11-.57.17-.94.17ZM100.98,390.01c.39,0,.71-.08.98-.23.27-.15.47-.35.6-.59.14-.24.21-.49.21-.76v-.89s-.13.1-.27.14c-.14.04-.3.07-.48.1-.18.03-.35.05-.53.07-.17.02-.31.04-.41.05-.25.03-.49.09-.71.16-.22.07-.39.18-.53.33-.13.14-.2.34-.2.59,0,.34.13.6.38.77.25.17.57.26.96.26ZM114,384.38l-2.35,6.35h-.99l-2.35-6.35h1.06l1.75,5.06h.07l1.75-5.06h1.06ZM115.28,390.74v-6.35h.98v6.35h-.98ZM115.78,383.32c-.19,0-.35-.06-.49-.19-.13-.13-.2-.29-.2-.47s.07-.34.2-.47c.14-.13.3-.19.49-.19s.35.06.49.19c.14.13.21.29.21.47s-.07.34-.21.47c-.14.13-.3.19-.49.19ZM120.45,390.87c-.53,0-1-.13-1.4-.4-.41-.27-.72-.65-.95-1.14-.23-.49-.34-1.08-.34-1.75s.11-1.25.34-1.74c.23-.49.55-.87.96-1.14.41-.27.88-.4,1.41-.4.41,0,.74.07.98.21.24.14.43.29.55.46.13.17.23.31.3.42h.08v-3.13h.98v8.47h-.94v-.98h-.12c-.07.12-.17.26-.31.44-.13.17-.32.33-.57.47-.25.14-.57.2-.98.2ZM120.58,389.99c.39,0,.72-.1.99-.31.27-.21.48-.49.62-.86.14-.37.21-.79.21-1.27s-.07-.89-.21-1.25c-.14-.36-.34-.64-.61-.84-.27-.2-.6-.3-1-.3s-.76.11-1.03.32c-.27.21-.48.5-.62.86-.14.36-.2.76-.2,1.21s.07.86.21,1.23c.14.37.35.66.62.88.28.22.62.32,1.03.32ZM127.15,390.89c-.4,0-.77-.08-1.1-.23-.33-.15-.59-.38-.78-.67-.19-.29-.29-.64-.29-1.06,0-.36.07-.66.22-.88.14-.23.33-.41.57-.54.24-.13.5-.23.79-.29.29-.07.59-.12.88-.16.39-.05.7-.09.94-.11.24-.03.42-.07.53-.14.11-.06.17-.17.17-.33v-.03c0-.41-.11-.73-.33-.95-.22-.23-.56-.34-1.01-.34s-.83.1-1.1.31c-.26.2-.45.42-.56.65l-.93-.33c.17-.39.39-.69.66-.9.28-.22.58-.37.91-.46.33-.09.66-.13.98-.13.2,0,.44.02.7.07.27.05.53.14.77.29.25.15.46.37.62.67.16.3.25.7.25,1.21v4.19h-.98v-.86h-.05c-.07.14-.18.29-.33.44-.15.16-.36.29-.62.4-.26.11-.57.17-.94.17ZM127.3,390.01c.39,0,.71-.08.98-.23.27-.15.47-.35.6-.59.14-.24.21-.49.21-.76v-.89s-.13.1-.27.14c-.14.04-.3.07-.48.1-.18.03-.35.05-.53.07-.17.02-.3.04-.41.05-.25.03-.49.09-.71.16-.22.07-.39.18-.53.33-.13.14-.2.34-.2.59,0,.34.12.6.38.77.25.17.57.26.96.26ZM137.79,390.87c-.61,0-1.14-.14-1.58-.41-.44-.27-.78-.65-1.02-1.14-.24-.49-.36-1.06-.36-1.71s.12-1.22.36-1.72c.24-.5.57-.89,1-1.17.43-.28.93-.42,1.51-.42.33,0,.66.06.98.16.32.11.62.29.88.54.26.25.48.57.63.98.16.41.24.9.24,1.5v.41h-4.9v-.84h3.9c0-.36-.07-.68-.22-.96-.14-.28-.34-.5-.6-.67-.26-.16-.57-.24-.92-.24-.39,0-.73.1-1.01.29-.28.19-.5.44-.65.74-.15.31-.23.63-.23.98v.56c0,.48.08.89.25,1.22.17.33.4.58.7.76.3.17.64.26,1.04.26.26,0,.49-.04.69-.11.21-.07.39-.18.54-.33.15-.15.27-.33.35-.55l.94.27c-.1.32-.27.6-.5.84-.23.24-.52.43-.87.56-.35.13-.73.2-1.16.2ZM146.4,385.81l-.88.25c-.06-.15-.14-.29-.24-.43-.1-.14-.25-.26-.43-.35-.18-.09-.41-.14-.7-.14-.39,0-.71.09-.97.27-.26.18-.38.4-.38.67,0,.24.09.43.26.57.18.14.45.26.83.35l.94.23c.57.14.99.35,1.27.63.28.28.42.64.42,1.09,0,.36-.1.69-.31.98-.21.29-.5.51-.87.68-.37.17-.8.25-1.3.25-.65,0-1.18-.14-1.61-.42-.42-.28-.69-.69-.81-1.23l.93-.23c.09.34.26.6.5.77.25.17.57.26.97.26.45,0,.82-.1,1.08-.29.27-.2.41-.43.41-.7,0-.22-.08-.41-.23-.55-.15-.15-.39-.26-.71-.34l-1.06-.25c-.58-.14-1.01-.35-1.28-.64-.27-.29-.41-.66-.41-1.1,0-.36.1-.68.3-.95.2-.28.48-.49.83-.65.35-.16.75-.24,1.2-.24.63,0,1.12.14,1.48.41.36.28.62.64.77,1.09ZM155.27,388.14v-3.76h.98v6.35h-.98v-1.08h-.07c-.15.32-.38.6-.7.82-.31.22-.71.34-1.19.34-.4,0-.75-.09-1.06-.26-.31-.18-.55-.44-.73-.79-.18-.36-.26-.8-.26-1.34v-4.04h.98v3.97c0,.46.13.83.39,1.11.26.28.6.41,1,.41.24,0,.49-.06.74-.19.25-.12.47-.31.64-.57.17-.26.26-.58.26-.98ZM159.01,386.91v3.82h-.98v-6.35h.94v.99h.08c.15-.32.38-.58.68-.78.3-.2.7-.3,1.17-.3.43,0,.81.09,1.13.26.32.17.57.44.75.79.18.35.27.8.27,1.34v4.04h-.98v-3.97c0-.5-.13-.89-.39-1.17-.26-.28-.62-.42-1.07-.42-.31,0-.59.07-.84.2-.24.13-.43.33-.57.59-.14.26-.21.57-.21.94ZM166.72,390.89c-.4,0-.77-.08-1.1-.23-.33-.15-.59-.38-.78-.67-.19-.29-.29-.64-.29-1.06,0-.36.07-.66.22-.88.14-.23.33-.41.57-.54.24-.13.5-.23.79-.29.29-.07.59-.12.88-.16.39-.05.7-.09.94-.11.24-.03.42-.07.53-.14.11-.06.17-.17.17-.33v-.03c0-.41-.11-.73-.34-.95-.22-.23-.56-.34-1.01-.34s-.83.1-1.1.31c-.27.2-.45.42-.56.65l-.93-.33c.16-.39.39-.69.66-.9.28-.22.58-.37.91-.46.33-.09.66-.13.98-.13.2,0,.44.02.7.07.27.05.53.14.77.29.25.15.46.37.62.67.17.3.25.7.25,1.21v4.19h-.98v-.86h-.05c-.07.14-.18.29-.33.44-.15.16-.36.29-.62.4-.26.11-.57.17-.94.17ZM166.86,390.01c.39,0,.71-.08.98-.23.27-.15.47-.35.6-.59.14-.24.21-.49.21-.76v-.89s-.13.1-.27.14c-.14.04-.3.07-.48.1-.18.03-.35.05-.53.07-.17.02-.31.04-.41.05-.25.03-.49.09-.71.16-.22.07-.39.18-.53.33-.13.14-.2.34-.2.59,0,.34.13.6.38.77.25.17.57.26.96.26ZM177.51,384.38v.83h-3.43v-.83h3.43ZM175.11,390.74v-7.23c0-.36.09-.67.26-.91.17-.24.39-.43.67-.55.27-.12.56-.18.86-.18.24,0,.44.02.59.06s.27.07.34.11l-.28.84s-.12-.04-.21-.06c-.08-.02-.2-.04-.34-.04-.32,0-.56.08-.7.24-.14.16-.21.4-.21.72v7h-.98ZM178.88,390.74v-6.35h.98v6.35h-.98ZM179.38,383.32c-.19,0-.35-.06-.49-.19-.14-.13-.2-.29-.2-.47s.07-.34.2-.47c.14-.13.3-.19.49-.19s.35.06.49.19c.14.13.21.29.21.47s-.07.34-.21.47c-.13.13-.3.19-.49.19ZM184.31,390.87c-.61,0-1.14-.14-1.58-.41-.44-.27-.78-.65-1.02-1.14-.24-.49-.36-1.06-.36-1.71s.12-1.22.36-1.72c.24-.5.57-.89,1-1.17.43-.28.93-.42,1.51-.42.33,0,.66.06.98.16.32.11.62.29.88.54.26.25.48.57.63.98.16.41.24.9.24,1.5v.41h-4.9v-.84h3.9c0-.36-.07-.68-.22-.96-.14-.28-.34-.5-.6-.67-.26-.16-.57-.24-.92-.24-.39,0-.73.1-1.01.29-.28.19-.5.44-.65.74-.15.31-.23.63-.23.98v.56c0,.48.08.89.25,1.22.17.33.4.58.7.76.3.17.64.26,1.04.26.26,0,.49-.04.7-.11.21-.07.39-.18.54-.33.15-.15.27-.33.35-.55l.94.27c-.1.32-.27.6-.5.84-.23.24-.52.43-.87.56-.35.13-.73.2-1.16.2ZM192.93,385.81l-.88.25c-.06-.15-.14-.29-.24-.43-.1-.14-.25-.26-.43-.35-.18-.09-.41-.14-.7-.14-.39,0-.71.09-.97.27-.26.18-.38.4-.38.67,0,.24.09.43.26.57.18.14.45.26.83.35l.94.23c.57.14.99.35,1.27.63.28.28.42.64.42,1.09,0,.36-.1.69-.31.98-.21.29-.5.51-.87.68-.37.17-.8.25-1.3.25-.65,0-1.18-.14-1.61-.42-.43-.28-.69-.69-.81-1.23l.93-.23c.09.34.26.6.5.77.25.17.57.26.97.26.45,0,.82-.1,1.08-.29.27-.2.41-.43.41-.7,0-.22-.08-.41-.23-.55-.15-.15-.39-.26-.71-.34l-1.06-.25c-.58-.14-1.01-.35-1.28-.64-.27-.29-.41-.66-.41-1.1,0-.36.1-.68.3-.95.2-.28.48-.49.83-.65.35-.16.75-.24,1.2-.24.63,0,1.12.14,1.48.41.36.28.62.64.77,1.09ZM197.27,384.38v.83h-3.29v-.83h3.29ZM194.94,382.86h.98v6.06c0,.28.04.48.12.62.08.14.19.23.31.27.13.04.27.07.41.07.11,0,.2,0,.26-.02.07-.01.12-.02.17-.03l.2.88c-.07.02-.16.05-.28.07-.12.03-.27.04-.45.04-.28,0-.55-.06-.81-.18-.26-.12-.48-.3-.65-.54-.17-.24-.26-.55-.26-.92v-6.32ZM200.61,390.89c-.4,0-.77-.08-1.1-.23-.33-.15-.59-.38-.78-.67-.19-.29-.29-.64-.29-1.06,0-.36.07-.66.21-.88.14-.23.34-.41.57-.54.24-.13.51-.23.79-.29.29-.07.59-.12.88-.16.39-.05.7-.09.94-.11.24-.03.42-.07.53-.14.11-.06.17-.17.17-.33v-.03c0-.41-.11-.73-.33-.95-.22-.23-.56-.34-1.01-.34s-.83.1-1.1.31c-.27.2-.45.42-.56.65l-.93-.33c.16-.39.39-.69.66-.9.28-.22.58-.37.91-.46.33-.09.66-.13.98-.13.2,0,.44.02.7.07.27.05.53.14.77.29.25.15.46.37.62.67.17.3.25.7.25,1.21v4.19h-.98v-.86h-.05c-.07.14-.18.29-.33.44-.15.16-.36.29-.62.4-.26.11-.57.17-.94.17ZM200.76,390.01c.39,0,.71-.08.98-.23.27-.15.47-.35.6-.59.14-.24.21-.49.21-.76v-.89s-.13.1-.27.14c-.14.04-.3.07-.48.1-.18.03-.35.05-.53.07-.17.02-.31.04-.41.05-.25.03-.49.09-.71.16-.22.07-.39.18-.53.33-.13.14-.2.34-.2.59,0,.34.13.6.38.77.25.17.57.26.96.26ZM212.92,393.12v-3.36h-.08c-.07.12-.17.26-.31.44-.13.17-.32.33-.57.47-.25.14-.57.2-.98.2-.53,0-1-.13-1.4-.4-.41-.27-.72-.65-.95-1.14-.23-.49-.34-1.08-.34-1.75s.11-1.25.34-1.74c.23-.49.55-.87.96-1.14.41-.27.88-.4,1.42-.4.41,0,.74.07.98.21.24.14.43.29.55.46.13.17.23.31.3.42h.12v-1.01h.94v8.74h-.98ZM211.11,389.99c.39,0,.72-.1.99-.31.27-.21.48-.49.62-.86.14-.37.21-.79.21-1.27s-.07-.89-.21-1.25c-.14-.36-.34-.64-.61-.84-.27-.2-.6-.3-1-.3s-.76.11-1.03.32c-.27.21-.48.5-.62.86-.14.36-.2.76-.2,1.21s.07.86.21,1.23c.14.37.35.66.62.88.28.22.62.32,1.03.32ZM219.68,388.14v-3.76h.98v6.35h-.98v-1.08h-.07c-.15.32-.38.6-.7.82-.31.22-.71.34-1.19.34-.4,0-.75-.09-1.06-.26-.31-.18-.55-.44-.73-.79-.18-.36-.27-.8-.27-1.34v-4.04h.98v3.97c0,.46.13.83.39,1.11.26.28.6.41,1,.41.24,0,.49-.06.74-.19.25-.12.47-.31.64-.57.17-.26.26-.58.26-.98ZM225.11,390.87c-.61,0-1.14-.14-1.58-.41-.44-.27-.78-.65-1.02-1.14-.24-.49-.36-1.06-.36-1.71s.12-1.22.36-1.72c.24-.5.57-.89,1-1.17.43-.28.93-.42,1.51-.42.33,0,.66.06.98.16.32.11.62.29.88.54.26.25.48.57.63.98.16.41.24.9.24,1.5v.41h-4.9v-.84h3.9c0-.36-.07-.68-.22-.96-.14-.28-.34-.5-.6-.67-.26-.16-.57-.24-.92-.24-.39,0-.73.1-1.01.29-.28.19-.5.44-.65.74-.15.31-.23.63-.23.98v.56c0,.48.08.89.25,1.22.17.33.4.58.7.76.3.17.64.26,1.04.26.26,0,.49-.04.7-.11.21-.07.39-.18.54-.33.15-.15.27-.33.35-.55l.94.27c-.1.32-.27.6-.5.84-.23.24-.52.43-.87.56-.35.13-.73.2-1.16.2ZM154.99,404.71v-3.76h.98v6.35h-.98v-1.08h-.07c-.15.32-.38.6-.69.82-.31.22-.71.34-1.19.34-.4,0-.75-.09-1.06-.26-.31-.18-.55-.44-.73-.79-.18-.36-.27-.8-.27-1.34v-4.04h.98v3.97c0,.46.13.83.39,1.11.26.28.6.41,1,.41.24,0,.49-.06.74-.19.25-.12.47-.31.64-.57.17-.26.26-.58.26-.98ZM158.74,403.48v3.82h-.98v-6.35h.94v.99h.08c.15-.32.37-.58.68-.78.3-.2.69-.3,1.17-.3.43,0,.81.09,1.13.26.32.17.57.44.75.79.18.35.27.8.27,1.34v4.04h-.98v-3.97c0-.5-.13-.89-.39-1.17-.26-.28-.62-.42-1.07-.42-.31,0-.59.07-.84.2-.24.13-.43.33-.57.59-.14.26-.21.57-.21.94ZM170.25,407.44c-.53,0-1-.13-1.4-.4-.41-.27-.72-.65-.95-1.14-.23-.49-.34-1.08-.34-1.75s.11-1.25.34-1.74.55-.87.96-1.14c.41-.27.88-.4,1.42-.4.41,0,.74.07.98.21.24.14.43.29.55.46.13.17.23.31.3.42h.08v-3.13h.98v8.47h-.94v-.98h-.12c-.07.12-.17.26-.31.44-.13.17-.32.33-.57.47-.25.14-.57.2-.98.2ZM170.38,406.56c.39,0,.72-.1.99-.31.27-.21.48-.49.62-.86.14-.37.21-.79.21-1.27s-.07-.89-.21-1.25c-.14-.36-.34-.64-.61-.84-.27-.2-.6-.3-1-.3s-.76.11-1.03.32c-.27.21-.48.5-.62.86-.13.36-.2.76-.2,1.21s.07.86.21,1.23c.14.37.35.66.62.88.28.22.62.32,1.03.32ZM175.08,407.3v-6.35h.98v6.35h-.98ZM175.13,400.09l1.01-1.92h1.14l-1.29,1.92h-.86ZM179.72,407.45c-.4,0-.77-.08-1.1-.23-.33-.15-.59-.38-.78-.67-.19-.29-.29-.64-.29-1.06,0-.36.07-.66.22-.88.14-.23.33-.41.57-.54.24-.13.5-.23.79-.29.29-.07.59-.12.88-.16.39-.05.7-.09.94-.11.24-.03.42-.07.53-.14.11-.06.17-.17.17-.33v-.03c0-.41-.11-.73-.34-.95-.22-.23-.56-.34-1.01-.34s-.83.1-1.1.31c-.26.2-.45.42-.56.65l-.93-.33c.16-.39.39-.69.66-.9.28-.22.58-.37.91-.46.33-.09.66-.13.98-.13.2,0,.44.02.7.07.27.05.53.14.77.29.25.15.46.37.62.67.17.3.25.7.25,1.21v4.19h-.98v-.86h-.05c-.07.14-.18.29-.33.44-.15.16-.36.29-.62.4-.26.11-.57.17-.94.17ZM179.87,406.57c.39,0,.71-.08.98-.23.27-.15.47-.35.6-.59.14-.24.21-.49.21-.76v-.89s-.13.1-.27.14c-.14.04-.3.07-.48.1-.18.03-.35.05-.53.07-.17.02-.3.04-.41.05-.25.03-.49.09-.71.16-.22.07-.39.18-.53.33-.13.14-.2.34-.2.59,0,.34.13.6.38.77.25.17.57.26.96.26ZM190.45,400.95v.83h-3.29v-.83h3.29ZM188.12,399.43h.98v6.06c0,.28.04.48.12.62.08.14.19.23.31.27.13.04.27.07.41.07.11,0,.2,0,.27-.02.07-.01.12-.02.16-.03l.2.88c-.07.02-.16.05-.28.07-.12.03-.27.04-.45.04-.28,0-.55-.06-.81-.18-.26-.12-.48-.3-.65-.54-.17-.24-.26-.55-.26-.92v-6.32ZM194.51,407.44c-.61,0-1.14-.14-1.58-.41-.44-.27-.78-.65-1.02-1.14-.24-.49-.36-1.06-.36-1.71s.12-1.22.36-1.72c.24-.5.57-.89,1-1.17.43-.28.93-.42,1.51-.42.33,0,.66.06.98.16.32.11.62.29.88.54.26.25.48.57.63.98.16.41.24.9.24,1.5v.41h-4.9v-.84h3.9c0-.36-.07-.68-.22-.96-.14-.28-.34-.5-.6-.67-.26-.16-.56-.24-.92-.24-.39,0-.73.1-1.01.29-.28.19-.5.44-.65.74-.15.31-.23.63-.23.98v.56c0,.48.08.89.25,1.22.17.33.4.58.7.76.3.17.64.26,1.04.26.26,0,.49-.04.7-.11.21-.07.39-.18.54-.33.15-.15.27-.33.35-.55l.94.27c-.1.32-.27.6-.5.84-.23.24-.52.43-.87.56-.34.13-.73.2-1.16.2ZM198.63,407.3v-6.35h.94v.96h.07c.12-.31.33-.57.63-.77.3-.2.64-.29,1.03-.29.07,0,.16,0,.27,0s.19,0,.24.01v.99s-.11-.02-.23-.04c-.12-.02-.24-.03-.37-.03-.31,0-.58.06-.83.19-.24.13-.43.3-.57.53-.14.22-.21.48-.21.76v4.02h-.98ZM202.96,407.3v-6.35h.94v.99h.08c.13-.34.35-.6.64-.79.3-.19.65-.29,1.06-.29s.77.09,1.05.29c.28.19.5.45.66.79h.07c.16-.33.41-.59.73-.78.33-.2.72-.29,1.17-.29.57,0,1.03.18,1.39.53.36.35.54.9.54,1.65v4.25h-.98v-4.25c0-.47-.13-.8-.38-1.01-.26-.2-.56-.3-.91-.3-.45,0-.79.14-1.04.41-.25.27-.37.61-.37,1.02v4.14h-.99v-4.35c0-.36-.12-.65-.35-.87-.23-.22-.54-.33-.91-.33-.25,0-.49.07-.71.2-.22.13-.39.32-.53.56-.13.24-.2.51-.2.82v3.97h-.98ZM213.09,407.3v-6.35h.98v6.35h-.98ZM213.58,399.89c-.19,0-.35-.06-.49-.19-.14-.13-.2-.29-.2-.47s.07-.34.2-.47c.14-.13.3-.19.49-.19s.35.06.49.19c.14.13.21.29.21.47s-.07.34-.21.47c-.14.13-.3.19-.49.19ZM216.83,403.48v3.82h-.98v-6.35h.94v.99h.08c.15-.32.37-.58.68-.78.3-.2.7-.3,1.17-.3.43,0,.81.09,1.13.26.32.17.57.44.75.79.18.35.27.8.27,1.34v4.04h-.98v-3.97c0-.5-.13-.89-.39-1.17-.26-.28-.62-.42-1.07-.42-.31,0-.59.07-.84.2-.24.13-.43.33-.57.59-.14.26-.21.57-.21.94ZM224.53,407.45c-.4,0-.77-.08-1.1-.23-.33-.15-.59-.38-.78-.67-.19-.29-.29-.64-.29-1.06,0-.36.07-.66.22-.88.14-.23.33-.41.57-.54.24-.13.5-.23.79-.29.29-.07.59-.12.88-.16.39-.05.7-.09.94-.11.24-.03.42-.07.53-.14.11-.06.17-.17.17-.33v-.03c0-.41-.11-.73-.34-.95-.22-.23-.56-.34-1.01-.34s-.83.1-1.1.31c-.26.2-.45.42-.56.65l-.93-.33c.17-.39.39-.69.66-.9.28-.22.58-.37.91-.46.33-.09.66-.13.98-.13.2,0,.44.02.7.07.27.05.53.14.77.29.25.15.46.37.62.67.16.3.25.7.25,1.21v4.19h-.98v-.86h-.05c-.07.14-.18.29-.33.44-.15.16-.36.29-.62.4-.26.11-.57.17-.94.17ZM224.68,406.57c.39,0,.71-.08.98-.23.27-.15.47-.35.6-.59.14-.24.21-.49.21-.76v-.89s-.13.1-.27.14c-.14.04-.3.07-.48.1-.18.03-.35.05-.53.07-.17.02-.3.04-.41.05-.25.03-.49.09-.71.16-.22.07-.39.18-.53.33-.13.14-.2.34-.2.59,0,.34.13.6.38.77.25.17.57.26.96.26ZM127.03,415.4h1.17l2.35,3.95h.1l2.35-3.95h1.17l-3.06,4.98v3.49h-1.03v-3.49l-3.06-4.98ZM141.48,417.51v.83h-3.43v-.83h3.43ZM139.08,423.87v-7.23c0-.36.09-.67.26-.91.17-.24.39-.43.67-.55.27-.12.56-.18.86-.18.24,0,.44.02.59.06s.27.07.34.11l-.28.84s-.12-.04-.21-.06c-.08-.02-.2-.04-.34-.04-.32,0-.56.08-.7.24-.14.16-.21.4-.21.72v7h-.98ZM146.85,421.27v-3.76h.98v6.35h-.98v-1.08h-.07c-.15.32-.38.6-.7.82-.31.22-.71.34-1.19.34-.4,0-.75-.09-1.06-.26-.31-.18-.55-.44-.73-.79-.18-.36-.27-.8-.27-1.34v-4.04h.98v3.97c0,.46.13.83.39,1.11.26.28.6.41,1,.41.24,0,.49-.06.74-.19.25-.12.47-.31.64-.57.17-.26.26-.58.26-.98ZM149.61,423.87v-6.35h.98v6.35h-.98ZM150.11,416.46c-.19,0-.35-.06-.49-.19-.13-.13-.2-.29-.2-.47s.07-.34.2-.47c.14-.13.3-.19.49-.19s.35.06.49.19c.14.13.21.29.21.47s-.07.34-.21.47c-.14.13-.3.19-.49.19ZM156.88,418.94l-.88.25c-.05-.15-.14-.29-.24-.43-.1-.14-.25-.26-.43-.35-.18-.09-.42-.14-.7-.14-.39,0-.71.09-.97.27-.26.18-.39.4-.39.67,0,.24.09.43.27.57.18.14.45.26.83.35l.94.23c.57.14.99.35,1.27.63.28.28.42.64.42,1.09,0,.36-.1.69-.31.98-.21.29-.5.51-.87.68-.37.17-.81.25-1.3.25-.65,0-1.18-.14-1.61-.42-.42-.28-.69-.69-.81-1.23l.93-.23c.09.34.25.6.5.77.25.17.57.26.97.26.45,0,.82-.1,1.08-.29.27-.2.41-.43.41-.7,0-.22-.08-.41-.23-.55-.15-.15-.39-.26-.71-.34l-1.06-.25c-.58-.14-1.01-.35-1.28-.64-.27-.29-.41-.66-.41-1.1,0-.36.1-.68.3-.95.2-.28.48-.49.83-.65.35-.16.75-.24,1.2-.24.63,0,1.12.14,1.48.41.36.28.62.64.77,1.09ZM161.23,417.51v.83h-3.29v-.83h3.29ZM158.89,415.99h.98v6.06c0,.28.04.48.12.62.08.14.19.23.31.27.13.04.27.07.41.07.11,0,.2,0,.27-.02.07-.01.12-.02.17-.03l.2.88c-.07.02-.16.05-.28.07-.12.03-.27.04-.45.04-.28,0-.55-.06-.81-.18-.26-.12-.48-.3-.65-.54-.17-.24-.26-.55-.26-.92v-6.32ZM165.29,424c-.61,0-1.14-.14-1.58-.41-.44-.27-.78-.65-1.02-1.14-.24-.49-.36-1.06-.36-1.71s.12-1.22.36-1.72c.24-.5.57-.89,1-1.17.43-.28.93-.42,1.51-.42.33,0,.66.06.98.16.32.11.62.29.88.54.27.25.48.57.63.98.16.41.24.9.24,1.5v.41h-4.9v-.84h3.9c0-.36-.07-.68-.21-.96-.14-.28-.34-.5-.6-.67-.26-.16-.57-.24-.92-.24-.39,0-.72.1-1.01.29-.28.19-.5.44-.65.74-.15.31-.23.63-.23.98v.56c0,.48.08.89.25,1.22.17.33.4.58.7.76.3.17.64.26,1.04.26.26,0,.49-.04.7-.11.21-.07.39-.18.54-.33.15-.15.27-.33.35-.55l.94.27c-.1.32-.27.6-.5.84-.23.24-.52.43-.87.56-.34.13-.73.2-1.16.2ZM175.45,417.51v.83h-3.29v-.83h3.29ZM173.11,415.99h.98v6.06c0,.28.04.48.12.62.08.14.19.23.31.27.13.04.27.07.41.07.11,0,.2,0,.26-.02.07-.01.12-.02.17-.03l.2.88c-.07.02-.16.05-.28.07-.12.03-.27.04-.45.04-.28,0-.55-.06-.81-.18-.26-.12-.48-.3-.65-.54-.17-.24-.26-.55-.26-.92v-6.32ZM180.92,421.27v-3.76h.98v6.35h-.98v-1.08h-.07c-.15.32-.38.6-.7.82-.31.22-.71.34-1.19.34-.4,0-.75-.09-1.06-.26-.31-.18-.55-.44-.73-.79-.18-.36-.27-.8-.27-1.34v-4.04h.98v3.97c0,.46.13.83.39,1.11.26.28.6.41,1,.41.24,0,.49-.06.74-.19.25-.12.47-.31.64-.57.17-.26.26-.58.26-.98ZM178.97,416.65l1.01-1.92h1.14l-1.29,1.92h-.86ZM186.96,423.87v-6.35h.94v.99h.08c.13-.34.35-.6.64-.79.29-.19.65-.29,1.06-.29s.77.09,1.05.29c.28.19.5.45.66.79h.07c.16-.33.41-.59.73-.78.33-.2.72-.29,1.17-.29.57,0,1.03.18,1.39.53.36.35.54.9.54,1.65v4.25h-.98v-4.25c0-.47-.13-.8-.38-1.01-.26-.2-.56-.3-.91-.3-.45,0-.79.14-1.04.41-.25.27-.37.61-.37,1.02v4.14h-.99v-4.35c0-.36-.12-.65-.35-.87-.23-.22-.54-.33-.91-.33-.25,0-.49.07-.71.2-.22.13-.39.32-.53.56-.13.24-.2.51-.2.82v3.97h-.98ZM197.08,423.87v-6.35h.98v6.35h-.98ZM197.58,416.46c-.19,0-.35-.06-.49-.19-.13-.13-.2-.29-.2-.47s.07-.34.2-.47c.14-.13.3-.19.49-.19s.35.06.49.19c.14.13.21.29.21.47s-.07.34-.21.47c-.14.13-.3.19-.49.19ZM203.26,423.87v-8.47h.98v3.13h.08c.07-.11.17-.25.3-.42.13-.17.31-.33.55-.46.24-.14.57-.21.98-.21.54,0,1.01.13,1.42.4.41.27.73.65.96,1.14.23.49.34,1.07.34,1.74s-.11,1.26-.34,1.75c-.23.49-.55.87-.95,1.14-.41.27-.87.4-1.4.4-.41,0-.73-.07-.98-.2-.25-.14-.43-.29-.57-.47-.13-.18-.23-.32-.31-.44h-.12v.98h-.94ZM204.21,420.69c0,.48.07.9.21,1.27.14.36.35.65.62.86.27.2.6.31.99.31s.75-.11,1.02-.32c.28-.22.48-.51.62-.88.14-.37.21-.78.21-1.23s-.07-.85-.21-1.21c-.14-.36-.34-.65-.62-.86-.27-.21-.62-.32-1.03-.32s-.73.1-1,.3c-.27.2-.47.48-.61.84-.14.36-.21.77-.21,1.25ZM212.23,424.02c-.4,0-.77-.08-1.1-.23-.33-.15-.59-.38-.78-.67-.19-.29-.29-.64-.29-1.06,0-.36.07-.66.22-.88.14-.23.33-.41.57-.54.24-.13.5-.23.79-.29.29-.07.59-.12.88-.16.39-.05.7-.09.94-.11.24-.03.42-.07.53-.14.11-.06.17-.17.17-.33v-.03c0-.41-.11-.73-.33-.95-.22-.23-.56-.34-1.01-.34s-.83.1-1.1.31c-.26.2-.45.42-.56.65l-.93-.33c.17-.39.39-.69.66-.9.28-.22.58-.37.91-.46.33-.09.66-.13.98-.13.2,0,.44.02.7.07.27.05.53.14.77.29.25.15.46.37.62.67.16.3.25.7.25,1.21v4.19h-.98v-.86h-.05c-.07.14-.18.29-.33.44-.15.16-.36.29-.62.4-.26.11-.57.17-.94.17ZM212.38,423.14c.39,0,.71-.08.98-.23.27-.15.47-.35.6-.59.14-.24.21-.49.21-.76v-.89s-.13.1-.27.14c-.14.04-.3.07-.48.1-.18.03-.35.05-.53.07-.17.02-.3.04-.41.05-.25.03-.49.09-.71.16-.22.07-.39.18-.53.33-.13.14-.2.34-.2.59,0,.34.12.6.38.77.25.17.57.26.96.26ZM216.92,423.87v-6.35h.98v6.35h-.98ZM217.42,416.46c-.19,0-.35-.06-.49-.19-.14-.13-.2-.29-.2-.47s.07-.34.2-.47c.14-.13.3-.19.49-.19s.35.06.49.19c.14.13.21.29.21.47s-.07.34-.21.47c-.14.13-.3.19-.49.19ZM220.66,415.4v8.47h-.98v-8.47h.98ZM225.11,424c-.61,0-1.14-.14-1.58-.41-.44-.27-.78-.65-1.02-1.14-.24-.49-.36-1.06-.36-1.71s.12-1.22.36-1.72c.24-.5.57-.89,1-1.17.43-.28.93-.42,1.51-.42.33,0,.66.06.98.16.32.11.62.29.88.54.26.25.48.57.63.98.16.41.24.9.24,1.5v.41h-4.9v-.84h3.9c0-.36-.07-.68-.22-.96-.14-.28-.34-.5-.6-.67-.26-.16-.57-.24-.92-.24-.39,0-.73.1-1.01.29-.28.19-.5.44-.65.74-.15.31-.23.63-.23.98v.56c0,.48.08.89.25,1.22.17.33.4.58.7.76.3.17.64.26,1.04.26.26,0,.49-.04.7-.11.21-.07.39-.18.54-.33.15-.15.27-.33.35-.55l.94.27c-.1.32-.27.6-.5.84-.23.24-.52.43-.87.56-.35.13-.73.2-1.16.2ZM170.11,440.43v-6.35h.98v6.35h-.98ZM170.61,433.02c-.19,0-.35-.06-.49-.19-.13-.13-.2-.29-.2-.47s.07-.34.2-.47c.14-.13.3-.19.49-.19s.35.06.49.19c.14.13.21.29.21.47s-.07.34-.21.47c-.14.13-.3.19-.49.19ZM173.85,436.61v3.82h-.98v-6.35h.94v.99h.08c.15-.32.37-.58.68-.78.3-.2.7-.3,1.17-.3.43,0,.81.09,1.13.26.32.17.57.44.75.79.18.35.27.8.27,1.34v4.04h-.98v-3.97c0-.5-.13-.89-.39-1.17-.26-.28-.62-.42-1.07-.42-.31,0-.59.07-.84.2-.24.13-.43.33-.57.59-.14.26-.21.57-.21.94ZM182.27,440.57c-.57,0-1.08-.14-1.51-.41-.43-.27-.77-.65-1.01-1.15-.24-.49-.36-1.07-.36-1.72s.12-1.24.36-1.73c.24-.49.58-.88,1.01-1.15.43-.27.94-.41,1.51-.41s1.08.14,1.51.41c.43.27.77.66,1.01,1.15.24.49.36,1.07.36,1.73s-.12,1.23-.36,1.72c-.24.49-.58.87-1.01,1.15-.43.27-.93.41-1.51.41ZM182.27,439.69c.44,0,.79-.11,1.08-.33.28-.22.49-.52.62-.88.14-.36.2-.76.2-1.18s-.07-.82-.2-1.19c-.13-.37-.34-.66-.62-.89-.28-.23-.64-.34-1.08-.34s-.79.11-1.08.34c-.28.23-.49.52-.62.89-.14.37-.2.76-.2,1.19s.07.82.2,1.18c.13.36.34.66.62.88.28.22.64.33,1.08.33ZM187.62,431.96v8.47h-.98v-8.47h.98ZM194.6,434.08l-2.35,6.35h-.99l-2.35-6.35h1.06l1.75,5.06h.07l1.75-5.06h1.06ZM195.89,440.43v-6.35h.98v6.35h-.98ZM196.38,433.02c-.19,0-.35-.06-.49-.19-.14-.13-.2-.29-.2-.47s.07-.34.2-.47c.14-.13.3-.19.49-.19s.35.06.49.19c.14.13.21.29.21.47s-.07.34-.21.47c-.14.13-.3.19-.49.19ZM201.05,440.57c-.53,0-1-.13-1.4-.4-.41-.27-.72-.65-.95-1.14-.23-.49-.34-1.08-.34-1.75s.11-1.25.34-1.74c.23-.49.55-.87.96-1.14.41-.27.88-.4,1.41-.4.41,0,.74.07.98.21.24.14.43.29.55.46.13.17.23.31.3.42h.08v-3.13h.98v8.47h-.94v-.98h-.12c-.07.12-.17.26-.31.44-.13.17-.32.33-.57.47-.25.14-.57.2-.98.2ZM201.18,439.69c.39,0,.72-.1.99-.31.27-.21.48-.49.62-.86.14-.37.21-.79.21-1.27s-.07-.89-.21-1.25c-.14-.36-.34-.64-.61-.84-.27-.2-.6-.3-1-.3s-.76.11-1.03.32c-.27.21-.48.5-.62.86-.14.36-.2.76-.2,1.21s.07.86.21,1.23c.14.37.35.66.62.88.28.22.62.32,1.03.32ZM207.76,440.58c-.4,0-.77-.08-1.1-.23-.33-.15-.59-.38-.78-.67-.19-.29-.29-.64-.29-1.06,0-.36.07-.66.22-.88.14-.23.33-.41.57-.54.24-.13.5-.23.79-.29.29-.07.59-.12.88-.16.39-.05.7-.09.94-.11.24-.03.42-.07.53-.14.11-.06.17-.17.17-.33v-.03c0-.41-.11-.73-.34-.95-.22-.23-.56-.34-1.01-.34s-.83.1-1.1.31c-.27.2-.45.42-.56.65l-.93-.33c.16-.39.39-.69.66-.9.28-.22.58-.37.91-.46.33-.09.66-.13.98-.13.2,0,.44.02.7.07.27.05.53.14.77.29.25.15.46.37.62.67.17.3.25.7.25,1.21v4.19h-.98v-.86h-.05c-.07.14-.18.29-.33.44-.15.16-.36.29-.62.4-.26.11-.57.17-.94.17ZM207.91,439.71c.39,0,.71-.08.98-.23.27-.15.47-.35.6-.59.14-.24.21-.49.21-.76v-.89s-.13.1-.27.14c-.14.04-.3.07-.48.1-.18.03-.35.05-.53.07-.17.02-.31.04-.41.05-.25.03-.49.09-.71.16-.22.07-.39.18-.53.33-.13.14-.2.34-.2.59,0,.34.13.6.38.77.25.17.57.26.96.26ZM212.58,440.43v-8.47h.98v3.13h.08c.07-.11.17-.25.3-.42.13-.17.31-.33.55-.46.24-.14.57-.21.98-.21.53,0,1.01.13,1.41.4.41.27.73.65.96,1.14.23.49.34,1.07.34,1.74s-.11,1.26-.34,1.75c-.23.49-.55.87-.95,1.14-.41.27-.87.4-1.4.4-.41,0-.74-.07-.98-.2-.25-.14-.43-.29-.57-.47-.13-.18-.23-.32-.31-.44h-.12v.98h-.94ZM213.54,437.26c0,.48.07.9.21,1.27.14.36.35.65.62.86.27.2.6.31.99.31s.75-.11,1.02-.32c.28-.22.48-.51.62-.88.14-.37.21-.78.21-1.23s-.07-.85-.21-1.21c-.14-.36-.34-.65-.62-.86-.27-.21-.62-.32-1.03-.32s-.73.1-1,.3c-.27.2-.47.48-.61.84-.14.36-.21.77-.21,1.25ZM220.66,431.96v8.47h-.98v-8.47h.98ZM225.11,440.57c-.61,0-1.14-.14-1.58-.41-.44-.27-.78-.65-1.02-1.14-.24-.49-.36-1.06-.36-1.71s.12-1.22.36-1.72c.24-.5.57-.89,1-1.17.43-.28.93-.42,1.51-.42.33,0,.66.06.98.16.32.11.62.29.88.54.26.25.48.57.63.98.16.41.24.9.24,1.5v.41h-4.9v-.84h3.9c0-.36-.07-.68-.22-.96-.14-.28-.34-.5-.6-.67-.26-.16-.57-.24-.92-.24-.39,0-.73.1-1.01.29-.28.19-.5.44-.65.74-.15.31-.23.63-.23.98v.56c0,.48.08.89.25,1.22.17.33.4.58.7.76.3.17.64.26,1.04.26.26,0,.49-.04.7-.11.21-.07.39-.18.54-.33.15-.15.27-.33.35-.55l.94.27c-.1.32-.27.6-.5.84-.23.24-.52.43-.87.56-.35.13-.73.2-1.16.2Z"/>
    <path class="cls-2" d="M241.09,390.74v-8.47h5.11v.91h-4.09v2.86h3.82v.91h-3.82v2.88h4.15v.91h-5.18ZM248.9,386.91v3.82h-.98v-6.35h.94v.99h.08c.15-.32.37-.58.68-.78.3-.2.7-.3,1.17-.3.43,0,.81.09,1.13.26.32.17.57.44.75.79.18.35.27.8.27,1.34v4.04h-.98v-3.97c0-.5-.13-.89-.39-1.17-.26-.28-.62-.42-1.07-.42-.31,0-.59.07-.84.2-.24.13-.43.33-.57.59-.14.26-.21.57-.21.94ZM258.99,382.27v8.47h-.98v-8.47h.98ZM262.65,390.89c-.4,0-.77-.08-1.1-.23-.33-.15-.59-.38-.78-.67-.19-.29-.29-.64-.29-1.06,0-.36.07-.66.22-.88.14-.23.33-.41.57-.54.24-.13.5-.23.79-.29.29-.07.59-.12.88-.16.39-.05.7-.09.94-.11.24-.03.42-.07.53-.14.11-.06.17-.17.17-.33v-.03c0-.41-.11-.73-.34-.95-.22-.23-.56-.34-1.01-.34s-.83.1-1.1.31c-.26.2-.45.42-.56.65l-.93-.33c.17-.39.39-.69.66-.9.28-.22.58-.37.91-.46.33-.09.66-.13.98-.13.2,0,.44.02.7.07.27.05.53.14.77.29.25.15.46.37.62.67.17.3.25.7.25,1.21v4.19h-.98v-.86h-.05c-.07.14-.18.29-.33.44-.15.16-.36.29-.62.4-.26.11-.57.17-.94.17ZM262.8,390.01c.39,0,.71-.08.98-.23.27-.15.47-.35.6-.59.14-.24.21-.49.21-.76v-.89s-.13.1-.27.14c-.14.04-.3.07-.48.1-.18.03-.35.05-.53.07-.17.02-.3.04-.41.05-.25.03-.49.09-.71.16-.22.07-.39.18-.53.33-.13.14-.2.34-.2.59,0,.34.13.6.38.77.25.17.57.26.96.26ZM271.84,385.81l-.88.25c-.06-.15-.14-.29-.24-.43-.1-.14-.25-.26-.43-.35s-.41-.14-.7-.14c-.39,0-.71.09-.97.27-.26.18-.38.4-.38.67,0,.24.09.43.26.57.18.14.45.26.83.35l.94.23c.57.14.99.35,1.27.63.28.28.42.64.42,1.09,0,.36-.1.69-.31.98-.21.29-.5.51-.87.68-.37.17-.8.25-1.3.25-.65,0-1.18-.14-1.61-.42-.42-.28-.69-.69-.81-1.23l.93-.23c.09.34.26.6.5.77.25.17.57.26.97.26.45,0,.82-.1,1.08-.29.27-.2.41-.43.41-.7,0-.22-.08-.41-.23-.55-.15-.15-.39-.26-.71-.34l-1.06-.25c-.58-.14-1.01-.35-1.28-.64-.27-.29-.41-.66-.41-1.1,0-.36.1-.68.3-.95.2-.28.48-.49.83-.65.35-.16.75-.24,1.2-.24.63,0,1.12.14,1.48.41.36.28.62.64.77,1.09ZM277.68,386.91v3.82h-.98v-6.35h.94v.99h.08c.15-.32.37-.58.68-.78.3-.2.7-.3,1.17-.3.43,0,.81.09,1.13.26.32.17.57.44.75.79.18.35.27.8.27,1.34v4.04h-.98v-3.97c0-.5-.13-.89-.39-1.17-.26-.28-.62-.42-1.07-.42-.31,0-.59.07-.84.2-.24.13-.43.33-.57.59-.14.26-.21.57-.21.94ZM286.1,390.87c-.57,0-1.08-.14-1.51-.41-.43-.27-.77-.65-1.01-1.15-.24-.49-.36-1.07-.36-1.72s.12-1.24.36-1.73c.24-.49.58-.88,1.01-1.15.43-.27.94-.41,1.51-.41s1.08.14,1.51.41c.43.27.77.66,1.01,1.15.24.49.36,1.07.36,1.73s-.12,1.23-.36,1.72c-.24.49-.58.87-1.01,1.15-.43.27-.93.41-1.51.41ZM286.1,389.99c.44,0,.79-.11,1.08-.33.28-.22.49-.52.62-.88.14-.36.2-.76.2-1.18s-.07-.82-.2-1.19c-.13-.37-.34-.66-.62-.89-.28-.23-.64-.34-1.08-.34s-.79.11-1.08.34c-.28.23-.49.52-.62.89-.14.37-.2.76-.2,1.19s.07.82.2,1.18c.13.36.34.66.62.88.28.22.64.33,1.08.33ZM293.05,390.87c-.59,0-1.11-.14-1.54-.42-.43-.28-.76-.67-.99-1.16s-.35-1.06-.35-1.69.12-1.21.36-1.71c.24-.5.57-.88,1-1.16.43-.28.93-.42,1.51-.42.45,0,.85.08,1.21.25.36.17.65.4.88.7.23.3.37.65.43,1.04h-.98c-.07-.29-.24-.55-.5-.77-.25-.23-.6-.34-1.03-.34-.38,0-.71.1-1,.3-.28.2-.51.47-.67.83-.16.36-.24.77-.24,1.25s.08.92.23,1.28c.16.36.38.65.66.85.29.2.62.3,1.01.3.25,0,.48-.04.69-.13.21-.09.38-.22.53-.38.14-.16.25-.36.31-.6h.98c-.06.38-.19.71-.41,1.01-.22.3-.5.53-.86.71-.35.17-.76.26-1.23.26ZM297.95,386.91v3.82h-.98v-8.47h.98v3.11h.08c.15-.33.37-.59.67-.78.3-.2.7-.29,1.2-.29.43,0,.81.09,1.14.26.33.17.58.43.76.79.18.35.27.8.27,1.35v4.04h-.98v-3.97c0-.5-.13-.89-.39-1.17-.26-.28-.62-.42-1.08-.42-.32,0-.61.07-.86.2-.25.13-.45.33-.6.59-.14.26-.21.57-.21.94ZM306.52,390.87c-.61,0-1.14-.14-1.58-.41-.44-.27-.78-.65-1.02-1.14-.24-.49-.36-1.06-.36-1.71s.12-1.22.36-1.72c.24-.5.57-.89,1-1.17.43-.28.93-.42,1.51-.42.33,0,.66.06.98.16.32.11.62.29.88.54.26.25.48.57.63.98.16.41.24.9.24,1.5v.41h-4.9v-.84h3.9c0-.36-.07-.68-.22-.96-.14-.28-.34-.5-.6-.67-.26-.16-.57-.24-.92-.24-.39,0-.73.1-1.01.29-.28.19-.5.44-.65.74-.15.31-.23.63-.23.98v.56c0,.48.08.89.25,1.22.17.33.4.58.7.76.3.17.64.26,1.04.26.26,0,.49-.04.69-.11.21-.07.39-.18.54-.33.15-.15.27-.33.35-.55l.94.27c-.1.32-.27.6-.5.84-.23.24-.52.43-.87.56-.35.13-.73.2-1.16.2ZM311.48,382.27v2.91h-.91v-2.91h.91ZM317.12,393.12c-.17,0-.31-.01-.44-.04-.13-.02-.22-.05-.27-.07l.25-.86c.24.06.45.08.63.07.18-.02.34-.1.48-.24.14-.14.27-.38.39-.7l.18-.5-2.35-6.39h1.06l1.75,5.06h.07l1.75-5.06h1.06l-2.7,7.28c-.12.33-.27.6-.45.82-.18.22-.39.38-.62.48-.23.1-.5.16-.79.16ZM324.65,390.89c-.4,0-.77-.08-1.1-.23-.33-.15-.59-.38-.78-.67-.19-.29-.29-.64-.29-1.06,0-.36.07-.66.22-.88.14-.23.33-.41.57-.54.24-.13.51-.23.79-.29.29-.07.59-.12.88-.16.39-.05.7-.09.94-.11.24-.03.42-.07.53-.14.11-.06.17-.17.17-.33v-.03c0-.41-.11-.73-.34-.95-.22-.23-.56-.34-1.01-.34s-.83.1-1.1.31c-.27.2-.45.42-.56.65l-.93-.33c.16-.39.39-.69.66-.9.28-.22.58-.37.91-.46.33-.09.66-.13.98-.13.2,0,.44.02.7.07.27.05.53.14.77.29.25.15.46.37.62.67.17.3.25.7.25,1.21v4.19h-.98v-.86h-.05c-.07.14-.18.29-.33.44-.15.16-.36.29-.62.4-.26.11-.57.17-.94.17ZM324.8,390.01c.39,0,.71-.08.98-.23.27-.15.47-.35.6-.59.14-.24.21-.49.21-.76v-.89s-.13.1-.27.14c-.14.04-.3.07-.48.1-.18.03-.35.05-.53.07-.17.02-.31.04-.41.05-.25.03-.49.09-.71.16-.22.07-.39.18-.53.33-.13.14-.2.34-.2.59,0,.34.13.6.38.77.25.17.57.26.96.26ZM333.6,386.91v3.82h-.98v-6.35h.94v.99h.08c.15-.32.38-.58.68-.78.3-.2.7-.3,1.17-.3.43,0,.81.09,1.13.26.32.17.57.44.75.79.18.35.27.8.27,1.34v4.04h-.98v-3.97c0-.5-.13-.89-.39-1.17-.26-.28-.62-.42-1.07-.42-.31,0-.59.07-.84.2-.24.13-.43.33-.57.59-.14.26-.21.57-.21.94ZM339.44,390.74v-6.35h.98v6.35h-.98ZM339.93,383.32c-.19,0-.35-.06-.49-.19-.13-.13-.2-.29-.2-.47s.07-.34.2-.47c.14-.13.3-.19.49-.19s.35.06.49.19c.14.13.21.29.21.47s-.07.34-.21.47c-.14.13-.3.19-.49.19ZM240.96,409.69v-8.74h.94v1.01h.12c.07-.11.17-.25.3-.42.13-.17.31-.33.55-.46.24-.14.57-.21.98-.21.53,0,1.01.13,1.42.4.41.27.73.65.96,1.14.23.49.34,1.07.34,1.74s-.11,1.26-.34,1.75c-.23.49-.55.87-.95,1.14-.41.27-.87.4-1.4.4-.41,0-.74-.07-.98-.2-.25-.14-.43-.29-.57-.47-.13-.18-.23-.32-.31-.44h-.08v3.36h-.98ZM241.92,404.13c0,.48.07.9.21,1.27.14.36.35.65.62.86.27.2.6.31.99.31s.75-.11,1.02-.32c.28-.22.48-.51.62-.88.14-.37.21-.78.21-1.23s-.07-.85-.21-1.21c-.13-.36-.34-.65-.62-.86-.27-.21-.62-.32-1.03-.32s-.73.1-1,.3c-.27.2-.47.48-.61.84-.14.36-.21.77-.21,1.25ZM252.06,404.71v-3.76h.98v6.35h-.98v-1.08h-.07c-.15.32-.38.6-.69.82-.31.22-.71.34-1.19.34-.4,0-.75-.09-1.06-.26-.31-.18-.55-.44-.73-.79-.18-.36-.26-.8-.26-1.34v-4.04h.98v3.97c0,.46.13.83.39,1.11.26.28.6.41,1,.41.24,0,.49-.06.74-.19.25-.12.47-.31.64-.57.17-.26.26-.58.26-.98ZM257.49,407.44c-.61,0-1.14-.14-1.58-.41-.44-.27-.78-.65-1.02-1.14-.24-.49-.36-1.06-.36-1.71s.12-1.22.36-1.72c.24-.5.57-.89,1-1.17.43-.28.93-.42,1.51-.42.33,0,.66.06.98.16.32.11.62.29.88.54.26.25.48.57.63.98.16.41.24.9.24,1.5v.41h-4.9v-.84h3.9c0-.36-.07-.68-.21-.96-.14-.28-.34-.5-.6-.67-.26-.16-.57-.24-.92-.24-.39,0-.72.1-1.01.29-.28.19-.5.44-.65.74-.15.31-.23.63-.23.98v.56c0,.48.08.89.25,1.22.17.33.4.58.7.76.3.17.64.26,1.04.26.26,0,.49-.04.7-.11.21-.07.39-.18.54-.33.15-.15.27-.33.35-.55l.94.27c-.1.32-.27.6-.5.84-.23.24-.52.43-.87.56-.34.13-.73.2-1.16.2ZM264.01,407.44c-.53,0-1-.13-1.4-.4-.41-.27-.72-.65-.95-1.14-.23-.49-.34-1.08-.34-1.75s.11-1.25.34-1.74c.23-.49.55-.87.96-1.14.41-.27.88-.4,1.41-.4.41,0,.74.07.98.21.24.14.43.29.55.46.13.17.23.31.3.42h.08v-3.13h.98v8.47h-.94v-.98h-.12c-.07.12-.17.26-.31.44-.13.17-.32.33-.57.47-.25.14-.57.2-.98.2ZM264.14,406.56c.39,0,.72-.1.99-.31.27-.21.48-.49.62-.86.14-.37.21-.79.21-1.27s-.07-.89-.21-1.25c-.14-.36-.34-.64-.61-.84-.27-.2-.6-.3-1-.3s-.76.11-1.03.32c-.27.21-.48.5-.62.86-.14.36-.2.76-.2,1.21s.07.86.21,1.23c.14.37.35.66.62.88.28.22.62.32,1.03.32ZM271.42,407.44c-.57,0-1.08-.14-1.51-.41-.43-.27-.77-.65-1.01-1.15-.24-.49-.36-1.07-.36-1.72s.12-1.24.36-1.73c.24-.49.58-.88,1.01-1.15.43-.27.94-.41,1.51-.41s1.08.14,1.51.41c.43.27.77.66,1.01,1.15.24.49.36,1.07.36,1.73s-.12,1.23-.36,1.72c-.24.49-.58.87-1.01,1.15-.43.27-.93.41-1.51.41ZM271.42,406.56c.44,0,.79-.11,1.08-.33.28-.22.49-.52.62-.88.14-.36.2-.76.2-1.18s-.07-.82-.2-1.19c-.14-.37-.34-.66-.62-.89-.28-.23-.64-.34-1.08-.34s-.79.11-1.08.34c-.28.23-.49.52-.62.89-.14.37-.2.76-.2,1.19s.07.82.2,1.18c.14.36.34.66.62.88.28.22.64.33,1.08.33ZM281.47,407.44c-.53,0-1-.13-1.4-.4-.41-.27-.72-.65-.95-1.14-.23-.49-.34-1.08-.34-1.75s.11-1.25.34-1.74c.23-.49.55-.87.96-1.14.41-.27.88-.4,1.41-.4.41,0,.74.07.98.21.24.14.43.29.55.46.13.17.23.31.3.42h.08v-3.13h.98v8.47h-.94v-.98h-.12c-.07.12-.17.26-.31.44-.13.17-.32.33-.57.47-.25.14-.57.2-.98.2ZM281.6,406.56c.39,0,.72-.1.99-.31.27-.21.48-.49.62-.86.14-.37.21-.79.21-1.27s-.07-.89-.21-1.25c-.14-.36-.34-.64-.61-.84-.27-.2-.6-.3-1-.3s-.76.11-1.03.32c-.27.21-.48.5-.62.86-.14.36-.2.76-.2,1.21s.07.86.21,1.23c.14.37.35.66.62.88.28.22.62.32,1.03.32ZM288.88,407.44c-.57,0-1.08-.14-1.51-.41-.43-.27-.77-.65-1.01-1.15-.24-.49-.36-1.07-.36-1.72s.12-1.24.36-1.73c.24-.49.58-.88,1.01-1.15.43-.27.94-.41,1.51-.41s1.08.14,1.51.41c.43.27.77.66,1.01,1.15.24.49.36,1.07.36,1.73s-.12,1.23-.36,1.72c-.24.49-.58.87-1.01,1.15-.43.27-.93.41-1.51.41ZM288.88,406.56c.44,0,.79-.11,1.08-.33.28-.22.49-.52.62-.88.14-.36.2-.76.2-1.18s-.07-.82-.2-1.19c-.14-.37-.34-.66-.62-.89-.28-.23-.64-.34-1.08-.34s-.79.11-1.08.34c-.28.23-.49.52-.62.89-.14.37-.2.76-.2,1.19s.07.82.2,1.18c.14.36.34.66.62.88.28.22.64.33,1.08.33ZM293.25,407.3v-6.35h.94v.96h.07c.12-.31.33-.57.63-.77.3-.2.64-.29,1.03-.29.07,0,.16,0,.27,0,.11,0,.19,0,.24.01v.99s-.11-.02-.23-.04c-.12-.02-.24-.03-.37-.03-.31,0-.58.06-.83.19-.24.13-.43.3-.57.53-.14.22-.21.48-.21.76v4.02h-.98ZM297.59,407.3v-6.35h.94v.99h.08c.13-.34.35-.6.64-.79.3-.19.65-.29,1.06-.29s.77.09,1.05.29c.28.19.5.45.66.79h.07c.16-.33.41-.59.73-.78.33-.2.72-.29,1.17-.29.57,0,1.03.18,1.39.53.36.35.54.9.54,1.65v4.25h-.98v-4.25c0-.47-.13-.8-.38-1.01-.26-.2-.56-.3-.91-.3-.45,0-.79.14-1.04.41-.25.27-.37.61-.37,1.02v4.14h-.99v-4.35c0-.36-.12-.65-.35-.87-.23-.22-.54-.33-.91-.33-.25,0-.49.07-.71.2-.22.13-.39.32-.53.56-.13.24-.2.51-.2.82v3.97h-.98ZM307.71,407.3v-6.35h.98v6.35h-.98ZM308.21,399.89c-.19,0-.35-.06-.49-.19-.14-.13-.2-.29-.2-.47s.07-.34.2-.47c.14-.13.3-.19.49-.19s.35.06.49.19c.14.13.21.29.21.47s-.07.34-.21.47c-.13.13-.3.19-.49.19ZM310.48,407.3v-6.35h.94v.96h.07c.12-.31.33-.57.63-.77.3-.2.64-.29,1.03-.29.07,0,.16,0,.27,0s.19,0,.24.01v.99s-.11-.02-.23-.04c-.12-.02-.24-.03-.37-.03-.31,0-.58.06-.83.19-.24.13-.43.3-.57.53-.14.22-.21.48-.21.76v4.02h-.98ZM241.09,423.87v-8.47h1.03v7.56h3.94v.91h-4.96ZM250.1,424c-.57,0-1.08-.14-1.51-.41-.43-.27-.77-.65-1.01-1.15-.24-.49-.36-1.07-.36-1.72s.12-1.24.36-1.73c.24-.49.58-.88,1.01-1.15.43-.27.94-.41,1.51-.41s1.08.14,1.51.41c.43.27.77.66,1.01,1.15.24.49.36,1.07.36,1.73s-.12,1.23-.36,1.72c-.24.49-.58.87-1.01,1.15-.43.27-.93.41-1.51.41ZM250.1,423.12c.44,0,.79-.11,1.08-.33.28-.22.49-.52.62-.88.14-.36.2-.76.2-1.18s-.07-.82-.2-1.19c-.14-.37-.34-.66-.62-.89-.28-.23-.64-.34-1.08-.34s-.79.11-1.08.34c-.28.23-.49.52-.62.89-.14.37-.2.76-.2,1.19s.07.82.2,1.18c.14.36.34.66.62.88.28.22.64.33,1.08.33ZM262.08,426.25v-3.36h-.08c-.07.12-.17.26-.31.44-.13.17-.32.33-.57.47-.25.14-.57.2-.98.2-.53,0-1-.13-1.4-.4-.41-.27-.72-.65-.95-1.14-.23-.49-.34-1.08-.34-1.75s.11-1.25.34-1.74c.23-.49.55-.87.96-1.14.41-.27.88-.4,1.41-.4.41,0,.74.07.98.21.24.14.43.29.55.46.13.17.23.31.3.42h.12v-1.01h.94v8.74h-.98ZM260.27,423.12c.39,0,.72-.1.99-.31.27-.21.48-.49.62-.86.14-.37.21-.79.21-1.27s-.07-.89-.21-1.25c-.14-.36-.34-.64-.61-.84-.27-.2-.6-.3-1-.3s-.76.11-1.03.32c-.27.21-.48.5-.62.86-.14.36-.2.76-.2,1.21s.07.86.21,1.23c.14.37.35.66.62.88.28.22.62.32,1.03.32ZM268.84,421.27v-3.76h.98v6.35h-.98v-1.08h-.07c-.15.32-.38.6-.7.82-.31.22-.71.34-1.19.34-.4,0-.75-.09-1.06-.26-.31-.18-.55-.44-.73-.79-.18-.36-.26-.8-.26-1.34v-4.04h.98v3.97c0,.46.13.83.39,1.11.26.28.6.41,1,.41.24,0,.49-.06.74-.19.25-.12.47-.31.64-.57.17-.26.26-.58.26-.98ZM274.27,424c-.61,0-1.14-.14-1.58-.41-.44-.27-.78-.65-1.02-1.14-.24-.49-.36-1.06-.36-1.71s.12-1.22.36-1.72c.24-.5.57-.89,1-1.17.43-.28.93-.42,1.51-.42.33,0,.66.06.98.16.32.11.62.29.88.54.27.25.48.57.63.98.16.41.24.9.24,1.5v.41h-4.9v-.84h3.9c0-.36-.07-.68-.21-.96-.14-.28-.34-.5-.6-.67-.26-.16-.57-.24-.92-.24-.39,0-.73.1-1.01.29-.28.19-.5.44-.65.74-.15.31-.23.63-.23.98v.56c0,.48.08.89.25,1.22.17.33.4.58.7.76.3.17.64.26,1.04.26.26,0,.49-.04.7-.11.21-.07.39-.18.54-.33.15-.15.27-.33.35-.55l.94.27c-.1.32-.27.6-.5.84-.23.24-.52.43-.87.56-.34.13-.73.2-1.16.2ZM282.64,420.05v3.82h-.98v-8.47h.98v3.11h.08c.15-.33.37-.59.67-.78.3-.2.7-.29,1.2-.29.43,0,.81.09,1.14.26.33.17.58.43.76.79.18.35.27.8.27,1.35v4.04h-.98v-3.97c0-.5-.13-.89-.39-1.17-.26-.28-.62-.42-1.08-.42-.32,0-.61.07-.86.2-.25.13-.45.33-.6.59-.14.26-.22.57-.22.94ZM290.41,424.02c-.4,0-.77-.08-1.1-.23-.33-.15-.59-.38-.78-.67-.19-.29-.29-.64-.29-1.06,0-.36.07-.66.21-.88.14-.23.34-.41.57-.54.24-.13.5-.23.79-.29.29-.07.59-.12.88-.16.39-.05.7-.09.94-.11.24-.03.42-.07.53-.14.11-.06.17-.17.17-.33v-.03c0-.41-.11-.73-.33-.95-.22-.23-.56-.34-1.01-.34s-.83.1-1.1.31c-.27.2-.45.42-.56.65l-.93-.33c.17-.39.39-.69.66-.9.28-.22.58-.37.91-.46.33-.09.66-.13.98-.13.2,0,.44.02.7.07.27.05.53.14.77.29.25.15.46.37.62.67.17.3.25.7.25,1.21v4.19h-.98v-.86h-.05c-.07.14-.18.29-.33.44-.15.16-.36.29-.62.4-.26.11-.57.17-.94.17ZM290.56,423.14c.39,0,.71-.08.98-.23.27-.15.47-.35.6-.59.14-.24.21-.49.21-.76v-.89s-.13.1-.27.14c-.14.04-.3.07-.48.1-.18.03-.35.05-.53.07-.17.02-.31.04-.41.05-.25.03-.49.09-.71.16-.22.07-.39.18-.53.33-.13.14-.2.34-.2.59,0,.34.13.6.38.77.25.17.57.26.96.26ZM297.67,426.38c-.47,0-.88-.06-1.22-.18-.34-.12-.62-.28-.85-.47-.22-.19-.4-.4-.53-.62l.78-.55c.09.12.2.25.34.4.14.15.32.28.55.39.24.11.55.17.93.17.51,0,.94-.12,1.27-.37.33-.25.5-.64.5-1.17v-1.29h-.08c-.07.12-.17.26-.31.43-.13.17-.32.32-.56.45-.24.13-.57.19-.98.19-.51,0-.97-.12-1.38-.36-.41-.24-.73-.6-.96-1.06-.23-.46-.35-1.03-.35-1.69s.11-1.22.34-1.7c.23-.49.55-.86.96-1.13.41-.27.88-.4,1.41-.4.41,0,.74.07.98.21.25.14.43.29.56.46.13.17.23.31.31.42h.1v-1.01h.94v6.54c0,.55-.12.99-.37,1.33-.25.35-.58.6-.99.76-.41.16-.87.24-1.38.24ZM297.64,422.89c.39,0,.72-.09.99-.27.27-.18.48-.44.62-.77.14-.34.21-.74.21-1.21s-.07-.86-.21-1.21c-.14-.35-.34-.62-.61-.82-.27-.2-.6-.3-1-.3s-.76.1-1.03.31c-.27.21-.48.49-.62.84-.14.35-.2.74-.2,1.17s.07.83.21,1.17c.14.34.35.6.62.79.28.19.62.29,1.03.29ZM304.79,424c-.57,0-1.08-.14-1.51-.41-.43-.27-.77-.65-1.01-1.15-.24-.49-.36-1.07-.36-1.72s.12-1.24.36-1.73c.24-.49.58-.88,1.01-1.15.43-.27.94-.41,1.51-.41s1.08.14,1.51.41c.43.27.77.66,1.01,1.15.24.49.36,1.07.36,1.73s-.12,1.23-.36,1.72c-.24.49-.58.87-1.01,1.15-.43.27-.93.41-1.51.41ZM304.79,423.12c.44,0,.79-.11,1.08-.33.28-.22.49-.52.62-.88.14-.36.2-.76.2-1.18s-.07-.82-.2-1.19c-.13-.37-.34-.66-.62-.89-.28-.23-.64-.34-1.08-.34s-.79.11-1.08.34c-.28.23-.49.52-.62.89-.13.37-.2.76-.2,1.19s.07.82.2,1.18c.14.36.34.66.62.88.28.22.64.33,1.08.33ZM315.1,424c-.61,0-1.14-.14-1.58-.41-.44-.27-.78-.65-1.02-1.14-.24-.49-.36-1.06-.36-1.71s.12-1.22.36-1.72c.24-.5.57-.89,1-1.17.43-.28.93-.42,1.51-.42.33,0,.66.06.98.16.32.11.62.29.88.54.27.25.48.57.63.98.16.41.24.9.24,1.5v.41h-4.9v-.84h3.9c0-.36-.07-.68-.21-.96-.14-.28-.34-.5-.6-.67-.26-.16-.57-.24-.92-.24-.39,0-.72.1-1.01.29-.28.19-.5.44-.65.74-.15.31-.23.63-.23.98v.56c0,.48.08.89.25,1.22.17.33.4.58.7.76.3.17.64.26,1.04.26.26,0,.49-.04.7-.11.21-.07.39-.18.54-.33.15-.15.27-.33.35-.55l.94.27c-.1.32-.27.6-.5.84-.23.24-.52.43-.87.56-.34.13-.73.2-1.16.2ZM323.71,418.94l-.88.25c-.06-.15-.14-.29-.24-.43-.1-.14-.25-.26-.43-.35-.18-.09-.41-.14-.7-.14-.39,0-.71.09-.97.27-.26.18-.39.4-.39.67,0,.24.09.43.27.57.18.14.45.26.83.35l.94.23c.57.14.99.35,1.27.63.28.28.42.64.42,1.09,0,.36-.1.69-.31.98-.21.29-.5.51-.87.68-.37.17-.81.25-1.3.25-.65,0-1.18-.14-1.61-.42-.42-.28-.69-.69-.81-1.23l.93-.23c.09.34.25.6.5.77.25.17.57.26.97.26.45,0,.82-.1,1.08-.29.27-.2.41-.43.41-.7,0-.22-.08-.41-.23-.55-.15-.15-.39-.26-.71-.34l-1.06-.25c-.58-.14-1.01-.35-1.28-.64-.27-.29-.41-.66-.41-1.1,0-.36.1-.68.3-.95.2-.28.48-.49.83-.65.35-.16.75-.24,1.2-.24.63,0,1.12.14,1.48.41.36.28.62.64.77,1.09ZM245.46,435.5l-.88.25c-.06-.15-.14-.29-.24-.43-.1-.14-.25-.26-.43-.35s-.41-.14-.7-.14c-.39,0-.71.09-.97.27-.26.18-.38.4-.38.67,0,.24.09.43.26.57.18.14.45.26.83.35l.94.23c.57.14.99.35,1.27.63.28.28.42.64.42,1.09,0,.36-.1.69-.31.98-.21.29-.5.51-.87.68-.37.17-.8.25-1.3.25-.65,0-1.18-.14-1.61-.42-.42-.28-.69-.69-.81-1.23l.93-.23c.09.34.26.6.5.77.25.17.57.26.97.26.45,0,.82-.1,1.08-.29.27-.2.41-.43.41-.7,0-.22-.08-.41-.23-.55-.15-.15-.39-.26-.71-.34l-1.06-.25c-.58-.14-1.01-.35-1.28-.64-.27-.29-.41-.66-.41-1.1,0-.36.1-.68.3-.95.2-.28.48-.49.83-.65.35-.16.75-.24,1.2-.24.63,0,1.12.14,1.48.41.36.28.62.64.77,1.09ZM249.63,440.57c-.57,0-1.08-.14-1.51-.41-.43-.27-.77-.65-1.01-1.15-.24-.49-.36-1.07-.36-1.72s.12-1.24.36-1.73c.24-.49.58-.88,1.01-1.15.43-.27.94-.41,1.51-.41s1.08.14,1.51.41c.43.27.77.66,1.01,1.15.24.49.36,1.07.36,1.73s-.12,1.23-.36,1.72c-.24.49-.58.87-1.01,1.15-.43.27-.93.41-1.51.41ZM249.63,439.69c.44,0,.79-.11,1.08-.33.28-.22.49-.52.62-.88.14-.36.2-.76.2-1.18s-.07-.82-.2-1.19c-.14-.37-.34-.66-.62-.89-.28-.23-.64-.34-1.08-.34s-.79.11-1.08.34c-.28.23-.49.52-.62.89-.13.37-.2.76-.2,1.19s.07.82.2,1.18c.14.36.34.66.62.88.28.22.64.33,1.08.33ZM254.97,436.61v3.82h-.98v-6.35h.94v.99h.08c.15-.32.37-.58.68-.78.3-.2.7-.3,1.17-.3.43,0,.81.09,1.13.26.32.17.57.44.75.79.18.35.27.8.27,1.34v4.04h-.98v-3.97c0-.5-.13-.89-.39-1.17-.26-.28-.62-.42-1.07-.42-.31,0-.59.07-.84.2-.24.13-.43.33-.57.59-.14.26-.21.57-.21.94ZM255.24,433.32l-.76-.03c0-.42.12-.77.36-1.03.24-.27.54-.41.9-.41.16,0,.3.03.42.08.12.05.24.11.35.18.11.07.22.13.34.19.12.05.25.08.4.08.16,0,.29-.06.4-.18.11-.12.17-.27.17-.45l.74.07c0,.43-.12.77-.36,1.03-.24.25-.54.38-.89.38-.19,0-.35-.03-.47-.08-.12-.06-.23-.12-.33-.19-.1-.07-.2-.13-.31-.18-.11-.06-.24-.08-.4-.08s-.29.06-.39.19c-.1.12-.15.27-.15.44ZM262.68,440.58c-.4,0-.77-.08-1.1-.23-.33-.15-.59-.38-.78-.67-.19-.29-.29-.64-.29-1.06,0-.36.07-.66.21-.88.14-.23.34-.41.57-.54.24-.13.5-.23.79-.29.29-.07.59-.12.88-.16.39-.05.7-.09.94-.11.24-.03.42-.07.53-.14.11-.06.17-.17.17-.33v-.03c0-.41-.11-.73-.33-.95-.22-.23-.56-.34-1.01-.34s-.83.1-1.1.31c-.27.2-.45.42-.56.65l-.93-.33c.17-.39.39-.69.66-.9.28-.22.58-.37.91-.46.33-.09.66-.13.98-.13.2,0,.44.02.7.07.27.05.53.14.77.29.25.15.46.37.62.67.17.3.25.7.25,1.21v4.19h-.98v-.86h-.05c-.07.14-.18.29-.33.44-.15.16-.36.29-.62.4-.26.11-.57.17-.94.17ZM262.83,439.71c.39,0,.71-.08.98-.23.27-.15.47-.35.6-.59.14-.24.21-.49.21-.76v-.89s-.13.1-.27.14c-.14.04-.3.07-.48.1-.18.03-.35.05-.53.07-.17.02-.31.04-.41.05-.25.03-.49.09-.71.16-.22.07-.39.18-.53.33-.13.14-.2.34-.2.59,0,.34.13.6.38.77.25.17.57.26.96.26ZM267.38,440.43v-6.35h.94v.96h.07c.12-.31.33-.57.63-.77.3-.2.65-.29,1.03-.29.07,0,.16,0,.27,0,.11,0,.19,0,.24.01v.99s-.11-.02-.23-.04c-.12-.02-.24-.03-.37-.03-.31,0-.58.06-.83.19-.24.13-.43.3-.57.53-.14.22-.21.48-.21.76v4.02h-.98ZM274.87,434.08v.83h-3.29v-.83h3.29ZM272.54,432.56h.98v6.06c0,.28.04.48.12.62.08.14.19.23.31.27.13.04.27.07.41.07.11,0,.2,0,.27-.02.07-.01.12-.02.16-.03l.2.88c-.07.02-.16.05-.28.07-.12.03-.27.04-.45.04-.28,0-.55-.06-.81-.18-.26-.12-.48-.3-.65-.54-.17-.24-.26-.55-.26-.92v-6.32ZM278.93,440.57c-.61,0-1.14-.14-1.58-.41-.44-.27-.78-.65-1.02-1.14-.24-.49-.36-1.06-.36-1.71s.12-1.22.36-1.72c.24-.5.57-.89,1-1.17.43-.28.93-.42,1.51-.42.33,0,.66.06.98.16.32.11.62.29.88.54.26.25.48.57.63.98.16.41.24.9.24,1.5v.41h-4.9v-.84h3.9c0-.36-.07-.68-.22-.96-.14-.28-.34-.5-.6-.67-.26-.16-.57-.24-.92-.24-.39,0-.73.1-1.01.29-.28.19-.5.44-.65.74-.15.31-.23.63-.23.98v.56c0,.48.08.89.25,1.22.17.33.4.58.7.76.3.17.64.26,1.04.26.26,0,.49-.04.7-.11.21-.07.39-.18.54-.33.15-.15.27-.33.35-.55l.94.27c-.1.32-.27.6-.5.84-.23.24-.52.43-.87.56-.35.13-.73.2-1.16.2Z"/>
  </g>
  <g>
    <path class="cls-2" d="M216.68,617.07c-6.22-1.7-11-4.46-15.74-8.47-2.42-2.05-4.8-3.81-6.98-6.22-3.38-3.74-6.98-7.18-10.9-10.41l-6.13-3.89-8.29-4.45c-3.96-2.12-7.18-4.76-10.29-7.99l-5.06-5.24c-1.43-1.49-3.42-3.01-5.48-3.47-4.86-1.07-9.7-.94-14.6-.47-2.62.25-5.11.11-7.64-.31-3.62-.61-5.94-2.53-7.98-5.52l-2.71-2.8-1.83-2.58c1.67-4.85,5.28-8.59,9.68-11.07,4.69-2.65,8.15-6.05,11.22-10.44,4.77-6.82,9.9-13.24,16.27-18.61,2.69-2.27,5.6-3.93,7.99-6.51,4.09-4.42,7.44-9.09,11.3-13.76,6.28-7.59,16.12-11.59,25.85-11.02,8.75-4.5,18.71-4.84,26.66,1.22l12.08,9.2c3.18-1.89,5.86-4.22,8.27-6.98,2.79-3.18,5.83-5.64,9.34-7.98,2.96-1.97,5.68-3.98,9.05-5.26,3.69-1.4,7.71-1.83,11.54-.33,4.9,1.92,9.77,4.13,14.01,7.34,7.89,5.96,13.58,13.87,18.94,21.99,1.91,2.89,3.77,5.3,5.31,8.4,1.66,3.33,4.09,6.16,5.9,9.45l8.54,15.56c2.92,1.52,5.33,3.53,7.14,6.33l4.93,7.66,5.34,7.98,2.05,1.5,5.29,4.33c1.5,1.23,2.03,3.04.93,4.55.07,1.3-.21,2.49-.75,3.76l-8.17,11.61c-5.37,7.63-17.98,18.69-26.61,22.86-3,5.03-6.07,9.72-10.15,13.88-6.22,6.35-14.33,9.9-23.31,9.81l-15.86-1.24-7.08-.47c-3.22-.22-6.14-1.05-9.2-1.92-2.75-.78-5.36-1.53-7.88-2.94-5.48-.27-10.7-1.07-15.84-2.98-3.06-1.14-5.9-3.19-9.16-4.08ZM295.56,509.65c1.89,1.66,3.72,2.76,5.37,4.51l5.32,5.66c5.19,5.52,10.11,11.02,16.78,15.24l-5.97-11.41c-2.31-3.77-4.66-7.43-7-11.13l-5.58-8.81c-5.14-8.11-11.01-15.6-18.7-21.55-3.64-2.82-7.77-4.63-11.89-6.59-8.48-4.04-15.53-.04-22.58,5.2-6.46,3.78-9.5,9.95-16.03,13.88,9.78,1.4,15.18-4.29,21.26-6.02,2.27-.65,5.53-.61,7.77.3,2.97,1.21,5.28,3.19,8.12,4.57,8.57,4.19,15.88,9.8,23.13,16.15ZM232.33,494.69l-5.69-4.42c-3.11-2.42-6.09-4.69-9.53-6.66-6.41-2.87-13.41-2.02-19.9.5,4.55,1.09,8.2,2.73,11.57,5.51,7.07,5.2,14.93,8.26,23.55,5.07ZM263.1,492.09l6.8,1.15c-7.49-5.81-12.56-4.99-20.94-.27,4.79-.63,9.26-1.7,14.15-.88ZM248.86,535.84c2.5,1.42,5.1,2.09,8.03,1.14l10.67-8.25c-1.03,1.39-1.98,2.57-3.18,3.53l-5.92,4.68c3.23-.51,6.33-.96,9.27.97,3.43-1.07,6.8-.87,10.29-.12l6.73,3.42c2.7-2.3,5.14-4.74,8.35-6.27l-7.72,6.73c3.8,2.95,8.37-.7,12.22-3.39l3.51-2.45c-2.93,3.51-7,6.65-12.12,7.85l6.29,2.69c3.41,1.46,6.43,3.17,9.39,5.45l7.47,5.76c4.61.3,8.39,1.68,12.61,3.25,7.72,2.86,15.59,4.38,23.83,6.26-2.45-1.8-4.45-3.35-5.71-6.14s-4.83-3.21-9.29-9.79l-9.21-13.58c-3.12-1.81-5.75-3.88-8.55-6.18l-11.95-11.82-5.2-5.45-6.7-5.43-10.98-7.72c-9.22-6.48-14.55-8.76-26.54-7.44-3.68.41-7.41.92-10.89,2.05-3.28,1.06-6.37,1.78-9.64-.06-4.21,1.98-8.86,2.25-13.37,1.42-5.09-1.24-9.39-3.68-13.51-6.81-3.52-2.67-7.66-4.44-11.98-4.78-4.27,3.1-8.46,3.41-12.13,7.05l-5.55,5.51c-7.83,7.77-14.84,16-21.58,24.72l-8.32,10.76c-3.66,4.73-8.32,8.78-13.4,11.93l-11.25,6.99-5.5,3.85,6.33.9c2.61.37,4.96,1.62,7.2,2.89l15.15-3.21c3.62-.77,7.48-.35,10.97-1.57,4.08-1.43,7.62-3.82,11.3-6.06,5.61-3.42,11.01-6.69,16.89-9.62,3.95-1.97,8.01-3.31,12.44-3.63,3.67-.26,7.01-1.14,10.38-2.75-5.29-3.32-10.06-7.05-10.72-13.85,1.68,4.66,4.23,8.27,8.3,11.11l3.56,2.49c5.52-2.76,12.03-.88,17.44,2.08,3.48,1.9,6.99,2.57,10.96,2.73l7.43.31,5.64.04-2.03-1.73-.14-.41c-.97,1.54-2.74,1.99-4.59,1.23-1.18-.49-2.32-1.22-3.42-2.09-1.14,1.2-2.84,1.77-4.61,1.91-1.84.14-3.47-.41-3.99-2.31l-1.37-5.06-1.22-6.35c1,1.73,1.42,3.46,1.92,5.37l1.57,6.01c.5,1.92,4.14,1.74,7.06.3-.12-5.5-.17-10.63.53-15.89l.13,5.68-.04,9.22c1.13,1.32,3.14,2.25,5.02,2.61,1.15.22,2.57-.61,2.87-1.74l3.64-13.93c.19,1.4.01,2.81-.36,4.3l-2.64,10.5-.06.2ZM122.08,551.2l10.84-6.4c7.34-4.33,12.54-10.55,17.68-17.11l10.7-13.66c4.18-5.33,8.66-10.23,13.43-15.02l5.86-5.89c1.62-1.63,3.35-3.39,5.39-4.41,2.36-1.18,4.74-1.94,6.91-3.52-8.88.17-17.25,4.13-22.7,10.85-3.92,4.83-7.39,9.62-11.68,14.08-2.3,2.4-5.09,3.99-7.64,6.14-6.32,5.33-11.43,11.61-16.17,18.36-3.02,4.3-6.58,7.56-11.01,10.28-4.32,2.65-7.67,6.17-9.97,10.7.98.21,1.89-.02,2.51-.57,1.79-1.58,3.7-2.56,5.86-3.83ZM338.95,555.13l-6.21-9.55c-1.5-2.3-2.73-4.72-5.29-6.17l6.42,9.83c1.46,2.24,2.57,4.59,5.08,5.9ZM228.9,537.03l-7.36-3.34c-3.68-1.67-7.81-1.89-11.57-.42,4.25,2.39,8.71,3.49,13.39,3.81l5.54-.04ZM305.74,553.7c-3.94-3.46-8.07-5.89-12.99-7.44-1.67-.53-3.54-2.09-5.19-2.33l-5.44-.78,1.89-1.65-3.08-1.54c-3.51-1.75-7.35-2.85-11.51-1.46l13.01,5.16c1.92.76,3.71,1.74,5.4,2.89,3.63,2.47,7.34,4.17,11.5,5.62l2.89,2.41,6.95,2.14-3.43-3.02ZM254.24,539.59l10.96-.99c-4.14-.63-8.04-.15-12.13.15l-3.59.27,4.76.57ZM258.91,555.1l19.72-.8c1.86-.08,4.1-.61,5.33-1.9,1.62-1.7,1.4-4.27.59-6.25l-9.78-3.77-6.91-3.17-12.52,1.35-5.64-.51-8.04-.82.54,10.99c.11,2.2,2.06,3.89,4.29,4.25,4.02.65,8.03.8,12.42.62ZM224.62,555.1c4.41.23,8.5-.23,12.61-.94,5.97-1.53,3.32-8.59,2.36-15.03-6.56-.65-12.64-1-19.16-1.16-1.8-.04-3.79-1.24-5.56-1.4l-8.87-.85c-1.12-.11-2.54.51-3.37,1.21l-5.64,4.79.14,8.29c.02,1.02.94,2.73,1.96,2.95,4.09.88,7.94,1.21,12.1,1.43l13.42.71ZM201.66,536.47l-1.26.16-3.99,3.68c2.23-.69,3.33-2.09,5.26-3.84ZM167.7,552.78l11.36-5.08c4.59-2.05,8.98-3.99,13.42-6.32,2.55-1.34,4.87-2.62,6.79-4.87-10.86.52-21.13,7.86-30.57,13.4l-7.93,4.65c2.24-.02,4.54-.71,6.94-1.78ZM195.89,541.2c.28-.73-.07-.76-.47-.34l-6.46,3.13-.05.5,6.98-3.29ZM195.69,548.14c.94-1.67.6-4.01.38-5.79l-13.73,5.37-9.07,3.95c7.79.42,18.59,3.25,22.43-3.53ZM318.64,561.85l-6.33-3.05-7.33-2.26c-5.78-1.78-11.79-1.39-17.58-.81l12.13,1.79c3.41.5,6.37,1.28,9.53,2.75,2.91,1.36,6.34,1.49,9.58,1.58ZM214.67,556.53c-2.5-.71-5.22-.19-7.65-.1l-9.46.34c-3.58.13-7.05,1.08-10.51,1.97-3.82.98-7.44,1.26-11.39,1.4l-7.81.29c-4.19.15-7.46,3.47-14.04,2.54l-6.76-.96c-2.39-.34-7.05,1.96-11.06,1.65-2.02-.15-3.82-1.57-5.52-2.58-3.72,1.08-7.22.75-11.16-.44,2.41,4.57,8.84,4.93,14.03,4.39,4.47-.46,8.8-.46,13.27.17,4.83.68,9.02,5.29,12.44,9.14,3.42,3.85,7.23,6.7,11.86,8.99,1.83.91,3.57,2.49,5.55,3.04l9.57,2.66c2.49.69,4.55,2.42,6.75,3.73,5.47,3.25,9.94,7.19,14.34,11.78,5.13,5.35,11.9,8.51,18.77,11.14l7.74,2.97,8.12,4.21c12.11.42,31.24.69,41.69-3.84l16.62-7.19,14.39-5.98c4.78-7.8,9.62-15.07,15.26-22.15,3.25-4.08,7.56-6.69,12.51-8.15,3.55-1.04,6.74-3.25,7.98-7.02-2.23.08-4.18-.03-6.21-.57l-16.25-4.29c-4.87-1.29-13.27.12-20.4-3.26-2.57-1.22-5.19-1.58-8.02-2.06-6-1.01-11.83-1.94-17.96-1.37-7.49.7-12.9,4.32-20.58,4.64-1.15.05-2.56-.65-3.49-.79l-11.96-1.73-11.33-2.07c-6.32-1.15-12.49-2.13-18.8-1.48,5.98,1.68,11.65,2.58,17.23,4.55,3.98,1.4,7.68,2.37,11.9,3.01,2.26.34,4.48,1.46,6.79,1.96,3.84-1.1,7.65-2.39,11.74-2.68,9.31-.64,19.4,15.27,19.66,25.16-1.69-5.31-3.15-10.51-6.4-15.12-2.05-3.03-4.57-5.69-7.57-7.63-2.85-1.84-5.69-1.75-8.79-1.04l-6.84,1.59c2.94,1.55,5.63,4.1,7.22,7.18l-3.65-3.59c-1.48-1.45-3.18-2.61-5.17-3.17-.36,8.8,5.33,16.69,5.67,25.38l-4.57-14.64c-1.16-3.7-2.12-7.27-2.02-10.88l-6.66-1.77c-3.76-.61-7.12-1.41-10.71-2.66-4.29-1.49-8.71-2.47-13.09-3.53l.09,1.16c.01.19-.52.48-.69.6-5.19,3.63-8.59,8.74-9.94,15.12-.69-5.69,4.42-12,9.07-15.78-3.52.36-6.48,1.95-8.84,4.44-3.26,3.44-5.83,7.32-8.33,11.38-1.62,2.64-2.4,5.43-2.84,8.38-.38-3.42,1.02-6.46,2.67-9.34,2.08-3.62,4.4-6.99,7.04-10.19,2.81-3.42,6.3-5.01,10.94-5.7l-4.42-1.26ZM347.91,564.26l-3.71-3c1.38,2.76,3.61,4.23,6.17,5.79-.27-1.57-1.46-1.99-2.45-2.78ZM198.16,555.84c4.21-.2,8.27-.15,12.31-.72-7.18-.51-14.39-.63-21.25,1.18l-9.97,2.63c6.39-.28,11.96-2.76,18.91-3.09ZM268.76,558.94l-7.84,1.49c2.89.42,5.33-.36,7.84-1.49ZM153.6,556.9l-7.22.68c-4.89.46-9.49,1.85-14.23,2.98,5.32,4.54,15.65-.29,21.44-3.66ZM128.9,560.42c-3.71-2.47-8.89-2.72-13.28-3.01,3.05,2.98,9.32,3.68,13.28,3.01ZM155.12,562.62l4.89-.88c-4.05-.56-7.65-.63-11.48-.37l6.59,1.25ZM325.25,598.95c4.8-3.71,9.26-7.38,12.88-12.07l9.85-12.76-5.85,2.86c-4.94,1.39-8.96,4.26-12.03,8.34-4.69,6.21-9.09,12.26-13.12,19.27,3.25-1.42,5.52-3.55,8.28-5.64ZM239.08,622.67c-4.93-3.34-10.26-5.01-15.88-6.96-5.89-2.04-11.29-5.47-15.81-9.72-3.01-2.83-5.54-5.81-8.87-8.25-3.52-2.57-7.07-4.98-10.92-7.05-2.6-1.4-5.61-1.86-8.65-2.54,3.08,1.92,5.79,3.64,8.26,6.17l9.47,9.7c1.63,1.67,3.91,2.84,5.59,4.39,4.26,3.93,9.05,6.02,14.61,7.36,3.44.83,6.46,3.1,9.83,4.26,4.02,1.38,7.97,2.17,12.37,2.65ZM244.9,624.59c4.1,1.04,7.66,2.68,11.47,2.98l22.22,1.75c10.21.8,19.6-2.85,26.38-10.37,3.04-3.37,5.53-6.94,7.92-10.87l-12.61,5.14-12.21,5.42c-8.96,3.98-18.16,5.31-27.93,5.55l-15.25.39Z"/>
    <path class="cls-2" d="M248.37,585.56c-1.29-4.75-2.81-9.48-4.74-14.25-1.22-3.01-2.7-5.33-5.21-7.69,2.91,1.04,4.1,3.7,5.4,6.18,1.94,5.08,4.23,9.94,4.55,15.76Z"/>
    <path class="cls-2" d="M173.57,564.45c-1.04,1.6-5.73,5.64-8.28,6.4l7.3-6.56c.16-.02,1.08,0,.97.16Z"/>
    <path class="cls-2" d="M186.53,580.4l.56-4.23.6-3.39c.33-1.89,1-3.7,2.29-4.98-2.15,4.45-1.64,8.83-3.45,12.6Z"/>
    <path class="cls-2" d="M170.14,564.22l-6.73,3.74c1.44-1.7,3.74-3.01,5.43-4.05.23-.14.86.04,1.3.31Z"/>
  </g>
  <g class="cls-4">
    <g>
      <path class="cls-3" d="M499.07,535.33l3.25,4.53,7.84-1.92-4.55,4.62,3.14,6.88c-2.54-.42-4.13-1.23-6.63-2.81l-4.26,5.13c-.16-2,.07-3.63.35-5.48.25-1.62-2.2-2.81-4.64-4.23l5.28-1.24c-.15-3.1-1.74-6.86-3.32-10.11,2.84-.66,6.7-4.03,6.09-6.72-.15-.63-1.88-2.3-2.12-2.49l2.78-3.16c-3.24-6.5-2.98-13.8-3.91-20.7-1.1-8.2-3.38-16-5.63-24.06l-21.88,8.36-22.18,6.42-22.36,6.4,1.39,1.72c.22.27-.84.63-1.18.55l-6.58-1.39-2.42-4.73c-1.81-3.55-2.23-7.59-.93-11.56l2.87-8.81c.34-1.05-.64-3.65-1.48-4.32-.96-.76-3.44-.91-4.71-.59l-1.93.49c-1.86.47,2.87-3.44-.48-9l-5.95-9.89c.27-6,4.85-9.81,4.96-12.91.02-.51-1.65-.23-2.12,0l-1.84.94c-.52.26-1.57-.86-2.04-1.51l6.29-4.71c2.23-1.67,3.86-2.62,6.35-2.95l5.22-2.44-4.34,4.92-.23,2.56c-.06.7-2.18.52-2.73.1-.86-.69-1.61-1.38-2.03-1.02-.51.43-1.82,1.57-1.75,1.51,5.15,3.63-3.54,7.62-3.56,14.31-.01,3.03,3.11,6.78,4.78,8.88,4.06,1.52,6.02,4.5,5.14,8.66,4.7,2.78,4.99,7.42,2.62,11.96-1.75,4.53-3.42,10.51-.4,14.73,2.68-.3,5.56.21,7.94,2.47l29.11-8.26c12.72-3.61,25.29-6.53,36.59-13.35l-1.42-2.49c-.22-.39.7-1.45,1.07-1.98l-12.23-11.56c-10.88-10.29-22.04-19.78-32.06-30.9l-5.41-6-2.42,1.37c-.53.3-1.82-.67-2.46-.8-3.1.88-7.97,2.31-11.63,2.48l13.24-4.76c-.91-1.45-1.56-3.11-1.24-3.7,2.73-.13,5.08-.65,6.55-2.88l17.55-13.24,1.09-2.53c.24-.57-1.24-1.78-1.83-2-11.03-4.19-21.38-9.16-32.77-12.39-11.26-3.2-22.15-5.77-32.98-10.19-3.41-1.39-4.11-4.9-3.8-8.15-.89-1.12-1.69-2.88-1.58-4.24l.25-3.17c.06-.7,2.26-1.21,2.91-1.63l9.43-15.35c-.29-.34-1.39-1.28-1.13-1.48l2.24-1.69c-1.51-3.24-3.85-7.06-6.32-10.12-3.4-4.21-5.15-9.13-8.28-13.47-6.81-9.41-16.14-17.25-24.17-25.71-1.27.03-2.93,1.59-3.16,2.57l-2.45,10.65.6,2.23c-.4,2.61-.07,4.09,1.05,7.24l-2.86-.27-5.96,11.32,2.69,1.03c-2.54,2.09-2.25,6.97-1.28,7.86.64.6,2.83,1.26,3.73,1.27l3.28.05c.72.01-.21,1.58,2.83,4.24.38.33.59,1.46.52,1.67l-3.68-.38c-.68-.07-1.39,1.11-2.11,1.95-1.58-1.08-2.85-3.63-.81-5.23-3.44-.79-6.98-2.53-6.85-7.12l-3.78,1.14.3-4.35c4.84-2.87,8.71-8.93,8.91-14.76l-4.86-3.99c2.33-1.54,3.68-1.65,6.47-1.45l2.83-13.93c.12-.57-1.12-1.91-.94-2.33l.94-2.13-3.37-2.8,2.52-1.27c.53-.27.92-1.34,1.54-2.27.44-.66,1.33,2.21,1.62,3.29l5.85.05-4.02,2.91,24.43,24.54c1.66,1.67,2.59,4.89,3.84,7.4l12.19,17.54,3.99-.56-1.28,6.68-2.89-.54-10.84,17.42,3.61,1.41c.66.26.28,2.08.03,2.77-.37,1.02-1.51,1.43-3.71,1.58-.32.63-.47,4.36.02,5.74,1.47,4.14,22.44,9.29,31.47,11.58,5.92,1.5,11.47,3.6,17.13,5.86l18.72,7.47,5.48-2.91c1.16,1.82,2.51,2.93,4.58,4.1l-2.73,1.95c-.55.39-.1,1.81.08,3.34l-3.58-.33c-7.04,4.48-13.97,9.54-20.52,15.23.43,1.37,2.26,2.38,3.72,2.39l51.04.42,16.09,1.04-1.92-7.36c-.98-3.76-3.56-5.26-7.46-5.09-4.41.2-7.06-3.73-8.2-8.54l-.55-2.32c-.14-.57,1.68-1.24,2.08-1.69,3.09-8.97-2.83-14.68,4.33-21.64.1-1.09.58-2.6,1.26-3.25.98-.93,3-.07,4.03.48,14.14-2.07,16.28,1.11,24.25,4.98.33.16,2.07-.64,2.31-.36l1.87,2.17c-1.45,1.51-3.43,2.55-6.22,3.51l-.38-4.04c-5.24-6.25-19.24-7.58-21.57-1.61l-3.25-.65c-4.05,2.23-4.7,6.05-4.14,10.3.59,4.51-.43,9.01-1.28,13.82l5.55,7.37c9.24.96,8.23,5.15,10.79,13.96l4.3-.04-1.06,5.92c-.11.6.01,3-.05,2.78l-2.46-1.7c-.46-.32-1.54.91-2,1.37l-16.93,16.75,3.07,1.11c.7.25.96,2,1.16,2.94l4.57,3.92c-3.03-1.15-4.64-1.82-7.04-1.88l-7.72-.17,1.38-2.4c.32-.56-.76-1.59-1.45-2.32l3.8-.92,19.62-19.61-4.12-1.05,2.48-3.12-10.38-1.28-52.79-.31c-2.69-.02-4.47.08-7.61.71l5.22,6.43c8.51,10.47,19.01,18.69,28.67,28.14,5.74,5.61,10.98,10.98,16.95,15.91l.84-2.17c1.17-3.02,1.46,1.78,4.3,3.44-.72,1.24-3.01,3.57-5.23,5.11l5.13,24.84.72,8.68c.28,3.43,1.08,8.92,4.77,10.16,2.77.93,6.69-1.04,9.26-1.86l8.05-2.6,1.15-3.34c.3-.86,2.98.14,3.26,1.01.21.65.53,2.33,1.06,2.31l2.36-.08,1,2.5c.22.55,1.94.35,2.56.52,7.22,1.93,21.03,7.07,21.03,7.78v1.98s4.03-1.03,4.03-1.03l-1.25,3.87c-.49,1.52,3.14,5.68,3.32,5.44l1.78-2.37c.38.59.06,3.79-.92,4.41-2.56,1.65-3.28-3.92-7.48-5.09l-2.06-1.52c-1.44-1.06-8.46,6.24-11.81,2.42l-4.75-5.42-9.83.04c-7.87.03-15.32-.85-22.67-3.79,0,3.59-1.56,6.08-3.88,8.05l-.74,4.99ZM547.25,529.81l6.25-3.51-1.99-3.11c-7.37-3.49-14.61-6.13-22.79-6.79-.86.49-3.28,1.58-3.8.88l-2.26-3.04-12.74,4.44c-.62.22-1.91,1.74-1.6,2.31,2.15,3.93,17.13,3.7,25.76,3.37,6.92-.26,5.49,6,9.02,6.48.93.13,3.31-.54,4.17-1.03Z"/>
      <path class="cls-3" d="M452.03,371.64l9,3.29-15.63-1.91c-.65-4.86-8.67,1.13-14.97-9.17l-2.14.26c-.37.05-.65-1.31-.72-1.7l-.44-2.75c-.09-.57,2.7-.69,3.02-1.24,2.9-6.76,5.56-17.31,6.33-24.96-1.26-.74-2.56-1.53-2.62-1.83l2.57-3.69-3.99-4.78c3.14,1.03,3.86,1.23,6.55.76l2.39,2.19c6.54-5.57,14.4-8.83,23.04-9.13l.12-1.87c.03-.43,1.48-.39,1.92-.47,2.15-.36,2.55-.11,4.91.44,3.72.88,9.61.25,13.79-.41,1.38-.22,3.22-3.06,4.07-4.2,6.63-8.96,15.74-14.87,26.73-16.34l-3.02-3.93,5.4.48c.32,1.97.9,4.25,1.88,5.02l5.6,4.4-5.98.36c-.51-1.61-1.13-3.34-1.88-4.12s-2.97-.93-4.24-.68c-11.02,2.13-20.18,9.53-25.44,19.2-.88.68-3.24,1.64-4.29,1.7l-14.32.84.24,2.16c.04.39-1.31.64-1.73.72l-2.24.42c-.56.11-1.05-1.19-1.56-2.32-4.34.82-9.71,1.23-13.59,3.58l-10.08,6.1,1.76,2.38c1.13,1.53-3.98.83-4.68,5.43-1.26,8.24-3.24,15.76-6.74,23l2.16,1.08c.49.24-.5,1.25-1.66,2.06,2.2,6.46,11.55,10.12,16.15,5.69,1.18-.19,3.31,2.05,4.29,3.94Z"/>
      <path class="cls-3" d="M346.24,441.79c-2.16-1.53-4.03-.45-6.33,1.58.32-5.46-6.61-8.36-4.1-8.36h2.28s3.03.07,3.03.07c.79.02,1.15-2.03,1.57-2.7l3.47-5.52.97,6.15,4.01,2.38-2.39,1.2c-.49.25.6,1.85.85,2.36l1.11,2.23c.26.52-.42,2.24-.99,2.09-.72-.19-2.71-.96-3.47-1.5Z"/>
      <path class="cls-3" d="M480.67,359.79l-2.48-1.35c-.6-.33-4.37,2.98-4.48,1.53-.05-.64.02-1.88.28-2.48l1.14-2.69c.3-.71-1.81-1.55-2.54-1.86l-1.35-.58c-.28-.12-.72-1.5-.41-1.48l2.21.15,3.65.25c1.22.08,2.22-6.82,3.15-4.95.21.43.66,1.45.7,1.93l.3,3.15c.08.9,3,.82,3.89.91l1.6.16c.27.03.91.66.7.83-.32.25-1.09.8-1.49.99l-2.62,1.19c-1.22.55-.07,5.49-.9,5.03l-1.34-.73Z"/>
      <path class="cls-3" d="M393.14,389.68l-4.12,5.49c-.35-.09-1.62-2.59-1.06-3.23l2.87-3.26c-1.83-.89-3.42-1.85-4.67-3.74l6.2-.1,3.71-6.92c1.05,2.17.78,3.83.52,5.69l3.63.98-3.1,2.77c-.64.57,1.04,2.64,1.42,3.44l.7,1.45c.17.36-1.79.78-2.1.54l-4-3.11Z"/>
      <path class="cls-3" d="M455.5,502.21l-7.42,2.36,6.11-6.58-7.53-.09-.62-1.39,7.13-.67.72-5.34,3.23,5.21,6.65-.9-5.88,4.72,1.75,5.6c-1.33.14-2.74-1-4.14-2.93Z"/>
      <path class="cls-3" d="M363.51,269.47c-2.83.77-4.46-3.8-5.43-3.41l-2.88,1.16c-.64.26-2.39.78-2.77.83l1.55-4.59c-2.05-1.34-3.04-2.06-4.28-3.46l6.07.57,2.38-5.67c.94,1.58,1.09,3.03,1.22,5.24h5.63s-4.28,3.62-4.28,3.62l2.79,5.69Z"/>
      <path class="cls-3" d="M389.95,495.38c-.68-.88-1.8-2.23-2.32-1.94l-2.61,1.48c-.88.45-.86-2.63-.21-3.85-1.93.05-3.94,0-5.42-1.5l7.41-1.44,1.25-6.63c1.29,1.89,1.38,2.43,2.18,5.27l5.46-.83.38,1.14c.26.79-4.46,1.33-4.36,2.58l.31,3.59.19,2.2c.05.58-1.9.41-2.26-.06Z"/>
      <path class="cls-3" d="M368.15,406.52l-6.28,3.72c.08-1.46.78-2.94,2.02-4.77l-1.23-3.22,3.14-.22c.78-.06.69-4.46,1.26-4.26l1.6.55c.39.13.93,1.59,1.32,1.46l1.87-.63,1.86-.62c.37-.12,1.05.93,1.1,1.22l-4.4,3.37,2.32,7.75c-2.03-1.16-2.37-1.77-4.57-4.35Z"/>
      <path class="cls-3" d="M457.51,344.88c.14.36-.95,1.15-1.2.88l-1.41-1.51-2.1-1.86c-.58-.51-2.43,1.49-2.67,1.82l-4.09-3.91c1.46-.49,3.58-.97,4.35-1.75s.67-3.2.93-5.57c.55.42,1.49,1.88,2.5,3.76h6.53s-4.65,3.62-4.65,3.62l1.82,4.52Z"/>
      <path class="cls-3" d="M377.3,274.83l1.26,4.33-5.28-2.56-2.84-.2c-.57-.04-.76-1.69-.6-1.92l2.72-1.23c.7-.32.44-2.56.7-3.33l.54-1.56c.54-1.57,1.14,2.82,5.23,3.59.37.07,1.33,1.09.98,1.29l-2.7,1.59Z"/>
      <path class="cls-3" d="M425.2,287.22l.12,2.91c.02.62-1.29,2.37-1.67,1.87-.61-.83-.87-2.09-1.43-2.33l-3.19-1.36,4.06-1.8-.55-2.53c-.16-.74,1.61-2.31,2.07-2.07,1.65,2.69,3.06,3.89,6.13,5.69.7.41-.87,2.07-2.07,2.06-.81,0-1.35-.65-3.46-2.44Z"/>
      <path class="cls-3" d="M366.13,324.27l-1.62-5.95c-.08-.28-.1-1.4.17-1.34l1.89.46c.39.09,1.41.91,1.76.7l2.06-1.27,1.48-.65c.34-.15.41,1.29.21,1.6-.23.37-1.06,1.35-.81,1.63l1.52,1.69c3.5,3.89-2.42.46-6.64,3.13Z"/>
      <path class="cls-3" d="M371.38,448.6c-.34,2.23-.14,5.1.27,8.39-2.96-2.43-2.35-5.82-1.31-9.35l1.28-4.34c2.5.95,3.97.47,7.95-.39l-4.01,3.81-.93,1.9c-.24.49-1.34.24-3.26-.01Z"/>
      <path class="cls-3" d="M387.13,461.48c.32-2.66.53-4.25-.09-5.1s-2.92-1.24-4.62-1.53c-.03-.25.78-1.95,1.42-2,.8-.06,2.45.39,3.26.75l5.57,2.49c.14,1.38-.52,3.89-1.55,4.26-1.28.46-3.71,1.14-3.99,1.12Z"/>
      <path class="cls-3" d="M470.8,380.63l-6.83.64c.35-1.68.94-3.3.39-3.74l-2.72-2.2c2.72.47,5.53.47,8.05-.24l1.12,5.54Z"/>
    </g>
  </g>
</svg>