<?xml version="1.0" encoding="UTF-8"?>
<svg id="Layer_1" xmlns="http://www.w3.org/2000/svg" version="1.1" viewBox="0 0 399.6 445.2">
  <!-- Generator: Adobe Illustrator 30.5.1, SVG Export Plug-In . SVG Version: 2.1.4 Build 3)  -->
  <defs>
    <style>
      .st0 {
        fill: #001ee3;
      }
    </style>
  </defs>
  <g>
    <path class="st0" d="M185.7,72.6c-7.7,0-14.7-3.4-22.8-3.4s-7.9.8-12.3,3.1l-.7.3V14.6h30.6c12.1,0,18.1,8,18.1,16.1s-1.4,7.6-4.1,10.6c6.1,3.1,9,9,9,14.8,0,8.3-6.1,16.5-17.9,16.5h0ZM160.1,22.8v16.1h18.9c6.3,0,9.4-4.1,9.4-8s-3.1-8.1-9.4-8.1h-18.9ZM160.1,47v14c1.9-.3,3.6-.5,5.1-.5,7.9,0,12.5,3.6,19,3.6s9.4-4.3,9.4-8.5-3.1-8.6-9.4-8.6h-24.1ZM224,63.9h41.6v8.7h-51.7V14.7h51.2v8.7h-41.1v16.3c2.2,1,4.4,1.4,6.5,1.4,7.4,0,14.2-4.9,21.5-4.9s7,1.2,10.9,4.5v8.6c-4-3-7.7-4.1-11.2-4.1-7.5,0-13.9,4.7-21,4.7s-4.5-.4-6.8-1.6v15.6h0ZM306.7,65.2c7.4,0,12.2-2.5,12.2-8.3,0-13.6-42.8-3.1-42.8-26s12.2-17.7,25.4-17.7,21.7,3.2,27.8,8.4l-5.5,7.9c-4.5-4.2-14-7-22.2-7s-14.7,2.6-14.7,8.6c0,12.8,42.9,2.5,42.9,25.8s-11,17.6-22.3,17.6-16-5.8-22.3-5.8-5.2,1-7.9,4v-10.7c2.5-1.8,5-2.5,7.4-2.5,7.1,0,14,5.7,22,5.7h0ZM399.6,43.6c0,20.5-17.6,30.6-32.7,30.6s-32.8-10-32.8-30.6,17.6-30.6,32.8-30.6,32.7,10,32.7,30.6ZM389.2,43.6c0-14.2-12.1-21-22.4-21s-22.5,6.9-22.5,21,12.1,21,22.5,21,22.4-7,22.4-21h0Z"/>
    <path class="st0" d="M17,87.4l-1,2c-12.5-3.6-20.2-19-13.7-44.8C8.7,19,24,3.6,38.4,0v1.9c-8.7,2.3-20.1,18.3-26.2,42.8-6.1,24.6-2.7,40.6,4.9,42.8h0ZM120.4,1.9l1-1.9c12.6,3.6,20.2,19,13.7,44.7-6.4,25.8-21.7,41.1-36,44.8v-2c8.6-2.2,20-18.2,26.1-42.8,6.1-24.5,2.7-40.5-4.9-42.8h0Z"/>
    <path class="st0" d="M43,29.3c3.1,0,4.8,1.7,2.8,9.8l-3.4,13.9c-1.1,4.4.8,6.4,3.8,6.4s7.9-3.8,12-12l2-8.3c1.1-4.5,1.9-7.9,0-7.9s-.5,0-.7.1c-.1,0-.2,0-.3,0-.1,0-.2,0-.2,0h0c0-.1,0-.2,0-.3s0-.1.1-.2c1.3-1.1,2.9-1.5,4.6-1.5,3,0,4.8,1.7,2.7,9.8l-3.7,14.9c-.9,3.8-1.4,6.6.2,6.6s2-1.3,2.7-3.6l.2-.4c0-.2.2-.4.4-.4h.1c.2,0,.3.2.3.4-1.7,5.1-4.6,7.2-7.4,7.2s-4.8-1.6-2.8-9.8l.4-1.6c-4.4,7.3-11.1,11.4-16,11.4s-6.5-3.3-4.7-10.5l3.5-14.1c1.1-4.5,1.9-7.9,0-7.9s-.5,0-.8.1c-.1,0-.2,0-.2,0-.1,0-.2,0-.2,0h0c0-.1-.1-.2,0-.3,0,0,0-.1.1-.2,1.3-1.1,2.9-1.5,4.5-1.5h0ZM79,29.3c3.1,0,4.8,1.7,2.8,9.8l-.4,1.6c4.4-7.3,11.3-11.4,16-11.4s6.3,3.3,4.5,10.5l-3.5,14.1c-.9,3.8-1.5,6.6.2,6.6s2-1.3,2.7-3.6l.2-.4c0-.2.2-.4.4-.4h.1c.2,0,.3.2.3.4-1.7,5.1-4.6,7.2-7.4,7.2s-4.8-1.6-2.8-9.8l3.4-13.9c1.1-4.3-.6-6.4-3.4-6.4s-7.9,3.8-12,12.1l-4.4,17.5h-6.2l6-24.2c1.1-4.5,1.9-7.9,0-7.9s-.5,0-.8.1c-.1,0-.2,0-.2,0-.1,0-.2,0-.2,0h0c0-.1-.1-.2,0-.3,0,0,0-.1.1-.2,1.3-1.1,2.9-1.5,4.5-1.5h0Z"/>
    <path class="st0" d="M135.4,144.4h-4.1v-12.5h4.2c1.2,0,2.3.2,3.2.8s1.6,1.2,2,2.1.7,2,.7,3.4-.2,2.4-.7,3.4c-.5.9-1.2,1.7-2.1,2.2-.9.5-2,.8-3.3.8h0ZM133.2,142.8h2.1c1,0,1.8-.2,2.4-.5.6-.4,1.1-.9,1.4-1.6.3-.7.5-1.5.5-2.5s-.2-1.8-.5-2.5-.8-1.2-1.4-1.6c-.6-.4-1.4-.5-2.3-.5h-2.2v9.2h0ZM157.9,138.1c0,1.3-.2,2.5-.7,3.5-.5,1-1.2,1.7-2,2.2-.9.5-1.8.8-2.9.8s-2.1-.3-2.9-.8c-.9-.5-1.5-1.3-2-2.2-.5-1-.7-2.1-.7-3.5s.2-2.5.7-3.5c.5-1,1.2-1.7,2-2.2.9-.5,1.8-.8,2.9-.8s2.1.3,2.9.8c.9.5,1.5,1.2,2,2.2.5,1,.7,2.1.7,3.5h0ZM156,138.1c0-1-.2-1.9-.5-2.6-.3-.7-.8-1.2-1.4-1.6s-1.2-.5-1.9-.5-1.4.2-1.9.5c-.6.4-1,.9-1.4,1.6-.3.7-.5,1.6-.5,2.6s.2,1.9.5,2.6c.3.7.8,1.2,1.4,1.6s1.2.5,1.9.5,1.4-.2,1.9-.5c.6-.4,1-.9,1.4-1.6.3-.7.5-1.6.5-2.6ZM173.7,131.9v12.5h-1.7l-6.4-9.2h-.1v9.2h-1.9v-12.5h1.8l6.4,9.2h.1v-9.2h1.9,0ZM183.7,144.4h-4.1v-12.5h4.2c1.2,0,2.3.2,3.2.8s1.6,1.2,2,2.1.7,2,.7,3.4-.2,2.4-.7,3.4c-.5.9-1.2,1.7-2.1,2.2-.9.5-2,.8-3.3.8h0ZM181.6,142.8h2.1c1,0,1.8-.2,2.4-.5.6-.4,1.1-.9,1.4-1.6.3-.7.5-1.5.5-2.5s-.2-1.8-.5-2.5-.8-1.2-1.4-1.6c-.6-.4-1.4-.5-2.3-.5h-2.2v9.2h0ZM195.4,144.4v-12.5h7.9v1.6h-6v3.8h5.6v1.6h-5.6v3.8h6.1v1.6h-7.9ZM216.9,144.4v-12.5h7.9v1.6h-6v3.8h5.6v1.6h-5.6v3.8h6.1v1.6h-7.9ZM237.4,135.2c0-.6-.3-1-.8-1.4-.5-.3-1.1-.5-1.8-.5s-1,0-1.3.2c-.4.2-.7.4-.9.7-.2.3-.3.6-.3,1s0,.6.2.8c.1.2.3.4.6.5.2.1.5.3.8.4.3,0,.5.2.8.2l1.2.3c.4.1.8.2,1.2.4.4.2.8.4,1.2.7.4.3.6.6.9,1,.2.4.3.9.3,1.5s-.2,1.3-.5,1.9c-.4.5-.9,1-1.6,1.3-.7.3-1.5.5-2.5.5s-1.8-.1-2.4-.5c-.7-.3-1.2-.7-1.6-1.3-.4-.5-.6-1.2-.6-2h1.9c0,.5.2.8.4,1.1.3.3.6.5,1,.7.4.1.9.2,1.3.2s1,0,1.4-.2c.4-.2.8-.4,1-.7.2-.3.4-.7.4-1.1s-.1-.7-.3-.9c-.2-.2-.5-.4-.9-.6-.4-.1-.8-.3-1.2-.4l-1.5-.4c-1-.3-1.8-.7-2.4-1.2-.6-.5-.9-1.2-.9-2.1s.2-1.4.6-1.9c.4-.5.9-1,1.6-1.3.7-.3,1.4-.5,2.3-.5s1.6.1,2.2.5c.6.3,1.2.7,1.5,1.2.4.5.6,1.1.6,1.8h-1.8,0ZM244.3,133.5v-1.6h9.7v1.6h-3.9v10.9h-1.9v-10.9h-3.9,0ZM259.4,144.4v-12.5h7.9v1.6h-6v3.8h5.6v1.6h-5.6v3.8h6v1.6h-7.9ZM262.6,130.6l1.4-2.8h1.9l-1.9,2.8h-1.5ZM279.9,135.2c0-.6-.3-1-.8-1.4s-1.1-.5-1.8-.5-1,0-1.3.2c-.4.2-.7.4-.9.7-.2.3-.3.6-.3,1s0,.6.2.8c.1.2.3.4.6.5.2.1.5.3.8.4.3,0,.5.2.8.2l1.2.3c.4.1.8.2,1.2.4.4.2.8.4,1.2.7.4.3.6.6.9,1,.2.4.3.9.3,1.5s-.2,1.3-.5,1.9c-.4.5-.9,1-1.6,1.3-.7.3-1.5.5-2.5.5s-1.8-.1-2.4-.5c-.7-.3-1.2-.7-1.6-1.3-.4-.5-.6-1.2-.6-2h1.9c0,.5.2.8.4,1.1.3.3.6.5,1,.7.4.1.9.2,1.3.2s1,0,1.4-.2c.4-.2.8-.4,1-.7.2-.3.4-.7.4-1.1s-.1-.7-.3-.9c-.2-.2-.5-.4-.9-.6-.4-.1-.8-.3-1.2-.4l-1.5-.4c-1-.3-1.8-.7-2.4-1.2-.6-.5-.9-1.2-.9-2.1s.2-1.4.6-1.9c.4-.5.9-1,1.6-1.3.7-.3,1.4-.5,2.3-.5s1.6.1,2.2.5c.6.3,1.2.7,1.5,1.2.4.5.6,1.1.6,1.8h-1.8,0ZM181.1,163.8v-12.5h4.6c.9,0,1.6.1,2.2.4s1,.7,1.3,1.2c.3.5.4,1,.4,1.7s-.1,1-.3,1.3c-.2.4-.4.6-.8.9-.3.2-.7.4-1.1.5h0c.4.1.8.3,1.2.5.4.2.7.6,1,1,.3.5.4,1,.4,1.6s-.1,1.2-.4,1.7-.8.9-1.4,1.2c-.6.3-1.4.4-2.4.4h-4.8ZM183,162.1h2.7c.9,0,1.6-.2,1.9-.5s.6-.8.6-1.3-.1-.8-.3-1.1-.5-.6-.9-.8-.8-.3-1.3-.3h-2.8v4h0ZM183,156.6h2.5c.4,0,.8,0,1.1-.2.3-.2.6-.4.8-.7.2-.3.3-.6.3-1s-.2-1-.6-1.3c-.4-.4-.9-.5-1.7-.5h-2.6v3.8h0ZM195.7,163.8v-12.5h7.9v1.6h-6v3.8h5.6v1.6h-5.6v3.8h6.1v1.6h-7.9ZM209.3,163.8v-12.5h4.6c.9,0,1.6.1,2.2.4s1,.7,1.3,1.2c.3.5.4,1,.4,1.7s-.1,1-.3,1.3c-.2.4-.4.6-.8.9-.3.2-.7.4-1.1.5h0c.4.1.8.3,1.2.5.4.2.7.6,1,1,.3.5.4,1,.4,1.6s-.1,1.2-.4,1.7-.8.9-1.4,1.2c-.6.3-1.4.4-2.4.4h-4.8ZM211.2,162.1h2.7c.9,0,1.6-.2,1.9-.5s.6-.8.6-1.3-.1-.8-.3-1.1-.5-.6-.9-.8-.8-.3-1.3-.3h-2.8v4h0ZM211.2,156.6h2.5c.4,0,.8,0,1.1-.2.3-.2.6-.4.8-.7.2-.3.3-.6.3-1s-.2-1-.6-1.3c-.4-.4-.9-.5-1.7-.5h-2.6v3.8h0ZM223.9,163.8v-12.5h7.9v1.6h-6v3.8h5.6v1.6h-5.6v3.8h6v1.6h-7.9Z"/>
    <path class="st0" d="M65.7,205.2v-8.5h1v7.6h3.9v.9h-5ZM74,205.3c-.4,0-.8,0-1.1-.2-.3-.1-.6-.4-.8-.7s-.3-.6-.3-1.1,0-.7.2-.9c.1-.2.3-.4.6-.5.2-.1.5-.2.8-.3.3,0,.6-.1.9-.2.4,0,.7,0,.9-.1.2,0,.4,0,.5-.1.1,0,.2-.2.2-.3h0c0-.4-.1-.8-.3-1-.2-.2-.6-.3-1-.3s-.8.1-1.1.3c-.3.2-.4.4-.6.6l-.9-.3c.2-.4.4-.7.7-.9.3-.2.6-.4.9-.5s.7-.1,1-.1.4,0,.7,0c.3,0,.5.1.8.3.2.1.5.4.6.7.2.3.2.7.2,1.2v4.2h-1v-.9h0c0,.1-.2.3-.3.4-.2.2-.4.3-.6.4s-.6.2-.9.2h0ZM74.2,204.4c.4,0,.7,0,1-.2.3-.1.5-.4.6-.6.1-.2.2-.5.2-.8v-.9s-.1.1-.3.1-.3,0-.5.1-.3,0-.5,0c-.2,0-.3,0-.4,0-.2,0-.5,0-.7.2s-.4.2-.5.3c-.1.1-.2.3-.2.6s.1.6.4.8c.2.2.6.3,1,.3h0ZM87.2,198.8l-2.3,6.4h-1l-2.3-6.4h1.1l1.8,5.1h0l1.8-5.1h1.1ZM88.5,205.2v-6.4h1v6.4h-1ZM89,197.8c-.2,0-.3,0-.5-.2-.1-.1-.2-.3-.2-.5s0-.3.2-.5c.1-.1.3-.2.5-.2s.3,0,.5.2.2.3.2.5,0,.3-.2.5-.3.2-.5.2ZM93.6,205.3c-.5,0-1-.1-1.4-.4-.4-.3-.7-.6-.9-1.1-.2-.5-.3-1.1-.3-1.8s.1-1.2.3-1.7c.2-.5.6-.9,1-1.1.4-.3.9-.4,1.4-.4s.7,0,1,.2c.2.1.4.3.6.5.1.2.2.3.3.4h0v-3.1h1v8.5h-.9v-1h-.1c0,.1-.2.3-.3.4-.1.2-.3.3-.6.5s-.6.2-1,.2h0ZM93.8,204.4c.4,0,.7-.1,1-.3s.5-.5.6-.9.2-.8.2-1.3,0-.9-.2-1.2-.3-.6-.6-.8c-.3-.2-.6-.3-1-.3s-.8.1-1,.3c-.3.2-.5.5-.6.9s-.2.8-.2,1.2,0,.9.2,1.2c.1.4.3.7.6.9.3.2.6.3,1,.3h0ZM100.3,205.3c-.4,0-.8,0-1.1-.2-.3-.1-.6-.4-.8-.7s-.3-.6-.3-1.1,0-.7.2-.9c.1-.2.3-.4.6-.5s.5-.2.8-.3c.3,0,.6-.1.9-.2.4,0,.7,0,.9-.1.2,0,.4,0,.5-.1.1,0,.2-.2.2-.3h0c0-.4-.1-.8-.3-1-.2-.2-.6-.3-1-.3s-.8.1-1.1.3c-.3.2-.4.4-.6.6l-.9-.3c.2-.4.4-.7.7-.9.3-.2.6-.4.9-.5s.7-.1,1-.1.4,0,.7,0c.3,0,.5.1.8.3.2.1.5.4.6.7.2.3.2.7.2,1.2v4.2h-1v-.9h0c0,.1-.2.3-.3.4-.1.2-.4.3-.6.4-.3.1-.6.2-.9.2h0ZM100.5,204.4c.4,0,.7,0,1-.2.3-.1.5-.4.6-.6.1-.2.2-.5.2-.8v-.9s-.1.1-.3.1-.3,0-.5.1-.3,0-.5,0c-.2,0-.3,0-.4,0-.2,0-.5,0-.7.2s-.4.2-.5.3c-.1.1-.2.3-.2.6s.1.6.4.8c.2.2.6.3,1,.3h0ZM111,205.3c-.6,0-1.1-.1-1.6-.4s-.8-.6-1-1.1c-.2-.5-.4-1.1-.4-1.7s.1-1.2.4-1.7.6-.9,1-1.2.9-.4,1.5-.4.7,0,1,.2c.3.1.6.3.9.5.3.2.5.6.6,1,.2.4.2.9.2,1.5v.4h-4.9v-.8h3.9c0-.4,0-.7-.2-1-.1-.3-.3-.5-.6-.7-.3-.2-.6-.2-.9-.2s-.7.1-1,.3-.5.4-.6.7c-.1.3-.2.6-.2,1v.6c0,.5,0,.9.2,1.2s.4.6.7.8c.3.2.6.3,1,.3s.5,0,.7-.1c.2,0,.4-.2.5-.3s.3-.3.4-.5l.9.3c-.1.3-.3.6-.5.8s-.5.4-.9.6c-.4.1-.7.2-1.2.2h0ZM119.6,200.2l-.9.2c0-.1-.1-.3-.2-.4-.1-.1-.2-.3-.4-.4s-.4-.1-.7-.1-.7,0-1,.3-.4.4-.4.7,0,.4.3.6c.2.1.4.3.8.4l.9.2c.6.1,1,.4,1.3.6s.4.6.4,1.1-.1.7-.3,1c-.2.3-.5.5-.9.7-.4.2-.8.2-1.3.2s-1.2-.1-1.6-.4c-.4-.3-.7-.7-.8-1.2l.9-.2c0,.3.3.6.5.8.2.2.6.3,1,.3s.8-.1,1.1-.3c.3-.2.4-.4.4-.7s0-.4-.2-.5c-.1-.1-.4-.3-.7-.3l-1.1-.2c-.6-.1-1-.4-1.3-.6s-.4-.7-.4-1.1.1-.7.3-1c.2-.3.5-.5.8-.6s.8-.2,1.2-.2,1.1.1,1.5.4c.4.3.6.6.8,1.1h0ZM128.4,202.6v-3.8h1v6.4h-1v-1.1h0c-.1.3-.4.6-.7.8-.3.2-.7.3-1.2.3s-.8,0-1.1-.3c-.3-.2-.6-.4-.7-.8-.2-.4-.3-.8-.3-1.3v-4h1v4c0,.5.1.8.4,1.1s.6.4,1,.4.5,0,.7-.2c.2-.1.5-.3.6-.6s.3-.6.3-1h0ZM132.2,201.3v3.8h-1v-6.4h.9v1h0c.1-.3.4-.6.7-.8.3-.2.7-.3,1.2-.3s.8,0,1.1.3.6.4.8.8.3.8.3,1.3v4h-1v-4c0-.5-.1-.9-.4-1.2s-.6-.4-1.1-.4-.6,0-.8.2c-.2.1-.4.3-.6.6-.1.3-.2.6-.2.9h0ZM139.9,205.3c-.4,0-.8,0-1.1-.2-.3-.1-.6-.4-.8-.7s-.3-.6-.3-1.1,0-.7.2-.9c.1-.2.3-.4.6-.5s.5-.2.8-.3c.3,0,.6-.1.9-.2.4,0,.7,0,.9-.1.2,0,.4,0,.5-.1.1,0,.2-.2.2-.3h0c0-.4-.1-.8-.3-1-.2-.2-.6-.3-1-.3s-.8.1-1.1.3c-.3.2-.4.4-.6.6l-.9-.3c.2-.4.4-.7.7-.9.3-.2.6-.4.9-.5s.7-.1,1-.1.4,0,.7,0c.3,0,.5.1.8.3.2.1.5.4.6.7.2.3.2.7.2,1.2v4.2h-1v-.9h0c0,.1-.2.3-.3.4-.1.2-.4.3-.6.4s-.6.2-.9.2h0ZM140,204.4c.4,0,.7,0,1-.2.3-.1.5-.4.6-.6.1-.2.2-.5.2-.8v-.9s-.1.1-.3.1-.3,0-.5.1-.4,0-.5,0c-.2,0-.3,0-.4,0-.2,0-.5,0-.7.2s-.4.2-.5.3c-.1.1-.2.3-.2.6s.1.6.4.8c.2.2.6.3,1,.3h0ZM150.7,198.8v.8h-3.4v-.8h3.4ZM148.3,205.2v-7.2c0-.4,0-.7.3-.9s.4-.4.7-.5c.3-.1.6-.2.9-.2s.4,0,.6,0,.3,0,.3.1l-.3.8s-.1,0-.2,0c0,0-.2,0-.3,0-.3,0-.6,0-.7.2s-.2.4-.2.7v7h-1,0ZM152.1,205.2v-6.4h1v6.4h-1ZM152.6,197.8c-.2,0-.4,0-.5-.2s-.2-.3-.2-.5,0-.3.2-.5c.1-.1.3-.2.5-.2s.4,0,.5.2.2.3.2.5,0,.3-.2.5c-.1.1-.3.2-.5.2ZM157.5,205.3c-.6,0-1.1-.1-1.6-.4s-.8-.6-1-1.1c-.2-.5-.4-1.1-.4-1.7s.1-1.2.4-1.7.6-.9,1-1.2.9-.4,1.5-.4.7,0,1,.2c.3.1.6.3.9.5.3.2.5.6.6,1,.2.4.2.9.2,1.5v.4h-4.9v-.8h3.9c0-.4,0-.7-.2-1-.1-.3-.3-.5-.6-.7-.3-.2-.6-.2-.9-.2s-.7.1-1,.3-.5.4-.6.7c-.1.3-.2.6-.2,1v.6c0,.5,0,.9.2,1.2s.4.6.7.8c.3.2.6.3,1,.3s.5,0,.7-.1c.2,0,.4-.2.5-.3s.3-.3.4-.5l.9.3c-.1.3-.3.6-.5.8s-.5.4-.9.6c-.4.1-.7.2-1.2.2h0ZM166.1,200.2l-.9.2c0-.1-.1-.3-.2-.4-.1-.1-.2-.3-.4-.4s-.4-.1-.7-.1-.7,0-1,.3-.4.4-.4.7,0,.4.3.6c.2.1.4.3.8.4l.9.2c.6.1,1,.4,1.3.6s.4.6.4,1.1-.1.7-.3,1c-.2.3-.5.5-.9.7-.4.2-.8.2-1.3.2s-1.2-.1-1.6-.4c-.4-.3-.7-.7-.8-1.2l.9-.2c0,.3.3.6.5.8.2.2.6.3,1,.3s.8-.1,1.1-.3c.3-.2.4-.4.4-.7s0-.4-.2-.5c-.1-.1-.4-.3-.7-.3l-1.1-.2c-.6-.1-1-.4-1.3-.6s-.4-.7-.4-1.1.1-.7.3-1c.2-.3.5-.5.8-.6s.8-.2,1.2-.2,1.1.1,1.5.4c.4.3.6.6.8,1.1h0ZM170.4,198.8v.8h-3.3v-.8h3.3ZM168.1,197.3h1v6.1c0,.3,0,.5.1.6,0,.1.2.2.3.3.1,0,.3,0,.4,0s.2,0,.3,0c0,0,.1,0,.2,0l.2.9c0,0-.2,0-.3,0-.1,0-.3,0-.4,0-.3,0-.6,0-.8-.2s-.5-.3-.6-.5c-.2-.2-.3-.5-.3-.9v-6.3ZM173.8,205.3c-.4,0-.8,0-1.1-.2-.3-.1-.6-.4-.8-.7s-.3-.6-.3-1.1,0-.7.2-.9c.1-.2.3-.4.6-.5.2-.1.5-.2.8-.3.3,0,.6-.1.9-.2.4,0,.7,0,.9-.1.2,0,.4,0,.5-.1.1,0,.2-.2.2-.3h0c0-.4-.1-.8-.3-1-.2-.2-.6-.3-1-.3s-.8.1-1.1.3c-.3.2-.4.4-.6.6l-.9-.3c.2-.4.4-.7.7-.9.3-.2.6-.4.9-.5s.7-.1,1-.1.4,0,.7,0c.3,0,.5.1.8.3.2.1.5.4.6.7.2.3.2.7.2,1.2v4.2h-1v-.9h0c0,.1-.2.3-.3.4-.1.2-.4.3-.6.4s-.6.2-.9.2h0ZM173.9,204.4c.4,0,.7,0,1-.2.3-.1.5-.4.6-.6.1-.2.2-.5.2-.8v-.9s-.1.1-.3.1-.3,0-.5.1-.4,0-.5,0c-.2,0-.3,0-.4,0-.2,0-.5,0-.7.2s-.4.2-.5.3c-.1.1-.2.3-.2.6s.1.6.4.8c.2.2.6.3,1,.3h0ZM186.1,207.5v-3.4h0c0,.1-.2.3-.3.4-.1.2-.3.3-.6.5s-.6.2-1,.2-1-.1-1.4-.4c-.4-.3-.7-.6-.9-1.1-.2-.5-.3-1.1-.3-1.8s.1-1.2.3-1.7.6-.9,1-1.1c.4-.3.9-.4,1.4-.4s.7,0,1,.2c.2.1.4.3.6.5.1.2.2.3.3.4h.1v-1h.9v8.7h-1ZM184.3,204.4c.4,0,.7-.1,1-.3s.5-.5.6-.9.2-.8.2-1.3,0-.9-.2-1.2-.3-.6-.6-.8c-.3-.2-.6-.3-1-.3s-.8.1-1,.3c-.3.2-.5.5-.6.9s-.2.8-.2,1.2,0,.9.2,1.2c.1.4.4.7.6.9.3.2.6.3,1,.3h0ZM192.9,202.6v-3.8h1v6.4h-1v-1.1h0c-.1.3-.4.6-.7.8-.3.2-.7.3-1.2.3s-.8,0-1.1-.3c-.3-.2-.6-.4-.7-.8-.2-.4-.3-.8-.3-1.3v-4h1v4c0,.5.1.8.4,1.1s.6.4,1,.4.5,0,.7-.2c.2-.1.5-.3.6-.6s.3-.6.3-1h0ZM198.3,205.3c-.6,0-1.1-.1-1.6-.4s-.8-.6-1-1.1c-.2-.5-.4-1.1-.4-1.7s.1-1.2.4-1.7.6-.9,1-1.2.9-.4,1.5-.4.7,0,1,.2c.3.1.6.3.9.5.3.2.5.6.6,1,.2.4.2.9.2,1.5v.4h-4.9v-.8h3.9c0-.4,0-.7-.2-1-.1-.3-.3-.5-.6-.7-.3-.2-.6-.2-.9-.2s-.7.1-1,.3-.5.4-.6.7c-.1.3-.2.6-.2,1v.6c0,.5,0,.9.2,1.2s.4.6.7.8c.3.2.6.3,1,.3s.5,0,.7-.1c.2,0,.4-.2.5-.3s.3-.3.4-.5l.9.3c-.1.3-.3.6-.5.8s-.5.4-.9.6c-.4.1-.7.2-1.2.2h0ZM128.2,219.1v-3.8h1v6.4h-1v-1.1h0c-.1.3-.4.6-.7.8s-.7.3-1.2.3-.8,0-1.1-.3c-.3-.2-.6-.4-.7-.8-.2-.4-.3-.8-.3-1.3v-4h1v4c0,.5.1.8.4,1.1s.6.4,1,.4.5,0,.7-.2c.2-.1.5-.3.6-.6s.3-.6.3-1h0ZM131.9,217.9v3.8h-1v-6.4h.9v1h0c.1-.3.4-.6.7-.8.3-.2.7-.3,1.2-.3s.8,0,1.1.3.6.4.8.8.3.8.3,1.3v4h-1v-4c0-.5-.1-.9-.4-1.2s-.6-.4-1.1-.4-.6,0-.8.2c-.2.1-.4.3-.6.6-.1.3-.2.6-.2.9h0ZM143.4,221.9c-.5,0-1-.1-1.4-.4-.4-.3-.7-.6-.9-1.1-.2-.5-.3-1.1-.3-1.8s.1-1.2.3-1.7.6-.9,1-1.1c.4-.3.9-.4,1.4-.4s.7,0,1,.2c.2.1.4.3.6.5.1.2.2.3.3.4h0v-3.1h1v8.5h-.9v-1h-.1c0,.1-.2.3-.3.4-.1.2-.3.3-.6.5s-.6.2-1,.2h0ZM143.6,221c.4,0,.7-.1,1-.3s.5-.5.6-.9.2-.8.2-1.3,0-.9-.2-1.2-.3-.6-.6-.8c-.3-.2-.6-.3-1-.3s-.8.1-1,.3c-.3.2-.5.5-.6.9-.1.4-.2.8-.2,1.2s0,.9.2,1.2c.1.4.4.7.6.9.3.2.6.3,1,.3h0ZM148.3,221.7v-6.4h1v6.4h-1ZM148.3,214.5l1-1.9h1.1l-1.3,1.9h-.9ZM152.9,221.9c-.4,0-.8,0-1.1-.2-.3-.1-.6-.4-.8-.7s-.3-.6-.3-1.1,0-.7.2-.9c.1-.2.3-.4.6-.5s.5-.2.8-.3c.3,0,.6-.1.9-.2.4,0,.7,0,.9-.1.2,0,.4,0,.5-.1.1,0,.2-.2.2-.3h0c0-.4-.1-.8-.3-1-.2-.2-.6-.3-1-.3s-.8.1-1.1.3c-.3.2-.4.4-.6.6l-.9-.3c.2-.4.4-.7.7-.9.3-.2.6-.4.9-.5s.7-.1,1-.1.4,0,.7,0c.3,0,.5.1.8.3.2.1.5.4.6.7.2.3.2.7.2,1.2v4.2h-1v-.9h0c0,.1-.2.3-.3.4-.1.2-.4.3-.6.4s-.6.2-.9.2h0ZM153,221c.4,0,.7,0,1-.2.3-.1.5-.4.6-.6.1-.2.2-.5.2-.8v-.9s-.1.1-.3.1-.3,0-.5.1-.4,0-.5,0c-.2,0-.3,0-.4,0-.2,0-.5,0-.7.2s-.4.2-.5.3c-.1.1-.2.3-.2.6s.1.6.4.8c.2.2.6.3,1,.3h0ZM163.6,215.4v.8h-3.3v-.8h3.3ZM161.3,213.9h1v6.1c0,.3,0,.5.1.6,0,.1.2.2.3.3.1,0,.3,0,.4,0s.2,0,.3,0c0,0,.1,0,.2,0l.2.9c0,0-.2,0-.3,0-.1,0-.3,0-.4,0-.3,0-.6,0-.8-.2s-.5-.3-.6-.5c-.2-.2-.3-.5-.3-.9v-6.3h0ZM167.7,221.9c-.6,0-1.1-.1-1.6-.4s-.8-.6-1-1.1c-.2-.5-.4-1.1-.4-1.7s.1-1.2.4-1.7.6-.9,1-1.2.9-.4,1.5-.4.7,0,1,.2c.3.1.6.3.9.5.3.2.5.6.6,1,.2.4.2.9.2,1.5v.4h-4.9v-.8h3.9c0-.4,0-.7-.2-1-.1-.3-.3-.5-.6-.7-.3-.2-.6-.2-.9-.2s-.7.1-1,.3-.5.4-.6.7c-.1.3-.2.6-.2,1v.6c0,.5,0,.9.2,1.2s.4.6.7.8c.3.2.6.3,1,.3s.5,0,.7-.1c.2,0,.4-.2.5-.3s.3-.3.4-.5l.9.3c-.1.3-.3.6-.5.8s-.5.4-.9.6c-.3.1-.7.2-1.2.2h0ZM171.8,221.7v-6.4h.9v1h0c.1-.3.3-.6.6-.8.3-.2.6-.3,1-.3h.3c.1,0,.2,0,.2,0v1s-.1,0-.2,0c-.1,0-.2,0-.4,0-.3,0-.6,0-.8.2-.2.1-.4.3-.6.5-.1.2-.2.5-.2.8v4h-1,0ZM176.1,221.7v-6.4h.9v1h0c.1-.3.4-.6.6-.8.3-.2.6-.3,1.1-.3s.8,0,1.1.3c.3.2.5.5.7.8h0c.2-.3.4-.6.7-.8.3-.2.7-.3,1.2-.3s1,.2,1.4.5.5.9.5,1.6v4.2h-1v-4.2c0-.5-.1-.8-.4-1-.3-.2-.6-.3-.9-.3s-.8.1-1,.4-.4.6-.4,1v4.1h-1v-4.4c0-.4-.1-.6-.4-.9-.2-.2-.5-.3-.9-.3s-.5,0-.7.2-.4.3-.5.6c-.1.2-.2.5-.2.8v4h-1,0ZM186.3,221.7v-6.4h1v6.4h-1ZM186.8,214.3c-.2,0-.4,0-.5-.2s-.2-.3-.2-.5,0-.3.2-.5c.1-.1.3-.2.5-.2s.4,0,.5.2.2.3.2.5,0,.3-.2.5-.3.2-.5.2ZM190,217.9v3.8h-1v-6.4h.9v1h0c.1-.3.4-.6.7-.8.3-.2.7-.3,1.2-.3s.8,0,1.1.3.6.4.8.8.3.8.3,1.3v4h-1v-4c0-.5-.1-.9-.4-1.2s-.6-.4-1.1-.4-.6,0-.8.2c-.2.1-.4.3-.6.6-.1.3-.2.6-.2.9h0ZM197.7,221.9c-.4,0-.8,0-1.1-.2-.3-.1-.6-.4-.8-.7s-.3-.6-.3-1.1,0-.7.2-.9c.1-.2.3-.4.6-.5s.5-.2.8-.3c.3,0,.6-.1.9-.2.4,0,.7,0,.9-.1.2,0,.4,0,.5-.1.1,0,.2-.2.2-.3h0c0-.4-.1-.8-.3-1-.2-.2-.6-.3-1-.3s-.8.1-1.1.3c-.3.2-.4.4-.6.6l-.9-.3c.2-.4.4-.7.7-.9.3-.2.6-.4.9-.5s.7-.1,1-.1.4,0,.7,0c.3,0,.5.1.8.3.2.1.5.4.6.7.2.3.2.7.2,1.2v4.2h-1v-.9h0c0,.1-.2.3-.3.4-.1.2-.4.3-.6.4s-.6.2-.9.2h0ZM197.9,221c.4,0,.7,0,1-.2.3-.1.5-.4.6-.6.1-.2.2-.5.2-.8v-.9s-.1.1-.3.1-.3,0-.5.1-.4,0-.5,0c-.2,0-.3,0-.4,0-.2,0-.5,0-.7.2s-.4.2-.5.3c-.1.1-.2.3-.2.6s.1.6.4.8c.2.2.6.3,1,.3h0ZM100.2,229.8h1.2l2.4,4h.1l2.4-4h1.2l-3.1,5v3.5h-1v-3.5l-3.1-5h0ZM114.7,231.9v.8h-3.4v-.8h3.4ZM112.3,238.3v-7.2c0-.4,0-.7.3-.9s.4-.4.7-.5c.3-.1.6-.2.9-.2s.4,0,.6,0,.3,0,.3.1l-.3.8s-.1,0-.2,0c0,0-.2,0-.3,0-.3,0-.6,0-.7.2s-.2.4-.2.7v7h-1,0ZM120,235.7v-3.8h1v6.4h-1v-1.1h0c-.1.3-.4.6-.7.8-.3.2-.7.3-1.2.3s-.8,0-1.1-.3c-.3-.2-.6-.4-.7-.8-.2-.4-.3-.8-.3-1.3v-4h1v4c0,.5.1.8.4,1.1s.6.4,1,.4.5,0,.7-.2c.2-.1.5-.3.6-.6s.3-.6.3-1h0ZM122.8,238.3v-6.4h1v6.4h-1ZM123.3,230.9c-.2,0-.4,0-.5-.2-.1-.1-.2-.3-.2-.5s0-.3.2-.5c.1-.1.3-.2.5-.2s.4,0,.5.2.2.3.2.5,0,.3-.2.5-.3.2-.5.2ZM130.1,233.4l-.9.2c0-.1-.1-.3-.2-.4-.1-.1-.2-.3-.4-.4s-.4-.1-.7-.1-.7,0-1,.3-.4.4-.4.7,0,.4.3.6c.2.1.4.3.8.4l.9.2c.6.1,1,.4,1.3.6s.4.6.4,1.1-.1.7-.3,1c-.2.3-.5.5-.9.7-.4.2-.8.2-1.3.2s-1.2-.1-1.6-.4c-.4-.3-.7-.7-.8-1.2l.9-.2c0,.3.2.6.5.8.2.2.6.3,1,.3s.8-.1,1.1-.3c.3-.2.4-.4.4-.7s0-.4-.2-.5c-.1-.1-.4-.3-.7-.3l-1.1-.2c-.6-.1-1-.4-1.3-.6s-.4-.7-.4-1.1.1-.7.3-1c.2-.3.5-.5.8-.6s.8-.2,1.2-.2,1.1.1,1.5.4c.4.3.6.6.8,1.1h0ZM134.4,231.9v.8h-3.3v-.8h3.3ZM132.1,230.4h1v6.1c0,.3,0,.5.1.6,0,.1.2.2.3.3.1,0,.3,0,.4,0s.2,0,.3,0c0,0,.1,0,.2,0l.2.9c0,0-.2,0-.3,0-.1,0-.3,0-.4,0-.3,0-.6,0-.8-.2s-.5-.3-.6-.5c-.2-.2-.3-.5-.3-.9v-6.3h0ZM138.5,238.4c-.6,0-1.1-.1-1.6-.4s-.8-.6-1-1.1c-.2-.5-.4-1.1-.4-1.7s.1-1.2.4-1.7.6-.9,1-1.2.9-.4,1.5-.4.7,0,1,.2c.3.1.6.3.9.5.3.2.5.6.6,1,.2.4.2.9.2,1.5v.4h-4.9v-.8h3.9c0-.4,0-.7-.2-1s-.3-.5-.6-.7c-.3-.2-.6-.2-.9-.2s-.7.1-1,.3c-.3.2-.5.4-.6.7-.1.3-.2.6-.2,1v.6c0,.5,0,.9.2,1.2s.4.6.7.8c.3.2.6.3,1,.3s.5,0,.7-.1c.2,0,.4-.2.5-.3s.3-.3.4-.5l.9.3c-.1.3-.3.6-.5.8s-.5.4-.9.6c-.3.1-.7.2-1.2.2h0ZM148.6,231.9v.8h-3.3v-.8h3.3ZM146.3,230.4h1v6.1c0,.3,0,.5.1.6,0,.1.2.2.3.3.1,0,.3,0,.4,0s.2,0,.3,0c0,0,.1,0,.2,0l.2.9c0,0-.2,0-.3,0-.1,0-.3,0-.4,0-.3,0-.6,0-.8-.2s-.5-.3-.6-.5c-.2-.2-.3-.5-.3-.9v-6.3ZM154.1,235.7v-3.8h1v6.4h-1v-1.1h0c-.1.3-.4.6-.7.8-.3.2-.7.3-1.2.3s-.8,0-1.1-.3c-.3-.2-.6-.4-.7-.8-.2-.4-.3-.8-.3-1.3v-4h1v4c0,.5.1.8.4,1.1s.6.4,1,.4.5,0,.7-.2c.2-.1.5-.3.6-.6s.3-.6.3-1h0ZM152.1,231.1l1-1.9h1.1l-1.3,1.9h-.9ZM160.1,238.3v-6.4h.9v1h0c.1-.3.4-.6.6-.8s.6-.3,1.1-.3.8,0,1.1.3c.3.2.5.5.7.8h0c.2-.3.4-.6.7-.8.3-.2.7-.3,1.2-.3s1,.2,1.4.5.5.9.5,1.6v4.2h-1v-4.2c0-.5-.1-.8-.4-1-.3-.2-.6-.3-.9-.3s-.8.1-1,.4-.4.6-.4,1v4.1h-1v-4.4c0-.4-.1-.6-.4-.9-.2-.2-.5-.3-.9-.3s-.5,0-.7.2-.4.3-.5.6c-.1.2-.2.5-.2.8v4h-1,0ZM170.3,238.3v-6.4h1v6.4h-1ZM170.8,230.9c-.2,0-.4,0-.5-.2-.1-.1-.2-.3-.2-.5s0-.3.2-.5c.1-.1.3-.2.5-.2s.4,0,.5.2.2.3.2.5,0,.3-.2.5-.3.2-.5.2ZM176.4,238.3v-8.5h1v3.1h0c0-.1.2-.2.3-.4s.3-.3.6-.5c.2-.1.6-.2,1-.2s1,.1,1.4.4.7.6,1,1.1c.2.5.3,1.1.3,1.7s-.1,1.3-.3,1.8-.6.9-.9,1.1c-.4.3-.9.4-1.4.4s-.7,0-1-.2c-.2-.1-.4-.3-.6-.5-.1-.2-.2-.3-.3-.4h-.1v1h-.9ZM177.4,235.1c0,.5,0,.9.2,1.3.1.4.4.6.6.9.3.2.6.3,1,.3s.8-.1,1-.3c.3-.2.5-.5.6-.9s.2-.8.2-1.2,0-.9-.2-1.2-.3-.6-.6-.9c-.3-.2-.6-.3-1-.3s-.7.1-1,.3c-.3.2-.5.5-.6.8s-.2.8-.2,1.2h0ZM185.4,238.4c-.4,0-.8,0-1.1-.2-.3-.1-.6-.4-.8-.7s-.3-.6-.3-1.1,0-.7.2-.9c.1-.2.3-.4.6-.5s.5-.2.8-.3c.3,0,.6-.1.9-.2.4,0,.7,0,.9-.1.2,0,.4,0,.5-.1.1,0,.2-.2.2-.3h0c0-.4-.1-.8-.3-1-.2-.2-.6-.3-1-.3s-.8.1-1.1.3c-.3.2-.4.4-.6.6l-.9-.3c.2-.4.4-.7.7-.9.3-.2.6-.4.9-.5s.7-.1,1-.1.4,0,.7,0c.3,0,.5.1.8.3.2.1.5.4.6.7.2.3.2.7.2,1.2v4.2h-1v-.9h0c0,.1-.2.3-.3.4-.1.2-.4.3-.6.4s-.6.2-.9.2h0ZM185.6,237.6c.4,0,.7,0,1-.2.3-.1.5-.4.6-.6.1-.2.2-.5.2-.8v-.9s-.1.1-.3.1-.3,0-.5.1-.4,0-.5,0c-.2,0-.3,0-.4,0-.2,0-.5,0-.7.2s-.4.2-.5.3c-.1.1-.2.3-.2.6s.1.6.4.8c.2.2.6.3,1,.3h0ZM190.1,238.3v-6.4h1v6.4h-1ZM190.6,230.9c-.2,0-.4,0-.5-.2s-.2-.3-.2-.5,0-.3.2-.5c.1-.1.3-.2.5-.2s.4,0,.5.2.2.3.2.5,0,.3-.2.5-.3.2-.5.2ZM193.8,229.8v8.5h-1v-8.5h1ZM198.3,238.4c-.6,0-1.1-.1-1.6-.4s-.8-.6-1-1.1c-.2-.5-.4-1.1-.4-1.7s.1-1.2.4-1.7.6-.9,1-1.2.9-.4,1.5-.4.7,0,1,.2c.3.1.6.3.9.5.3.2.5.6.6,1,.2.4.2.9.2,1.5v.4h-4.9v-.8h3.9c0-.4,0-.7-.2-1-.1-.3-.3-.5-.6-.7-.3-.2-.6-.2-.9-.2s-.7.1-1,.3-.5.4-.6.7c-.1.3-.2.6-.2,1v.6c0,.5,0,.9.2,1.2s.4.6.7.8c.3.2.6.3,1,.3s.5,0,.7-.1c.2,0,.4-.2.5-.3s.3-.3.4-.5l.9.3c-.1.3-.3.6-.5.8s-.5.4-.9.6c-.4.1-.7.2-1.2.2h0ZM143.3,254.9v-6.4h1v6.4h-1ZM143.8,247.4c-.2,0-.4,0-.5-.2-.1-.1-.2-.3-.2-.5s0-.3.2-.5c.1-.1.3-.2.5-.2s.4,0,.5.2.2.3.2.5,0,.3-.2.5-.3.2-.5.2ZM147,251v3.8h-1v-6.4h.9v1h0c.1-.3.4-.6.7-.8.3-.2.7-.3,1.2-.3s.8,0,1.1.3.6.4.8.8.3.8.3,1.3v4h-1v-4c0-.5-.1-.9-.4-1.2s-.6-.4-1.1-.4-.6,0-.8.2c-.2.1-.4.3-.6.6-.1.3-.2.6-.2.9h0ZM155.4,255c-.6,0-1.1-.1-1.5-.4s-.8-.6-1-1.1c-.2-.5-.4-1.1-.4-1.7s.1-1.2.4-1.7c.2-.5.6-.9,1-1.1s.9-.4,1.5-.4,1.1.1,1.5.4.8.7,1,1.1c.2.5.4,1.1.4,1.7s-.1,1.2-.4,1.7-.6.9-1,1.1c-.4.3-.9.4-1.5.4ZM155.4,254.1c.4,0,.8-.1,1.1-.3.3-.2.5-.5.6-.9.1-.4.2-.8.2-1.2s0-.8-.2-1.2c-.1-.4-.3-.7-.6-.9s-.6-.3-1.1-.3-.8.1-1.1.3c-.3.2-.5.5-.6.9-.1.4-.2.8-.2,1.2s0,.8.2,1.2c.1.4.3.7.6.9s.6.3,1.1.3ZM160.8,246.4v8.5h-1v-8.5h1ZM167.8,248.5l-2.4,6.4h-1l-2.4-6.4h1.1l1.8,5.1h0l1.8-5.1h1.1ZM169.1,254.9v-6.4h1v6.4h-1ZM169.6,247.4c-.2,0-.4,0-.5-.2s-.2-.3-.2-.5,0-.3.2-.5c.1-.1.3-.2.5-.2s.4,0,.5.2.2.3.2.5,0,.3-.2.5-.3.2-.5.2ZM174.2,255c-.5,0-1-.1-1.4-.4-.4-.3-.7-.6-.9-1.1-.2-.5-.3-1.1-.3-1.8s.1-1.2.3-1.7.6-.9,1-1.1c.4-.3.9-.4,1.4-.4s.7,0,1,.2c.2.1.4.3.6.5.1.2.2.3.3.4h0v-3.1h1v8.5h-.9v-1h-.1c0,.1-.2.3-.3.4-.1.2-.3.3-.6.5s-.6.2-1,.2h0ZM174.4,254.1c.4,0,.7-.1,1-.3s.5-.5.6-.9.2-.8.2-1.3,0-.9-.2-1.2-.3-.6-.6-.8c-.3-.2-.6-.3-1-.3s-.8.1-1,.3c-.3.2-.5.5-.6.9s-.2.8-.2,1.2,0,.9.2,1.2c.1.4.4.7.6.9.3.2.6.3,1,.3h0ZM180.9,255c-.4,0-.8,0-1.1-.2-.3-.1-.6-.4-.8-.7s-.3-.6-.3-1.1,0-.7.2-.9c.1-.2.3-.4.6-.5s.5-.2.8-.3c.3,0,.6-.1.9-.2.4,0,.7,0,.9-.1.2,0,.4,0,.5-.1.1,0,.2-.2.2-.3h0c0-.4-.1-.8-.3-1-.2-.2-.6-.3-1-.3s-.8.1-1.1.3c-.3.2-.4.4-.6.6l-.9-.3c.2-.4.4-.7.7-.9.3-.2.6-.4.9-.5s.7-.1,1-.1.4,0,.7,0c.3,0,.5.1.8.3.2.1.5.4.6.7.2.3.2.7.2,1.2v4.2h-1v-.9h0c0,.1-.2.3-.3.4-.1.2-.4.3-.6.4s-.6.2-.9.2h0ZM181.1,254.1c.4,0,.7,0,1-.2.3-.1.5-.4.6-.6.1-.2.2-.5.2-.8v-.9s-.1.1-.3.1-.3,0-.5.1-.4,0-.5,0c-.2,0-.3,0-.4,0-.2,0-.5,0-.7.2s-.4.2-.5.3c-.1.1-.2.3-.2.6s.1.6.4.8c.2.2.6.3,1,.3h0ZM185.8,254.9v-8.5h1v3.1h0c0-.1.2-.2.3-.4s.3-.3.6-.5c.2-.1.6-.2,1-.2s1,.1,1.4.4c.4.3.7.6,1,1.1.2.5.3,1.1.3,1.7s-.1,1.3-.3,1.8-.6.9-.9,1.1c-.4.3-.9.4-1.4.4s-.7,0-1-.2c-.2-.1-.4-.3-.6-.5-.1-.2-.2-.3-.3-.4h-.1v1h-.9,0ZM186.7,251.7c0,.5,0,.9.2,1.3.1.4.4.6.6.9.3.2.6.3,1,.3s.8-.1,1-.3c.3-.2.5-.5.6-.9s.2-.8.2-1.2,0-.9-.2-1.2-.3-.6-.6-.9c-.3-.2-.6-.3-1-.3s-.7.1-1,.3c-.3.2-.5.5-.6.8s-.2.8-.2,1.2h0ZM193.8,246.4v8.5h-1v-8.5h1ZM198.3,255c-.6,0-1.1-.1-1.6-.4s-.8-.6-1-1.1c-.2-.5-.4-1.1-.4-1.7s.1-1.2.4-1.7.6-.9,1-1.2.9-.4,1.5-.4.7,0,1,.2c.3.1.6.3.9.5.3.2.5.6.6,1,.2.4.2.9.2,1.5v.4h-4.9v-.8h3.9c0-.4,0-.7-.2-1-.1-.3-.3-.5-.6-.7-.3-.2-.6-.2-.9-.2s-.7.1-1,.3-.5.4-.6.7c-.1.3-.2.6-.2,1v.6c0,.5,0,.9.2,1.2s.4.6.7.8c.3.2.6.3,1,.3s.5,0,.7-.1c.2,0,.4-.2.5-.3s.3-.3.4-.5l.9.3c-.1.3-.3.6-.5.8s-.5.4-.9.6c-.4.1-.7.2-1.2.2h0Z"/>
    <path class="st0" d="M214.3,205.2v-8.5h5.1v.9h-4.1v2.9h3.8v.9h-3.8v2.9h4.1v.9h-5.2,0ZM222.1,201.3v3.8h-1v-6.4h.9v1h0c.1-.3.4-.6.7-.8.3-.2.7-.3,1.2-.3s.8,0,1.1.3.6.4.8.8.3.8.3,1.3v4h-1v-4c0-.5-.1-.9-.4-1.2s-.6-.4-1.1-.4-.6,0-.8.2c-.2.1-.4.3-.6.6-.1.3-.2.6-.2.9h0ZM232.2,196.7v8.5h-1v-8.5h1ZM235.8,205.3c-.4,0-.8,0-1.1-.2-.3-.1-.6-.4-.8-.7s-.3-.6-.3-1.1,0-.7.2-.9c.1-.2.3-.4.6-.5.2-.1.5-.2.8-.3.3,0,.6-.1.9-.2.4,0,.7,0,.9-.1.2,0,.4,0,.5-.1.1,0,.2-.2.2-.3h0c0-.4-.1-.8-.3-1-.2-.2-.6-.3-1-.3s-.8.1-1.1.3c-.3.2-.5.4-.6.6l-.9-.3c.2-.4.4-.7.7-.9.3-.2.6-.4.9-.5.3,0,.7-.1,1-.1s.4,0,.7,0c.3,0,.5.1.8.3.2.1.5.4.6.7.2.3.2.7.2,1.2v4.2h-1v-.9h0c0,.1-.2.3-.3.4-.1.2-.4.3-.6.4s-.6.2-.9.2h0ZM236,204.4c.4,0,.7,0,1-.2.3-.1.5-.4.6-.6.1-.2.2-.5.2-.8v-.9s-.1.1-.3.1c-.1,0-.3,0-.5.1-.2,0-.4,0-.5,0-.2,0-.3,0-.4,0-.2,0-.5,0-.7.2s-.4.2-.5.3c-.1.1-.2.3-.2.6s.1.6.4.8c.2.2.6.3,1,.3h0ZM245,200.2l-.9.2c0-.1-.1-.3-.2-.4-.1-.1-.2-.3-.4-.4s-.4-.1-.7-.1-.7,0-1,.3-.4.4-.4.7,0,.4.3.6c.2.1.5.3.8.4l.9.2c.6.1,1,.4,1.3.6s.4.6.4,1.1-.1.7-.3,1-.5.5-.9.7c-.4.2-.8.2-1.3.2s-1.2-.1-1.6-.4c-.4-.3-.7-.7-.8-1.2l.9-.2c0,.3.3.6.5.8.2.2.6.3,1,.3s.8-.1,1.1-.3c.3-.2.4-.4.4-.7s0-.4-.2-.5c-.1-.1-.4-.3-.7-.3l-1.1-.2c-.6-.1-1-.4-1.3-.6s-.4-.7-.4-1.1.1-.7.3-1c.2-.3.5-.5.8-.6.4-.2.8-.2,1.2-.2s1.1.1,1.5.4c.4.3.6.6.8,1.1h0ZM250.9,201.3v3.8h-1v-6.4h.9v1h0c.1-.3.4-.6.7-.8.3-.2.7-.3,1.2-.3s.8,0,1.1.3.6.4.8.8.3.8.3,1.3v4h-1v-4c0-.5-.1-.9-.4-1.2s-.6-.4-1.1-.4-.6,0-.8.2c-.2.1-.4.3-.6.6s-.2.6-.2.9h0ZM259.3,205.3c-.6,0-1.1-.1-1.5-.4-.4-.3-.8-.6-1-1.1-.2-.5-.4-1.1-.4-1.7s.1-1.2.4-1.7c.2-.5.6-.9,1-1.1.4-.3.9-.4,1.5-.4s1.1.1,1.5.4c.4.3.8.7,1,1.1.2.5.4,1.1.4,1.7s-.1,1.2-.4,1.7-.6.9-1,1.1c-.4.3-.9.4-1.5.4ZM259.3,204.4c.4,0,.8-.1,1.1-.3.3-.2.5-.5.6-.9.1-.4.2-.8.2-1.2s0-.8-.2-1.2-.3-.7-.6-.9-.6-.3-1.1-.3-.8.1-1.1.3c-.3.2-.5.5-.6.9-.1.4-.2.8-.2,1.2s0,.8.2,1.2.3.7.6.9.6.3,1.1.3ZM266.2,205.3c-.6,0-1.1-.1-1.5-.4-.4-.3-.8-.7-1-1.2s-.4-1.1-.4-1.7.1-1.2.4-1.7.6-.9,1-1.2.9-.4,1.5-.4.9,0,1.2.2.6.4.9.7c.2.3.4.6.4,1h-1c0-.3-.2-.5-.5-.8-.2-.2-.6-.3-1-.3s-.7.1-1,.3c-.3.2-.5.5-.7.8s-.2.8-.2,1.2,0,.9.2,1.3c.2.4.4.6.7.9.3.2.6.3,1,.3s.5,0,.7-.1.4-.2.5-.4c.1-.2.2-.4.3-.6h1c0,.4-.2.7-.4,1-.2.3-.5.5-.9.7-.4.2-.8.3-1.2.3h0ZM271.1,201.3v3.8h-1v-8.5h1v3.1h0c.1-.3.4-.6.7-.8.3-.2.7-.3,1.2-.3s.8,0,1.1.3c.3.2.6.4.8.8.2.4.3.8.3,1.4v4h-1v-4c0-.5-.1-.9-.4-1.2s-.6-.4-1.1-.4-.6,0-.9.2-.5.3-.6.6c-.1.3-.2.6-.2.9h0ZM279.7,205.3c-.6,0-1.1-.1-1.6-.4-.4-.3-.8-.6-1-1.1-.2-.5-.4-1.1-.4-1.7s.1-1.2.4-1.7.6-.9,1-1.2.9-.4,1.5-.4.7,0,1,.2c.3.1.6.3.9.5s.5.6.6,1c.2.4.2.9.2,1.5v.4h-4.9v-.8h3.9c0-.4,0-.7-.2-1-.1-.3-.3-.5-.6-.7-.3-.2-.6-.2-.9-.2s-.7.1-1,.3-.5.4-.6.7c-.1.3-.2.6-.2,1v.6c0,.5,0,.9.2,1.2s.4.6.7.8c.3.2.6.3,1,.3s.5,0,.7-.1c.2,0,.4-.2.5-.3s.3-.3.4-.5l.9.3c-.1.3-.3.6-.5.8s-.5.4-.9.6-.7.2-1.2.2h0ZM284.7,196.7v2.9h-.9v-2.9h.9ZM290.3,207.5c-.2,0-.3,0-.4,0-.1,0-.2,0-.3,0l.2-.9c.2,0,.5,0,.6,0,.2,0,.3-.1.5-.2.1-.1.3-.4.4-.7l.2-.5-2.4-6.4h1.1l1.8,5.1h0l1.8-5.1h1.1l-2.7,7.3c-.1.3-.3.6-.5.8-.2.2-.4.4-.6.5-.2.1-.5.2-.8.2h0ZM297.8,205.3c-.4,0-.8,0-1.1-.2-.3-.1-.6-.4-.8-.7s-.3-.6-.3-1.1,0-.7.2-.9c.1-.2.3-.4.6-.5.2-.1.5-.2.8-.3.3,0,.6-.1.9-.2.4,0,.7,0,.9-.1.2,0,.4,0,.5-.1.1,0,.2-.2.2-.3h0c0-.4-.1-.8-.3-1-.2-.2-.6-.3-1-.3s-.8.1-1.1.3c-.3.2-.5.4-.6.6l-.9-.3c.2-.4.4-.7.7-.9.3-.2.6-.4.9-.5.3,0,.7-.1,1-.1s.4,0,.7,0c.3,0,.5.1.8.3.2.1.5.4.6.7.2.3.2.7.2,1.2v4.2h-1v-.9h0c0,.1-.2.3-.3.4-.1.2-.4.3-.6.4s-.6.2-.9.2h0ZM298,204.4c.4,0,.7,0,1-.2.3-.1.5-.4.6-.6.1-.2.2-.5.2-.8v-.9s-.1.1-.3.1c-.1,0-.3,0-.5.1-.2,0-.4,0-.5,0-.2,0-.3,0-.4,0-.2,0-.5,0-.7.2s-.4.2-.5.3c-.1.1-.2.3-.2.6s.1.6.4.8c.2.2.6.3,1,.3h0ZM306.8,201.3v3.8h-1v-6.4h.9v1h0c.1-.3.4-.6.7-.8s.7-.3,1.2-.3.8,0,1.1.3.6.4.8.8.3.8.3,1.3v4h-1v-4c0-.5-.1-.9-.4-1.2s-.6-.4-1.1-.4-.6,0-.8.2c-.2.1-.4.3-.6.6s-.2.6-.2.9h0ZM312.6,205.2v-6.4h1v6.4h-1ZM313.1,197.8c-.2,0-.4,0-.5-.2-.1-.1-.2-.3-.2-.5s0-.3.2-.5c.1-.1.3-.2.5-.2s.4,0,.5.2c.1.1.2.3.2.5s0,.3-.2.5c-.1.1-.3.2-.5.2ZM214.1,224.1v-8.7h.9v1h.1c0-.1.2-.2.3-.4s.3-.3.6-.5c.2-.1.6-.2,1-.2s1,.1,1.4.4.7.6,1,1.1c.2.5.3,1.1.3,1.7s-.1,1.3-.3,1.8-.6.9-.9,1.1c-.4.3-.9.4-1.4.4s-.7,0-1-.2c-.2-.1-.4-.3-.6-.5-.1-.2-.2-.3-.3-.4h0v3.4h-1ZM215.1,218.6c0,.5,0,.9.2,1.3.1.4.4.6.6.9.3.2.6.3,1,.3s.8-.1,1-.3c.3-.2.5-.5.6-.9s.2-.8.2-1.2,0-.9-.2-1.2c-.1-.4-.3-.6-.6-.9-.3-.2-.6-.3-1-.3s-.7.1-1,.3c-.3.2-.5.5-.6.8s-.2.8-.2,1.2h0ZM225.2,219.1v-3.8h1v6.4h-1v-1.1h0c-.1.3-.4.6-.7.8s-.7.3-1.2.3-.8,0-1.1-.3c-.3-.2-.6-.4-.7-.8-.2-.4-.3-.8-.3-1.3v-4h1v4c0,.5.1.8.4,1.1s.6.4,1,.4.5,0,.7-.2c.2-.1.5-.3.6-.6s.3-.6.3-1h0ZM230.7,221.9c-.6,0-1.1-.1-1.6-.4-.4-.3-.8-.6-1-1.1-.2-.5-.4-1.1-.4-1.7s.1-1.2.4-1.7.6-.9,1-1.2.9-.4,1.5-.4.7,0,1,.2c.3.1.6.3.9.5s.5.6.6,1c.2.4.2.9.2,1.5v.4h-4.9v-.8h3.9c0-.4,0-.7-.2-1-.1-.3-.3-.5-.6-.7-.3-.2-.6-.2-.9-.2s-.7.1-1,.3c-.3.2-.5.4-.6.7-.1.3-.2.6-.2,1v.6c0,.5,0,.9.2,1.2s.4.6.7.8c.3.2.6.3,1,.3s.5,0,.7-.1c.2,0,.4-.2.5-.3s.3-.3.4-.5l.9.3c-.1.3-.3.6-.5.8s-.5.4-.9.6c-.3.1-.7.2-1.2.2h0ZM237.2,221.9c-.5,0-1-.1-1.4-.4-.4-.3-.7-.6-1-1.1-.2-.5-.3-1.1-.3-1.8s.1-1.2.3-1.7.5-.9,1-1.1c.4-.3.9-.4,1.4-.4s.7,0,1,.2c.2.1.4.3.5.5.1.2.2.3.3.4h0v-3.1h1v8.5h-.9v-1h-.1c0,.1-.2.3-.3.4-.1.2-.3.3-.6.5s-.6.2-1,.2h0ZM237.3,221c.4,0,.7-.1,1-.3s.5-.5.6-.9c.1-.4.2-.8.2-1.3s0-.9-.2-1.2c-.1-.4-.3-.6-.6-.8-.3-.2-.6-.3-1-.3s-.8.1-1,.3c-.3.2-.5.5-.6.9-.1.4-.2.8-.2,1.2s0,.9.2,1.2c.1.4.4.7.6.9.3.2.6.3,1,.3h0ZM244.6,221.9c-.6,0-1.1-.1-1.5-.4-.4-.3-.8-.6-1-1.1-.2-.5-.4-1.1-.4-1.7s.1-1.2.4-1.7c.2-.5.6-.9,1-1.1.4-.3.9-.4,1.5-.4s1.1.1,1.5.4c.4.3.8.7,1,1.1.2.5.4,1.1.4,1.7s-.1,1.2-.4,1.7-.6.9-1,1.1c-.4.3-.9.4-1.5.4ZM244.6,221c.4,0,.8-.1,1.1-.3.3-.2.5-.5.6-.9.1-.4.2-.8.2-1.2s0-.8-.2-1.2c-.1-.4-.3-.7-.6-.9s-.6-.3-1.1-.3-.8.1-1.1.3c-.3.2-.5.5-.6.9-.1.4-.2.8-.2,1.2s0,.8.2,1.2c.1.4.3.7.6.9s.6.3,1.1.3ZM254.6,221.9c-.5,0-1-.1-1.4-.4-.4-.3-.7-.6-1-1.1-.2-.5-.3-1.1-.3-1.8s.1-1.2.3-1.7.5-.9,1-1.1c.4-.3.9-.4,1.4-.4s.7,0,1,.2c.2.1.4.3.5.5.1.2.2.3.3.4h0v-3.1h1v8.5h-.9v-1h-.1c0,.1-.2.3-.3.4-.1.2-.3.3-.6.5s-.6.2-1,.2h0ZM254.8,221c.4,0,.7-.1,1-.3s.5-.5.6-.9c.1-.4.2-.8.2-1.3s0-.9-.2-1.2c-.1-.4-.3-.6-.6-.8-.3-.2-.6-.3-1-.3s-.8.1-1,.3c-.3.2-.5.5-.6.9-.1.4-.2.8-.2,1.2s0,.9.2,1.2c.1.4.4.7.6.9.3.2.6.3,1,.3h0ZM262.1,221.9c-.6,0-1.1-.1-1.5-.4-.4-.3-.8-.6-1-1.1-.2-.5-.4-1.1-.4-1.7s.1-1.2.4-1.7c.2-.5.6-.9,1-1.1.4-.3.9-.4,1.5-.4s1.1.1,1.5.4c.4.3.8.7,1,1.1.2.5.4,1.1.4,1.7s-.1,1.2-.4,1.7-.6.9-1,1.1c-.4.3-.9.4-1.5.4ZM262.1,221c.4,0,.8-.1,1.1-.3.3-.2.5-.5.6-.9.1-.4.2-.8.2-1.2s0-.8-.2-1.2c-.1-.4-.3-.7-.6-.9s-.6-.3-1.1-.3-.8.1-1.1.3c-.3.2-.5.5-.6.9-.1.4-.2.8-.2,1.2s0,.8.2,1.2c.1.4.3.7.6.9s.6.3,1.1.3ZM266.4,221.7v-6.4h.9v1h0c.1-.3.3-.6.6-.8.3-.2.6-.3,1-.3h.3c.1,0,.2,0,.2,0v1s-.1,0-.2,0c-.1,0-.2,0-.4,0-.3,0-.6,0-.8.2-.2.1-.4.3-.6.5-.1.2-.2.5-.2.8v4h-1,0ZM270.8,221.7v-6.4h.9v1h0c.1-.3.4-.6.6-.8.3-.2.6-.3,1.1-.3s.8,0,1,.3c.3.2.5.5.7.8h0c.2-.3.4-.6.7-.8.3-.2.7-.3,1.2-.3s1,.2,1.4.5c.4.4.5.9.5,1.6v4.2h-1v-4.2c0-.5-.1-.8-.4-1-.3-.2-.6-.3-.9-.3s-.8.1-1,.4-.4.6-.4,1v4.1h-1v-4.4c0-.4-.1-.6-.4-.9s-.5-.3-.9-.3-.5,0-.7.2-.4.3-.5.6c-.1.2-.2.5-.2.8v4h-1,0ZM280.9,221.7v-6.4h1v6.4h-1ZM281.4,214.3c-.2,0-.4,0-.5-.2-.1-.1-.2-.3-.2-.5s0-.3.2-.5c.1-.1.3-.2.5-.2s.4,0,.5.2c.1.1.2.3.2.5s0,.3-.2.5c-.1.1-.3.2-.5.2ZM283.7,221.7v-6.4h.9v1h0c.1-.3.3-.6.6-.8.3-.2.6-.3,1-.3h.3c.1,0,.2,0,.2,0v1s-.1,0-.2,0c-.1,0-.2,0-.4,0-.3,0-.6,0-.8.2-.2.1-.4.3-.6.5-.1.2-.2.5-.2.8v4h-1,0ZM214.3,238.3v-8.5h1v7.6h3.9v.9h-5ZM223.3,238.4c-.6,0-1.1-.1-1.5-.4s-.8-.6-1-1.1c-.2-.5-.4-1.1-.4-1.7s.1-1.2.4-1.7c.2-.5.6-.9,1-1.1s.9-.4,1.5-.4,1.1.1,1.5.4.8.7,1,1.1c.2.5.4,1.1.4,1.7s-.1,1.2-.4,1.7-.6.9-1,1.1c-.4.3-.9.4-1.5.4ZM223.3,237.5c.4,0,.8-.1,1.1-.3.3-.2.5-.5.6-.9.1-.4.2-.8.2-1.2s0-.8-.2-1.2c-.1-.4-.3-.7-.6-.9s-.6-.3-1.1-.3-.8.1-1.1.3c-.3.2-.5.5-.6.9-.1.4-.2.8-.2,1.2s0,.8.2,1.2c.1.4.3.7.6.9s.6.3,1.1.3ZM235.3,240.7v-3.4h0c0,.1-.2.3-.3.4-.1.2-.3.3-.6.5s-.6.2-1,.2-1-.1-1.4-.4c-.4-.3-.7-.6-1-1.1-.2-.5-.3-1.1-.3-1.8s.1-1.2.3-1.7.5-.9,1-1.1c.4-.3.9-.4,1.4-.4s.7,0,1,.2c.2.1.4.3.5.5.1.2.2.3.3.4h.1v-1h.9v8.7h-1,0ZM233.4,237.5c.4,0,.7-.1,1-.3s.5-.5.6-.9c.1-.4.2-.8.2-1.3s0-.9-.2-1.2c-.1-.4-.3-.6-.6-.8-.3-.2-.6-.3-1-.3s-.8.1-1,.3c-.3.2-.5.5-.6.9-.1.4-.2.8-.2,1.2s0,.9.2,1.2c.1.4.4.7.6.9.3.2.6.3,1,.3h0ZM242,235.7v-3.8h1v6.4h-1v-1.1h0c-.1.3-.4.6-.7.8-.3.2-.7.3-1.2.3s-.8,0-1.1-.3c-.3-.2-.5-.4-.7-.8-.2-.4-.3-.8-.3-1.3v-4h1v4c0,.5.1.8.4,1.1s.6.4,1,.4.5,0,.7-.2c.2-.1.5-.3.6-.6s.3-.6.3-1h0ZM247.4,238.4c-.6,0-1.1-.1-1.6-.4-.4-.3-.8-.6-1-1.1-.2-.5-.4-1.1-.4-1.7s.1-1.2.4-1.7.6-.9,1-1.2.9-.4,1.5-.4.7,0,1,.2c.3.1.6.3.9.5.3.2.5.6.6,1,.2.4.2.9.2,1.5v.4h-4.9v-.8h3.9c0-.4,0-.7-.2-1-.1-.3-.3-.5-.6-.7-.3-.2-.6-.2-.9-.2s-.7.1-1,.3-.5.4-.6.7c-.1.3-.2.6-.2,1v.6c0,.5,0,.9.2,1.2s.4.6.7.8c.3.2.6.3,1,.3s.5,0,.7-.1c.2,0,.4-.2.5-.3s.3-.3.4-.5l.9.3c-.1.3-.3.6-.5.8s-.5.4-.9.6c-.3.1-.7.2-1.2.2h0ZM255.8,234.5v3.8h-1v-8.5h1v3.1h0c.1-.3.4-.6.7-.8.3-.2.7-.3,1.2-.3s.8,0,1.1.3c.3.2.6.4.8.8.2.4.3.8.3,1.4v4h-1v-4c0-.5-.1-.9-.4-1.2s-.6-.4-1.1-.4-.6,0-.9.2-.5.3-.6.6c-.1.3-.2.6-.2.9h0ZM263.6,238.4c-.4,0-.8,0-1.1-.2-.3-.1-.6-.4-.8-.7s-.3-.6-.3-1.1,0-.7.2-.9c.1-.2.3-.4.6-.5.2-.1.5-.2.8-.3.3,0,.6-.1.9-.2.4,0,.7,0,.9-.1.2,0,.4,0,.5-.1.1,0,.2-.2.2-.3h0c0-.4-.1-.8-.3-1-.2-.2-.6-.3-1-.3s-.8.1-1.1.3c-.3.2-.5.4-.6.6l-.9-.3c.2-.4.4-.7.7-.9.3-.2.6-.4.9-.5.3,0,.7-.1,1-.1s.4,0,.7,0c.3,0,.5.1.8.3.2.1.5.4.6.7.2.3.2.7.2,1.2v4.2h-1v-.9h0c0,.1-.2.3-.3.4-.1.2-.4.3-.6.4s-.6.2-.9.2h0ZM263.7,237.6c.4,0,.7,0,1-.2.3-.1.5-.4.6-.6.1-.2.2-.5.2-.8v-.9s-.1.1-.3.1c-.1,0-.3,0-.5.1-.2,0-.4,0-.5,0-.2,0-.3,0-.4,0-.2,0-.5,0-.7.2s-.4.2-.5.3c-.1.1-.2.3-.2.6s.1.6.4.8c.2.2.6.3,1,.3h0ZM270.8,240.8c-.5,0-.9,0-1.2-.2s-.6-.3-.9-.5c-.2-.2-.4-.4-.5-.6l.8-.5c0,.1.2.2.3.4.1.1.3.3.5.4.2.1.5.2.9.2s.9-.1,1.3-.4.5-.6.5-1.2v-1.3h0c0,.1-.2.3-.3.4-.1.2-.3.3-.6.5s-.6.2-1,.2-1-.1-1.4-.4-.7-.6-1-1.1c-.2-.5-.4-1-.4-1.7s.1-1.2.3-1.7c.2-.5.5-.9,1-1.1.4-.3.9-.4,1.4-.4s.7,0,1,.2c.2.1.4.3.6.5.1.2.2.3.3.4h.1v-1h.9v6.5c0,.5-.1,1-.4,1.3-.2.4-.6.6-1,.8s-.9.2-1.4.2h0ZM270.8,237.3c.4,0,.7,0,1-.3s.5-.4.6-.8c.1-.3.2-.7.2-1.2s0-.9-.2-1.2c-.1-.4-.3-.6-.6-.8s-.6-.3-1-.3-.8.1-1,.3-.5.5-.6.8c-.1.4-.2.7-.2,1.2s0,.8.2,1.2c.1.3.4.6.6.8.3.2.6.3,1,.3h0ZM278,238.4c-.6,0-1.1-.1-1.5-.4-.4-.3-.8-.6-1-1.1-.2-.5-.4-1.1-.4-1.7s.1-1.2.4-1.7c.2-.5.6-.9,1-1.1.4-.3.9-.4,1.5-.4s1.1.1,1.5.4c.4.3.8.7,1,1.1.2.5.4,1.1.4,1.7s-.1,1.2-.4,1.7-.6.9-1,1.1c-.4.3-.9.4-1.5.4ZM278,237.5c.4,0,.8-.1,1.1-.3.3-.2.5-.5.6-.9.1-.4.2-.8.2-1.2s0-.8-.2-1.2-.3-.7-.6-.9-.6-.3-1.1-.3-.8.1-1.1.3c-.3.2-.5.5-.6.9-.1.4-.2.8-.2,1.2s0,.8.2,1.2c.1.4.3.7.6.9s.6.3,1.1.3ZM288.3,238.4c-.6,0-1.1-.1-1.6-.4-.4-.3-.8-.6-1-1.1-.2-.5-.4-1.1-.4-1.7s.1-1.2.4-1.7.6-.9,1-1.2.9-.4,1.5-.4.7,0,1,.2c.3.1.6.3.9.5.3.2.5.6.6,1,.2.4.2.9.2,1.5v.4h-4.9v-.8h3.9c0-.4,0-.7-.2-1-.1-.3-.3-.5-.6-.7-.3-.2-.6-.2-.9-.2s-.7.1-1,.3c-.3.2-.5.4-.6.7-.1.3-.2.6-.2,1v.6c0,.5,0,.9.2,1.2s.4.6.7.8c.3.2.6.3,1,.3s.5,0,.7-.1c.2,0,.4-.2.5-.3s.3-.3.4-.5l.9.3c-.1.3-.3.6-.5.8s-.5.4-.9.6c-.3.1-.7.2-1.2.2h0ZM296.9,233.4l-.9.2c0-.1-.1-.3-.2-.4-.1-.1-.2-.3-.4-.4s-.4-.1-.7-.1-.7,0-1,.3-.4.4-.4.7,0,.4.3.6.5.3.8.4l.9.2c.6.1,1,.4,1.3.6s.4.6.4,1.1-.1.7-.3,1-.5.5-.9.7c-.4.2-.8.2-1.3.2s-1.2-.1-1.6-.4c-.4-.3-.7-.7-.8-1.2l.9-.2c0,.3.2.6.5.8.2.2.6.3,1,.3s.8-.1,1.1-.3c.3-.2.4-.4.4-.7s0-.4-.2-.5c-.1-.1-.4-.3-.7-.3l-1.1-.2c-.6-.1-1-.4-1.3-.6s-.4-.7-.4-1.1.1-.7.3-1c.2-.3.5-.5.8-.6.4-.2.8-.2,1.2-.2s1.1.1,1.5.4c.4.3.6.6.8,1.1h0ZM218.6,249.9l-.9.2c0-.1-.1-.3-.2-.4-.1-.1-.2-.3-.4-.4s-.4-.1-.7-.1-.7,0-1,.3-.4.4-.4.7,0,.4.3.6c.2.1.4.3.8.4l.9.2c.6.1,1,.4,1.3.6s.4.6.4,1.1-.1.7-.3,1c-.2.3-.5.5-.9.7-.4.2-.8.2-1.3.2s-1.2-.1-1.6-.4c-.4-.3-.7-.7-.8-1.2l.9-.2c0,.3.3.6.5.8.2.2.6.3,1,.3s.8-.1,1.1-.3c.3-.2.4-.4.4-.7s0-.4-.2-.5c-.1-.1-.4-.3-.7-.3l-1.1-.2c-.6-.1-1-.4-1.3-.6s-.4-.7-.4-1.1.1-.7.3-1c.2-.3.5-.5.8-.6s.8-.2,1.2-.2,1.1.1,1.5.4c.4.3.6.6.8,1.1h0ZM222.8,255c-.6,0-1.1-.1-1.5-.4s-.8-.6-1-1.1c-.2-.5-.4-1.1-.4-1.7s.1-1.2.4-1.7c.2-.5.6-.9,1-1.1s.9-.4,1.5-.4,1.1.1,1.5.4.8.7,1,1.1c.2.5.4,1.1.4,1.7s-.1,1.2-.4,1.7-.6.9-1,1.1c-.4.3-.9.4-1.5.4ZM222.8,254.1c.4,0,.8-.1,1.1-.3.3-.2.5-.5.6-.9.1-.4.2-.8.2-1.2s0-.8-.2-1.2c-.1-.4-.3-.7-.6-.9s-.6-.3-1.1-.3-.8.1-1.1.3c-.3.2-.5.5-.6.9-.1.4-.2.8-.2,1.2s0,.8.2,1.2c.1.4.3.7.6.9s.6.3,1.1.3ZM228.1,251v3.8h-1v-6.4h.9v1h0c.1-.3.4-.6.7-.8.3-.2.7-.3,1.2-.3s.8,0,1.1.3.6.4.8.8.3.8.3,1.3v4h-1v-4c0-.5-.1-.9-.4-1.2s-.6-.4-1.1-.4-.6,0-.8.2c-.2.1-.4.3-.6.6-.1.3-.2.6-.2.9h0ZM228.4,247.8h-.8c0-.5.1-.8.4-1.1.2-.3.5-.4.9-.4s.3,0,.4,0,.2.1.4.2c.1,0,.2.1.3.2.1,0,.2,0,.4,0s.3,0,.4-.2.2-.3.2-.5h.7c0,.5-.1.8-.4,1.1-.2.2-.5.4-.9.4s-.4,0-.5,0c-.1,0-.2-.1-.3-.2-.1,0-.2-.1-.3-.2-.1,0-.2,0-.4,0s-.3,0-.4.2c-.1.1-.1.3-.1.4h0ZM235.9,255c-.4,0-.8,0-1.1-.2-.3-.1-.6-.4-.8-.7s-.3-.6-.3-1.1,0-.7.2-.9c.1-.2.3-.4.6-.5.2-.1.5-.2.8-.3.3,0,.6-.1.9-.2.4,0,.7,0,.9-.1.2,0,.4,0,.5-.1.1,0,.2-.2.2-.3h0c0-.4-.1-.8-.3-1-.2-.2-.6-.3-1-.3s-.8.1-1.1.3c-.3.2-.5.4-.6.6l-.9-.3c.2-.4.4-.7.7-.9.3-.2.6-.4.9-.5.3,0,.7-.1,1-.1s.4,0,.7,0c.3,0,.5.1.8.3.2.1.5.4.6.7.2.3.2.7.2,1.2v4.2h-1v-.9h0c0,.1-.2.3-.3.4-.1.2-.4.3-.6.4s-.6.2-.9.2h0ZM236,254.1c.4,0,.7,0,1-.2.3-.1.5-.4.6-.6.1-.2.2-.5.2-.8v-.9s-.1.1-.3.1c-.1,0-.3,0-.5.1-.2,0-.4,0-.5,0-.2,0-.3,0-.4,0-.2,0-.5,0-.7.2s-.4.2-.5.3c-.1.1-.2.3-.2.6s.1.6.4.8c.2.2.6.3,1,.3h0ZM240.6,254.9v-6.4h.9v1h0c.1-.3.3-.6.6-.8.3-.2.6-.3,1-.3h.3c.1,0,.2,0,.2,0v1s-.1,0-.2,0c-.1,0-.2,0-.4,0-.3,0-.6,0-.8.2-.2.1-.4.3-.6.5-.1.2-.2.5-.2.8v4h-1,0ZM248,248.5v.8h-3.3v-.8h3.3ZM245.7,247h1v6.1c0,.3,0,.5.1.6,0,.1.2.2.3.3.1,0,.3,0,.4,0s.2,0,.3,0c0,0,.1,0,.2,0l.2.9c0,0-.2,0-.3,0-.1,0-.3,0-.5,0-.3,0-.5,0-.8-.2s-.5-.3-.6-.5c-.2-.2-.3-.5-.3-.9v-6.3ZM252.1,255c-.6,0-1.1-.1-1.6-.4-.4-.3-.8-.6-1-1.1-.2-.5-.4-1.1-.4-1.7s.1-1.2.4-1.7.6-.9,1-1.2.9-.4,1.5-.4.7,0,1,.2c.3.1.6.3.9.5s.5.6.6,1c.2.4.2.9.2,1.5v.4h-4.9v-.8h3.9c0-.4,0-.7-.2-1-.1-.3-.3-.5-.6-.7-.3-.2-.6-.2-.9-.2s-.7.1-1,.3-.5.4-.6.7c-.1.3-.2.6-.2,1v.6c0,.5,0,.9.2,1.2s.4.6.7.8c.3.2.6.3,1,.3s.5,0,.7-.1c.2,0,.4-.2.5-.3s.3-.3.4-.5l.9.3c-.1.3-.3.6-.5.8s-.5.4-.9.6-.7.2-1.2.2h0Z"/>
  </g>
  <g>
    <path class="st0" d="M189.9,431.5c-6.2-1.7-11-4.5-15.7-8.5-2.4-2-4.8-3.8-7-6.2-3.4-3.7-7-7.2-10.9-10.4l-6.1-3.9-8.3-4.5c-4-2.1-7.2-4.8-10.3-8l-5.1-5.2c-1.4-1.5-3.4-3-5.5-3.5-4.9-1.1-9.7-.9-14.6-.5-2.6.2-5.1.1-7.6-.3-3.6-.6-5.9-2.5-8-5.5l-2.7-2.8-1.8-2.6c1.7-4.8,5.3-8.6,9.7-11.1,4.7-2.7,8.2-6,11.2-10.4,4.8-6.8,9.9-13.2,16.3-18.6,2.7-2.3,5.6-3.9,8-6.5,4.1-4.4,7.4-9.1,11.3-13.8,6.3-7.6,16.1-11.6,25.9-11,8.8-4.5,18.7-4.8,26.7,1.2l12.1,9.2c3.2-1.9,5.9-4.2,8.3-7,2.8-3.2,5.8-5.6,9.3-8,3-2,5.7-4,9-5.3,3.7-1.4,7.7-1.8,11.5-.3,4.9,1.9,9.8,4.1,14,7.3,7.9,6,13.6,13.9,18.9,22,1.9,2.9,3.8,5.3,5.3,8.4,1.7,3.3,4.1,6.2,5.9,9.4l8.5,15.6c2.9,1.5,5.3,3.5,7.1,6.3l4.9,7.7,5.3,8,2,1.5,5.3,4.3c1.5,1.2,2,3,.9,4.5,0,1.3-.2,2.5-.8,3.8l-8.2,11.6c-5.4,7.6-18,18.7-26.6,22.9-3,5-6.1,9.7-10.1,13.9-6.2,6.3-14.3,9.9-23.3,9.8l-15.9-1.2-7.1-.5c-3.2-.2-6.1-1-9.2-1.9-2.8-.8-5.4-1.5-7.9-2.9-5.5-.3-10.7-1.1-15.8-3-3.1-1.1-5.9-3.2-9.2-4.1h0ZM268.7,324.1c1.9,1.7,3.7,2.8,5.4,4.5l5.3,5.7c5.2,5.5,10.1,11,16.8,15.2l-6-11.4c-2.3-3.8-4.7-7.4-7-11.1l-5.6-8.8c-5.1-8.1-11-15.6-18.7-21.5-3.6-2.8-7.8-4.6-11.9-6.6-8.5-4-15.5,0-22.6,5.2-6.5,3.8-9.5,10-16,13.9,9.8,1.4,15.2-4.3,21.3-6,2.3-.6,5.5-.6,7.8.3,3,1.2,5.3,3.2,8.1,4.6,8.6,4.2,15.9,9.8,23.1,16.1h0ZM205.5,309.1l-5.7-4.4c-3.1-2.4-6.1-4.7-9.5-6.7-6.4-2.9-13.4-2-19.9.5,4.6,1.1,8.2,2.7,11.6,5.5,7.1,5.2,14.9,8.3,23.6,5.1ZM236.3,306.5l6.8,1.1c-7.5-5.8-12.6-5-20.9-.3,4.8-.6,9.3-1.7,14.1-.9h0ZM222,350.3c2.5,1.4,5.1,2.1,8,1.1l10.7-8.2c-1,1.4-2,2.6-3.2,3.5l-5.9,4.7c3.2-.5,6.3-1,9.3,1,3.4-1.1,6.8-.9,10.3-.1l6.7,3.4c2.7-2.3,5.1-4.7,8.4-6.3l-7.7,6.7c3.8,3,8.4-.7,12.2-3.4l3.5-2.5c-2.9,3.5-7,6.7-12.1,7.8l6.3,2.7c3.4,1.5,6.4,3.2,9.4,5.5l7.5,5.8c4.6.3,8.4,1.7,12.6,3.2,7.7,2.9,15.6,4.4,23.8,6.3-2.5-1.8-4.5-3.3-5.7-6.1s-4.8-3.2-9.3-9.8l-9.2-13.6c-3.1-1.8-5.8-3.9-8.5-6.2l-12-11.8-5.2-5.5-6.7-5.4-11-7.7c-9.2-6.5-14.5-8.8-26.5-7.4-3.7.4-7.4.9-10.9,2-3.3,1.1-6.4,1.8-9.6,0-4.2,2-8.9,2.2-13.4,1.4-5.1-1.2-9.4-3.7-13.5-6.8-3.5-2.7-7.7-4.4-12-4.8-4.3,3.1-8.5,3.4-12.1,7l-5.6,5.5c-7.8,7.8-14.8,16-21.6,24.7l-8.3,10.8c-3.7,4.7-8.3,8.8-13.4,11.9l-11.2,7-5.5,3.8,6.3.9c2.6.4,5,1.6,7.2,2.9l15.1-3.2c3.6-.8,7.5-.3,11-1.6,4.1-1.4,7.6-3.8,11.3-6.1,5.6-3.4,11-6.7,16.9-9.6,3.9-2,8-3.3,12.4-3.6,3.7-.3,7-1.1,10.4-2.8-5.3-3.3-10.1-7-10.7-13.8,1.7,4.7,4.2,8.3,8.3,11.1l3.6,2.5c5.5-2.8,12-.9,17.4,2.1,3.5,1.9,7,2.6,11,2.7l7.4.3h5.6s-2-1.7-2-1.7v-.4c-1.1,1.5-2.9,2-4.7,1.2-1.2-.5-2.3-1.2-3.4-2.1-1.1,1.2-2.8,1.8-4.6,1.9-1.8.1-3.5-.4-4-2.3l-1.4-5.1-1.2-6.3c1,1.7,1.4,3.5,1.9,5.4l1.6,6c.5,1.9,4.1,1.7,7.1.3-.1-5.5-.2-10.6.5-15.9v5.7c.1,0,0,9.2,0,9.2,1.1,1.3,3.1,2.2,5,2.6,1.1.2,2.6-.6,2.9-1.7l3.6-13.9c.2,1.4,0,2.8-.4,4.3l-2.6,10.5v.2c0,0,0,0,0,0ZM95.3,365.6l10.8-6.4c7.3-4.3,12.5-10.5,17.7-17.1l10.7-13.7c4.2-5.3,8.7-10.2,13.4-15l5.9-5.9c1.6-1.6,3.4-3.4,5.4-4.4,2.4-1.2,4.7-1.9,6.9-3.5-8.9.2-17.2,4.1-22.7,10.9-3.9,4.8-7.4,9.6-11.7,14.1-2.3,2.4-5.1,4-7.6,6.1-6.3,5.3-11.4,11.6-16.2,18.4-3,4.3-6.6,7.6-11,10.3-4.3,2.7-7.7,6.2-10,10.7,1,.2,1.9,0,2.5-.6,1.8-1.6,3.7-2.6,5.9-3.8h0ZM312.1,369.6l-6.2-9.5c-1.5-2.3-2.7-4.7-5.3-6.2l6.4,9.8c1.5,2.2,2.6,4.6,5.1,5.9h0ZM202.1,351.5l-7.4-3.3c-3.7-1.7-7.8-1.9-11.6-.4,4.2,2.4,8.7,3.5,13.4,3.8h5.5ZM278.9,368.1c-3.9-3.5-8.1-5.9-13-7.4-1.7-.5-3.5-2.1-5.2-2.3l-5.4-.8,1.9-1.7-3.1-1.5c-3.5-1.8-7.4-2.8-11.5-1.5l13,5.2c1.9.8,3.7,1.7,5.4,2.9,3.6,2.5,7.3,4.2,11.5,5.6l2.9,2.4,7,2.1-3.4-3h0ZM227.4,354l11-1c-4.1-.6-8-.2-12.1.2l-3.6.3,4.8.6h0ZM232.1,369.5l19.7-.8c1.9,0,4.1-.6,5.3-1.9,1.6-1.7,1.4-4.3.6-6.2l-9.8-3.8-6.9-3.2-12.5,1.3-5.6-.5-8-.8.5,11c.1,2.2,2.1,3.9,4.3,4.2,4,.7,8,.8,12.4.6h0ZM197.8,369.5c4.4.2,8.5-.2,12.6-.9,6-1.5,3.3-8.6,2.4-15-6.6-.7-12.6-1-19.2-1.2-1.8,0-3.8-1.2-5.6-1.4l-8.9-.8c-1.1-.1-2.5.5-3.4,1.2l-5.6,4.8v8.3c.2,1,1.1,2.7,2.1,3,4.1.9,7.9,1.2,12.1,1.4l13.4.7h0ZM174.8,350.9l-1.3.2-4,3.7c2.2-.7,3.3-2.1,5.3-3.8h0ZM140.9,367.2l11.4-5.1c4.6-2,9-4,13.4-6.3,2.6-1.3,4.9-2.6,6.8-4.9-10.9.5-21.1,7.9-30.6,13.4l-7.9,4.7c2.2,0,4.5-.7,6.9-1.8h0ZM169.1,355.6c.3-.7,0-.8-.5-.3l-6.5,3.1v.5c0,0,6.9-3.3,6.9-3.3h0ZM168.9,362.6c.9-1.7.6-4,.4-5.8l-13.7,5.4-9.1,4c7.8.4,18.6,3.2,22.4-3.5h0ZM291.8,376.3l-6.3-3-7.3-2.3c-5.8-1.8-11.8-1.4-17.6-.8l12.1,1.8c3.4.5,6.4,1.3,9.5,2.8,2.9,1.4,6.3,1.5,9.6,1.6h0ZM187.8,371c-2.5-.7-5.2-.2-7.6,0l-9.5.3c-3.6.1-7.1,1.1-10.5,2-3.8,1-7.4,1.3-11.4,1.4l-7.8.3c-4.2.2-7.5,3.5-14,2.5l-6.8-1c-2.4-.3-7.1,2-11.1,1.7-2-.2-3.8-1.6-5.5-2.6-3.7,1.1-7.2.8-11.2-.4,2.4,4.6,8.8,4.9,14,4.4,4.5-.5,8.8-.5,13.3.2,4.8.7,9,5.3,12.4,9.1,3.4,3.8,7.2,6.7,11.9,9,1.8.9,3.6,2.5,5.6,3l9.6,2.7c2.5.7,4.6,2.4,6.8,3.7,5.5,3.2,9.9,7.2,14.3,11.8,5.1,5.3,11.9,8.5,18.8,11.1l7.7,3,8.1,4.2c12.1.4,31.2.7,41.7-3.8l16.6-7.2,14.4-6c4.8-7.8,9.6-15.1,15.3-22.2,3.2-4.1,7.6-6.7,12.5-8.2,3.5-1,6.7-3.2,8-7-2.2,0-4.2,0-6.2-.6l-16.2-4.3c-4.9-1.3-13.3.1-20.4-3.3-2.6-1.2-5.2-1.6-8-2.1-6-1-11.8-1.9-18-1.4-7.5.7-12.9,4.3-20.6,4.6-1.1,0-2.6-.7-3.5-.8l-12-1.7-11.3-2.1c-6.3-1.2-12.5-2.1-18.8-1.5,6,1.7,11.6,2.6,17.2,4.5,4,1.4,7.7,2.4,11.9,3,2.3.3,4.5,1.5,6.8,2,3.8-1.1,7.7-2.4,11.7-2.7,9.3-.6,19.4,15.3,19.7,25.2-1.7-5.3-3.1-10.5-6.4-15.1-2-3-4.6-5.7-7.6-7.6-2.9-1.8-5.7-1.8-8.8-1l-6.8,1.6c2.9,1.5,5.6,4.1,7.2,7.2l-3.6-3.6c-1.5-1.5-3.2-2.6-5.2-3.2-.4,8.8,5.3,16.7,5.7,25.4l-4.6-14.6c-1.2-3.7-2.1-7.3-2-10.9l-6.7-1.8c-3.8-.6-7.1-1.4-10.7-2.7-4.3-1.5-8.7-2.5-13.1-3.5v1.2c0,.2-.4.5-.6.6-5.2,3.6-8.6,8.7-9.9,15.1-.7-5.7,4.4-12,9.1-15.8-3.5.4-6.5,2-8.8,4.4-3.3,3.4-5.8,7.3-8.3,11.4-1.6,2.6-2.4,5.4-2.8,8.4-.4-3.4,1-6.5,2.7-9.3,2.1-3.6,4.4-7,7-10.2,2.8-3.4,6.3-5,10.9-5.7l-4.4-1.3h0ZM321.1,378.7l-3.7-3c1.4,2.8,3.6,4.2,6.2,5.8-.3-1.6-1.5-2-2.5-2.8h0ZM171.3,370.3c4.2-.2,8.3-.2,12.3-.7-7.2-.5-14.4-.6-21.2,1.2l-10,2.6c6.4-.3,12-2.8,18.9-3.1ZM241.9,373.4l-7.8,1.5c2.9.4,5.3-.4,7.8-1.5ZM126.8,371.3l-7.2.7c-4.9.5-9.5,1.8-14.2,3,5.3,4.5,15.6-.3,21.4-3.7h0ZM102.1,374.8c-3.7-2.5-8.9-2.7-13.3-3,3.1,3,9.3,3.7,13.3,3ZM128.3,377l4.9-.9c-4.1-.6-7.6-.6-11.5-.4l6.6,1.2ZM298.4,413.4c4.8-3.7,9.3-7.4,12.9-12.1l9.9-12.8-5.9,2.9c-4.9,1.4-9,4.3-12,8.3-4.7,6.2-9.1,12.3-13.1,19.3,3.2-1.4,5.5-3.5,8.3-5.6h0ZM212.3,437.1c-4.9-3.3-10.3-5-15.9-7-5.9-2-11.3-5.5-15.8-9.7-3-2.8-5.5-5.8-8.9-8.2-3.5-2.6-7.1-5-10.9-7-2.6-1.4-5.6-1.9-8.6-2.5,3.1,1.9,5.8,3.6,8.3,6.2l9.5,9.7c1.6,1.7,3.9,2.8,5.6,4.4,4.3,3.9,9.1,6,14.6,7.4,3.4.8,6.5,3.1,9.8,4.3,4,1.4,8,2.2,12.4,2.7h0ZM218.1,439c4.1,1,7.7,2.7,11.5,3l22.2,1.8c10.2.8,19.6-2.8,26.4-10.4,3-3.4,5.5-6.9,7.9-10.9l-12.6,5.1-12.2,5.4c-9,4-18.2,5.3-27.9,5.5l-15.2.4h0Z"/>
    <path class="st0" d="M221.5,400c-1.3-4.8-2.8-9.5-4.7-14.2-1.2-3-2.7-5.3-5.2-7.7,2.9,1,4.1,3.7,5.4,6.2,1.9,5.1,4.2,9.9,4.6,15.8h0Z"/>
    <path class="st0" d="M146.7,378.9c-1,1.6-5.7,5.6-8.3,6.4l7.3-6.6c.2,0,1.1,0,1,.2h0Z"/>
    <path class="st0" d="M159.7,394.8l.6-4.2.6-3.4c.3-1.9,1-3.7,2.3-5-2.1,4.5-1.6,8.8-3.4,12.6Z"/>
    <path class="st0" d="M143.3,378.6l-6.7,3.7c1.4-1.7,3.7-3,5.4-4,.2-.1.9,0,1.3.3Z"/>
  </g>
</svg>