<?xml version="1.0" encoding="UTF-8"?>
<svg id="Layer_1" data-name="Layer 1" xmlns="http://www.w3.org/2000/svg" viewBox="0 0 471.92 768">
  <defs>
    <style>
      .cls-1 {
        fill: #fff;
      }
    </style>
  </defs>
  <g>
    <path class="cls-1" d="M260.54,693c-.61,2.2-7.96-.52-12.98-.42-8.02,1.24-15.63,2.9-23.98,2.92.68,1.05,1.01,2.87.14,3.35-6.6-4.35-5.51-26.02-6.64-36.09l-4.08-36.39c-2.48-22.12-.3-43.92.99-66.18l6.45-110.7.76-26.86c-31.76,4.72-64.68,9.28-96.61,4.34-7.42-1.15-14.47-2.53-21.92-3.19l-17.44-.27c-3.67-.06-7.19-.92-10.29-2.28l9.53-1.28c-.58-6.38.27-11.89.22-18.14l-.14-15-7.38-1.15c29.26-2.59,58.29-2.08,87.83-.26l54.23,3.34c-2.98-33.6-3.73-66.52-1.49-99.89.63-9.42.97-18.04.2-27.54.18-.7,1.01-1.05,1.31-.36.84,8.01.92,15.28.83,23.14l-.6,6.34c-.97,10.17-1.05,19.83-1.11,30.14-.12,23.11.26,45.77,3.16,68.92,2.54-5.34.45-10.28,1.32-15.36l.59-18.13.84-4.4c1.95-17.98,2.02-35.7,1.02-53.75l-.39-6.9c-.28-5.09-.22-10.01.09-14.84l.67,10.58.54,8.94.73,14.33c.66,12.85-.07,25.17-1.17,37.97l-1.54,17.99-.38,5.3-.48,17.78c9.36.58,18.31.66,27.91.02.55-9.39.77-18.37.44-27.85l-1.03-29.03-2.32-22.45-1.74,13.51c-.26-2.17-.1-4.46.21-6.88,1.06-8.47.74-16.44-.5-24.83-1.35-9.2-1.94-18.2-1.87-27.52l-11.92-.23-8.21-.66-.12,5.95-.41.28-.27-5.74-2.13-.98,2.2-.3.11-4.88.44-.3.13,5.43,7.89.42,12.25.16,1.16-5.05c1.38,1.84,1.1,3.17,1,4.84l6.82.27-6.82.63c.08,2.85.07,6.04.64,8.87,2.04,10.03,1.46,19.7,1.94,29.89.36,7.64,1.66,15.04,2.43,22.41l2.13-42.49,2.54-22.38.29-1.09c.08-.29.92-.08,1.29.08-.28,9.16-.04,18.21.63,27.63,1.49,20.95,2.64,41.39,1.36,62.33l-2.36,38.59c6.14-1.68,11.67-3.05,17.88-4.02,26-4.07,52.06-5.35,78.4-3.61l43.87,4.13c-1.75,2.06-4.11,1.48-6.35,1.54l-28.02.67c-10.39.25-20.29.23-30.66,1.22l-29.09,2.8-46.34,4.1,1.24,23.89,65.06-6.12,38.96-4.86c10.58-1.32,20.53-3.89,30.85-6.67l.26-14.44,1.48,13.44,3.18.2-2.95,1.85-.48,20.19c2.11.21,4.8-.04,7.14,1.77-4.94.76-9.05.02-13.83-.85-26.73-4.86-53.66-7.84-80.93-6.32l-45.64,3.64c28.8,5.47,55.44,8.51,84.3,7.02l36.6-1.89,13.31-.53-16.82,1.67-33.07,2.27c-30.21,1.97-57.67-1.88-87.2-7.87l3.14,42.8c1.47,20.09,2.14,39.51,1.24,59.65l-2.86,64.38-.69,19.02-.25,6.4-.84,30.39-.09,48.14,1.89.4c.28.06.45.7.38.97ZM247.34,285.96l.46,5.58c.62-5.73.16-11.37-1.12-17.02l.17,5.35.5,6.1ZM256.11,378.94l2.14-32.53c.8-22.84.38-45.24-1.81-68.55-3.22,16.86-2.9,33.62-3.26,50.56-.23,10.99.19,21.33,1.09,32.21.51,6.18.71,11.91,1.84,18.31ZM254.7,387.78l-.45-6.96-.73-3.88-.62,11.68c.33.15,1.83-.36,1.8-.85ZM340.78,384.84l33.63-.47-.31-.55-18.19-1.65c-23.83-2.16-47.48-1.25-71.35,1.2-8.22.84-15.73,2.08-23.49,4.08l30.86-1.94,48.85-.66ZM218.9,390.56l-47.73-2.72-39.98-2.08-10.07-.11,7.55.84c29.99,6.06,60.06,8.82,90.66,7.89.09-1.31-.01-2.75-.44-3.83ZM168.11,413.19c17.18-5.36,34.21-10.19,51.97-16.83l-38.63-1.25c-17.45-1.1-33.94-3.74-50.98-7.19-8.91-1.8-17.85-1.81-26.84-1.57l-18.53.51c.77,8.25.64,15.9,1.06,23.95l.46,8.8,47.19-4.67c9.24-.91,18.03-1.66,27.19-1.18l6.88-.2.22-.38ZM312.18,388.08l7.78-.87-29.14.07-33.16,2.52c-.65.57-.48,3.16.31,3.09l54.2-4.81ZM228.66,394.17l9.21-3.06-14.26-.4-.21,3.87,5.26-.42ZM251,393.2l.18-2.45-5.69.17-11.35,2.93,16.87-.64ZM223.24,418.82l13.47-.78,13.21.18,1.18-23.57-22.61.97-5.1,1.56-.08,3.07-.08,18.57ZM254.13,417.73l.79-23.18-2.36.24-1.05,23.46c.96-.05,2.12-.27,2.63-.52ZM168.25,414.09l9.52.75-12.18.15-5.17-.26c-9.17.27-17.87,1.05-27.13,1.94l-46.9,4.51c17.54,1.03,34,.18,51.16-.17l46.64-.94,36.69-1.08-1.23-20.91c-17.36,5.81-34.02,11.12-51.11,15.65l-.29.35ZM392.66,421.56l.65-18.99c-12.31,3.79-24.35,6.34-37.12,8.06l-30.22,4.06c22.67.44,44.68,2.27,66.69,6.87ZM224.27,583.44l1.13-5.09,6.78-28.14c5.44-22.6,10.07-44.85,12.85-68.01,2.46-20.54,3.89-40.69,4.72-61.12l-10.69.33-15.96.88,1.01,20.82c1.17,24.07,1.76,47.59,1.34,71.77l-1.18,68.58ZM247.83,690.12c3.26.16,6.4-1.26,9.27-1.92l-.17-6.52-2.01-42.7-1-30.7c-1.4-24.22-2.45-47.97-1.99-72.33l2.17-115.03h-2.81c-.64,19.5-1.96,38.23-4.19,57.58-3.16,27.4-8.76,53.76-15.76,80.36-2.93,11.15-5.6,21.82-6.79,33.24l-1.54,30.48c-.44,8.74-1.09,17.11-.65,25.92.69,13.95,1.37,27.53.29,41.44,8.63-.61,16.45-.24,25.19.18ZM257.91,642.58l.45-32.38,1.29-36.24c1.52-27.43,2.22-54.27,1.58-81.78l-3.28-54.37-1.16-16.48c-.57.64-.7,1.53-.72,2.69l-.6,29.13-1.1,93.91c-.29,24.88,1.24,49.14,2.59,73.87l.27,12.52.68,9.13ZM117.73,423.22l-8.21.46,6.26,1.12,13.3,1.86,11.64,1.03c26.52,1.1,51.53-2.04,77.26-5.44-2.81-.6-5.32-.08-7.99.04l-23.25,1.13-27.94,1.38c-13.07.64-25.98,1.46-38.75-.05,15.44,0,30.19.08,45.47-1.06,7.19-.54,14.02-.34,20.81-1.23l-50.31.64-18.29.12ZM217.49,657.67l2.37-36.67,2.03-36.59,1.41-69.02c.46-22.59.41-44.5-.84-67.05-.68.62-.71,1.37-.77,2.67l-2.61,59.08-4.31,67.06c-1.06,16.56-1.91,32.58-.33,48.98l3.04,31.54ZM220.96,681.63l-.11-17.09-.45-9.77-.38.29v21.33s.95,5.24.95,5.24ZM257.39,691.48l-.14-2.72-5.25,1.73,5.38.99ZM240.61,691.52l-7.87-.86-9.9-.09.11,3.13c6.32-.35,11.83-.85,17.67-2.19Z"/>
    <path class="cls-1" d="M220.83,305.15l-.5-6.74c-.23-3.15-.44-6.15-.1-9.13l.78,9.6-.18,6.28Z"/>
  </g>
  <g>
    <path class="cls-1" d="M144.09,157.26c-.12-.41-.12-.82-.12-1.23,0-2.99,2.52-4.99,3.46-7.45,2.17-3.4,6.22-8.74,8.8-11.97.12-.12.59-.12.59-.29,0-.12-.06-.29-.06-.41,0-.35,1.12-1.11,1.47-1.53.47-.82,1.53-2.52,2.52-3.7.53-.53.82-.23.82-1,0-.06.06-.12.12-.12.82,0,2.05-2.23,2.99-2.82.23-.82,1.29-.76,1.41-1.7,0-.12-.12-.12-.23-.12-.18,0-.59.12-.88.12s-.59-.18-.82-.18c-.12,0-.23,0-.29.18-2.11.29-8.45,0-8.45,1.35,0,.7,1.41,1.29,1.41,3.46-2.17-.47-2.17-3.11-5.05-3.11-.82,0-.65-1.12-1.17-1.41.65-3.99,9.27-1.7,14.67-3.4.88.06,1.76.12,2.7.12,2.17,0,4.46-.18,6.69-.18,6.28,0,12.79,1.35,16.78,3.76,1.35,1.29,2.23,3.58,2.52,5.93-.47,1.06-.7,3.4-1.12,4.28-.47.94-2,1.88-2,1.94-.59,1-.12,2.05-3.4,3.7-.7,1.58-3.23,2.76-3.93,3.11-.35.18-.59.12-.82.29-.41.23-2,2-2.88,2.29-.7.24-4.11,1.94-6.46,3.05-1.53.7-2.99,1.29-4.81,2-.47.18-1.76,1.11-2.93,1.11h-.35c-.29,0-.53.59-.76.59h-.35c-.53,0-2.11,1.12-3.46,1.12h-.29c-1.47,1.12-3.58,1.12-5.34,1.7-.18,0-.47.53-.59.53-.76.23-1.94.23-2.82.59-.35.12-1.23.41-1.94.59,0-.29-.18-.35-.41-.35-.29,0-.59.06-.82.06-1.12,0-.23-.94-1.53-.94-.76,0-1.41.35-2.05.35-.29,0-.59-.06-.82-.29ZM164.16,131.56c-1.12,1.17-2.35,3.23-3.7,4.22-.7,1.64-3.29,4.34-3.99,5.99-1.47.88-2.46,3.4-3.93,4.23,0,1.06-1.23,1.06-1.23,1.58,0,.18.06.29.06.41s-1.23,1.47-1.23,2.29c0,.12.06.18.12.24.23-.88,1.64-1.82,2.58-1.82.29,0,.29.47.29.65,0,.53-.53,1.47-.94,1.47.06,0-2.11,2.99-2.23,3.4-.23.12-1,.7-1,.94,0,.12.12.18.47.18,5.05-1.58,10.21-2.7,15.2-4.52.65-.23,1.06-.65,1.76-.65.12,0,.29,0,.47.06,2.46-1.17,4.46-2.58,7.34-3.05,1.35-1.35,4.05-2.41,5.69-3.4,1.82-.88,2.88-2.52,5.05-3.11,0-.06-.06-.18-.06-.23,0-.24,4.17-3.99,5.69-5.69,0-.94.65-2.76.65-3.64,0-1.35-.88-1.64-.88-2.41v-.23c-.7-.35-2-1.41-2.64-1.41-1.29,0-1.64-.88-2.7-1.11-4.75-.88-8.22-1.23-13.5-1.17h-2v.29c0,2.17-2.11,2.17-2.52,3.93-.53.53-.29,1.82-.88,2.29-.18,0-.35-.06-.47-.06-.59,0-.94.29-1.47.35Z"/>
    <path class="cls-1" d="M204.13,153.21c-.12-.41-1.94.47-2,.82-1.41.76-3.29,1.06-4.81,1.7-.29.65-.82.12-1.41.29-.12.06-.7.53-.82.59-1.47.23-2.99-.06-4.23.23-.18-.76-1.17-.7-1.11-1.64-.23-1.06-.06-2.05.18-2.58.53-1.12,2-3.52,2.93-4.23,1.82-1.53,3.87-5.11,5.81-6.51.18-.65.82-.88,1.41-1.12.06-.82.88-.82,1.11-1.41.53-.35.94-.76,1.41-1.17.53-.23.35-1.12,1.41-.82,1.17-.12.76,1.29,1.41,1.7-.29,1.76-2.05,2.05-2.52,3.64-1.47.53-1.76,2.29-2.88,3.11-1.47.59-2.82,3.46-4.11,4.28-.7,1.23-2.29,1.64-2.52,3.4,1.17.76,2.93-.24,3.7-.88,2.11-.18,3.76-1.12,5.34-1.94,1.53-.82,2.93-1.47,4.46-2.35,1.17-.47,1.17-1.29,2.17-1.88,1.23-.35,2.41-1.41,3.87-1.53.65,1.82-.41,3.58-3.05,4.93-.41.59-1.35.88-1.82,1.41-.76.88-3.29.7-3.93,1.94ZM215.92,120.23c.59,1.12.76,2.64.88,4.23-.76,1-2.76.47-3.7,0-.06-2.41-.06-4.75,2.82-4.23Z"/>
    <path class="cls-1" d="M245.15,148.64c.12-.12-3.29,1.53-4.99,1.47-2.17.24-3.17.24-5.57.12-.7-.47-1.88-.53-2.58-1.11,0-.06-.29-.29-.23-.29-.29-.18-.82-.06-1.17-.29-.41-.29-.82-.88-1.12-1.12-.47-.41-.76-.65-1.11-1.12-1.53.53-2,2.11-3.11,3.05-.65.47-.88,1.17-1.41,1.7-.41.53-1.41.82-1.41,1.7-1.41.53-2.35,1.76-3.64,2.52-.65.41-1.29.76-2,1.12-.59.35-1.64.35-1.94,1.17-1.88-.06-2.99,1-4.81.29-.29-.88-1.53-2.29-.59-3.4-.59-1.17.23-2.11,0-3.64,1-1.82,1.35-4.17,2.82-5.4.06-.88.82-1.06.59-2.23,1.06-.82,1.76-2,2.23-3.4,1.76-.12,1.58-2.17,3.7-1.94-.18.88.88.65.53,1.7-.12.53-.59.88-.82,1.41-.76.35-1,1.23-1.41,1.94-.41.7-1,1.29-1.41,2-.06.06.06.47,0,.53-.82.65-1.17,2.76-2.23,3.7.12,2.05-1.7,3.46-.88,5.34,1.53.35,1.29-.94,2.52-.88.76-.35,1.41-.82,2.29-1.12,1.29-.82,2.29-2,3.64-2.82.18-.12.18-.41.29-.53.18-.18,1.12-.53,1.12-1.12.06-.76,1.35-1.17,1.7-2,.47-1.12,1.53-1.7,2.23-2.82.23-.35.06-.82.59-.82.23-1.47.82-2.58,1.41-3.7,1.11-.59,2.52-.24,3.11.59.82,1.76-.88,1.94-.59,3.93,1.06,4.4,5.81,4.93,10.39,3.58.94-.06,3.11-.94,3.11-.65s.65,2.64.76,2.52Z"/>
    <path class="cls-1" d="M251.61,153.21c-.12-.41-1.94.47-2,.82-1.41.76-3.29,1.06-4.81,1.7-.29.65-.82.12-1.41.29-.12.06-.7.53-.82.59-1.47.23-2.99-.06-4.23.23-.18-.76-1.17-.7-1.11-1.64-.23-1.06-.06-2.05.18-2.58.53-1.12,2-3.52,2.93-4.23,1.82-1.53,3.87-5.11,5.81-6.51.18-.65.82-.88,1.41-1.12.06-.82.88-.82,1.11-1.41.53-.35.94-.76,1.41-1.17.53-.23.35-1.12,1.41-.82,1.17-.12.76,1.29,1.41,1.7-.29,1.76-2.05,2.05-2.52,3.64-1.47.53-1.76,2.29-2.88,3.11-1.47.59-2.82,3.46-4.11,4.28-.7,1.23-2.29,1.64-2.52,3.4,1.17.76,2.93-.24,3.7-.88,2.11-.18,3.76-1.12,5.34-1.94,1.53-.82,2.93-1.47,4.46-2.35,1.17-.47,1.17-1.29,2.17-1.88,1.23-.35,2.41-1.41,3.87-1.53.65,1.82-.41,3.58-3.05,4.93-.41.59-1.35.88-1.82,1.41-.76.88-3.29.7-3.93,1.94ZM263.4,120.23c.59,1.12.76,2.64.88,4.23-.76,1-2.76.47-3.7,0-.06-2.41-.06-4.75,2.82-4.23Z"/>
    <path class="cls-1" d="M284.65,150.98c-1,.35-1.23.82-2.82,1.53-1,.88-1.53.65-2.58,1.47-2.17,1.53-4.87,1.7-7.16,3.11-1.64.06-3.81.76-5.11-.59-.06-1.41.41-2.52.88-3.34.06-.12-.12-.53,0-.59.29-.23.06-.47.29-.82.06-.18.41-.06.53-.29.29-.47.29-.76.59-1.11.18-.29.59-.53.82-.88.06-.06-.06-.47,0-.53.29-.23.35-.29.59-.59.59-.82,2.41-4.28,3.11-5.58-2.35.82-7.45,4.64-9.21,6.22-.53.53-1.41,1.12-1.76,1.76-1.29.82-1.7,2.35-2.93,3.23-.94.06-.82,1.23-1.7,1.41-.59.41-1.06,1-1.7,1.41-1.47-.18-1.82.76-2.58-.29-.12-1.41.65-1.94,1.11-2.82.76-.53,1.17-1.47,1.7-2.23.88-1.7,3.29-4.99,3.99-6.98.23-1,1.29-5.93,1.58-6.63.41-1,1.06-.88,2.46-.65,1,.94,0,6.1-.7,7.28.41.18,0,.29,0,.59h-.29c.18.82.47-.41.88-.29.53,0,.18-.76.94-.53.29-.76,1.11-1,1.41-1.7.65.18.88-.29,1.41-.59.76-.41,1.41-.76,2.23-1.41.29-.18.59-.65.88-.82,1.35-.94,3.52-1.64,4.81-2.82,1-.47,3.4-1.64,4.81-.88.82,1.82-.23,3.58-1.41,4.22.12,1.12-1.17.88-1.12,2-.82.12-.65,1.23-1.41,1.41-.41,1.58-2.46,4.52-3.4,5.52-.35.76-.7,1.41-1.17,2-.82.12-.53,1.35-1.11,1.7.47.76,1.06-.65,1.7-.59.59-.24,1.53.18,2-.24.76-.06.76-.35,1.41-.53,3.05-1.29,3.99-1.06,6.51-2.88,1.23-.47,1.11-.35,2.11-1.06.7-.47,1.06-.88,1.47-1.29.47-.18,1.29-.88,1.7-1.06,1.11-.59,2-1.53,3.7-1.58.29,2.76-.35,3.87-1.23,3.93-.53,0-1.47.35-1.53.59-1.17,1-3.4,2.23-4.69,2.82Z"/>
    <path class="cls-1" d="M312.93,150.46c-.88,1.41-8.69,6.04-13.09,6.34-3.7.23-7.1-.65-9.33-2.17-1.35-.18-1.82-1.76-1.7-2.82-.23-1.17-.59-2.64-.23-3.99,0,0,.23-.12.23-.29.18-.59,1.12-3.4,1.82-3.7.29-.82.59-1.7,1.41-2,.65-1.58,2.23-2.29,3.05-3.64,1.58-.7,3.11-1.41,4.23-2.58,2.05.18,2.88-.88,4.81-.82.82.65.88,1.41.82,2.52,0,.47-.12.35-.23.59-.23.41-.12,1.41-.59,1.94,0,2.29-2.17,4.81-2.35,6.87-.82.41-1.41,1.64-1.94,2.29-.53.65-1.35.88-1.7,1.64-1.35.47-2.05,1.53-3.4,2,.88.76,2.29,1.12,3.11,1.35h.59c3.11-.18,7.75-2.11,10.21-3.93.53-.41,1.7-1,2.23-1.23.53-.18,1.64-.76,2.23-.76,0,.12,0,2.11-.18,2.41ZM299.61,138.72c-1.7.94-2.64,2.7-4.23,3.4-1.06,1.94-3.7,5.28-3.76,8.28.88.06,1.94-.41,2.29-.59.7-.41,1.11-.65,1.7-1.12,1.76-1.41,4.05-5.46,5.11-7.16.53-.82,1.17-1.7,1.17-2.82-.06-.18-.06-.53-.29-.53-.76.53-1.53.29-2,.53Z"/>
  </g>
  <g>
    <path class="cls-1" d="M72.63,236.86v-59.91c0-3.68-.19-4.07-4.27-4.07v-.87h16.09v.87c-3.88,0-4.27.39-4.27,4.07v59.91c0,3.68.48,4.07,4.27,4.07v.87h-16.09v-.87c4.07,0,4.27-.39,4.27-4.07Z"/>
    <path class="cls-1" d="M103.46,172.88v-.87h16v.87c-4.07,0-7.66,1.36-7.66,8.63v60.3h-.97l-17.25-54.48v44.98c0,6.59,3.59,8.92,7.66,8.92v.58h-16v-.58c3.78,0,7.37-2.33,7.37-8.92v-48.18c0-9.21-2.52-11.25-6.4-11.25v-.87h7.37c.97,0,1.84,0,2.81-.97l14.44,46.92v-36.45c0-7.27-3.49-8.63-7.37-8.63Z"/>
    <path class="cls-1" d="M146.01,171.14l.97,21.23h-.78c-1.94-14.64-2.62-19.39-6.2-19.39-1.84,0-2.71,1.26-2.71,4.94v56.03c0,6.59.29,6.98,8.24,6.98v.87h-24.14v-.87c7.95,0,8.14-.39,8.14-6.98v-56.03c0-3.68-.87-4.94-2.71-4.94-3.59,0-4.27,4.75-6.2,19.39h-.78l.97-21.23c1.26.58,2.42.87,5.91.87h13.38c3.49,0,4.65-.29,5.91-.87Z"/>
    <path class="cls-1" d="M150.86,235.89v-57.97c0-3.68-.19-5.04-4.27-5.04v-.87h23.65l1.94,18.42h-.58c-2.62-12.41-5.33-17.55-9.5-17.55-2.62,0-3.49,1.36-3.49,5.04v26.27h.97c3.68,0,5.82-.68,7.95-10.18h.58c-.97,7.37-.97,14.83,0,22.2h-.58c-2.13-10.47-4.27-11.25-7.95-11.25h-.97v30.92c0,3.68.87,5.04,3.49,5.04,4.17,0,6.88-4.85,9.5-22.39h.58l-1.94,23.27h-23.65v-.87c4.07,0,4.27-1.36,4.27-5.04Z"/>
    <path class="cls-1" d="M177.42,236.18v-58.55c0-3.68-.19-4.85-4.27-5.04v-.58h13.28c9.5,0,13.28,7.76,13.28,15.51,0,6.88-2.91,14.06-10.08,15.61,1.45,4.26,3.1,4.75,6.3,4.75-.58,1.16-.58,2.23-.39,3.88l2.23,21.42c.68,6.59,1.75,7.85,4.56,7.85v.78h-11.05l-3.3-38.49c-.58.1-.97.1-1.55.1h-1.26v30.54c0,6.59.29,6.98,4.17,6.98v.87h-16.19v-.87c4.07,0,4.27-1.36,4.27-4.75ZM186.44,202.54c.58,0,.97-.1,1.45-.29l-.48-5.91h.58c.39,2.13.78,3.78,1.16,5.14,2.52-2.33,3-8.24,3-13.18v-1.94c0-6.59-.78-13.47-5.72-13.47h-1.26v29.66h1.26Z"/>
    <path class="cls-1" d="M199.91,172.88v-.87h16.87v.87c-4.36,0-5.04,1.45-4.36,6.01l5.72,38.1,4.46-35.48c.78-6.3.29-8.63-4.75-8.63v-.87h13.09v.87c-4.75,0-6.59,2.33-7.37,8.63l-4.94,38.58.19,1.36-.78,3.1-2.23,17.26h-.87l-9.4-62.91c-.68-4.56-2.52-6.01-5.62-6.01Z"/>
    <path class="cls-1" d="M234.81,235.89v-57.97c0-3.68-.19-5.04-4.27-5.04v-.87h23.65l1.94,18.42h-.58c-2.62-12.41-5.33-17.55-9.5-17.55-2.62,0-3.49,1.36-3.49,5.04v26.27h.97c3.68,0,5.82-.68,7.95-10.18h.58c-.97,7.37-.97,14.83,0,22.2h-.58c-2.13-10.47-4.26-11.25-7.95-11.25h-.97v30.92c0,3.68.87,5.04,3.49,5.04,4.17,0,6.88-4.85,9.5-22.39h.58l-1.94,23.27h-23.65v-.87c4.07,0,4.27-1.36,4.27-5.04Z"/>
    <path class="cls-1" d="M275.33,172.88v-.87h16v.87c-4.07,0-7.66,1.36-7.66,8.63v60.3h-.97l-17.25-54.48v44.98c0,6.59,3.59,8.92,7.66,8.92v.58h-16v-.58c3.78,0,7.37-2.33,7.37-8.92v-48.18c0-9.21-2.52-11.25-6.4-11.25v-.87h7.37c.97,0,1.84,0,2.81-.97l14.44,46.92v-36.45c0-7.27-3.49-8.63-7.37-8.63Z"/>
    <path class="cls-1" d="M317.89,171.14l.97,21.23h-.78c-1.94-14.64-2.62-19.39-6.2-19.39-1.84,0-2.71,1.26-2.71,4.94v56.03c0,6.59.29,6.98,8.24,6.98v.87h-24.14v-.87c7.95,0,8.14-.39,8.14-6.98v-56.03c0-3.68-.87-4.94-2.71-4.94-3.59,0-4.27,4.75-6.2,19.39h-.78l.97-21.23c1.26.58,2.42.87,5.91.87h13.38c3.49,0,4.65-.29,5.91-.87Z"/>
    <path class="cls-1" d="M323.51,236.86v-59.91c0-3.68-.19-4.07-4.27-4.07v-.87h16.09v.87c-3.88,0-4.27.39-4.27,4.07v59.91c0,3.68.49,4.07,4.27,4.07v.87h-16.09v-.87c4.07,0,4.27-.39,4.27-4.07Z"/>
    <path class="cls-1" d="M337.86,205.94c0-15.32,1.55-34.41,11.34-34.41s11.34,18.9,11.34,34.41c0,16.48-1.45,36.35-11.34,36.35s-11.34-20.07-11.34-36.35ZM352.98,206.91v-1.94c0-28.69-.78-32.57-3.78-32.57s-3.78,3.88-3.78,32.57v1.94c0,29.66.78,34.51,3.78,34.51s3.78-4.85,3.78-34.51Z"/>
    <path class="cls-1" d="M378.38,172.88v-.87h16v.87c-4.07,0-7.66,1.36-7.66,8.63v60.3h-.97l-17.25-54.48v44.98c0,6.59,3.59,8.92,7.66,8.92v.58h-16v-.58c3.78,0,7.37-2.33,7.37-8.92v-48.18c0-9.21-2.52-11.25-6.4-11.25v-.87h7.37c.97,0,1.84,0,2.81-.97l14.44,46.92v-36.45c0-7.27-3.49-8.63-7.37-8.63Z"/>
  </g>
  <g>
    <path class="cls-1" d="M161.73,314.22v-2.28h10.75v2.28h-4.01v10.81h-2.74v-10.81h-4.01Z"/>
    <path class="cls-1" d="M175.17,325.03v-13.1h2.77v5.4h5.62v-5.4h2.76v13.1h-2.76v-5.41h-5.62v5.41h-2.77Z"/>
    <path class="cls-1" d="M189.5,325.03v-13.1h8.82v2.28h-6.05v3.12h5.6v2.28h-5.6v3.13h6.08v2.28h-8.85Z"/>
    <path class="cls-1" d="M160.96,340.09c0,1.43-.27,2.64-.81,3.64s-1.27,1.77-2.2,2.29c-.93.53-1.97.79-3.12.79s-2.21-.26-3.13-.79c-.93-.53-1.66-1.29-2.19-2.29-.54-1-.81-2.21-.81-3.64s.27-2.64.81-3.64,1.27-1.77,2.19-2.29c.92-.53,1.97-.79,3.13-.79s2.2.26,3.12.79c.93.53,1.66,1.29,2.2,2.29s.81,2.22.81,3.64ZM158.15,340.09c0-.92-.14-1.71-.41-2.34-.27-.63-.66-1.12-1.16-1.44s-1.08-.49-1.75-.49-1.25.16-1.75.49-.89.81-1.16,1.44c-.28.64-.41,1.42-.41,2.34s.14,1.71.41,2.34c.27.64.66,1.12,1.16,1.45s1.08.49,1.75.49,1.25-.16,1.75-.49.89-.81,1.16-1.45c.28-.63.41-1.42.41-2.34Z"/>
    <path class="cls-1" d="M174.86,333.55v13.1h-2.39l-5.7-8.24h-.1v8.24h-2.77v-13.1h2.43l5.65,8.24h.12v-8.24h2.76Z"/>
    <path class="cls-1" d="M178.04,346.64v-13.1h2.77v10.81h5.61v2.28h-8.38Z"/>
    <path class="cls-1" d="M186.72,333.55h3.1l2.99,5.64h.13l2.99-5.64h3.1l-4.78,8.47v4.63h-2.75v-4.63l-4.78-8.47Z"/>
    <path class="cls-1" d="M159.17,368.25l-3.75-13.1h3.02l2.17,9.1h.11l2.39-9.1h2.59l2.38,9.12h.12l2.17-9.12h3.02l-3.75,13.1h-2.7l-2.49-8.56h-.1l-2.49,8.56h-2.7Z"/>
    <path class="cls-1" d="M176.71,368.25h-2.97l4.52-13.1h3.57l4.51,13.1h-2.97l-3.28-10.1h-.1l-3.29,10.1ZM176.52,363.1h7.01v2.16h-7.01v-2.16Z"/>
    <path class="cls-1" d="M186.72,355.15h3.1l2.99,5.64h.13l2.99-5.64h3.1l-4.78,8.47v4.63h-2.75v-4.63l-4.78-8.47Z"/>
  </g>
  <g>
    <path class="cls-1" d="M282.85,449.38v-2.28h10.75v2.28h-4.01v10.81h-2.74v-10.81h-4.01Z"/>
    <path class="cls-1" d="M307.74,453.64c0,1.43-.27,2.64-.81,3.65-.54,1-1.27,1.77-2.2,2.29-.93.53-1.97.79-3.12.79s-2.21-.26-3.13-.79c-.93-.53-1.66-1.29-2.19-2.3s-.81-2.21-.81-3.64.27-2.64.81-3.64c.54-1,1.27-1.77,2.19-2.29.92-.53,1.97-.79,3.13-.79s2.2.26,3.12.79c.93.53,1.66,1.29,2.2,2.29.54,1,.81,2.22.81,3.64ZM304.93,453.64c0-.92-.14-1.71-.41-2.34-.27-.63-.66-1.12-1.16-1.45s-1.08-.49-1.75-.49-1.25.16-1.75.49-.89.81-1.16,1.45c-.28.63-.41,1.42-.41,2.34s.14,1.71.41,2.34c.27.63.66,1.12,1.16,1.45s1.08.49,1.75.49,1.25-.16,1.75-.49.89-.81,1.16-1.45c.28-.63.41-1.42.41-2.34Z"/>
    <path class="cls-1" d="M290.46,472.47c-.05-.52-.27-.92-.66-1.2-.39-.29-.92-.43-1.58-.43-.45,0-.83.06-1.14.19-.31.12-.55.3-.71.52s-.25.47-.25.75c0,.23.04.44.15.61s.26.32.45.45c.19.13.41.23.67.33.25.09.52.17.81.23l1.18.28c.57.13,1.1.3,1.57.51s.89.48,1.24.79c.35.31.62.68.82,1.1.19.42.29.91.3,1.45,0,.8-.21,1.5-.61,2.08-.4.59-.98,1.04-1.74,1.36-.76.32-1.67.48-2.73.48s-1.98-.16-2.76-.49c-.78-.32-1.39-.8-1.83-1.44-.44-.64-.67-1.43-.69-2.37h2.68c.03.44.16.8.38,1.1.22.29.52.51.9.66.38.15.8.22,1.28.22s.88-.07,1.22-.2.62-.33.81-.57c.19-.24.29-.52.29-.84,0-.29-.09-.54-.26-.74s-.42-.37-.75-.51c-.33-.14-.73-.27-1.21-.38l-1.43-.36c-1.1-.27-1.98-.69-2.62-1.26-.64-.57-.96-1.34-.95-2.31,0-.79.21-1.49.64-2.08.43-.59,1.02-1.06,1.77-1.39.75-.33,1.6-.5,2.56-.5s1.82.17,2.55.5c.73.33,1.29.79,1.7,1.39.4.59.61,1.28.63,2.06h-2.65Z"/>
    <path class="cls-1" d="M297.99,481.8h-2.97l4.52-13.09h3.57l4.51,13.09h-2.97l-3.28-10.1h-.1l-3.29,10.1ZM297.81,476.65h7.01v2.16h-7.01v-2.16Z"/>
    <path class="cls-1" d="M310.85,468.7l3.17,9.95h.12l3.17-9.95h3.07l-4.51,13.09h-3.57l-4.52-13.09h3.08Z"/>
    <path class="cls-1" d="M322.85,481.8v-13.09h8.82v2.28h-6.05v3.12h5.6v2.28h-5.6v3.13h6.08v2.28h-8.85Z"/>
    <path class="cls-1" d="M291.44,490.31h2.77v8.5c0,.96-.23,1.79-.68,2.51-.45.72-1.09,1.27-1.9,1.67s-1.76.6-2.85.6-2.04-.2-2.85-.6-1.45-.96-1.9-1.67c-.45-.72-.68-1.55-.68-2.51v-8.5h2.77v8.27c0,.5.11.94.33,1.33s.53.69.93.91c.4.22.87.33,1.4.33s1-.11,1.4-.33c.4-.22.71-.53.93-.91s.33-.83.33-1.33v-8.27Z"/>
    <path class="cls-1" d="M304.49,494.08c-.05-.52-.27-.92-.66-1.2-.39-.29-.92-.43-1.58-.43-.45,0-.83.06-1.14.19-.31.12-.55.3-.71.52s-.25.47-.25.75c0,.23.04.44.15.61s.26.32.45.45c.19.13.41.23.67.33.25.09.52.17.81.23l1.18.28c.57.13,1.1.3,1.57.51s.89.48,1.24.79c.35.31.62.68.82,1.1.19.42.29.91.3,1.45,0,.8-.21,1.5-.61,2.08-.4.59-.98,1.04-1.74,1.36-.76.32-1.67.48-2.73.48s-1.98-.16-2.76-.49c-.78-.32-1.39-.8-1.83-1.44-.44-.64-.67-1.43-.69-2.37h2.68c.03.44.16.8.38,1.1.22.29.52.51.9.66.38.15.8.22,1.28.22s.88-.07,1.22-.2.62-.33.81-.57c.19-.24.29-.52.29-.84,0-.29-.09-.54-.26-.74s-.42-.37-.75-.51c-.33-.14-.73-.27-1.21-.38l-1.43-.36c-1.1-.27-1.98-.69-2.62-1.26-.64-.57-.96-1.34-.95-2.31,0-.79.21-1.49.64-2.08.43-.59,1.02-1.06,1.77-1.39.75-.33,1.6-.5,2.56-.5s1.82.17,2.55.5c.73.33,1.29.79,1.7,1.39.4.59.61,1.28.63,2.06h-2.65Z"/>
  </g>
  <g>
    <path class="cls-1" d="M23.75,38.66v-1.39h6.57v1.39h-2.45v6.61h-1.67v-6.61h-2.45Z"/>
    <path class="cls-1" d="M33.65,37.26v8h-1.69v-8h1.69Z"/>
    <path class="cls-1" d="M35.59,45.26v-8h1.69v6.61h3.43v1.39h-5.12Z"/>
    <path class="cls-1" d="M42.38,45.26v-8h1.69v6.61h3.43v1.39h-5.12Z"/>
    <path class="cls-1" d="M23.59,50.46h1.89l1.82,3.45h.08l1.82-3.45h1.89l-2.92,5.17v2.83h-1.68v-2.83l-2.92-5.17Z"/>
    <path class="cls-1" d="M39.44,54.46c0,.87-.17,1.62-.49,2.23s-.78,1.08-1.34,1.4-1.2.48-1.91.48-1.35-.16-1.91-.48-1.01-.79-1.34-1.4-.49-1.35-.49-2.22.16-1.62.49-2.23.77-1.08,1.34-1.4,1.2-.48,1.91-.48,1.34.16,1.91.48,1.01.79,1.34,1.4.49,1.35.49,2.23ZM37.72,54.46c0-.56-.08-1.04-.25-1.43s-.4-.68-.71-.88-.66-.3-1.07-.3-.77.1-1.07.3-.54.49-.71.88-.25.87-.25,1.43.08,1.04.25,1.43.4.68.71.88.66.3,1.07.3.77-.1,1.07-.3.54-.49.71-.88.25-.87.25-1.43Z"/>
    <path class="cls-1" d="M46.18,50.46h1.69v5.2c0,.58-.14,1.09-.42,1.53s-.67.78-1.16,1.02-1.08.37-1.74.37-1.25-.12-1.74-.37-.88-.58-1.16-1.02-.41-.95-.41-1.53v-5.2h1.69v5.05c0,.3.07.58.2.81s.32.42.57.56.53.2.86.2.61-.07.86-.2.43-.32.57-.56.2-.51.2-.81v-5.05Z"/>
  </g>
  <g>
    <path class="cls-1" d="M369.13,712.35v-1.39h6.57v1.39h-2.45v6.61h-1.67v-6.61h-2.45Z"/>
    <path class="cls-1" d="M379.02,710.96v8h-1.69v-8h1.69Z"/>
    <path class="cls-1" d="M380.97,718.96v-8h1.69v6.61h3.43v1.39h-5.12Z"/>
    <path class="cls-1" d="M387.76,718.96v-8h1.69v6.61h3.43v1.39h-5.12Z"/>
    <path class="cls-1" d="M368.33,724.16h1.89l1.82,3.45h.08l1.82-3.45h1.89l-2.92,5.17v2.83h-1.68v-2.83l-2.92-5.17Z"/>
    <path class="cls-1" d="M384.18,728.16c0,.87-.17,1.61-.49,2.23-.33.61-.78,1.08-1.34,1.4-.57.32-1.2.48-1.91.48s-1.35-.16-1.91-.48c-.57-.32-1.01-.79-1.34-1.4-.33-.61-.49-1.35-.49-2.22s.16-1.62.49-2.23c.33-.61.77-1.08,1.34-1.4.57-.32,1.2-.48,1.91-.48s1.34.16,1.91.48c.57.32,1.01.79,1.34,1.4.33.61.49,1.35.49,2.23ZM382.46,728.16c0-.57-.08-1.04-.25-1.43-.17-.39-.4-.68-.71-.88-.3-.2-.66-.3-1.07-.3s-.77.1-1.07.3c-.3.2-.54.49-.71.88-.17.39-.25.86-.25,1.43s.08,1.04.25,1.43c.17.39.4.68.71.88.3.2.66.3,1.07.3s.77-.1,1.07-.3c.3-.2.54-.5.71-.88.17-.39.25-.87.25-1.43Z"/>
    <path class="cls-1" d="M390.92,724.16h1.69v5.2c0,.58-.14,1.09-.42,1.53s-.67.78-1.16,1.02c-.5.24-1.08.37-1.74.37s-1.25-.12-1.74-.37c-.5-.24-.88-.58-1.16-1.02s-.41-.95-.41-1.53v-5.2h1.69v5.05c0,.3.07.58.2.81.13.24.32.42.57.56.25.13.53.2.86.2s.61-.07.86-.2c.24-.14.43-.32.57-.56.13-.24.2-.51.2-.81v-5.05Z"/>
  </g>
  <g>
    <path class="cls-1" d="M422.33,45.26v-8h1.69v6.61h3.43v1.39h-5.12Z"/>
    <path class="cls-1" d="M436.16,41.26c0,.87-.17,1.61-.49,2.23s-.78,1.08-1.34,1.4-1.2.48-1.91.48-1.35-.16-1.91-.48-1.01-.79-1.34-1.4-.49-1.35-.49-2.22.16-1.61.49-2.23.77-1.08,1.34-1.4,1.2-.48,1.91-.48,1.34.16,1.91.48,1.01.79,1.34,1.4.49,1.35.49,2.23ZM434.45,41.26c0-.57-.08-1.04-.25-1.43s-.4-.68-.71-.88-.66-.3-1.07-.3-.77.1-1.07.3-.54.5-.71.88-.25.86-.25,1.43.08,1.04.25,1.43.4.68.71.88.66.3,1.07.3.77-.1,1.07-.3.54-.5.71-.88.25-.86.25-1.43Z"/>
    <path class="cls-1" d="M438.96,37.26l1.93,6.08h.07l1.94-6.08h1.88l-2.76,8h-2.18l-2.76-8h1.88Z"/>
    <path class="cls-1" d="M446.29,45.26v-8h5.39v1.39h-3.7v1.91h3.42v1.39h-3.42v1.91h3.71v1.39h-5.41Z"/>
    <path class="cls-1" d="M435.68,50.46h2.09l2.2,5.38h.09l2.2-5.38h2.09v8h-1.64v-5.21h-.07l-2.07,5.17h-1.12l-2.07-5.19h-.07v5.23h-1.64v-8Z"/>
    <path class="cls-1" d="M446.29,58.46v-8h5.39v1.39h-3.7v1.91h3.42v1.39h-3.42v1.91h3.71v1.39h-5.41Z"/>
  </g>
  <g>
    <path class="cls-1" d="M85.8,718.74v-8h1.69v6.61h3.43v1.39h-5.12Z"/>
    <path class="cls-1" d="M99.63,714.74c0,.87-.17,1.62-.49,2.23-.33.61-.78,1.08-1.34,1.4-.57.32-1.2.48-1.91.48s-1.35-.16-1.91-.48c-.57-.32-1.01-.79-1.34-1.4-.33-.61-.49-1.35-.49-2.22s.16-1.61.49-2.23c.33-.61.77-1.08,1.34-1.4.57-.32,1.2-.48,1.91-.48s1.34.16,1.91.48c.57.32,1.01.79,1.34,1.4.33.61.49,1.35.49,2.23ZM97.91,714.74c0-.56-.08-1.04-.25-1.43-.17-.39-.4-.68-.71-.88-.3-.2-.66-.3-1.07-.3s-.77.1-1.07.3c-.3.2-.54.5-.71.88-.17.39-.25.87-.25,1.43s.08,1.04.25,1.43c.17.39.4.68.71.88.3.2.66.3,1.07.3s.77-.1,1.07-.3c.3-.2.54-.49.71-.88.17-.39.25-.86.25-1.43Z"/>
    <path class="cls-1" d="M102.42,710.74l1.93,6.08h.07l1.94-6.08h1.88l-2.76,8h-2.18l-2.76-8h1.88Z"/>
    <path class="cls-1" d="M109.76,718.74v-8h5.39v1.39h-3.7v1.91h3.42v1.39h-3.42v1.91h3.71v1.39h-5.41Z"/>
    <path class="cls-1" d="M85.8,723.94h2.09l2.2,5.38h.09l2.2-5.38h2.09v8h-1.64v-5.21h-.07l-2.07,5.17h-1.12l-2.07-5.19h-.07v5.23h-1.64v-8Z"/>
    <path class="cls-1" d="M96.41,731.94v-8h5.39v1.39h-3.7v1.91h3.42v1.39h-3.42v1.91h3.71v1.39h-5.41Z"/>
  </g>
</svg>