<?xml version="1.0" encoding="UTF-8"?>
<svg id="Layer_1" data-name="Layer 1" xmlns="http://www.w3.org/2000/svg" viewBox="0 0 471.92 768">
  <defs>
    <style>
      .cls-1, .cls-2 {
        fill: #fff;
      }

      .cls-2 {
        font-family: InterV-Bold, 'Inter V';
        font-size: 18.01px;
        font-variation-settings: 'wght' 700, 'slnt' 0;
        font-weight: 700;
        letter-spacing: .05em;
      }
    </style>
  </defs>
  <g>
    <path class="cls-1" d="M317.85,411.12l-2.87-3.46c-.79-.95-1.43-1.9-2.24-3.39l-13.44,3.31,12.53,10.01,12.42,1c1.69.14,3.93,1.17,4.83,2.24.84.99,1.8,3.76,1.11,4.9-.99,1.65-2.89,2.77-4.37,3.71l9.38,14.49,8.42,14.48,3.63,3.06-.02,5.75,2.59,4.56c9.07,6.07.22,18.17,1.87,31.12,1.34,10.47,3.37,20.32,3.14,30.92-.06,2.83-1.22,4.95-1.9,7.47l-4.28,15.79c.32,4.57,2.25,9.88,4.5,12.56,4.3,1.93,8.11,4.96,11.7,7.92,4.06,3.35,7.07,7.44,7.71,12.67,2.67,3.52,1.33,7.96-2.46,10.1-5.98,4.21-13,3.95-20.48,3.63l3.3.84c1.51,1.27.63,4.82-1.72,5.33l-13.75,2.99-1.44-6.88-3.4,7.08,1.07,3.93c.2.72.43,2.56.05,3.18-.87,1.4-4.89,2.02-5.05,1.83l-1.42-1.7c-.06,4.84,1.16,4.57-2.14,8.74-2.13,2.69-3.41,4.81-7.37,5.09l-5.11,1.23,5.24,37.03c.3,2.12-1.12,3.75-3.53,4.19l1.76,12.14,1.44,17.71c.58,7.21-3.84,14.27-11.04,16.64-8.94,2.95-19.49,1.71-27.37-3.95l-7.29-38.21c-3.28-.05-4.89-1.41-5.53-4.43l-2.35-11.09-2.99-1.27c-5.56-3.57-6.6-9.3-7.75-15.22l-.87-4.44c-3.87,1.15-8.49.15-10.89-3.62-.58-.9-2.34-1.34-3.69-1.24l1.69,6.39,7.92-.82c-2.55,3.41-5.82,3.21-9.99,3.28l-2.46-9.37c-2.14-1.07-3.94-2.78-5.4-5.07l-6.85-5.19-.74-2.29c-.47-1.45-5.05.72-7.03-2.72l-17.53-1.53c-1.87-.16-4.25.57-6.2.03-1.58-.44-1.95-3.05-1.66-5l-6.5-1.22c-1.13-.21-2.84-1.15-3.39-1.99-.74-1.11-.43-3.54-.48-4.92-.58-15.43,6.37-21.31,8.71-32.85.72-3.53,1.27-6.32,3.55-9.36.5-.67.97-2.54.61-3.28s-1.78-1.57-2.67-1.94l-4.99-2.02c-2.29-3-4.07-5.87-5.07-9.43-3.18-3.13-4.12-7.19-3.84-11.55-1.73-1.99-3.5-4.69-3.7-7.52-.23-3.1-1.61-5.12-3.3-7.5-3.53-4.96-5.61-10.76-7.13-16.63-2.34-2.05-3.64-4.94-3.47-7.98l2.86-2.07c-.19-5.36-.28-10.43.53-15.86,2.28-15.23,5.83-29.87,10.78-44.63-2.06.43-4.67.99-6.26.5-1.77-.55-2.11-.4-3.56.1l-5.2,1.81-.68-3.32-2.19,3.69c-.38.64-1.55,1.64-2.34,1.6-.71-.04-1.4-1.02-2.08-2.28l-15.56,7.1-9.81,4.94c-1.12.56-2.66,2.88-3.71,3.24-2.35.81-5.83-1.42-5.28-4.21.38-1.95,3.19-4.37,4.94-5.26l6.82-3.46c-8.43-5.78-6.64-12.59-4.3-21.83-2.65-2.32-3.78-8.97-3.93-13.73l-2.62-4c-9.44-2.3-18.26-5.5-27.17-9.34-2.66-1.14-3.47-3.43-3.01-6.14.8-4.75,3.36-8.02,7.83-9.67,10.18-3.75,19.01-6.4,29.8-6.85,1.64-1.97,3.63-2.83,6.22-3.92s5.07-5.58,5.92-8.44c1.25-4.19,2.42-7.64,4.83-11.16l6.63-14.76c5.13-7.33,11.42-13.54,15.51-21.56l6.03-11.86c2.08-4.09,5.77-3.03,8.33-4.55,4.74-2.81,8.15-7.14,13.59-9.8l-1.49-8.48c-.76-10.77-.9-21.31-.44-32.05l1.11-2.11c1.63-4.68,3.9-9.22,6.65-13.34-1.86-3.03-4.02-6.22-4.69-9.69-1.67-8.56.86-17.36,6.54-23.67,4.8-5.33,11.46-7.07,18.34-4.84,1.94,3.7,1.04,7.92,2.8,9.41.53.45,2.13.15,2.9.08,12.84-1.2,11.84-12.21,23.06-20.86,9.27-7.15,22.29-4.66,24.08,2.14,2.83,10.7,11.07,18.89,21.61,21.85,14.88,4.17,16.66-10.48,30.3-10.87l6.98-16.39c2.38-5.59,5.74-10.49,10.71-13.95,6.07-4.23,13.47-6.03,20.82-4.06,6.36,1.7,13.19,4.3,17.52,9.78-6.54-2.9-11.5-6.96-18.16-8.27-13.37-2.63-24.23,4.8-29.27,17.08l-6.28,15.31,10.13,1.58c1.87-.89,4.46-.61,5.86.83-2.47.47-5.04.6-6.55,1.69-5.3,3.84-10.78,5.29-16.65,8.14,7.13-1.38,12.96-4.05,19.77-4.31,6.73-4.28,13.94-6.56,21.65-7.24,5.49-8.56,12.35-17.8,22.41-19.22-8.91,3.7-15.75,10.03-20.51,19,2.31.13,4.08.09,6.8.73l-7.7,1.02-3.18,5.06,16.58-.11c6.66-2.58,12.95-5.85,18.88-9.82l14.89-11.83c-8.25,8.81-18.1,16.53-29.88,21.52l-.53.56c7.46,2.23,13.19,8.39,18.23,13.95,7.19,7.93,16.33,11.83,26.83,13.24-9.78,1.34-19.44-3.15-26.13-9.86l-9.79-9.83c-3.15-3.16-7.75-6.54-12.65-5.95-3.68.45-7.01,2.6-10.86,4.15l3.11,1.81c11.39-4.38,16.18,2.96,12.79,1.37-4.46-2.09-10.38-1.71-14.69,1.07-5.25,3.4-9.86,6.81-14,11.93l11.23-3.87c7.43-2.56,15.17-3.5,22.58-1.02.12.66.22,1.13.01,1.06l-1.29-.42c-9.43-3.08-16.94-.19-25.98,3.96,11.4.83,21.24,3.58,30.52,9.36l16.35,12,12.29,7.95c1.02.25.98.54-.25.73-5.26-1.69-9.53-4.5-13.88-7.63l-15.46-11.14c-5.74-4.14-12.53-6.46-19.68-7.47-5-.71-9.7,1.13-13.8,3.73l8.08.57c6.59.47,16.39,4.49,17.07,10.8-4.05-4.25-7.76-8.62-14.03-8.4,8.11,5.45,15.57,11.04,20.62,19.4,4.29,7.08,7.93,14.06,11.52,21.81-4.24.58-7.48-.69-10.85-2.4l-22.46-11.35c-7.46-3.77-15.18-6.27-23.54-6.48l-8.57,1.11c1.18-2.33,3.67-2.64,6.01-2.83,16.2-1.3,31.77,8.92,46.4,16.87,3.55,1.93,6.88,3.82,11.28,4.07l-5.49-9.66c-3.62-6.37-6.83-12.85-11.92-18.2-5.44-5.72-11.86-10.3-19.23-13.27-4.3.82-8.82,2.83-11.82,5.93l-11.41,11.77c-2.19,2.26-4.3,3.87-5.71,6.84l8.47-1.75c-2.79,3.22-6.2,1-10.69,6.16-6.23,7.17-16.02,7.86-24.85,5.48-6.4,2.01-13.17,4.2-20.49,3.46,1.83,2.45,4.38,2.73,6.88,2.92l28.77,2.22c-4.26,1.4-8.25.59-12.44.45l-11.87-.39,11.16,2.24c6.6,1.33,20.06-1.11,23.57-7.39l4.68-8.37c-.23-1.02,0-1.48,1.01-.38l-3.04,8.36c3.87-3.13,7.33-6.14,11.54-8.5,7.47-4.17,16.98-3.37,23.16,2.26-15.46-6.14-20.55-2.26-31.91,6.06-4.06,2.97-7.24,5.9-10.13,10.17-.82,1.21-2.5,1.67-4.29,2.14,4.4,1.92,9.72,1.45,13.73-1.19l8-5.29c-5.35,6.83-13.52,11.31-22.14,9.24l-4.82,3.38c6.55.82,11.9-1.24,17.48-3.79l18.79-8.57c8.22-3.75,16.6-1.37,23.47,4.26l13.51,11.08c4.88,4,10.55,6.14,17.08,7.45l-.88.77c-6.08-.58-12.38-2.62-17.35-6.62l-13.97-11.23c-6.45-5.18-14.22-7.08-21.81-3.68l-20.51,9.16c-6.34,2.83-13.05,3.78-19.75,2.16-4.19,1.35-8.09.88-12.78-.36,2.37,6.13,7.01,10.23,11.83,14.14,1.79,1.45,2.47,2.82,1.34,5.33.92.36,2.9.99,3.93,1.01,3.79.06,5.79,2.57,8.28,4.77,2.06,1.82,6.02,2.29,7.92,4.53,3,3.55,5.7,7.43,9.39,10.07l5.35,3.83c10-4.69,26.96-7.07,34.21-.11,2.03,1.95,2.78,7.94.98,10.31-4.13,5.47-9.12,9.38-14.09,14.01,7.33,8.16,8.59,16.96,2.92,25.87,1.12,2.57,3.71,6.79,1.18,9.37l-4.24,4.24,9.51-.05c1.48,0,2.74,2.07,2.52,3.39-.55,3.33-4.75,4.4-9.22,4.51l-28.01.7c-1.82.9-4.18,2.55-6.13,2.8l-15.44,1.94c.69,1.8.97,2.37.86,4.47ZM270.75,196.12c3.02,1.23,4.3,4.82,6,7.16,6,1.02,11.74,1.73,17.63,1.66-13.02-2.63-22.8-10.78-26.17-23.47-1.69-6.36-12.53-8.13-20.22-3.02-9.41,6.26-10.04,15.71-19.23,21.96,4.6-.26,8.37-2.21,12.71-3.98,9.1-3.71,19.81-4.16,29.28-.3ZM353.73,198.7l3.32-5.57c-6.06.67-11.16,1.78-16.2,4.92l8.24,1.25c1.05.16,4.08.34,4.64-.6ZM332.09,193.9c-3.74-1.09-6.63-1.26-9.52-.91l-3.9,7.05c5.35-1.54,9.26-3.07,13.42-6.14ZM316.23,200.96l4.26-7.79c-3.16.23-6.21,1.35-8.71,3.36l-8.38,6.76c4.28-.3,8.45-1.17,12.83-2.34ZM367.06,199.52c-4.52-.66-8.37-.07-12.71.99,3.67,4.02,7.33,1.91,12.71-.99ZM321.61,219.07c7.39-6.23,13.95-11.84,21.96-16.11l3.95-2.1c-3.76-.51-7.63-1.28-11.14-.13-7.82,2.56-14.13,9.36-14.77,18.35ZM211.14,201.3l5.73-.17-1.27-3.19c-3.55-.42-5.77-2.96-6.22-6.57-10.09,1.33-14.6,11.94-15.29,21.33l3.03-.13c.36-.31,1.7-1.51,2.01-1.07l1.34,1.85c1.89-6.26,3.87-11.84,10.68-12.05ZM215.03,196.44c.25-4-1.52-5.77-4.42-4.94,1.11,2.19,2.74,3.97,4.42,4.94ZM263.28,220.37l9.17,10.01c4.77,5.21,11.49,7.13,18.41,5.2l10.85-3.04.39.56-10.85,3.7c-3.92,1.34-7.66,1.09-11.73.69l5.96,5.89c8.57-3.02,17.13-6.05,24.15-11.63,3.88-3.09,7.81-6.74,9.75-11.14s1.73-9.79,5.3-13.18l7.27-6.91-17.8,5.29c-3.62,4.02-7.26,7.28-11.64,10.5-11.25,5.56-26.01,2.23-30.73-10.34l-8.84-.39c4.07,9.43,12.51,16.42,22.45,18.69,6.91,1.58,13.69,1.33,20.81,2.19l-6.17.78c-17.85,2.27-35.98-4.92-42.21-21.93-6.74-.04-12.69.27-18.58,1.9,9.73,1.98,17.46,5.98,24.02,13.16ZM342.99,211.81c3.88-2.53,6.97-5.4,8.46-10.25-7.37,2.21-13.41,6.1-19.19,10.67-4.82,3.82-9.53,7.4-13.33,12.59,8.98-2.98,16.2-7.9,24.05-13.02ZM356.69,203.71l-3.82-1.34-1.8,4.14,5.62-2.8ZM240.25,204.73c10.24-2.17,19.93-1.97,30.64-.98-.65-1.75-2.37-4.64-4.27-5.37-10.5-4.01-21.32-1.91-30.74,3.42-2.31,1.31-5.48,1.25-5.86,5.09l10.24-2.17ZM348.01,218.55c4.25-4.66,9.14-8.2,14.65-11.73-1.26-1.94-3.43-1.95-5.47-.79l-9.11,5.21-5.34,9.03c2.37.91,3.76-.07,5.27-1.72ZM299.76,216.07c4.46-2.55,8.01-5.06,11-9.17l-15.96,5.17c5.65-4.83,12.78-5.01,19.37-8.37-7.32.57-13.72,3.3-20.77,3.11l-13.79-.38-3.13.08,1.06,2.93c5.24,6.57,13.95,9.31,22.22,6.64ZM227.16,206.65c1.4-.8,2.7-2.41,3.57-3.73l-9.44.13c.66,2.39,3.32,5.05,5.87,3.59ZM213.21,208.56l8.76-.31-3.18-4.61-8.35.47c-2.59.15-4.57,1.32-5.23,4.07l8,.38ZM316.22,236.32c5.96-6.8,15.71-14.33,24.31-15.12l3.26-6.42c-5.98,4.64-11.6,7.87-18.16,11l-9.23,4.4-3.06,6.43c.6.29,2.44.23,2.89-.29ZM212.49,221.1c.4-.7,1.94-1.55,2.68-1.52s2.19.99,2.53,1.65l2.03,4.03c.87-3.04,1.58-5.23,3.65-6.91l-2.06,5.95c-.52,1.51.99,3.74,2.7,4.85l-.83-8.16c2.81-.68,5.39-1.8,7.32-3.41.57.57,2.01,1.04,3.13,1.01l8.53-.26c4.73-.14,9.51.92,13.89,2.48l-12.04-1.38,12.23,4.04c.5.17,1.88-.02,2.21-.17,1.51,1.32,3.23,2.48,5.46,2.94-1.3-2.01-2.96-3.76-4.7-4.93-.71.73-1.5,1.65-1.63,1.29l-.49-1.35s.98-.49,1.9-.95c-8.43-8.91-19.98-10.93-32.49-10.04,1.84,1.1,1.07,1.61-.32,1.48-9.97-.25-14.82,3.59-17.36,12.96,2.23,4.54,5.31,7.92,9.41,10.59l4.85,3.16c1,.65,1.54,3.78,3.78,3.2,4.98-8.72,14.26-13.35,24.26-13.48,4.32-.05,8.03,1.98,9.43,6.3l7.57,3.3-4.16-4.66c-4.54-5.09-10.99-9.27-18.12-9.6-6.5-.3-11.5,3.47-16.43,7.33-1.84-5.08-.45-10.96-1.4-10.68l-1.36.39c-.51,6.36-.62,12.82.91,19.14l-4.68-2.89-5.62-3.28c-4.03-2.36-7.32-7.97-4.76-12.43ZM214.88,211.33l-10.93.21c-.79,2.25-.7,4.81.88,6.12,2.2,1.83,4.84-4.37,10.05-6.33ZM360.87,223.09c-4.71-.96-9.41-.86-14.18.36l14.18-.36ZM335.42,227.44c2.03-1.19,3.6-1.98,4.04-4.55-4.25,1.04-7.96,2.52-11.12,5.27l-8.81,7.68c3.77-1.08,6.75-3.01,10.04-4.95l5.84-3.44ZM353.9,224.59c-3.5-.2-6.79-.94-8.48,2.71l8.48-2.71ZM198.89,225.2l-4.6-11.73c-.25,4.6,1.69,9.19,4.6,11.73ZM342.27,228.45l1.25-1c.26-.21-.52-.91-.84-.84-1.49.3-5.43,3.29-6.11,4.28l-4.02,5.9c4.7-2.64,7.13-6.27,9.71-8.34ZM350.76,229.12c-1.78-.99-3.25-.93-4.81-.04-1.06.6-1.89,2.37-2.16,3.88l6.97-3.83ZM230.48,227.93c4.78-2.98,7.29-4.05,12.02-5.97l-12.95-.3.93,6.27ZM219.28,230.53c.97-2.97-.49-4.77-2.06-7.14-.64-.98-1.78-2.43-2.3-1.99l.32,4c.13,1.68,2.25,3.88,4.04,5.13ZM205.23,231.08l7.34,4.07c-2.07-3.21-4.65-5.43-4.7-9.15-.03-2.16-.29-3.14-2.15-5.38l-3.54,3.7,5.42,4.98c.31.29.36,1.53-.02,1.56l-2.36.22ZM318.06,248.5l10.85-9.88c1.95-1.77,3.58-4.98,5.18-7.39l-16.18,9.77c.3,2.57.37,5.18.16,7.49ZM337.14,238.6c2.04-2.31,4.91-3.4,5.18-6.98l-8.73,6.55c-3.56,2.66-6.81,6.1-7.57,10.28,4.69-2.66,7.72-5.99,11.12-9.84ZM244.25,235.68l5.2-1.35,8.18-.48c-4.41-4.26-13.42-2.39-19.45.29l-3.6,1.6,4.63-.21c1.48.71,2.89.71,5.04.15ZM276.03,238.36c-1.42-1.72-2.86-3.07-5.17-4.27,1.61,3.84,4.31,7.5,8.62,8.46l-3.45-4.18ZM217.08,245.31c.23-2.04,3.74-3.55,5.35-3.74.51-.06,1.24-1.6.78-1.83-1.99-.97-4.61.45-7.24-.69l-12.29-5.29c.03,5.89,1.77,11.5,4.07,17.49-4.9-4.88-6.32-11.63-6.55-18.37l-1.33-1.35-.06,14.61c-2.74-5.54-.88-10.7-1.88-16.16-2.25,3.51-4.47,7.1-4.87,11,.64,2.8,3.81,5.56,6.18,7.2,7.32,5.09,15.84,6.89,24.68,7.28,8.32.37,16.13.26,24.49-1.32l-4.52-6.56c-1.15-1.67-5.49-3.21-7.53-3.36l-15.58-1.13c-1.1-.08-3.6,2.15-2.77,2.93,6.48,6.05,18.88,5.28,27.86,5.79-8.85,2.52-26.94.79-28.77-6.49ZM293.04,247.14c3.87-.67,8.17-1.68,11.63-3.44l3.52-4.82c-3.57.03-5.81,1.42-8.84,2.64l-11.62,4.68,2.48,2.46c.5.49,2.08-1.39,2.82-1.52ZM274.32,264.17l-4.52-5.68c-5.55-3.41-9.03-8.15-10.19-14.72-6.71-5.19-10.25-10.31-17.63-5.5,3.64,7.39,9.97,7.84,15.08,13.49l8.69,9.64c1.74,1.93,5.62,2.37,8.57,2.77ZM316.35,241.52c-3.23,3.28-5.14,6.59-6.83,11,5.71-1.56,8.64-5.84,6.83-11ZM320.03,249.68c3.94-.56,5.88-3.69,6.87-6.59l-6.87,6.59ZM307.24,252.59l5.64-9.41c-2.08,1.03-5.23,2.05-6.74,3.41l-8.73,7.83c2.54.72,8.22.84,9.82-1.83ZM271.8,250.97l-8.08-6.94c3.69,12.66,17.78,18.44,29.6,13.7-4.4-3.82-15.45-1.55-21.52-6.76ZM286.69,249.94c-1.23-3.39-3.97-4.25-7.1-4.41,2.15,1.83,4.47,3.31,7.1,4.41ZM281.96,250l-9.75-4.08c2.62,2.78,6.12,4.37,9.75,4.08ZM303.55,261.48c6.05,2.36,11.98.71,16.45-3.43l4.74-4.39,2.25-2.03-2.04-1.8-4.09,2.6-13.79,5.88c-1.01.43-2.65,2.36-3.52,3.18ZM263.34,261.92l-7.9-9.4c-1.85-2.2-4.69-3.76-7.15-5.02,1.67,2.78,3.48,5.21,5.61,6.9l9.44,7.52ZM266.68,284.11c2.35-2.57,4.24-5.33,4.45-8.84l-4.77-4.2-16.58-15.36c-13.42,2.8-26.69,3.43-39.74.34-7.76-1.84-14.12-5.44-18.99-11.88-.2,10-.07,19.3.58,28.87l6.26,7.75c13.56,14.51,35.81,21.9,54.08,14.25,6.01-2.52,10.48-6.3,14.71-10.92ZM295.46,263.85l-15.23-1.42c-.51-.05-1.84.07-1.95.53l-.45,1.77c5.91.81,11.47,1.42,17.62-.88ZM316.83,276.55l.26-1.1-7.87,1.24c2.51,1.23,4.93.96,7.61-.14ZM284.51,278.44c-2.25-2.14-4.43-3.63-7.45-4.08l-3.55-.53c2.02,2.94,4.26,3.83,7.02,4.95l7.62,3.1-3.63-3.44ZM299.61,284.54l-13.72-7.12c3.79,3.83,8.42,6.22,13.72,7.12ZM313.28,281.77l-15.21-.81c5.59,3.12,10.07,5.5,15.21.81ZM191.56,376.74l-5.19,8.02c-2.89,4.47-.49,11-3.58,16.39l7.02,1.09c2.29.36,2.38,7.55,3.45,7.53l2.94-.05c4.06-.07,7.97,1.66,11.71,3.41l-.95-3.7c-.88-3.45.6-6.47,3.6-8.23,8.63-5.07,18.03-7.43,27.95-8.68s19-2.49,28.55-2.4c1.77-2.82,3.31-5.42,6.06-7.17l-5.23,7.38c3.85.63,6.88,1.94,8.36,5.18,4.38-2.72,8.69-2.92,14.19-2.64-2.66-2.4-5.96-3.36-9-3.82l-1.78,2.62,2.38-13.52c.85-4.81,2.42-9.33,4.94-13.55.16,2.91-.65,4.98-1.29,7.46l-3.91,15.1,11.27,3.63-4.51-13.85c0-10.45,2.42-20.65,7.4-30.04-2.11,8.78-4.31,17.36-5.43,26.2,2.01,1.87,3.06,4.02,4.08,6.25.59.94,4.33.71,4.51-.53l.89-6.18,22.63-13.99c-3.57-1.09-6.64-2.56-8.7-4.91-5.89,3.08-4.92-3.23-11.54-5.89-3.89-1.57-7.73-3.15-11.9-3.62-1.44-.16-2.61-.35-2.9-1.8,2.46-.62,5.74-.68,8.09.37l10.04,4.47c4.07,1.81,4.69,6.43,6.68,5.23.79-.47,1.88-1.59,2.11-2.06-1.52.17-2.68.61-2.97.12l-1.17-1.95c1.47-8.15,5.49-16,12.39-20.91l.79.33-4.43,4.66c-3.04,4.51-5.46,9.37-6.66,14.88,3.17-8.13,9.09-14.35,18.4-13.83-3.77,1.57-7.54,2.07-10.41,4.47-4.45,3.72-5.42,9.93-4.49,15.33l8.49,3.97,5.27-3.17c-3.31-1.33-4.85-3.57-4.47-6.74.88-7.44,8.22-12.95,15.53-16.9-4.73-2.85-10.06-5.61-12.2-10.58-1.79-4.16-5.8-5.36-9.82-6.47-2.68-7-10.88-3.63-11.68-7.24-.6-2.69-1.18-4.51-3.44-5.93-3.29-2.08-5.66-4.83-7.87-8.01l-4.13-5.95-7.75-3.6c-3.2-1.49-7.26-2.02-10.68-3.12-2.57,8.27-5.99,15.94-10.01,23.54,1.99,6.49,5.5,12.08,5.31,19.4l-6.97-17.98c-3.34,3.81-6.5,7.09-9.29,10.79l-6.68,8.87c-3.29,4.37-5.65,9.21-7.48,14.41l-3.8,10.77c-.66,1.88-2.8,3.66-4.32,4.91l1.78,9.55c.59,3.19,1.69,5.83,4.75,7.42l-.83-7.89c1.27,1.15,2.19,3.26,2.18,4.83-.01,7.38.33,14.31-1.99,21.68l-.27-13.98c-.04-2.09-1.57-4.01-2.98-5.33-2.46-2.3-2.12-5.47-2.73-8.56-1.8-9.02-4.28-18.1-8.64-26.26-6.12-11.47-17.55-19.27-18.8-29.94-5.48-5.69-9.55-11.85-11.2-20.17-4.84,3.65-8.91,7.04-12.99,11.12-4.75-1.55-6.97,1.41-9.25,6.37-4.47,9.71-10.08,18.28-18.1,25.86,3.4,1.18,6.48,2.51,8.4,5.26-3.39-1.62-6.36-3.29-9.77-3.14l-5.8,11.42c-1.26,2.48-3.34,5.5-4.12,8.16-1.28,4.37-2.16,8.29-5,12.24-3.99,5.58-5.11,4.19-9.19,7.11,3.64,1.63,6.38,2.36,9.59,4.19,3.74,2.13,9.21,12.13,4.03,15.6l14.48,3.25,1.95-7.55c.47-1.81,1.08-3.23,1.95-5.01,1.25-2.56-.4-5.51-1.04-8.5,1.62,1.61,2.3,3.84,3.06,6.08.68-2.84,1.2-6.33,3.38-7.45l2.86-1.46c1.21-.61.1-12.66-9.44-14.24l-8.51-1.41c.69-.75,3.32-2.14,4.45-1.88l9.98,2.29c-3.51-4.2-6.97-7.25-9.58-11.64,6.61,3.2,10.74,9.26,14.04,15.33-.39,1.73-.79,3.69-.1,5.66,3.05-3.8,5.71-6.84,9.8-9.69.97-.68,2.12-2.38,2.54-3.65-1.72-1.39-3.31-2.22-5.01-2.78,1.19,3.63-1.02,6.95-3.22,7.51-.38.09-1.55-.32-1.76-.55-.14-.16-.13-.66.07-.71l1.44-.36c1.3-.33,2.61-3.27,1.95-4.77-.53-1.23-1.76-2.67-3.13-4.41,3-.27,7.32,1.44,9.56,3.49l1.12,1.74c.22.35,1.38-.2,2.09-.48,3.44,2.34,5.71,6.2,6.18,10.38-4.7,11.43,8.67,14.29,6.35,24.5l-2.94-6.98ZM249.96,313.04c3.96-7.44,7.98-14.6,15.25-19.32l1.83-6.7c-4.56,3.91-8.08,8.55-13.74,10.75-21.61,8.39-46.96-.18-60.45-19.03l2.57,10.46c2.35,5.84,5.39,11.13,10.08,15.29,2.28,2.21,4.36,4.48,7.42,5.77-6.24-6.64-11.7-12.97-15.45-21.54,2.45,1.43,3.62,3.62,5.28,5.59l13.96,16.49c.29.35.72,1.32.43,1.59l-.97.89c10.85,7.79,27.72,11.16,33.78-.23ZM255.03,307.83c3.73-3.47,6.52-7.26,8.9-11.82-3.66,3.51-6.56,7.22-8.9,11.82ZM208.86,311.32l-4.69-3.56c1.92,4.8,4.62,8.69,7.67,12.21l-2.98-8.65ZM245.49,321.55c-5.81,1.88-10.59,2.57-16.28.51l1.19,17.58c.12,1.73-.88,3.87-2.23,4.45-1.22-3.96-.95-8.05-2.78-11.11l-9.52-15.91c-.89-1.48-3.55-3.06-5.44-4.08,2.89,8.34,8.31,14.57,12.74,21.8,3.33,5.44,4.19,11.7,7.04,17.77.77-.96,1.15-2.65,1.28-4.27.67-8.13.79-16.29,5.14-23.3-1.53,8.03-3.42,14.92-3.03,22.45l4.1-12.42c1.67-5.06,4.27-9.21,7.77-13.47ZM349.71,358.01c3.71.81,6.33-1,8.7-3.04l12.42-10.67,5.14-5.32c1.16-1.2.89-5.12.63-7-10.89-7.62-27.15-3.97-38.54,2.81-6.63,3.94-13.07,12.74-9.29,16.72,1.42,1.5,3.24,1.61,5.32,1.25,6.8-1.2,13.51-2.06,20.05-3.99,4.85-1.43,7.62-5.63,12.57-7.82l-17.01,17.07ZM228.19,335.35l-.64-13.54-8.5-2.32,5.6,8.97,3.54,6.89ZM346.67,358.56l5.72-6.1-7.89,2.46-5.57,3.4,7.74.24ZM336.72,373.11c2.83-2.44,6.66-2.37,9.79-.56l8.4-2.9c3.77-1.3,7.14,1.04,9.25,4.19.55-3.95-3.47-4.44-6.05-7.01,4.43.24,7.67,3.29,8.66,7.7,2.45-7.02-.17-14.35-5.32-19.59-10.09,8.83-15.1,4.52-20.66,5.6-1.51.29-3.19,2.59-4.63,3.66l2.21-4.11c-1.81-.38-3.7-.08-4.94.85l-2.94,2.18c2.13,5.22,5.54,7.49,6.23,9.99ZM320.09,365.49l20.67-11-7.76.06-30.83,18.83.8,1.1,17.12-8.99ZM155.01,393.39c8.35,1.93,15.9,3.9,23.41,6.48,7.2,3.95.49-8.14,5.84-16.33l5.62-8.61c-2.68-3.07-4.84-5.7-5.2-9.54-.2-2.15.56-5.38.12-7.43l-3.86-7.27c-3.11,6.69-11.5,8.95-12.14,16.15-.29,3.24-1.77,4.62-4.87,5.23-3.43,2-1.1,6.69-4.82,9.42-3.1,2.28-1.22,6.36-4.09,11.91ZM312.93,382.87l3.97-2.61c3.38-2.22,7.95-1.29,10.41,1.91l3.72,4.86.27-9.23c.04-1.35,1.94-3.6,2.92-4.66-2.15-2.74-3.9-5.91-5.46-9.43l-26.4,13.52.41,7.48c2.52-.16,6.4.06,7.14,2.06.98,2.64,1.38,3.55,4.04,4.36,1.24.38,3.8,1.27,5.04.77.53-.32.57-1.93.31-2.51-1.15-2.53-5.28,1.36-7.19-2.31-.55-1.07-.48-3.34.84-4.21ZM357.1,374.38c.98.34,3.75-.47,4.14-.64-2.14-3.72-6.41-3.31-9.83-1.31l5.69,1.94ZM351.86,393.09c1.88-.14,3.5-.46,4.1-1.08s1.06-2.59.99-3.54l-.42-6.13c3.34,3.2,3.34,6.86,1.37,10.8,1.06.05,2.69-.07,4.22-.35,2.08-7.41,3.05-17.66-1.45-17.02-2.5.36-4.26.39-6.22-.55-2.66-1.26-5.01-1.39-8.13-1.07l-5.11-1.92-6.75,3.13c-1.55,5.34-1.62,10.48.75,15.58.59,1.26,3.66,2.39,5.04,1.79.97-.43,2.07-3.15,1.76-4.19l-3.34-11.42c4.77,3.74,5.41,9.44,5.11,14.69.46,1.94,4.64,2.38,5.7.89l-.87-13.69c3.56,4.28,3.25,8.88,3.26,14.06ZM323.79,396.51c.76.2,3.17-.28,4.03-1.18.33-3.34-.23-7.58-2.79-10.03-4.07-1.72-7.99.36-9.85-1.52-.27-.02-.66,1.6-.51,2.34.39,1.86,4.53-1.16,5.72,1.9l.92,2.39,3.86-.03c.12,2.32-.33,3.65-1.39,6.13ZM112.77,392.71l16.82-2.55,8-1.31c2.61-1.92.54-6.01-.63-8.16-1.83-3.39-3.7-4.84-7.13-6.08-4.3-1.54-8.5-2.72-13.24-1.91-7.59,1.31-14.94,3.27-22.04,6.1-4.28,1.71-6.62,5.65-6.36,10.35,7.8,3.74,15.71,6.35,23.99,8.92,2.96.92,5.66,1.56,9.01,1.38-3.28-2.6-6.19-3.15-8.42-6.74ZM308.74,394.52l-.41-6.25c-.96-.99-3.28-1.7-5.1-1.82,0,4.19,1.04,8.1,3.19,11.18l2.32-3.11ZM320.91,396.56c.97-1.12,2.28-3.22,2.91-4.5-4.4,1.73-7.41,2.67-11.8.06l.66,4.18,8.24.27ZM315.23,398.86l.24,3.51c6.37.52,12.69.91,18.87-.65l5.12-2.69,30.32-.62,1.32-.75c.28-.16-.13-1.28-.44-1.28l-1.41-.03-16.85-.62c-9.31-.34-17.93,3.73-27.69,3.39-.61.74-1.37,1.91-2.05,1.97s-2.28-.54-2.59-.77l3.65-.86-8.49-.6ZM297.43,397.51c1.97-1.26,2.07-2.9,1.41-4.54-.37-.9-1.66-1.42-3.37-1.12l1.97,5.65ZM285.89,404.12l10.02-5.98-2.79-5.5-15.47,12.17-.85,4.3,9.09-5ZM277.52,401.89l10.05-8.1c-4.09-.4-7.97,1.19-11.16,3.33l1.11,4.77ZM265.01,395.15l-.77,7.42-3.81,18.31c11.51-7.87,17.71-12.65,12.72-25.95-3.04-2.03-7.47-2.79-11.27-2.34l-35.18,4.18-7.65,2.3,1.31,6.66c1.26-5.74,27.02-10.26,32.93-10.37l11.72-.21ZM306.05,401.32l-2.27-5.94-4.36,3.16c2.48,1.5,3.97,2.11,6.63,2.78ZM247.46,400.53l11.89-3.64c-10.71-.07-20.54,1.66-30.78,5.17,2.39.73,4.6.53,7.03-.25,7.59-2.44,9.5-.55,11.85-1.27ZM236.34,411.47l3.77,6.93,6.91,6.81,3.96-.88.9-9.2c.5-5.04,2.2-10.05,5.69-13.7l4.73-3.35c-5.45,2.38-9.9,3.58-15.65,4.21l-5,.55c-2.92.32-5.55,1.61-8.39,1.52-3.77-.12-6.6-.57-10.75-.06,4.65,3.22,10.57,1.16,13.83,7.16ZM294.91,405.9c4.36-.71,8.39-1.23,12.03-2.72l-18.52,3.01.37.71,6.12-1ZM135.7,397.29c12.39,2.98,24.27,4.98,36.66,6.5,2.52.31,5.51-.74,7.65-1.29l-9.67-2.98-33.79-7.92c-1.23-.29-4.03.48-5.24.72l1.53,3.38-3.98-3.16-12.6,1.09,5.71,4.37c4.32-2.52,8.77-1.9,13.74-.7ZM255.2,408.73c-1.49,4.95-1.17,8.79-1.35,13.74.18.37,2.64.56,3.45.15s1.38-2.03,1.62-3.18l3.78-17.65-4.82,2.73-1.45,10.25-1.24-6.03ZM227.35,423.74c-3.41-6.06-6.56-11.95-8.82-18.54l-1.25-5.51c-3.28,1.29-5.87,2.88-8.16,5.65,3.23,11.78,5.6,18.77,18.22,18.41ZM289.05,415.25c8.4-3.76,14.2,2.03,22.19,5.25l-14.77-12.6-13.63,3.47c-5.69,1.45-13.1,4.92-12.17,9.18,5.54-6.19,12.92-10.17,18.38-5.31ZM147.05,408.26c.61-1.18.84-3.79-.11-4.01s-2.31-.27-2.45-.75l-.53-1.93-9.99-2.61c-1.78-.46-5.6-1.84-7.23-.93l-7.36,4.14c.43.8,1.11,2.03,1.21,2.74l.71,4.87c6.97-7.71,18.41-9.62,25.75-1.52ZM152.66,418.22c.67-1.84,3.65-4.12,5.27-5.08,2.51-1.49,4.67-.25,7.05,1.65l-1.06-3.69c-.19-.65,1.21-1.94,1.84-2.19l6.83-2.77-22.47-3.47c.04,3.78-.89,7.49-2.25,10.68,2.25,3.65,3.88,7.24,3.71,11.92l-.2,5.43,4.14-1.38c-2.4-3.2-4.44-6.77-2.86-11.08ZM244.37,425.61c-1.51-3.19-5.26-2.71-6.85-6.68l-2.51-.5c-3.15-1.36-5.88-5.19-7.06-8.89l-6.82-1.93,8.18,15.05,3.55,5.17,5.99-2.1c-1.75-1.39-2.46-1.95-2.66-4.13l8.16,4.02ZM236.12,417.94c.22-4.28-2.62-6.29-5.64-8.08,1.2,3.42,3.01,6.38,5.64,8.08ZM187.39,407.74c-3.17-.57-6.2-.03-9.48.65l-10.12,2.12c-.35.07-1.14.55-1.42.75-.18.14.38.88.53,1.01,6.93-2.15,13.33-3.35,20.49-4.53ZM124.8,414.77c1.15-4.85,5.06-6.57,9.14-6.93,4.47-1.56,8.06.07,11.69,3.14-3.98-8.12-16.97-7.04-23.14.03l.15,4.77,2.16-1.01ZM299.98,425.78l7.29-4.28c-4.36-2.98-9.93-5.14-16.05-5.18,2.24,3.41,3.16,6.82,3.72,11.54l5.04-2.08ZM190.95,409.7l-3.95,1.86c-3.42,1.61-6.64,2.26-10.6,2.41l12.39-4.49c-7.52.36-14.05,1.76-21.05,3.81l2.38,8.73c6.62,1.92,14.26-.87,21.14-2.86l-.31-9.45ZM291.57,423.4c-.24-2.41-1.86-5.16-4.62-5.63-3.26-.55-6.9-.26-9.85.53,2.53.88,4.02,2.46,5,4.08l9.46,1.02ZM205.27,413.7c-3.46-.8-5.7-1.76-8.66-1.39,4.39,1.85,8.27,2.57,12.44,3.4-.45-2.35-2.35-1.68-3.78-2.01ZM138.76,413.86l5.44-2.26c-3.59-2.59-6.29-2.52-9.67-1.87-4.93.94-7.83,3.89-7.6,9.67l-2.12-1.58c-.15.76.14,2.27.74,2.43,2.16.57,5.17-5.88,13.2-6.39ZM325.48,422.54c-7.73-1.45-15.41-.38-21.62,3.79l-1.42,5.81c8.08.75,19.71-2.22,23.04-9.6ZM266.64,425.63l1.01-6.38-8.6,5.45,7.53,1.4.06-.47ZM279.95,422.01l-5.43-2.63.79,5.81,4.65-3.17ZM212.85,421.33c-1.44-3.02-4.11-2.98-6.56-3.15l-12.07-3.81c-.31.8-.54,2.13-.16,2.55s1.6,1.18,2.18,1.29l16.62,3.13ZM266.91,426.35l11.11,7.97c-.01-3.1,1.1-5.48,4.02-6.07,3.34-.67,6.55-.51,10.21-.14l.13-2.56-7.33-.92-2.13-.25c-.58-.07-.9,1.75-1.37,2.22l-3.27,3.27c-.42.42-1.68.98-2.22.95-.64-.04-1.45-1.49-1.6-2.21l-1.46-7.44-5.7,4.91-.41.26ZM135.19,436.97l-1.93-11.99c4.01,3.02,3.24,7.29,3.63,11.39l5.3-1.71c-.74-3.57-1.66-7.22-1.03-10.98,2.22,3.29,2.54,6.26,3.25,10.14l4.3-1.4.33-5.51c.3-5.03-.32-9.88-4.26-13.36l-5.35,1.61c-3.24.98-6.07,1.01-8.64,3.56-1.76,1.74-3.89,2.74-6.49,3.76l-1.04,9.21c-.29,2.6,1.73,4.44,3.54,5.55l1.05,2.29c.18.4,1.5.33,1.73.26-2.06-4.29-3.39-8.03-2.76-13.1l4.24,10.64,4.14-.37ZM161.16,427.49c3.88-2.75,5.51-6.77,4.55-10.82l-4.93,3.63.38,7.19ZM193.53,420.59l-9.74,3.3-1.81.63c-.31.11.12,1.29.42,1.43,1.51.74,7.69-2.44,11.13-5.36ZM206.39,422.05l-7.81-1.25,5.25,3.86,2.56-2.61ZM351.5,539.83c-3.34-4.41-5.33-8.17-5.81-12.81,1.19.73,2.05,1.72,2.53,2.64l3.77,7.28c1.09-11.85-.3-22.62-2.54-34.03-1.19-6.06.78-13.06,2.33-19.13,1.06-4.16-.12-7.2-3.29-9.81s-4.03-7.33-3.37-11.1c-2.24-1.24-4.06-2.61-5.13-4.87-4.71-9.97-10.54-19.1-17.07-27.95l-7.36,3.15c1.43,4.47,2.34,9.63,1.94,14.77l-1.69,21.91c-.42,5.48-.54,10.51.25,15.98.3,2.08-1.31,3.54-3.22,4.89,7.22-1.02,12.59,2.26,15.22,8.63,1.37,3.31,1.38,7.11,1.9,10.84l5.35,38.18c6.4-.55,12.77-3.25,16.19-8.57ZM159,420.16c-2.01.29-2.62.44-2.87.1l-1.12-1.58c-1.37,3.15-.44,7.18,3.19,9.7.79-2.72,1.1-5.8.8-8.22ZM217.02,426.4l4.03.38.21-1.02-11.46-2.87c-1.29-.32-2.43.12-3.47,2,3.2.97,6.62,1.14,10.68,1.52ZM286.88,436.75l12.57-4.56.35-3.42-13.22,4.44.3,3.54ZM229.23,426.82l-6.11-.91c1.69,1.78,2.79,2.74,4.62,3.88.79.49,2.4-2.83,1.48-2.97ZM274.49,493.6c3.74-3.43,7.36-8.66,8.39-13.42l4.26-19.64c.97-4.48-.67-8.2-2.26-12.6,1.94,1.57,2.82,3.72,3.82,6.09,1.17-1.83.56-4.89-1.28-5.65-1.95-.8-3.25-1.63-4.66-2.93l-14.38-13.25c-2.76-2.55-6.06-3.87-9.91-3.29l-11.05,1.66c-5.13.77-10.91,1.56-14.84,5.28-4.32,4.09-5.96,9.99-8.64,15.15l-4.91,9.42c-1.36,3.87.22,7.71,1.97,11.13,4.05,7.94,8.72,15.05,15.16,21.14,4.3,4.06,9.17,6.44,15.35,5.93,7.66-.63,15.56-1.64,22.97-5.01ZM169.03,426.78l-1.29-3.57-5.09,6.55,6.38-2.98ZM311.6,487.31c.01.38,1.8.91,1.79.49l-.04-1.71c-.12-4.77-.67-10.16-.23-15.16l2.18-24.96c.35-4.01-.21-7.93-1.09-11.83l-3.22.49,1.94,2.08c-5.85-2.22-12.42-2.65-17.58-.36l6.98,38.17c2.2.92,3.07,3.12,3.77,5.01,2.78,1.5,5.42,4.56,5.52,7.76ZM199.2,427.89l-6.04-1.39c-1.93-.45-3.71-.62-5.77.74l6.99,1.93c1.39.38,3.29-.17,4.81-1.27ZM284.26,435.74c0-.57-.25-2.65-.78-2.43l-2.22.93c-.53.22.26,1.72.59,2.2l1.11,1.65c.23.33,1.3-.28,1.3-.68v-1.66ZM221.31,432.69c-2.04-3.11-5.46-4.28-8.79-2.58l8.79,2.58ZM193.63,559.88l6.73-1.23-5.24-28.63c-1.12-6.14.63-11.6,6.39-15.34-5.75-5.34.66-10.92-6.15-23.14l-7.5-13.43c-3.58-6.41-2.63-14.04-.45-21.15-7.41.11-17.37-1.76-15.93-5.15,2.53-5.97,10.69-2.61,15.35-9.4l7.34-10.7c-2.29-1.03-4.71-1.34-7.05-.98l-1.96-1.66-4.19,2.48-6.24,4.29c-3.83,12.91-7.34,25.87-9.89,39.19-1.43,7.47-1.75,14.42-1.78,21.82,0,2.04-.29,2.01,1.2,4.47l-4.19.41,2.37,4.57c1.86,5.7,4.1,10.54,7.18,15.61,4.71,7.75,3.08,13.69,8.68,16.64-2.59,8.46,4.6,13.65,12.87,15.91-3.05.47-5.62-.37-8.64-1.72,1.42,5,5.66,8.14,11.11,7.15ZM172.67,429.76c-1.22-1.71-7.25.27-10.33,2.83,3.53-.13,6.39-.88,10.33-2.83ZM215.69,434.06l-6.88-2.21c-2.35-.76-4.85,2.42-3.86,4.68,3.58-1.24,6.75-1.99,10.74-2.47ZM288.79,475.75l10.62-1.34-6.6-37.1-7.77,2,4.3,5.13c5.83,6.96.93,21.15-.55,31.31ZM178.25,430.3c-3.82,1.06-7.73,2.8-11.57,4.83,4.52.61,8.51-1.35,11.57-4.83ZM202.19,437.56l-.15-5.02-6.38-.42-7.09,12.11,13.23,1.41c-.85-3.22.49-4.96.39-8.08ZM122.34,449.52c.15-1.56.04-1.82.29-1.75l1.15.32c10.29-5.47,20.77-10.23,31.82-14.03.75-.1,1.83-.37,1.71-.8l-.36-1.32c-.09-.32-1.28-.21-1.65-.06l-11.68,4.84c-7.47,3.09-14.52,6.06-21.51,10.22-1.37.81-4.08,1.11-4.34,3.36-.11.96,1.74,2.44,2.5,2.07s1.86-2.04,2.07-2.84ZM221.69,447.42l4.17-8.6c-4.2-1.74-8.74-2.74-12.84-1.64,2.33.91,3.79,1.61,4.71,2.81.64.85.03,3.22-.37,4.44l4.33,2.98ZM212.29,447.36l4.3-4.78-4.28.59c-1.04.14-2.62-.77-3.41-1.58-.36,1.05-.81,3.8-3.2,1.98l4.99-6.41-6.58,3.33c-.65.33-.81,2.79-.31,3.29s.89.6,2.71,1.48l-2.07,2.49,1.14,3.32,6.08.94c-.18-1.39-.14-3.78.64-4.65ZM189.62,453.45c1.3-2.38,1.92-3.98,2.25-6.09-4.08-.92-7.03.23-10.24,2.43-2.83-.47-5.69-.33-8.19,2.54l16.19,1.12ZM202.18,450.78c.94-.35.37-2.84-.55-2.84h-5.94c1.2,3.05,3.26,4.04,6.49,2.84ZM206.93,508.84l3.58-9.86,1.81-5.74-5.84-39.39c-2.27-.74-4.71-.24-7.03.41l-10.24,2.89c-2.56,6.52-2.27,14.1,1.27,20.34l8.24,14.55,8.21,16.8ZM216.02,455.44l-6.69-1.11,5.56,37.07c3.41-2.08,6.43-3.04,9.69-3.26-5.37-11.13-12.43-21.02-8.56-32.7ZM287.43,498.46c3.52-4.29,12.05-4.03,17.93-3.79l-2.75-16.29c-.4-2.34-4.99-2.49-6.78-2.1l-9.86,2.11c-1.36,6.55-4.59,12.09-9.58,16.77l9.02,4.06c-1.47-3.08-3.42-3.52-4.94-6.18,2.96,1,4.89,3.22,6.95,5.43ZM317.68,556.55l2.58.96,3.96-2.57c-2.3-15.24-4.11-29.74-5.23-45.01-.19-2.53-.14-6.47-1.49-8.13-1.62-2-2.65-2.75-2.76-5.39-.14-3.24-2.53-5.56-4.86-5.58-.79,0-2.22,1.16-2.27,1.61,2.56.18,4.45.55,5.36,1.83.67.94.51,3.98-.59,4.47-1.48.65-3.13.89-4.94,1.2l5.69,32.81,1.76,7.6,2.78,16.22ZM333.05,556.37l-3.44-25.83c-1.14-8.55-2.17-16.82-2.38-25.46-.15-6.37-4.71-11.36-11.34-11.83,1.11,3.28,2.36,6,4.33,9l6.53,51.83c.29,2.27-.85,3.61-2.6,5.06,3.22,0,6.12-.61,8.9-2.76ZM311.74,496.38c.06-.9-1.94-1.91-2.87-1.92-1.18,0-2.36,1.64-1.79,2.95.77,1.77,4.5,1.21,4.66-1.03ZM227.63,493.79l-2.84-1.3c.86-2.12,4.15-1.95,5.01-.5,1.81,3.04,1.98,7.38.88,10.69l1.92,3.31c1.7-2.73,3.88-3,7.04-1.66l2.42-4.2c-5.58-2.04-8.97-5.08-12.16-9.68-7.09-.6-17.04,2.39-15.95,7.66l3.01,14.59c6.1-3.78,11.53-3.84,18.27-3.57-2.03-1.54-4.83-1.17-7.21-1.43-.83-.61-1.49-3.42-.92-4.44.47-.84,1.65-1.71,2.76-2.62-2.03-.23-3.36-.98-3.76-3-.23-1.15.57-2.82,1.55-3.84ZM310.68,533.76l-6.29-37.1c-5.1-.55-10.38-.72-15.56,1.9l4.53,25.72c6.28,2.51,11.75,5.52,17.32,9.48ZM263.14,500.15c2.95,2.29,6.51,3.55,8.53,1.88l5.39-4.43c-2.77-.23-5.42-.17-8.19.47l3.89,1.06c-2.82,1.54-6.26-1.62-9.62,1.02ZM287.36,503.36l-.04-2.88-6.77-.5-4.71,2.58,11.52.79ZM270.45,510.5l7.5,2.46c-6.49-3.76-12.73-6.52-18.53-10.72-1.44-1.04-2.35-1.99-4.32-.47,4.43,4.5,9.56,6.84,15.34,8.73ZM248.97,501.41l-5.04-.56c-.59.43-.91,2.69-.68,3.32l5.72-2.76ZM236.25,513.68c5.09-4.2,12.45-7.14,19.18-7.88l-2.61-4.44-8.58,4.03-1.85,3.26-5.61-.04-.52,5.07ZM289.34,517.43l-1.85-12.39-17.43-.55c7.65,3.82,14.42,6.36,19.28,12.94ZM212.86,507.13l-1.31-4.46-2.25,8.39,3.56-3.93ZM287.98,523.23c-1.56-1.92-2.9-3.23-4.61-4.03l-17.69-8.24-27.6,5.25c3.15-2.82,7.12-3.03,10.83-3.6l14.03-2.15c-7.01-5.38-18.89-.38-26.15,5.14l2.86,17.18c3.77-2.1,7.51-3.39,11.51-3.74,3.56-3.35,7.45-5.78,12.28-6.96,5.34-.84,10.96-1.17,16.17.33,2.93.84,5.19,1.29,8.37.82ZM237.55,533.56l-3.61-22.81c-5.19-.28-10.49.46-14.85,2.96l6.02,35.27,12.45-15.42ZM216.93,578.64c.86.71,2.22,1.3,2.82.79.88-.76.9-2.1.51-3.13-1.62-4.29-2.46-8.42-2.7-13.16l4.64,11.44,3.81-1.79-1.97,20.37c-.47,4.89,1.57,22.32,2.92,21.82l1.76-.65-.39-18.95c.27-11.06-1.72-21.3-3.55-32.2l-8.02-47.81c-3.21-.6-1.68-2.81-3.77-5.59-.17-.23-.84,1.24-.76,1.55.81,2.92,1.89,8.2,1.52,11.79-.62,6-.35,11.31.63,17.04.76,4.45,2.06,8.76,1.2,13.69-3.36-8.25-4.58-16.62-4.29-25.37.2-6.03.56-14.68-2.22-15.93-1.59-.71,1.17,4.28-1.62,8.17-2.14,2.98-2.68,5.98-2.04,9.55l5.08,28.07,1.59,16.3,4.86,4ZM216,581.23c-2.72-1.51-6.11-3.11-6.6-6.38l-3.79-25.32-2.94-19.81c-.96-6.47,4.83-9.98,3.73-16.49-5,2.7-10.21,8.3-9.44,12.25l3.54,18.15c1.85,9.48,6.64,37.23,11.27,38.52.96.27,3.09-.38,4.24-.91ZM286.63,529.39c-12.56-9.48-33.07-6.53-38.77,8.65,12.94-9.99,23.23-11.67,38.77-8.65ZM319.61,586.29l-3.17-18.73-4.27-28.78c-8.14-7.01-17.7-12.26-28.58-13.67,3.81,3.93,8.5,7.49,10.66,12.52,3.25,7.58,5.24,15.29,7.65,23.14,3.53,11.48,6.88,22.28,11.78,33.63,2.87-2.19,2.03-6.28,5.92-8.11ZM306.08,583.23l-12.31-42.71c-1.45-5.03-9.42-10.87-16.18-9.44l4.53,2.29c.71.36,1.16,2.57,1.51,3.33,3.01,6.49,5.14,13.1,7.25,19.94l3.3,10.74c8.83,2.13,3.84,13.4,11.9,15.86ZM258.71,592.04l17.53,95.49,4.73,30.75c7.28,3.5,15.06,5.35,22.97,3.18,4.52-1.24,11.06-4.76,11.73-9.9l-2.4-23.02-4.03-23.33-16.26-89.25-8.02-31.31-2.93-10.26c-7.9-4.62-19.72-3.53-27.02,1.73-2.53,1.82-3.34,5.63-4.97,8l2.07-6.38c-4.04,2.34-9.42,6.84-8.78,12.73,2.02,18.6,3.35,36.82,3.1,55.34l6.59,1.64-4.6-29.28c-.4-2.52.45-4.03,3.48-4.77l-1.76-15.07c-.53-4.5-.87-8.89.19-13.18l8.39,46.9ZM244.09,606.93l-2.45-53.67c-.8-5.67,1.44-9.88,4.33-14.34l2.94-7.22c-5.34.78-10.05,4.01-13.41,8.26l-7.92,10.03c-.97,1.22-2.1,3.62-1.74,5.22l5.99,26.32,3.91,18.35c5.15,3.61,5.91,9.08,8.35,7.06ZM323.45,594.3c3.05,4.04,3.9,9.71,1.04,13.62l4.78,5.87c3.3-3.76,4.9-8.98,5.67-14.05.61-3.99.37-7.5,2.69-11.48l.09,9.22c8.78,2.66,17.41,3.15,26,1.39,3.32-.68,5.83-3.38,6.59-5.97,1.79-6.13-3.22-12.65-9.54-14.71-1.99-1.78-2.87-4.69-6.06-5.86l3.84,5.67c-1.36.2-3.22-.71-4.32-2.11-4.44-5.63-7.48-12.54-7.2-20,.14-3.7,1.71-7.19,2.74-11.15-4.47,3.17-8.51,5.39-14.29,4.54l-.29,7.7c-.05,1.29-2.05,2.58-3.65,2.9,2.68,6.23,4.48,12.64,4.97,19.21,2.66,2.86,3,7.07.1,9.53l-11.62,3.98c-.02-1.78,1.5-1.97,3.31-2.05.13-5.23.47-10.99-.7-16.12l-3.97-8.51c-.54-1.15-3.06-2.25-3.82-1.45-.24,1.73.03,3.78.35,5.57l3.27,18.44c.33,1.87,1.59,3.54.03,5.81ZM333.5,575.76l-3.21-14.85c-2.76.38-5.09.56-7.38.15-.44-.37-1.54-1.68-1.82-1.28l-1.35,1.91c6.75.83,6.61,6.64,8.55,8.66l5.21,5.41ZM181.56,607.47l2.32,3.74c-.11.53-.42,1.45-.08,1.59l1.45.59c7.92.39,15.11-2.48,21.2-7.82l1.23-23.6-2.2-3.64-.91,3.56-2.22-7.76,2.17.87-3.91-14.72-6.84,1.98.27,4.74,3.51,2.66-4.46-1.4c-1.08,3.19,3.25,3.12.8,7.95-1.28,2.53-1.18,4.58-.38,7.12,1.43,4.53.98,10.07-4,12.4,3.26-5.56,3.72-11.74.15-17.38-1.7,10.25-9.35,18.36-8.11,29.11ZM314.45,674.43c-.85-17.82-4.82-34.34-7.45-51.66l-8.3-40.27-2.95-12.55-.59.37,5.37,28.2,5.3,28.56c3.14,15.86,4.96,31.46,8.62,47.36ZM334.63,580.31l-4.21-5.44.99,13.01c1.61-.29,3.88-1.46,4.34-2.66.5-1.33-.25-3.79-1.12-4.91ZM271.35,678.78l-13.43-73.45-6-29.92-.87.41,5.38,32.51,12.57,66.7c.32,1.72.48,3.68,2.34,3.76ZM219.42,587.48c-.24-.85-.42-2.83.32-3.32l2.96-1.96c1-.66,1.39-3.49.45-4.89-1.14,3.19-2.25,4.33-5.64,5.82l1.36,4.74.55-.39ZM311.8,597.26l-4.24-9.38,1.03,10.76,3.21-1.38ZM323.48,605.3c.96-7.89-2.99-11.09-3.14-10.74l.93-2.05c.22-.49.37-1.59.15-2.07s-1.65-.84-1.79-.45l-4.35,8.41-7.09,2.33,1.04,7.05,14.26-2.47ZM218.22,610.92l-1.94-21-1.63-6.36-1.27.24,2.39,12.83c.93,5,.9,9.82,2.46,14.29ZM214.48,604.14l-3.12-18.66c-.02-.47-.36-1.86-.65-1.55l-1.19,1.27-1.44,24.34c2.11,2.17,5.01,3.73,7.89,3.55l-1.5-8.95ZM219.56,587.98l-.44.26,2.56,8.51.52-6.37-2.64-2.4ZM239.33,632.59c.21-4.58-1.89-7.88-4.49-10.69-2.41-4.4-1.47-9.01-.67-13.78-.36-4.41-1.77-9.45-2.92-14.04l-.02,23.4c0,3.11,1.97,5.37,3.52,7.82l4.59,7.28ZM340.5,604.65l3.42-1.2c-2.81-.59-5.05-.59-7.59,0,.35,1.11,1.84,2.88,2.72,2.7l5.82-1.18-4.38-.32ZM339.03,611.48l11.28-2.39c1.27-.27,2.07-1.92,1.66-3.21l-13.44,2.26c-.55.62-.23,2.9.51,3.34ZM228.39,616.63c-.68.06-1.58.38-1.52.78l.22,1.57c.35,2.44-.3,4.39-3.07,4.82,1.35-3.23.36-5.78-.33-8.73l-4.25-18.11.82,12.96,2.49,12.58c.59,2.95,1.74,5.07,4.29,6.73,5.41,3.52,6.79,7.47,10.83,8.62-.01-8.44-8.99-11.93-9.5-21.21ZM313.81,613.19l8.46-1.52-1.01-4.42-11.88,2.81,1.67,5.2c1.1-1.03,2.05-1.95,2.76-2.07ZM242.51,630.2c3.51-3.41,7.44-1.14,10.96-3.69l-10.02,1.54c-.47.07-1.58-.72-1.84-1.21l11.31-1.38-2.08-13.49c-2.38-1.24-5.34-.97-8.18-.4l-3.61-4.11c-.96.23-2.95,1.47-3.28,2.48-.52,1.6.03,8.83,1.99,11.83,4.69-1.39,8.62-2.58,13.3-1.83l-11.62,2.34,3.4,12.38,11.11-2.29-.46-3.72-10.98,1.55ZM322.83,615.65l-9.22,2.23c1.14-2.5,2.72-2.26,4.94-3.38l-6.64.57,1.45,6.65,10.57-2.92c.42-.89-.26-3.09-1.1-3.15ZM196.91,613.7c4.12-.17,7.25-2.21,9.06-5.49l-9.06,5.49ZM208.02,614.41c-1.48-2.39-3.08-1.62-4.53-.78l-3.99,2.31,8.52-1.53ZM315.15,628.54l8.77-4.4c.83-.42.8-2.56.24-3.49l-10.1,2.73,1.09,5.16ZM220.39,622.11c-.22-2.71-2.23-4.32-4.38-3.96l2.26,5.02c.32.7.42,1.05.64,1.36s1.69.07,1.66-.3l-.17-2.12ZM215.08,621.82l.13-2.13c-4.42.77-9.06.54-13.89-.14-1.18-1.98-2.83-2.01-4.93-1.55l-2.28.4c-.49.09-.33,1.66,0,2.05,1.15,1.4,4.66-.02,11.25.54l9.73.83ZM320.04,632.64c-4.47-.01-5.87.31-8.4-2.31l.52,4.13,7.88-1.82ZM254.68,638.58l-.18-4.41-11.61,2.18,1.24,4.49,10.56-2.26ZM262.8,662.6l-3.5-17.01-3.61,1.09,1.14,5.77c.8,4.04,2.03,7.63,5.97,10.15Z"/>
    <path class="cls-1" d="M412.81,175.51l-5.25.27c2.02-.74,4.55-1.24,6.84-1.11l21.69,1.27c7.26.42,13.22-2.25,19.3-6.38-4.58,5.84-12.15,7.49-19.36,7.57l-12.45-.87c-3.61-.25-6.88-.94-10.78-.74Z"/>
    <path class="cls-1" d="M208.94,379.64c-8.08-1.74-14.41-8.97-14.45-16.95-.05-11.56-1.88-22.52-5.04-33.57l-1.02,10.62-.46-.4c-.46-5.54-.1-11.42-.94-17.18-.94-6.37-3.97-11.91-4.15-18.68,8.27,18.83,12.53,38.63,14.27,58.98.46,5.44,2.82,9.52,6.91,13.02l4.87,4.17Z"/>
    <path class="cls-1" d="M215.8,341.16l-9.58-7.05c-4.81-3.54-9.15-7.53-12.77-12.3-2.57-3.39-3.51-7.71-3.2-11.89l.75-9.93c2.7,7.25-1.95,13.24,4.91,22.03,4.48,5.75,10.18,10.18,16.19,14.42,1.68,1.19,3.25,2.27,3.71,4.72Z"/>
    <path class="cls-1" d="M176.15,329.99c2.44,2.69,6.31,12.17,6.25,16.64-1.9-3.23-2.41-7.72-4.72-10.59l-7.1-8.8c-.73-.91-1.91-1.62-3.4-2.71l3.42-.48c1.5-1.31,4.08-1.71,5.69.14,1.15,1.33,2.08,3.23,2.79,5.05-2.8-2.06-4.45-4-8.13-5.01l5.21,5.76Z"/>
    <path class="cls-1" d="M302.99,338.56l4.72-8.81-3.36.21,1.98-1.25c.54-.34,2.18.41,2.74.95l-1.85,4.83c3.95-4.26,10.41-10.58,16.41-9.57-11.58,3.05-16.5,15.28-19.95,16.07-.57.13-1.01-1.86-.7-2.44Z"/>
    <path class="cls-1" d="M180.41,336.37c.93-6.27,1.49-11.86-.82-17.43l-7.39-17.83c7.01,9.12,14.77,26.34,8.21,35.26Z"/>
    <path class="cls-1" d="M286.12,316.39l6.34-9.08-3.24.21c-.8.05-1.41-1.46-2.28-2.79-.52-.21.08-.99.62-1.09l2.44,2.32c1.23,1.17,5.5-3.07,8.2-1.35-4.81,4.25-8.76,8.35-11.68,13.62-.21.38-1.06,1.52-1.39,1.25-.42-.36-1.57-1.33-1.43-1.2,1.1-.68,2.04-1.33,2.42-1.88Z"/>
    <path class="cls-1" d="M271.35,316.12c-1.66-6.71-1.35-18.64,2.91-23.15l-.77,6.87c-.6,5.33.33,10.59-2.13,16.28Z"/>
    <path class="cls-1" d="M195.57,392.02c3.72,1.42,12.66-1.58,9.63.86-5.97,4.79-14.2,1.5-19.67-4.69l10.04,3.84Z"/>
    <path class="cls-1" d="M148.65,374.84c4.04,3.31,4.74,11.71,1.93,17.22-.02-6.11-.62-10.85-1.93-17.22Z"/>
    <path class="cls-1" d="M206.77,365.94l-2.72-11.57c-.77-3.26-2.68-5.63-4.83-8.35,6.06,2.28,8.86,12.58,7.55,19.92Z"/>
    <path class="cls-1" d="M246.42,342.42l9.26-11.03,2.35-6.38c.1,2.21-.39,4.52-1.32,6.83-2.93,4.15-5.81,8.06-10.29,10.57Z"/>
    <path class="cls-1" d="M221.82,345.38l-.59,1.98c-.91,3.02-10.51-3.11-13.74-8.3l10.39,7.4c.99.7,2.55.27,3.95-1.08Z"/>
    <path class="cls-1" d="M252.65,327.6c2.11-4.74,4.38-11.41,5.41-16.05.07-.3.92-1.36.92-1.15l-.04,1.29c-.16,5.49-2.34,11.69-6.3,15.9Z"/>
    <path class="cls-1" d="M289.3,291.72c-1.62,4.73-2.84,8.34-5.14,12.05l3.89-12.51c.19-1.27,1.57-.58,1.26.46Z"/>
    <path class="cls-1" d="M156.2,357.37c-5.14,1.12-9.07,2.04-13.48,3.92,3.61-3.18,8.9-4.65,13.48-3.92Z"/>
    <path class="cls-1" d="M343.72,518.74c.88,4.55-3.97,13.65-7.48,18.16l7.48-18.16Z"/>
    <path class="cls-1" d="M338.34,343.53c2.57-2.03,5.75-2.85,9.11-3.78l20.35-5.63c-5.37,3.31-11.29,4.79-17.33,6.49l-12.13,2.92Z"/>
    <path class="cls-1" d="M131.39,380.48c-10.06,3.14-22.82,4.69-32.81,2.71l9.3-.29,23.5-2.42Z"/>
    <path class="cls-1" d="M236.19,590.36c-1.94-1.57-1.71-4.96.35-6.47,1.24-.91,3.89-.28,4.67,1.18.58,1.08.62,3.19-.06,4.5-.74,1.43-3.57,1.92-4.97.79Z"/>
    <path class="cls-1" d="M315.35,571.81c.35,2.38-.64,4.15-2.84,4.59-1.73.35-3.54-.76-4.21-2.88-.75-2.34.1-4.63,2.33-5.2,2.03-.52,4.31.72,4.72,3.49ZM313.22,574.07c.58-.05.9-1.71.55-2.19s-1.18-1.25-1.71-1.51-1.99,1.42-1.85,2c.19.77,2.09,1.78,3,1.7Z"/>
    <path class="cls-1" d="M251.3,185.03l-12.82,8.74c3.17-4.35,7.73-7.21,12.82-8.74Z"/>
    <path class="cls-1" d="M249.89,417.13c.02,1.29-1.68,2.79-3.01,2.78-1.41-.01-3.09-1.72-2.45-3.5l5.43-1.58.03,2.3Z"/>
    <path class="cls-1" d="M288.77,493.97c-.61-1.63-.3-4.66.14-6.27.71-.32,2.69-.74,2.65-1.43l-.18-2.81c-.69,1.62-1.04,2.51-1.54,2.82s-1.85-.63-2.08-1.17c-.96-2.28-.5-6.23,2.46-6.49,2.23.87,3.06,4.68,3.43,6.98l.89,5.5c.15.93-.91,2.86-1.66,3.43-.85.64-3.75.44-4.12-.56Z"/>
  </g>
  <g>
    <path class="cls-1" d="M95.18,167.85c-1.83-3.84-3.17-7.84-4.5-11.84-.83-2.17-1-4.5-.83-7,1.17-10.84,3.17-21.35,7.84-31.52,2.84-5.84,4.84-12.17,7.34-18.18,1.67-4.17,3.33-8.17,5.34-12.17.83-2,2.17-4,3.5-5.67,3.17-3.67,6.34-7.34,9.67-11.01,3.33-3.34,7-6.5,10.51-9.84,7.67-7.67,14.68-9.67,25.52-9.67,16.68,0,27.69,10.17,29.52,26.85.33,3.67.67,7.17,1,10.84.17,1.67.17,3.17,0,4.67-.5,5-1.17,10.01-1.67,15.01-1.5,12.17-10.17,29.35-16.68,39.19-2.17,3.34-4,6.67-6,10.01-7,11.34-16.51,17.84-27.85,24.18-4.17,2.5-8.34,3.17-13.01,3.17-11.51.83-24.18-5.34-29.69-17.01ZM165.06,90.8c-.33-5.17-3.34-12.84-9.51-12.84-5.17,0-10.51,3.17-13.84,7.17-6.17,7.34-11.17,15.51-14.34,24.52l-1,2.5c-2.5,6.67-5.17,13.34-7.67,19.85-.83,2.33-1.5,4.67-2,7-1.33,6.17,1.67,12.84,7,16.18,1.33.83,2.5,1.17,3.84,1.17.67,0,1.5-.17,2.17-.33,4-1.5,7.17-3.67,9.84-6.84,2.33-3,4.84-6,7.17-9.01,2.5-3,4.17-6.34,5.67-9.84,1.83-4.84,3.84-9.51,5.84-14.18,1.67-4.17,3.5-8.17,5.17-12.34,1.33-3,2-6.34,1.83-9.67,0-1.17,0-2.17-.17-3.33Z"/>
    <path class="cls-1" d="M181.57,143.5c2-6.5,9.34-12.51,16.34-12.51,5.5,0,9.17,3.84,9.51,9.17,0,2-.5,4.17-.67,6.17-.33,1.5-.67,2.83-1,4.34,0,3.17.83,6.67,4.84,6.67,7.67,0,13.68-13.34,15.51-19.51,1.33-5.17,3.5-9.84,6.67-14.01,3-3.67,7.17-17.85,8.5-22.68.67-2.84,1.5-5.5,2.67-8.17,2.33-6.17,5-12.34,7.5-18.51,2-4.5,4.34-8.67,7.5-12.51,2.84-3.84,6.67-6,11.34-7,.5-.17,1-.33,1.67-.33,4-.33,7.17,2.33,7.5,6.34.17,1.33,0,2.67-.33,4-.67,2.33-1.5,4.5-2.5,6.84-.83,2.33-1.83,4.5-2.83,6.67-1.33,3.5-2.33,7-2.83,10.67-.5,3.83-1.67,7.5-3.17,11.17-2,4-3.84,8.17-5.84,12.34-1.67,3.17-3.33,6.5-5.17,9.67-4.5,8.34-7.5,17.34-9.34,26.68-1.33,8-3.33,16.84-10.01,22.18-9.34,7.34-22.68,14.84-35.02,14.84-13.34,0-18.01-11.84-21.01-22.68-.67-3.33-1.33-6.84-1.17-10.34-.17-3.17.33-6.34,1.33-9.51Z"/>
    <path class="cls-1" d="M267.46,167.85c-1.83-3.84-3.17-7.84-4.5-11.84-.83-2.17-1-4.5-.83-7,1.17-10.84,3.17-21.35,7.84-31.52,2.84-5.84,4.84-12.17,7.34-18.18,1.67-4.17,3.33-8.17,5.34-12.17.83-2,2.17-4,3.5-5.67,3.17-3.67,6.34-7.34,9.67-11.01,3.33-3.34,7-6.5,10.51-9.84,7.67-7.67,14.68-9.67,25.52-9.67,16.68,0,27.69,10.17,29.52,26.85.33,3.67.67,7.17,1,10.84.17,1.67.17,3.17,0,4.67-.5,5-1.17,10.01-1.67,15.01-1.5,12.17-10.17,29.35-16.68,39.19-2.17,3.34-4,6.67-6,10.01-7,11.34-16.51,17.84-27.85,24.18-4.17,2.5-8.34,3.17-13.01,3.17-11.51.83-24.18-5.34-29.69-17.01ZM337.34,90.8c-.33-5.17-3.34-12.84-9.51-12.84-5.17,0-10.51,3.17-13.84,7.17-6.17,7.34-11.17,15.51-14.34,24.52l-1,2.5c-2.5,6.67-5.17,13.34-7.67,19.85-.83,2.33-1.5,4.67-2,7-1.33,6.17,1.67,12.84,7,16.18,1.33.83,2.5,1.17,3.84,1.17.67,0,1.5-.17,2.17-.33,4-1.5,7.17-3.67,9.84-6.84,2.33-3,4.84-6,7.17-9.01,2.5-3,4.17-6.34,5.67-9.84,1.83-4.84,3.84-9.51,5.84-14.18,1.67-4.17,3.5-8.17,5.17-12.34,1.33-3,2-6.34,1.83-9.67,0-1.17,0-2.17-.17-3.33Z"/>
  </g>
  <g>
    <path class="cls-1" d="M185.54,45.26v-13.1h8.82v2.28h-6.05v3.12h5.6v2.28h-5.6v3.13h6.08v2.28h-8.85Z"/>
    <path class="cls-1" d="M197.48,45.26v-13.1h2.77v10.81h5.61v2.28h-8.38Z"/>
    <path class="cls-1" d="M213.67,32.17h3.42l3.61,8.8h.15l3.61-8.8h3.41v13.1h-2.69v-8.52h-.11l-3.39,8.46h-1.83l-3.39-8.49h-.11v8.56h-2.69v-13.1Z"/>
    <path class="cls-1" d="M233.3,45.26h-2.97l4.52-13.1h3.57l4.51,13.1h-2.97l-3.28-10.1h-.1l-3.29,10.1ZM233.11,40.11h7.01v2.16h-7.01v-2.16Z"/>
    <path class="cls-1" d="M245.41,45.26v-13.1h2.77v10.81h5.61v2.28h-8.38Z"/>
    <path class="cls-1" d="M266.24,45.26h-4.64v-13.1h4.68c1.32,0,2.45.26,3.4.78.95.52,1.68,1.27,2.2,2.25s.77,2.14.77,3.5-.26,2.54-.77,3.52-1.25,1.73-2.21,2.26-2.1.79-3.43.79ZM264.37,42.89h1.76c.82,0,1.51-.15,2.07-.44s.98-.75,1.27-1.36c.28-.62.42-1.41.42-2.39s-.14-1.76-.42-2.37c-.28-.61-.71-1.07-1.26-1.36-.56-.29-1.25-.43-2.07-.43h-1.76v8.35Z"/>
    <path class="cls-1" d="M275.6,45.26v-13.1h8.82v2.28h-6.05v3.12h5.6v2.28h-5.6v3.13h6.08v2.28h-8.85Z"/>
  </g>
  <g>
    <path class="cls-1" d="M106.65,732.16c1.83,1.17,3.17,2.83,3.84,4.84,1.33,3.84,1.67,7.67.5,11.51-.67,2.83-2.33,5-4.67,6.67-2.84,1.67-5.84,2.67-9.01,2.67-3.67,0-6.5-1-9.34-3.5-.83-1-1.83-2-2.67-2.83-1-1-1.83-2-2.67-3-1.83-2.17-4-3-6.84-3-3.67.17-7.5.17-11.34.17-1.83,0-3.84-.33-5.84-.5-13.51-1.83-20.85-18.18-21.85-30.19-.67-7.5-.5-15.01.5-22.52,1-8,3.67-15.34,7.17-22.51,3.17-6.67,6.67-13.34,10.01-19.85,3-5.84,6.84-11.01,11.17-15.84.83-1.17,2-2,3-3,4.34-3.67,8.67-7.51,12.84-11.17,3.34-2.83,7-5.17,11.34-6,1.17-.33,2.33-.67,3.67-.67,5.67-.5,11.51-.17,17.18,1.17,2.67.67,5.17,2,7.34,3.67,2.5,2,4.84,4,7.17,6.17,2,1.67,3.34,4,4.34,6.5,2,6.34,3.34,12.67,3.34,19.35,0,2,0,4-.17,6-.33,2.33-.5,4.67-1.33,6.84-2.67,7.67-4.5,15.51-6.67,23.35-3.17,12.67-7.67,24.18-16.68,34.02-1.5,1.67-3.17,3.34-4.67,5.17-1,1.17-2.17,2.17-2.67,4.17,1.17.83,2,1.67,3,2.33ZM90.81,701.48c2.33-1.83,4.34-4,5.84-6.67,1.83-3.5,3.67-6.84,5.5-10.34,2.17-4.34,4-8.84,4.67-13.84.5-4.17.67-8.34,1-12.51,0-1.67,0-3.33.17-5,.33-2.67-.17-5.17-1-7.5-.5-1.17-1.17-2.17-2-3-1-1.17-2.33-1.83-3.67-1.83-.83,0-1.83.17-2.67.67-8.01,4.67-18.01,12.51-21.68,20.85-2,5.17-4.17,10.34-6.67,15.34-3.34,6.84-5.5,14.18-7,21.68-1,4.17-.83,8.17.17,12.17.67,2.33,2,4,3.67,5.5,1.33,1,2.67.83,3.84-.5.83-1,1.33-2.33,1.33-3.67.17-1.83.17-3.67.17-5.67-.17-2.5.83-4.5,3-5.84,2.5-1.67,5.5-2.33,8.51-2,1.33,0,2.67.5,3.67,1.33.67.5,1.17,1,1.83,1.5.5-.33,1-.33,1.33-.67Z"/>
    <path class="cls-1" d="M137.67,674.13c1.33-3.5,2.17-7.17,3.33-10.84.67-2.5,1.67-5.17,2.33-7.84l2-9.51c.17-.67.17-1.33.33-2,2-12.17,12.67-33.86,27.18-33.86,5.17,0,9.84,3.34,9.84,9.01.17,3.34-.67,6.67-1.67,9.84-.5,1.67-1.17,3.33-2,5-10.34,19.18-16.18,40.69-22.01,61.54-1,3.67-1.67,7.34-1.17,11.17.33,2.5,1.17,4.5,2.67,6.5,1.83,2.33,4.17,3.17,7,2.33,1.67-.67,3.34-1.5,4.84-2.33,10.34-6.34,17.84-24.35,22.18-34.86,5-12.01,10.01-23.85,15.01-35.69,2-5,3.84-10.01,6-14.84,2.83-7.34,7.67-16.34,16.84-16.34,2.67,0,4.67,1.33,5.84,4.17,1.83,4.17,2.17,8.51,1.5,13.01-1.5,9.01-4,17.68-8,26.02-2.83,6.17-6,12.34-9.17,18.51-3.84,7.17-7.67,14.34-11.34,21.51-2.84,5.5-5.34,11.17-7.5,17.01-6.34,18.35-22.18,34.19-42.7,34.19-6.84,0-13.01-2.17-19.01-6.17-8.34-5.84-12.17-13.84-12.34-23.68.83-13.51,5.34-29.35,10.01-41.86Z"/>
    <path class="cls-1" d="M208.88,723.16c3.84-9.34,7.67-18.85,11.84-28.19,3-7,5.5-14.01,7.84-21.18,2.17-6.34,4.5-12.51,7.51-18.51,3-5.84,5.34-11.67,7-18.01l1-3.5c2-6.34,6-11.34,11.17-15.34,2.5-2,5.17-3,8.34-2.83,5.67,0,9.34,5.84,9.34,11.01.17,4.17-.5,8.17-1.83,12.17-1,3.33-2.33,6.67-3.84,9.84-2.67,6.17-5.5,12.17-8.51,18.18-2.5,5.17-4.84,10.34-6.67,15.84-2.67,7.34-6.17,14.34-9.51,21.35-4.34,8.67-8.51,17.34-10.67,26.85-1.17,8.17-7.67,15.34-16.34,15.34-1.17,0-2.33-.17-3.33-.5-5.5-1.33-6-5.5-6-10.17,0-4.34,1-8.34,2.67-12.34Z"/>
    <path class="cls-1" d="M316.95,613.59c1,.17,2.17.33,3.33.33,2.83.17,5.67.17,8.67.5,4.34.5,8.84.17,13.18-.5,2.83-.5,5.5-1,8.34-1.33,5.5,0,10.67,1,11.51,7.67.67,5.67-1.17,10.34-5.5,14.01-3.34,2.67-7.17,4.34-11.34,5.17-2.5.67-5.17.83-7.67,1.33-1,.17-2.17.5-3.17.67-9.01,2.33-14.84,20.68-17.01,28.52-2.67,8.51-5.17,17.18-8,25.68-3,9.17-6.84,18.01-11.84,26.35-2,3.5-3.67,7.17-4.67,11.01-.17.33-.33.67-.33,1-2.17,6.84-8.67,12.01-16.01,12.01-2.84,0-5-1.33-6.5-4-1.67-2.5-2.33-5.17-1.67-8,1.17-5.17,3.34-9.67,5.84-14.34,2-4,3.67-8.01,5-12.01,3-9.51,6.17-19.01,9.17-28.52.83-2.67,1.67-5.34,2.33-8.01,1.17-5,3-9.84,5.5-14.34,1-1.83,2.17-3.84,3-5.84,1.5-2.84,2.83-6,2.83-9.17,0-1-.67-1.83-1.67-2.33-1.33-.5-2.67-.5-4-.33-2,.17-3.84.5-5.84.67-1.5.17-3,.33-4.5.33-3.84,0-6.84-2.17-7.84-6.5-1-4.67-.33-9.17,1.67-13.34,2.17-4.5,9.51-6.17,14.01-6.67,4-.5,8.17-.67,12.17-1,3.67.17,7.34.17,11.01,1Z"/>
    <path class="cls-1" d="M338.46,728.83c-1.83-3.84-3.17-7.84-4.5-11.84-.83-2.17-1-4.5-.83-7,1.17-10.84,3.17-21.35,7.84-31.52,2.84-5.84,4.84-12.17,7.34-18.18,1.67-4.17,3.33-8.17,5.34-12.17.83-2,2.17-4,3.5-5.67,3.17-3.67,6.34-7.34,9.67-11.01,3.33-3.33,7-6.5,10.51-9.84,7.67-7.67,14.68-9.67,25.52-9.67,16.68,0,27.69,10.17,29.52,26.85.33,3.67.67,7.17,1,10.84.17,1.67.17,3.17,0,4.67-.5,5-1.17,10.01-1.67,15.01-1.5,12.17-10.17,29.35-16.68,39.19-2.17,3.34-4,6.67-6,10.01-7,11.34-16.51,17.85-27.85,24.18-4.17,2.5-8.34,3.17-13.01,3.17-11.51.83-24.18-5.34-29.69-17.01ZM408.34,651.78c-.33-5.17-3.34-12.84-9.51-12.84-5.17,0-10.51,3.17-13.84,7.17-6.17,7.34-11.17,15.51-14.34,24.52l-1,2.5c-2.5,6.67-5.17,13.34-7.67,19.85-.83,2.33-1.5,4.67-2,7-1.33,6.17,1.67,12.84,7,16.18,1.33.83,2.5,1.17,3.84,1.17.67,0,1.5-.17,2.17-.33,4-1.5,7.17-3.67,9.84-6.84,2.33-3,4.84-6,7.17-9.01,2.5-3,4.17-6.34,5.67-9.84,1.83-4.84,3.84-9.51,5.84-14.18,1.67-4.17,3.5-8.17,5.17-12.34,1.33-3,2-6.34,1.83-9.67,0-1.17,0-2.17-.17-3.33Z"/>
  </g>
  <g>
    <path class="cls-1" d="M99.07,315.98c0,1.43-.27,2.64-.81,3.64s-1.27,1.77-2.2,2.29c-.93.53-1.97.79-3.12.79s-2.21-.26-3.13-.79c-.93-.53-1.66-1.29-2.19-2.29-.54-1-.81-2.21-.81-3.64s.27-2.64.81-3.64,1.27-1.77,2.19-2.29c.92-.53,1.97-.79,3.13-.79s2.2.26,3.12.79c.93.53,1.66,1.29,2.2,2.29s.81,2.22.81,3.64ZM96.26,315.98c0-.92-.14-1.71-.41-2.34-.27-.63-.66-1.12-1.16-1.44s-1.08-.49-1.75-.49-1.25.16-1.75.49-.89.81-1.16,1.44c-.28.64-.41,1.42-.41,2.34s.14,1.71.41,2.34c.27.64.66,1.12,1.16,1.45s1.08.49,1.75.49,1.25-.16,1.75-.49.89-.81,1.16-1.45c.28-.63.41-1.42.41-2.34ZM91.98,317.98h2.35l1.18,1.52,1.16,1.36,2.19,2.75h-2.58l-1.51-1.85-.77-1.1-2.03-2.67Z"/>
    <path class="cls-1" d="M110.11,309.43h2.77v8.5c0,.95-.23,1.79-.68,2.51-.45.72-1.09,1.27-1.9,1.67-.81.4-1.76.6-2.85.6s-2.04-.2-2.85-.6c-.81-.4-1.45-.96-1.9-1.67-.45-.72-.68-1.55-.68-2.51v-8.5h2.77v8.27c0,.5.11.94.33,1.33s.53.69.93.91c.4.22.87.33,1.4.33s1-.11,1.4-.33c.4-.22.71-.53.93-.91s.33-.83.33-1.33v-8.27Z"/>
    <path class="cls-1" d="M116.06,322.53v-13.1h8.82v2.28h-6.05v3.12h5.6v2.28h-5.6v3.13h6.08v2.28h-8.85Z"/>
    <path class="cls-1" d="M87.03,331.04h3.42l3.61,8.8h.15l3.61-8.8h3.41v13.1h-2.69v-8.52h-.11l-3.39,8.46h-1.83l-3.39-8.49h-.11v8.56h-2.69v-13.1Z"/>
    <path class="cls-1" d="M104.4,344.14v-13.1h8.82v2.28h-6.05v3.12h5.6v2.28h-5.6v3.13h6.08v2.28h-8.85Z"/>
  </g>
  <g>
    <path class="cls-1" d="M99.73,574.88h3.42l3.61,8.8h.15l3.61-8.8h3.41v13.1h-2.69v-8.52h-.11l-3.39,8.46h-1.83l-3.39-8.49h-.11v8.56h-2.69v-13.1Z"/>
    <path class="cls-1" d="M117.1,587.98v-13.1h8.82v2.28h-6.05v3.12h5.6v2.28h-5.6v3.13h6.08v2.28h-8.85Z"/>
    <path class="cls-1" d="M134.1,587.98v-13.1h2.77v10.81h5.61v2.28h-8.38Z"/>
    <path class="cls-1" d="M156.74,581.43c0,1.43-.27,2.64-.81,3.64-.54,1-1.27,1.77-2.2,2.29-.93.53-1.97.79-3.12.79s-2.21-.26-3.13-.79c-.93-.53-1.66-1.29-2.19-2.29s-.81-2.21-.81-3.64.27-2.64.81-3.64,1.27-1.77,2.19-2.29c.92-.53,1.97-.79,3.13-.79s2.2.26,3.12.79c.93.53,1.66,1.29,2.2,2.29s.81,2.22.81,3.64ZM153.94,581.43c0-.92-.14-1.71-.41-2.34-.27-.64-.66-1.12-1.16-1.45s-1.08-.49-1.75-.49-1.25.16-1.75.49-.89.81-1.16,1.45c-.28.63-.41,1.42-.41,2.34s.14,1.71.41,2.34c.27.63.66,1.12,1.16,1.44.5.33,1.08.49,1.75.49s1.25-.16,1.75-.49c.5-.33.89-.81,1.16-1.44.28-.64.41-1.42.41-2.34Z"/>
  </g>
  <text class="cls-2" transform="translate(337.34 427.77)"><tspan x="0" y="0">MANDEN</tspan></text>
</svg>