<?xml version="1.0" encoding="UTF-8"?>
<svg id="Layer_1" data-name="Layer 1" xmlns="http://www.w3.org/2000/svg" viewBox="0 0 471.92 768">
  <defs>
    <style>
      .cls-1 {
        fill: #fff;
      }
    </style>
  </defs>
  <g>
    <path class="cls-1" d="M208.81,289.34l-.98,3.33,5.49-6.3,9.51-12.06c10.28-13.04,3.41-22.13,11.27-23.79l18.27-3.85c8.29-1.74,16.38-3.58,24.2-6.77l9.55-3.89c.78-.32,2.73.29,3.18.89.51.69.49,2.45-.05,3.28-2.95,4.54-2.26,9.41-1.53,14.36.92,6.2,2.09,11.93,5.42,17.36.73,1.2.02,2.56-.99,3.37l-9.72,7.83-15.62,12.39c-11.87,9.42-17.92,28.77-19.41,43.61-.38,3.83-1.17,6.73-5.37,8.25l-7.53,3.92c-6.17,3.21-20.33.47-30.76,2.92l3.93,12.8-6.89-9.27-7.3-7.3-7.69.06,12.28,43.64c2.44-.37,3.88-.61,6.26-.33-2.01,1.62-3.4,1.4-6.34,1.67l3.47,6.87-.98,1.71c.93,2.56,2.19,5.71,2.09,7.88l-.91,8.3c-.52,4.74-3.34,9.23-5.42,13.6l-14.66,30.77-8.68,24.11c-.63,1.75.16,4.56.19,6.41l.47,27.99c2.2-2.56,4.23-3.89,7.35-3.77l5.87.23c3.18.12,6.14-.31,8.99-1.63l.09-2.58.94,1.34c.16.23.58.02.83-.14.24-.16-.28-.91-.55-1.01l-1.48-.53c-.3-.11-.26-1.46.05-1.49l1.67-.15,6.31-3.31c5.35-2.82,8.79-7.15,11.81-12.17s5.18-10.41,5.56-16.56c.28-4.45,1.84-8.51,4.1-12.16l7.6-12.29c3.07-4.97,16.69-8.2,23.48-8.49,6.38-.27,11.75-2.33,17.74-3.88l19.98-5.17c7.33-1.9,23.87.55,31.68,4.72l1.13,2.38,13.98-.24c.53,0,1.74.74,1.72,1.16s-.54,1.56-.93,1.7l-4.13,1.41c-1.45,6.78-6.05,10.02-11.87,12.4s-10.96,6-15.27,10.16c-3.56,3.44-4.9,8.34-7.43,12.51-1.31,2.17-4.2,3.98-5.29,6.16-2.97,5.93-6.42,10.45-11.97,13.92-5.19,3.24-10.79,5.51-17.16,5.33-4.79.19-9.26.96-13.66,2.94-11.86-.11-23.27-1.83-34.63-5.07-3.97-1.13-7.56-.85-11.08,1.31l-7.96,4.89,9.38,2.08c2.22.49,5.73,3.97,6.74,6.15,2.96,6.33,4.36,12.86,8.76,18.33,4.91,6.11,10.87,11.2,16.8,16.3,5.24,4.5,8.43,9.97,8.73,17.01.09,2.07.93,4.45,1.67,6.43l-.56,4.6-5.13,2.75,1.09,5.11-7.26-1.29c-4.22-.75-5.94-5.97-8.39-8.88l-5.25-3.68c-.77-.54-2.56-.6-4.21-.64l-3.01-5.27c-.13-.22-1.25.15-1.27-.1l-.14-1.45-1.12-5.97c-3.17-.95-3.92-3.29-3.77-6.25l.55-10.63c-.19-1.88-1.04-5.48-1.82-7.12l-3.72-5.11c-2.49-4.86-5.47-8.56-9.97-11.85-1.06-.77-1.79-2.78-2.62-4.4l-2.1,2c-1.44,1.37-4.62,1.73-6.59,2.64-5.24,2.42-11.89,12.56-10.78,17.2,3.5,14.71,13.56,20.88,16.58,34.78l4.45,20.43,1.87-.71c.42-.16,1.61.83,1.38,1.22l-1.87,3.1c1.78,7.65,3.06,15.19,3.55,23.14l2.64,1.38-2.34,2.51.36,14.86-.1,45.11c-1.05.26-2.53.27-3.1-.11-.67-.44-1.48-2-1.48-2.99l-.02-43.19-.68-21.47-2.35.18c-.43.03-1.08-.92-1.11-1.34-.12-1.87,3.88-1.47,3.02-4.68l-5.61-21.04c-1.34.45-2.79.56-3.46.1s-.74-2.39-.24-3l2.52-3.14-2.41-11.17c-1.93-8.97-12.48-18.49-15.29-30.11-1.09-4.48-4.12-9-4.23-13.55l-.84-36.86c-.08-3.7-.36-6.67.46-10.46-.62-2.45-3.66-4.8-6.04-6.03-5.43-2.8-10.4-5.59-14.99-9.62-4.65-4.08-2.33-13.24-9.5-14.51,2.65,4.02,4.5,7.93,5.02,12.69,1.29,12.03-.42,20.77-7.2,31.05-2.37,3.6-6.3,5.85-9.13,8.96-5.58,6.11-12.36,9.58-20.73,10.9l-25.04,3.94c-5.23.82-10.2.64-15.19-1.04-6.66-2.25-10.32-.35-12.27-3.42,3.89-4.45,6.2-8.9,7.26-14.56.56-2.97,2.06-5.84,3.97-8.18,5.89-7.19,4.3-13.95,9.45-23.13,1.37-2.45,3.61-2.31,5.87-2.49l6.41-4.53c2.54-1.79,5.03-3,7.1-5.81-7.86-.83-15-1.94-21.91-5.5-3.3-1.7-5.06-5.06-7.8-7.35-5.86-4.9-11.88-9.52-14.45-17.22-.89-2.65.13-7.42-.09-10.04l-1.32-2.16c-.28-.46.84-1.43,1.27-2.04l-1.06-8.41-2.07-2.37-.53-13.53c2.18-1.02,4.98-1.02,7.53-.15l6.89-1.43c3.89-.03,8.38,1.06,11.62-1.36,1.08-.81,1.88-2.02,3.48-1.69,6.72,1.4,13,1.25,19.72,2.26l9.1,2.79c7.59,5.67,13.46,12.54,19.29,19.84,4.61,5.77,8.57,11.45,11.68,18.21,1.11,6.09,1.41,12.04,1.28,18.26l-1.09,3.13c1.18,1.6,3.17,2.85,5.17,3.44,6.42,1.89,4.39,9.47,8.19,13.38,6.14,6.34,14.59,8.46,21.17,14.11,3.4-10.22,7.04-19.68,11.59-29.02l13.02-26.7c1.48-3.03,3.55-6.99,3.27-10.41-.55-6.8-1.95-13-3.78-19.5l-12.17-43.16c-.76-2.71-1.39-5.04-4.72-5.11l-1.01,5.66c-2.67,1.22-5.7.19-7.24-2.26l-3.81-.39-1.54-8.69-11.56,6.28c-2.3,1.25-3.27,2.15-4.54,4.32l-5.14,8.84c-2.21,3.8-5.72,6.55-8.52,10.57l6.05-3.63c.23-2.33.63-3.55,2.37-4.71,5.89-3.93,8.52-9.93,12.71-15.65-1.77,7.37-7,14.06-13.39,17.92l-.25,3.46-10.17,6.29c-.35.22-1.87.16-2.22.03-.47-.17-.13-1.43.22-1.81l9.34-10.58c2.11-2.38,2.41-5.93,2.07-8.99-3.45,1.38-6.23,3.05-9.62,3.3-2.34.18-5.11-.9-7.43-.96l-4.84,2.07-5.52,2.64c-3.71,1.78-7.3,1.96-11.12-.05s-7.7-4.59-10.61-8.13c-1.65-2.01,5.16-4.51,10.22-2.52,8.55,3.35,11.93-2.64,20.55-2.64l6.27-5.37-.79-5.1c-2.11.47-4.55,1.74-6.18,3.18-1.05,0-2.31.21-3.44.42l-12.82,2.36c-5.51,1.02-10.89.82-16.37-.32l-11.72-2.44-18.71-4.7c-5.4-1.36-9.16-5.4-12.65-9.44-4.51-5.23-8.77-10.37-12.25-16.26-1.48-2.51-.92-4.7.83-6.85l4.74-5.81-5.03-2.14c-.24-5.14.85-11.12,4.37-11.29l20.12-.99-4.95-8.42c-2.09-3.55-8.64-5.94-7.16-9.95l2.37-6.43c1.66-4.51,4.01-8.13,4.44-13.03.21-2.39,1.57-4.46,3.39-5.9,3.28-2.6,5.76-5.36,8.59-8.44,1.61-1.75,5.37-2.23,7.62-2.68l2.3-1.86c6.97-1.43,7.82-7.47,13.38-5.74l4.42,1.37c.8-2.96,2.85-3.84,4.92-5.72,3.22-2.93,6.64-6.36,9.22-9.79s4.54-5.62,8.34-7.14l8.27-3.3c3.93-1.57,6.9-.73,10.99.03l8.49,1.56c.92.01,2.94-1.08,3.65-1.67l9.58-8.09c3.99-3.37,8.68-7.01,14.18-7.35l12.96-.82,10.97-.65c4.87-.29,9.27-1.56,13.63-3.33,3.18-1.3,6.12-.06,7.63,2.89.78,1.53,2.49,2.66,3.63,3.91,5.38,5.92,10.27,11.79,14.83,18.5,3.99,5.87,6.29,13.71,5.52,20.94-.87,8.2-4.25,15.6-7.84,22.81-3.2,6.41-5.7,13.06-9.72,18.93-4.27,6.24-8.33,11.89-10.49,19.37l-2.22,4.96-.5.26ZM208.8,288.52l4.24-12.31c1.56-4.52,4.21-8.04,7.08-11.7,4.65-5.93,7.14-13.11,10.32-20.01,3.05-6.63,6.52-13,7.48-20.37,2.25-17.24-11.91-29.25-22.09-41.78l-3.43-4.23-.88,3.15-.83-3.21-9.82,3.09c-5.24,1.65-10.97.63-16.41,1.26-4.35.51-8.26,1.28-12.68.62-4.81-.72-9.69,3.54-13.23,6.57l-12.43,10.64,5.85,3.41c2.54-3.02,6.16-5.57,9.78-7.12l9.87-.29c2.77-.99,5.94.23,6.94,2.97l2.97,8.15,6.32.09c.52,0,2.04.44,2.11.96.09.62-.2,2.01-.36,2.2-.97-1.17-2.2-2.24-3.23-2.21l-4.45.14c.94,3.53,1.71,7.11,3.16,10.33s2.64,6.18,2.53,10.07c2.52-3.1,4.94-6.31,5.44-10.72.31-2.73-4.61-4.19-3.62-6.81.22-.57,1.61-.34,3,.05l-1.26,2.18c7.3,3.09.3,13.77-5.73,19.16-5.4,4.83-10.52,9.59-15.29,15.01-3.24,3.68-5.23,7.97-8.1,11.81l-7.74,10.35c-5.08,6.79-10.61,13.35-13.23,21.63-1.27,4-1.58,8.2-3.26,11.8,1.21-12.27,5.52-21.81,12.47-31.07l10.83-14.44c-.88-1.36-3.09-3.01-4.55-2.98-2.8,1.67-5.06,3.43-8.07,3.98l-17.75,3.25c-3.95.72-7.48,2.34-11.04,4.08-3.05,1.49-5.41,3.41-8.32,5.12l-11,6.49c-1.75,1.03-2.85,2.47-4.98,2.73l4.02-3.08,7.91-4.89c-5.22-.35-9.11-.62-13.47-2.2-6.14.51-12.22.47-18.5-.06-2.35-.11-4.91.01-7.31.47,1.71,9.25,8.33,14.89,14.58,20.81,6.3,5.98,12.29,11.23,19.44,16.2,4.42,3.07,8.09,7.58,11.69,11.52,5.33,5.83,14.22,10.26,21.99,12.03,3.74.85,7.17,1.42,10.72-.78-1.36-3.81-3.14-6.4-5.47-9.31-3.93-4.91-4.15-11.1-3.61-17.19l1.45,10.68c2.43-11.4,7.66-20.92,14.37-31.36.83-4.99,3.12-9.09,6.98-12.3l7.2-5.64,2.2-5.86c.77-2.05,1.85-1.79,3.91-2.25,5.64-1.24,12.09-5.18,14.51-10.62l7.8-17.49c1.91-4.28,3.18-8.53,7.15-11.73.79-.64,1.84-2.65,2.16-3.64l-6.84-2.61c1.72-1.97,3.98-3.38,5.7-4.66l1.04-.77c.15-.11.29-.18.28,0l-.13,1.52-4.5,3.2c1.82.61,4.11,1.1,5.18,2.24,2.57,2.73-7.3,8.1-7.71,14.58-.19,3.05.52,7.52,1.2,10.48l5.27,8.26c4.31,6.77,4.12,18.69,4,27.08l-.2,13.51.18,2.28.23-.46ZM98.29,223.24c-.35-4.08,3.49-5.68,6.7-6.19l5.65-2.27c3.12-.65,5.49-1.44,7.78-3.58l3.33-1.06,6.79-12c-3.67,1.01-7.88,1.88-11.3,3.78-2.03,1.13-3.89,2.05-6.02,2.73-3.91,4.8-7.97,9.51-12.26,13.98l-4.3,4.48c.98,3.21,2.14,6.47,6.38,7.02l-2.74-6.89ZM172.08,230.01l5.47,8.71c6.92-6.63,10.83-7.52,7.86-15.96l-4.6-13.09-3.45-8.59c-1.33-3.32-4.29-3.43-7.39-2.2l-8.89-.55-5.81,5.8c2.91,3.1,5.89,6,6.22,10.17.14,1.84.23,2.88.85,5.31l6.18-6.1c1.81-1.79,3.12-4.39,6.48-5-2.81,6.52-6.76,15.4-2.93,21.51ZM138.13,223.6l2.95-10,1.6-5.09,2.32.39c-.9-1.67-2.15-2.25-4.36-2.59l1.38-1.32-5.01-1.12c-2.18-.49-3.21-2.24-2.9-5.02l-5.04.26c-2.45,3.81-4.19,6.86-6.38,11.45,3.17-.11,5.13-.67,8.31-1.43-4.66,4.64-9.09.15-13.94,4.42-1.33,1.17-4.13,1.49-5.84,2.21l-6.54,2.75c-1.42.6-3.53,1.1-4.04,2.2-.69,1.51-.19,3.07.46,4.54l2.66,5.98c.19.43,1.27,1.27,1.56.97l1.18-1.26c.22-.23-.99-1.03-1.35-1.3l-.04-9.76c1.91-1.36,4.55-2.52,7.17-3.08l12.48-2.66c5.27-1.12,7.42-4.75,11.15-4.81.58,1.08,1.89,2.42,2.34,1.88.63-.74,1.3-2.13.8-2.62-1.57-1.55-4.69,1.2-5.49-.19-.26-.45-.33-1.62-.2-2.06,1.92-.94,5.76-.26,6.98,1.39.35,3.52-2.28,6.4-4.96,8.24-1.77,1.22-1.65,3.05-2.33,4.37-1.57,3.02-3.21,5.44-3.79,9-1.25,7.77-4.18,10.13,2.06,20.61l3.22-2.51c-.63-2.86-1.85-6.3-1.13-9.01l1.81-6.87c.68-2.58,1.65-5.2,2.75-7.32l.15-.63ZM160.24,213.44c-.79-3.57-3.44-7-6.54-8.28-6.19,2.84-3.75,7.55-6.54,15.05-1.29,3.47-.39,7.3-2.82,10.8l2.55-13.94c.77-4.21,1.66-8,3.1-12.15-1.96-2.46-5.12-3.72-8.21-4.02-2.21-.22-3.86-1.2-6.29.18l11.42,3.23c-1.94,9.85-5.47,18.68-7.7,28.1l-3.18,13.48,12.92-8.29c2.17-1.39,3.48-4.38,5-6.51l7.78-10.88-1.49-6.77ZM138.35,224.81l-1.3,3.23-1.66,7.32c-.63,2.79-1.97,5.32-.43,8.28l2.12-7.35,1.32-6.21c2.26-6.2,4.43-11.97,5.05-18.23-2.31,4.28-3.67,8.25-4.82,12.33l-.27.62ZM128.34,227.59l2.17-9.27,6.12-5.39c-3.63-.52-5.05,2.71-7.35,4.59l-3.48,2.84c-.38.31-1.77.48-2.02.11l-1.03-1.59-4.87,7.7-.75,1.57c-.61,1.28,6.23-1.31,11.21-.54ZM131.53,258.5c5.05-2.85,10.56-4.53,15.96-5.82,5.4-1.29,10.67-.24,15.4,2.58,3.97-5.83,8.17-10.8,13.26-15.71l-5.39-8.71c-1.73-6.21-1.08-12.05,1.04-18.54l-6.88,7.04c-3.7,3.78-7.64,8.48-9.93,13.13-2.05,4.17-4.13,5.7-7.98,8.13-8.33,5.26-16.04,11.78-23.29,18.5l-6.53,7.29c5.35-1.98,9.34-5.08,14.33-7.89ZM115.09,229.02c.42-1.76.85-2.93,1.57-4.27,1.7-3.62,3.95-6.21,7.19-8.92-5.47,1.67-11.27,2-16.23,4.65-3.24,1.73-2,8.05.26,10.05l7.21-1.52ZM105.02,237.28c-2.29,3.84-.32,7.08,1.63,9.87,4.96,7.06,4.77,12.91,8.95,16.81,5-2.6,5.33-7.3,10.83-10.28l-.32-2.79c.29.34.98,1.97,1.41,1.72l2.29-1.33-3.68-10.88.28-4.37-2.65-2.59-.78,7.7-.4-.3.16-7.71-13.9,2.11,5.11-2.2-3.16-.92c-2.17-.63-5.23.89-6.34,2.2-.22.26-1.7-.06-1.49-.32s-.06-1.65-.4-1.74c-3.33-.34-8.74-3.48-9.09-7.92l-4.83-1.34c-5.25-1.46-5.23,2.33-11.39,5.74,2.49,1.39,4,2.94,4.45,5.41,5.49,4.39,8.98,10.11,11.27,16.72,1.7,4.9,4.68,8.76,7.23,13.2l3.48,6.08c1.74.85,5.02.18,6.98-.76l-2.61-2.93.05-.7,3.91,3.55c.81-1.06,1.51-2.39,1.7-3.46.13-.74-1.15-1.92-1.45-2.72-1.94-5.08-3.41-10.13-6.41-14.59l-4.69-6.97-5.75-.86,1.61,3.83-5.67-6.16c1.52-1.07,4.2-1.74,6.48-1.07l-2.58,1.83,3.71.81c1.42-2.8,3.92-3.27,6.04-2.68ZM123.61,230.23v-1.8s-9.99,2.22-9.99,2.22c.82.77,1.51.95,2.33.95l7.11-.02.39-1,.16-.35ZM123.82,231.58c-.11.9,1.26,2.03,2.77,3.21l1.53-6.13c-1.22-.22-2.84-.62-3.11-.09l-1.07,2.05-.11.97ZM48.92,269.02c1.45,2.03,3.68,3.79,5.53,5.87,2.35,2.65,3.39,6.97,6.51,9.11l13.06,1.63c-3.45-5.2-8.35-10.49-7.15-16.17l6.74-1.19c.72-.94,1.98-3.98,1.72-5.48l-2.05-11.78c4.12.88,6.36-.87,8.84-2.9l6.71-2.22c-2-4.37-4.89-6.57-7.83-9.96-1.9-2.18-2.95-5.79-6.16-6.52l-4.3,1.62c-2.94,1.1-4.64,2.84-6.92,4.91l-8.5,7.73c-1.18,2.95-1.18,7-1.64,10.09l-1.75,11.76c-.18,1.21-1.34,2.73-2.23,3.14l-.61.36ZM141.33,310.3c-2.63,8.37,4.36,12.18,6.61,19.76,4.01-.71,8.36-2.07,12.19-4.12l22.87-12.19,16.22-9.46c3.29-1.92,7.51-12.88,7.54-18.82l.09-18.13c.02-4.65-.71-9.71-1.8-14.3-1.17-4.96-4.35-9.22-6.57-13.8l-1.21-7.8-3.27,6.43-4.65,8.88c-1.18,2.25-3.43,4.32-5.11,6.19,0,.56.13,1.39-.22,1.51l-1.61.56-6.72,3.68c-1.77.97-3.64,1.58-5.68,1.96-.72,2.18-1.69,5.26-3.48,6.8l-7.27,6.25c-3.2,2.75-4.32,6.34-5.57,10.38-1.34,4.33-8.16,12.86-12.37,26.22ZM222.4,311.4c-3.38,3.45-7.06,4.85-11.65,5.23-2.91.24-5.09,3.14-6.43,5.57-2.88,5.25-6.42,1.78-11.69,3.09-1.22.3-2.41,3.21-2.27,4.49.26,2.35.46,5,.24,7.09-.86-2.61-.81-4.94-.93-8.1-2.61,1.97-5.11,4.36-7.99,5.17-4.5,1.26-8.2,2.52-12.14,4.97,2.51,4.97,8.78,7.69,14.16,8.67l7.71,1.41c-.84-2.08-1.31-4.4-.98-6.35,1.67,3.36.83,6.45,5.6,7.22,2.75.44,6.01,1.95,8.84,1.89l16.36-.39c4.23-.1,9.09.34,12.89-1.66l7.96-4.2c2.11-1.11,2.71-2.43,2.76-4.75.18-8.47,2.35-16.6,5.36-24.45l1.64-4.27,3.3-7.87c1.96-4.66,5.63-8.7,8.9-12.55l8.12-9.54,1.04.79c5.51-4.53,11.36-7.88,17.7-10.46-2.09-4.95-3.15-9.36-4.24-13.98-.25,3.7.49,6.82,1.69,10.21l-.53,2.64c-.32,1.59-6.41-.54-11.28,4.97,1.77-5.72,10.29-4.24,10.52-5.8l.27-1.88c-1.64-5.01-2.17-9.95-1.77-15.12-.64-5.51-.07-10.09,2.64-15.53-2.49-.08-4.31.51-6.38,1.5-4.76,2.29-9.58,4.34-14.84,5.53l-31.88,7.19c-7.01,1.58-.11,9.33-10.53,22.27l-9.32,11.57-8.48,10.82-5.69,8.31c-1.95,2.85-5.5,3.73-8.89,5.24l-.91,5.13,7.65,1.47,7.25-5.8c1.5-1.2,2.27-3.1,3.8-5.53l-.02,7.36c-3.18.78-5.44,1.62-7.33,3.52-3.14,3.17-6.86,4.14-11.2,4.79l-10,1.5c-3.89.59-7.19,1.42-11.15-.25l-5.68,3.26-9.16,4.65c1.97,2.16,6.7-.9,10.3,1.02,2.45,1.31,1.51,3.71.4,6.46l4.59-1.95,10.39-3.78c4.43-1.61,7.82-5.18,10.72-9.08l8.79.58c3.36-2.94,5.37-8.44,10.48-9.04,3.73-.44,6.81-1.41,9.59-3.96l8.51-7.8c6.65-5.11,13.75-9.16,20.98-13.34,1.77-3.26,3.24-6.29,6.01-8.82l-3.63,6.39c-1.46,2.56-3.21,4.37-5.77,5.99l-9.65,6.08c-5.41,3.41-10.2,7.51-14.82,12.23ZM94.12,268.84l6.96,1.82c-.42-2.47-.96-3.76-2.21-5.27-4.4-5.31-7.11-11.64-9.36-18.11l-6.88,2.2c-2.29,2.09-4.28,3.6-7.86,3.43l1.87,10.91-1.63,5.09,19.1-.09ZM148.19,258.02c2.44-.7,4.83-1.65,6.74-3.81-8.8-.05-16.82,3.03-24.9,7.1,6.21-.44,12.13-1.56,18.16-3.29ZM49.15,268.28c1.81-1.69,1.93-4.1,2.29-6.72l.96-7.03c-2.67,5.28-6.8,12.2-3.8,14.05l.55-.29ZM265.66,293.76l16.64-12.41c.78-3.08,3.07-4.5,5.43-5.98-8.15,2.81-14.93,8.28-20.7,14.51-3.79,4.09-7.59,7.92-9.77,13.17,2.89-3.27,4.98-6.73,8.4-9.28ZM65.33,297.86l7.73,3.35c2.98,1.29,5.54,2.98,8.91,3.55l-13.01-7.7c-2.13-1.26-4.57-3.8-5.51-5.88l-2.55-5.67-14.29,1.11,1.39,2.15c-4.61-2.43-11.09-2.78-11.58-.47-.11.52.39,1.5.84,1.9l4.52,3.98c1.04.92-.09,4.08-.88,5.15l-6.89,9.3c4.21,6.87,8.48,12.38,13.46,18.17,2.93,3.4,6.18,7,10.56,8.63,6.16,2.28,12.45,3.75,18.89,5.09l14.87,3.09c3.83.79,8.53-.87,12.15-2.01,1.56-1.52,3.27-4.51,5.16-5.32l14.81-6.31-6.42-.82c-10.64-3.16-19.8-12.71-33.19-17.56-5.97-2.16-11.62-4-17.29-6.62,3.81-.11,6.84,1.49,10.27,2.52,9.02,2.69,17.35,6.28,25.25,11.52l5.36,2.76c1.91.98,3.09,2.5,5.47,2.76-2.85-3.36-5.64-5.8-9.28-8.04l.8,2.5c-6.75-6.07-14.6-9.45-23.14-12.51l-8.59-4.11c-3.03-1.45-5.86-2.48-8.43-4.21l-.5-.29c-3-1.74-5.83-3.43-8.69-5.93,3.31,1.44,6.26,3.56,9.35,5.46l.44.49ZM111.38,319.21c-3.53-3.63-6.68-7.43-10.56-10.17-6.99-4.94-12.9-10.12-19.07-16.02l-7.13-6.82-11.7-.63,2.12,5.23c1.94,4.79,18.9,12.5,25.92,16.45l13.4,7.55,7.02,4.41ZM40.23,297.32l.59-2.73-4.9-4.3c-.57,1.8-.77,4.1-.39,5.38l4.69,1.66ZM172.09,321.43c1.57.41,4.08.88,5.7.55l18.55-3.82-6.64-1.54,1.08-4.59-7.71,3.57c2.08,1.6,4.28.67,5.95-1.53-.18,4.97-5.57,1.78-9.89,3.9l-7.03,3.45ZM119.78,326.62l-5.25-4.09c-.07,3.27,2.73,4.75,5.25,4.09ZM154.97,332.19c-.49-.69-1.33-1.44-1.57-1.35l-5.14,1.87.33.8,6.39-1.32ZM125.08,337.87c3.21-1.13,6.17-1.79,8.12-4.62-3.8-1.3-8.43-2.44-12.2-.92l-11.31,4.59c-1.82.74-3.53,3.36-4.67,5.08,7.12.65,13.34-1.77,20.06-4.13ZM139.22,345.1c7.76.64,14.57-1.41,21.21-4.91,2.35-1.24,5.99-3.64,5.23-6.68-2.78-2.79-7.27-.65-10.3.34l-11.97,3.93c-1.47.48-4.74.63-5.86,1.58l-6.05,5.09,7.73.64ZM134.37,339.51c5.57-4.31,10.52-2.11,12.28-5.57-3.97.98-7.59.82-11.04-.44l-5.25,4.79c-1.02.93-1.19,3.11-.4,4.64l4.42-3.42ZM167.45,349.16l.09-5.92-1.62-2.41.52,7.21,1,1.12ZM175.48,352.67l.97-5.45c-3.17-1.69-6.12-3.48-8.44-6.29l.49,9.05,6.98,2.7ZM131.52,357.26l14.19-6.13,14.36-8.48c-4.5,1.35-8.23,2.76-12.64,3.34-5.13,1.28-10.14,1.69-15.55,1.27-4.4,1.45-7.54,5.31-9.21,8.99l8.85,1.01ZM111.06,361.57c5.52-2.3,11.46-6.53,13.98-11.86l-5.34,1.02c-3.02.58-5.83.73-8.6,1.97-7.12,3.19-12.68-3.44-19.38.43,6,6.09,12.05,11.49,19.34,8.44ZM141.72,360.05l5.62-7.96-5.85,2.62.23,5.34ZM110.7,433.61l6.37,4.94c4.09,3.16,7.83,6.04,11.9,9.19l4.96,3.85c.83-2,.77-3.84.65-5.94l-.52-9.68c-.21-3.88-.95-7.39-3.09-10.78-6.82-10.8-14.93-20.54-24.24-29.3-2.97-2.79-10.33-5.32-14.68-5.68l-16.22-1.35c-1.9-.16-2.54.84-3.77,1.97-5.24,3.3-11.85-.95-17.21,2.32,2.47,1.52,5.21,2.58,6.99,4.29l5.15,4.96,2.69,3.05c5.39,4.35,11.19,7.89,17.17,11.32l7.46,4.28,8.13,5.88,8.27,6.66ZM118.64,451c4.01-.76,7.09-1.15,10.47,1.45.72.55,2.54.88,3.69.74-1.47-1.76-2.62-3.15-4.01-4.1l-8.31-5.71-8.63-7.2-8.39-6.73c-6.06-4.87-12.22-8.79-19.06-12.51-5.66-3.08-11.28-6.39-16.05-10.71l-5.18-4.7c-4-4.6-8.64-8.65-15.55-8.12l.33,8.84c.06,1.64.81,2.53,1.59,4.12,2.1,4.33.5,9.31,1.44,14.29.43,2.32-.21,5.94.52,8.23,2.18,6.92,7.37,11.58,12.86,15.76l6.58,6.86c6.85,4.98,15.35,5.99,23.65,6.59,2.91.21,5.36.15,7.83-1.43,4.97-3.17,10.29-4.53,16.25-5.66ZM262.72,470.43c-7.3,1.22-14.2,5.22-19.6,9.66-4.18,3.43-7.62,6.86-13,8.67-3.5,1.18-6.44,3.39-8.58,6.53-3.13,4.6-6.69,8.29-10.72,12.36,2.24-.3,4.56-.8,6.13-.48l6.52,1.34c10.47,2.14,20.77,4.01,31.52,3.44,3.77-1.57,7.6-2.2,11.68-2.57,11.89.36,23.13-6.32,28.46-17.01,1.49-2.98,4.59-5.23,6.44-8.02,2.53-3.81,3.55-8.61,6.78-11.96,5.03-5.2,11.59-8.57,17.82-11.72l4.6-6.05c-2.6,1.5-4.63,3.32-7.75,4.05l13.87-9.61c-3.07-1.91-5.23.33-7.73.48-4.1.25-7.02,1.91-11.06,3.95,2.03-2.29,5.53-3.93,8.57-4.91-.76-.49-2.04-2.29-2.82-3.28-5.13-3.99-23.86-5.77-28.5-4.54l-11.49,3.06c-5.3,1.41-10.35,2.4-15.43,4.43-3.33,1.33-6.87,1.8-10.49,2.39l-14.47,2.35c-12.38,3.28-16.37,18.2-19.42,29.77-1.39,5.28-4.34,9.93-6.38,15.03,2.03-2.06,3.3-4.9,5.48-6.75,3.02-2.57,6.92-4.07,10.45-5.78s16.99-16.05,30.26-16.75l25.24-1.32c6.5-.34,7.98-4.96,12.69-5.34s7.79-2.41,11.59-4.98c-3.12,4.46-8.56,5.82-13.64,6.23l-5.15,3.88c4.71-.32,8.81-1.46,13.19-2.65l9.9-2.68c-7.37,3.44-19.13,6.48-27.24,7l-27.72,1.8ZM56.74,518.99l13.99-11.21c3.72-2.98,6.13-7.31,8.39-11.36,2.4-5.02,6.45-7.84,10.59-11.11l21.47-16.95,19.2-13.26c-1.68-1.77-4.15-3.06-6.54-2.94-8.6.42-15.58,4.12-23.12,7.31-3.22,1.36-5.25,2.78-8.23,4.85l-8.54,5.93c-2.39,1.66-4.59,2.39-7.23,3.6-3.2,1.47-3.66,7.02-4.62,10.1l-3.05,9.85c-6.83,7.87-6.25,16.76-12.32,25.19ZM327.9,459.72c3.9-.82,5.75-3.77,6.93-7.27l-6.93,7.27ZM67.35,521.28c4.64,1.33,9.18,1.28,13.75.44l13.83-2.53,18.36-3.36c4.16-.76,7.42-4.1,10.41-6.92,3.34-3.15,7.21-5.68,9.95-9.34,6.81-9.09,8.96-20.29,7.61-31.46-.63-5.23-2.35-10.3-7.11-13.15-.29.46-.29,1.73-.17,2.55l-2.51-1.25-12.84,9.06c-8.05,5.68-15.57,11.34-23.17,17.65-5.52,4.58-11.3,9.05-15.05,15.21-3.43,5.62-7.54,9.55-12.53,13.85l-8.18,7.06,7.64,2.19ZM224.14,578.45c3.2-1.4,4.41.49,6.45,1.59s4.18,2.07,4.98,4.3c1.56,4.33,5.29,7.43,10.16,6.74l-1.68-3.12c-2.04.21-4.64-.99-5.47-3.14l-4.41-11.36-4.3-13.72c-2.41-9.52-5.73-18.2-10.63-26.71-2.14-3.72-.94-7.81-9.36-14.59-1.89-1.52-5.42-1.15-7.89-1.51-1.22-.18-3.96-.28-4.1,1.47-.13,1.61,1.2,4.91,2.39,6.12,3.13,3.19,6.09,6.06,8.27,9.86,1.18,2.06,2.17,3.96,3.98,5.51-2.97-7.7-9.92-13.1-12.49-20.71,1.76,1.07,2.12,2.73,3.13,4.31,3.2,4.98,7.15,9.25,9.77,14.71,1.74,3.61,3.27,8.72,3.13,12.62l-.28,7.71-.2,5.36,2.94,1.99c.85,4.68,2.84,8.64,5.62,12.57ZM189.09,522.91l3.6-2.11-12.6.7c-4.91.27-7.26,12.02-4.04,18.07,1.27-7.44,6.26-15.97,13.04-16.66ZM249.89,586.02l1.49-.58c.34-.13.49-1.58.4-1.99l-2.5-11.56c-1.11-5.14-4.03-9.15-7.88-12.63l-13.87-12.51,2.94,11.19c1.86,7.07,8.27,27.35,10.48,27.03l1.82-.26c2.06,1.9,4.42,2.35,7.12,1.31Z"/>
    <path class="cls-1" d="M206,204.11l.32-10.08,1.26-10.12c.61,4.32-.67,8.1-.78,12.38l-.21,7.81h-.59Z"/>
    <path class="cls-1" d="M92.15,281.14c-6.73,1.49-11.25-2.15-19.26-1.73,4.31-1.28,8.21-.12,12.69,1.08l6.58.65Z"/>
  </g>
  <g>
    <path class="cls-1" d="M181.7,116.27c-.33,7.74,1.09,17.1-6.25,22.29-1.54,1.01-1.05,2.02-.95,3.43.21,1.94.3,3.87-1.45,5.23-.79.62-.84,1.67-1.37,2.4-.61.84-1.52,1.33-2.1,2.2-2,1.62-3.99,3.41-6.1,4.93-2.52,1.51-6.16,1.6-7.94,4.03-6.04,11.29-17.94,10-28.9,8.75-6.59.73-12.85,2.79-19.34,4.21.73.2,1.14.2,1.62.74-1.17-.12-2.52-.26-3.55.38-.5-.8-1.4.07-2.09.23-.19-.09-.4-.19-.63-.3-.68.33-1.36.66-2.08,1.01-1.45-3.47-5.72.02-6.95-3-.75.07-1.09-.57-1.26-1.18-.34-.28-.77.37-1-.21.13-.13.26-.27.43-.45-1.6-1.51-5.97-3.28-4.53-5.85-.09-.24-.18-.48-.27-.72.53-.45,1.18-.76,1.09-1.6,1.04.16,1.74-.54,2.46-1.18.73-.03,1.59.22,1.99-.67.9-.03,1.65-.36,2.08-1.16,2.55.76,4.34-13.74,7.79-15.74,7-3.23,5.59-9.3,8.98-15.41,1.6-1.93,1.73-3.84,2.55-6.1,1.01-2.97,3.49-5.06,5.33-7.52.32-.41.35-.55-.02-.97-1.62-1.95-.54-4.59-1.08-6.98-.29-.21-.56-.41-.86-.64-.43-.66.07-1.59-.44-2.17-.88-.7-1.25-2.56-.08-3.08-.2-7.7,9.74-13.02,7.97-18.62-4.4.57-9.19,4.03-13.38.45-1.26-.34-4.37.57-4.42-1.42,1.45.08,2.47,1.08,3.84.92.46-.75-1.13-1.05-1.5-1.57-.95-.71-1.14-1.89-2.32-2.38-.39-1.22.96-1.72,1.47-2.67.93-1.5,2.75-1.51,3.82-2.83,2.47-2.5,6.11-3.23,9.14-3.47.54.32,1.12.62,1.65.12,9.59-8.87,22.31-3.94,33.01-.43,7.28,4.66,3.84,3.89,13.27,3.53,4.34.15,4.15,5.56,6.45,7.95,9.35,6.71,2.95,24.53,5.96,35.49ZM107.35,78.18c-.12.06-.04.15-.01.24.12-.06.04-.14.01-.24ZM165.14,85.57c-.89-.34-.87-1.68-1.69-2.11-.06.11-.11.22-.19.36-.06-.21-.1-.37-.16-.6-4.65-1.67-9.65-.28-12.42-5.37-.46-.69-1.39-.97-2.24-.99-.38.75-1.09.88-1.81.9-.15.21-.26.37-.35.48-3.28.79-6.12-1.26-9.32-1.9.79,3.21-1.21,5.72-2.22,8.68.96,6.1-1.95,11.83-3.87,17.6.38,2.56,3.81,4.58,3.19,7.72-.2,1.92-2.16,3.3-1.44,5.26-.52.25-.7.55-.59,1.12,1.11,4.74-9.17,10.5-8.06,13.54,1.61,6.85.88,10.91-3.11,17.24-1.88,3.54-6.75,6.27-5.54,10.78,14.88-2.73,30.12-5.04,42.99-13.52,3.09-2.7-.83-6.94-.28-10.09,1.23-5.31,8.3-7.44,9.44-12.17-.03-10.29-.15-20.88.92-31.55.72-2.62-2.19-3.43-3.26-5.38Z"/>
    <path class="cls-1" d="M271.2,70.32c.64,5.11-4.44,8.71-9.14,9.25,0,0,0-.02,0-.03-5.08,1.42-10.25,1.04-15.34.18h0c-7.87-2.62-16.01,3.55-23.29,5.56h0c-1.32-1.01-2.86.52-4.32.41-1.18.13-1.39,1.84-2.22,2.62-.57,1.29-2.4,1.66-2.44,3.27-.5,1.22-.29,1.91.23,3.1-.13.1-.26.2-.4.31-.3,2.79-.15,5.87-.88,8.53-1.09,1.28-5.8,7.15-1.21,5.45,5.03-.1,10.05-2.71,15.23-2.87,2.25,1.43,4.01,1.77,5.82,4.37,0,0,0,0,0,0,0,0,0,0,0,0,0,0,.02.03.02.03h0c.83.75.84,2.08,1.85,2.64.25.1.31.39.27.69-.15-.13-.27-.24-.5-.44.2.98.32,1.78.37,2.73.52.27.38-.46.5-.73,0,1.29-.2,2.5.1,3.83.14.78.87,1.47-.32,1.78,0,.02-.26.7-.26.7-.19-.17.05-.48-.01-.7-.65-.41-2.26-1.53-2.66-.36-.33.73-.95,1.09-1.28,1.93.17.09.34.18.52.27-.38.29-.6.48-.67,1.11-.39-.95-1.06-1.94-2.18-1.81-.49.15-.84.6-1.38.36-5.45-1.89-11.33-4.09-17.09-1.93-1.65.68-.95,3.04-1.97,4.37-2.02,4.7-7.13,8.06-8.12,13.38-.55,3.29-2.89,6.41-.97,9.7.81,2.3,1.98,5.04.83,7.41,11.84-2.23,24.19-7.62,36.07-2.86,4.1.55,10.48.67,12.41,4.89.67,1.32-.35,1.65-1.38,2.09.03.34.06.7.09,1.12-.22.16-.45.34-.76.58-.04.43-.08.93-.13,1.52-.07.14-.62-.03-.48.46-.7.58-.97,2.26-1.94,2.17-.43-.15-.7.08-1.04.23.04.15.08.27.11.39-.43.34-.95.68-1.39,1.06.23.99,1.64-1.7,2.5.33-7.27.58-14.98.52-22.55.74.63-1.04,1.62-.41,2.62-.65,0-.22,0-.37,0-.51,0,0,0,0,.01,0,.23.18.79.79.83.12-.27-.04-.55-.08-.83-.12,0,0,0,0-.01-.01,0,0,0,0,0,0h0s0,0,0,0c-.21-.09.12-.26.17-.43-.27-.16-.51-.31-.79-.48-.21,1.78-3.71,1.6-5.15,1.37.01-.13.03-.28.05-.45-.35-.38-.83-.54-1.35-.71-1.42,1.03-2.85-.35-4.22-.9-1.39.65-2.73,1.63-4.17,2.16.04-.1.07-.21.11-.32-.64.19-.66.18-.94.54-1.44.33-2.73,1.56-4.02,1.9-5.4,3.11-11.33,5.54-17.7,4.39-5.01-.36-11.22-.32-15.25-3.37-8.63-6.33,6.13-14.02,12.43-14.07,3.05-2.05,1.15-8.05,2.66-11.46.37-3.94,1.37-7.89,3.12-11.45-.48-7.02,1.56-13.84,5.46-19.77,1.63-3.32,2-7.23,4.58-10.15,1.64-1.66,2.47-3.62,2.46-5.97-3.5-7.85.33-6.55-.36-14.5-2.93-.76-5.89.69-8.84-.34-2.49.5-3.5-1.41-4.9-2.99-1.57-1.4.07-3.56-1.03-5.3-.68-2.85,5.83-3.67,7.88-3.95,7.89.2,15.3-2.87,23.29-3.03,12.4.17,24.66.08,36.96-1.1,1.12-.26,2.12.12,3.23-.18,1.18.01,1.35-1.47,2.43-1.8,1.64-1.71,3.67-1.17,5.86-1.62,1.45,1.05,3.39,1.81,3.84,3.75.22.08.41.16.59.23,0,.51-.08,1,.26,1.43.23.36.46.72.66,1.04-.29.38-.9.13-.5.85ZM199.77,139.72c-.61.82-1.28,1.98-.88,2.84.32-.85.61-1.63.89-2.41.04-.1,0-.22,0-.43ZM217.72,86.03c-.25.16-.39.31-.24.64.28-.18.41-.35.24-.64ZM223.46,166.06c-.17-.29-.41-.17-.65-.1-.33.58.47.59.65.1Z"/>
    <path class="cls-1" d="M342.02,144c.36,1.02.36,2.09.59,3.15-.58-.09-.27-.76-.65-1-.42.87-.45,1.79-.41,2.78.1-.37.2-.73.3-1.08.69.04.37,1.06.2,1.45-1.04.34-1.39,1.83-1.22,2.73-.66-.13-.76.8-1.11,1.21-.44,1.2-1.77,1.55-2.33,2.6-1.02.65-2.32,1.12-3.16,2.16-.76-.1-1.54.31-2.36-.03-3.94,11.33-10.09,13.26-20.49,16.11-8.8,4.08-18.41,1.84-27.42,4.46-1.48.48-2.9-1.09-4.15.29-.65-.31-1.22-.73-1.92-.32-6.35,2.47-11.45-4.45-14.22-9.14-.55-1.03-1.7-1.75-2.39-2.68-.48-.03-.58-.4-.69-.75-.28-1.56-.93-2.94-2.32-3.79-.78-2.62-3.25-4.86-3.15-7.88l.02.02s-.01-.02-.02-.04c.04-.09.19-.16.08-.24-.03.08-.11.15-.08.24h0c-2-6.17.31-14.46,3.6-19.72,1.17-4.04,3.68-8.51,8.44-8.23,1.54.25,2.83-1.42,4.52-.61,1.68.6,4.15-.73,5.42.77-.19-.03-.32-.05-.44-.06,1.14,1.59,3.86,1.27,5.39,2.56.36.27.63.15,1.18.23-.54-.37-.94-.65-1.52-1.05,1.1.39,2.83,1.13,3.29,2.12-.12.03-.21.06-.29.08,0,0,0-.01,0-.02-.01,0-.03,0-.05,0-.08-.09-.17-.18-.35-.38.13.35.08.34.35.38.01,0,.02.02.03.03h.02c0,.22.02.44.03.68-.22.35-.54.03-.83.06-.03,1.2,1.67,2.13,2.57,2.87.1.41.12.85-.39,1.18.08.4.38.67.55,1.02.2-.04.35-.07.56-.11.15,2.28-.84,1.52-2.24,1.92-.2.8-.14,1.77-.88,2.33,0,0,0,0,0,0,0,0-.02,0-.03,0,0-.15-.11-.22-.22-.3-.15.09.1.28.22.3,0,.01,0,.03,0,.04,0,0,0,0,0,0h0s.01,0,.02-.02c-.7.89.43,1.58.18,2.51-.5.17-1.04.1-1.59.12-.1.29-.2.57-.31.89-.03-.23-.07-.44-.11-.73-.35.18-.57.24-.97.31.25,1.97-2.07,2.56-2.27,4.27-.51,4.54-4.22,7.49-6.73,10.96,8.27,14.48,6.64,7.82,19.13,6.28-.03-.2-.06-.42-.1-.64,5.9,4.92,11.21-3.49,17.49-2.96,3.46.2,6.93-.2,8.47-3.71,1.33-2.31,4.73-2.64,5.09-5.58.89-8.69-7.01-23.04-14.81-26.99-4.21-3.5-9.11-6.41-13.84-9.49-7.23-2.75-11.41-8.79-10.65-16.62.29-5.02-7.54-7.37-6.74-12.17.06-.32.07-.64-.08-1.1-.16.29-.24.45-.33.61.4-9.52,11.25-14.49,16.78-21.43-.02.18-.02.26-.04.38,3.05-.71,4.86-4.07,7.37-5.67,4.73-3.03,11.39-1.9,16.83-3.02.03-.14.06-.29.11-.52-.4-.04-.76-.08-1-.11,1.93-.18,4.05-3.71,6.04-2.2-1.23.67-3.23.7-3.68,2.27,0,0-.02,0-.03,0,0,.01,0,.03,0,.04-.16.18-.72.46-.37.7.31-.14.38-.4.37-.7,0,0,.02-.01.02-.02,0,0,0-.01,0-.02,1.38-.39,2.55-1.92,4.16-1.66-1.28.62-3.46,1.02-4.04,2.74.85.57,1.33-.34,2.07-.5,1.66-.41,3.24-.6,4.92-.1,7.4-.1,10.82,5.56,13.99,11.57l.02-.02c1.7,3.94,2.88,8.6,3.32,12.98.36,3.17-1.44,6.51-3.23,8.96,1.71,1.4,1.62-2.56,2.59-3.13.23.97.12,1.52-.83,4.18-.95.37-1.83.12-2.71-.48-.52,1.04-1.52,1.33-2.55,1.56-.36,1.93-3.84,3.17-4.77,1.14-.44-.77-1.58-.82-1.78-1.83-.38-.86-1.66-.57-1.87-1.62-2.85-.7-1.81-3.85-2.71-5.58h0c.43-2.96,2.79-6.64-.09-8.98-.12.05-.26.1-.47.19-2.63-3.15-7.86-3.95-11.65-2.96-.06-.29.37-.24.36-.55-1.89-.27-3.52,1.8-5.42,2.18-1.19.03-2.09.99-3.26,1.33.05.17.1.36.16.57-3.48,1.86-8.43,3.55-10.08,7.6.35-.34.62-.61.89-.87.11.92-1.29,1.96-1.58,3.01,2.68,3.27,2.62,7.3,4.55,10.83.08-.32.12-.52.17-.73,1.09,1.69,1.51,4.62,3.09,6.59.13-.82-.44-1.34-.51-2.19,1.12,1.34,1.25,3,1.81,4.58-.59.97.24,1.29.8,1.77,0,0,0,0,0,.01,0,.01.02.02.03.03-.24-.03-.47-.06-.72-.09.21.74.24.75,1.3.69-.21-.22-.39-.41-.57-.6,0-.02-.02-.03-.02-.05.31-.33-.17-.78-.24-1.16,2.77,3.68,8.59.23,12.62,1.73,9.81,3.98,18.03,10.98,22.73,20.58.33-.27-.1-.57.12-.9.64,1.14,1.19,2.51,1.23,3.83-.41-.52-.23-1.32-.95-1.71.73,3.76,1.2,7.51,2.14,11.2-.16.04-.29.07-.43.11.07.87-.58,2.18.43,2.66.47.2.56.69.66,1.08ZM254.85,151.93c.06.07.17.12.16.22-.05-.33-.16-.62-.25-1.03.02.35-.09.58.09.81ZM255.62,143.88s0,0,0,0c0-.18,0-.36,0-.53-.02,0-.03,0-.05,0,.01.18.03.36.04.53-.56.79-.97,2.96-.56,3.82.1-1.35.27-2.6.57-3.82ZM255.04,152.69c0-.19-.02-.35-.02-.51-.01.13-.11.28-.04.42.01.03.03.05.06.08ZM255.44,154.65h-.05s.01.06.01.06l.03-.06ZM256.25,141.84v-.09s-.05.08-.05.08h.05ZM256.67,140.46s-.05.03-.08.05c.02,0,.04.02.05.03,0-.02.02-.05.02-.07ZM257.26,138.76c-.14.24-.39.38-.23.7.16-.2.34-.37.23-.7ZM266.31,126.69c-.36.13-.61.22-.93.33.49.22.51.21.93-.33ZM268.43,127.27s-.03-.06-.05-.1c0,.02-.02.04-.03.07.03,0,.05.02.08.03ZM270.37,126.07c-1.22.03-1.34.07-1.5.57.4-.42,1.09.21,1.5-.57ZM294.14,84.03l.04-.09s-.03-.05-.04-.08c-.01,0-.03.02-.04.03-.06.03.04.09.05.14ZM316.13,71.72s.05.03.07.04c.04-.02.08-.04.12-.06-.02-.01-.05-.04-.07-.04-.04,0-.08.04-.12.06ZM328.28,57.83q.55.37.75.05c-.27-.02-.51-.04-.75-.05ZM330.16,58.29c.33.42.88.34,1.23.62.02,0,.03,0,.05,0,.2.11.41.23.78.44-.27-.43-.51-.48-.77-.44-.04-.02-.07-.04-.11-.06-.5-.58-.53-.58-1.17-.56ZM332.66,59.57c.99,1.67,2.38,2.26,3.49,3.79-.29-1.63-1.75-2.87-3.03-3.8-.1-.04-.23,0-.45.01ZM336.71,126.61c-.37-1.28-.55-1.63-1.13-2.18-.63.66.59,1.43.86,2.08.03.04.12.04.28.1ZM338.68,130.68c-.05-.24,0-.47-.19-.62-.03.05-.09.1-.09.14.01.17-.05.39.28.47Z"/>
    <path class="cls-1" d="M404.44,114.95c-.5.64-1.36.74-2.06,1.12-.56,2.24-9.6,4.97-12.22,5.55-3.18.67-5.75-1.85-8.83-1.67-.85-.04-1.94.49-2.61-.2.08.02.15.04.22.05-.07-.02-.14-.04-.21-.06-.66.31-1.45.34-2,.9-8.67,4.34-18.2,3.52-27.32,5.12-.45-.13-.53-.55-.82-.85-.71-.15-1.25.23-1.93-.3-.49.07-.97.38-1.49.23.11-.16.21-.29.34-.48-.19-.26-.49-.54-.3-.92-.39-.27-.74-.52-1.11-.77.3-.55.8-1.17.08-1.62-.72-.55-.19-1.65.02-2.36-.07-2.71-.33-5.58,1.58-7.87,2.52-3.52,7.19-3.35,10.96-4.37,7.12-3.06,15.4-2.44,22.09,1.44,6.47-1.37,12.93-1.38,19.51.43,2.3.26,4.91-1.4,7.05.01-.04.35-.33.33-.52.42-.98.42-.17,1.54.79,1.66-.11.21-.22.41-.33.6.18.28.54.5.16.86-.04.04.05.24.11.36.07.14.17.27.24.38-.83.78-1.6,1.01-1.41,2.36ZM344.8,119.19c-.23.46-.71,1.36,0,1.66.41-.54.5-1.07,0-1.66Z"/>
  </g>
  <g>
    <path class="cls-1" d="M178.67,630.9c-.9.78-1.03,2.16-2.17,2.7-1.25.45-1.29,1.64-1.53,2.75-.42-.12-.7-.12-1,.19-.66.39-1.35-.08-2.1-.14.06.51-.37,1.7-.99,1.09-.43-1.72-1.68-3.01-1.99-4.79-.27-.77-1.43-.83-1.46-1.81-.04-.38-.52-.44-.65-.81l.18-.09c-1.57-1.49-1.45-4.24-3.53-5.37-2.67-2-5.47-3.66-8.74-4.46-4.51-2.26-8.33-7.62-13.89-6.84,2.32,6.84-6.31,7.83-10.03,10.88-1.16,2.55-3.75,3.39-5.4,5.53-3.93,2.88-3.91,7.94-7,11.32-1.58,2.14-4.09,3.86-5.35,6.04-1.45,2.11-2.35,4.98-4.3,6.72-2.01,1.09.12,3.7-.53,5.52-.38,2.35-2.42,4.83-1.67,7.19.51,1.08.73,2.29.59,3.46-.09-.06-.16-.11-.26-.18,2.94,11.51-6.74,17.92.74,21.42.09-.27.18-.55.3-.93.37.55.19,1.31.94,1.23,3.87.98,7.51,2.82,11.08,4.37,5.5,3.77,12.21.88,18.29,3.67.94-.41,1.18-1.61,2.26-1.81-.54.56-1.16,1.01-1.2,1.63,1.18-.45,1.94-1.77,3.1-2.49-.23-.05-.39-.08-.54-.11,0,0,0-.02.01-.03,0,0-.02,0-.03.01,3.49-2.59,8.02-5.18,9.64-9.42.23-1.19-1.11-2.22-.97-3.56-7.18-7.89,7.35-18.71,14.94-18.98,2.45-.3,4.4,1.77,6.26,3.23,1.4,1.39-.95,3.06.6,4.44.51.98-.82,1.92-.11,2.98.46.7-.29,1.37.04,2.04,1.06,2.05-.69,3.77-1.1,5.72-1.28,4.62-.53,10-3.21,14.28-.2.74-.93,1.26-.82,2.11-.3.69-.42,1.5-1.25,1.83-2.36,2.7-4.94,5.37-7.07,8.16-.07-.09-.13-.17-.2-.25-.88.42-1.8,1.07-2.28,1.98-.73-.13-1.46.54-2,.96-.68,1.17-1.84,1.73-2.92,2.41-.92.5-1.3,1.64-2.53,1.67.11-.23.21-.44.31-.64.2-.05.4-.08.61-.11h0s.02-.02.03-.03c.08-.01.15-.02.2-.09-.09-.11-.12.03-.2.09-.21.04-.42.1-.64.13-2.63,2.14-9.76,2.66-12.71.95-4.13-1.75-7.81-4.78-11.91-6.21-.28-.25.07-.3.04-.49-1.33-1.05-2.78-.83-4.34-.34-3.29-1.92-7.36-1.79-10.77-3.59-3.24-1.33-5.83-4.14-9.3-4.74.63-.08,1.25.26,1.91.02-7.29-3.9-6.98-2.24-10.05-11.1.27-.37.31.16.56,0,.08-.67.1-1.58-.46-2.09.17-2.09-.41-4.11.3-6.17.3-1.46,1.27-2.58,1.09-4.09.65-3.35,5.17-5.79,1.89-9.2-3.41-5.51,2.17-7.54,1.22-9.64-2.88-3.74.53-5.54-.29-8.8-.07.25-.13.43-.2.67-.1-.17-.16-.28-.24-.42-.06.12-.12.24-.17.35-.49-1-.34-2.04.48-2.71,0,0,0,0,0,.02h.02c-.21.58-.53,1.16-.4,1.96.27-.8.69-1.35.75-2.07-.13.03-.24.07-.36.1,0,0,0-.02,0-.03-.01,0-.02.01-.03.01.39-.83.84-2.05,1.79-2.31,0,0,0,0,0,0,0,0,0,0,0-.01-.21.34-.7.62-.56,1.07,0,0,0,0-.01.01,0,0,0,.02,0,.02-.34.02-.46.25-.59.66.39-.17.59-.33.59-.66,0,0,.01,0,.02,0,0-.01,0-.02,0-.03,1.11-1.01,1.29-1.24,1.44-1.88-.35.21-.63.49-.88.81,0,0,0,0,0,0,1.74-2.37,2.8-5.27,4.96-7.47,1.73-2.68,2.8-5.91,4.95-8.39,2.07-3.67,6.26-5.44,8.37-8.97-.55-.85.3-1.15.79-1.71-.98-1.91-1.4-3.93-1.28-6.05,2.44-2.83.8-7.31,3.46-10.33.69-.54,2.42-1.16,2.41-2.14.7-.19,1.23.12,1.8-.48-.22-.17-.39-.3-.56-.44,8.51-3.06,17.96-2.05,26.48,1.54,5.71,1.51,8.84,7.09,13.37,9.98,6.07,3.34,11.62,8.57,15.25,14.43,1.22,1.31.07,2.76.63,4.21.12.23.02.58.02.89ZM96.76,649.48s0,0,0,0c-.01-.08-.03-.16-.04-.23,0,0-.02,0-.03,0,.02.08.04.15.06.23-.06.02-.12.03-.18.04l.18-.03h0ZM107.84,658.36c-.49,1.44-.56,1.8-.43,2.44.34-.79.39-1.52.43-2.44ZM145.36,694.72c.65-.09.91-.54,1.34-.56.58-.72,1.58-1.03,2.06-2.2-1.34.8-2.3,1.69-3.4,2.75ZM149.48,679.28c.08.06.15.1.23.16.15-.14.05-.26-.06-.39-.05.07-.1.13-.17.23ZM149.92,681.24c.06-.12-.04-.23-.08-.34-.26,0-.13.42.03.43.01-.03.03-.06.05-.09ZM151.7,673.66c.74-.33,1.06-.67,1.63-1.67-.7.43-1.15.94-1.63,1.67Z"/>
    <path class="cls-1" d="M270.72,612.37c-.88.08-.83.34-1.06,1.13-.17-.24-.3-.41-.44-.61-.14.13-.28.25-.46.42v-.62c-1.95,1.63-2.11,5.01-3.35,7.27-.29.54-.26,1.09-.04,1.64-.45.33-.13.82-.28,1.21-.03.63-.21,1.23-.25,1.84.5,1.88-.94,3.26-1.22,4.94-.13,1.35.32,2.7-1.03,3.68.39,1.42-.7,3.11-1.73,3.9-1.6,3.23-2.61,6.79-4.52,9.85.33.16.41-.23.64-.22-.54,1.89-2.41,3.65-1.93,5.89q.35-.26.57-.84c-1.04,4.88,2.65,7.48,4.72,11.3.07,1.83-.23,4,.51,5.71-1.09,1.42-1.46,2.89-1.16,3.96.35-.25.37-.85.53-1.14.34.08.26-.44.56-.39-1.98,6.23-9.04,9.99-10.18,16.78,0,0,0,0,0,.01-1.34,3.8-.32,8,1.45,11.29-.31-.18-.5-.3-.69-.41,0,2.06,1.97,3.89,2.64,5.56-.86.59-1.76.52-2.5,1.18-.1.52.38,1.6-.67,1.25-.19.43-.32.99-.96,1.06.03.55-.06.95-.58,1.22-.2.95.14,1.99-.22,2.86-1-.44-2.46-.96-2.6.71-.71.17-1.21.54-1.82.82-.1-.41.24-.63.29-1.03-.56.01-.6.01-.63.29-.61,1.68-5.9,3.56-7.55,3.24h0s0,0,0,0c-.61.08.02-.32-.13-.56-.89.07-1.78.14-2.68.21-.03-.2-.06-.35-.08-.49-.42-.03-.83.3-1.02-.32-.06-.19-.39-.22-.52-.05-.39.55-.81.25-1.37.39,1.67.96,3.9,1.04,5.8.81-2.43,1.1-6.14.35-7.78-1.74.06-.22.28-.1.44-.24.01-.15.03-.34.05-.54.27.03.6.34.81.11.03-.2-.38-.39,0-.6.81.25,1.53.79,2.57.88-.85-.57-1.38-1.53-2.4-1.39-.83.27-.98-.8-1.71-.57-.03.44.18.81.38,1.2-1.24-.18-.99-1.67-1.62-2.45,1.01-.7-.98-2.09-1.26-2.95-.12.06-.19.09-.29.14-.47-1.92.08-4,.73-5.82,0,.09,0,.19.02.33.46-.2.66-.49.78-.9-.14-.05-.26-.09-.37-.13,1.53-1.74,4.19-3.3,6.6-3.66,1.23-.63-.51-2.44-.54-3.5.14-.04.23-.07.37-.12-.03-.83-.14-1.67-.59-2.46v1.23s-.09,0-.14,0c-2.08-11.37,5.75-20.82,6.7-31.43.11.01.2.03.33.04-.06-.63.15-1.42-.13-1.97-.43-.31-.34-.73-.24-1.1.18-1.29.78-2.44.98-3.77-.12-.06-.22-.12-.36-.2,2.08-3.94-8.25.4-10.23.03-3.75.81-7.94-.78-11.08,1.78-4.93,4.05-9.67,13.71-17.36,10.18-.7-.06-2.37-.22-2.38.77-.16-.06-.31-.12-.49-.19-4.53,4.13,3.99,10.29-1.24,20.12-.13-.11-.19-.17-.27-.24-.42.53-.85.86-1.51,1.14-.11-.06-.28-.16-.44-.24.02-.15.03-.26.05-.38-.41.51-.73,1.53-.23,2.27.34-.33.66-.44,1.16-.37-.04.64-.48,1.09-.75,1.64.95.97,2.69,1.93,1.2,3.39,1.71,3.12-.3,6.37-1.36,9.42-2.81,2.86-3.75,8.52-8.49,9.01-2.71,4.89-7.89,2.12-11.61.07,0,0,0,0,0,0,.25-.13.55-.44.26-.68-1.58-1.63-1.37-3.88-.78-5.85.19-3.46,4.88-5.16,4.97-8.47.56-1.3-.05-2.51-.63-3.71-1.42-3.33-.65-7.18-.44-10.62-.04-6.82,1.09-13.4,4.92-19.04.02-3.52-3.45-6.57-3.42-10.38-.77-5.49.48-11,2.35-16.17,3.35-6,9.16-9.9,11.83-16.47l.31.05s0,0,0,0c3.07-5.46.22-12.67,3.62-18.25,1.43-2.04,3.24-5.33,6.13-5.05q.4-.4.77-.2c.71-.4,1.38-.87,2.01-1.43.18.22.31.39.47.6.41-.28.61-.82,1.22-.73.04.61.17,1.21.41,1.79-.27.52-.5,1.04-.33,1.7.21.12.47.25.74.4-.69.61-1.36,2.55.32,2.22-.06.25-.12.5-.17.71.45.31.7-.57.77-.9.64.49-.27,1.4-.6,1.92-1.07-.17-.61,1.89-.98,2.6-1.22,1.17-1.14.77-.65,2.61-.29.07-.92-.35-.69.47.09.58-.26,1.23-.05,1.87v.02c-.1-.05-.19-.09-.32-.15,0,.35-.11.66.32.88v-.73s0,0,0,0c1.94,4.69-.03,8.88-1.95,13.14.33-.39.48-.83.87-1.03-.99,3.3-4.56,5.75-4.37,9.26-.03,2.05-1.65,3.52-2.12,5.35-.3,2.45.17,4.95.09,7.54.24.13.47.26.71.39,8.54-2.74,17.73-4.11,26.63-3.56,5.62-.44,12.25,2.08,17.54-.04.93-1.15.29-2.9.74-4.17.72-2.19,1.39-4.49,2.21-6.49,1.23-3.16,2.24-6.52,2.89-9.84-.14-5.95-3.95-13.61,1.35-18.25,2.06-.28,3.05-2.02,4.97-2.63,1.14-.34,1.59-1.96,2.68-2.31.76-.02.89-.67,1.44-.97.48.7,1.29-.16,1.78-.28,1.39.19,2.89,1.21,3.81-.19.42.36.79.68,1.17,1,.21-.07.42-.15.69-.25.15.65-.91,1.59.19,1.79.33,0,.68-.04.83.34.44,2.12.45,4.43.46,6.5.35,1.53-.29,3.22.53,4.7.04.13.07.26.12.44ZM183.21,715.07c-.4-.08-.75-.12-1.02.29.42.12.76.14,1.02-.29ZM197.81,604.47c-.05.04-.05.08-.02.13.05-.04.06-.08.02-.13ZM207.52,618.09c.6-1.24.74-2.35.23-3.55-.38.95-.49,2.42-.23,3.55ZM208.9,604.88l.15-.06c.05-.2.02-.35-.14-.49-.18.17-.11.35-.02.55ZM228.77,710.93c-.19.18-.1.25.09.36.14-.18.05-.24-.09-.36ZM234.55,696.56c-.05-.33-.15-.66-.34-.94,0-.02,0-.04,0-.07,0,0-.01-.01-.02-.02-.02-.06,0-.31-.16-.13.05.04.1.08.16.13,0,.02,0,.03,0,.05,0,.01.01.03.02.04-.02.24-.04.48-.03.71.01.15.1.31.37.23ZM241.61,713.58c-1.26.26-2.67.97-3.76,1.66.03.17.05.33.08.48.82-.32,1.62-.62,2.42-.95.53-.21.63-.33,1.27-1.2ZM245.45,712.48l-.02.14c.06-.04.07-.08.02-.14ZM261.41,635.67c-.09.27-.15.48-.26.83q.39-.46.26-.83ZM262.34,634.17s-.08-.03-.12-.05c-.1.22-.21.43-.31.65.06.03.12.05.18.08.08-.23.16-.45.24-.67Z"/>
    <path class="cls-1" d="M365.36,697.4c1.15,6.05-3.84,10.91-6.39,15.89-.12-.04-.24-.08-.41-.14-.94.84-1.89,1.7-2.91,2.61-.46-.68-1.23-1.11-1.17-2.04-.2-.22-.41-.45-.66-.73-4.01.97-2.55.19-5.16-1.85-1.64-.78-3.85-2.5-3.98-4.4-.03-1.18.05-2.32-.61-3.39.22-.17.43-.32.67-.5-.04-.18-.08-.38-.11-.56.11-.04.2-.08.3-.11-.31-.89.25-1.9-.63-2.57-5.65-4.14-5.61-11.43-3.3-17.45.53-3.96,8.24-6.13,4.63-10.19.13-.1.27-.2.48-.35-.16-1.11-.33-2.25-.5-3.43-.33-.1-.61-.18-.9-.27.06-.16.1-.29.15-.43-9.67-2.66-18.6,1.63-27.24,5.82-9.51,1.4-18.1,5.25-20.26,15.45-1.12,2.92-2.63,5.87-4.62,8.36-.85,1.09-2.47,1.92-1.66,3.57-.22,0-.37,0-.6,0-.19,1.93-1.84,3.36-1.33,5.42-1.31,1.32-3.07,1.68-4.63,2.58-1.42.4-2.15,2.01-3.71,2.07-2.19-.04-5.51,1.2-.97.91-1.32.6-3.14.33-3.52,2.15-.53,2.27-1.58,4.45-2.39,6.59-1.84.43-3.18,1.11-4.75,1.98-1.19,1.3-2.32,2.23-4.16,1.9-6.66-2.8-12.71-10.7-8.06-17.88,5.1-10.78,20.1-11.03,24.77-22.3,0,0,0,0,0,0,.27-.33.68-.5.76-.99-2.07-1.16-3.7-2.84-6.24-3.08-5.99-3.45-3.03-11.53,2-14.3,8.06-6.14,14.49-1.64,19.25-11.38l.04.17c.2-.08.08-.2.03-.34.08.01.16.03.24.04h0s.02,0,.02,0c0,0,0-.02,0-.03.23-.18.36-.4.18-.66.06.02.12.04.17.06h0s.02,0,.03,0h0s0,0,0,0c0,0,0-.01,0-.02,2.21-1.39,3.48-4.2,5.82-5.35,0,0,0,.01-.01.02,0,0,0,0,0,0-.09.13-.17.25-.3.44.54-.15.55-.16.3-.44,0,0,.01-.02.02-.02h0s0,0-.01,0c1.06-1.28,2.73-1.88,3.95-2.95l.02.03s.02,0,.04,0c.15.06.3.09.4-.09.17-.03.35-.02.43-.2.22,0,.34-.15.44-.33h0c7.05-3.8,8.09-11.81,12.75-17.45,4.04-4.49,8.02-9.28,12.52-13.48,2.7-4.31,4.39-9.67,10.37-10.07.3-.67.47-1.43,1.31-1.64,0,0-.01.01-.02.02,0,0,0,0,.01,0-.06.1-.12.21-.2.34.68.01.71-.37.2-.34,0,0,0-.02.01-.02,0,0,0,0,0,0,.95-.97,3.18-1.2,3.25-2.83,3.68-3.09,10.01-2.64,10.9,2.81.41,1.38.23,3.27,1.66,4.04.26,1.61.22,3.63,1.88,4.57-.53,1.08.15,2.13-.12,3.35-.09-.23-.16-.37-.22-.53-1.44.26-.36,1.67,0,2.45,0,.01-.02.03-.02.04.1,0,.12.17.21.1-.08-.03-.15-.07-.18-.14.06-.11.13-.23.28-.49,3.54,12.29-3.79,23.91-7.53,35.14,1.11.08,2.05.43,3.16-.12.23.17.46.34.73.54,5.95-2.56,2.03,7.96.77,10.34-.74,1.92-.05,4.14.29,6.11.26,1.31-.3,2.56.19,3.92-.16,4.23-4.13,6.78-5.1,10.62-1.9,5.53,7.43,4.37,8.96,15.44ZM351.29,616.56c-6.12,5.86-13.12,11.68-18.46,18.23-1.77,3.44-2.88,7.18-5.05,10.41-3.13,6.25-11.14,8.79-12.57,15.96,8.79-3.19,17.49-7.33,27.11-7.56.35-1.84.52-3.58,1.51-5.11l.03.02v-.04c.21-.14.25-.27,0-.39v-.04l-.02.02c1.66-3.38,1.73-4.31.87-7.93.37.05.28-.38.47-.46,1.04-.64.09-2.2.5-3.01.01,0,.03-.02.04-.03,0,.31-.11.75.41.69.16-.38,1.13-.93.64-1.37-.34.22-.69.45-1.05.68h0s-.02,0-.04.01c.48-1.1,1.7-1.66,2.45-2.57,1.81-3.76,1.76-8.49,4.48-12.04.27-1.75-.68-3.87-1.32-5.49ZM380.1,564.11c-1.45,9.88-13.75,7.49-20.23,9.92-.68,3.72-2.57,6.26-6.14,7.54-2.99,1.96-7.49,3.46-10.84,1.65-1.22-.95-5.76-2.17-4.81-4.2-4.12-4.19,2.2-9.83,5.62-12.34,4.01-3.23,9.67-3.07,13.22-7.01.43.11.68-.14.89-.46-.05-.03-.11-.05-.16-.08,4.65-3.58,10.95-3.38,15.84-5.74.64-.22.98.28,1.57.23.04-.14.08-.3.12-.46.97.53,1.85.36,2.75-.28.07.19.12.34.16.48.45.25.84.07,1.24-.14.85.12.69.94.95,1.58.16-.03.28-.05.45-.09.3,3.04-.25,6.29-.62,9.38ZM362.86,615.45c.03.99.27,2.08.84,2.74-.08-.96-.34-1.84-.84-2.74Z"/>
  </g>
  <g>
    <path class="cls-1" d="M303.17,362.18c-.02-.21-.04-.37-.06-.59-.59,1.77-1.5,3.3-2.33,4.94-1.21,1.3-.25,4.22-.74,6.07-.85,3.87-2.83,8.37-5.6,11.11v-.23c-.23-.03-.2.2-.26.37-.45.68-1.9,1.39-1.37,2.3-1.41,2.1-4.96,3.52-7.42,4.36-3.21.08-6.07,1.77-9.28,1.87-.78.12-1.63.12-2.11.91,3.95.95,8.76.28,12.53-.91-3.39,2.54-9.44,1.36-13.76,2.04-1.7.87-3.55,2.05-4.87,3.16-.07-.04-.15-.09-.23-.14-6.34,3.58-13.51,1.21-20.44,2.23-6.25,12.07-11.85,27.21-12.73,41.33-.55.55-.44,1.57.21,1.92.3,1.19.63,2.33.69,3.55.59,1.18.75,1.84-.59,2.6-.13-.07-.28-.14-.42-.21.38-.5.85-.77,1-1.36-3.3,1.68-7.69,6.85-11.47,4.53-.13.01-.37.11-.44.04-.39-.41-1.17-.14-1.41-.87,1.63-15.26,3.12-31.25,6.96-46.3-1.13-.24-.79-1.14-1.3-1.92-.81.31-.81-.68-1.73-.51,1.33-1.05-.51-2.1-.59-3.11.36-.64,1.08-1.27.84-2.07-.13-.32.04-.53.24-.71.94-.99,2.81-1.81,2.81-3.27.46-.56.95-.04,1.48-.35,1.62-.99,1.64-1.51.89-3.1.64-1.91,2.09-3.38,2.82-5.08,1.59-1.1,4.18-2.16,4.55-4.25-.78-13.78,6.96-26.78,6.08-40.67-.49-1.03-1.64.2-2.45.12-3.07.74-8.73,2.48-9.58-2.05-.07-.6-.21-.72-.85-.71-.88-.15-1.16-1.25-1.72-1.84-.43-.88-1.53-1.65-1.42-2.68.32-.83.02-1.42-.16-2.15.22-.16.51-.04.77-.05.63-.65,1.29-1.21,1.89-2,.54.02,1.17.06,1.5-.48.97-1.09,2.46-.02,3.72-.57.26-.6.72-1.03,1.12-1.5.5.68-.95,1.72.74,1.44,3.63-.76,8.82-.28,11.34-3.27,1.3-1.5,1.23-3.68,2.18-5.42.33-.82,1.96-.13,1.16-1.52.78-2.39,2.4-.96,3.92-1.77.21.08.72.39.95.33.41-.49,1.19.11,1.49-.74.33.64.27,1.14.95,1.17.54.91,1.04,1.71,1.38,2.77.09-.22.16-.42.25-.65.34.08.36.32.34.55q-.14,1.42.23,3.01c.27.17.54.18.87-.1-.63-3.9.31-3.28.49.12,10.98,1.82,25.68,1.31,31.33,12.75,5.83,5.58,5.68,14.63,8.49,21.67.21-1.7-.33-3.26-.09-4.95.35.97.13,2.03.29,3.04-.01,2.42.14,5.79-1.07,7.8ZM288.94,356.08c-2.19-4.72,0-10.28-2.47-14.83-1.43-1.62-1.42-5.54-4.02-5.53-6.45-.85-13.12-.7-19.37-2.92-.21,1.65-1.4.8-2.44,1.77.43.64,1.33.66,1.43,1.53-3.23-2.29-3.93,1.69-4.94,3.94-.28-1.31.83-2.27.73-3.53-5.12,4.91-.12,11.67-1.64,17.47-7.83,9.53-4.73,11.82-5.11,23.19,1.32-.01,1.25-.92,2.62.06,3.2-.26,6.25.37,9.36.43,3.7,1.54,17.69,4.39,19.38-.22,1.21-2.91,2.36-5.92,4.55-8.26,1.77-2.89.81-6.72,2.09-9.88.25-1.04.32-2.26-.18-3.21Z"/>
    <path class="cls-1" d="M391.17,333.48c.64,5.11-4.44,8.71-9.13,9.25,0,0,0-.02,0-.03-5.08,1.42-10.25,1.04-15.34.18h0c-7.87-2.62-16.01,3.55-23.29,5.56-1.32-1.01-2.86.52-4.32.41-1.18.13-1.39,1.84-2.22,2.62-.57,1.29-2.4,1.65-2.44,3.27-.5,1.22-.29,1.91.23,3.1-.13.1-.26.2-.4.31-.3,2.79-.15,5.87-.88,8.53-1.09,1.28-5.8,7.16-1.21,5.45,5.03-.1,10.05-2.71,15.23-2.87,2.25,1.43,4.01,1.77,5.82,4.37h0s.03.04.03.04h0c.83.75.84,2.08,1.85,2.64.25.1.31.39.27.69-.15-.13-.27-.24-.5-.44.2.98.32,1.78.37,2.73.52.27.38-.46.5-.73,0,1.29-.2,2.5.1,3.83.14.78.88,1.47-.32,1.78,0,.02-.26.7-.26.7-.19-.17.05-.48-.01-.7-.65-.42-2.26-1.53-2.66-.36-.33.73-.95,1.09-1.28,1.93.17.09.34.18.52.27-.38.29-.6.48-.67,1.11-.39-.95-1.06-1.94-2.18-1.81-.49.15-.84.6-1.38.36-5.45-1.89-11.33-4.09-17.09-1.93-1.65.68-.95,3.04-1.97,4.37-2.02,4.7-7.13,8.06-8.12,13.38-.55,3.29-2.89,6.41-.97,9.7.81,2.3,1.98,5.04.83,7.41,11.84-2.23,24.19-7.62,36.07-2.86,4.1.55,10.48.67,12.41,4.89.67,1.32-.35,1.64-1.38,2.09.03.34.06.7.1,1.11-.22.16-.45.34-.76.58-.04.43-.08.93-.13,1.52-.07.14-.62-.03-.48.46-.7.58-.97,2.26-1.95,2.17-.43-.15-.7.09-1.04.23.04.15.08.27.11.39-.43.35-.96.68-1.39,1.06.23.99,1.64-1.7,2.51.33-7.27.58-14.98.52-22.55.74.62-1.04,1.62-.41,2.62-.65,0-.22,0-.37,0-.51,0,0,0,0,.01,0,.23.18.79.79.83.12-.27-.04-.55-.08-.83-.12h-.01s0,0,0,0h0s0,0,0,0c-.21-.09.12-.26.17-.43-.27-.16-.51-.31-.79-.48-.21,1.78-3.71,1.6-5.15,1.37.01-.13.03-.28.05-.45-.35-.38-.83-.54-1.35-.71-1.42,1.03-2.85-.35-4.22-.9-1.39.65-2.73,1.63-4.17,2.16.04-.1.07-.21.11-.32-.64.18-.65.18-.94.54-1.44.33-2.73,1.56-4.02,1.9-5.4,3.11-11.33,5.54-17.7,4.39-5.01-.36-11.22-.32-15.25-3.37-8.63-6.33,6.13-14.02,12.43-14.06,3.05-2.05,1.15-8.05,2.66-11.46.37-3.94,1.37-7.89,3.12-11.45-.47-7.02,1.56-13.84,5.46-19.77,1.63-3.32,2.01-7.23,4.58-10.15,1.64-1.66,2.47-3.62,2.46-5.97-3.5-7.85.33-6.55-.36-14.5-2.93-.76-5.89.69-8.84-.34-2.49.5-3.5-1.41-4.9-2.99-1.57-1.4.07-3.56-1.04-5.3-.68-2.85,5.83-3.67,7.88-3.95,7.89.2,15.3-2.87,23.29-3.03,12.4.17,24.66.09,36.96-1.1,1.12-.26,2.12.12,3.23-.18,1.18.01,1.35-1.47,2.43-1.8,1.64-1.71,3.68-1.17,5.87-1.62,1.45,1.05,3.39,1.81,3.84,3.75.22.08.41.16.6.23,0,.51-.09,1.01.26,1.43.23.36.46.72.66,1.04-.29.38-.89.13-.5.85ZM319.74,402.88c-.61.82-1.28,1.98-.88,2.84.32-.85.61-1.63.89-2.41.04-.1,0-.22,0-.43ZM337.69,349.19c-.25.15-.39.31-.24.64.28-.18.41-.35.24-.64ZM343.43,429.22c-.17-.29-.41-.17-.65-.1-.33.58.47.59.65.1Z"/>
    <path class="cls-1" d="M438.02,378.11c-.5.64-1.36.74-2.06,1.12-.56,2.24-9.6,4.97-12.22,5.55-3.18.67-5.74-1.85-8.82-1.67-.85-.04-1.94.49-2.61-.2.07.02.15.04.22.05-.07-.02-.14-.04-.21-.06-.66.31-1.45.34-2,.9-8.67,4.34-18.2,3.52-27.32,5.12-.45-.13-.53-.55-.82-.85-.71-.16-1.25.23-1.93-.3-.49.07-.97.38-1.49.23.11-.16.21-.29.34-.48-.19-.26-.49-.54-.3-.92-.39-.27-.74-.52-1.11-.77.3-.55.8-1.17.08-1.62-.72-.55-.19-1.65.02-2.36-.07-2.71-.33-5.58,1.58-7.88,2.52-3.52,7.19-3.35,10.96-4.37,7.12-3.06,15.4-2.44,22.09,1.44,6.47-1.37,12.93-1.38,19.52.43,2.3.26,4.91-1.4,7.05.01-.04.35-.33.33-.52.42-.98.42-.17,1.54.79,1.66-.11.21-.22.41-.33.6.18.28.54.5.16.86-.04.04.05.24.11.36.07.14.17.27.24.38-.83.78-1.6,1.01-1.41,2.36ZM378.37,382.35c-.23.46-.71,1.36,0,1.66.41-.54.5-1.07,0-1.66Z"/>
  </g>
</svg>