<?xml version="1.0" encoding="UTF-8"?>
<svg id="Layer_1" data-name="Layer 1" xmlns="http://www.w3.org/2000/svg" viewBox="0 0 471.92 768">
  <defs>
    <style>
      .cls-1 {
        fill: #f12427;
      }

      .cls-2 {
        fill: #fdffe3;
      }
    </style>
  </defs>
  <g>
    <path class="cls-1" d="M65.53,170.56l4.09,3.01-.24,1.08c-1.2,1.32-2.1,3.37-2.35,5.05l-5.41,33.68c-.12,1.5-.84,5.05.78,5.35l-.48,3.13h-6.19l.48-3.13c.3-.06,1.68-.66,2.41-5.35l2.04-12.15c-2.53,2.53-5.41,3.91-8.18,3.91-5.95-.06-10.88-6.37-9.08-17.56,1.74-10.82,8.48-17.08,14.37-17.08,2.83,0,5.53.3,7.28,2.89l.48-2.83ZM64.21,178.8c-.48-4.63-2.53-7.22-6.56-7.22-6.25,0-9.32,6.25-11.01,16.72-1.56,10.04-.24,16.12,5.95,16.12,4.09,0,6.92-3.13,8.78-7.88l2.83-17.74ZM78.33,176.4l-2.41,15.09c-1.08,6.74-1.8,12.93,3.85,12.93,3.25,0,7.88-2.04,8.9-8.3,1.08-6.92,2.16-13.35,3.31-20.45.18-1.2.48-2.95-.3-2.95l.36-2.1h2.16c-.12.78-.18,1.44-.3,2.16-.6.42-1.08,1.92-1.26,2.95l-3.25,20.39c-1.02,6.49-5.77,8.96-9.68,8.96-7.34,0-8.66-5.77-7.16-15.28.78-4.63,1.5-9.2,2.23-13.83.18-1.26.3-3.07-1.02-3.25l.36-2.16c1.98,0,4.69.06,6.62.06l-.3,2.16c-1.5.18-1.92,2.29-2.1,3.61ZM110.75,170.5c5.59.06,8.24,3.07,3.91,7.76l-15.58,15.09c1.26,8.48,7.64,17.44,13.11,1.92,0,0,2.53-.72,2.35-.42-.48,1.26-1.02,2.41-1.62,3.43-6.19,11.61-18.4,8.78-17.26-7.04.78-10.7,6.37-20.75,15.09-20.75ZM110.69,171.04c-8.48,0-12.21,11.97-11.85,20.09,0,.54.06,1.08.12,1.56,1.86-1.86,13.83-12.99,14.67-18.58.36-2.23-1.02-3.07-2.95-3.07ZM143.72,205.32l-5.23-29.29c-.18-1.26-.72-3.07-2.04-3.25l.36-2.23c1.98,0,4.75.06,6.74.06l-.36,2.23c-1.44.18-1.14,2.35-.9,3.67l3.91,22.67,9.98-21.17c2.53-5.29,2.35-5.23,1.56-5.23l.36-2.23h2.29l-.36,2.23c-.6,0-.42-.06-1.92,2.89l-14.19,29.65h-.18ZM162.73,205.02c-3.61,0-4.63-3.61-3.97-7.7,1.8-11.25,16.66-11.25,17.56-18.58.48-4.27.24-7.7-3.91-7.7-3.01,0-6.07,1.5-6.62,5.77l-3.49,2.41c1.32-6.8,6.98-8.72,10.22-8.72,7.64,0,7.7,3.55,6.49,11.01l-2.35,14.79c-.18.96-1.2,7.04-.6,7.1l-.18,1.2c-1.5.78-3.07.84-3.19-1.56-.06-.42.12-1.92.18-2.65-3.25,2.35-7.1,4.63-10.16,4.63ZM163.76,202.68c2.95,2.35,6.25-1.44,9.32-3.43l2.65-16.9c-3.97,4.39-12.63,5.05-14.19,13.71-.42,2.29.54,5.29,2.23,6.62ZM183.53,197.32l.06-.36,4.69-29.17c.42-2.89,1.56-7.7.06-9.68l.24-1.38c2.23.18,2.89-.18,4.75-1.86-.24,1.44-6.68,42.1-6.68,42.1-.72,4.45.42,4.99.72,5.05l-.48,3.01h-6.19l.48-3.01c1.5-.24,2.04-2.89,2.35-4.69ZM196.09,182.89c.96-5.95,5.65-11.91,10.34-12.51.6-.06,1.2-.06,1.74-.06,2.29-3.31,7.16-6.31,9.62-4.63l-2.16,4.21c-2.53-.84-5.05-1.74-6.92.48,1.14.24,2.16.72,3.01,1.56,2.59,2.47,3.79,6.62,3.01,11.25-1.02,6.49-6.19,11.67-11.07,11.67-2.23,0-4.21-1.14-5.59-3.01l-1.8,1.74c-2.71,2.65,5.35,1.32,11.49,2.29,11.19,1.68,6.01,13.89-4.57,12.75-4.39-.42-8.72-2.59-12.21-4.87l2.77-2.83s5.47,6.01,9.68,6.56c7.22.9,9.8-9.86,3.73-10.1-4.45-.18-10.58,2.23-12.93,1.86-3.67-.54-.36-4.03,1.8-6.01l1.8-1.68c-1.5-2.23-2.29-5.35-1.74-8.66ZM206.37,170.92c-4.75.6-6.31,5.71-7.16,11.07-1.02,6.43-.84,12.21,4.93,12.21,4.93,0,6.56-4.39,7.46-10.04.36-2.59.9-9.62-.96-11.91-.9-1.02-2.29-1.56-4.27-1.32ZM222.11,205.02c-3.61,0-4.63-3.61-3.97-7.7,1.8-11.25,16.66-11.25,17.56-18.58.48-4.27.24-7.7-3.91-7.7-3.01,0-6.07,1.5-6.62,5.77l-3.49,2.41c1.32-6.8,6.98-8.72,10.22-8.72,7.64,0,7.7,3.55,6.5,11.01l-2.35,14.79c-.18.96-1.2,7.04-.6,7.1l-.18,1.2c-1.5.78-3.07.84-3.19-1.56-.06-.42.12-1.92.18-2.65-3.25,2.35-7.1,4.63-10.16,4.63ZM223.13,202.68c2.95,2.35,6.25-1.44,9.32-3.43l2.65-16.9c-3.97,4.39-12.63,5.05-14.19,13.71-.42,2.29.54,5.29,2.23,6.62ZM245.01,174.35l.12-1.74s3.37-.06,5.41-2.1c-.06.72-.66,4.33-1.38,9.44,1.86-3.97,5.65-7.88,9.14-9.14,2.04-.72,4.03-.12,5.41,1.68,2.16,2.71,1.08,7.04.48,10.82-.72,4.51-1.44,9.08-2.16,13.59-1.02,4.93.24,4.99.6,5.05l-.48,3.13h-6.19l.48-3.13c1.44-.24,2.1-3.07,2.41-4.99l2.29-14.43c.6-3.97,1.68-9.98-3.01-9.98-3.55,0-8.18,5.83-9.26,9.86l-2.28,14.49c-1.02,4.93.24,4.99.6,5.05l-.54,3.13h-6.2l.54-3.13c1.44-.24,2.05-3.07,2.35-4.99l2.71-16.6c.3-2.1-.06-3.49-1.02-6.01ZM286.01,197.32l.06-.36,4.69-29.17c.42-2.89,1.56-7.7.06-9.68l.24-1.38c2.23.18,2.89-.18,4.75-1.86-.24,1.44-6.67,42.1-6.67,42.1-.72,4.45.42,4.99.72,5.05l-.48,3.01h-6.2l.48-3.01c1.5-.24,2.04-2.89,2.34-4.69ZM298.75,205.02c-3.61,0-4.63-3.61-3.97-7.7,1.8-11.25,16.66-11.25,17.56-18.58.48-4.27.24-7.7-3.91-7.7-3.01,0-6.07,1.5-6.62,5.77l-3.49,2.41c1.32-6.8,6.98-8.72,10.22-8.72,7.64,0,7.7,3.55,6.49,11.01l-2.35,14.79c-.18.96-1.2,7.04-.6,7.1l-.18,1.2c-1.5.78-3.07.84-3.19-1.56-.06-.42.12-1.92.18-2.65-3.25,2.35-7.1,4.63-10.16,4.63ZM299.77,202.68c2.95,2.35,6.25-1.44,9.32-3.43l2.65-16.9c-3.97,4.39-12.63,5.05-14.19,13.71-.42,2.29.54,5.29,2.22,6.62ZM338.33,173.57l5.05-3.01-.42,2.83c2.59-2.59,5.41-2.89,8.18-2.89,5.89,0,10.71,6.25,8.96,17.08-1.8,11.19-8.66,17.5-14.67,17.56-2.77,0-5.23-1.38-6.92-3.91l-1.8,12.15c-.78,4.69.36,5.29.66,5.35l-.48,3.13h-6.2l.48-3.13c1.68-.3,2.16-3.85,2.47-5.35l5.35-33.68c.3-1.68.06-3.73-.72-5.05l.06-1.08ZM350.9,171.59c-4.03,0-6.85,2.59-8.84,7.22l-2.83,17.74c.42,4.75,2.22,7.88,6.31,7.88,6.19,0,9.44-6.07,11.06-16.12,1.68-10.46.6-16.72-5.71-16.72ZM378.85,170.5c5.59.06,8.24,3.07,3.91,7.76l-15.58,15.09c1.26,8.48,7.64,17.44,13.11,1.92,0,0,2.52-.72,2.34-.42-.48,1.26-1.02,2.41-1.62,3.43-6.2,11.61-18.4,8.78-17.26-7.04.78-10.7,6.37-20.75,15.09-20.75ZM378.79,171.04c-8.48,0-12.21,11.97-11.85,20.09,0,.54.06,1.08.12,1.56,1.86-1.86,13.83-12.99,14.67-18.58.36-2.23-1.02-3.07-2.94-3.07ZM389.54,174.35l.12-1.74s3.37-.06,5.41-2.1c-.06.72-.66,4.33-1.38,9.44,1.86-3.97,5.65-7.88,9.14-9.14,2.05-.72,4.03-.12,5.41,1.68,2.16,2.71,1.08,7.04.48,10.82-.72,4.51-1.44,9.08-2.17,13.59-1.02,4.93.24,4.99.6,5.05l-.48,3.13h-6.2l.48-3.13c1.44-.24,2.1-3.07,2.41-4.99l2.28-14.43c.6-3.97,1.68-9.98-3.01-9.98-3.55,0-8.18,5.83-9.26,9.86l-2.29,14.49c-1.02,4.93.24,4.99.6,5.05l-.54,3.13h-6.19l.54-3.13c1.44-.24,2.05-3.07,2.35-4.99l2.71-16.6c.3-2.1-.06-3.49-1.02-6.01ZM416.09,205.02c-3.61,0-4.63-3.61-3.97-7.7,1.8-11.25,16.66-11.25,17.56-18.58.48-4.27.24-7.7-3.91-7.7-3.01,0-6.07,1.5-6.62,5.77l-3.49,2.41c1.32-6.8,6.98-8.72,10.22-8.72,7.64,0,7.7,3.55,6.49,11.01l-2.34,14.79c-.18.96-1.2,7.04-.6,7.1l-.18,1.2c-1.5.78-3.07.84-3.19-1.56-.06-.42.12-1.92.18-2.65-3.25,2.35-7.1,4.63-10.16,4.63ZM417.11,202.68c2.94,2.35,6.25-1.44,9.32-3.43l2.64-16.9c-3.97,4.39-12.63,5.05-14.19,13.71-.42,2.29.54,5.29,2.23,6.62Z"/>
    <path class="cls-2" d="M128.66,236.82v-5.01h1.88c.38,0,.71.07.97.22.26.14.46.34.59.59.14.25.2.53.2.85s-.07.61-.2.86c-.14.25-.33.45-.6.59-.26.14-.59.21-.98.21h-1.24v-.75h1.12c.22,0,.41-.04.55-.12.14-.08.25-.19.32-.32.07-.14.11-.29.11-.47s-.03-.33-.11-.47c-.07-.14-.18-.24-.32-.32-.14-.08-.33-.11-.56-.11h-.83v4.25h-.91ZM134.26,236.82h-.97l1.76-5.01h1.12l1.77,5.01h-.97l-1.34-3.98h-.04l-1.33,3.98ZM134.3,234.85h2.64v.73h-2.64v-.73ZM139.72,231.81v1.84h-.68v-1.84h.68ZM141.69,236.82v-5.01h.91v4.25h2.21v.76h-3.11ZM149.47,236.82v-5.01h1.88c.38,0,.71.07.97.22.26.14.46.34.59.59.14.25.2.53.2.85s-.07.61-.2.86c-.14.25-.33.45-.6.59-.26.14-.59.21-.98.21h-1.24v-.75h1.12c.22,0,.41-.04.55-.12.14-.08.25-.19.32-.32.07-.14.11-.29.11-.47s-.04-.33-.11-.47c-.07-.14-.18-.24-.32-.32-.14-.08-.33-.11-.56-.11h-.83v4.25h-.91ZM154.98,236.82v-5.01h3.26v.76h-2.35v1.36h2.18v.76h-2.18v1.37h2.37v.76h-3.28ZM160.25,236.82v-5.01h1.88c.38,0,.71.07.97.2.26.13.46.32.59.56.14.24.2.52.2.84s-.07.6-.21.84c-.14.23-.33.42-.6.55-.26.13-.59.19-.97.19h-1.34v-.75h1.22c.22,0,.41-.03.55-.09.14-.06.25-.16.32-.28.07-.12.11-.27.11-.45s-.04-.33-.11-.45c-.07-.13-.18-.22-.32-.29-.14-.07-.33-.1-.56-.1h-.83v4.25h-.91ZM162.84,234.55l1.24,2.27h-1.01l-1.22-2.27h.99ZM165.81,236.82v-5.01h1.88c.38,0,.71.07.97.2.26.13.46.32.59.56.14.24.2.52.2.84s-.07.6-.21.84c-.14.23-.34.42-.6.55-.26.13-.59.19-.97.19h-1.34v-.75h1.22c.22,0,.41-.03.55-.09.14-.06.25-.16.32-.28.07-.12.11-.27.11-.45s-.04-.33-.11-.45c-.07-.13-.18-.22-.32-.29-.14-.07-.33-.1-.56-.1h-.83v4.25h-.91ZM168.4,234.55l1.24,2.27h-1.01l-1.22-2.27h.99ZM171.37,236.82v-5.01h3.26v.76h-2.35v1.36h2.18v.76h-2.18v1.37h2.37v.76h-3.28ZM181.11,234.31c0,.54-.1,1-.3,1.39-.2.38-.47.68-.82.88-.35.2-.74.31-1.18.31s-.83-.1-1.18-.31c-.35-.21-.62-.5-.82-.88-.2-.38-.3-.85-.3-1.38s.1-1,.3-1.38c.2-.38.48-.68.82-.88.35-.2.74-.31,1.18-.31s.83.1,1.18.31c.35.2.62.5.82.88.2.38.3.84.3,1.38ZM180.2,234.31c0-.38-.06-.7-.18-.96-.12-.26-.28-.46-.49-.59-.21-.14-.45-.2-.72-.2s-.51.07-.72.2c-.21.13-.37.33-.49.59-.12.26-.18.58-.18.96s.06.7.18.96c.12.26.28.46.49.59.21.13.45.2.72.2s.51-.07.72-.2c.21-.14.37-.33.49-.59.12-.26.18-.58.18-.96ZM183.74,236.13l-.03.27c-.02.21-.06.41-.12.63-.06.21-.12.41-.18.59-.06.18-.11.32-.15.42h-.6c.02-.1.05-.23.09-.41.04-.17.08-.36.12-.58.04-.21.06-.43.08-.65l.02-.27h.78ZM188.49,236.82v-5.01h.91v4.25h2.21v.76h-3.11ZM194.31,236.82h-.97l1.76-5.01h1.12l1.77,5.01h-.97l-1.34-3.98h-.04l-1.33,3.98ZM194.34,234.85h2.64v.73h-2.64v-.73ZM205.24,233.19c-.02-.21-.12-.38-.29-.5-.17-.12-.39-.18-.66-.18-.19,0-.35.03-.49.09-.14.06-.24.13-.31.23-.07.1-.11.21-.11.34,0,.1.02.19.07.27.05.08.11.14.2.2.08.05.18.1.28.13.1.04.2.07.31.09l.47.12c.19.04.37.1.55.18.18.08.33.17.47.28.14.11.25.25.33.41.08.16.12.35.12.57,0,.29-.08.55-.22.78-.15.22-.37.4-.65.52-.28.12-.62.19-1.02.19s-.73-.06-1.01-.18c-.29-.12-.51-.3-.67-.53-.16-.23-.25-.51-.26-.85h.89c.01.17.07.32.16.44.09.12.22.2.37.26.15.06.32.09.51.09s.37-.03.52-.09c.15-.06.27-.14.35-.25.08-.11.13-.23.13-.38,0-.13-.04-.24-.11-.32-.08-.09-.18-.16-.32-.22-.13-.06-.29-.11-.47-.16l-.57-.15c-.41-.11-.74-.27-.98-.48-.24-.22-.36-.5-.36-.86,0-.3.08-.55.24-.78.16-.22.38-.39.66-.52.28-.12.59-.19.94-.19s.67.06.93.19c.27.12.48.29.63.51.15.22.23.47.24.75h-.87ZM208.64,236.82h-.97l1.76-5.01h1.12l1.77,5.01h-.97l-1.34-3.98h-.04l-1.34,3.98ZM208.67,234.85h2.64v.73h-2.64v-.73ZM214.06,236.82v-5.01h.91v4.25h2.21v.76h-3.11ZM221.77,233.19c-.02-.21-.12-.38-.29-.5-.17-.12-.39-.18-.66-.18-.19,0-.35.03-.49.09-.14.06-.24.13-.31.23-.07.1-.11.21-.11.34,0,.1.02.19.07.27.05.08.11.14.2.2.08.05.18.1.28.13.1.04.2.07.31.09l.47.12c.19.04.37.1.55.18.18.08.33.17.47.28.14.11.25.25.33.41.08.16.12.35.12.57,0,.29-.08.55-.22.78-.15.22-.37.4-.65.52-.28.12-.62.19-1.02.19s-.73-.06-1.01-.18c-.29-.12-.51-.3-.67-.53-.16-.23-.25-.51-.26-.85h.89c.01.17.07.32.16.44.09.12.22.2.37.26.15.06.32.09.51.09s.37-.03.52-.09c.15-.06.27-.14.35-.25.08-.11.13-.23.13-.38,0-.13-.04-.24-.11-.32-.08-.09-.18-.16-.32-.22-.13-.06-.29-.11-.47-.16l-.57-.15c-.41-.11-.74-.27-.98-.48-.24-.22-.36-.5-.36-.86,0-.3.08-.55.24-.78.16-.22.38-.39.66-.52.28-.12.59-.19.94-.19s.67.06.93.19c.27.12.48.29.63.51.15.22.23.47.24.75h-.87ZM225.16,236.82h-.97l1.76-5.01h1.12l1.77,5.01h-.97l-1.34-3.98h-.04l-1.34,3.98ZM225.19,234.85h2.64v.73h-2.64v-.73ZM231.59,236.13l-.03.27c-.02.21-.06.41-.12.63-.06.21-.12.41-.18.59-.06.18-.11.32-.15.42h-.6c.02-.1.05-.23.09-.41.04-.17.08-.36.12-.58.04-.21.06-.43.08-.65l.02-.27h.78ZM236.34,236.82v-5.01h.91v4.25h2.21v.76h-3.11ZM242.15,236.82h-.97l1.76-5.01h1.12l1.77,5.01h-.97l-1.34-3.98h-.04l-1.34,3.98ZM242.18,234.85h2.64v.73h-2.64v-.73ZM250.37,236.82v-5.01h1.92c.36,0,.66.06.9.17.24.11.42.27.54.46.12.2.18.42.18.67,0,.2-.04.38-.12.52-.08.14-.18.26-.31.35-.13.09-.28.15-.44.19v.05c.18,0,.35.06.51.16.16.1.3.24.4.42.11.18.16.4.16.65s-.06.49-.19.7c-.13.21-.31.37-.57.49-.25.12-.57.18-.95.18h-2.03ZM251.27,236.06h.98c.33,0,.57-.06.71-.19.15-.13.22-.29.22-.49,0-.15-.04-.28-.11-.4-.07-.12-.18-.22-.31-.28-.14-.07-.3-.11-.48-.11h-1v1.47ZM251.27,233.94h.9c.16,0,.3-.03.42-.09.13-.06.22-.14.3-.25.07-.11.11-.23.11-.38,0-.19-.07-.35-.2-.48-.14-.13-.34-.19-.6-.19h-.92v1.38ZM260.45,234.31c0,.54-.1,1-.3,1.39-.2.38-.48.68-.82.88s-.74.31-1.18.31-.83-.1-1.18-.31c-.34-.21-.62-.5-.82-.88-.2-.38-.3-.85-.3-1.38s.1-1,.3-1.38c.2-.38.48-.68.82-.88.35-.2.74-.31,1.18-.31s.83.1,1.18.31c.35.2.62.5.82.88.2.38.3.84.3,1.38ZM259.54,234.31c0-.38-.06-.7-.18-.96-.12-.26-.28-.46-.49-.59-.21-.14-.45-.2-.72-.2s-.51.07-.72.2c-.21.13-.37.33-.49.59-.12.26-.18.58-.18.96s.06.7.18.96c.12.26.28.46.49.59.21.13.45.2.72.2s.51-.07.72-.2c.21-.14.37-.33.49-.59.12-.26.18-.58.18-.96ZM262.39,231.81h1.11l1.49,3.63h.06l1.49-3.63h1.11v5.01h-.87v-3.44h-.05l-1.38,3.43h-.65l-1.38-3.43h-.05v3.45h-.87v-5.01ZM269.71,236.82v-5.01h1.92c.36,0,.66.06.9.17.24.11.42.27.54.46.12.2.18.42.18.67,0,.2-.04.38-.12.52-.08.14-.18.26-.31.35-.13.09-.28.15-.44.19v.05c.18,0,.35.06.51.16.17.1.3.24.4.42.11.18.16.4.16.65s-.06.49-.19.7c-.12.21-.31.37-.57.49-.25.12-.57.18-.95.18h-2.03ZM270.62,236.06h.98c.33,0,.57-.06.71-.19.15-.13.22-.29.22-.49,0-.15-.04-.28-.11-.4-.07-.12-.18-.22-.31-.28-.14-.07-.3-.11-.48-.11h-1v1.47ZM270.62,233.94h.9c.16,0,.3-.03.42-.09.13-.06.22-.14.3-.25.07-.11.11-.23.11-.38,0-.19-.07-.35-.21-.48-.14-.13-.34-.19-.6-.19h-.92v1.38ZM275.97,236.82h-.97l1.77-5.01h1.12l1.77,5.01h-.97l-1.34-3.98h-.04l-1.34,3.98ZM276,234.85h2.64v.73h-2.64v-.73ZM283.84,231.81h1.02l1.23,2.22h.05l1.23-2.22h1.03l-1.82,3.14v1.87h-.9v-1.87l-1.82-3.14ZM292.91,236.82v-5.01h.91v4.25h2.21v.76h-3.11ZM298.72,236.82h-.97l1.76-5.01h1.12l1.77,5.01h-.97l-1.34-3.98h-.04l-1.34,3.98ZM298.75,234.85h2.64v.73h-2.64v-.73ZM306.94,236.82v-5.01h1.88c.39,0,.71.07.97.22s.46.34.59.59c.14.25.2.53.2.85s-.07.61-.2.86c-.14.25-.34.45-.6.59-.26.14-.59.21-.98.21h-1.24v-.75h1.12c.22,0,.41-.04.55-.12.14-.08.25-.19.32-.32.07-.14.11-.29.11-.47s-.04-.33-.11-.47c-.07-.14-.18-.24-.32-.32-.14-.08-.33-.11-.56-.11h-.83v4.25h-.91ZM312.45,236.82v-5.01h.91v4.25h2.21v.76h-3.11ZM317.43,236.82v-5.01h3.26v.76h-2.35v1.36h2.18v.76h-2.18v1.37h2.37v.76h-3.28ZM326.82,231.81v5.01h-.81l-2.36-3.41h-.04v3.41h-.91v-5.01h.81l2.36,3.41h.04v-3.41h.9ZM329.53,236.82h-.97l1.76-5.01h1.12l1.77,5.01h-.97l-1.34-3.98h-.04l-1.34,3.98ZM329.56,234.85h2.64v.73h-2.64v-.73Z"/>
    <path class="cls-1" d="M61.79,108.56v-.77c.04-.36.1-.69.18-1.01.08-.32.2-.59.36-.83.2-.24.43-.36.71-.36.47,0,.71.22.71.65-.04.63-.12,1.2-.24,1.72-.12.51-.16,1.14-.12,1.9-.04.2-.12.32-.24.36h-.36c-.43,0-.71-.2-.83-.59-.12-.39-.18-.75-.18-1.07ZM84.69,102.46c.28-.04.73-.1,1.36-.18.63-.12,1.3-.24,2.01-.36.71-.12,1.38-.22,2.01-.3.63-.12,1.07-.2,1.3-.24l.12-.12c.47-.47.91-1.01,1.3-1.6.39-.59.79-1.18,1.18-1.78.43-.63.87-1.22,1.3-1.78.43-.59.91-1.11,1.42-1.54.32,0,.55.04.71.12.2.08.3.3.3.65,0,.16-.06.32-.18.47-.08.16-.16.3-.24.41-.12.16-.36.45-.71.89-.36.43-.73.89-1.13,1.36-.36.47-.69.93-1.01,1.36-.32.43-.51.75-.59.95l-.12.3h.36c1.54,0,3.08-.04,4.62-.12,1.54-.12,3.08-.18,4.62-.18h4.62c.36.04.81.1,1.36.18.59.04,1.14.14,1.66.3.55.16,1.03.39,1.42.71.39.28.59.69.59,1.24,0,.36-.08.67-.24.95-.16.24-.43.36-.83.36-.28,0-.45-.04-.53-.12-.08-.12-.12-.26-.12-.41v-.41c0-.16-.08-.3-.24-.41-.55-.36-1.18-.59-1.9-.71-.67-.12-1.38-.18-2.13-.18-.63,0-1.24.02-1.84.06-.55.04-1.07.06-1.54.06-.63,0-1.2.02-1.72.06h-1.48c-.47,0-.97.02-1.48.06-.47,0-1.03.02-1.66.06-.36.04-.81.08-1.36.12-.51.04-1.03.1-1.54.18-.51.04-.95.08-1.3.12-.36.04-.53.06-.53.06l-.59.59c-.08.08-.38.49-.89,1.24-.47.75-1.05,1.64-1.72,2.66-.63.99-1.28,1.99-1.95,3.02-.63,1.03-1.14,1.88-1.54,2.55-2.09,3.55-4.17,7.13-6.22,10.72-2.05,3.59-3.73,7.36-5.03,11.31-.08.28-.22.69-.41,1.24-.2.51-.3.97-.3,1.36,0,.16.02.3.06.41.04.08.06.18.06.3,0,.55-.26.83-.77.83-.39,0-.69-.14-.89-.41-.16-.28-.24-.57-.24-.89,0-.43.06-.93.18-1.48.16-.55.34-1.11.53-1.66.2-.55.39-1.07.59-1.54.24-.51.43-.93.59-1.24,2.37-5.01,4.86-9.89,7.46-14.63,2.61-4.78,5.45-9.44,8.53-13.98v-.12c-2.72,0-5.53.41-8.41,1.24-2.88.79-5.61,1.7-8.17,2.72-.36.16-.71.38-1.07.65-.32.24-.61.47-.89.71-.24.24-.45.45-.65.65-.2.16-.34.24-.41.24-.87,0-1.3-.39-1.3-1.18,0-.39.3-.79.89-1.18.63-.43,1.42-.85,2.37-1.24.99-.39,2.07-.79,3.26-1.18,1.22-.39,2.41-.75,3.55-1.07,1.14-.32,2.21-.57,3.2-.77.99-.24,1.76-.39,2.31-.47ZM90.95,124.32c.91,0,1.56.26,1.95.77.39.47.63,1.11.71,1.9.08.55.04,1.11-.12,1.66-.16.51-.2,1.05-.12,1.6h.12c.12-.12.32-.34.59-.65.32-.32.67-.65,1.07-1.01s.79-.67,1.18-.95c.39-.28.77-.41,1.13-.41.32,0,.55.14.71.41.2.28.32.57.36.89.04.47-.14,1.01-.53,1.6-.39.59-.83,1.24-1.3,1.95-.43.71-.85,1.48-1.24,2.31-.36.83-.47,1.74-.36,2.72.08.55.28.95.59,1.18s.71.36,1.18.36c1.62,0,3.02-.32,4.2-.95,1.22-.63,2.25-1.34,3.08-2.13.83-.83,1.44-1.6,1.84-2.31.43-.75.67-1.2.71-1.36.08-.36.28-.53.59-.53.2,0,.36.08.47.24.16.16.22.43.18.83-.04.51-.36,1.2-.95,2.07-.55.83-1.32,1.66-2.31,2.49-.99.83-2.15,1.56-3.49,2.19-1.34.59-2.78.89-4.32.89-.91,0-1.68-.24-2.31-.71-.63-.51-1.01-1.22-1.13-2.13-.04-.63,0-1.2.12-1.72.16-.55.34-1.07.53-1.54.24-.51.49-1.01.77-1.48.28-.51.49-1.05.65-1.6h-.18c-.16.08-.49.38-1.01.89-.47.47-1.05,1.07-1.72,1.78-.67.71-1.4,1.46-2.19,2.25-.79.75-1.6,1.46-2.43,2.13-.79.67-1.56,1.22-2.31,1.66-.75.43-1.4.65-1.95.65-.75,0-1.28-.26-1.6-.77-.32-.55-.51-1.14-.59-1.78-.12-1.22.06-2.61.53-4.15.47-1.58,1.14-3.04,2.01-4.38.87-1.38,1.9-2.53,3.08-3.43,1.22-.95,2.49-1.42,3.79-1.42ZM83.13,137.7c.04.2.08.38.12.53.04.16.18.24.41.24s.51-.08.83-.24c.36-.16.67-.34.95-.53.32-.24.59-.45.83-.65.28-.24.47-.41.59-.53.83-.75,1.58-1.44,2.25-2.07.71-.67,1.3-1.36,1.78-2.07.47-.75.81-1.54,1.01-2.37.2-.87.24-1.88.12-3.02,0-.08-.02-.18-.06-.3v-.3c-.08-.2-.18-.3-.3-.3-.12-.04-.28-.06-.47-.06-1.07,0-2.11.43-3.14,1.3-.99.83-1.88,1.86-2.66,3.08-.75,1.22-1.34,2.51-1.78,3.85-.39,1.34-.55,2.49-.47,3.43ZM103.67,137.76c.12-.32.32-.77.59-1.36.24-.59.49-1.18.77-1.78.24-.59.45-1.13.65-1.6.2-.47.32-.77.36-.89s.22-.51.53-1.18c.36-.67.73-1.42,1.13-2.25.43-.87.87-1.72,1.3-2.55.43-.87.77-1.54,1.01-2.01.2-.36.41-.73.65-1.13.24-.43.61-.65,1.13-.65s.77.3.77.89c0,.24-.04.43-.12.59-.08.12-.18.22-.3.3-.12.08-.24.16-.36.24-.12.08-.22.2-.3.36-.36.75-.79,1.6-1.3,2.55s-1.03,1.91-1.54,2.9c-.51.95-.99,1.88-1.42,2.78-.39.91-.69,1.72-.89,2.43.32-.36.75-.73,1.3-1.13.59-.39,1.2-.75,1.84-1.07.67-.36,1.32-.63,1.95-.83.67-.24,1.26-.36,1.78-.36.55,0,.93.18,1.13.53.24.32.39.71.47,1.18.12.43.18.89.18,1.36.04.43.14.81.3,1.13l.3-.18c.36-.24.79-.59,1.3-1.07.55-.47,1.13-.97,1.72-1.48.63-.51,1.26-.95,1.9-1.3.67-.39,1.3-.59,1.9-.59.71,0,1.2.26,1.48.77.28.51.49,1.09.65,1.72.2.59.41,1.14.65,1.66.28.51.73.77,1.36.77.87,0,1.7-.14,2.49-.41.79-.28,1.56-.65,2.31-1.13.75-.47,1.46-1.01,2.13-1.6.67-.59,1.3-1.18,1.9-1.78.08-.08.22-.12.41-.12s.38.08.53.24c.2.12.24.34.12.65-.32.91-.91,1.72-1.78,2.43s-1.82,1.32-2.84,1.84c-.99.47-1.97.85-2.96,1.13-.99.24-1.76.36-2.31.36-.83,0-1.48-.24-1.95-.71-.43-.51-.79-1.07-1.07-1.66-.28-.59-.51-1.13-.71-1.6-.16-.51-.34-.77-.53-.77-.71,0-1.36.26-1.95.77-.59.47-1.16,1.03-1.72,1.66-.55.59-1.13,1.14-1.72,1.66-.59.47-1.26.71-2.01.71-.55,0-.93-.22-1.13-.65-.16-.47-.26-.97-.3-1.48-.04-.55-.08-1.05-.12-1.48,0-.47-.12-.71-.36-.71-1.07,0-2.09.34-3.08,1.01-.95.63-1.84,1.34-2.66,2.13-.79.79-1.46,1.52-2.01,2.19-.55.63-.93.95-1.13.95-.2.04-.39-.04-.59-.24-.2-.2-.3-.41-.3-.65,0-.04.02-.14.06-.3.04-.16.1-.32.18-.47.04-.2.1-.36.18-.47.04-.16.06-.24.06-.24ZM134.1,140.31c-.79,0-1.4-.26-1.84-.77-.47-.51-.69-1.14-.65-1.9,0-.51.2-1.18.59-2.01.36-.83.85-1.72,1.48-2.66.59-.95,1.26-1.91,2.01-2.9.79-.99,1.58-1.88,2.37-2.66.79-.79,1.54-1.42,2.25-1.9.75-.51,1.38-.77,1.9-.77.67,0,1.16.22,1.48.65.36.39.51.93.47,1.6-.08,1.26-.41,2.72-1.01,4.38-.55,1.62-1.34,3.14-2.37,4.56.28.08.55.14.83.18.28.04.57.06.89.06,2.01,0,3.69-.47,5.03-1.42,1.34-.95,2.35-1.99,3.02-3.14.16-.28.38-.41.65-.41.24,0,.41.1.53.3.16.2.18.39.06.59-1.14,1.74-2.51,3.06-4.09,3.97-1.54.91-3.2,1.36-4.97,1.36-.47,0-.95-.02-1.42-.06-.47-.04-.95-.14-1.42-.3-.83.99-1.74,1.78-2.72,2.37-.99.59-2.01.89-3.08.89ZM139.43,135.27c.95-1.26,1.68-2.65,2.19-4.15.55-1.5.83-2.8.83-3.91,0-.08-.02-.2-.06-.36v-.36l-.06-.06s-.08-.06-.12-.06c-.24,0-.55.12-.95.36-.36.2-.71.45-1.07.77-.32.32-.59.65-.83,1.01-.24.32-.36.59-.36.83,0,.2.02.39.06.59.04.16.08.36.12.59.08.63-.2.95-.83.95-.16,0-.3-.02-.41-.06-.08.2-.12.41-.12.65-.08.67.02,1.28.3,1.84.32.55.75,1.01,1.3,1.36ZM133.33,137.46c0,.2.02.39.06.59,0,.2.1.36.3.47,1.03,0,1.9-.16,2.61-.47.71-.32,1.42-.85,2.13-1.6-.71-.43-1.28-.99-1.72-1.66-.43-.67-.65-1.46-.65-2.37v-.12c-.67.55-1.3,1.34-1.9,2.37-.55.99-.83,1.91-.83,2.78ZM149.26,144.81c0-1.03.22-2.05.65-3.08.47-.99,1.01-1.91,1.6-2.78-.59-1.11-1.09-2.13-1.48-3.08-.39-.95-.59-2.01-.59-3.2,0-.95.22-1.99.65-3.14.47-1.14,1.09-2.21,1.84-3.2.75-.99,1.62-1.82,2.61-2.49,1.03-.67,2.07-1.01,3.14-1.01.55,0,.99.16,1.3.47.36.32.53.75.53,1.3,0,.51-.26.77-.77.77-.32,0-.51-.18-.59-.53-.08-.36-.24-.53-.47-.53-.83,0-1.64.3-2.43.89-.79.59-1.5,1.32-2.13,2.19-.59.87-1.09,1.8-1.48,2.78s-.59,1.86-.59,2.61c0,.32.04.71.12,1.18.12.47.26.97.41,1.48.2.47.41.93.65,1.36.24.39.49.69.77.89.59-.55,1.38-1.16,2.37-1.84.99-.67,2.03-1.3,3.14-1.9,1.11-.59,2.19-1.09,3.26-1.48,1.07-.43,1.95-.67,2.66-.71.36,0,.57.12.65.36.08.2.02.34-.18.41-1.66.83-3.1,1.56-4.32,2.19-1.18.59-2.21,1.14-3.08,1.66-.87.47-1.62.93-2.25,1.36-.59.43-1.11.89-1.54,1.36.24.59.41,1.13.53,1.6.16.47.28.95.36,1.42.08.47.12.95.12,1.42.04.51.06,1.11.06,1.78-.2.67-.51,1.32-.95,1.95-.43.67-1.05,1.01-1.84,1.01-.91,0-1.6-.38-2.07-1.13-.43-.75-.65-1.54-.65-2.37ZM151.93,146.52c.28,0,.49-.1.65-.3.16-.2.28-.43.36-.71.12-.28.18-.57.18-.89.04-.28.06-.51.06-.71,0-.99-.24-1.99-.71-3.02-.24,0-.45.16-.65.47-.16.36-.3.75-.41,1.18-.12.43-.22.85-.3,1.24-.04.43-.06.73-.06.89,0,.32.04.69.12,1.13.08.47.34.71.77.71ZM164.31,166.36l11.37-29.61,6.69-13.92c.08-.2.14-.32.18-.36.08-.08.22-.12.41-.12.47,0,.73.26.77.77.04.39,0,.79-.12,1.18-.08.39-.26.73-.53,1.01-.12.2-.38.67-.77,1.42-.36.75-.75,1.56-1.18,2.43-.39.87-.75,1.68-1.07,2.43-.32.71-.47,1.14-.47,1.3.59-.63,1.24-1.32,1.95-2.07.75-.79,1.54-1.52,2.37-2.19.83-.71,1.72-1.28,2.66-1.72.95-.47,1.91-.71,2.9-.71.83,0,1.5.24,2.01.71s.81,1.11.89,1.9c.04.51.02.97-.06,1.36-.04.39-.14.85-.3,1.36.04.04.12.06.24.06,1.03-.32,2.17-.49,3.43-.53,1.26-.08,2.43-.12,3.49-.12.32,0,.67.02,1.07.06.43,0,.85.04,1.24.12.43.08.79.2,1.07.36.32.16.49.38.53.65.08.51-.16.77-.71.77-.47,0-1.07-.04-1.78-.12-.71-.12-1.32-.18-1.84-.18-.43,0-1.03.02-1.78.06-.71.04-1.46.1-2.25.18-.75.08-1.48.22-2.19.41-.67.16-1.16.38-1.48.65-.79.67-1.56,1.58-2.31,2.72-.71,1.14-1.48,2.27-2.31,3.38-.83,1.11-1.74,2.05-2.72,2.84-.99.79-2.15,1.18-3.49,1.18-.47,0-.87-.16-1.18-.47-.32-.32-.49-.69-.53-1.13-.12-1.14.12-2.11.71-2.9.63-.83,1.42-1.56,2.37-2.19.99-.67,2.05-1.28,3.2-1.84,1.18-.59,2.23-1.2,3.14-1.84.95-.63,1.7-1.32,2.25-2.07.55-.79.73-1.74.53-2.84-.04-.16-.08-.3-.12-.41-.04-.16-.14-.28-.3-.36h-.65c-.67,0-1.5.3-2.49.89-.95.55-1.95,1.28-3.02,2.19-1.03.87-2.07,1.86-3.14,2.96-1.03,1.11-1.95,2.19-2.78,3.26-.79,1.07-1.42,2.03-1.9,2.9-.47.91-.69,1.6-.65,2.07,0,.12.04.22.12.3.08.08.12.2.12.36,0,.24-.06.41-.18.53-.16.12-.32.22-.47.3-.2.12-.38.24-.53.36-.2.12-.34.3-.41.53l-8.35,22.33c-.08.24-.18.38-.3.41-.12.04-.28.06-.47.06-.24,0-.43-.06-.59-.18-.2-.12-.3-.32-.3-.59-.04-.04-.06-.1-.06-.18s.02-.12.06-.12ZM180.24,142.26c.43,0,1.05-.3,1.84-.89.83-.55,1.64-1.18,2.43-1.9.83-.75,1.54-1.5,2.13-2.25.63-.75.97-1.3,1.01-1.66-.24,0-.59.14-1.07.41-.47.24-.99.57-1.54,1.01-.55.39-1.13.85-1.72,1.36-.59.51-1.13,1.03-1.6,1.54-.43.47-.81.93-1.13,1.36-.28.43-.39.77-.36,1.01ZM209.09,124.32c.91,0,1.56.26,1.95.77.39.47.63,1.11.71,1.9.08.55.04,1.11-.12,1.66-.16.51-.2,1.05-.12,1.6h.12c.12-.12.32-.34.59-.65.32-.32.67-.65,1.07-1.01.39-.36.79-.67,1.18-.95.39-.28.77-.41,1.13-.41.32,0,.55.14.71.41.2.28.32.57.36.89.04.47-.14,1.01-.53,1.6-.39.59-.83,1.24-1.3,1.95-.43.71-.85,1.48-1.24,2.31-.36.83-.47,1.74-.36,2.72.08.55.28.95.59,1.18.32.24.71.36,1.18.36,1.62,0,3.02-.32,4.2-.95,1.22-.63,2.25-1.34,3.08-2.13.83-.83,1.44-1.6,1.84-2.31.43-.75.67-1.2.71-1.36.08-.36.28-.53.59-.53.2,0,.36.08.47.24.16.16.22.43.18.83-.04.51-.36,1.2-.95,2.07-.55.83-1.32,1.66-2.31,2.49-.99.83-2.15,1.56-3.49,2.19-1.34.59-2.78.89-4.32.89-.91,0-1.68-.24-2.31-.71-.63-.51-1.01-1.22-1.13-2.13-.04-.63,0-1.2.12-1.72.16-.55.34-1.07.53-1.54.24-.51.49-1.01.77-1.48.28-.51.49-1.05.65-1.6h-.18c-.16.08-.49.38-1.01.89-.47.47-1.05,1.07-1.72,1.78-.67.71-1.4,1.46-2.19,2.25-.79.75-1.6,1.46-2.43,2.13-.79.67-1.56,1.22-2.31,1.66-.75.43-1.4.65-1.95.65-.75,0-1.28-.26-1.6-.77-.32-.55-.51-1.14-.59-1.78-.12-1.22.06-2.61.53-4.15.47-1.58,1.14-3.04,2.01-4.38.87-1.38,1.9-2.53,3.08-3.43,1.22-.95,2.49-1.42,3.79-1.42ZM201.27,137.7c.04.2.08.38.12.53.04.16.18.24.41.24s.51-.08.83-.24c.36-.16.67-.34.95-.53.32-.24.59-.45.83-.65.28-.24.47-.41.59-.53.83-.75,1.58-1.44,2.25-2.07.71-.67,1.3-1.36,1.78-2.07.47-.75.81-1.54,1.01-2.37.2-.87.24-1.88.12-3.02,0-.08-.02-.18-.06-.3v-.3c-.08-.2-.18-.3-.3-.3-.12-.04-.28-.06-.47-.06-1.07,0-2.11.43-3.14,1.3-.99.83-1.88,1.86-2.66,3.08-.75,1.22-1.34,2.51-1.78,3.85-.39,1.34-.55,2.49-.47,3.43ZM226.3,108.56v-.77c.04-.36.1-.69.18-1.01.08-.32.2-.59.36-.83.2-.24.43-.36.71-.36.47,0,.71.22.71.65-.04.63-.12,1.2-.24,1.72s-.16,1.14-.12,1.9c-.04.2-.12.32-.24.36h-.36c-.43,0-.71-.2-.83-.59-.12-.39-.18-.75-.18-1.07ZM249.34,125.5c.16-.12.42-.53.77-1.24.36-.71.73-1.52,1.12-2.43.39-.91.79-1.8,1.18-2.66.39-.87.69-1.48.89-1.84.43-.75,1.08-1.78,1.95-3.08.87-1.34,1.86-2.76,2.96-4.26,1.14-1.54,2.39-3.1,3.73-4.68,1.34-1.62,2.66-3.06,3.97-4.32,1.34-1.3,2.63-2.35,3.85-3.14,1.22-.83,2.33-1.24,3.32-1.24.47,0,.83.16,1.07.47.24.28.36.63.36,1.07,0,.95-.3,2.07-.89,3.38-.55,1.3-1.3,2.68-2.25,4.15-.91,1.42-1.93,2.86-3.08,4.32-1.11,1.46-2.23,2.86-3.37,4.2-1.14,1.3-2.23,2.49-3.26,3.55s-1.87,1.91-2.55,2.55c-1.5,1.42-2.88,2.53-4.15,3.32-1.22.79-2.29,1.64-3.2,2.55-.87.87-1.54,1.93-2.01,3.2-.47,1.26-.71,3.08-.71,5.45,0,1.07.26,2.01.77,2.84.51.79,1.38,1.18,2.61,1.18,1.07,0,2.05-.22,2.96-.65.91-.43,1.74-.99,2.49-1.66.79-.71,1.5-1.46,2.13-2.25.67-.83,1.3-1.6,1.9-2.31.43-.59.83-.89,1.18-.89.24,0,.39.16.47.47s.06.59-.06.83c-.51,1.07-1.17,2.09-1.96,3.08-.75.95-1.6,1.8-2.55,2.55s-1.97,1.36-3.08,1.84c-1.11.43-2.29.65-3.55.65-1.7,0-2.98-.55-3.85-1.66-.83-1.11-1.24-2.47-1.24-4.09-.04-1.26.12-2.49.47-3.67.39-1.18.73-2.41,1.01-3.67-.08,0-.16.02-.24.06h-.18c-.36,0-.67-.08-.95-.24-.32-.16-.47-.45-.47-.89,0-.36.16-.59.47-.71.32-.12.65-.18,1.01-.18.2,0,.38.02.53.06h.41ZM252.13,123.84s.08-.04.24-.12c.16-.12.32-.24.47-.36.2-.16.39-.3.59-.41.2-.16.36-.3.47-.41,3.43-3,6.63-6.18,9.59-9.53,3-3.4,5.59-7.09,7.76-11.07.28-.47.53-.93.77-1.36.2-.36.36-.71.47-1.07.16-.39.24-.69.24-.89v-.24c-1.22.47-2.55,1.28-3.97,2.43-1.38,1.11-2.76,2.41-4.15,3.91-1.38,1.5-2.74,3.12-4.08,4.86-1.3,1.74-2.53,3.47-3.67,5.21-1.11,1.74-2.09,3.4-2.96,4.97-.83,1.58-1.46,2.94-1.9,4.09h.12ZM269.7,124.32c.91,0,1.56.26,1.95.77.39.47.63,1.11.71,1.9.08.55.04,1.11-.12,1.66-.16.51-.2,1.05-.12,1.6h.12c.12-.12.32-.34.59-.65.32-.32.67-.65,1.07-1.01.39-.36.79-.67,1.18-.95.39-.28.77-.41,1.13-.41.32,0,.55.14.71.41.2.28.32.57.36.89.04.47-.14,1.01-.53,1.6-.39.59-.83,1.24-1.3,1.95-.43.71-.85,1.48-1.24,2.31-.36.83-.47,1.74-.36,2.72.08.55.28.95.59,1.18s.71.36,1.18.36c1.62,0,3.02-.32,4.2-.95,1.22-.63,2.25-1.34,3.08-2.13.83-.83,1.44-1.6,1.84-2.31.43-.75.67-1.2.71-1.36.08-.36.28-.53.59-.53.2,0,.36.08.47.24.16.16.22.43.18.83-.04.51-.36,1.2-.95,2.07-.55.83-1.32,1.66-2.31,2.49-.99.83-2.15,1.56-3.5,2.19-1.34.59-2.78.89-4.32.89-.91,0-1.68-.24-2.31-.71-.63-.51-1.01-1.22-1.12-2.13-.04-.63,0-1.2.12-1.72.16-.55.33-1.07.53-1.54.24-.51.5-1.01.77-1.48.28-.51.49-1.05.65-1.6h-.18c-.16.08-.49.38-1.01.89-.47.47-1.04,1.07-1.72,1.78-.67.71-1.4,1.46-2.19,2.25-.79.75-1.6,1.46-2.43,2.13-.79.67-1.56,1.22-2.31,1.66-.75.43-1.4.65-1.95.65-.75,0-1.28-.26-1.6-.77-.32-.55-.51-1.14-.59-1.78-.12-1.22.06-2.61.53-4.15.47-1.58,1.14-3.04,2.01-4.38.87-1.38,1.9-2.53,3.08-3.43,1.22-.95,2.49-1.42,3.79-1.42ZM261.89,137.7c.04.2.08.38.12.53.04.16.18.24.41.24s.51-.08.83-.24c.36-.16.67-.34.95-.53.32-.24.59-.45.83-.65.28-.24.47-.41.59-.53.83-.75,1.58-1.44,2.25-2.07.71-.67,1.3-1.36,1.78-2.07.47-.75.81-1.54,1.01-2.37.2-.87.24-1.88.12-3.02,0-.08-.02-.18-.06-.3v-.3c-.08-.2-.18-.3-.29-.3-.12-.04-.28-.06-.47-.06-1.07,0-2.11.43-3.14,1.3-.99.83-1.87,1.86-2.66,3.08-.75,1.22-1.34,2.51-1.78,3.85-.39,1.34-.55,2.49-.47,3.43ZM284.55,144.81c0-1.03.22-2.05.65-3.08.47-.99,1.01-1.91,1.6-2.78-.59-1.11-1.09-2.13-1.48-3.08-.39-.95-.59-2.01-.59-3.2,0-.95.22-1.99.65-3.14.47-1.14,1.08-2.21,1.83-3.2.75-.99,1.62-1.82,2.61-2.49,1.03-.67,2.07-1.01,3.14-1.01.55,0,.99.16,1.3.47.36.32.53.75.53,1.3,0,.51-.26.77-.77.77-.32,0-.51-.18-.59-.53-.08-.36-.24-.53-.47-.53-.83,0-1.64.3-2.43.89-.79.59-1.5,1.32-2.13,2.19-.59.87-1.08,1.8-1.48,2.78-.39.99-.59,1.86-.59,2.61,0,.32.04.71.12,1.18.12.47.26.97.41,1.48.2.47.42.93.65,1.36.24.39.49.69.77.89.59-.55,1.38-1.16,2.37-1.84.99-.67,2.03-1.3,3.14-1.9,1.11-.59,2.19-1.09,3.26-1.48,1.07-.43,1.96-.67,2.67-.71.36,0,.57.12.65.36.08.2.02.34-.18.41-1.66.83-3.1,1.56-4.32,2.19-1.18.59-2.21,1.14-3.08,1.66-.87.47-1.62.93-2.25,1.36-.59.43-1.11.89-1.54,1.36.24.59.42,1.13.53,1.6.16.47.28.95.36,1.42.08.47.12.95.12,1.42.04.51.06,1.11.06,1.78-.2.67-.51,1.32-.95,1.95-.43.67-1.04,1.01-1.83,1.01-.91,0-1.6-.38-2.07-1.13-.43-.75-.65-1.54-.65-2.37ZM287.21,146.52c.28,0,.5-.1.65-.3.16-.2.28-.43.36-.71.12-.28.18-.57.18-.89.04-.28.06-.51.06-.71,0-.99-.24-1.99-.71-3.02-.24,0-.46.16-.65.47-.16.36-.29.75-.41,1.18-.12.43-.22.85-.3,1.24-.04.43-.06.73-.06.89,0,.32.04.69.12,1.13.08.47.33.71.77.71ZM326.27,137.76c0-.79.18-1.72.53-2.78.32-1.11.75-2.25,1.3-3.43.59-1.18,1.26-2.37,2.01-3.55.75-1.18,1.54-2.23,2.37-3.14.87-.95,1.74-1.7,2.61-2.25.91-.59,1.78-.89,2.61-.89.59,0,1.07.18,1.42.53.36.36.53.83.53,1.42,0,.2-.06.53-.18,1.01-.12.47-.28.97-.47,1.48-.2.47-.41.91-.65,1.3-.24.36-.5.53-.77.53-.43,0-.65-.26-.65-.77,0-.63.18-1.18.53-1.66.36-.51.53-1.07.53-1.66v-.36c0-.12-.1-.18-.3-.18-.59,0-1.26.28-2.01.83-.71.51-1.42,1.2-2.13,2.07-.71.83-1.4,1.78-2.07,2.84-.67,1.07-1.26,2.15-1.78,3.26-.47,1.07-.87,2.09-1.18,3.08-.32.95-.47,1.74-.47,2.37,0,.95.24,1.64.71,2.07.47.39,1.11.59,1.9.59,1.42,0,2.78-.28,4.08-.83,1.34-.59,2.59-1.3,3.73-2.13,1.14-.83,2.15-1.7,3.02-2.61.91-.91,1.64-1.72,2.19-2.43.04-.04.14-.16.29-.36.2-.24.57-.36,1.13-.36.16,0,.29.1.41.3.16.16.16.34,0,.53-.75,1.07-1.66,2.17-2.72,3.32-1.03,1.14-2.17,2.17-3.43,3.08s-2.65,1.66-4.15,2.25c-1.46.59-3.04.89-4.74.89-1.22,0-2.23-.34-3.02-1.01-.79-.63-1.18-1.76-1.18-3.38ZM343.61,140.31c-.79,0-1.4-.26-1.83-.77-.47-.51-.69-1.14-.65-1.9,0-.51.2-1.18.59-2.01.36-.83.85-1.72,1.48-2.66.59-.95,1.26-1.91,2.01-2.9.79-.99,1.58-1.88,2.37-2.66.79-.79,1.54-1.42,2.25-1.9.75-.51,1.38-.77,1.9-.77.67,0,1.16.22,1.48.65.36.39.51.93.47,1.6-.08,1.26-.41,2.72-1.01,4.38-.55,1.62-1.34,3.14-2.37,4.56.28.08.55.14.83.18.28.04.57.06.89.06,2.01,0,3.69-.47,5.04-1.42,1.34-.95,2.35-1.99,3.02-3.14.16-.28.38-.41.65-.41.24,0,.41.1.53.3.16.2.18.39.06.59-1.14,1.74-2.51,3.06-4.09,3.97-1.54.91-3.2,1.36-4.97,1.36-.47,0-.95-.02-1.42-.06-.47-.04-.95-.14-1.42-.3-.83.99-1.74,1.78-2.72,2.37-.99.59-2.01.89-3.08.89ZM348.94,135.27c.95-1.26,1.68-2.65,2.19-4.15.55-1.5.83-2.8.83-3.91,0-.08-.02-.2-.06-.36v-.36l-.06-.06s-.08-.06-.12-.06c-.24,0-.55.12-.95.36-.36.2-.71.45-1.07.77-.32.32-.59.65-.83,1.01-.24.32-.36.59-.36.83,0,.2.02.39.06.59.04.16.08.36.12.59.08.63-.2.95-.83.95-.16,0-.29-.02-.41-.06-.08.2-.12.41-.12.65-.08.67.02,1.28.29,1.84.32.55.75,1.01,1.3,1.36ZM342.84,137.46c0,.2.02.39.06.59,0,.2.1.36.3.47,1.03,0,1.9-.16,2.61-.47.71-.32,1.42-.85,2.13-1.6-.71-.43-1.28-.99-1.72-1.66-.43-.67-.65-1.46-.65-2.37v-.12c-.67.55-1.3,1.34-1.9,2.37-.55.99-.83,1.91-.83,2.78ZM358.77,144.81c0-1.03.22-2.05.65-3.08.47-.99,1.01-1.91,1.6-2.78-.59-1.11-1.09-2.13-1.48-3.08-.39-.95-.59-2.01-.59-3.2,0-.95.22-1.99.65-3.14.47-1.14,1.08-2.21,1.83-3.2.75-.99,1.62-1.82,2.61-2.49,1.03-.67,2.07-1.01,3.14-1.01.55,0,.99.16,1.3.47.36.32.53.75.53,1.3,0,.51-.26.77-.77.77-.32,0-.51-.18-.59-.53-.08-.36-.24-.53-.47-.53-.83,0-1.64.3-2.43.89-.79.59-1.5,1.32-2.13,2.19-.59.87-1.08,1.8-1.48,2.78-.39.99-.59,1.86-.59,2.61,0,.32.04.71.12,1.18.12.47.26.97.41,1.48.2.47.42.93.65,1.36.24.39.49.69.77.89.59-.55,1.38-1.16,2.37-1.84.99-.67,2.03-1.3,3.14-1.9,1.11-.59,2.19-1.09,3.26-1.48,1.07-.43,1.96-.67,2.67-.71.36,0,.57.12.65.36.08.2.02.34-.18.41-1.66.83-3.1,1.56-4.32,2.19-1.18.59-2.21,1.14-3.08,1.66-.87.47-1.62.93-2.25,1.36-.59.43-1.11.89-1.54,1.36.24.59.42,1.13.53,1.6.16.47.28.95.36,1.42.08.47.12.95.12,1.42.04.51.06,1.11.06,1.78-.2.67-.51,1.32-.95,1.95-.43.67-1.04,1.01-1.83,1.01-.91,0-1.6-.38-2.07-1.13-.43-.75-.65-1.54-.65-2.37ZM361.44,146.52c.28,0,.49-.1.65-.3.16-.2.28-.43.36-.71.12-.28.18-.57.18-.89.04-.28.06-.51.06-.71,0-.99-.24-1.99-.71-3.02-.24,0-.46.16-.65.47-.16.36-.29.75-.41,1.18-.12.43-.22.85-.3,1.24-.04.43-.06.73-.06.89,0,.32.04.69.12,1.13.08.47.33.71.77.71ZM381.67,124.32c.91,0,1.56.26,1.95.77.39.47.63,1.11.71,1.9.08.55.04,1.11-.12,1.66-.16.51-.2,1.05-.12,1.6h.12c.12-.12.32-.34.59-.65.32-.32.67-.65,1.07-1.01s.79-.67,1.18-.95c.39-.28.77-.41,1.13-.41.32,0,.55.14.71.41.2.28.32.57.36.89.04.47-.14,1.01-.53,1.6s-.83,1.24-1.3,1.95c-.43.71-.85,1.48-1.24,2.31-.36.83-.47,1.74-.36,2.72.08.55.28.95.59,1.18s.71.36,1.18.36c1.62,0,3.02-.32,4.2-.95,1.22-.63,2.25-1.34,3.08-2.13.83-.83,1.44-1.6,1.84-2.31.43-.75.67-1.2.71-1.36.08-.36.28-.53.59-.53.2,0,.36.08.47.24.16.16.22.43.18.83-.04.51-.36,1.2-.95,2.07-.55.83-1.32,1.66-2.31,2.49-.99.83-2.15,1.56-3.5,2.19-1.34.59-2.78.89-4.32.89-.91,0-1.68-.24-2.31-.71-.63-.51-1.01-1.22-1.12-2.13-.04-.63,0-1.2.12-1.72.16-.55.33-1.07.53-1.54.24-.51.5-1.01.77-1.48.28-.51.49-1.05.65-1.6h-.18c-.16.08-.5.38-1.01.89-.47.47-1.04,1.07-1.72,1.78s-1.4,1.46-2.19,2.25c-.79.75-1.6,1.46-2.43,2.13-.79.67-1.56,1.22-2.31,1.66-.75.43-1.4.65-1.95.65-.75,0-1.28-.26-1.6-.77-.32-.55-.51-1.14-.59-1.78-.12-1.22.06-2.61.53-4.15.47-1.58,1.14-3.04,2.01-4.38.87-1.38,1.9-2.53,3.08-3.43,1.22-.95,2.49-1.42,3.79-1.42ZM373.85,137.7c.04.2.08.38.12.53.04.16.18.24.41.24s.51-.08.83-.24c.36-.16.67-.34.95-.53.32-.24.59-.45.83-.65.28-.24.47-.41.59-.53.83-.75,1.58-1.44,2.25-2.07.71-.67,1.3-1.36,1.78-2.07.47-.75.81-1.54,1.01-2.37.2-.87.24-1.88.12-3.02,0-.08-.02-.18-.06-.3v-.3c-.08-.2-.18-.3-.29-.3-.12-.04-.28-.06-.47-.06-1.07,0-2.11.43-3.14,1.3-.99.83-1.87,1.86-2.66,3.08-.75,1.22-1.34,2.51-1.78,3.85-.39,1.34-.55,2.49-.47,3.43ZM398.88,108.56v-.77c.04-.36.1-.69.18-1.01.08-.32.2-.59.36-.83.2-.24.43-.36.71-.36.47,0,.71.22.71.65-.04.63-.12,1.2-.24,1.72s-.16,1.14-.12,1.9c-.04.2-.12.32-.24.36h-.36c-.43,0-.71-.2-.83-.59-.12-.39-.18-.75-.18-1.07Z"/>
  </g>
  <g>
    <path class="cls-2" d="M186.32,333.57l-2.4-2.57c2.17-1.37,2.82.13,4.34.94l4.45,2.36c3.06,2.29,5.73,5.05,9.18,6.58,3.11,1.38,5.71,2.81,7.96,5.45,1.25,1.47,2.9,2.94,4.56,3.87-1.26-3.22-5.23-5.24-4.01-8.99,6.29,10.1,12.51,19.08,19.27,28.1l5.19,6.92c1.82.04,4.26-.35,6.08-.98l3.55-1.24-1.76-3.17-12.62-2.26c-.18-.15-1.13-.88-.91-.97s1.07-.48,1.33-.47l8.51.23-4.4-2.98-5.29-3.39.79-1.76,8.06.57c1.03-2.79-3.28-1.81-3.35-5.62-.94-.89-3.13-2.66-4.37-3.22l-5.72-2.55,1.78-1.52-.6-1.61,8.06.15c.3,0,1.33-.41,1.38-.67.07-.35-.13-1.2-.38-1.51l-5.1-6.15c-.47-4.15-3.24-5.32-4.72-8.85l1.53-1.32-1.77-3.87c-.31-.67,0-1.94.58-2.75l-4.78-7.88c1.95.22,2.87,1.49,3.91,2.8,4.53,5.71,8.27,11.71,12.09,17.92,2.11,3.43,3.85,6.84,7.52,9.48l-.76-22.58c-.05-1.49.05-2.86.42-4.48l4.65,8.72,2.03,4.24c.12-5.9.92-11.63,3.34-17.16.23-.23,1.11-.96,1.18-.65l.31,1.5c-3.32,8.88-4.15,18.46-.96,27.3.6-1.96,1.12-4.53.85-6.06l-1.57-8.99c-.67-3.85,4.15-13.94,6.9-18.71l2.85-1.29.36,1.88c.45-2.45,1.57-5.1,3.52-6.58,2.16-1.64,5.54-2.42,8.08-1.35.6.89-.33,2.96-1.1,3.69-3.76,3.58-10.39,9.97-11.55,13.51l-2.73,8.37,2.26-1.54c.63-3.34,2.32-6.36,4.19-9.39l3.97-6.44c2.06,4.47-5.06,7.61-5.97,13.46l4.38-3.77c-.13,3.16-2,5.59-4,7.93l-7.56,8.87c3.6-.97,5.39-4.2,7.97-6.49l9.97-8.86c.52-.47,1.58-.52,2.3-.02l-8.51,7.76-10.98,9.86-.75-1.76-.06,2.84c9.09-3.8,13.46-14.39,23.08-15.37-3.97,2.56-7.85,4.22-10.94,7.66-3.23,3.61-8.4,7.98-13.1,9.35-.4,1.69-.64,3.65-.51,5.8l11.48-11.38,7.11-6.13c1.84-1.59,3.93-3.16,6.61-2.98-6.54,4.38-12.3,8.91-16.7,14.38,5.58-4.18,10.14-8.82,16.83-10.88-3.14,3.09-6.97,4.67-10.2,7.29-3.98,3.22-7.74,6.36-11.35,10.18,6.49-3.88,11.52-8.67,18.44-11.44l7.19-2.88c.31-.12,1.23.16,1.46.27.31.15-.5,1-.81,1.18-8.24,2.39-15.51,6.35-22.03,11.87-2.37,2.01-5.22,3.18-7.06,5.82l12.2-7.49c4.35-2.67,8.84-5.47,14.32-5.61-8.98,3.95-17.25,8.13-24.93,14.14-.93.73-1.38.91-2.97.46l-.08,3.05c7.93-4.07,15.31-9.51,23.91-11.05-8.48,5.05-17.39,7.25-24.28,13.83l18.77-8.28,9.88-3.67c.21-.08,1.2.14,1.29.28l.33.52c.14.23-.72.5-1.34.78.03.79.53,2.21,1.15,3.79,2.18-4.64,5.66-10.79,8.37-15.07l.49-2.14c.14-.62,2.76-.23,6.84-4.68,1.73-1.88,3.74-2.94,6.1-3.78l7.97-2.86-1.23,4.02-5.86,3.99c2.73.82,4.49,1.14,6.77,2.46-3.63,1.08-5.47-2.01-9.24-.83l6.91,3.11c1.28.58,1.85.91,3.12,2.19l-4.7,1.03,1.67,3.65-1.83.8c-.27.12-.15.53-.12,1.42l-6.74-2.26,2.64,3.93,3.51.32c-.3.88-1.5,2.13-2.4,2.17-5.39.28-10.33-.34-15.72-1.8.17,3.51,3.55,3.5,4.2,5.19.1.26-.9.62-1.17.54l-3.97-1.2c1.23,6.44,8.26,8.09,8.58,12.14l-11.89-8.33c-.73-.51-2.5-1.16-2.73-.4-.94,3.12,3.62,4.24,4.52,5.47.1.13.07.37-.1.37h-1.27s-3.36-1.39-3.36-1.39c5.22,7.02,12.66,2.57,17.31,7.08-2.66-.08-5.03-1.46-7.51-1.21l-12.33,1.27c-.31.03-1.39.77-1.12.94l1.18.77,14.77-.02,2.51.92-7.95.06c-4.53.04-8.97-.11-13.4,1.14,2.72,2.28,5.36.39,7.98.41,5.45.04,10.87.45,16.28,2.6-4.1.18-7.71-1.12-11.86-1.37-1.3-.08-2.98.65-4.14.76l-7.15.68-1.02.07c-.95.06.25,2.37,5.98,1.74l9.77-1.08c.41-.05,1.4.63,1.56,1.03l-18.54,1.61c4.56,1.8,9.81-1.15,14.04.96l-7.35,2.04-3.55-.67,1.3.55c.15.07.08.29-.05.7l-6.13.37c4.58.7,8.9,1.86,13.57,3.03l4.6,1.15,15.86-9.82c6.83-4.23,13.63-7.85,21.09-10.88l11.27-4.59c4.01-1.63,9.41-4.44,10.5-1.37-2.12-.22-3.86-.16-5.81.67l-13.5,5.76c-8.66,3.7-16.78,7.68-24.72,12.66l-13.6,8.53,10.51,9.25c.57-.66,1.2-1.31,1.02-1.54l-1.03-1.29c-1.96-2.46-5.03-3.38-5.66-7.2l4.27,2.8c.69-1.24,2.5-2.29,4.01-1.85l4.58,1.32c-1.51-1.13-2.84-1.61-4.57-2.24l-1.5-2.64c-1.18-.08-.58-.56.12-.67,2.3,1.65,3.86,2.07,6.54,2.25,2.13.15,4.25,1.54,6.51,2.48-1.37-4.08-6.09-4.22-6.92-7.34,2.47.47,3.96,1.45,5.85,2.71,4.35,2.91,8.6,5.8,12.68,9.46-3.98.11-4.88-3.99-8.79-4.78l4.91,5.17c-.31.22-2.04.21-2.67-.16l-8.99-5.38c-.88-.53-2.4-.78-3.08-.72,3.8,3.65,7.29,6.3,11.48,9.12-5.1.73-7.42-1.07-11.43-3.88-5.55-3.88-9.08-3.53-8.49-2.57l.95,1.53c.21.34.99-.58,1.6-1.13l4.79,3.85c4.44,3.57,8.87,6.4,14.45,7.76,1.4.34,2.88.68,3.98,1.97-9.5-.86-16.94-6.26-24.25-12.63,1.55,4.03,5.69,5.66,8.29,8.91-2.54.79-4.79-2.44-6.2-3.55-.28-.22-1.38.36-1.3.66.1.4.49,1.5.84,1.74l4.7,3.23-1.04,1.51,4.36,5.5,7.3-1.12c4.57-.7,8.96-.87,13.58-.19l13.41,1.97c3.71.55,6.64.37,10.35-.32,4.09-.76,8.4.51,12.6,1.76l-5.18.52c3.49.51,5.73.94,7.83,3.43,2.54,3.03,4.96,6.34,6.42,9.9l-2.87.75-2.72-2.94-.24.48,2.37,3.67c.26.42-.86,1.46-1.35,1.52s-1.68-.35-1.93-.82l-3.87-7.31c-2.45-1.74-5.62-2.22-8.77-2.68l2.34,6.1c.52,1.35,1.35,2.6,3.08,3.37l-2.54-5.29c1.74.43,4.24,3.78,4.89,5.77l.62,1.93c.14.43-1.16,1.69-1.32,1.28l-.68-1.69c-.18-.44-.98-.66-2.03-.66l2.44,4.38c-2.82-.11-3-3.1-4.08-4.63-2.69-.56-4.37-1.37-6.67-3.36l2.63,6.66c-1.4.26-2.71-.45-3.63-1.45l-1.56-1.72-.06.26c.33.93.56,2.23.56,3.64-1.1-.15-2.78-1.02-3.21-1.87l-5.55-10.92,3.44,13.38c-2.71-1.44-3.26-3.53-4.84-5.64l.57,4.14c-.4-.08-1.48-1.19-1.65-1.82l-3.3-12.19-1.22.15,2.95,11.57.4,1.39c.11.38-1.42.13-1.65-.2l-1.99-2.95.92,5.32c-1.03-.35-1.51-1.23-1.81-2.38l-3.25-12.55c-.2-.77-2.77-.9-2.85-.38.58,5.05,1.03,9.51.89,14.37-.96-.6-1.58-1.64-1.64-2.41l-.94-12.05-2.77-1.61c.61,4.01,2.16,6.4,1.36,10.3-1.45-2.49-1.5-5.2-2.24-8.03-.24-.92-3-1.34-3.57-.51l.98,14.35c-.98-.11-1.19-.96-1.32-1.84l-1.51-10.84c-.22-1.54-.71-2.72-2.26-3.89l.33,6.35c.2,3.82.95,7.5.55,10.95l-1.45-1.35c-.29-.27-1.32-.07-1.68-.25l-2.87-3.09c-.54-4.23-.21-9.5-3.78-12.54l1.2,9.73c.44,3.53,1.39,6.84,2.53,10.07l-1.33,1.35c-.31.32-1.4-.89-1.56-1.45l-4.46-15.93c-.56-2.01-1.14-3.63-3.11-4.95-.62,2.25-.23,3.77.41,5.65,1.8,5.33,3.32,10.51,4.12,16.12l.16,1.15c.03.2-.63.31-.82.23s-.53-.59-.58-.82l-2.46-10.69c-.85-3.68-1.83-7.03-3.49-10.65.49,7.31,3.45,13.44,3.75,20.9-1.13-.45-1.81-1.75-2.07-2.99l-2.72-13.1c-.49-2.36-1.29-4.68-2.78-6.13-1.57,1.77-1.12,2.68-.79,4.24l2.03,9.57c-1.34-.44-2.02-1.56-2.38-2.77l-3.98-13.46-8.76,1.73c1.26,1.29,2.01,1.61,1.96,3.35l-3.71-2.34c-6.22,1.28-11.75,4.47-16.26,8.75l10.98,19.79,7.62,2.32c3.04.93,6.77,2.48,9.18,4.42l2.87,2.3c1.44,1.16,2.75,3.69,3.34,5.6l-11.05-3.59c-1.47-.48-3.64-1.52-4.94-2.31l.07-1.65-3.97-.44,6.89,20.24,1.79,5.44,4.16-9.64,3.6,2.24c-1.22-6.6-5.25-12.08-12.34-12.71.37-.5,1.77-1.04,2.44-.87,5.32,1.32,8.53,5.21,10.31,10.1.95,2.61,1.23,5.51-1.71,7.47.43-1.97.41-2.94-1.56-4.26l-1.93,3.33c-.16.27,1.02,1.27.78,1.47l-1.13.98-1.66,3.51c-2.11-.88-3.97-.78-5.47.76l-3.51-12.63-1.32,7.37c-1.02.05-2.25-.93-2.54-1.82-1.77-5.56-2.52-10.75-3.13-16.62-.06-.62-.74-1.82-1.23-2.14s-1.83.45-2.21.96l-5.85,7.63c.18,5.8.41,11.92,2.89,17.28,3,6.48,5.35,12.71,6.36,19.82,1.36,9.57,8.4,12.61,11.75,25.21,2.41,9.07,7.05,16.8,13.08,23.87,3.41,4,5.33,8.87,7.6,13.61,3.78,7.93,7.93,15.26,13.19,22.28,5.61,7.47,9.64,15.47,14.65,23.33l12.07,18.91,7.72,13.5c3.35,5.87,5.68,12.17,8.16,18.47,1.91,4.86,2.18,9.89,3.44,14.92l3.74,14.92,3.3,16.9,3.41,16.3-.36.76c-.1.22-.65-.27-.84-.51l-3.27-15.93c-1.05-7.4-2.49-14.41-4.59-21.58l-3.69-17.04c-2.46-11.35-7.81-22.54-13.74-32.49l-9.42-15.8-11.48-18.6c-4-6.47-7.9-12.53-12.36-18.7-8.83-12.24-13.5-26.89-18.11-32.16-7.06-8.06-11.85-17.01-14.53-27.43-2.09-8.14-9.61-12.66-10.99-22.5-.96-6.88-3.3-13.08-6.31-19.3-1.82-3.75-2.36-8.01-2.68-12.21l-1.47-19.24-.98-19.72c-.1-2-1.45-4.05-2.52-5.92-1.47.05-3.17.34-4.68.77,1.52,5.58,2.37,10.7,2.91,16.5.86,9.32,1.86,18.33,3.43,27.54,1.17,6.86,3.11,13.16,5.56,19.58,3.3,8.63,1.74,14.66,5.27,22.38l10.96,23.98c2.13,4.67,4.6,8.62,7.33,12.94l19.09,30.12,12.56,21.47,8.62,15.1,9.29,15.87c3.9,6.65,7.47,13,10.45,20.14l5.36,12.81c1.63,6,1.51,11.96,1.65,18.16l.47,20.7.8,10.54,1.78,12.17,17.19,2.26,15.06,1.44c8.44.8,18.17,6.13,30.66,7.01l11.99.84,16.65,3.62.34.82c.07.17-.7.29-1,.23l-17.46-3.63c-5.97-1.24-12.08-.16-17.94-1.79l-17.36-4.83c-3.93-1.09-7.64-1.24-11.72-1.73l-23.15-2.76c-8.4-1-16.29-1.41-24.64-.04-4.71.78-9.13-.27-13.83-.3l-10.83-.06-26.62,3.32c-5.22.65-9.97,2.59-15.26,3.04-8.19.7-15.96-.04-24.18.15-15.3.35-30.05.36-45.27-.94-5.23-.45-10.35-.39-14.99,1.21l2.96,1.09c-3.26,1.45-7.12.09-6.54-.87l.56-.93c4.42-1.61,8.8-2.07,13.5-1.83l5.45.09,25.14,1.09,33.99-.1c5.45-.02,10.66-.2,15.9-1.34l11.28-2.46,22.2-2.4h13.21c4.97-.01,9.6.67,14.52.03,6.26-.82,12.07-.99,18.68-.4l-1.59-12.7-.61-16.22-.43-14.81c-.18-6.4-.33-12.79-2.3-18.88l-5.04-11.2-7.52-15.19-7.12-12.17-13.17-22.76-13.29-22.75-18.51-29.21c-3.06-4.83-5.72-9.38-8.11-14.6l-9.3-20.26c-5.29-11.53-3.49-17.11-5.9-23.2-3.22-8.15-5.56-16.4-6.83-25-1.87-.06-2.93-.07-4.98-.76l4.69-.78-2.44-21.94c-.55-4.94-1.12-9.77-2.2-14.53l-7.78-1.29c-3-.5-6.25-.4-9.27.33,2.08,2.77,3.9,4.71,4.88,7.54,1.18,3.42-.37,9.08-1.54,9.12-.6.02-1.85-.27-2.3-.42l-1.1,4.36-2.19-5.4.46,7.14c.06.91-1.31,2.51-2.05,2.86l-1.98.94c-.44.21-1.48-.93-1.62-1.48l-2.08-8.07c-1.15-4.24-2.81-8.06-5.01-11.74h-1.17c-.18,0-.38-.8-.21-.83l1.17-.2c.69-.12,2.28.26,2.57.98,1.81,4.45,3.17,8.49,4.32,13.03.61,2.4,1.09,4.56,2.3,7.1.51-3.53.62-6.89-.39-10.03l-3.49-10.85,1.01-.14,3.46,7.98.6-2.41,2.27,3.71c.5.82,2.52.96,2.96.03l-2.49-7.55c3.05,2.14,2.86,5.56,4.27,8.53l.62.73c.44-6.19-3.79-9.68-4.07-14.14-2.34.28-5.19.37-7.62-.2-2.96-.7-5.51-.57-8.56-.33-4.18.33-8.56-.47-12.68.68-15.14,4.25-26.4,10.92-40.98,15.72.21,2.14.52,3.95-.73,6.28l-.52-5.78c-.22-.06-1.03.77-1.68,1.53-2.11,2.47-5.36,3.79-8.16,5.52l-6.45,3.98c-5.28-.02-10.3,1.17-15.04,3.77.37-1,.99-1.61,1.81-2.3,4.06-1.58,7.99-2.63,12.51-2.75l12.41-7.21-5.23,1.61c-.15.05-1-.56-.86-.62l.78-.35,6.98-3.42c7.16-2.85,14.08-5.47,21.19-8.4l16.06-6.63c6-2.48,12.03-3.41,18.67-2.82.81.07,2.72-.42,3.21-.77l3.32-5.27-3.27-3.62c-1.73,2.74-3.32,5.01-5.8,6.98-4.16,1.09-8.03,1.45-12.33,1.11-.27-.23-.95-.9-.7-.93l1.33-.18c4.18-.57,8.03-2.57,9.64-6.63,1.92-4.83,3.67-9.55,5.06-14.77-.03-.95-.29-.96-.7-.19l-3.39,8.7c-4.35,11.16-9.27,10.14-17.26,12.14l-1.07.27c-.17.04-.22-.45-.08-.54,3.82-2.41,13.43-.87,16.45-11.93l-4.27,6.25c-.1.15-1.06.22-1.01.04l.33-1.2,5.58-8.35c1.82-2.72,4.63-4.95,4.1-8.51-8.06,9.91-14.12,19.55-26.98,20.21l-.05-1.21c6.4-1.15,11.29-5.01,14.86-10.26,2.69-3.96,5.63-7.43,7.2-12.64-6.64,3.47-11.38,9.06-16.43,15.1-.72-1.14.04-2.42.93-3.36l5.75-6.09,8.12-6.78-1.13-.68c-4.92,4.46-9.98,8.53-15.56,12.22l-5.23,3.46c-.23.16-1.21.26-1.46.28-1.83.16,5.3-5.21,8.38-8.94l8.39-10.15c-.65-.38-1.57-.85-2.03-.98-.53-.15-1.22.95-1.67,1.49-3.7,4.51-18.25,20.94-19.04,16.89-.07-.37.01-1.41.32-1.77l4.71-5.43,11.21-12.58c0-.17,0-1.02,0-.93l-15.2-4.8-4.03,3.33c-2.53,2.09-3.98,4.89-5.99,7.88,3.65-.58,6.57-1.74,8.87-4.02,1.06-1.05,2.03-1.29,3.46-1.6.96-.21,2.35-2.49,3.92-1.25.25,7.09-7.55,15.28-13.58,19.84-1.16.88-3.28.99-4.37.63l-.21-1.51c-.04-.3-.99-.54-1.29-.62l-2.47-.68,4.96-5.84c.31-.36.47-1.37.42-1.71-.37-2.35-5.19,5.44-9.24,4.08l9.94-10.4c-3.06,1.89-5.72,2.78-9.36,2.42l-3.89,2.55c-.27.17-1.06-1.04-.8-1.06,3.7-2.77,6.67-4.99,9.64-8.23-2.68,0-4.12,1.38-6.18,2.59l-8.39,4.93c-2.39,1.41-4.68,2.34-7.55,2.7l1.95-4.62-4.32,2.45c-2.38,1.35.71-2.45.96-5.45l-4.9,2.28c-.25.11-1.34-.65-1.21-.89l.59-1.13,1.47-2.36c-.99.64-3,1.24-3.47.46-.97-1.61.33-3.46,1.49-4.38l-3.52.17,3-4.4c.64-.94,3.23-1.43,4.24-1.95l2.23-1.3,3.99-1.54,13.95.31c.39.12-.15-.05-.84-.25-.58-.29-1.4-.8-1.61-1.26-.25-.55,1-1.91,1.66-1.74l5.46,1.34c-1.77-2.73-4.97-1.24-4.51-3.59,2.59.38,4.86,1.37,7.14,2.49,4.61,2.25,9.51,4.33,13.13,8.15-4.8-.95-7.28-5.02-12.05-5.3l4.57,3.18c.19.14.27,1.06.25,1.47-3.62-.38-6.64-1.38-10.16-2.91,1.05,1.71,2.89,2.82,4.92,3.17l8.86,1.52,17.42,5.24,3.86,1.97,4.32,1.86c1.35.58,2.26,3.49,4.76,1.36l-7.01-3.81-3.23-2.59-4.75-.53c-2.32-2.42-4.39-4.25-7.39-6.01l-.51,2.2c-2-3.95-8.1-5.13-7.25-5.56.16-.08.98-.66,1.15-.6l4.67,1.76c4,1.51,6.92,3.5,9.85,6.76-.7-2.76-3.18-3.88-4.96-5.59l-2.72-2.63.79-.81,12.32,9.83c1.41,1.13,4.25,1.42,5.98,2.35,7.78,4.23,14.69,9.43,21.05,15.81,2.37-4.09,6.01-2.86,8.69-5.25l-7.67-.21c-.48-.01-1.4-.77-1.49-1.24-.37-1.83,3.71.13,5.43-3.11l-6.31.75-.03,1.87c0,.27-.85.24-1.02.04-1.17-1.36.44-4.5,3.33-5.29l4.39-1.2h-4.63c-.61.07-.58-1.15.02-1.15l1.97-.05c.31,0,.18-.58.13-1.19l3.29-.81c-3.72-3.41-6.78-7.37-10.72-10.41-2.84-2.19-4.71-4.13-6.93-7.07l-2.13-2.83-3.51,2.57-6.26.45,1.52-2.98-4.07,1.73c-1.34-1.37-1.01-3.22-.45-5.02-.88.79-1.69,1.48-2.6,1.63-.41-3.24.45-5.99-.14-9.04-.3-1.56-2.72-4.16-4.17-4.82-2.47-1.12-4.88-1.89-5.99-4.46l-2.88-1.03-2.44-2.89c1.05-.64,3.09-.49,4.1.21l.3-.12ZM269.52,304.74c1.93-.99,3.95-3.41,5.32-5.31-2.68-.81-5.62-.08-7.26,1.85-1.3,1.53-1.92,4.03-2.06,6.07,1.55-1.63,2.21-1.95,4-2.61ZM256.38,331.41l1.48-3.99c.66-1.77.73-3.53.59-5.51-.3-4.19,1.01-8.01,1.66-12.29-1.82,4-3.41,8.11-4.75,12.27l1.01,2.3c.08.19-2.57,2.24.01,7.21ZM252.74,363.04c-.82-8.27-1.51-16.03-1.84-24.25l-1.34-8.56c-.49-3.12-1.6-5.81-3.86-8.54-.45,7.17.02,13.86.37,21.04l1.54,7.19,5.13,13.11ZM310.39,340.35l-1.55-4.02,3.29-.72-9.58-4.08c2.43-2.62,5.83-3.28,8.24-6.47-3.57-.28-5.85,1.32-8.23,3.37l-6.33,5.45c-3.12,2.69-4.61,6.85-6.42,10.03,3.12.54,5.16.58,7.95.47,2.15-.09,4.54.58,6.96.9-1.62-2.92-4.02-3.58-7.1-5.73,4.54-.54,8.64-.04,12.77.8ZM232.48,361.46l6.64,3.9c2.38,1.4,5.57-.28,7.84,2.98l-6.86.71,7.73,2.35c-.03,1.03-1.01,1.86-1.93,2.32l4.56-.08-1.45-8.35c-1.76-6.78-2.93-13.52-4.19-20.4-3.12-2.59-6.08-5.61-8.04-9.23-1.11-2.06-2.5-3.4-4.9-3.56l1.34,3.07-2.57.69,5.37,6.49c1.11,1.34,1.35,2.85.15,4.29-.7.84-2.13.86-3.9.88,1.98,1.19,3.34,1.99,4.57,3.16l-2.56,1.5,3.45,1.65-.62,1.93c-.11.34,3.2,1.79,2.73,3.44-.16.57-.92,1.41-1.39,1.99l2.91,1.24c-3.25,1.99-5.85-1.56-8.89-.98ZM186.59,333.94l-.31.2-1.62,1.25,3.89.76c.43,2.13,2.29,4.05,4.48,4.02l.68-1.24c.14-.26,1.1-.13,1.25-.03l-.11,2.66c1.05,1.19,3.69,3.01,3.79,4.57l.42,6.73,3.08-5.1c1.74,3.54.06,6.51-.97,9.8,2.42-.73,4.11-2.75,4.34-5.29l1.03.03c.18,0,.29.64.29.89l.04,5.74,3.65-.82c1.3-1.78,2.06-3.54,2.66-5.54l1.02,1.49c.23.34.77.26,1.81.31.45.59.15,2.42-.36,3.43.73,1.83,2.3,4.34,3.95,5.78l11.11,9.69-12.69-17.44c-1.53-2.11-2.36-3.38-4.82-4.69-3.42-1.83-5.67-5.94-10.83-8.3-4.2-1.92-7.87-5.23-11.27-8.28-1.52.46-3.64.6-4.52-.6ZM262.64,379.82l-8.72.2c-.07-1.26,1.06-3.1,2.18-3.33l10.64-2.2-9.12.02,1.11-1.36c.16-.2-.56-.75-1.01-1.18l1.99-.42c.65-.49.96-3.06.12-3.76-3.81-3.17-.6-4.92-3.57-7.63-.19-.92,1.95-1.65,2.96-2.16,6.56-3.32,12.94-6.27,20.11-8l4.43-1.48c-.48-.69-1.13-1.53-1.67-1.78-.45-.21-1.6.26-2.14.48l-18.46,7.62c-1.52.63-3.11,2.02-4.35,2.89-.57.27-2.09.78-2.65,1.29l2.19,13.64c.07.42-.38,1.83-.8,1.84l-2.15.03c-.57,5.05-.67,10.33.07,15.53l2.63,18.51c1.12-6.43,2.88-12.35,6.48-18.08l-2.26-2.97,3.11.75c.39.09,1.24-.66,1.45-1.01.17-.28-.79-.93-1.09-1.07l-5.45-2.56c-1.22-.58-3.29.25-3.65-2.09l7.61-1.72ZM290.7,354.4c-.82-3.21-1.31-4.45-1.33-6.73-1.16.02-3.03,1.57-2.91,3.41l4.24,3.32ZM281.5,354.5c.12-.06.45-.91.16-.94l-1.26-.12c-5.73,1.04-11.16,2.48-16.28,4.94,5.67-.84,10.88-3.55,17.38-3.88ZM279.07,357.82c1.07-.26,1.93-.85,2.02-2-7.74,1.31-14.79,2.78-21.6,6.9l7.05-1.89,12.54-3.01ZM285.87,361.77l-3.69-3.8c-1.58,1.29-2.78,2.93-2.55,5.27l6.24-1.47ZM277.83,362.44l.98-3.28c-7.2,1.58-13.25,3.16-19.97,5.45,2.66,1.15,4.81-.1,7.09-.43l11.9-1.74ZM252.41,367.68l-2.04-4.15,1.61,9.09c1.22-1.6,1.11-3.55.43-4.94ZM264.75,366.77l12.69-2.28c-3.22-1.09-6.13.02-9.13.6l-7.78,1.5c1.42,1.47,2.76.45,4.21.18ZM149.91,381.68l-3.16,6.2c2.88-.82,5.05-1.8,7.27-3.48l8.12-6.16c.92-2.9,3.85-2.35,5.41-5.35l-5.29-3.64.76,1.63-6.58-1.65c-4.16-1.04-10.12-1.26-11.46,1.35l-6.19,1.46c-.67.16-1.66,1.58-1.94,2.29l4.51-.76-4.47,5.57c2.61-1.14,3.49-2.53,6.59-2.5l-4.04,5.64,5.95-2.95-.95,5.29c1.83-1.16,3.08-1.99,5.48-2.93ZM271.57,372.06c.54.17,1.89-.08,1.95-.52l.27-1.9c-4.73.33-8.74.92-12.67,2.52,3.65-.43,6.81-1.25,10.45-.1ZM163.39,385.01c1.73-.7,2.78-1.52,4.11-2.38l11.7-7.61c-3.48-.83-6.4-1.26-10.11-1.74l-2.72,4.18,2.99,1.79-5.96,5.76ZM270.01,377.33l.6-1.9c-4.22.65-8.35,1.04-12.51,2.72l11.9-.82ZM247.49,375.92l-11.15,1.78c3.89.58,9.36.34,11.15-1.78ZM273.32,378.08l4.16-.45-4.63-2.01c-.82.23-1.16,2.04-1.79,3.16l-.97,1.72c-.73,1.28,3.47,3.06,7.23,1.07-2.32-.83-4.01-1.08-4-3.49ZM237.87,389.31l-5.35,2.99c3.02,2.68,8.77-.41,11.61-4.14l5.38-7.07c.35-.47,2.13-.46,2.14-.94l.02-2.03c-2.55-.14-3.29.28-4.92,1.53s-4.89,1.67-6.86,2.34c-.05,1.19-.48,2.42-1.34,3l-2.91,1.95,11.64-4.26-7.35,4.63c-.57.72-1.44,1.64-2.06,1.99ZM239.38,381.05l4.7-1.73c-2.74-.03-4.71.15-7.35.65.64,1.14,1.81,1.39,2.65,1.08ZM267.06,382.47c.37-.05,1.01-1.48,1.21-2.15-1.77-.32-3.71.27-5.11,1.7,1,.22,3.07.56,3.9.46ZM246.28,403.84c3.96,2.12,6.29,5.73,8.99,9.06l-1.96-13.96-1.73-17.91c-2.31,3.26-4.25,6.27-6.73,8.91l-1.39,1.48c-.16.17,2.23,3.09-4.23,8.65l7.05,3.77ZM173.32,398.52c5.18-4.38,11.53-10.55,12.48-17.11-4.49,5.36-8.68,10.05-13.65,14.75l-2.2,2.79c.91.58,2.36.41,3.36-.44ZM181.95,399.42c2.87-1.36,4.76-3.41,6.66-5.57l10.3-11.69-.63-.45-7.33,7.58-9.01,10.13ZM167.99,396.93c2.26-.6,3-1.54,4.21-2.72,3.55-3.47,6.8-6.88,9.62-11.11-4.07,1.81-4.24,7.13-9.05,7.05-.54,1.3-1.33,2.5-2.09,3.45l-2.68,3.34ZM287.26,387.2c.66-.78,1.23-1.45.95-1.62l-1.18-.73c-4.2-.94-8.26-1.55-12.55-1.49l3.13,1.23c3.15,1.27,6.17,2.22,9.65,2.61ZM284.87,388.23c-1.78-.32-4.42-.45-5.67-1.22-1.33-.82-1.97-1.45-3.51-1.7l-6.72-1.08c-.45-.07-1.87.95-1.55,1.19l1.05.81,10.36,7.23,2.83-2.89-7-2.59c4.38-1.56,7.87,3.84,10.19.25ZM201.24,390.97l5.62-4.95c-.39-.55-1.85-1.34-2.57-1.41-.65-.06-1.3,1.26-1.82,1.87l-7.98,9.42,6.75-4.93ZM214.48,389.55l.82-.74c.2-.18-.28-1.13-.51-1.26l-4.71-2.71c-.25-.08-.64,1.11-.39,1.22l.91.42c1.46.68,2.33,1.48,3.88,3.07ZM302.66,394.58c-3.36-3.94-6.35-6.82-11.4-6.4l5.46,2.83,5.94,3.57ZM309.49,405.25c.82.68,1.89,1.05,3.11,1.07-.71-2.8-3.07-4.03-5.81-4.19-3.24-3.87-6.76-6.97-11.1-9.57-3.34-2.56-8.46-5.09-10.28-2.81l9.17,4.01c3.26,1.42,6.04,4.13,8.77,6.39l6.14,5.09ZM213.25,390.52l-1.07-.23c-2.37,5.19-6.04,10-9.47,15.08,3.85-2.55,12.23-14.49,10.54-14.85ZM266.4,394.42l7.23,3.98,3.64-3.24c-1.24-1.16-3.13-2.84-4.82-3.33l-5.8-1.67c-2.12,5.31-3.84,13.12-1.28,17.22l2.63-3.51,4.91-4.52c-2.92-.96-5.35-2.02-6.52-4.93ZM235.07,419.54c4.37-4.6.73-13.07,2.13-12.45.27.12,1.37.72,1.44,1.02l1.89,8.36,2.41-4.53,1.28,1.67,1.82-1.89c5.15,2.27,7.18,7.03,9.56,4.53-2.71-4.15-5.41-8.47-9.52-10.99-4.31-2.64-9.05-4.29-13.15-7.15-2.28-1.59-4.41-1.84-7.16-2.9l-5.82-4.62c.8,5.95-3.43,15.71-6.6,21.59-1.08,2-2.9,3.4-4.82,4.87,6.68-.63,7.54-3.52,10.99-8.16,1.37-1.84,2.43,3.27,6.25,3.73l2.26,2.4-1.3-8.58c1.81,2.01,1.41,3.44,2.54,5.57l.32-8.86c.58-.32,1.96.57,2.32,1.45,2,4.81,2.55,9.56,3.14,14.92ZM260.36,405.19l1.02-1.77,1.87-7.43,1.31-5.07c-4.01,5.74-6.12,12.22-6.73,19.26l2.17,6.88,2.69-4.82c2.12-3.79-3.15-5.64-2.34-7.05ZM282.38,392.81l5.92,2.78,2.29-1.64c-2.26-1.18-4.39-2.22-6.72-2.54-1.26.43-3.41,2.39-3.99,3.18l4.44,2.16.66-1.31c-1.59-1.17-1.84-1.23-2.6-2.63ZM242.03,392.79c-8.28,4.2-10.46-.06-11.56.2-.54.13-1.53.95-1.85,1.3l9.5,4.48c1.99-1,3.92-3.47,3.91-5.97ZM305.73,406.22c.21.14,1.52.1,1.44-.1s-.35-1.05-.54-1.21l-7.38-6.4c-1.83-1.59-3.85-2.57-6.24-3.64,1.27,1.94,3.27,3.14,5.02,4.24.2,1.11.53,2.88,1.09,3.56.5.61,2.46.66,3.12,1.12l3.5,2.44ZM294.93,406.41c-2.17-4.15-5.28-6.47-9.64-7.96,2.2,2.66,5.11,4.76,7.77,6.62.46.32.49,2.21,1.87,1.34ZM290.8,407.7c-.9-3.36-3.23-5.41-6.09-6.07l-9.73-2.25,9.57,4.79,2.11,1.31c1.43.89,2.31,1.98,4.14,2.21ZM300.34,406.13l-3.09-3.9c-1.1-1.39-3.09-2.61-4.91-2.94l4.24,6.8c.87.47,2.92.39,3.76.04ZM282.45,409.32l4.66-1.38c-3.86-3.35-8.49-6.02-12.82-6.91-.55-.11-2.1.66-1.91,1.08.99,2.25,6.06,3.5,10.08,7.2ZM280.67,409.75l-5.97-4.16-6.23-.04-2.79,3.92c1.48,2.72.73,5.18-.13,8.51,4.65-4.05,9.35-6.15,15.12-8.23ZM343.61,413.23c.42,0,1.49-1.16,1.62-1.38l2.39,1.83,12.72-.1c1.88-.01,2.86.24,4.5-1l6.43,3.91c.7.43,2.78-.19,2.99-.49-.39-4.66-4.29-4.88-7.13-6.13-2.1-.92-2.46-1.49-5-1.11s-6.29.25-9.04-.16l-16.36-2.39c-5.13-.75-10.02-.85-15.07.38-4.21,1.03-8.18,1.17-12.75,1.21l.92,2.97c2.43.3,3.71,1.03,4.86,2.88.08.01,1.01-.89.79-1.16l-1.17-1.48c2.79-1.74,6.27-.39,8.32,1.62,1.6-.6,2.54-.46,4.34.51l-1.08-2.59c3.16-.46,4.29,2.97,6.85,1.46l4.35,1.25,6.53-.05ZM303.34,408.25c1.48,1.43,2.67,2.18,3.76,1.71.03-.74-.15-2.31-.34-2.96l-9.36.87,3.05,3.81c1.38.44,2.78-2.13,2.89-3.44ZM221.97,418.82c4.49,1.13,7.39,1.69,11.51,1.69.11-3.23-.08-6.01-.54-9.21-.32-.97-1.49-2.7-2.09-3.58.1,3.1-.14,6.42-2,8.53-.49.56-2.42.42-2.71-.17l-1.19-2.42-2.99,5.16ZM264.69,411.74l-2.38,3.63c-.27.41.66,1.56,1.13,1.47,1.33-.26,2.36-3.43,1.25-5.1ZM241.4,418.63l10.73,1.83c.51-3.57-2.41-5.75-6.2-7.07l-1.2,3.27c-.18.48-1.54-.27-2.1-.9l-1.23,2.88ZM317.64,417.19c-.02-.92-1.03-2.53-1.59-3.12-1.3,4.44-.13,8.34,1.8,12.18l-.2-9.05ZM347.46,424.53l-2.28-8.35c.09-.41.38-1.62-.01-1.6l-2.52.13,2.23,5.51,2.59,4.31ZM354.77,425.06c-1.72-1.9-3.88-5.95-4.8-8.71l-.47-1.41c-.11-.34-1.21.17-1.41.4l5.36,11.28,1.24-.92.08-.63ZM363.29,423.96l-2.25-4.06-3.04-5.23c-.1,4.2,1.24,7.98,5.29,9.29ZM278.72,449.69l2.38,6.6,3.2,14.2c.14.64.33,1.67.77,1.7s1.92-.21,1.8-.63l-.48-1.66c-5.55-19.05-12.79-35.11-23.77-51.62-.86-.22-2.39-.13-2.95.07,2.07,3.42,2.19,6.1,2.38,9.68l.74,13.49c2.4-2.01,2.73-4.66,5.92-5.5l-5.89,7.93,1.28,11.11,5.97-7.58c.84-1.07,3.43-1.49,4.97-1.16,1.22.27,3.08,1.65,3.69,3.35ZM281.91,442.93l-4.63-1.5,2.3,4.27,2.34-2.77ZM278.06,467.34c.96-6.27.3-11.59-.17-17.41-1.41-1.43-3.17-2.43-4.87-2.58,3.1,6.01,1.81,13.42,5.04,19.99ZM285.9,448.15l10.8,3.57c.18-3.1-6.29-3.89-10.8-3.57Z"/>
    <path class="cls-2" d="M186.9,466.11c-.99-.9-.86-3.33-.69-4.63l1.25,1.06-3.82-12.86c-1.66,5.71-2.67,10.99-4.94,16.21-1.08-1.23-2.93-2.67-3.65-2.03l-2.17,1.92c-.61.54-4.67-1.22-4.32-2.01.69-1.51,1.77-.51,3.71-7.37l.36-1.27c.1-.34,1.47-.4,1.59-.07l1.49,4.16c.8-1.79,1.69-4.27,1.14-6.45l-2.28-9.03c-.36-1.44-1.04-2.7-.07-4.24l5.28,9.79c.15.28.64,1.14.88,1l1.42-.81c3.54-2.03,7.15-3.39,10.62-5.61l4-1.9c1.22-.58,2-1.1,3.36-.75l-5.33,3.58,2.9,5.41c1.19,2.22,2.76,4.02,4.85,5.57l-.83.87c-.65.68,1.96,4.41-.36,6-2.93.3-4.08-2.44-5.91-4.33.56,3.75-.6,7.79-4.47,8.4-.89.14-3.31.04-4.02-.6ZM194.66,452.33c.1-3.45-.42-5.14-1.11-7.61l-2.5,1.85,3.61,5.76ZM192.37,455.22c.13.22,1.32.46,1.29.2l-.15-1.36-3.18-6.58-1.01,2.64,3.05,5.1ZM200.69,461.05l.45-.75-.92-4.58-3.53-4.18c-.66,2.95,1.07,5.13,3.04,6.89l.95,2.62ZM192.58,463.51l-3.88-8.44,1.56,9.48,2.32-1.04ZM174.01,463.56c.76-.51,1.64-2.41,1.26-3.18l-1.71-3.41c-.83,2.69-1.57,4.73-2.69,6.87.55.38,1.43.89,1.74.67l1.41-.95Z"/>
    <path class="cls-2" d="M343.06,386.56c.36.41.33,1.96-.11,2.2s-1.56-.07-2.02-.49c-5.42-4.92-10.95-9.05-17.7-11.36l6.56,5.28c1.09.88,1.77,1.48,3.21,2.2l2.34,3.48c-.65.22-2.02.13-2.56-.32-4.64-3.91-9.4-7.09-15.18-9.1-1.18-.41-3.2.56-3.3-2.29l8.14,1.96c-.09-2.03-2.8-1.46-3.75-2.05l-3.42-2.12c-.19-.12-1.03-.34-.89-.44.21-.14,1.05-.82,1.35-.77,9.42,1.57,18.21,7.86,25.97,14.35-2.4-4.04-6.15-6.3-10.1-8.88-3.65-2.38-10.48-7.87-9.1-8.55.25-.13,1.11-.33,1.4-.23l8.45,3.12c5.61,2.07,9.74,4.92,14.73,8.74l1.23-4.21c1.79-6.13,8.91-3.39,8.77-5.45l-.18-2.56c1.94.17,3.77,1.49,4.41,3.79l-3.41-.39.24,1.95c-2.6-.47-4.56-.84-6.45.24-3,1.72-2.32,5.38-3.72,7.34-1.25,1.75-4.73-2.91-8.33-4.4,2.1,2.85,5.74,4.02,6.9,7.96-3.24-2.81-6.17-5.82-10.02-7.71l-7.28-3.58,9.5,7.32,4.33,4.92Z"/>
    <path class="cls-2" d="M151.05,473.09c.28,1.27-.08,2.79-.88,3.52-.66-5.24-1.31-9.95-3.08-15.28-.07,4.61.13,9.18.65,13.97l.9,1.6c.21.37-.92,1.52-1.4,1.62l-6.25,1.36c-3.82.83-7.01,2.74-10.6,4.23l-1.95.47c-.43.1-1.36-.99-1.29-1.49l.83-5.76-1.53-.62c-1.37-.56,1.33-6.16,1.87-11.56l-.36-2.91-1.97.66,2.04-4.15c.95-1.93,3.48-3.69,5.53-5.18s7.75-3.24,8.7-2.44c.23.19.14,1.32-.13,1.59l-7.75,7.63c-1.65,1.63-4,3.05-4.58,5.29l-2.53,9.79,1.5.56c.39.15.58,1.31.5,1.76l-1.02,5.69,4.95-2.04c2.53-1.04,5.18-2.28,7.87-2.84l5.8-1.22-1-9.91c.03-5.17-.4-10.1-1.08-15.24l.45-1.32c.11-.33,1.24.38,1.29.75l.79,4.92,3.69,16.54ZM139.83,452.86c-3.37,1.09-6.39,2.12-8.55,5.05,3.31-1.05,6.28-2.63,8.55-5.05ZM134.4,458.28c-3.07.42-4.7,2.29-5.18,4.74l5.18-4.74Z"/>
    <path class="cls-2" d="M205.25,451.72c-4.27-.72-7.33-4.26-7.52-8.6l3.08,4.47c.82,1.19,2.29,2.28,3.72,2.71-1.09-2.26-3.58-3.37-2.91-6.28,1.89,2.64,3.33,4.73,5.83,6.46-1.26-2.9-2.07-4.39-2.29-7.69,1.62.68,2.4,1.2,3.85,2.14l-2-6.15c.59-.25,1.36-.49,1.47-.24l.56,1.24c.93,2.03,1.66,4.48,4.43,4.73l3.46,8.59c.74,1.83,1.57,3.77.13,6.01l-3.04-8.28c-.3,2.38-.05,4.21-2.29,4.91l-2.27-3.32-4.22-.71ZM212.27,454.42c.66-3.57-2.41-8.68-3.11-8.54-.51.1-1.41.55-2.27,1.02l2.46,3.42,2.92,4.09Z"/>
    <path class="cls-2" d="M155.98,473.14l-.67-3.81-1.04,3.78c0,.09-.82.04-.78-.19l.17-1.13.74-10.15c1.5,1.24,1.81,3.24,1.8,5.33l2.97,3.3c2.19-1.18,4.04-1.91,6.58-1.97-1.18-4.29-2.37-8.71-3.05-13.19-.53-3.46-1.6-6.73-1.17-10.59,4.58,4.99,7.05,11.62,6.63,18.13-2.29-4.56-1.6-9.42-4.92-13.52.57,6.12,1.55,12.11,3.59,18.11v1.72c0,.95-2.83.06-6.45,2.17-.37.22-1.49.89-1.78.58l-1.58-1.72-1.03,3.16Z"/>
    <path class="cls-2" d="M360.59,365.87l-5.03-2.08c-2.68-1.11-4.84-1.08-7.68-2.79l8.54-3.42-1.07-2.75c1.52-.29,2.29.72,3.42,2.02,1.95.35,4.94-.38,6.7-1.24l-3.77-1.66,2.48-1.05-2.31-1.79-4.71,1.55c1.39-2.35,4.16-2.98,6.44-3.08.16.72.27,1.77.64,1.87l1.79.52-.13,2.07c.46-.1,1.94,1.72,1.44,2.06-1.33.89-4.14,1.54-5.47,1.91-.35.1-.65,1.56-1,1.49l-1.64-.3c-2.71-.5-5.23.55-8.03,2.06l9.04,2.44c3.51.95,5.13,5.16,3.87,4.9l-1.03-.21c-.31-.06-.23-.29.04-1.39l-2.51-1.12Z"/>
    <path class="cls-2" d="M219.66,432.41c-.06,4.81.65,9.47,2.14,14.35l-.77,1.02c-.17.22-.91-.55-1.03-.92l-3.25-10.54,1.36-.66-1.47-9.67c.43-.25,1.87-.5,2.06-.06l.8,1.91c2.54,6.38,4.78,12.67,6.49,19.34l-.32,1.28c-.05.18-.24.24-.38.09l-.65-.73c-1.42-5.16-2.81-9.9-5-15.39Z"/>
    <path class="cls-2" d="M185.83,467.6c-.81,3.4-3.34,3.91-4.47,6.34l.09-3.59c-.76-.78-1.63-2.8-1.32-3.98l2.8-10.48c3.38,2.93.35,7.6,2.9,11.71ZM183.86,468.54l-.7-7.47c-1.52,2.34-1.2,6.82-.12,8.86.12.23.85-1.11.82-1.39Z"/>
    <path class="cls-2" d="M214.31,435.93c3.36,5.82,7.8,17.32,5.15,21.18-1.16,1.69-.13-6.32-3.22-12.14-1.5-2.83-2.38-5.56-3.4-8.55l-.19-1.04c-.05-.25.92-.73,1.05-.5l.61,1.06Z"/>
  </g>
</svg>