<?xml version="1.0" encoding="UTF-8"?>
<svg id="Layer_1" data-name="Layer 1" xmlns="http://www.w3.org/2000/svg" viewBox="0 0 471.92 768">
  <defs>
    <style>
      .cls-1 {
        fill: #f12427;
      }

      .cls-2 {
        fill: #fdffe3;
      }
    </style>
  </defs>
  <path class="cls-1" d="M65.53,298.75l4.09,3.01-.24,1.08c-1.2,1.32-2.1,3.37-2.35,5.05l-5.41,33.68c-.12,1.5-.84,5.05.78,5.35l-.48,3.13h-6.19l.48-3.13c.3-.06,1.68-.66,2.41-5.35l2.04-12.15c-2.53,2.53-5.41,3.91-8.18,3.91-5.95-.06-10.88-6.37-9.08-17.56,1.74-10.82,8.48-17.08,14.37-17.08,2.83,0,5.53.3,7.28,2.89l.48-2.83ZM64.21,306.99c-.48-4.63-2.53-7.22-6.56-7.22-6.25,0-9.32,6.25-11.01,16.72-1.56,10.04-.24,16.12,5.95,16.12,4.09,0,6.92-3.13,8.78-7.88l2.83-17.74ZM78.33,304.59l-2.41,15.09c-1.08,6.74-1.8,12.93,3.85,12.93,3.25,0,7.88-2.04,8.9-8.3,1.08-6.92,2.16-13.35,3.31-20.45.18-1.2.48-2.95-.3-2.95l.36-2.1h2.16c-.12.78-.18,1.44-.3,2.16-.6.42-1.08,1.92-1.26,2.95l-3.25,20.39c-1.02,6.49-5.77,8.96-9.68,8.96-7.34,0-8.66-5.77-7.16-15.28.78-4.63,1.5-9.2,2.23-13.83.18-1.26.3-3.07-1.02-3.25l.36-2.16c1.98,0,4.69.06,6.62.06l-.3,2.16c-1.5.18-1.92,2.29-2.1,3.61ZM110.75,298.69c5.59.06,8.24,3.07,3.91,7.76l-15.58,15.09c1.26,8.48,7.64,17.44,13.11,1.92,0,0,2.53-.72,2.35-.42-.48,1.26-1.02,2.41-1.62,3.43-6.19,11.61-18.4,8.78-17.26-7.04.78-10.7,6.37-20.75,15.09-20.75ZM110.69,299.24c-8.48,0-12.21,11.97-11.85,20.09,0,.54.06,1.08.12,1.56,1.86-1.86,13.83-12.99,14.67-18.58.36-2.23-1.02-3.07-2.95-3.07ZM143.72,333.51l-5.23-29.29c-.18-1.26-.72-3.07-2.04-3.25l.36-2.23c1.98,0,4.75.06,6.74.06l-.36,2.23c-1.44.18-1.14,2.35-.9,3.67l3.91,22.67,9.98-21.17c2.53-5.29,2.35-5.23,1.56-5.23l.36-2.23h2.29l-.36,2.23c-.6,0-.42-.06-1.92,2.89l-14.19,29.65h-.18ZM162.73,333.21c-3.61,0-4.63-3.61-3.97-7.7,1.8-11.25,16.66-11.25,17.56-18.58.48-4.27.24-7.7-3.91-7.7-3.01,0-6.07,1.5-6.62,5.77l-3.49,2.41c1.32-6.8,6.98-8.72,10.22-8.72,7.64,0,7.7,3.55,6.49,11.01l-2.35,14.79c-.18.96-1.2,7.04-.6,7.1l-.18,1.2c-1.5.78-3.07.84-3.19-1.56-.06-.42.12-1.92.18-2.65-3.25,2.35-7.1,4.63-10.16,4.63ZM163.76,330.87c2.95,2.35,6.25-1.44,9.32-3.43l2.65-16.9c-3.97,4.39-12.63,5.05-14.19,13.71-.42,2.29.54,5.29,2.23,6.62ZM183.53,325.52l.06-.36,4.69-29.17c.42-2.89,1.56-7.7.06-9.68l.24-1.38c2.23.18,2.89-.18,4.75-1.86-.24,1.44-6.68,42.1-6.68,42.1-.72,4.45.42,4.99.72,5.05l-.48,3.01h-6.19l.48-3.01c1.5-.24,2.04-2.89,2.35-4.69ZM196.09,311.08c.96-5.95,5.65-11.91,10.34-12.51.6-.06,1.2-.06,1.74-.06,2.29-3.31,7.16-6.31,9.62-4.63l-2.16,4.21c-2.53-.84-5.05-1.74-6.92.48,1.14.24,2.16.72,3.01,1.56,2.59,2.47,3.79,6.62,3.01,11.25-1.02,6.49-6.19,11.67-11.07,11.67-2.23,0-4.21-1.14-5.59-3.01l-1.8,1.74c-2.71,2.65,5.35,1.32,11.49,2.29,11.19,1.68,6.01,13.89-4.57,12.75-4.39-.42-8.72-2.59-12.21-4.87l2.77-2.83s5.47,6.01,9.68,6.56c7.22.9,9.8-9.86,3.73-10.1-4.45-.18-10.58,2.23-12.93,1.86-3.67-.54-.36-4.03,1.8-6.01l1.8-1.68c-1.5-2.23-2.29-5.35-1.74-8.66ZM206.37,299.12c-4.75.6-6.31,5.71-7.16,11.07-1.02,6.43-.84,12.21,4.93,12.21,4.93,0,6.56-4.39,7.46-10.04.36-2.59.9-9.62-.96-11.91-.9-1.02-2.29-1.56-4.27-1.32ZM222.11,333.21c-3.61,0-4.63-3.61-3.97-7.7,1.8-11.25,16.66-11.25,17.56-18.58.48-4.27.24-7.7-3.91-7.7-3.01,0-6.07,1.5-6.62,5.77l-3.49,2.41c1.32-6.8,6.98-8.72,10.22-8.72,7.64,0,7.7,3.55,6.5,11.01l-2.35,14.79c-.18.96-1.2,7.04-.6,7.1l-.18,1.2c-1.5.78-3.07.84-3.19-1.56-.06-.42.12-1.92.18-2.65-3.25,2.35-7.1,4.63-10.16,4.63ZM223.13,330.87c2.95,2.35,6.25-1.44,9.32-3.43l2.65-16.9c-3.97,4.39-12.63,5.05-14.19,13.71-.42,2.29.54,5.29,2.23,6.62ZM245.01,302.54l.12-1.74s3.37-.06,5.41-2.1c-.06.72-.66,4.33-1.38,9.44,1.86-3.97,5.65-7.88,9.14-9.14,2.04-.72,4.03-.12,5.41,1.68,2.16,2.71,1.08,7.04.48,10.82-.72,4.51-1.44,9.08-2.16,13.59-1.02,4.93.24,4.99.6,5.05l-.48,3.13h-6.19l.48-3.13c1.44-.24,2.1-3.07,2.41-4.99l2.29-14.43c.6-3.97,1.68-9.98-3.01-9.98-3.55,0-8.18,5.83-9.26,9.86l-2.28,14.49c-1.02,4.93.24,4.99.6,5.05l-.54,3.13h-6.2l.54-3.13c1.44-.24,2.05-3.07,2.35-4.99l2.71-16.6c.3-2.1-.06-3.49-1.02-6.01ZM286.01,325.52l.06-.36,4.69-29.17c.42-2.89,1.56-7.7.06-9.68l.24-1.38c2.23.18,2.89-.18,4.75-1.86-.24,1.44-6.67,42.1-6.67,42.1-.72,4.45.42,4.99.72,5.05l-.48,3.01h-6.2l.48-3.01c1.5-.24,2.04-2.89,2.34-4.69ZM298.75,333.21c-3.61,0-4.63-3.61-3.97-7.7,1.8-11.25,16.66-11.25,17.56-18.58.48-4.27.24-7.7-3.91-7.7-3.01,0-6.07,1.5-6.62,5.77l-3.49,2.41c1.32-6.8,6.98-8.72,10.22-8.72,7.64,0,7.7,3.55,6.49,11.01l-2.35,14.79c-.18.96-1.2,7.04-.6,7.1l-.18,1.2c-1.5.78-3.07.84-3.19-1.56-.06-.42.12-1.92.18-2.65-3.25,2.35-7.1,4.63-10.16,4.63ZM299.77,330.87c2.95,2.35,6.25-1.44,9.32-3.43l2.65-16.9c-3.97,4.39-12.63,5.05-14.19,13.71-.42,2.29.54,5.29,2.22,6.62ZM338.33,301.76l5.05-3.01-.42,2.83c2.59-2.59,5.41-2.89,8.18-2.89,5.89,0,10.71,6.25,8.96,17.08-1.8,11.19-8.66,17.5-14.67,17.56-2.77,0-5.23-1.38-6.92-3.91l-1.8,12.15c-.78,4.69.36,5.29.66,5.35l-.48,3.13h-6.2l.48-3.13c1.68-.3,2.16-3.85,2.47-5.35l5.35-33.68c.3-1.68.06-3.73-.72-5.05l.06-1.08ZM350.9,299.78c-4.03,0-6.85,2.59-8.84,7.22l-2.83,17.74c.42,4.75,2.22,7.88,6.31,7.88,6.19,0,9.44-6.07,11.06-16.12,1.68-10.46.6-16.72-5.71-16.72ZM378.85,298.69c5.59.06,8.24,3.07,3.91,7.76l-15.58,15.09c1.26,8.48,7.64,17.44,13.11,1.92,0,0,2.52-.72,2.34-.42-.48,1.26-1.02,2.41-1.62,3.43-6.2,11.61-18.4,8.78-17.26-7.04.78-10.7,6.37-20.75,15.09-20.75ZM378.79,299.24c-8.48,0-12.21,11.97-11.85,20.09,0,.54.06,1.08.12,1.56,1.86-1.86,13.83-12.99,14.67-18.58.36-2.23-1.02-3.07-2.94-3.07ZM389.54,302.54l.12-1.74s3.37-.06,5.41-2.1c-.06.72-.66,4.33-1.38,9.44,1.86-3.97,5.65-7.88,9.14-9.14,2.05-.72,4.03-.12,5.41,1.68,2.16,2.71,1.08,7.04.48,10.82-.72,4.51-1.44,9.08-2.17,13.59-1.02,4.93.24,4.99.6,5.05l-.48,3.13h-6.2l.48-3.13c1.44-.24,2.1-3.07,2.41-4.99l2.28-14.43c.6-3.97,1.68-9.98-3.01-9.98-3.55,0-8.18,5.83-9.26,9.86l-2.29,14.49c-1.02,4.93.24,4.99.6,5.05l-.54,3.13h-6.19l.54-3.13c1.44-.24,2.05-3.07,2.35-4.99l2.71-16.6c.3-2.1-.06-3.49-1.02-6.01ZM416.09,333.21c-3.61,0-4.63-3.61-3.97-7.7,1.8-11.25,16.66-11.25,17.56-18.58.48-4.27.24-7.7-3.91-7.7-3.01,0-6.07,1.5-6.62,5.77l-3.49,2.41c1.32-6.8,6.98-8.72,10.22-8.72,7.64,0,7.7,3.55,6.49,11.01l-2.34,14.79c-.18.96-1.2,7.04-.6,7.1l-.18,1.2c-1.5.78-3.07.84-3.19-1.56-.06-.42.12-1.92.18-2.65-3.25,2.35-7.1,4.63-10.16,4.63ZM417.11,330.87c2.94,2.35,6.25-1.44,9.32-3.43l2.64-16.9c-3.97,4.39-12.63,5.05-14.19,13.71-.42,2.29.54,5.29,2.23,6.62Z"/>
  <path class="cls-2" d="M128.66,365.01v-5.01h1.88c.38,0,.71.07.97.22.26.14.46.34.59.59.14.25.2.53.2.85s-.07.61-.2.86c-.14.25-.33.45-.6.59-.26.14-.59.21-.98.21h-1.24v-.75h1.12c.22,0,.41-.04.55-.12.14-.08.25-.19.32-.32.07-.14.11-.29.11-.47s-.03-.33-.11-.47c-.07-.14-.18-.24-.32-.32-.14-.08-.33-.11-.56-.11h-.83v4.25h-.91ZM134.26,365.01h-.97l1.76-5.01h1.12l1.77,5.01h-.97l-1.34-3.98h-.04l-1.33,3.98ZM134.3,363.05h2.64v.73h-2.64v-.73ZM139.72,360v1.84h-.68v-1.84h.68ZM141.69,365.01v-5.01h.91v4.25h2.21v.76h-3.11ZM149.47,365.01v-5.01h1.88c.38,0,.71.07.97.22.26.14.46.34.59.59.14.25.2.53.2.85s-.07.61-.2.86c-.14.25-.33.45-.6.59-.26.14-.59.21-.98.21h-1.24v-.75h1.12c.22,0,.41-.04.55-.12.14-.08.25-.19.32-.32.07-.14.11-.29.11-.47s-.04-.33-.11-.47c-.07-.14-.18-.24-.32-.32-.14-.08-.33-.11-.56-.11h-.83v4.25h-.91ZM154.98,365.01v-5.01h3.26v.76h-2.35v1.36h2.18v.76h-2.18v1.37h2.37v.76h-3.28ZM160.25,365.01v-5.01h1.88c.38,0,.71.07.97.2.26.13.46.32.59.56.14.24.2.52.2.84s-.07.6-.21.84c-.14.23-.33.42-.6.55-.26.13-.59.19-.97.19h-1.34v-.75h1.22c.22,0,.41-.03.55-.09.14-.06.25-.16.32-.28.07-.12.11-.27.11-.45s-.04-.33-.11-.45c-.07-.13-.18-.22-.32-.29-.14-.07-.33-.1-.56-.1h-.83v4.25h-.91ZM162.84,362.74l1.24,2.27h-1.01l-1.22-2.27h.99ZM165.81,365.01v-5.01h1.88c.38,0,.71.07.97.2.26.13.46.32.59.56.14.24.2.52.2.84s-.07.6-.21.84c-.14.23-.34.42-.6.55-.26.13-.59.19-.97.19h-1.34v-.75h1.22c.22,0,.41-.03.55-.09.14-.06.25-.16.32-.28.07-.12.11-.27.11-.45s-.04-.33-.11-.45c-.07-.13-.18-.22-.32-.29-.14-.07-.33-.1-.56-.1h-.83v4.25h-.91ZM168.4,362.74l1.24,2.27h-1.01l-1.22-2.27h.99ZM171.37,365.01v-5.01h3.26v.76h-2.35v1.36h2.18v.76h-2.18v1.37h2.37v.76h-3.28ZM181.11,362.51c0,.54-.1,1-.3,1.39-.2.38-.47.68-.82.88-.35.2-.74.31-1.18.31s-.83-.1-1.18-.31c-.35-.21-.62-.5-.82-.88-.2-.38-.3-.85-.3-1.38s.1-1,.3-1.38c.2-.38.48-.68.82-.88.35-.2.74-.31,1.18-.31s.83.1,1.18.31c.35.2.62.5.82.88.2.38.3.84.3,1.38ZM180.2,362.51c0-.38-.06-.7-.18-.96-.12-.26-.28-.46-.49-.59-.21-.14-.45-.2-.72-.2s-.51.07-.72.2c-.21.13-.37.33-.49.59-.12.26-.18.58-.18.96s.06.7.18.96c.12.26.28.46.49.59.21.13.45.2.72.2s.51-.07.72-.2c.21-.14.37-.33.49-.59.12-.26.18-.58.18-.96ZM183.74,364.33l-.03.27c-.02.21-.06.41-.12.63-.06.21-.12.41-.18.59-.06.18-.11.32-.15.42h-.6c.02-.1.05-.23.09-.41.04-.17.08-.36.12-.58.04-.21.06-.43.08-.65l.02-.27h.78ZM188.49,365.01v-5.01h.91v4.25h2.21v.76h-3.11ZM194.31,365.01h-.97l1.76-5.01h1.12l1.77,5.01h-.97l-1.34-3.98h-.04l-1.33,3.98ZM194.34,363.05h2.64v.73h-2.64v-.73ZM205.24,361.38c-.02-.21-.12-.38-.29-.5-.17-.12-.39-.18-.66-.18-.19,0-.35.03-.49.09-.14.06-.24.13-.31.23-.07.1-.11.21-.11.34,0,.1.02.19.07.27.05.08.11.14.2.2.08.05.18.1.28.13.1.04.2.07.31.09l.47.12c.19.04.37.1.55.18.18.08.33.17.47.28.14.11.25.25.33.41.08.16.12.35.12.57,0,.29-.08.55-.22.78-.15.22-.37.4-.65.52-.28.12-.62.19-1.02.19s-.73-.06-1.01-.18c-.29-.12-.51-.3-.67-.53-.16-.23-.25-.51-.26-.85h.89c.01.17.07.32.16.44.09.12.22.2.37.26.15.06.32.09.51.09s.37-.03.52-.09c.15-.06.27-.14.35-.25.08-.11.13-.23.13-.38,0-.13-.04-.24-.11-.32-.08-.09-.18-.16-.32-.22-.13-.06-.29-.11-.47-.16l-.57-.15c-.41-.11-.74-.27-.98-.48-.24-.22-.36-.5-.36-.86,0-.3.08-.55.24-.78.16-.22.38-.39.66-.52.28-.12.59-.19.94-.19s.67.06.93.19c.27.12.48.29.63.51.15.22.23.47.24.75h-.87ZM208.64,365.01h-.97l1.76-5.01h1.12l1.77,5.01h-.97l-1.34-3.98h-.04l-1.34,3.98ZM208.67,363.05h2.64v.73h-2.64v-.73ZM214.06,365.01v-5.01h.91v4.25h2.21v.76h-3.11ZM221.77,361.38c-.02-.21-.12-.38-.29-.5-.17-.12-.39-.18-.66-.18-.19,0-.35.03-.49.09-.14.06-.24.13-.31.23-.07.1-.11.21-.11.34,0,.1.02.19.07.27.05.08.11.14.2.2.08.05.18.1.28.13.1.04.2.07.31.09l.47.12c.19.04.37.1.55.18.18.08.33.17.47.28.14.11.25.25.33.41.08.16.12.35.12.57,0,.29-.08.55-.22.78-.15.22-.37.4-.65.52-.28.12-.62.19-1.02.19s-.73-.06-1.01-.18c-.29-.12-.51-.3-.67-.53-.16-.23-.25-.51-.26-.85h.89c.01.17.07.32.16.44.09.12.22.2.37.26.15.06.32.09.51.09s.37-.03.52-.09c.15-.06.27-.14.35-.25.08-.11.13-.23.13-.38,0-.13-.04-.24-.11-.32-.08-.09-.18-.16-.32-.22-.13-.06-.29-.11-.47-.16l-.57-.15c-.41-.11-.74-.27-.98-.48-.24-.22-.36-.5-.36-.86,0-.3.08-.55.24-.78.16-.22.38-.39.66-.52.28-.12.59-.19.94-.19s.67.06.93.19c.27.12.48.29.63.51.15.22.23.47.24.75h-.87ZM225.16,365.01h-.97l1.76-5.01h1.12l1.77,5.01h-.97l-1.34-3.98h-.04l-1.34,3.98ZM225.19,363.05h2.64v.73h-2.64v-.73ZM231.59,364.33l-.03.27c-.02.21-.06.41-.12.63-.06.21-.12.41-.18.59-.06.18-.11.32-.15.42h-.6c.02-.1.05-.23.09-.41.04-.17.08-.36.12-.58.04-.21.06-.43.08-.65l.02-.27h.78ZM236.34,365.01v-5.01h.91v4.25h2.21v.76h-3.11ZM242.15,365.01h-.97l1.76-5.01h1.12l1.77,5.01h-.97l-1.34-3.98h-.04l-1.34,3.98ZM242.18,363.05h2.64v.73h-2.64v-.73ZM250.37,365.01v-5.01h1.92c.36,0,.66.06.9.17.24.11.42.27.54.46.12.2.18.42.18.67,0,.2-.04.38-.12.52-.08.14-.18.26-.31.35-.13.09-.28.15-.44.19v.05c.18,0,.35.06.51.16.16.1.3.24.4.42.11.18.16.4.16.65s-.06.49-.19.7c-.13.21-.31.37-.57.49-.25.12-.57.18-.95.18h-2.03ZM251.27,364.25h.98c.33,0,.57-.06.71-.19.15-.13.22-.29.22-.49,0-.15-.04-.28-.11-.4-.07-.12-.18-.22-.31-.28-.14-.07-.3-.11-.48-.11h-1v1.47ZM251.27,362.13h.9c.16,0,.3-.03.42-.09.13-.06.22-.14.3-.25.07-.11.11-.23.11-.38,0-.19-.07-.35-.2-.48-.14-.13-.34-.19-.6-.19h-.92v1.38ZM260.45,362.51c0,.54-.1,1-.3,1.39-.2.38-.48.68-.82.88s-.74.31-1.18.31-.83-.1-1.18-.31c-.34-.21-.62-.5-.82-.88-.2-.38-.3-.85-.3-1.38s.1-1,.3-1.38c.2-.38.48-.68.82-.88.35-.2.74-.31,1.18-.31s.83.1,1.18.31c.35.2.62.5.82.88.2.38.3.84.3,1.38ZM259.54,362.51c0-.38-.06-.7-.18-.96-.12-.26-.28-.46-.49-.59-.21-.14-.45-.2-.72-.2s-.51.07-.72.2c-.21.13-.37.33-.49.59-.12.26-.18.58-.18.96s.06.7.18.96c.12.26.28.46.49.59.21.13.45.2.72.2s.51-.07.72-.2c.21-.14.37-.33.49-.59.12-.26.18-.58.18-.96ZM262.39,360h1.11l1.49,3.63h.06l1.49-3.63h1.11v5.01h-.87v-3.44h-.05l-1.38,3.43h-.65l-1.38-3.43h-.05v3.45h-.87v-5.01ZM269.71,365.01v-5.01h1.92c.36,0,.66.06.9.17.24.11.42.27.54.46.12.2.18.42.18.67,0,.2-.04.38-.12.52-.08.14-.18.26-.31.35-.13.09-.28.15-.44.19v.05c.18,0,.35.06.51.16.17.1.3.24.4.42.11.18.16.4.16.65s-.06.49-.19.7c-.12.21-.31.37-.57.49-.25.12-.57.18-.95.18h-2.03ZM270.62,364.25h.98c.33,0,.57-.06.71-.19.15-.13.22-.29.22-.49,0-.15-.04-.28-.11-.4-.07-.12-.18-.22-.31-.28-.14-.07-.3-.11-.48-.11h-1v1.47ZM270.62,362.13h.9c.16,0,.3-.03.42-.09.13-.06.22-.14.3-.25.07-.11.11-.23.11-.38,0-.19-.07-.35-.21-.48-.14-.13-.34-.19-.6-.19h-.92v1.38ZM275.97,365.01h-.97l1.77-5.01h1.12l1.77,5.01h-.97l-1.34-3.98h-.04l-1.34,3.98ZM276,363.05h2.64v.73h-2.64v-.73ZM283.84,360h1.02l1.23,2.22h.05l1.23-2.22h1.03l-1.82,3.14v1.87h-.9v-1.87l-1.82-3.14ZM292.91,365.01v-5.01h.91v4.25h2.21v.76h-3.11ZM298.72,365.01h-.97l1.76-5.01h1.12l1.77,5.01h-.97l-1.34-3.98h-.04l-1.34,3.98ZM298.75,363.05h2.64v.73h-2.64v-.73ZM306.94,365.01v-5.01h1.88c.39,0,.71.07.97.22s.46.34.59.59c.14.25.2.53.2.85s-.07.61-.2.86c-.14.25-.34.45-.6.59-.26.14-.59.21-.98.21h-1.24v-.75h1.12c.22,0,.41-.04.55-.12.14-.08.25-.19.32-.32.07-.14.11-.29.11-.47s-.04-.33-.11-.47c-.07-.14-.18-.24-.32-.32-.14-.08-.33-.11-.56-.11h-.83v4.25h-.91ZM312.45,365.01v-5.01h.91v4.25h2.21v.76h-3.11ZM317.43,365.01v-5.01h3.26v.76h-2.35v1.36h2.18v.76h-2.18v1.37h2.37v.76h-3.28ZM326.82,360v5.01h-.81l-2.36-3.41h-.04v3.41h-.91v-5.01h.81l2.36,3.41h.04v-3.41h.9ZM329.53,365.01h-.97l1.76-5.01h1.12l1.77,5.01h-.97l-1.34-3.98h-.04l-1.34,3.98ZM329.56,363.05h2.64v.73h-2.64v-.73Z"/>
  <path class="cls-1" d="M61.79,236.76v-.77c.04-.36.1-.69.18-1.01.08-.32.2-.59.36-.83.2-.24.43-.36.71-.36.47,0,.71.22.71.65-.04.63-.12,1.2-.24,1.72-.12.51-.16,1.14-.12,1.9-.04.2-.12.32-.24.36h-.36c-.43,0-.71-.2-.83-.59-.12-.39-.18-.75-.18-1.07ZM84.69,230.66c.28-.04.73-.1,1.36-.18.63-.12,1.3-.24,2.01-.36.71-.12,1.38-.22,2.01-.3.63-.12,1.07-.2,1.3-.24l.12-.12c.47-.47.91-1.01,1.3-1.6.39-.59.79-1.18,1.18-1.78.43-.63.87-1.22,1.3-1.78.43-.59.91-1.11,1.42-1.54.32,0,.55.04.71.12.2.08.3.3.3.65,0,.16-.06.32-.18.47-.08.16-.16.3-.24.41-.12.16-.36.45-.71.89-.36.43-.73.89-1.13,1.36-.36.47-.69.93-1.01,1.36-.32.43-.51.75-.59.95l-.12.3h.36c1.54,0,3.08-.04,4.62-.12,1.54-.12,3.08-.18,4.62-.18h4.62c.36.04.81.1,1.36.18.59.04,1.14.14,1.66.3.55.16,1.03.39,1.42.71.39.28.59.69.59,1.24,0,.36-.08.67-.24.95-.16.24-.43.36-.83.36-.28,0-.45-.04-.53-.12-.08-.12-.12-.26-.12-.41v-.41c0-.16-.08-.3-.24-.41-.55-.36-1.18-.59-1.9-.71-.67-.12-1.38-.18-2.13-.18-.63,0-1.24.02-1.84.06-.55.04-1.07.06-1.54.06-.63,0-1.2.02-1.72.06h-1.48c-.47,0-.97.02-1.48.06-.47,0-1.03.02-1.66.06-.36.04-.81.08-1.36.12-.51.04-1.03.1-1.54.18-.51.04-.95.08-1.3.12-.36.04-.53.06-.53.06l-.59.59c-.08.08-.38.49-.89,1.24-.47.75-1.05,1.64-1.72,2.66-.63.99-1.28,1.99-1.95,3.02-.63,1.03-1.14,1.88-1.54,2.55-2.09,3.55-4.17,7.13-6.22,10.72-2.05,3.59-3.73,7.36-5.03,11.31-.08.28-.22.69-.41,1.24-.2.51-.3.97-.3,1.36,0,.16.02.3.06.41.04.08.06.18.06.3,0,.55-.26.83-.77.83-.39,0-.69-.14-.89-.41-.16-.28-.24-.57-.24-.89,0-.43.06-.93.18-1.48.16-.55.34-1.11.53-1.66.2-.55.39-1.07.59-1.54.24-.51.43-.93.59-1.24,2.37-5.01,4.86-9.89,7.46-14.63,2.61-4.78,5.45-9.44,8.53-13.98v-.12c-2.72,0-5.53.41-8.41,1.24-2.88.79-5.61,1.7-8.17,2.72-.36.16-.71.38-1.07.65-.32.24-.61.47-.89.71-.24.24-.45.45-.65.65-.2.16-.34.24-.41.24-.87,0-1.3-.39-1.3-1.18,0-.39.3-.79.89-1.18.63-.43,1.42-.85,2.37-1.24.99-.39,2.07-.79,3.26-1.18,1.22-.39,2.41-.75,3.55-1.07,1.14-.32,2.21-.57,3.2-.77.99-.24,1.76-.39,2.31-.47ZM90.95,252.51c.91,0,1.56.26,1.95.77.39.47.63,1.11.71,1.9.08.55.04,1.11-.12,1.66-.16.51-.2,1.05-.12,1.6h.12c.12-.12.32-.34.59-.65.32-.32.67-.65,1.07-1.01s.79-.67,1.18-.95c.39-.28.77-.41,1.13-.41.32,0,.55.14.71.41.2.28.32.57.36.89.04.47-.14,1.01-.53,1.6-.39.59-.83,1.24-1.3,1.95-.43.71-.85,1.48-1.24,2.31-.36.83-.47,1.74-.36,2.72.08.55.28.95.59,1.18s.71.36,1.18.36c1.62,0,3.02-.32,4.2-.95,1.22-.63,2.25-1.34,3.08-2.13.83-.83,1.44-1.6,1.84-2.31.43-.75.67-1.2.71-1.36.08-.36.28-.53.59-.53.2,0,.36.08.47.24.16.16.22.43.18.83-.04.51-.36,1.2-.95,2.07-.55.83-1.32,1.66-2.31,2.49-.99.83-2.15,1.56-3.49,2.19-1.34.59-2.78.89-4.32.89-.91,0-1.68-.24-2.31-.71-.63-.51-1.01-1.22-1.13-2.13-.04-.63,0-1.2.12-1.72.16-.55.34-1.07.53-1.54.24-.51.49-1.01.77-1.48.28-.51.49-1.05.65-1.6h-.18c-.16.08-.49.38-1.01.89-.47.47-1.05,1.07-1.72,1.78-.67.71-1.4,1.46-2.19,2.25-.79.75-1.6,1.46-2.43,2.13-.79.67-1.56,1.22-2.31,1.66-.75.43-1.4.65-1.95.65-.75,0-1.28-.26-1.6-.77-.32-.55-.51-1.14-.59-1.78-.12-1.22.06-2.61.53-4.15.47-1.58,1.14-3.04,2.01-4.38.87-1.38,1.9-2.53,3.08-3.43,1.22-.95,2.49-1.42,3.79-1.42ZM83.13,265.89c.04.2.08.38.12.53.04.16.18.24.41.24s.51-.08.83-.24c.36-.16.67-.34.95-.53.32-.24.59-.45.83-.65.28-.24.47-.41.59-.53.83-.75,1.58-1.44,2.25-2.07.71-.67,1.3-1.36,1.78-2.07.47-.75.81-1.54,1.01-2.37.2-.87.24-1.88.12-3.02,0-.08-.02-.18-.06-.3v-.3c-.08-.2-.18-.3-.3-.3-.12-.04-.28-.06-.47-.06-1.07,0-2.11.43-3.14,1.3-.99.83-1.88,1.86-2.66,3.08-.75,1.22-1.34,2.51-1.78,3.85-.39,1.34-.55,2.49-.47,3.43ZM103.67,265.95c.12-.32.32-.77.59-1.36.24-.59.49-1.18.77-1.78.24-.59.45-1.13.65-1.6.2-.47.32-.77.36-.89s.22-.51.53-1.18c.36-.67.73-1.42,1.13-2.25.43-.87.87-1.72,1.3-2.55.43-.87.77-1.54,1.01-2.01.2-.36.41-.73.65-1.13.24-.43.61-.65,1.13-.65s.77.3.77.89c0,.24-.04.43-.12.59-.08.12-.18.22-.3.3-.12.08-.24.16-.36.24-.12.08-.22.2-.3.36-.36.75-.79,1.6-1.3,2.55s-1.03,1.91-1.54,2.9c-.51.95-.99,1.88-1.42,2.78-.39.91-.69,1.72-.89,2.43.32-.36.75-.73,1.3-1.13.59-.39,1.2-.75,1.84-1.07.67-.36,1.32-.63,1.95-.83.67-.24,1.26-.36,1.78-.36.55,0,.93.18,1.13.53.24.32.39.71.47,1.18.12.43.18.89.18,1.36.04.43.14.81.3,1.13l.3-.18c.36-.24.79-.59,1.3-1.07.55-.47,1.13-.97,1.72-1.48.63-.51,1.26-.95,1.9-1.3.67-.39,1.3-.59,1.9-.59.71,0,1.2.26,1.48.77.28.51.49,1.09.65,1.72.2.59.41,1.14.65,1.66.28.51.73.77,1.36.77.87,0,1.7-.14,2.49-.41.79-.28,1.56-.65,2.31-1.13.75-.47,1.46-1.01,2.13-1.6.67-.59,1.3-1.18,1.9-1.78.08-.08.22-.12.41-.12s.38.08.53.24c.2.12.24.34.12.65-.32.91-.91,1.72-1.78,2.43s-1.82,1.32-2.84,1.84c-.99.47-1.97.85-2.96,1.13-.99.24-1.76.36-2.31.36-.83,0-1.48-.24-1.95-.71-.43-.51-.79-1.07-1.07-1.66-.28-.59-.51-1.13-.71-1.6-.16-.51-.34-.77-.53-.77-.71,0-1.36.26-1.95.77-.59.47-1.16,1.03-1.72,1.66-.55.59-1.13,1.14-1.72,1.66-.59.47-1.26.71-2.01.71-.55,0-.93-.22-1.13-.65-.16-.47-.26-.97-.3-1.48-.04-.55-.08-1.05-.12-1.48,0-.47-.12-.71-.36-.71-1.07,0-2.09.34-3.08,1.01-.95.63-1.84,1.34-2.66,2.13-.79.79-1.46,1.52-2.01,2.19-.55.63-.93.95-1.13.95-.2.04-.39-.04-.59-.24-.2-.2-.3-.41-.3-.65,0-.04.02-.14.06-.3.04-.16.1-.32.18-.47.04-.2.1-.36.18-.47.04-.16.06-.24.06-.24ZM134.1,268.5c-.79,0-1.4-.26-1.84-.77-.47-.51-.69-1.14-.65-1.9,0-.51.2-1.18.59-2.01.36-.83.85-1.72,1.48-2.66.59-.95,1.26-1.91,2.01-2.9.79-.99,1.58-1.88,2.37-2.66.79-.79,1.54-1.42,2.25-1.9.75-.51,1.38-.77,1.9-.77.67,0,1.16.22,1.48.65.36.39.51.93.47,1.6-.08,1.26-.41,2.72-1.01,4.38-.55,1.62-1.34,3.14-2.37,4.56.28.08.55.14.83.18.28.04.57.06.89.06,2.01,0,3.69-.47,5.03-1.42,1.34-.95,2.35-1.99,3.02-3.14.16-.28.38-.41.65-.41.24,0,.41.1.53.3.16.2.18.39.06.59-1.14,1.74-2.51,3.06-4.09,3.97-1.54.91-3.2,1.36-4.97,1.36-.47,0-.95-.02-1.42-.06-.47-.04-.95-.14-1.42-.3-.83.99-1.74,1.78-2.72,2.37-.99.59-2.01.89-3.08.89ZM139.43,263.46c.95-1.26,1.68-2.65,2.19-4.15.55-1.5.83-2.8.83-3.91,0-.08-.02-.2-.06-.36v-.36l-.06-.06s-.08-.06-.12-.06c-.24,0-.55.12-.95.36-.36.2-.71.45-1.07.77-.32.32-.59.65-.83,1.01-.24.32-.36.59-.36.83,0,.2.02.39.06.59.04.16.08.36.12.59.08.63-.2.95-.83.95-.16,0-.3-.02-.41-.06-.08.2-.12.41-.12.65-.08.67.02,1.28.3,1.84.32.55.75,1.01,1.3,1.36ZM133.33,265.66c0,.2.02.39.06.59,0,.2.1.36.3.47,1.03,0,1.9-.16,2.61-.47.71-.32,1.42-.85,2.13-1.6-.71-.43-1.28-.99-1.72-1.66-.43-.67-.65-1.46-.65-2.37v-.12c-.67.55-1.3,1.34-1.9,2.37-.55.99-.83,1.91-.83,2.78ZM149.26,273c0-1.03.22-2.05.65-3.08.47-.99,1.01-1.91,1.6-2.78-.59-1.11-1.09-2.13-1.48-3.08-.39-.95-.59-2.01-.59-3.2,0-.95.22-1.99.65-3.14.47-1.14,1.09-2.21,1.84-3.2.75-.99,1.62-1.82,2.61-2.49,1.03-.67,2.07-1.01,3.14-1.01.55,0,.99.16,1.3.47.36.32.53.75.53,1.3,0,.51-.26.77-.77.77-.32,0-.51-.18-.59-.53-.08-.36-.24-.53-.47-.53-.83,0-1.64.3-2.43.89-.79.59-1.5,1.32-2.13,2.19-.59.87-1.09,1.8-1.48,2.78s-.59,1.86-.59,2.61c0,.32.04.71.12,1.18.12.47.26.97.41,1.48.2.47.41.93.65,1.36.24.39.49.69.77.89.59-.55,1.38-1.16,2.37-1.84.99-.67,2.03-1.3,3.14-1.9,1.11-.59,2.19-1.09,3.26-1.48,1.07-.43,1.95-.67,2.66-.71.36,0,.57.12.65.36.08.2.02.34-.18.41-1.66.83-3.1,1.56-4.32,2.19-1.18.59-2.21,1.14-3.08,1.66-.87.47-1.62.93-2.25,1.36-.59.43-1.11.89-1.54,1.36.24.59.41,1.13.53,1.6.16.47.28.95.36,1.42.08.47.12.95.12,1.42.04.51.06,1.11.06,1.78-.2.67-.51,1.32-.95,1.95-.43.67-1.05,1.01-1.84,1.01-.91,0-1.6-.38-2.07-1.13-.43-.75-.65-1.54-.65-2.37ZM151.93,274.72c.28,0,.49-.1.65-.3.16-.2.28-.43.36-.71.12-.28.18-.57.18-.89.04-.28.06-.51.06-.71,0-.99-.24-1.99-.71-3.02-.24,0-.45.16-.65.47-.16.36-.3.75-.41,1.18-.12.43-.22.85-.3,1.24-.04.43-.06.73-.06.89,0,.32.04.69.12,1.13.08.47.34.71.77.71ZM164.31,294.56l11.37-29.61,6.69-13.92c.08-.2.14-.32.18-.36.08-.08.22-.12.41-.12.47,0,.73.26.77.77.04.39,0,.79-.12,1.18-.08.39-.26.73-.53,1.01-.12.2-.38.67-.77,1.42-.36.75-.75,1.56-1.18,2.43-.39.87-.75,1.68-1.07,2.43-.32.71-.47,1.14-.47,1.3.59-.63,1.24-1.32,1.95-2.07.75-.79,1.54-1.52,2.37-2.19.83-.71,1.72-1.28,2.66-1.72.95-.47,1.91-.71,2.9-.71.83,0,1.5.24,2.01.71s.81,1.11.89,1.9c.04.51.02.97-.06,1.36-.04.39-.14.85-.3,1.36.04.04.12.06.24.06,1.03-.32,2.17-.49,3.43-.53,1.26-.08,2.43-.12,3.49-.12.32,0,.67.02,1.07.06.43,0,.85.04,1.24.12.43.08.79.2,1.07.36.32.16.49.38.53.65.08.51-.16.77-.71.77-.47,0-1.07-.04-1.78-.12-.71-.12-1.32-.18-1.84-.18-.43,0-1.03.02-1.78.06-.71.04-1.46.1-2.25.18-.75.08-1.48.22-2.19.41-.67.16-1.16.38-1.48.65-.79.67-1.56,1.58-2.31,2.72-.71,1.14-1.48,2.27-2.31,3.38-.83,1.11-1.74,2.05-2.72,2.84-.99.79-2.15,1.18-3.49,1.18-.47,0-.87-.16-1.18-.47-.32-.32-.49-.69-.53-1.13-.12-1.14.12-2.11.71-2.9.63-.83,1.42-1.56,2.37-2.19.99-.67,2.05-1.28,3.2-1.84,1.18-.59,2.23-1.2,3.14-1.84.95-.63,1.7-1.32,2.25-2.07.55-.79.73-1.74.53-2.84-.04-.16-.08-.3-.12-.41-.04-.16-.14-.28-.3-.36h-.65c-.67,0-1.5.3-2.49.89-.95.55-1.95,1.28-3.02,2.19-1.03.87-2.07,1.86-3.14,2.96-1.03,1.11-1.95,2.19-2.78,3.26-.79,1.07-1.42,2.03-1.9,2.9-.47.91-.69,1.6-.65,2.07,0,.12.04.22.12.3.08.08.12.2.12.36,0,.24-.06.41-.18.53-.16.12-.32.22-.47.3-.2.12-.38.24-.53.36-.2.12-.34.3-.41.53l-8.35,22.33c-.08.24-.18.38-.3.41-.12.04-.28.06-.47.06-.24,0-.43-.06-.59-.18-.2-.12-.3-.32-.3-.59-.04-.04-.06-.1-.06-.18s.02-.12.06-.12ZM180.24,270.45c.43,0,1.05-.3,1.84-.89.83-.55,1.64-1.18,2.43-1.9.83-.75,1.54-1.5,2.13-2.25.63-.75.97-1.3,1.01-1.66-.24,0-.59.14-1.07.41-.47.24-.99.57-1.54,1.01-.55.39-1.13.85-1.72,1.36-.59.51-1.13,1.03-1.6,1.54-.43.47-.81.93-1.13,1.36-.28.43-.39.77-.36,1.01ZM209.09,252.51c.91,0,1.56.26,1.95.77.39.47.63,1.11.71,1.9.08.55.04,1.11-.12,1.66-.16.51-.2,1.05-.12,1.6h.12c.12-.12.32-.34.59-.65.32-.32.67-.65,1.07-1.01.39-.36.79-.67,1.18-.95.39-.28.77-.41,1.13-.41.32,0,.55.14.71.41.2.28.32.57.36.89.04.47-.14,1.01-.53,1.6-.39.59-.83,1.24-1.3,1.95-.43.71-.85,1.48-1.24,2.31-.36.83-.47,1.74-.36,2.72.08.55.28.95.59,1.18.32.24.71.36,1.18.36,1.62,0,3.02-.32,4.2-.95,1.22-.63,2.25-1.34,3.08-2.13.83-.83,1.44-1.6,1.84-2.31.43-.75.67-1.2.71-1.36.08-.36.28-.53.59-.53.2,0,.36.08.47.24.16.16.22.43.18.83-.04.51-.36,1.2-.95,2.07-.55.83-1.32,1.66-2.31,2.49-.99.83-2.15,1.56-3.49,2.19-1.34.59-2.78.89-4.32.89-.91,0-1.68-.24-2.31-.71-.63-.51-1.01-1.22-1.13-2.13-.04-.63,0-1.2.12-1.72.16-.55.34-1.07.53-1.54.24-.51.49-1.01.77-1.48.28-.51.49-1.05.65-1.6h-.18c-.16.08-.49.38-1.01.89-.47.47-1.05,1.07-1.72,1.78-.67.71-1.4,1.46-2.19,2.25-.79.75-1.6,1.46-2.43,2.13-.79.67-1.56,1.22-2.31,1.66-.75.43-1.4.65-1.95.65-.75,0-1.28-.26-1.6-.77-.32-.55-.51-1.14-.59-1.78-.12-1.22.06-2.61.53-4.15.47-1.58,1.14-3.04,2.01-4.38.87-1.38,1.9-2.53,3.08-3.43,1.22-.95,2.49-1.42,3.79-1.42ZM201.27,265.89c.04.2.08.38.12.53.04.16.18.24.41.24s.51-.08.83-.24c.36-.16.67-.34.95-.53.32-.24.59-.45.83-.65.28-.24.47-.41.59-.53.83-.75,1.58-1.44,2.25-2.07.71-.67,1.3-1.36,1.78-2.07.47-.75.81-1.54,1.01-2.37.2-.87.24-1.88.12-3.02,0-.08-.02-.18-.06-.3v-.3c-.08-.2-.18-.3-.3-.3-.12-.04-.28-.06-.47-.06-1.07,0-2.11.43-3.14,1.3-.99.83-1.88,1.86-2.66,3.08-.75,1.22-1.34,2.51-1.78,3.85-.39,1.34-.55,2.49-.47,3.43ZM226.3,236.76v-.77c.04-.36.1-.69.18-1.01.08-.32.2-.59.36-.83.2-.24.43-.36.71-.36.47,0,.71.22.71.65-.04.63-.12,1.2-.24,1.72s-.16,1.14-.12,1.9c-.04.2-.12.32-.24.36h-.36c-.43,0-.71-.2-.83-.59-.12-.39-.18-.75-.18-1.07ZM249.34,253.69c.16-.12.42-.53.77-1.24.36-.71.73-1.52,1.12-2.43.39-.91.79-1.8,1.18-2.66.39-.87.69-1.48.89-1.84.43-.75,1.08-1.78,1.95-3.08.87-1.34,1.86-2.76,2.96-4.26,1.14-1.54,2.39-3.1,3.73-4.68,1.34-1.62,2.66-3.06,3.97-4.32,1.34-1.3,2.63-2.35,3.85-3.14,1.22-.83,2.33-1.24,3.32-1.24.47,0,.83.16,1.07.47.24.28.36.63.36,1.07,0,.95-.3,2.07-.89,3.38-.55,1.3-1.3,2.68-2.25,4.15-.91,1.42-1.93,2.86-3.08,4.32-1.11,1.46-2.23,2.86-3.37,4.2-1.14,1.3-2.23,2.49-3.26,3.55s-1.87,1.91-2.55,2.55c-1.5,1.42-2.88,2.53-4.15,3.32-1.22.79-2.29,1.64-3.2,2.55-.87.87-1.54,1.93-2.01,3.2-.47,1.26-.71,3.08-.71,5.45,0,1.07.26,2.01.77,2.84.51.79,1.38,1.18,2.61,1.18,1.07,0,2.05-.22,2.96-.65.91-.43,1.74-.99,2.49-1.66.79-.71,1.5-1.46,2.13-2.25.67-.83,1.3-1.6,1.9-2.31.43-.59.83-.89,1.18-.89.24,0,.39.16.47.47s.06.59-.06.83c-.51,1.07-1.17,2.09-1.96,3.08-.75.95-1.6,1.8-2.55,2.55s-1.97,1.36-3.08,1.84c-1.11.43-2.29.65-3.55.65-1.7,0-2.98-.55-3.85-1.66-.83-1.11-1.24-2.47-1.24-4.09-.04-1.26.12-2.49.47-3.67.39-1.18.73-2.41,1.01-3.67-.08,0-.16.02-.24.06h-.18c-.36,0-.67-.08-.95-.24-.32-.16-.47-.45-.47-.89,0-.36.16-.59.47-.71.32-.12.65-.18,1.01-.18.2,0,.38.02.53.06h.41ZM252.13,252.03s.08-.04.24-.12c.16-.12.32-.24.47-.36.2-.16.39-.3.59-.41.2-.16.36-.3.47-.41,3.43-3,6.63-6.18,9.59-9.53,3-3.4,5.59-7.09,7.76-11.07.28-.47.53-.93.77-1.36.2-.36.36-.71.47-1.07.16-.39.24-.69.24-.89v-.24c-1.22.47-2.55,1.28-3.97,2.43-1.38,1.11-2.76,2.41-4.15,3.91-1.38,1.5-2.74,3.12-4.08,4.86-1.3,1.74-2.53,3.47-3.67,5.21-1.11,1.74-2.09,3.4-2.96,4.97-.83,1.58-1.46,2.94-1.9,4.09h.12ZM269.7,252.51c.91,0,1.56.26,1.95.77.39.47.63,1.11.71,1.9.08.55.04,1.11-.12,1.66-.16.51-.2,1.05-.12,1.6h.12c.12-.12.32-.34.59-.65.32-.32.67-.65,1.07-1.01.39-.36.79-.67,1.18-.95.39-.28.77-.41,1.13-.41.32,0,.55.14.71.41.2.28.32.57.36.89.04.47-.14,1.01-.53,1.6-.39.59-.83,1.24-1.3,1.95-.43.71-.85,1.48-1.24,2.31-.36.83-.47,1.74-.36,2.72.08.55.28.95.59,1.18s.71.36,1.18.36c1.62,0,3.02-.32,4.2-.95,1.22-.63,2.25-1.34,3.08-2.13.83-.83,1.44-1.6,1.84-2.31.43-.75.67-1.2.71-1.36.08-.36.28-.53.59-.53.2,0,.36.08.47.24.16.16.22.43.18.83-.04.51-.36,1.2-.95,2.07-.55.83-1.32,1.66-2.31,2.49-.99.83-2.15,1.56-3.5,2.19-1.34.59-2.78.89-4.32.89-.91,0-1.68-.24-2.31-.71-.63-.51-1.01-1.22-1.12-2.13-.04-.63,0-1.2.12-1.72.16-.55.33-1.07.53-1.54.24-.51.5-1.01.77-1.48.28-.51.49-1.05.65-1.6h-.18c-.16.08-.49.38-1.01.89-.47.47-1.04,1.07-1.72,1.78-.67.71-1.4,1.46-2.19,2.25-.79.75-1.6,1.46-2.43,2.13-.79.67-1.56,1.22-2.31,1.66-.75.43-1.4.65-1.95.65-.75,0-1.28-.26-1.6-.77-.32-.55-.51-1.14-.59-1.78-.12-1.22.06-2.61.53-4.15.47-1.58,1.14-3.04,2.01-4.38.87-1.38,1.9-2.53,3.08-3.43,1.22-.95,2.49-1.42,3.79-1.42ZM261.89,265.89c.04.2.08.38.12.53.04.16.18.24.41.24s.51-.08.83-.24c.36-.16.67-.34.95-.53.32-.24.59-.45.83-.65.28-.24.47-.41.59-.53.83-.75,1.58-1.44,2.25-2.07.71-.67,1.3-1.36,1.78-2.07.47-.75.81-1.54,1.01-2.37.2-.87.24-1.88.12-3.02,0-.08-.02-.18-.06-.3v-.3c-.08-.2-.18-.3-.29-.3-.12-.04-.28-.06-.47-.06-1.07,0-2.11.43-3.14,1.3-.99.83-1.87,1.86-2.66,3.08-.75,1.22-1.34,2.51-1.78,3.85-.39,1.34-.55,2.49-.47,3.43ZM284.55,273c0-1.03.22-2.05.65-3.08.47-.99,1.01-1.91,1.6-2.78-.59-1.11-1.09-2.13-1.48-3.08-.39-.95-.59-2.01-.59-3.2,0-.95.22-1.99.65-3.14.47-1.14,1.08-2.21,1.83-3.2.75-.99,1.62-1.82,2.61-2.49,1.03-.67,2.07-1.01,3.14-1.01.55,0,.99.16,1.3.47.36.32.53.75.53,1.3,0,.51-.26.77-.77.77-.32,0-.51-.18-.59-.53-.08-.36-.24-.53-.47-.53-.83,0-1.64.3-2.43.89-.79.59-1.5,1.32-2.13,2.19-.59.87-1.08,1.8-1.48,2.78-.39.99-.59,1.86-.59,2.61,0,.32.04.71.12,1.18.12.47.26.97.41,1.48.2.47.42.93.65,1.36.24.39.49.69.77.89.59-.55,1.38-1.16,2.37-1.84.99-.67,2.03-1.3,3.14-1.9,1.11-.59,2.19-1.09,3.26-1.48,1.07-.43,1.96-.67,2.67-.71.36,0,.57.12.65.36.08.2.02.34-.18.41-1.66.83-3.1,1.56-4.32,2.19-1.18.59-2.21,1.14-3.08,1.66-.87.47-1.62.93-2.25,1.36-.59.43-1.11.89-1.54,1.36.24.59.42,1.13.53,1.6.16.47.28.95.36,1.42.08.47.12.95.12,1.42.04.51.06,1.11.06,1.78-.2.67-.51,1.32-.95,1.95-.43.67-1.04,1.01-1.83,1.01-.91,0-1.6-.38-2.07-1.13-.43-.75-.65-1.54-.65-2.37ZM287.21,274.72c.28,0,.5-.1.65-.3.16-.2.28-.43.36-.71.12-.28.18-.57.18-.89.04-.28.06-.51.06-.71,0-.99-.24-1.99-.71-3.02-.24,0-.46.16-.65.47-.16.36-.29.75-.41,1.18-.12.43-.22.85-.3,1.24-.04.43-.06.73-.06.89,0,.32.04.69.12,1.13.08.47.33.71.77.71ZM326.27,265.95c0-.79.18-1.72.53-2.78.32-1.11.75-2.25,1.3-3.43.59-1.18,1.26-2.37,2.01-3.55.75-1.18,1.54-2.23,2.37-3.14.87-.95,1.74-1.7,2.61-2.25.91-.59,1.78-.89,2.61-.89.59,0,1.07.18,1.42.53.36.36.53.83.53,1.42,0,.2-.06.53-.18,1.01-.12.47-.28.97-.47,1.48-.2.47-.41.91-.65,1.3-.24.36-.5.53-.77.53-.43,0-.65-.26-.65-.77,0-.63.18-1.18.53-1.66.36-.51.53-1.07.53-1.66v-.36c0-.12-.1-.18-.3-.18-.59,0-1.26.28-2.01.83-.71.51-1.42,1.2-2.13,2.07-.71.83-1.4,1.78-2.07,2.84-.67,1.07-1.26,2.15-1.78,3.26-.47,1.07-.87,2.09-1.18,3.08-.32.95-.47,1.74-.47,2.37,0,.95.24,1.64.71,2.07.47.39,1.11.59,1.9.59,1.42,0,2.78-.28,4.08-.83,1.34-.59,2.59-1.3,3.73-2.13,1.14-.83,2.15-1.7,3.02-2.61.91-.91,1.64-1.72,2.19-2.43.04-.04.14-.16.29-.36.2-.24.57-.36,1.13-.36.16,0,.29.1.41.3.16.16.16.34,0,.53-.75,1.07-1.66,2.17-2.72,3.32-1.03,1.14-2.17,2.17-3.43,3.08s-2.65,1.66-4.15,2.25c-1.46.59-3.04.89-4.74.89-1.22,0-2.23-.34-3.02-1.01-.79-.63-1.18-1.76-1.18-3.38ZM343.61,268.5c-.79,0-1.4-.26-1.83-.77-.47-.51-.69-1.14-.65-1.9,0-.51.2-1.18.59-2.01.36-.83.85-1.72,1.48-2.66.59-.95,1.26-1.91,2.01-2.9.79-.99,1.58-1.88,2.37-2.66.79-.79,1.54-1.42,2.25-1.9.75-.51,1.38-.77,1.9-.77.67,0,1.16.22,1.48.65.36.39.51.93.47,1.6-.08,1.26-.41,2.72-1.01,4.38-.55,1.62-1.34,3.14-2.37,4.56.28.08.55.14.83.18.28.04.57.06.89.06,2.01,0,3.69-.47,5.04-1.42,1.34-.95,2.35-1.99,3.02-3.14.16-.28.38-.41.65-.41.24,0,.41.1.53.3.16.2.18.39.06.59-1.14,1.74-2.51,3.06-4.09,3.97-1.54.91-3.2,1.36-4.97,1.36-.47,0-.95-.02-1.42-.06-.47-.04-.95-.14-1.42-.3-.83.99-1.74,1.78-2.72,2.37-.99.59-2.01.89-3.08.89ZM348.94,263.46c.95-1.26,1.68-2.65,2.19-4.15.55-1.5.83-2.8.83-3.91,0-.08-.02-.2-.06-.36v-.36l-.06-.06s-.08-.06-.12-.06c-.24,0-.55.12-.95.36-.36.2-.71.45-1.07.77-.32.32-.59.65-.83,1.01-.24.32-.36.59-.36.83,0,.2.02.39.06.59.04.16.08.36.12.59.08.63-.2.95-.83.95-.16,0-.29-.02-.41-.06-.08.2-.12.41-.12.65-.08.67.02,1.28.29,1.84.32.55.75,1.01,1.3,1.36ZM342.84,265.66c0,.2.02.39.06.59,0,.2.1.36.3.47,1.03,0,1.9-.16,2.61-.47.71-.32,1.42-.85,2.13-1.6-.71-.43-1.28-.99-1.72-1.66-.43-.67-.65-1.46-.65-2.37v-.12c-.67.55-1.3,1.34-1.9,2.37-.55.99-.83,1.91-.83,2.78ZM358.77,273c0-1.03.22-2.05.65-3.08.47-.99,1.01-1.91,1.6-2.78-.59-1.11-1.09-2.13-1.48-3.08-.39-.95-.59-2.01-.59-3.2,0-.95.22-1.99.65-3.14.47-1.14,1.08-2.21,1.83-3.2.75-.99,1.62-1.82,2.61-2.49,1.03-.67,2.07-1.01,3.14-1.01.55,0,.99.16,1.3.47.36.32.53.75.53,1.3,0,.51-.26.77-.77.77-.32,0-.51-.18-.59-.53-.08-.36-.24-.53-.47-.53-.83,0-1.64.3-2.43.89-.79.59-1.5,1.32-2.13,2.19-.59.87-1.08,1.8-1.48,2.78-.39.99-.59,1.86-.59,2.61,0,.32.04.71.12,1.18.12.47.26.97.41,1.48.2.47.42.93.65,1.36.24.39.49.69.77.89.59-.55,1.38-1.16,2.37-1.84.99-.67,2.03-1.3,3.14-1.9,1.11-.59,2.19-1.09,3.26-1.48,1.07-.43,1.96-.67,2.67-.71.36,0,.57.12.65.36.08.2.02.34-.18.41-1.66.83-3.1,1.56-4.32,2.19-1.18.59-2.21,1.14-3.08,1.66-.87.47-1.62.93-2.25,1.36-.59.43-1.11.89-1.54,1.36.24.59.42,1.13.53,1.6.16.47.28.95.36,1.42.08.47.12.95.12,1.42.04.51.06,1.11.06,1.78-.2.67-.51,1.32-.95,1.95-.43.67-1.04,1.01-1.83,1.01-.91,0-1.6-.38-2.07-1.13-.43-.75-.65-1.54-.65-2.37ZM361.44,274.72c.28,0,.49-.1.65-.3.16-.2.28-.43.36-.71.12-.28.18-.57.18-.89.04-.28.06-.51.06-.71,0-.99-.24-1.99-.71-3.02-.24,0-.46.16-.65.47-.16.36-.29.75-.41,1.18-.12.43-.22.85-.3,1.24-.04.43-.06.73-.06.89,0,.32.04.69.12,1.13.08.47.33.71.77.71ZM381.67,252.51c.91,0,1.56.26,1.95.77.39.47.63,1.11.71,1.9.08.55.04,1.11-.12,1.66-.16.51-.2,1.05-.12,1.6h.12c.12-.12.32-.34.59-.65.32-.32.67-.65,1.07-1.01s.79-.67,1.18-.95c.39-.28.77-.41,1.13-.41.32,0,.55.14.71.41.2.28.32.57.36.89.04.47-.14,1.01-.53,1.6s-.83,1.24-1.3,1.95c-.43.71-.85,1.48-1.24,2.31-.36.83-.47,1.74-.36,2.72.08.55.28.95.59,1.18s.71.36,1.18.36c1.62,0,3.02-.32,4.2-.95,1.22-.63,2.25-1.34,3.08-2.13.83-.83,1.44-1.6,1.84-2.31.43-.75.67-1.2.71-1.36.08-.36.28-.53.59-.53.2,0,.36.08.47.24.16.16.22.43.18.83-.04.51-.36,1.2-.95,2.07-.55.83-1.32,1.66-2.31,2.49-.99.83-2.15,1.56-3.5,2.19-1.34.59-2.78.89-4.32.89-.91,0-1.68-.24-2.31-.71-.63-.51-1.01-1.22-1.12-2.13-.04-.63,0-1.2.12-1.72.16-.55.33-1.07.53-1.54.24-.51.5-1.01.77-1.48.28-.51.49-1.05.65-1.6h-.18c-.16.08-.5.38-1.01.89-.47.47-1.04,1.07-1.72,1.78s-1.4,1.46-2.19,2.25c-.79.75-1.6,1.46-2.43,2.13-.79.67-1.56,1.22-2.31,1.66-.75.43-1.4.65-1.95.65-.75,0-1.28-.26-1.6-.77-.32-.55-.51-1.14-.59-1.78-.12-1.22.06-2.61.53-4.15.47-1.58,1.14-3.04,2.01-4.38.87-1.38,1.9-2.53,3.08-3.43,1.22-.95,2.49-1.42,3.79-1.42ZM373.85,265.89c.04.2.08.38.12.53.04.16.18.24.41.24s.51-.08.83-.24c.36-.16.67-.34.95-.53.32-.24.59-.45.83-.65.28-.24.47-.41.59-.53.83-.75,1.58-1.44,2.25-2.07.71-.67,1.3-1.36,1.78-2.07.47-.75.81-1.54,1.01-2.37.2-.87.24-1.88.12-3.02,0-.08-.02-.18-.06-.3v-.3c-.08-.2-.18-.3-.29-.3-.12-.04-.28-.06-.47-.06-1.07,0-2.11.43-3.14,1.3-.99.83-1.87,1.86-2.66,3.08-.75,1.22-1.34,2.51-1.78,3.85-.39,1.34-.55,2.49-.47,3.43ZM398.88,236.76v-.77c.04-.36.1-.69.18-1.01.08-.32.2-.59.36-.83.2-.24.43-.36.71-.36.47,0,.71.22.71.65-.04.63-.12,1.2-.24,1.72s-.16,1.14-.12,1.9c-.04.2-.12.32-.24.36h-.36c-.43,0-.71-.2-.83-.59-.12-.39-.18-.75-.18-1.07Z"/>
</svg>