<?xml version="1.0" encoding="UTF-8"?>
<svg id="Layer_1" data-name="Layer 1" xmlns="http://www.w3.org/2000/svg" xmlns:xlink="http://www.w3.org/1999/xlink" viewBox="0 0 471.92 768">
  <defs>
    <style>
      .cls-1 {
        fill: none;
      }

      .cls-2 {
        fill: #fff;
      }

      .cls-3 {
        fill: #ff1516;
      }

      .cls-4 {
        clip-path: url(#clippath);
      }
    </style>
    <clipPath id="clippath">
      <rect class="cls-1" x="2.39" y="220.1" width="469.91" height="547.69"/>
    </clipPath>
  </defs>
  <g>
    <path class="cls-3" d="M102.05,290.82l1.27-6.05c.06-.34.15-.8.27-1.36.14-.56.28-1.15.42-1.75.16-.63.29-1.18.39-1.66.12-.48.2-.82.24-1h-.18c-.38.83-.84,1.61-1.36,2.36-.52.75-1.14,1.35-1.84,1.81-.71.46-1.52.69-2.45.69-1.17,0-2.12-.46-2.84-1.39-.71-.95-1.06-2.33-1.06-4.14,0-.95.12-1.94.36-2.96.26-1.05.64-2.06,1.15-3.02.5-.99,1.12-1.87,1.84-2.66.73-.81,1.56-1.44,2.51-1.9.95-.48,1.99-.73,3.14-.73.54,0,1.14.08,1.78.24.64.14,1.17.33,1.57.57l1.51-.82h1.06l-4.17,19.71c-.06.28-.11.55-.15.81-.02.26-.03.44-.03.54,0,.6.2.99.6,1.15.42.18.92.27,1.48.27h.24l-.27,1.27h-5.5ZM99.9,281.96c.54,0,1.09-.21,1.63-.63.56-.42,1.09-.98,1.57-1.66.5-.71.94-1.47,1.3-2.3.38-.84.66-1.68.85-2.51l1.12-5.35c-.16-.28-.44-.53-.85-.75-.4-.22-.89-.33-1.45-.33-.83,0-1.56.24-2.21.72-.64.46-1.22,1.09-1.72,1.87-.48.77-.89,1.6-1.21,2.51-.3.89-.53,1.77-.7,2.66-.16.87-.24,1.63-.24,2.3,0,1.25.18,2.15.54,2.69.36.52.82.79,1.36.79ZM124.02,283.87c-.81,0-1.43-.28-1.87-.85-.44-.56-.66-1.24-.66-2.03,0-.22,0-.49.03-.81.04-.32.08-.65.12-.97h-.24c-.56.93-1.12,1.73-1.66,2.42s-1.15,1.23-1.81,1.63c-.66.38-1.45.57-2.36.57-1.19,0-2.03-.33-2.51-1-.48-.69-.73-1.47-.73-2.36,0-.51.06-1.05.18-1.63.12-.6.24-1.17.36-1.69l1.18-5.29c.06-.28.12-.62.18-1.03.06-.42.09-.69.09-.79,0-.6-.21-.99-.63-1.15-.4-.18-.9-.27-1.48-.27h-.24l.27-1.27h5.62l-1.99,9.04c-.12.54-.25,1.18-.39,1.91-.14.72-.21,1.31-.21,1.75,0,.51.1.94.3,1.3.2.36.59.54,1.18.54.54,0,1.11-.2,1.69-.6.58-.42,1.15-.98,1.69-1.66.54-.69,1.02-1.44,1.42-2.27.4-.83.7-1.65.88-2.48l1.57-7.53h2.93l-2.09,9.7c-.06.22-.13.54-.21.97-.06.42-.12.86-.18,1.3-.04.44-.06.81-.06,1.09,0,1.03.33,1.54,1,1.54.34,0,.65-.05.94-.15.28-.12.61-.29,1-.51l.54.88c-.44.4-1.01.79-1.69,1.15-.66.36-1.38.54-2.15.54ZM135.23,283.87c-1.09,0-2.08-.23-2.96-.69-.89-.46-1.6-1.15-2.15-2.06-.52-.93-.79-2.1-.79-3.51,0-1.11.19-2.28.57-3.5.38-1.23.96-2.38,1.72-3.45.77-1.07,1.7-1.93,2.81-2.6,1.13-.67,2.43-1,3.9-1,1.27,0,2.26.31,2.96.94.71.6,1.06,1.45,1.06,2.54s-.38,2.07-1.15,2.99c-.75.91-1.78,1.64-3.11,2.21-1.31.57-2.81.85-4.5.85h-1.06c-.02.22-.04.44-.06.66v.6c0,1.31.28,2.33.85,3.05.56.71,1.39,1.06,2.48,1.06.97,0,1.82-.23,2.57-.7.77-.46,1.36-.96,1.78-1.48.2.14.3.39.3.76,0,.44-.19.93-.57,1.45-.36.5-.93.95-1.69,1.33-.77.36-1.75.54-2.96.54ZM132.81,275.19h.3c1.17,0,2.22-.19,3.14-.57.93-.4,1.65-.95,2.18-1.63.54-.71.82-1.52.82-2.45,0-1.35-.58-2.03-1.75-2.03-.58,0-1.13.2-1.63.6-.48.38-.93.91-1.33,1.57-.4.65-.76,1.36-1.06,2.15-.28.79-.5,1.57-.66,2.36ZM148.14,290.82c-1.07,0-2.01-.18-2.84-.54l.45-1.51c.24.08.54.15.91.21.34.08.83.12,1.45.12.99,0,1.89-.18,2.72-.54.85-.34,1.62-.8,2.33-1.36.71-.54,1.34-1.14,1.9-1.78.58-.63,1.1-1.23,1.54-1.81l-3.99-13.36c-.18-.6-.43-1.02-.76-1.24-.3-.24-.75-.36-1.33-.36h-.3l.24-1.27h4.41l2.36,8.16c.14.52.3,1.15.48,1.88.2.72.37,1.42.51,2.08.16.67.25,1.17.27,1.51h.09c.77-1.15,1.45-2.32,2.06-3.5.62-1.21,1.12-2.37,1.48-3.48.36-1.13.54-2.15.54-3.05,0-.42-.11-.8-.33-1.12-.2-.34-.58-.51-1.15-.51,0-.73.2-1.28.6-1.66.42-.38.88-.57,1.36-.57.62,0,1.12.21,1.48.64.38.42.57,1.06.57,1.9,0,1.57-.48,3.38-1.45,5.44-.97,2.06-2.26,4.31-3.87,6.77-.99,1.53-1.9,2.86-2.75,3.99-.83,1.13-1.66,2.05-2.51,2.78-.85.75-1.79,1.3-2.84,1.66-1.03.36-2.25.54-3.66.54ZM172.98,283.87c-1.71,0-3.11-.51-4.2-1.54-1.07-1.05-1.6-2.62-1.6-4.72,0-1.11.18-2.28.54-3.5.36-1.23.92-2.38,1.66-3.45.75-1.07,1.68-1.93,2.81-2.6,1.13-.67,2.46-1,3.99-1,1.07,0,2.04.21,2.9.63.87.42,1.55,1.1,2.06,2.03.52.93.79,2.13.79,3.6,0,.87-.11,1.78-.33,2.75-.22.95-.56,1.89-1.03,2.81-.46.93-1.05,1.77-1.75,2.51-.71.75-1.55,1.35-2.54,1.81-.97.44-2.07.66-3.29.66ZM173.31,282.33c.99,0,1.82-.31,2.51-.94.71-.65,1.27-1.46,1.69-2.45.44-1.01.77-2.06.97-3.14.2-1.09.3-2.09.3-2.99,0-1.51-.26-2.59-.79-3.23-.52-.65-1.25-.97-2.18-.97-.79,0-1.48.21-2.09.64-.6.42-1.13.99-1.57,1.69-.42.69-.78,1.45-1.06,2.3-.26.85-.46,1.7-.6,2.57-.12.85-.18,1.63-.18,2.36,0,1.53.27,2.61.82,3.23.54.63,1.27.94,2.18.94ZM196.02,283.87c-2.2,0-3.29-1.18-3.29-3.54,0-.36.03-.78.09-1.24.06-.48.13-.92.21-1.3l1.84-8.71h-2.3l.27-1.21c.87,0,1.7-.31,2.51-.94.81-.64,1.51-1.74,2.12-3.29h1.39l-.79,3.72h3.66l-.36,1.72h-3.66l-1.84,8.62c-.1.5-.19.99-.27,1.45-.06.45-.09.83-.09,1.15,0,.58.14,1.01.42,1.27.28.26.68.39,1.18.39.42,0,.86-.06,1.3-.18.44-.14.84-.3,1.18-.48l.51,1.12c-.6.42-1.25.78-1.93,1.06-.69.26-1.4.39-2.15.39ZM215.11,283.87c-.81,0-1.43-.28-1.87-.85-.44-.56-.66-1.24-.66-2.03,0-.22,0-.49.03-.81.04-.32.08-.65.12-.97h-.24c-.56.93-1.12,1.73-1.66,2.42-.54.69-1.15,1.23-1.81,1.63-.66.38-1.45.57-2.36.57-1.19,0-2.03-.33-2.51-1-.48-.69-.73-1.47-.73-2.36,0-.51.06-1.05.18-1.63.12-.6.24-1.17.36-1.69l1.18-5.29c.06-.28.12-.62.18-1.03.06-.42.09-.69.09-.79,0-.6-.21-.99-.63-1.15-.4-.18-.9-.27-1.48-.27h-.24l.27-1.27h5.62l-1.99,9.04c-.12.54-.25,1.18-.39,1.91-.14.72-.21,1.31-.21,1.75,0,.51.1.94.3,1.3.2.36.59.54,1.18.54.54,0,1.11-.2,1.69-.6.58-.42,1.15-.98,1.69-1.66.54-.69,1.02-1.44,1.42-2.27.4-.83.7-1.65.88-2.48l1.57-7.53h2.93l-2.09,9.7c-.06.22-.13.54-.21.97-.06.42-.12.86-.18,1.3-.04.44-.06.81-.06,1.09,0,1.03.33,1.54,1,1.54.34,0,.65-.05.94-.15.28-.12.61-.29,1-.51l.54.88c-.44.4-1.01.79-1.69,1.15-.66.36-1.38.54-2.15.54ZM224.14,283.84l-2.12-13.6c-.1-.63-.33-1.05-.7-1.27-.34-.22-.81-.33-1.39-.33h-.3l.24-1.27h4.53l1.39,8.95c.1.69.19,1.38.27,2.09.1.69.18,1.32.24,1.9.08.57.14,1.02.18,1.36h.09c.73-.71,1.42-1.49,2.09-2.36.69-.87,1.28-1.74,1.78-2.63.52-.91.94-1.77,1.24-2.6s.45-1.54.45-2.15c0-.7-.17-1.26-.51-1.66-.34-.42-.8-.63-1.36-.63,0-.83.22-1.43.66-1.81.44-.4.91-.6,1.39-.6.62,0,1.12.22,1.48.66.38.42.57,1.14.57,2.15,0,1.19-.26,2.43-.79,3.72-.5,1.29-1.16,2.56-1.96,3.81-.79,1.23-1.61,2.37-2.48,3.41-.85,1.03-1.61,1.89-2.3,2.57l-2.72.3ZM242.29,283.87c-1.09,0-2.08-.23-2.96-.69s-1.6-1.15-2.15-2.06c-.52-.93-.79-2.1-.79-3.51,0-1.11.19-2.28.57-3.5.38-1.23.96-2.38,1.72-3.45.77-1.07,1.7-1.93,2.81-2.6,1.13-.67,2.43-1,3.9-1,1.27,0,2.26.31,2.96.94.71.6,1.06,1.45,1.06,2.54s-.38,2.07-1.15,2.99c-.75.91-1.78,1.64-3.11,2.21-1.31.57-2.81.85-4.5.85h-1.06c-.02.22-.04.44-.06.66v.6c0,1.31.28,2.33.85,3.05.56.71,1.39,1.06,2.48,1.06.97,0,1.82-.23,2.57-.7.77-.46,1.36-.96,1.78-1.48.2.14.3.39.3.76,0,.44-.19.93-.57,1.45-.36.5-.93.95-1.69,1.33-.77.36-1.75.54-2.96.54ZM239.87,275.19h.3c1.17,0,2.22-.19,3.14-.57.93-.4,1.65-.95,2.18-1.63.54-.71.82-1.52.82-2.45,0-1.35-.58-2.03-1.75-2.03-.58,0-1.13.2-1.63.6-.48.38-.93.91-1.33,1.57-.4.65-.76,1.36-1.06,2.15-.28.79-.5,1.57-.66,2.36Z"/>
    <path class="cls-3" d="M100.81,111.05c-1.09,0-2.08-.23-2.96-.7-.89-.46-1.6-1.15-2.15-2.06-.52-.93-.79-2.1-.79-3.51,0-1.11.19-2.28.57-3.51.38-1.23.96-2.38,1.72-3.45.77-1.07,1.7-1.93,2.81-2.6,1.13-.66,2.43-1,3.9-1,1.27,0,2.26.31,2.96.94.71.6,1.06,1.45,1.06,2.54s-.38,2.07-1.15,2.99c-.75.91-1.78,1.64-3.11,2.21-1.31.56-2.81.85-4.5.85h-1.06c-.02.22-.04.44-.06.66v.6c0,1.31.28,2.33.85,3.05.56.71,1.39,1.06,2.48,1.06.97,0,1.82-.23,2.57-.7.77-.46,1.36-.96,1.78-1.48.2.14.3.39.3.76,0,.44-.19.93-.57,1.45-.36.5-.93.95-1.69,1.33-.77.36-1.75.54-2.96.54ZM98.39,102.37h.3c1.17,0,2.22-.19,3.14-.57.93-.4,1.65-.95,2.18-1.63.54-.71.82-1.52.82-2.45,0-1.35-.58-2.03-1.75-2.03-.58,0-1.13.2-1.63.6-.48.38-.93.91-1.33,1.57-.4.64-.76,1.36-1.06,2.15-.28.79-.5,1.57-.66,2.36ZM113.97,111.05c-1.51,0-2.72-.3-3.63-.91s-1.36-1.44-1.36-2.51c0-.54.1-.96.3-1.24.22-.28.48-.47.79-.57.3-.12.57-.18.82-.18,0,.71.11,1.36.33,1.96s.58,1.09,1.09,1.45c.5.36,1.18.54,2.03.54,1.01,0,1.8-.23,2.39-.7.58-.46.88-1.17.88-2.12,0-.71-.23-1.31-.7-1.81-.46-.5-1.25-1.01-2.36-1.51-1.11-.52-1.99-1.13-2.66-1.81-.66-.71-1-1.66-1-2.87,0-1.29.52-2.36,1.57-3.2,1.05-.87,2.47-1.3,4.26-1.3,1.11,0,2.01.14,2.69.42.69.28,1.19.64,1.51,1.09.34.44.51.9.51,1.36,0,.64-.21,1.12-.63,1.42-.4.3-.95.45-1.63.45,0-.52-.09-1.05-.27-1.57-.16-.52-.44-.95-.85-1.27-.38-.34-.92-.51-1.6-.51-.91,0-1.62.25-2.15.76-.52.48-.79,1.1-.79,1.84,0,.69.24,1.26.73,1.72.5.44,1.29.91,2.36,1.39,1.11.5,1.98,1.12,2.63,1.84.66.73,1,1.67,1,2.84,0,1.47-.56,2.67-1.69,3.6-1.11.93-2.63,1.39-4.56,1.39ZM127.48,111.05c-2.2,0-3.29-1.18-3.29-3.54,0-.36.03-.78.09-1.24.06-.48.13-.92.21-1.3l1.84-8.71h-2.3l.27-1.21c.87,0,1.7-.31,2.51-.94.81-.64,1.51-1.74,2.12-3.29h1.39l-.79,3.72h3.66l-.36,1.72h-3.66l-1.84,8.61c-.1.5-.19.99-.27,1.45-.06.44-.09.83-.09,1.15,0,.58.14,1.01.42,1.27.28.26.68.39,1.18.39.42,0,.86-.06,1.3-.18.44-.14.84-.3,1.18-.48l.51,1.12c-.6.42-1.25.78-1.93,1.06-.69.26-1.4.39-2.15.39ZM139.89,111.05c-1.71,0-3.11-.51-4.2-1.54-1.07-1.05-1.6-2.62-1.6-4.72,0-1.11.18-2.28.54-3.51.36-1.23.92-2.38,1.66-3.45.75-1.07,1.68-1.93,2.81-2.6,1.13-.66,2.46-1,3.99-1,1.07,0,2.04.21,2.9.63.87.42,1.55,1.1,2.06,2.03.52.93.79,2.13.79,3.6,0,.87-.11,1.78-.33,2.75-.22.95-.56,1.88-1.03,2.81-.46.93-1.05,1.76-1.75,2.51-.71.75-1.55,1.35-2.54,1.81-.97.44-2.07.66-3.29.66ZM140.22,109.51c.99,0,1.82-.31,2.51-.94.71-.64,1.27-1.46,1.69-2.45.44-1.01.77-2.06.97-3.14.2-1.09.3-2.09.3-2.99,0-1.51-.26-2.59-.79-3.23-.52-.64-1.25-.97-2.18-.97-.79,0-1.48.21-2.09.63s-1.13.99-1.57,1.69c-.42.69-.78,1.45-1.06,2.3-.26.85-.46,1.7-.6,2.57-.12.85-.18,1.63-.18,2.36,0,1.53.27,2.61.82,3.23.54.62,1.27.94,2.18.94ZM154.92,118c-.3,0-.61-.03-.94-.09-.34-.04-.61-.09-.82-.15l.27-1.39c.16.04.38.08.66.12.26.06.5.09.73.09.99,0,1.76-.42,2.33-1.27.54-.85,1.04-2.28,1.48-4.29l3.17-14.75h-2.75l.18-1.09,2.9-.63.33-1.66c.32-1.71.95-3.04,1.87-3.99.93-.95,2.22-1.42,3.87-1.42,1.29,0,2.26.21,2.9.63.66.4,1,.94,1,1.6s-.22,1.16-.66,1.48c-.42.32-1.04.48-1.84.48,0-.77-.1-1.42-.3-1.96-.2-.56-.61-.85-1.24-.85-.75,0-1.32.31-1.72.94-.4.6-.73,1.54-.97,2.81l-.39,1.93h3.36l-.33,1.72h-3.39l-3.14,14.72c-.38,1.79-.88,3.19-1.48,4.2-.6,1.03-1.33,1.75-2.18,2.18-.85.42-1.81.63-2.9.63ZM180.51,111.05c-.81,0-1.43-.28-1.87-.85-.44-.56-.66-1.24-.66-2.03,0-.22,0-.49.03-.82.04-.32.08-.64.12-.97h-.24c-.56.93-1.12,1.73-1.66,2.42-.54.69-1.15,1.23-1.81,1.63-.66.38-1.45.57-2.36.57-1.19,0-2.03-.33-2.51-1-.48-.69-.73-1.47-.73-2.36,0-.5.06-1.05.18-1.63.12-.6.24-1.17.36-1.69l1.18-5.29c.06-.28.12-.62.18-1.03.06-.42.09-.69.09-.79,0-.6-.21-.99-.63-1.15-.4-.18-.9-.27-1.48-.27h-.24l.27-1.27h5.62l-1.99,9.04c-.12.54-.25,1.18-.39,1.9-.14.73-.21,1.31-.21,1.75,0,.5.1.94.3,1.3.2.36.59.54,1.18.54.54,0,1.11-.2,1.69-.6.58-.42,1.15-.98,1.69-1.66.54-.69,1.02-1.44,1.42-2.27.4-.83.7-1.65.88-2.48l1.57-7.53h2.93l-2.09,9.7c-.06.22-.13.54-.21.97-.06.42-.12.86-.18,1.3-.04.44-.06.81-.06,1.09,0,1.03.33,1.54,1,1.54.34,0,.65-.05.94-.15.28-.12.61-.29,1-.51l.54.88c-.44.4-1.01.79-1.69,1.15-.66.36-1.38.54-2.15.54ZM191.72,111.05c-1.09,0-2.08-.23-2.96-.7-.89-.46-1.6-1.15-2.15-2.06-.52-.93-.79-2.1-.79-3.51,0-1.11.19-2.28.57-3.51.38-1.23.96-2.38,1.72-3.45.77-1.07,1.7-1.93,2.81-2.6,1.13-.66,2.43-1,3.9-1,1.27,0,2.26.31,2.96.94.71.6,1.06,1.45,1.06,2.54s-.38,2.07-1.15,2.99c-.75.91-1.78,1.64-3.11,2.21-1.31.56-2.81.85-4.5.85h-1.06c-.02.22-.04.44-.06.66v.6c0,1.31.28,2.33.85,3.05.56.71,1.39,1.06,2.48,1.06.97,0,1.82-.23,2.57-.7.77-.46,1.36-.96,1.78-1.48.2.14.3.39.3.76,0,.44-.19.93-.57,1.45-.36.5-.93.95-1.69,1.33-.77.36-1.75.54-2.96.54ZM189.3,102.37h.3c1.17,0,2.22-.19,3.14-.57.93-.4,1.65-.95,2.18-1.63.54-.71.82-1.52.82-2.45,0-1.35-.58-2.03-1.75-2.03-.58,0-1.13.2-1.63.6-.48.38-.93.91-1.33,1.57-.4.64-.76,1.36-1.06,2.15-.28.79-.5,1.57-.66,2.36Z"/>
    <path class="cls-3" d="M112.71,237.66v-109.46h14.69v112.87c0,9.09-7.17,13.72-17.4,13.72s-17.14-4.63-17.14-13.72v-112.87h14.69v109.46c0,1.4,1.05,2.62,2.45,2.62,1.49,0,2.71-1.23,2.71-2.62ZM149.57,126.98c10.23,0,17.4,4.72,17.4,13.81v112.78h-14.69v-109.37c0-1.4-1.22-2.71-2.71-2.71-1.4,0-2.45,1.31-2.45,2.71v109.37h-14.69v-125.37h9.09c2.36-.79,5.07-1.22,8.04-1.22ZM227.93,140.79v38.82h-14.69v-35.41c0-1.4-1.22-2.71-2.71-2.71-1.4,0-2.45,1.31-2.45,2.71v35.93l14.86,10.75c3.32,2.19,4.98,5.25,4.98,9.01v41.18c0,9.09-7.17,13.72-17.4,13.72s-17.14-4.63-17.14-13.72v-38.91h14.69v35.5c0,1.4,1.05,2.62,2.45,2.62,1.49,0,2.71-1.23,2.71-2.62v-36.02l-15.04-10.75c-3.23-2.19-4.81-5.16-4.81-8.92v-41.18c0-9.09,6.99-13.81,17.14-13.81s17.4,4.72,17.4,13.81ZM252.81,237.66v-109.46h14.69v112.87c0,9.09-7.17,13.72-17.4,13.72s-17.14-4.63-17.14-13.72v-112.87h14.69v109.46c0,1.4,1.05,2.62,2.45,2.62,1.49,0,2.71-1.23,2.71-2.62ZM299.38,128.2v14.69h-12.15v40.65h12.15v14.69h-12.15v40.65h12.15v14.69h-26.84v-125.37h26.84ZM321.55,126.98c10.23,0,17.4,4.72,17.4,13.81v112.78h-14.69v-109.37c0-1.4-1.23-2.71-2.71-2.71-1.4,0-2.45,1.31-2.45,2.71v109.37h-14.69v-125.37h9.09c2.36-.79,5.07-1.22,8.04-1.22ZM361.12,126.98c10.23,0,17.4,4.72,17.4,13.81v100.28c0,9.09-7.17,13.72-17.4,13.72s-17.13-4.63-17.13-13.72v-100.28c0-9.09,6.99-13.81,17.13-13.81ZM361.12,240.28c1.49,0,2.71-1.23,2.71-2.62v-93.46c0-1.4-1.22-2.71-2.71-2.71-1.4,0-2.45,1.31-2.45,2.71v93.46c0,1.4,1.05,2.62,2.45,2.62Z"/>
    <path class="cls-3" d="M320.03,101.3c1.92-1.66,4.37-2.45,7.43-2.45s5.51.79,7.52,2.45c1.92,1.66,2.88,4.02,2.88,6.91v10.75h-8.48v-9.7c0-1.31-.79-2.36-1.92-2.36-1.05,0-2.01,1.05-2.01,2.36v2.71c0,5.86-4.2,9.27-10.14,9.27s-10.4-3.41-10.4-9.27v-10.75h8.39v9.79c0,1.31.87,2.19,2.01,2.19s1.75-.7,1.75-2.19v-2.8c0-2.89.96-5.25,2.97-6.91Z"/>
  </g>
  <g class="cls-4">
    <g>
      <path class="cls-2" d="M449.07,547.99l-1.54-.68c-1.46-.65,1.3,3.71-.16,4.99-8.87-4.01-20.9-4.04-21.09-6.73-.11-1.52,4.1-2.94,3.08-3.14l-1.57-.31c-1.09-.21-4.12,0-4.39-1.06l-1.12-4.4c-1.63,2.65-3.79,3.81-6.85,3.82-.17.27-.2,1.17.16,1.27l1.82.48c.73.19.6,2.35.04,2.86-1.4,1.28-8.98.4-12.04-1.76-.74-.52-2.4-2.46-2.97-1.85l-2.12,2.31-11.26,1.78-13.41,2.04c-6.26.95-11.05-4.28-11.08-10.28-6.77.23-13.15.15-18.73-2.22-1.58-6.08-9.69.78-14.51-7.54,5.01-3.68,11.31-5.7,17.24-4.59l4.83,2.57c-.24,1.44.16,4.25.83,3.81l2.38-1.61c.53-.36,2.01-1.75,2.47-1.32l2.07,1.91c.68.63,1.52,1.32,2.12,1.15.48-.14,1.73-1.23,1.45-1.65l-1.37-2.02c-.48-.71-1.67-2.26-1.15-2.84l1.98-2.22,1.37-1.53c.29-.33-.67-1.35-1.09-1.2l-1.69.61c-.56.2-2.18.62-2.46.11l-1.04-1.86c-.46-.82-2.01-2.48-2.75-2.9l-1.85,5.48-7.86,1.67c-1.93.41-5.1-1.33-5.02-3.59.08-2.34.76-4.98,1.42-6.84l12.37-5.72c4.65-2.15,6.62,2.33,7.19,1.59l1.48-1.93,5.46,1.14c2.2.46,5.73-.81,8.01-1.16l3.04,3.5-.67,2.14c-.08.25.91.12,1.17.03l1.67-.63,2.16,6.07-11.35-.66.06,1.47,15.36.79,10.8,3.43c4.25.47,7.11.95,10.36,3.7l-2.68,7c-1.51-.61-4.05-.36-3.86.49l.67,3.06-2.31,5.03,4.96-2.25,1.3,2.79c.19.41,1.88-.21,1.9-.57l.05-2.61c0-.48,1.99-.6,2.47-.8,1.46-1.27-.4-4.5-1.93-5.9-1.52-3.47,3.48-3.98,4.75-8.73l-7.66-1.77c-7.03-1.63-21.22-2.17-22.55-8.95-.28-1.44-.09-4.42.06-5.69-1.25-.91-2.56-2.05-3.97-3.81.14-.1-1.72.88-2.43,1.26l-6.21,1.06c-6.79,1.16-7.83-2.11-12.73-2.36l-13.75,6.28c-.64.29-2.92.23-2.78-.32l.72-2.77c.2-.3-1.83-.99-2.01-.5l-.79,2.18c-.21.59-.99,2.29-1.53,1.97l-2.05-1.2c-1.72-1.01-4.15-3.27-4.33-5.14-.2-2.09.73-3.98,1.98-6.56l-5.09-1.65c3.15-1.91,5.93-3.26,9.71-4.41l9.73-2.97c.77-.24,2.88,1.25,3.47.84l1.99-1.37,4.95,1.97-1.01-6.29,2.22-1.25c.38-.21.23-1.61-.15-1.68l-3.57-.63c-.79-.14-1.15-2.18-1.39-2.95l-.47-1.54c-.09-.3-1.42-.4-1.45-.08l-.2,1.78c-.12,1.07-.44,2.78-.96,3.46-1.18,1.54-6.74-1.25-7.51,1.63,3.07,1.09,5.02.63,7.01,3.71l-19.48,6.4c-3.08,1.01-5.72,2.84-7.95,5.23l-7.74.36-5.79-1.23-2.79-.59c-1.39-.29,1.33-11.12-5.94-12.2-5.39-.81-9.96,3.86-14.58.36l-2.29-1.73c-.65-.49-.2-5.88,1.3-6.81.6-.37,2.29-.7,2.43-.61,1.31,1.66,2.3,2.67,3.58,3.43.15-4.1-2.91-5.87-5.61-6.1-.63-.87-1.95-2.3-2.63-1.95l-2.49,1.28-1.92.99c-.28.14.33,1.42.38,1.41l1.26.07c.27.01.93.07.91.08-.02,0-.82.81-1.03,1.01l-2.69,2.65,3.87.52,1.93,5.4c-5.02-1.07-8.47-3.77-11.93-7.35-.89-.92-2.85-2.37-2.96-3.46-.11-.99-.25-2.59-.97-2.57-.58.02-1.89.89-2.13,1.42l-.88,1.91c-.2.44-3.32-2.29-3.63-1.42l-.81,2.26c-4.58,2.1-10.37,3.23-15.61,3.61l.82-2.61c-1.46.01-2.15.12-2.52-.16l-1.24-.95c-1.45.07-3.22-.87-4.55-1.57l-1.54-.8c-.29-.15-.68,1.72-.43,1.93l4.42,3.67-3.78,1.23.72,2.07c.04.12-6.22,2.34-12.14,1.99-5.68-.34-9.93,2.63-13.1,7-.72-.23-2.8-.77-2.81-.11v3.03c0,.87.02,2.43.58,2.75.56.32,1.64-.35,2.56-1.17.74-.66,2.44-.4,4.41-.01l-1.98-4.48c1.53-2.8,4.31-4.73,7.34-5.25l17.48-3.02-.14,2.59c-.12,2.14,2.83-3.05,4.51-2.66l11.05,42-3.42,1.99-.32,3.16c0-.06-9.79-.99-18.27-4.44l-32.72-13.32c0-5.34,6.49-9.5,5.73-10.77l-1.42-2.37c-.58-.97-3.38-1.7-4.47-1.32-.9.32-1.4,2.14-1.94,3.49-11.74,4.12-24.01.07-32.19,8.31-1.66-1.77-3.36-1.7-5.76-.86l-12.53-12.26c-.34-.33-.94-1.6-1.09-1.96-.23-.55,4.24-1.47,3.16-2.12l-1.35-.81c-.45-.27-2.58-.32-2.38-.8l.96-2.24c.15-.35.07-1.79-.3-1.7l-1.03.26c-1.24,1.47-2.53,1.85-4.44,1.32l-1.48,2.12-29.65,9.69c-2.03-2.79-4.35-1.56-6.97-1.11-4.36.76-9.5.61-14.28.37-5.16-.25-10.27-2.16-15.32-2.83-5.62-.74-11.14.73-16.28-3.01l-1.55,3.5c-8.68.95-16.61,2.73-19.02,10.88-1.55,5.22-2.64,10-2.07,15.59l3.3-14.18c1.25-5.37,4.41-8.77,9.95-9.54l7.96-1.12.6,2.95c.1.48,2.14.4,2.23-.08l.74-3.93,15.5.66c4.05.17,8.42,2.53,12.58,2.58l17.38.23.39,3.45,7.73,1.73-1.6-4.4c9.38-4.24,19.44-7.46,29.43-9.68l.13,4.14,3.22-1.42,15.19,15.55c.82.84,1.93,3.67,3.03,3.48,1.42-.25,3.59.16,3.8,1.05l3.84,15.71c1.01,4.12,9.56,14.52,14.84,16.92.91-2.92,2.14-6.19,3.96-6.71,8.61-2.44,12.07,5.36,19.93,7.92-1.42,2.31-.88,5.72,1.38,6.83l.2.93,6.57,1.32,6.65-.75c5.45-.62,9.78,3.66,9.9,1.22l.14-2.78,23.83-6.41,3.93.75c.78.15,2.11,0,2.24.52l.5,2.06-4.14,1.08c.8,1.04.89,3.46.45,5.16-.05.25,1.29.74,1.53.4l1.06-1.51c1.31.48,2.42.52,3.86-.05l2.9,1.4-1.1-4.46c.15-.42,2.9-.75,3.15,0l1,3c2.77.05,5.82-1.41,6.63-4.93l-5.06-4.53c.06-.38,2.32-1.74,3.01-2.46,6.44-6.76,11.91-15.26,20.86-19.61,1.41-.37,2.36,3.97,1.41,5.19-.7.9-2.13,1.48-4.08,2.32l1.34,5.2,2.53-.57-1.43,6.96c-.62,3-5.08,5.55-7.56,7.35l-8.2,5.93c-7.71,2.18-15.89,2.5-24.15,2.41l-6.1.71,1.94-3.94c-4.21-1.94-3.58,2.43-4.71,3.86-4.26,5.38-5.46,11.11-1.45,17.54-2.96,8.66-13.75,7.45-14.95,13.56l-1.53,7.78c-3.22,1.02-6.82,1.79-8.82,4.47-3.07,4.11,2.22,10.85-2.37,18.25l-6.42,10.37c-4.3,6.94-1.21,14.68,5.27,19.26,11.52,8.15,23.63,14.84,36.29,21.26,7.45,3.78,12.28,9.95,14.18,18.29,2.9,12.75,4.38,25.6,5.68,38.8l2.2,22.32c.09.91.1,1.81.07,2.7.84-.04,1.68-.07,2.52-.12.14-2.09.09-4.25-.16-6.5l-4.36-39.32-3.96-20.68c-1.53-7.97-7.28-13.43-14.31-17.34l-20.13-11.2c10.67,3.03,19.94,4.07,30.49,4.6l22.33,1.12c1.49.07,4.15-.8,5.31-1.73.03-.52-2.01-.62-2.66-.26l-33.58-2.13c-12.85-1.08-25.12-5.01-36.14-11.22-6.82-3.85-10.46-11.02-5.97-17.91l6.96-10.69c4.55-6.99-.5-12.16,7.98-15.22,7.97-2.87,14.34,2.67,14.06.13-.51-4.57-4.75-6.43-10.5-6.97-1.77-7.64,3.17-11.28,3.87-10.05l1.31,2.31c1.33,2.35,1.99,3.69,3.93,5.34l-2.21-8.49c3.21-2.71,6.25-5.77,8.81-8.95l-.35-3.9,2.49,4.46c1.4-.29,3.48-1.79,3.62-3.04.18-1.6-.47-3.87-1.33-5.12-1.78-2.62-3.98-3.44-7.41-3.24,4.24-10.15,17.06-3.7,35.52-9,4.6-1.32,8.61-2.26,13.29,1.01l18.92,1.95c.5.05,2.49-.51,2.09-.78-.26-.18-1.29-.99-1.75-1.14l-15.6-5.13,18.16-6.46c1.62,1.32,5.02,2.45,6.14.3.87-1.67-.81-4.93-2.44-6.1-.72-.52-3.48-.06-3.32.82.13.73.78,2.3,1.14,2.95-1.32.11-3.99.6-5.87,1.14l-10.83,3.07c-5.65,1.6-5.1,6.02-16.12,5.59l8.31-5.79c3.66-2.55,5.94-6.45,6.89-10.66l4.1-.88c.67-.14.45-1.6.28-2.94l11.3-3.84c3.2-1.09,9.28-1.48,12.26-.08l9.64,4.53c1.54.72,2.79,1.46,4.57,1.66l15.89,1.8c1.58,4.04,5.01,8.51,10.17,9.76,1.25.15,1.58.61.18,1.03l-6.64,5.55c-.98.82,1.03,3.76,2.37,4.87-3.77,2.3-8.59,4.08-13.12,3.39l-11.89-1.79-1.92,6.96-3.42-.36c.75,2.51,2.73,4.98,5.48,4.42l1.27-9.26c3.81-.08,6.95.15,10.49,1.46l3.13,1.16c.72.27.66,2.37.75,3.57l5.5-2.45-2.2-2.38c4.82-2.44,9.62-4.25,14.32-4.21.5.84,1.54,2.33,1.97,1.99l1.95-1.57,4.32-2.32-6.59-2.23c-1.48,1.16-4.01,2.95-5.73,2.91-2.26-.05-4.2-1.36-5.16-3.82,3.12-2.1,6.36-5.18,9.78-6.05l11.93-3.01c3.67-.93,8.35-1.45,11.91-.46,2.83.79,4.74.09,7.3.32l15.83,1.47,12.92,2.17c4.08.69,10.07,4.48,10.07,4.45l-.3,3.67c1.02-.32,2.05-1.32,4.11-3.41l1.47,4.09c-3.92,2.83-8.98,4.36-13.44,3.09l-2.51-.71c-.41-.12-.93.94-1.27,1.56-2.29,4.23-6.53,4.06-7.17,7.37-.92,4.69,4.37,6.19,1.25,10.36-3.18,4.25-7.66,4.41-12.59,4.69-3.69.21-7.01-.1-8.47-4.07l-3.66.7c-10.33-5.62-20.48-.09-26.09-7.15.1-2.28,2.18-5.86,3.97-6.57l2.81-1.12c.54-.21-1.47-1.51-1.81-1.98l-1.44-2c-.32-.44-2.06.06-2.19.45.54,6.52-6.72,10.09-1.01,14.16,7.24,5.17,15.57.17,25.96,6.17l.8,4.83,2.4-2.68c.36-.4,2.17.88,2.72.86l11.76-.59c5.4-.27,9.55-4.44,10.24-9.41l-2.69-4.33c-.39-.63-.23-3.22.52-3.31.75-.1,1.85.1,3.3.4,3.5-9.58,14.07-1.8,21.24-11.61l-2.87-5.25c-.24-.44,1.62-1.35,1.79-.87l.55,1.53.73,2.02c.14.39,1.62-.16,1.7-.59.03-3.8-2.71-4.88-7.6-7.04ZM236.44,600.94l-10.91,4.45c1.89-4.67,6.12-5.49,10.91-4.45ZM338.67,512.4c1.48.37,1.61,4.39.45,5.02l-6.77-1.23c2.48-1.94,4.04-3,6.32-3.79ZM211.56,540.66l-.5,3.89-2.23-.52c-.63-.15.28-2.08.68-2.62,1.21-1.6,2.48-2.13,4.48-1.79l.54-5.46c-1.9-1.07-3.07-1.96-4.71-3.56-.29-.29-1,1.39-1.13,2.2l-.99,6.33-.56,2.81c-.43,2.14-6.91-5.15-14.48-6.54-4.62-5.32-2.51.98-7.82,5.59-12.36-6.86-14.09-19.86-16.18-33.14,8.25-7.84,21.47-3.79,33.1-8.66l1.76-.56c.52-.17.39,1.81.1,2.32l-3.59,6.44-2.81-.05-5.99,3.52,6.02.43,3.67-.49,11.78,4.31,28.26,11.81c1.98.83,4.75-.1,5.42,2.92l-13.71,7.89c-5.78,3.32-12.04,5.8-18.35,7.94l-2.78-5.01ZM217.59,552.04l4.85-2.42c1.62-.81,5.21-.08,5.54,3.44l-10.39-1.03ZM273.52,550.39l-2.19-.74-3.44-.92c-.79-.21-.88-2.55-.69-3.47,2.23,0,4.99.75,6.47,2.2.45.44.36,3.12-.16,2.95ZM302.99,529.03l-.59-6.23c-1.29-1.21-4.81-1.08-6.59.34-7.02,5.64-12.88,12.15-18.38,19.22l-8.19,1.68-7.07,1-2.68-3.94-2.4,4.33c-7.84,2.78-16.49,4.89-24.68,5.96-1.38-2.25-3.05-3.09-5.17-2.51l-3.44-2.29-6.86,3.13c-.45-4.26,2.55-4.11,4.78-5.28l24.87-13.01c1.5-.79,3.55-.44,4.24-2.94l8.59.69-1.26-4.03,2.79-1.9c.63-.43.35-2.12.36-3.16l10.46-10.71-1.12-.31-12.61,12.76-3.88-15.14-7.42-27.66,16.72-4.01,4.98-.8c4.02-.65,6.52,6.42,14.69,9.65-.05,1.01-.11,2.76.13,3.46.39,1.13,2.14-.1,3.23-.36l12.59-3.05c1.51-.36,4.21-.33,5.48.44,3.47,2.1,1,8.92,2.49,10.44.88.9,2.91,1.52,4.88,2.27-.67.35-2.71,1.39-3.06,2.17l-2.89,6.32-6.21.26-17.17-6.9c.57,1.51.86,1.72,2.24,3.12l-5.09,1.35c-.42.11-1.84-.56-2.27-.67-.43-.11-.9,1.03-1,1.48-1.02,4.75,8.07-2.17,12.02-.83l11.34,3.85,1.3,3.62c3.37-1.57,5.89-1.91,10.1-2.27l-4.08-1.27,3.48-7.26c1.41-.65,4.56-1.84,6.1-2l16.2-1.65c-3.83,8.04,2.12,9.89,4.27,13.22.38.58-1.15,2.01-1.78,2.34l-5.34,2.71,2.62,1.95c-2.52,1.78-5.83.37-6.85-1.96l3.45-3.66c-3.35.54-4.91.9-7.04.3l5.77-3.24-6.52.3c-1.02.05-1.54,2.2-.64,4l-1.41,3.46,3.51-.62c.74-.13,2.18,1.77,2.13,2.01l-11.88,4.84-1.24-4.26-7.06.2c-.15.18-.07,2.1.46,2.43l2.04,1.26.99,3.96c-.39,1.39-3.33,3.03-5.41,3.43ZM327.66,527.95c-6.72.41-12.44,2.2-19.66,4.56,3.22-6.92,10.15-11.8,17.83-12.51l12.8-1.17c.88-.08,2.88,1.98,2.61,2.43l-10.08,3.84-3.8-.99.29,3.84Z"/>
      <path class="cls-2" d="M-30.94,535.33l3.25,4.53,7.84-1.92-4.55,4.62,3.14,6.88c-2.54-.42-4.13-1.23-6.63-2.81l-4.26,5.13c-.16-2,.07-3.63.35-5.48.25-1.62-2.2-2.81-4.64-4.23l5.28-1.24c-.15-3.1-1.74-6.86-3.32-10.11,2.84-.66,6.7-4.03,6.09-6.72-.15-.63-1.88-2.3-2.12-2.49l2.78-3.16c-3.24-6.5-2.98-13.8-3.91-20.7-1.1-8.2-3.38-16-5.63-24.06l-21.88,8.36-22.18,6.42-22.36,6.4,1.39,1.72c.22.27-.84.63-1.18.55l-6.58-1.39-2.42-4.73c-1.81-3.55-2.23-7.59-.93-11.56l2.87-8.81c.34-1.05-.64-3.65-1.48-4.32-.96-.76-3.44-.91-4.71-.59l-1.93.49c-1.86.47,2.87-3.44-.48-9l-5.95-9.89c.27-6,4.85-9.81,4.96-12.91.02-.51-1.65-.23-2.12,0l-1.84.94c-.52.26-1.57-.86-2.04-1.51l6.29-4.71c2.23-1.67,3.86-2.62,6.35-2.95l5.22-2.44-4.34,4.92-.23,2.56c-.06.7-2.18.52-2.73.1-.86-.69-1.61-1.38-2.03-1.02-.51.43-1.82,1.57-1.75,1.51,5.15,3.63-3.54,7.62-3.56,14.31-.01,3.03,3.11,6.78,4.78,8.88,4.06,1.52,6.02,4.5,5.14,8.66,4.7,2.78,4.99,7.42,2.62,11.96-1.75,4.53-3.42,10.51-.4,14.73,2.68-.3,5.56.21,7.94,2.47l29.11-8.26c12.72-3.61,25.29-6.53,36.59-13.35l-1.42-2.49c-.22-.39.7-1.45,1.07-1.98l-12.23-11.56c-10.88-10.29-22.04-19.78-32.06-30.9l-5.41-6-2.42,1.37c-.53.3-1.82-.67-2.46-.8-3.1.88-7.97,2.31-11.63,2.48l13.24-4.76c-.91-1.45-1.56-3.11-1.24-3.7,2.73-.13,5.08-.65,6.55-2.88l17.55-13.24,1.09-2.53c.24-.57-1.24-1.78-1.83-2-11.03-4.19-21.38-9.16-32.77-12.39-11.26-3.2-22.15-5.77-32.98-10.19-3.41-1.39-4.11-4.9-3.8-8.15-.89-1.12-1.69-2.88-1.58-4.24l.25-3.17c.06-.7,2.26-1.21,2.91-1.63l9.43-15.35c-.29-.34-1.39-1.28-1.13-1.48l2.24-1.69c-1.51-3.24-3.85-7.06-6.32-10.12-3.4-4.21-5.15-9.13-8.28-13.47-6.81-9.41-16.14-17.25-24.17-25.71-1.27.03-2.93,1.59-3.16,2.57l-2.45,10.65.6,2.23c-.4,2.61-.07,4.09,1.05,7.24l-2.86-.27-5.96,11.32,2.69,1.03c-2.54,2.09-2.25,6.97-1.28,7.86.64.6,2.83,1.26,3.73,1.27l3.28.05c.72.01-.21,1.58,2.83,4.24.38.33.59,1.46.52,1.67l-3.68-.38c-.68-.07-1.39,1.11-2.11,1.95-1.58-1.08-2.85-3.63-.81-5.23-3.44-.79-6.98-2.53-6.85-7.12l-3.78,1.14.3-4.35c4.84-2.87,8.71-8.93,8.91-14.76l-4.86-3.99c2.33-1.54,3.68-1.65,6.47-1.45l2.83-13.93c.12-.57-1.12-1.91-.94-2.33l.94-2.13-3.37-2.8,2.52-1.27c.53-.27.92-1.34,1.54-2.27.44-.66,1.33,2.21,1.62,3.29l5.85.05-4.02,2.91,24.43,24.54c1.66,1.67,2.59,4.89,3.84,7.4l12.19,17.54,3.99-.56-1.28,6.68-2.89-.54-10.84,17.42,3.61,1.41c.66.26.28,2.08.03,2.77-.37,1.02-1.51,1.43-3.71,1.58-.32.63-.47,4.36.02,5.74,1.47,4.14,22.44,9.29,31.47,11.58,5.92,1.5,11.47,3.6,17.13,5.86l18.72,7.47,5.48-2.91c1.16,1.82,2.51,2.93,4.58,4.1l-2.73,1.95c-.55.39-.1,1.81.08,3.34l-3.58-.33c-7.04,4.48-13.97,9.54-20.52,15.23.43,1.37,2.26,2.38,3.72,2.39l51.04.42,16.09,1.04-1.92-7.36c-.98-3.76-3.56-5.26-7.46-5.09-4.41.2-7.06-3.73-8.2-8.54l-.55-2.32c-.14-.57,1.68-1.24,2.08-1.69,3.09-8.97-2.83-14.68,4.33-21.64.1-1.09.58-2.6,1.26-3.25.98-.93,3-.07,4.03.48,14.14-2.07,16.28,1.11,24.25,4.98.33.16,2.07-.64,2.31-.36l1.87,2.17c-1.45,1.51-3.43,2.55-6.22,3.51l-.38-4.04c-5.24-6.25-19.24-7.58-21.57-1.61l-3.25-.65c-4.05,2.23-4.7,6.05-4.14,10.3.59,4.51-.43,9.01-1.28,13.82l5.55,7.37c9.24.96,8.23,5.15,10.79,13.96l4.3-.04-1.06,5.92c-.11.6.01,3-.05,2.78l-2.46-1.7c-.46-.32-1.54.91-2,1.37l-16.93,16.75,3.07,1.11c.7.25.96,2,1.16,2.94l4.57,3.92c-3.03-1.15-4.64-1.82-7.04-1.88l-7.72-.17,1.38-2.4c.32-.56-.76-1.59-1.45-2.32l3.8-.92,19.62-19.61-4.12-1.05,2.48-3.12-10.38-1.28-52.79-.31c-2.69-.02-4.47.08-7.61.71l5.22,6.43c8.51,10.47,19.01,18.69,28.67,28.14,5.74,5.61,10.98,10.98,16.95,15.91l.84-2.17c1.17-3.02,1.46,1.78,4.3,3.44-.72,1.24-3.01,3.57-5.23,5.11l5.13,24.84.72,8.68c.28,3.43,1.08,8.92,4.77,10.16,2.77.93,6.69-1.04,9.26-1.86l8.05-2.6,1.15-3.34c.3-.86,2.98.14,3.26,1.01.21.65.53,2.33,1.06,2.31l2.36-.08,1,2.5c.22.55,1.94.35,2.56.52,7.22,1.93,21.03,7.07,21.03,7.78v1.98s4.03-1.03,4.03-1.03l-1.25,3.87c-.49,1.52,3.14,5.68,3.32,5.44l1.78-2.37c.38.59.06,3.79-.92,4.41-2.56,1.65-3.28-3.92-7.48-5.09l-2.06-1.52c-1.44-1.06-8.46,6.24-11.81,2.42l-4.75-5.42-9.83.04c-7.87.03-15.32-.85-22.67-3.79,0,3.59-1.56,6.08-3.88,8.05l-.74,4.99ZM17.24,529.81l6.25-3.51-1.99-3.11c-7.37-3.49-14.61-6.13-22.79-6.79-.86.49-3.28,1.58-3.8.88l-2.26-3.04-12.74,4.44c-.62.22-1.91,1.74-1.6,2.31,2.15,3.93,17.13,3.7,25.76,3.37,6.92-.26,5.49,6,9.02,6.48.93.13,3.31-.54,4.17-1.03Z"/>
      <path class="cls-2" d="M233.06,590.5c-1.99,2.64-4.41-.46-7.7-.4-.91.02-3.44,5.5-3.7,3.25l-.24-2.1.3-4.46c-3.82-1.17-7.63-1.42-11.48.04l-9.22,3.51c-.74.28-2.48,2.49-2.74,2.49-3.1-6.23-14.91-4.69-24.56-4.09l-2.37-.34c.59.08-7.41,8.59-15.22,13.5l-5.53,2.42c-.55-1.69-1.21-2.91-2.31-3.99l-8.35-8.2c-1.23-.67-3.84,1.19-4.98,2.8-6.25-.68-8.68-5.48-13.03-.94-.86.9-2.7,2.15-4.17,2.86-7.77-5.77-5.59-12.98-15.44-9.53l-21.67,7.58,4.28,8.67,1.41,2.31c.35.57-.97,1.55-1.72,1.96-.59.32-2.19-.23-2.09-.85.19-1.13.43-3.07,0-3.81-.6-1.03-2.35-1-4.77-.38l.05-6.2-4.74-1.39,4.94-2.38-.19-29.77c-.57-1.76-1.86-4.43-.32-6.19-3.45-5.45-6.26-11.45-9.17-17.49l-8-16.58-3.77,1.9.6-4.51c-7.9.5-15.06,1.53-22.57,3.02.87-1.34,2.34-1.91,3.84-2.11l16.24-2.17,3.8-3.05c.31-.25.86-1.39,1.07-1.73s1.28-.06,1.39.08l.56,3.08c.11.58,2.12-.31,2.7-.41.41-.07,1.53.72,1.41,1.13l-.93,3.24c8.86,3.43,18,6.17,27.54,8.21l12.31,2.64c.85.18,3.17-.52,3.59-1.17.5-.78.7-1.93,1.38-4.25l2.58,2.97,9.89-2.64c2.24-.6,5.36,5.44,10.47,7.22l19.71-5.77c.75-.22,2.1-1.38,2.23-2.15.49-2.87-4.8-.07-9.71-4.61l4.17-2.38,6.02,1.21c-.62.86-1.34,1.56-1.25,2.02s.82,1.48,1.27,1.86l4.69,3.95c-.97,2.14-.58,5.15.85,7.1l-7.04,10.65c-1.39,2.1-3.21,5.7-2.48,8.3s2.45,6.61,4.14,8.1l1.94,1.71c.38.33-.52,1.29-1.47,2.41l9.75,9.77,5.58,5.83,3.33-.73c-.94,2.29-1.56,3.48-1.31,4.46.24.92,2.52,1.04,3.63,1.04l13.66.03c5.32.01,10.55,1.42,15.76-.02l12.04-3.33c3.49-.97,5.74-2.93,8.37-5.96l4.13,4.81,5.62,3.1-4.92,1.95,1.91,2.87ZM142.88,592.71c4.74,5.81,9.86,10.99,14.61,6.81l10.34-9.1c3.09-2.72.9-8.37-1.81-10.91l-13.39-12.57c2.86-5.44-5.49-10.03-3.4-15.59s5.28-10.32,8.87-15.51l-2.71-6.37c-7.81,1.6-16.06,3.83-23.29,6.8-.88.6-2.27,3.38-3.83,2.38l.38-3.81-6.03-6.08c-3.5.23-6.73,1.06-9.44,2.04.8.87,2.09,2.33,1.55,2.48l-2.83.76-1.97,4.44-1.03-5.19c-2.79.27-6.48.5-9.4-.3l-27.84-7.57c-2.93-.8-5.21-1.9-8.86-1.65l14.27,30.05c1.04,2.19,2.32,2.86,5.47,3.55l-2.99,5.85.13,30.35,28.55-9.66c3.81-1.29,8.62-1.58,12.49-3.34.62-.55,1.28-.98,1.33-.67l.27,1.77,3-2.84,2.77,7.4c-1.23.02-3.74-.21-4.33.47l-2.41,2.79.18-2.96.18-2.99c.04-.68-2.32-.94-3.04-.73l-7.05,2.05,3.98,8.06c.32.66,2.01,1.74,2.73,1.64,2.11-.3,5.17-6.9,10.98-2.8,3.71,2.62,8.5-.62,8.51-1.75l.04-3.1,5.4.55c-.47,1.29-1.18,4.29-.38,5.26Z"/>
      <path class="cls-2" d="M402.59,621.83l6.53,1.37c-2.99,1.88-6.51,1.8-8.98.64-6.76-3.18-7.18,2.93-13.01,2.53-.42.04-1.08,1.72-.95,2.34.17.77,1.49,1.87,2.26,2.06,3.77.91,4.29,3.78,3.72,7.06-.44,2.51-.6,4.52-2.19,6.8-4.18-5.36,1.57-8.98-1.48-10.99l-5.86-3.87c-2.53,4.71,2.48,9.91-1.29,12.67-1.65-5.39-1.98-10.22-2.03-15.84-.04-1.31-3.54-.95-4.57-.16-1.75,1.36-.91,3.69-1.02,5.76-.43,7.6-12.4,5.23-14.87,6.52-.54.28,1.09,2.21,1.77,2.12l11.01-1.44,7.88,4.94c.78.49,3.55,1.53,2.87,2.05-3.58,2.75-7.32.16-10.26-2.45-2.04-1.57-6.54-.75-9.24-.59-3.15.19-7.01-1.43-6.8-5.01.12-2.1,4.17-3.22,6.25-2.8,3.53.72,6.7-.5,8.47-2.72,1.85-2.32,2.12-7.69-.22-9.01-5.61-3.15-10.68-9.04-10.59-12.77.1-4,5.19-6.42,5.94-10.13.24-1.22-1.3-3.72-2.16-4.83,1.69-2.27,2.13-4.55,1.35-7.39,2.38-.74,3.78,1.83,3.06,4.13s-.69,4.2.02,6.72c1.69,6.03-9.66,10.08-3.67,14.29l2.95-4.45c-.47,4.33-.04,7.65,2.51,10.58l3.99-.64c.44-1.41.78-2.4,1.31-2.75.67-.43,2.23,1.04,2.64,2.14.36.99,2.74,1.45,3.96.93,1.09-.46,2.33-2.42,2.9-3.55,2.5.53,4.39.51,7.1-.04,5.23-1.06,13.06-1.35,17.58,2.39,5.08,4.2,6.47,13.07,4.54,18.92-1.62,4.92-6.26,7.4-10.09,9.96l-9.66,6.45c-7.61,5.08-15.33,6.24-24.22,5-7.03-.97-13.16-2.26-19.31-6.34-1.48-.98-3.33-2.58-3.93-4.1-.55-1.4.5-4.56,1.96-5.21s1.43,2.15,1.8,2.82c1.88,3.46,7.44,4.5,11.09,4.76l15.25,1.07c4.1.29,10.62,1.87,14.29-.28l15.46-9.09c8.54-5.02,5.75-18.16,1.25-21.6-6.31-4.82-21.14-2.92-20.78.94.06.6.66,2.18,1.26,2.11,3.09-.33,7.06-7.31,14.24-1.99ZM385.76,654.97l-10.15-.61-15.6-.17,16.47,2.5c3.28.5,6.62-.56,9.28-1.73Z"/>
      <path class="cls-2" d="M110.47,368.22c-.38-4.31-5.6-6.58-9.23-7.02l-18.69-2.27c-3.33,1.86-6.72,4.94-9.53,7.43-3.02,2.69-5.46,4.52-8.17,8.67l22.08.41c5.43.1,9.64,3.6,12.17,7.71,2.32,3.78,2.05,7.49-1.2,10.63-4.69,4.53-5.89,11.24-3.6,13.15.57.47,2.51.53,3.19.22l16.47-7.6-1.34,3.14c-.34.8.79,2.15,1.93,3.9l-5.6,1.13-.32-4.41-10.27,4.81c-1.19.56-3.76,1.15-4.77.52-5.01-3.1-.5-12.3,3.2-17.85,1.05.85,1.41,1.06,1.58.73l1.33-2.52c-1.59-7.83-8.4-12.74-16.4-12.27l-15.27.17-1.26,2.6-5.43-.03c-.99-3.09-2.73-7.01-4.39-10.09l-5.9-10.91-3.51,1.29.97-3.99c.17-.68-1.38-1.72-1.98-2.32l1.84-2.25c.52-.64-.2-2.69-.59-3.51l-7.62-16.25c-.66-1.41-1.32-2.67-2.42-4.08,4.84-5.32,7.71-12.93,7.04-20.42-1.78-.53-5.09,2.01-4.32,3.31s1.93,3.46,1.54,3.95c-3.09-.94-4.36-1.21-6.62-.28l-1.73.71c-.32.13.12-.94.27-1.26l2-4.57-3.08-.04,2.13-4.39c2.33,2.55,3.03,2.73,5.63,1.8,3.62-1.29,5.77.48,8.01-1.53-1.7,7.46-4.12,15.09-8.16,22.25,2.54,8.77,6.66,16.55,11.13,24.58-.06.26-.67,1.84-.26,1.91l3.39.59c-.05.41-1.02,1.73-2.36,3.19l8.19,15.86c8.66-2.9,14.25-11.71,23.13-16.37.16-1.04.96-3.14,1.76-3.41s2.02.79,2.97,1.54l4.35,3.45c8.2,1.24,19.87,2.78,19.64,9.93l-.27,8.54,9.39-6.31c.66-.44,1.55-2.16,2.31-2.29.98-.17,2.29,1.82,2.18,2.94,1.03,3.1,4.51,3.86,7.3,2.57,3.43,2.91,8.55,2.72,10.99-1.53l6.15,4.37c-.69.83-1.22,1.3-1.18,1.67l.3,2.48-4.27-.75-1.86,2.89c-.44.68-2.46-.98-3.22-2.06-6.98.54-13.26,8.74-18.33,15.08.16,1.43.27,2.91-.13,3.67s-2.76,1.66-3.31,1.01c-.35-.42-.93-1.67-1.33-1.67h-2.66c2.02-2.09,3.66-3.13,6.27-4.72l6.17-6.68c4.14-4.48,8.22-7.11,14.15-9.23-.23-.62-2.38-1.77-3.15-1.53l-9.03,2.85c-.42-2.76-.89-3.74-2.48-4.97-2.1-1.63-4.5-2.24-6.75-.66l-10.31,7.27c.41-4.6,1.51-8.57,1.13-12.87Z"/>
      <path class="cls-2" d="M104.31,486.69c-4.52,2.45-5.65-4.97-10.98-2.04l.55,1.89c.1.33-1.2-.18-1.63-.36l-3.75,1.74c-.52-2.68-1.14-3.84-3.03-4.74l-10.07-4.79c-2.96-1.41-5.31-1.83-9.19-1.9l.91-2.57c-2.44-4.24-5.84-8.53-9.95-11.97-9.29.42-17.33,4.14-24.86,9.3-1.61,1.1-2.08,4.33-5.25,3.72l.61-3.53c-3-.08-5.52,0-8.92-.85l8.93-1.5c.55-.09,1.89-1.59,2.24-1.26l2.08,1.93c6.37-4.1,13.17-7.62,20.88-8.7l3.61-4.23,1.07,2.79,9.59,10.2c.98,1.05,3.85.6,5.43.15l-1.22,4.72,16.34,8.35,7.85-2.85-.45,1.82c-.06.23-.03,1.01.14.85l1.48-1.42c.86-.82,3.71-.14,5.01-.07l19.19-7.83,26.19-12.07-1.03-3.28,5.29-1.84c.38-.13,1.78-.55,1.88-.18l.46,1.8,5.32.88c5.06-4.14,9.97-10.54,7.07-15.36-.55-.92-2.97-1.39-4.1-1.35l-2.12.07c-.48.02-.07-1.52.13-1.77l4.7-1.28-1.35-6.33,1.43-.38,2.38,4.96,5.95-.73c-.48-1.63-.67-2.75-.11-2.7l2.28.2c.51.04.83-1.44,1.14-1.86l1.14-1.54c.24-.33,1.78.4,1.66.8l-1.07,3.4c5.61,2.77,11.13,5.41,15.59,9.8l11.47,11.29,5.01-5.81,1.14.85-2.51,4.63c7.25.12,13.53-1.44,20.17-4.04l7.83-3.08-2.26-7.25,5.71,5.24,3-5.76c2.01,1.56,1.17,3.62-.07,5.55,3.14,1.84,5.49,4.07,6.9,7.35l5.7.91-7.18,3.43c-1.34-.97-2.1-4.07-1.91-6.9.1-1.46-3.85-2.65-4.94-1.69-.32.28-.94,2.02-1.27,1.82l-2.17-1.31c-7.36,2.49-14.82,5.73-22.73,6.7l-7.75.95.34,4.64-2.97-2.22c-1.35,1.37-1.86,1.84-3.77,2.62l2.1-5.27c-6.33-8.06-13.75-15.09-22.99-19.54l-2.95-.35c-.77-.09-1.23,2.02-1.49,2.85-.09.3-1.53.6-1.63.3l-.81-2.35-5.41.96,4.33,5.63-4.19-.72c.69,5.95-2.8,9.76-6.4,13.63l-5.04,5.42c-.3.33-.74,1.8-.88,2.23-.6,1.84-3.91-1.36-4.63-.83l-3.23,2.36c-.43-.28-.68-1.9-.79-3.86l-17.07,7.52-28.97,12.05c.06,1.35,1.22,2.54,2.86,3.91Z"/>
      <path class="cls-2" d="M12.05,470.25l8.94-3.67c6.51-2.67-12.7-13.5,4.07-27.98l7.01-6.05-3.13-4.74-4.08.02,1.48-2.57c1.04-1.8-2.77-3.74-1.08-5.86l3.74,1.65,4.11-3.03-1.08,5.68,5.29,1.9c-.93.88-2.33,1.23-4.48,1.41-.33-.17-.22,3.47-.03,3.46l8.28-1.37,8.32-2.39,23.56-4.09-3.12-12.45c-.33-1.3-2.75-3.05-3.42-2.17-.83,2.05-1.78,4.52-3.47,5.56-1.27.78-4.33.86-5.58.37.26-5.96-.57-9.42-1.78-15.06.87.64,2.19,2.22,2.43,3.15l1.68,6.38,9.39-2.36c2.88,3.81,3.44,7.72,4.58,12.25.54,1.86,4.17,3.94,5.84,5.1l-3.77.86c-.72.16-1.19,1.21-2.3,2.64.02.03-.73-1.35-1.4-2.57l-24.65,4.21c-1.64.28-3.7,1.69-5.16,2.56-1.25.28-4.71-.69-5.8.19l-7.74,6.27c-4.33,3.51-9.23,7.49-9.26,13.93-.04,6.88,9.52,13.68,2.6,16.2l-9.07,3.31c-9.23-.15-15.45-7.55-27.23-10.51-.49-.12-1.7-.68-1.82-1.17-.15-.65.07-2.21.35-2.82l.95-2.04c.29-.62,3.89,2.5,4.64,2.17l3.13-1.38-.53,5.46c5.97,3.95,12.39,7.06,19.59,9.54Z"/>
      <path class="cls-2" d="M4.21,369.21l-3.28-4.43-4.88,1.16c.15-1.77.35-2.55-.13-2.89-.57-.4-1.76-.91-1.7-1.29l.24-1.74c-4.69-2.99-10.2-6.09-13.73-10.53l-6.65-8.36,5.48,4.02c.28-.04,1.7-.66,1.54-1.07l-1.2-3.07c.93.05,3.73.47,4.56-.37l13.22-13.24-.61-8.6c3.88,3.65,8.41,4.65,12.79,2.18,7.48-4.22,14.95-8.14,23.68-10.35-4.72,3.79-10.19,5.22-15.6,7.78l-13.98,6.6-1.24,2.25c-.26.46-1.84-.19-2.63-.44l-12.92,13.77c-1.19,1.26-2.37,3.59-3.64,4.61l-1.7,1.36c-2.25,1.79,10.45,11.69,18.25,13.94.18-1.28.88-3.88,1.9-4.15,1.49-.39,2.74,2.52,2.17,4.35l6.23-1.3c-1.96,2.21-3.22,2.79-5.41,3.89l-.74,5.92Z"/>
      <path class="cls-2" d="M132.56,433.68c-4.4,1.48-13.02-6.85-20.11,1.26-.5.58-2.11,1.96-2.61,1.55l-2.27-1.85-3.47.64c.88-2.55,1.2-3.78,1.13-6.08,3.46.23,6.4-1.56,9.46-4.7l.84,3.56,2.92-.71c.81-.2,2.06,1.91,2.93,2.16l8.89,2.62c3.23.95,6.44-.62,9.16-2.39,1.88-1.22,3.61-.9,5.72-.53,3,.53,5.5-3.64,7.88-5.1,3.73-2.29,9.06-1.12,13.34-2l12.86-2.66-.18-1.66c-.03-.27.99.16,1.37.32l5.55-1.83-1.06,3.19c-.18.55,1.64,1.27,2.27,1.31l14.55.86,2.66.32c.69.08,1.83-1.31,1.76-2-.08-.75-1.09-3.05-.4-3.36l3.26-1.47c1.45-.65,1.29-3.72,1.29-6.57,2.36,1.22,3.39,3.82,3.97,6.7l6.53.03-4.36,4.41,1.2,7.19-5.19-5.78c-1.05-1.16-4.61.85-5.36,2.43l13.53,6.57,4.88,2.23c-1.2,1.16-3.13,2.69-4.25,3.21-.37.17-2.24-.62-2.17-1.01l.5-2.76c-5.72-3.66-12.23-8.12-19.29-8.84l-12.73-1.29c-4.16-.42-7.73-.9-11.88-.2l-17.71,3.01c-3.6.61-6.41,1.56-8.83,4.3l-1.65,1.87c-.4.46,1.05,1.19,2.5,2.18l-6.55,3.62v-6.38s-10.86,3.65-10.86,3.65Z"/>
      <path class="cls-2" d="M422.43,617.86c-2.8-2.01-4.65-3.96-6.06-3.33-3.05,1.37-4.2,2.02-7.19,1.62l4.36-4.54c.25-.26,1.08-1.17.85-1.4l-1.54-1.55-1.36-1.64c-1.95-2.35,5.48.53,5.8.35l3.68-2.1c.5.54.86,2.92.87,4.64l26.42-3.57,13.25-1.36-1.91-3.44,4.5,1.29,4.83,1.78-2.11,1.74c-.56.46-.3,2.3-.23,3.08l.19,2.12c.04.47-1.7-.38-1.98-.75l-1.2-1.61c-.65-.87-2.28,3.4-5.2,2.7l2-5.18-13.56,1.24c-8.59.78-17.34,2.06-25.73,4.05.75,2.38,1.13,3.74,1.35,5.89Z"/>
      <path class="cls-2" d="M10.63,549.06l-2.36-1.82c-1.56-1.2-2.94,5.18-6.36,5.39l1.2-6.29c-2.03-.98-4.31-2.55-5.36-4.32l6.99-.52.85-7.53,4.96,6.48c1.51-.82,3.55-1.54,5.9-.74l-4.36,5.1,2.68,4.8c-.09.33-1.56,1.44-1.91,1.17l-2.22-1.71Z"/>
      <path class="cls-2" d="M155.73,418.85c-3.02-.05-5.18-5.01-6.96-3.06s-3.11,3.33-5.4,4.54l-.32-7.17-6.77-1.84,6.42-1.6c2.46-.61,2.35-3.93,2.34-7.66l4.55,5.24,4.96-1.1-2.6,5.59,4.04,5.13c.25.32.15,1.94-.26,1.94Z"/>
      <path class="cls-2" d="M79.92,343l.52,4c.1.79-1.45,1.62-2.45,2.14l-1.98-5.87-4.73-.4c.21-1,.52-2.38.03-2.8l-2.68-2.32c3.88-.29,6.18-1.14,7.84-5.48l3.44,2.75c.76.01,3.85-.24,3.59.67l-.87,3.05c-.37,1.3,1.99,1.69,2.28,4.41.05.43-.82,1.44-1.23,1.3-.55-.18-1.54-.82-1.96-1.28l-1.28-1.4c-.22-.24-.57.89-.53,1.22Z"/>
      <path class="cls-2" d="M28.5,385.44c1.11-.84.08,2.75.7,6.78l.29,1.88c.07.45-.59-.18-1.74-.92l-1.64,1.33-6.02,1.16c-.89-.27-.5-2.68.56-4.61-3.25-2.15-6.92-3.58-11.17-4.57l-2.86-10.09,5.44,5.6c.11.64.13,2.2.11,3.27l8.45,3.63,6.23-2.24c.36-.13,1.33-.98,1.64-1.21Z"/>
      <path class="cls-2" d="M461.42,596.85c.25,2.18-5.63-2-6.21-1.76l-3.81,1.56c-.85.35-.73-2.48-.35-3.35l1.03-2.34c.61-1.39-5.96-1.42-4.5-4.36,2.59.53,5.98,1.57,7.49.73l4.28-2.39-1.24,5.46,5.7,2.02-2.43,1.93c-.42.33-.08,1.51.03,2.5Z"/>
      <path class="cls-2" d="M407.52,514.88l-4.61,3.81c-.04-.55-.02-2.23.07-2.85l.37-2.51c.08-.51-1.69-.64-2.22-.68l-1.59-.12c-.44-.03-1.16-1.5-.72-1.59l2.29-.46c.82-.16,2.99-.16,3.16-.92l1.14-4.95,3.28,4.5,4.94.04-2.42,2.81c-.43.5.73,2.08,1.14,2.64l1.54,2.09c.32.44-.82,1.74-1.18,1.77l-5.19-3.61Z"/>
      <path class="cls-2" d="M168.13,569.81l-7.8-3.61.6-2.36c.18-.7-1.82-.92-3.54-1.15.71-3.06,4.99-.96,6.08-2.79l1.86-3.13c.45-.78,2.09,1.87,2.02,3.12l6.27,1.39-5.44,3.87-.05,4.67Z"/>
      <path class="cls-2" d="M64.38,475.75c.05.72.16,2.6.16,2.47l-3.01.2c-.66.04-1.03,1.96-1.23,2.5l-3.75-1.75-2.08,3.68c-1.19-3.64-1.77-7.15-1.69-10.38l5-4.75,3.05,6.07-4.08-1.38c-.28.11-.95,1.64-1.03,2.34s1.12,2.22,1.79,2,2.09-.94,2.65-1.38l2.01-1.59c.56-.45,2.15,1.26,2.19,1.97Z"/>
      <path class="cls-2" d="M58.46,574.76l-5.34,3.67.16-8.63c.05-2.85-5.97-.55-7.8-3.66l8.56-.19.85-6.86,1.26.08.52,5.69,6.39,3.59c-.5.93-2.25,1.72-2.85,1.31l-2.96-1.98c-.7-.47-2.01,1.73-1.79,2.58.33,1.28,1.06,2.15,2.98,4.39Z"/>
      <path class="cls-2" d="M286.19,570.67l-6.16,5.57c1.47-7.52,8.62-10.59,15.61-9.98s13.18-5.23,20.48-3.81l-14.77,5.59c-4.11,1.55-10.16-1.89-15.17,2.63Z"/>
      <path class="cls-2" d="M55.49,396.76c-5.36-3.37-3.55-9.68-8.6-13.58.12-2.61-.4-4.16-2.13-6.22-4.62-5.52-9.8-7.74-17.23-7.44,6.57-3.31,13.54.37,17.38,5.68,2.13,2.96,3.86,4.84,7.3,7.13l-1.18,2.25,4.46,12.19Z"/>
      <path class="cls-2" d="M128.88,513.85l-4.6,1.81-1.26-5.41-7.15-4.61,6.84,1.34.61-8.27,2.44,6.75,5.2.47c.39.04.89,1.76.52,1.78l-2.34.14c-.93.05-3.23.83-3.25,1.76s.86,1.89,3.01,4.22Z"/>
      <path class="cls-2" d="M50.6,444.45c-.86.46-3.25-.42-3.77-1.54-.4-.88.74-2.07,1.48-3.08l1.43-5.09,4.79,4.37c2.89-1.74,6.38-4.22,8.93-6.68l2.99-5.67c1.64,4.5-2.02,7.59-5.16,9.54l-6.17,3.83c-1.08.67-3.81-.89-4.66-1.59-.21.14-.26,3.27.49,3.27h4.6s-4.95,2.64-4.95,2.64Z"/>
      <path class="cls-2" d="M189.89,604.62l.48-4.97-3.96-1.62.03-1.3,5.41.55,2.36-4.61,3.6,4.64-2.22,1.52c-.43.3,1.32,1.33,1.65,1.74l1.03,1.3c1.53,1.91-4.58-.05-5.1.34l-3.29,2.41Z"/>
      <path class="cls-2" d="M36.88,331.18c-3.27,3.13-6.95,1.9-10.53,5.39.37-4.7-3.63-7.21-2.26-7.1l1.86.15,1.6.13c1.12.09-.47-5.53,2.33-5.64l1.06,6.19,5.94.9Z"/>
      <path class="cls-2" d="M253.89,580.95l7.95-.33c4.55-.19,6.25-5.79,7.18-9.66,4.87,1.84-.13,10.73-5.3,12.1-3.46.92-6.81.39-9.83-2.12Z"/>
      <path class="cls-2" d="M359.32,550.43c2.01,2.95-5.49-1.6-8.31.93l-3.45-4.08c-.23-.28-.4-1.36-.05-1.3l2.06.31c2.29.35,3.65-.05,5.3-2l5.37,1.26-2.33,2.83,1.4,2.05Z"/>
      <path class="cls-2" d="M19.12,353.89l-4.34,1.5-1.52-4.52c1.63-.74,2.99-1.76,3.29-2.75l.56-1.83c.11-.37,1.1.42,1.31.77.95,2.1,3.28,2.78,5.46,2.71l-1.58,4.99c0,.77-1.72.49-3.18-.87Z"/>
      <path class="cls-2" d="M233.37,465.27l.14,2.77c.02.49-1.45-.02-1.76-.38l-1.29-1.51c-.27-.31-1.35.42-1.87.7-.34.18-2.03-.07-1.86-.41l1.09-2.22c.17-.35,1.08-1.24.82-1.54l-2.07-2.35,3.74-.13,1.7-2.89,1.08,3.33c.23.7,1.34.99,3.13,1.37,1.13-.08,1.03,1.79-.17,1.53-1.38.39-2.7,1.02-2.66,1.73Z"/>
      <path class="cls-2" d="M20.62,375.4l-.85-3.17-7.29.64c3.27-.97,5.27-1.74,7.79-2.84l6.97-3.06-1.55,2.81c-.37.68.42,1.95,1.29,3.79l-6.36,1.83Z"/>
      <path class="cls-2" d="M98.16,470.2l-4.92-2.1c3.15-2.67,4.92-3.83,8.55-4.7.31,2.64.5,5.79.22,7.48-.17,1.07-2.92-.28-3.85-.67Z"/>
      <path class="cls-2" d="M76.14,385.53c-.53,1.08-5.97,2.11-6.4,1.46l-1.71-2.58,3.81-4.17c.6.7,1.54,2.08,2.17,2.15l3.2.32c-.06.27-.75,2.16-1.07,2.82Z"/>
      <path class="cls-2" d="M76.53,546.95l.55-5.09-4.42-1.87c2.08-2.14,3.83-1.58,6.47-.41l3.3-5.97c1.69,1.82,1.57,3.58,1.15,5.24l5.24,2.17c-3.91,2.26-4.91,1.81-4.96,6.19l-7.34-.26Z"/>
      <path class="cls-2" d="M100.43,554.98c-1.54.27-5.19-.39-5.22-1.83-.05-3.07-.24-3.86-2.05-6.95-.25.01,2.36-.14,3.47-.2.77-.05.05,2.08-.13,3.19,2.9-1.5,2.5-4.38,1.07-7.46,1.71-.26,2.66.86,3.55,2.89.64,1.46.71,3.31.49,4.47l4.4,4.9-5.58.99Z"/>
    </g>
  </g>
</svg>