<?xml version="1.0" encoding="UTF-8"?>
<svg id="Layer_1" data-name="Layer 1" xmlns="http://www.w3.org/2000/svg" viewBox="0 0 471.92 768">
  <defs>
    <style>
      .cls-1 {
        fill: #ff1516;
      }
    </style>
  </defs>
  <path class="cls-1" d="M102.05,350.82l1.27-6.05c.06-.34.15-.8.27-1.36.14-.56.28-1.15.42-1.75.16-.63.29-1.18.39-1.66.12-.48.2-.82.24-1h-.18c-.38.83-.84,1.61-1.36,2.36-.52.75-1.14,1.35-1.84,1.81-.71.46-1.52.69-2.45.69-1.17,0-2.12-.46-2.84-1.39-.71-.95-1.06-2.33-1.06-4.14,0-.95.12-1.94.36-2.96.26-1.05.64-2.06,1.15-3.02.5-.99,1.12-1.87,1.84-2.66.73-.81,1.56-1.44,2.51-1.9.95-.48,1.99-.73,3.14-.73.54,0,1.14.08,1.78.24.64.14,1.17.33,1.57.57l1.51-.82h1.06l-4.17,19.71c-.06.28-.11.55-.15.81-.02.26-.03.44-.03.54,0,.6.2.99.6,1.15.42.18.92.27,1.48.27h.24l-.27,1.27h-5.5ZM99.9,341.96c.54,0,1.09-.21,1.63-.63.56-.42,1.09-.98,1.57-1.66.5-.71.94-1.47,1.3-2.3.38-.84.66-1.68.85-2.51l1.12-5.35c-.16-.28-.44-.53-.85-.75-.4-.22-.89-.33-1.45-.33-.83,0-1.56.24-2.21.72-.64.46-1.22,1.09-1.72,1.87-.48.77-.89,1.6-1.21,2.51-.3.89-.53,1.77-.7,2.66-.16.87-.24,1.63-.24,2.3,0,1.25.18,2.15.54,2.69.36.52.82.79,1.36.79ZM124.02,343.87c-.81,0-1.43-.28-1.87-.85-.44-.56-.66-1.24-.66-2.03,0-.22,0-.49.03-.81.04-.32.08-.65.12-.97h-.24c-.56.93-1.12,1.73-1.66,2.42s-1.15,1.23-1.81,1.63c-.66.38-1.45.57-2.36.57-1.19,0-2.03-.33-2.51-1-.48-.69-.73-1.47-.73-2.36,0-.51.06-1.05.18-1.63.12-.6.24-1.17.36-1.69l1.18-5.29c.06-.28.12-.62.18-1.03.06-.42.09-.69.09-.79,0-.6-.21-.99-.63-1.15-.4-.18-.9-.27-1.48-.27h-.24l.27-1.27h5.62l-1.99,9.04c-.12.54-.25,1.18-.39,1.91-.14.72-.21,1.31-.21,1.75,0,.51.1.94.3,1.3.2.36.59.54,1.18.54.54,0,1.11-.2,1.69-.6.58-.42,1.15-.98,1.69-1.66.54-.69,1.02-1.44,1.42-2.27.4-.83.7-1.65.88-2.48l1.57-7.53h2.93l-2.09,9.7c-.06.22-.13.54-.21.97-.06.42-.12.86-.18,1.3-.04.44-.06.81-.06,1.09,0,1.03.33,1.54,1,1.54.34,0,.65-.05.94-.15.28-.12.61-.29,1-.51l.54.88c-.44.4-1.01.79-1.69,1.15-.66.36-1.38.54-2.15.54ZM135.23,343.87c-1.09,0-2.08-.23-2.96-.69-.89-.46-1.6-1.15-2.15-2.06-.52-.93-.79-2.1-.79-3.51,0-1.11.19-2.28.57-3.5.38-1.23.96-2.38,1.72-3.45.77-1.07,1.7-1.93,2.81-2.6,1.13-.67,2.43-1,3.9-1,1.27,0,2.26.31,2.96.94.71.6,1.06,1.45,1.06,2.54s-.38,2.07-1.15,2.99c-.75.91-1.78,1.64-3.11,2.21-1.31.57-2.81.85-4.5.85h-1.06c-.02.22-.04.44-.06.66v.6c0,1.31.28,2.33.85,3.05.56.71,1.39,1.06,2.48,1.06.97,0,1.82-.23,2.57-.7.77-.46,1.36-.96,1.78-1.48.2.14.3.39.3.76,0,.44-.19.93-.57,1.45-.36.5-.93.95-1.69,1.33-.77.36-1.75.54-2.96.54ZM132.81,335.19h.3c1.17,0,2.22-.19,3.14-.57.93-.4,1.65-.95,2.18-1.63.54-.71.82-1.52.82-2.45,0-1.35-.58-2.03-1.75-2.03-.58,0-1.13.2-1.63.6-.48.38-.93.91-1.33,1.57-.4.65-.76,1.36-1.06,2.15-.28.79-.5,1.57-.66,2.36ZM148.14,350.82c-1.07,0-2.01-.18-2.84-.54l.45-1.51c.24.08.54.15.91.21.34.08.83.12,1.45.12.99,0,1.89-.18,2.72-.54.85-.34,1.62-.8,2.33-1.36.71-.54,1.34-1.14,1.9-1.78.58-.63,1.1-1.23,1.54-1.81l-3.99-13.36c-.18-.6-.43-1.02-.76-1.24-.3-.24-.75-.36-1.33-.36h-.3l.24-1.27h4.41l2.36,8.16c.14.52.3,1.15.48,1.88.2.72.37,1.42.51,2.08.16.67.25,1.17.27,1.51h.09c.77-1.15,1.45-2.32,2.06-3.5.62-1.21,1.12-2.37,1.48-3.48.36-1.13.54-2.15.54-3.05,0-.42-.11-.8-.33-1.12-.2-.34-.58-.51-1.15-.51,0-.73.2-1.28.6-1.66.42-.38.88-.57,1.36-.57.62,0,1.12.21,1.48.64.38.42.57,1.06.57,1.9,0,1.57-.48,3.38-1.45,5.44-.97,2.06-2.26,4.31-3.87,6.77-.99,1.53-1.9,2.86-2.75,3.99-.83,1.13-1.66,2.05-2.51,2.78-.85.75-1.79,1.3-2.84,1.66-1.03.36-2.25.54-3.66.54ZM172.98,343.87c-1.71,0-3.11-.51-4.2-1.54-1.07-1.05-1.6-2.62-1.6-4.72,0-1.11.18-2.28.54-3.5.36-1.23.92-2.38,1.66-3.45.75-1.07,1.68-1.93,2.81-2.6,1.13-.67,2.46-1,3.99-1,1.07,0,2.04.21,2.9.63.87.42,1.55,1.1,2.06,2.03.52.93.79,2.13.79,3.6,0,.87-.11,1.78-.33,2.75-.22.95-.56,1.89-1.03,2.81-.46.93-1.05,1.77-1.75,2.51-.71.75-1.55,1.35-2.54,1.81-.97.44-2.07.66-3.29.66ZM173.31,342.33c.99,0,1.82-.31,2.51-.94.71-.65,1.27-1.46,1.69-2.45.44-1.01.77-2.06.97-3.14.2-1.09.3-2.09.3-2.99,0-1.51-.26-2.59-.79-3.23-.52-.65-1.25-.97-2.18-.97-.79,0-1.48.21-2.09.64-.6.42-1.13.99-1.57,1.69-.42.69-.78,1.45-1.06,2.3-.26.85-.46,1.7-.6,2.57-.12.85-.18,1.63-.18,2.36,0,1.53.27,2.61.82,3.23.54.63,1.27.94,2.18.94ZM196.02,343.87c-2.2,0-3.29-1.18-3.29-3.54,0-.36.03-.78.09-1.24.06-.48.13-.92.21-1.3l1.84-8.71h-2.3l.27-1.21c.87,0,1.7-.31,2.51-.94.81-.64,1.51-1.74,2.12-3.29h1.39l-.79,3.72h3.66l-.36,1.72h-3.66l-1.84,8.62c-.1.5-.19.99-.27,1.45-.06.45-.09.83-.09,1.15,0,.58.14,1.01.42,1.27.28.26.68.39,1.18.39.42,0,.86-.06,1.3-.18.44-.14.84-.3,1.18-.48l.51,1.12c-.6.42-1.25.78-1.93,1.06-.69.26-1.4.39-2.15.39ZM215.11,343.87c-.81,0-1.43-.28-1.87-.85-.44-.56-.66-1.24-.66-2.03,0-.22,0-.49.03-.81.04-.32.08-.65.12-.97h-.24c-.56.93-1.12,1.73-1.66,2.42-.54.69-1.15,1.23-1.81,1.63-.66.38-1.45.57-2.36.57-1.19,0-2.03-.33-2.51-1-.48-.69-.73-1.47-.73-2.36,0-.51.06-1.05.18-1.63.12-.6.24-1.17.36-1.69l1.18-5.29c.06-.28.12-.62.18-1.03.06-.42.09-.69.09-.79,0-.6-.21-.99-.63-1.15-.4-.18-.9-.27-1.48-.27h-.24l.27-1.27h5.62l-1.99,9.04c-.12.54-.25,1.18-.39,1.91-.14.72-.21,1.31-.21,1.75,0,.51.1.94.3,1.3.2.36.59.54,1.18.54.54,0,1.11-.2,1.69-.6.58-.42,1.15-.98,1.69-1.66.54-.69,1.02-1.44,1.42-2.27.4-.83.7-1.65.88-2.48l1.57-7.53h2.93l-2.09,9.7c-.06.22-.13.54-.21.97-.06.42-.12.86-.18,1.3-.04.44-.06.81-.06,1.09,0,1.03.33,1.54,1,1.54.34,0,.65-.05.94-.15.28-.12.61-.29,1-.51l.54.88c-.44.4-1.01.79-1.69,1.15-.66.36-1.38.54-2.15.54ZM224.14,343.84l-2.12-13.6c-.1-.63-.33-1.05-.7-1.27-.34-.22-.81-.33-1.39-.33h-.3l.24-1.27h4.53l1.39,8.95c.1.69.19,1.38.27,2.09.1.69.18,1.32.24,1.9.08.57.14,1.02.18,1.36h.09c.73-.71,1.42-1.49,2.09-2.36.69-.87,1.28-1.74,1.78-2.63.52-.91.94-1.77,1.24-2.6s.45-1.54.45-2.15c0-.7-.17-1.26-.51-1.66-.34-.42-.8-.63-1.36-.63,0-.83.22-1.43.66-1.81.44-.4.91-.6,1.39-.6.62,0,1.12.22,1.48.66.38.42.57,1.14.57,2.15,0,1.19-.26,2.43-.79,3.72-.5,1.29-1.16,2.56-1.96,3.81-.79,1.23-1.61,2.37-2.48,3.41-.85,1.03-1.61,1.89-2.3,2.57l-2.72.3ZM242.29,343.87c-1.09,0-2.08-.23-2.96-.69s-1.6-1.15-2.15-2.06c-.52-.93-.79-2.1-.79-3.51,0-1.11.19-2.28.57-3.5.38-1.23.96-2.38,1.72-3.45.77-1.07,1.7-1.93,2.81-2.6,1.13-.67,2.43-1,3.9-1,1.27,0,2.26.31,2.96.94.71.6,1.06,1.45,1.06,2.54s-.38,2.07-1.15,2.99c-.75.91-1.78,1.64-3.11,2.21-1.31.57-2.81.85-4.5.85h-1.06c-.02.22-.04.44-.06.66v.6c0,1.31.28,2.33.85,3.05.56.71,1.39,1.06,2.48,1.06.97,0,1.82-.23,2.57-.7.77-.46,1.36-.96,1.78-1.48.2.14.3.39.3.76,0,.44-.19.93-.57,1.45-.36.5-.93.95-1.69,1.33-.77.36-1.75.54-2.96.54ZM239.87,335.19h.3c1.17,0,2.22-.19,3.14-.57.93-.4,1.65-.95,2.18-1.63.54-.71.82-1.52.82-2.45,0-1.35-.58-2.03-1.75-2.03-.58,0-1.13.2-1.63.6-.48.38-.93.91-1.33,1.57-.4.65-.76,1.36-1.06,2.15-.28.79-.5,1.57-.66,2.36Z"/>
  <path class="cls-1" d="M100.81,171.05c-1.09,0-2.08-.23-2.96-.7-.89-.46-1.6-1.15-2.15-2.06-.52-.93-.79-2.1-.79-3.51,0-1.11.19-2.28.57-3.51.38-1.23.96-2.38,1.72-3.45.77-1.07,1.7-1.93,2.81-2.6,1.13-.66,2.43-1,3.9-1,1.27,0,2.26.31,2.96.94.71.6,1.06,1.45,1.06,2.54s-.38,2.07-1.15,2.99c-.75.91-1.78,1.64-3.11,2.21-1.31.56-2.81.85-4.5.85h-1.06c-.02.22-.04.44-.06.66v.6c0,1.31.28,2.33.85,3.05.56.71,1.39,1.06,2.48,1.06.97,0,1.82-.23,2.57-.7.77-.46,1.36-.96,1.78-1.48.2.14.3.39.3.76,0,.44-.19.93-.57,1.45-.36.5-.93.95-1.69,1.33-.77.36-1.75.54-2.96.54ZM98.39,162.37h.3c1.17,0,2.22-.19,3.14-.57.93-.4,1.65-.95,2.18-1.63.54-.71.82-1.52.82-2.45,0-1.35-.58-2.03-1.75-2.03-.58,0-1.13.2-1.63.6-.48.38-.93.91-1.33,1.57-.4.64-.76,1.36-1.06,2.15-.28.79-.5,1.57-.66,2.36ZM113.97,171.05c-1.51,0-2.72-.3-3.63-.91s-1.36-1.44-1.36-2.51c0-.54.1-.96.3-1.24.22-.28.48-.47.79-.57.3-.12.57-.18.82-.18,0,.71.11,1.36.33,1.96s.58,1.09,1.09,1.45c.5.36,1.18.54,2.03.54,1.01,0,1.8-.23,2.39-.7.58-.46.88-1.17.88-2.12,0-.71-.23-1.31-.7-1.81-.46-.5-1.25-1.01-2.36-1.51-1.11-.52-1.99-1.13-2.66-1.81-.66-.71-1-1.66-1-2.87,0-1.29.52-2.36,1.57-3.2,1.05-.87,2.47-1.3,4.26-1.3,1.11,0,2.01.14,2.69.42.69.28,1.19.64,1.51,1.09.34.44.51.9.51,1.36,0,.64-.21,1.12-.63,1.42-.4.3-.95.45-1.63.45,0-.52-.09-1.05-.27-1.57-.16-.52-.44-.95-.85-1.27-.38-.34-.92-.51-1.6-.51-.91,0-1.62.25-2.15.76-.52.48-.79,1.1-.79,1.84,0,.69.24,1.26.73,1.72.5.44,1.29.91,2.36,1.39,1.11.5,1.98,1.12,2.63,1.84.66.73,1,1.67,1,2.84,0,1.47-.56,2.67-1.69,3.6-1.11.93-2.63,1.39-4.56,1.39ZM127.48,171.05c-2.2,0-3.29-1.18-3.29-3.54,0-.36.03-.78.09-1.24.06-.48.13-.92.21-1.3l1.84-8.71h-2.3l.27-1.21c.87,0,1.7-.31,2.51-.94.81-.64,1.51-1.74,2.12-3.29h1.39l-.79,3.72h3.66l-.36,1.72h-3.66l-1.84,8.61c-.1.5-.19.99-.27,1.45-.06.44-.09.83-.09,1.15,0,.58.14,1.01.42,1.27.28.26.68.39,1.18.39.42,0,.86-.06,1.3-.18.44-.14.84-.3,1.18-.48l.51,1.12c-.6.42-1.25.78-1.93,1.06-.69.26-1.4.39-2.15.39ZM139.89,171.05c-1.71,0-3.11-.51-4.2-1.54-1.07-1.05-1.6-2.62-1.6-4.72,0-1.11.18-2.28.54-3.51.36-1.23.92-2.38,1.66-3.45.75-1.07,1.68-1.93,2.81-2.6,1.13-.66,2.46-1,3.99-1,1.07,0,2.04.21,2.9.63.87.42,1.55,1.1,2.06,2.03.52.93.79,2.13.79,3.6,0,.87-.11,1.78-.33,2.75-.22.95-.56,1.88-1.03,2.81-.46.93-1.05,1.76-1.75,2.51-.71.75-1.55,1.35-2.54,1.81-.97.44-2.07.66-3.29.66ZM140.22,169.51c.99,0,1.82-.31,2.51-.94.71-.64,1.27-1.46,1.69-2.45.44-1.01.77-2.06.97-3.14.2-1.09.3-2.09.3-2.99,0-1.51-.26-2.59-.79-3.23-.52-.64-1.25-.97-2.18-.97-.79,0-1.48.21-2.09.63s-1.13.99-1.57,1.69c-.42.69-.78,1.45-1.06,2.3-.26.85-.46,1.7-.6,2.57-.12.85-.18,1.63-.18,2.36,0,1.53.27,2.61.82,3.23.54.62,1.27.94,2.18.94ZM154.92,178c-.3,0-.61-.03-.94-.09-.34-.04-.61-.09-.82-.15l.27-1.39c.16.04.38.08.66.12.26.06.5.09.73.09.99,0,1.76-.42,2.33-1.27.54-.85,1.04-2.28,1.48-4.29l3.17-14.75h-2.75l.18-1.09,2.9-.63.33-1.66c.32-1.71.95-3.04,1.87-3.99.93-.95,2.22-1.42,3.87-1.42,1.29,0,2.26.21,2.9.63.66.4,1,.94,1,1.6s-.22,1.16-.66,1.48c-.42.32-1.04.48-1.84.48,0-.77-.1-1.42-.3-1.96-.2-.56-.61-.85-1.24-.85-.75,0-1.32.31-1.72.94-.4.6-.73,1.54-.97,2.81l-.39,1.93h3.36l-.33,1.72h-3.39l-3.14,14.72c-.38,1.79-.88,3.19-1.48,4.2-.6,1.03-1.33,1.75-2.18,2.18-.85.42-1.81.63-2.9.63ZM180.51,171.05c-.81,0-1.43-.28-1.87-.85-.44-.56-.66-1.24-.66-2.03,0-.22,0-.49.03-.82.04-.32.08-.64.12-.97h-.24c-.56.93-1.12,1.73-1.66,2.42-.54.69-1.15,1.23-1.81,1.63-.66.38-1.45.57-2.36.57-1.19,0-2.03-.33-2.51-1-.48-.69-.73-1.47-.73-2.36,0-.5.06-1.05.18-1.63.12-.6.24-1.17.36-1.69l1.18-5.29c.06-.28.12-.62.18-1.03.06-.42.09-.69.09-.79,0-.6-.21-.99-.63-1.15-.4-.18-.9-.27-1.48-.27h-.24l.27-1.27h5.62l-1.99,9.04c-.12.54-.25,1.18-.39,1.9-.14.73-.21,1.31-.21,1.75,0,.5.1.94.3,1.3.2.36.59.54,1.18.54.54,0,1.11-.2,1.69-.6.58-.42,1.15-.98,1.69-1.66.54-.69,1.02-1.44,1.42-2.27.4-.83.7-1.65.88-2.48l1.57-7.53h2.93l-2.09,9.7c-.06.22-.13.54-.21.97-.06.42-.12.86-.18,1.3-.04.44-.06.81-.06,1.09,0,1.03.33,1.54,1,1.54.34,0,.65-.05.94-.15.28-.12.61-.29,1-.51l.54.88c-.44.4-1.01.79-1.69,1.15-.66.36-1.38.54-2.15.54ZM191.72,171.05c-1.09,0-2.08-.23-2.96-.7-.89-.46-1.6-1.15-2.15-2.06-.52-.93-.79-2.1-.79-3.51,0-1.11.19-2.28.57-3.51.38-1.23.96-2.38,1.72-3.45.77-1.07,1.7-1.93,2.81-2.6,1.13-.66,2.43-1,3.9-1,1.27,0,2.26.31,2.96.94.71.6,1.06,1.45,1.06,2.54s-.38,2.07-1.15,2.99c-.75.91-1.78,1.64-3.11,2.21-1.31.56-2.81.85-4.5.85h-1.06c-.02.22-.04.44-.06.66v.6c0,1.31.28,2.33.85,3.05.56.71,1.39,1.06,2.48,1.06.97,0,1.82-.23,2.57-.7.77-.46,1.36-.96,1.78-1.48.2.14.3.39.3.76,0,.44-.19.93-.57,1.45-.36.5-.93.95-1.69,1.33-.77.36-1.75.54-2.96.54ZM189.3,162.37h.3c1.17,0,2.22-.19,3.14-.57.93-.4,1.65-.95,2.18-1.63.54-.71.82-1.52.82-2.45,0-1.35-.58-2.03-1.75-2.03-.58,0-1.13.2-1.63.6-.48.38-.93.91-1.33,1.57-.4.64-.76,1.36-1.06,2.15-.28.79-.5,1.57-.66,2.36Z"/>
  <path class="cls-1" d="M112.71,297.66v-109.46h14.69v112.87c0,9.09-7.17,13.72-17.4,13.72s-17.14-4.63-17.14-13.72v-112.87h14.69v109.46c0,1.4,1.05,2.62,2.45,2.62,1.49,0,2.71-1.23,2.71-2.62ZM149.57,186.98c10.23,0,17.4,4.72,17.4,13.81v112.78h-14.69v-109.37c0-1.4-1.22-2.71-2.71-2.71-1.4,0-2.45,1.31-2.45,2.71v109.37h-14.69v-125.37h9.09c2.36-.79,5.07-1.22,8.04-1.22ZM227.93,200.79v38.82h-14.69v-35.41c0-1.4-1.22-2.71-2.71-2.71-1.4,0-2.45,1.31-2.45,2.71v35.93l14.86,10.75c3.32,2.19,4.98,5.25,4.98,9.01v41.18c0,9.09-7.17,13.72-17.4,13.72s-17.14-4.63-17.14-13.72v-38.91h14.69v35.5c0,1.4,1.05,2.62,2.45,2.62,1.49,0,2.71-1.23,2.71-2.62v-36.02l-15.04-10.75c-3.23-2.19-4.81-5.16-4.81-8.92v-41.18c0-9.09,6.99-13.81,17.14-13.81s17.4,4.72,17.4,13.81ZM252.81,297.66v-109.46h14.69v112.87c0,9.09-7.17,13.72-17.4,13.72s-17.14-4.63-17.14-13.72v-112.87h14.69v109.46c0,1.4,1.05,2.62,2.45,2.62,1.49,0,2.71-1.23,2.71-2.62ZM299.38,188.2v14.69h-12.15v40.65h12.15v14.69h-12.15v40.65h12.15v14.69h-26.84v-125.37h26.84ZM321.55,186.98c10.23,0,17.4,4.72,17.4,13.81v112.78h-14.69v-109.37c0-1.4-1.23-2.71-2.71-2.71-1.4,0-2.45,1.31-2.45,2.71v109.37h-14.69v-125.37h9.09c2.36-.79,5.07-1.22,8.04-1.22ZM361.12,186.98c10.23,0,17.4,4.72,17.4,13.81v100.28c0,9.09-7.17,13.72-17.4,13.72s-17.13-4.63-17.13-13.72v-100.28c0-9.09,6.99-13.81,17.13-13.81ZM361.12,300.28c1.49,0,2.71-1.23,2.71-2.62v-93.46c0-1.4-1.22-2.71-2.71-2.71-1.4,0-2.45,1.31-2.45,2.71v93.46c0,1.4,1.05,2.62,2.45,2.62Z"/>
  <path class="cls-1" d="M320.03,161.3c1.92-1.66,4.37-2.45,7.43-2.45s5.51.79,7.52,2.45c1.92,1.66,2.88,4.02,2.88,6.91v10.75h-8.48v-9.7c0-1.31-.79-2.36-1.92-2.36-1.05,0-2.01,1.05-2.01,2.36v2.71c0,5.86-4.2,9.27-10.14,9.27s-10.4-3.41-10.4-9.27v-10.75h8.39v9.79c0,1.31.87,2.19,2.01,2.19s1.75-.7,1.75-2.19v-2.8c0-2.89.96-5.25,2.97-6.91Z"/>
</svg>