<?xml version="1.0" encoding="UTF-8"?>
<svg id="Layer_1" data-name="Layer 1" xmlns="http://www.w3.org/2000/svg" viewBox="0 0 471.92 768">
  <defs>
    <style>
      .cls-1 {
        fill: #fff;
      }
    </style>
  </defs>
  <g>
    <path class="cls-1" d="M249.25,365.25c0,13.89-12.78,16.21-28.73,10.81-9.61-2.57-9.86,3.26-9.86,4.46,0,6.35,9.86,5.58,9.86,14.58v8.75l4.72.86c1.2.17,1.11,1.72,0,1.72h-18.01c-1.12,0-1.2-1.54,0-1.72l4.72-.86v-8.06c0-10.55-5.58-9.18-5.58-15.27,0-1.2.34-5.23,5.58-6.52v-25.04l-4.72-.86c-1.2-.17-1.12-1.71,0-1.71h13.29c17.07.08,28.73,6.26,28.73,18.87ZM240.76,364.74c0-7.81-4.03-15.7-20.24-15.78v24.7c11.58,2.74,20.24,1.71,20.24-8.92Z"/>
    <path class="cls-1" d="M301.91,393.47c-1.8,7.8-9.43,12.95-21.96,12.95-13.81,0-25.56-5.92-25.56-18.78s13.55-17.07,29.08-11.75c12.69,4.38,12.95-2.23,12.95-3.52s-.34-8.15-12.95-3.52c-11.84,4.37-25.64,2.74-25.64-8.32,0-10.12,11.06-14.15,20.41-14.15,7.38,0,12.78,3.17,18.27-1.72l4.2,6.35c-8.23,6.26-14.32-2.06-22.47-2.06s-11.92,5.83-11.92,11.06c0,7.63,6.95,8.41,17.15,6.26,16.55-3.52,17.24,4.29,17.24,6.09s-.69,9.69-17.24,6.09c-13.72-3-20.58,1.29-20.58,10.55,0,7.12,5.49,14.32,17.07,14.84,8.06,0,11.58-4.97,13.38-12.09l8.58,1.72Z"/>
    <path class="cls-1" d="M358.43,400.33l-3.6,7.81c-12.78-1.72-13.81-10.64-13.38-19.56.6-12.69-6.52-11.75-13.72-10.12-1.12.26-2.14.43-3.09.6v24.79l4.72.86c1.2.17,1.11,1.72,0,1.72h-18.01c-1.12,0-1.2-1.54,0-1.72l4.72-.86v-24.79c-5.32-1.37-5.58-5.49-5.58-6.69s.34-5.15,5.58-6.52v-16.9l-4.72-.86c-1.2-.17-1.12-1.71,0-1.71h13.29c17.07,0,28.73,4.12,28.73,14.15,0,11.06-13.81,12.69-25.64,8.32-12.61-4.63-12.95,2.23-12.95,3.52s.26,7.72,12.95,3.52c11.58-3.86,20.41,0,20.67,10.38.17,8.23.17,12.52,10.04,14.07ZM324.63,348.96v16.81c.94.09,1.97.26,3.09.51,10.21,2.14,17.15,1.37,17.15-6.26,0-5.23-4.03-10.98-20.24-11.06Z"/>
  </g>
  <g>
    <path class="cls-1" d="M251.5,315.3h9.89v2.01h-7.55v3.32h6.69v2.02h-6.69v3.41h7.64v2.01h-9.99v-12.76Z"/>
    <path class="cls-1" d="M264.32,326.2l1.41-1.6c1.3,1.08,2.55,1.66,4.21,1.66,1.45,0,2.36-.66,2.36-1.6v-.04c0-.89-.53-1.42-3.01-1.95-2.84-.64-4.44-1.48-4.44-3.81v-.04c0-2.19,1.91-3.7,4.55-3.7,1.96,0,3.47.57,4.84,1.6l-1.26,1.7c-1.22-.86-2.4-1.31-3.62-1.31-1.37,0-2.17.66-2.17,1.51v.04c0,.98.61,1.42,3.18,2,2.8.69,4.27,1.61,4.27,3.74v.04c0,2.41-1.96,3.81-4.76,3.81-2.06,0-3.96-.66-5.57-2.04Z"/>
    <path class="cls-1" d="M284.82,322.65v-7.35h2.34v7.26c0,2.39,1.26,3.63,3.37,3.63s3.35-1.19,3.35-3.54v-7.35h2.34v7.24c0,3.81-2.25,5.73-5.74,5.73s-5.68-1.92-5.68-5.62Z"/>
    <path class="cls-1" d="M300.41,315.3h2.17l7.15,8.83v-8.83h2.31v12.76h-1.96l-7.36-9.08v9.08h-2.31v-12.76Z"/>
    <path class="cls-1" d="M321.14,315.21h2.17l5.87,12.85h-2.48l-1.35-3.08h-6.31l-1.37,3.08h-2.4l5.87-12.85ZM324.49,322.99l-2.31-5.11-2.29,5.11h4.59Z"/>
  </g>
  <g id="bYYfdx.tif">
    <g>
      <path class="cls-1" d="M187.98,659.86c-3.57.35-10.35,8.61-19.91,7.93-8.11-.58-16.26-3.68-22.64-8.63-4.38-3.4-6.43-8.74-8.32-13.64l-2.35-6.07c-12.88-4.6-25.51-9.4-39.07-11.41-5.79-.86-10.46-1.48-15.52-4.55-10.41-6.32-16.99-16.99-16.08-29.52-4.46-3.59-8.75-6.7-12.08-10.96-5.39-6.89-7.89-14.98-11.75-22.68-3.2-6.37-7.3-12.08-8.99-19.1-1.54-6.41-1.63-12.58,1.17-18.87-2.34-4.67-5.1-8.25-8.37-12.52s3.58-14.62-5.25-24.66c-.53-.6-1.17-2.16-1.19-2.83-.03-.8,1.68-1.85,2.01-2.61l3.16-7.31c2.22-5.13,8.03-8.61,7.69-9.6l-.77-2.27,1.73-4.03c-.65-5.5-.18-11.5,3.5-15.75,5.72-6.59,9.58-15.79,6.9-24-2.1-4.6-.95-9.06,3.25-11.82,3.87-10.12,11.34-17.98,21.41-21.98,2.61.65,4.52-.46,4.94-3.16,5.85-6.04,12.39-11.08,19.78-15.23l25.93-14.57c10.33-5.8,19.84-12.18,28.84-19.83,5.16-4.38,8.87-9.31,12.78-14.72,6.82-9.45,8.19-23.17,15.81-31.54l16.1-17.68.09-7.91,3.32-1.72c.05-3.6-.24-7.62,1.38-10.83,3.41-6.77,7.22-13.14,9.01-20.53.61-2.5.91-5.14,2.13-7.4,3.08-5.72,7.09-10.56,11.81-15.02,13.88-13.12,16.83-28.53,24.28-35.41l11.78-10.87c6.07-5.6,9.32-16.54,14.96-21.47,3.59-3.14,6.33-6.79,9.31-10.54,5.54-6.96,14.04-10.93,22.92-8.63l7.02,2.39c4.59,1.56,7.49,5.65,11.05,8.84,5.67,5.08,12.67,3.64,19.52,9.95,5.38,4.96,14.17.66,20.92,4.02,4.94,2.46,9.29,8.64,9.99,14,.39,2.96-.93,4.78,2.49,6.45,3.94,1.93,6.94,5.76,10.01,9,2.19,2.32,4.65,4.08,6.13,6.98l9.99,19.53,15.63,22.09c3.4,4.81,7.83,8.65,11.28,13.33l5.8,7.86c5.43,7.36,7.46,15.81,5.23,24.68l3.23,11.47c7.25,6.04,8.09,14.92,4.63,23.22l-2.33,7.48c-1.42,4.55-6.44,4.66.5,17.48,7.15,13.21,13.91,30.09,7.46,44.02-3.95,8.53-9.68,15.59-15.9,22.55-1.9,2.13-2.62,4.54-3.09,7.36-1.41,8.58-3.72,16.9-4,25.64-.26,7.95,2.57,15.39,5.02,22.75l1.42,6.27c2.11,6.29,5.36,12.12,5.12,19.12-.35,10.3-3.82,20.39-10.07,28.62-8.15,10.74-17.41,20.1-24.87,31.28-5.34,7.99-10.59,14.91-18.01,21.3l-8.45,7.29-17.27,19.05c-3.8,4.19-7.5,8.04-12.05,11.38-1.38,3.33-3.91,5.61-7.53,6.94l-9.34,2.2-9.69,6.06-22.66,12.35-12.73,6.58c-10.17,5.26-13.01,20.78-40.07,25.01l-16.12,2.52-9.38,3.68-32.63,3.17ZM317.71,129.99c-3.95-4.72-8.34-8.03-13.9-9.85,4.15,4.24,8.5,8.03,13.9,9.85ZM333.48,145.21c3.92-.9,6.08,1.37,8.58,3.63l7.13,2.77-8.25-7.8-14.69-9.61-4.24.99c-7.85-1.6-14.04-5.78-18.92-12.01-.79-1.01-3.09-2.23-4.03-2.02-2.64,5.36-6.57,1.07-10.1,4.11l13.58,6.04c2.13.95,2.64,1.11,4.93.49,1.6-.43,3.95,2.73,4.69,4.27l15.93,7.43c1.26.59,3.92,2.05,5.38,1.72ZM328.23,145.48c-3.52-2.74-6.86-3.2-10.59-4.66l-7.13-2.81-8.4-2.64-13.7-6.24-1.45,4.85c3.23-1.32,4.38-.46,6.64.8,3.68,2.05,6.8,4.62,9.34,7.84l13.27,2.47c3.9.73,7.71.48,12.01.39ZM266.35,151.33c6.21-5.47,10.78-10.9,13.81-18.29l-10.66,10.35c-1.42,2.5-2.8,4.95-3.15,7.94ZM288.67,149.42l5.81-.12,6.63-5.35c-4.19-4.72-11.29-11.54-12.98-8.45-.3.55-.28,2.03.08,2.56,3.62,5.26-2.97,10.83-1.78,11.17.44.13,1.29.21,2.23.19ZM335.1,157.88l8.97-.24c-2.33-1.98-4.55-3.43-7.44-4.99-5.28-2.84-6.03-4.69-16.36-3.06l-8.49,1.33,3.37,3.81c-3.99-2.36-6.66-4.08-10.76-5.43l-2.12-2.26c-2.59.5-4.8,1.72-6.97,4.37,2.33,1.87,4.88,3.23,7.85,3.42l10.33.67s3.65-1.41,8.08,1.9c-5.74.7-11.11,1.4-16.3,0l-12.86-3.47c-3.25,1.29-5.13,5.24-7.8,7.12l-12.3,8.64c1.26-2.65,3.06-4.76,5.1-6.75l6.62-6.48c1.36-1.33,1.94-2.99,1.01-4.7-2.92-5.38,1.07-8.25.6-13.51-3.82.98-3.48,4.48-5.26,7.14l-5.71,8.56c-1.65,2.47-2.81,5.11-4.86,6.73l5.02-10c2.6-5.19,7.25-9.14,7.86-15.74l-6.82,10.03c-2.93,4.31-7.23,7.29-11.26,10.78-1.57,3.02-2.36,7.11-2.87,10.88l-5.57,7.32c-1.6,2.1-2.75,4.16-3.93,6.7l4.9-2.75c-.83,2.61-1.62,3.86-2.75,5.06-3.88,4.09-3.62,8.11-2.42,13.9-2.63-3.54-3.05-6.72-4.09-11.34-2.37,2.99-3.47,5.89-4.26,9.2-.74,3.12-4.29,5.93-3.79,9.63l13.66-6.94c.65-.33,2.51-.62,2.4-1.22l-.45-2.51,8.33-7.25c6.9-7.01,14.81-11.27,24.76-12.38,1.95-.22,5.19-1.02,6.69-2.06.69-2.94.89-5.67.95-8.83-4.06-.73-8.53,5.01-15.73,8.88l-16.51,8.89c-3.31,1.78-5.9,3.67-8.21,7.14-.55-3.46,1.55-6.49,4.52-8.01l16.83-8.63,9.57-6.77c3.15-3.42,7.12-4.96,11.82-4.5,4.84-2.38,10.14-1.61,14.54,1.53l12.84-1.85c2.96-.43,5.99-1.87,9.27-1.95ZM367.66,158.54c3.14-5.4-5.74-14.61-8.09-14.58l-13.95.14c3.07,4.49,11.12,4.25,14.68,7.58l7.36,6.86ZM369.3,161.29c1.02.18,1.43-.22.54-.85-6.68-.34-8.68-6.84-16.61-8.04-.57,1.63-1.3,3-2.13,2.9l-3.84-.46c1.28,1.13,3.38,1.68,5.36,2.72l9.83,5.2c1.55-2.14,3.55-2.29,6.85-1.48ZM255.94,167.85c2.1-2.49,3.32-5.31,3.55-8.53-6.19,3.58-9.95,9.41-10.52,16.8l6.97-8.26ZM343.16,166.38l13.78,1.28c.48.99-1.52,3.1-2.72,2.94l-11.09-1.52c-12.44-1.7-24,2.95-34.03,9.6-2.73,1.81-6.09,2.61-9.28,3.71,2.78.69,7.06,2.07,10.01,1.3l6.04-1.58,17.38-3.97,17.02-4.73c5.54-1.54,10.47-1.65,16.48-.88,1.08.14,1.17-3.09.12-3.88-4.82-3.64-10.08-3.18-16.25-8.36-7.92-2.77-17.16.18-24.78,3-5.8,2.14-10.79,3.56-17.17,2.58l-8.99,6.18c-3.13,2.15-4.7,4.22-8.67,4.7-13.52,1.62-16.03,4.02-26.75,12.72,9.86-1.53,19.71-2.39,30.2-2.68,3.3-.09,6.59-1.08,10.1-2.03-6.88-2.58-16.59,2.91-24.64-2.35,6.28-1.91,12.24-2.65,18.34-3.37,6.19-.73,10.84-3.83,16.48-6.21l10.13-4.27c5.83-2.46,11.94-2.76,18.29-2.17ZM305.74,165.31l-5.76-.71-.88,5.36,6.64-4.65ZM390.09,189.78c-2.1-9.13-13.58-17.13-21.56-21.75l5.81,6.19,15.75,15.56ZM208.83,239.93c3.82-5.95,4.6-11.91,5.96-18.13,2.07-9.45,8.82-16.67,18.37-18.68,4.02-6.64,8.67-12.76,11.36-20.06,1.67-4.53,2.05-9.3,3.1-14.22-5.08,4.85-8.86,10.43-12.26,16.6s-7.54,11.82-12.33,17.14c-7.92,8.77-7.16,17.19-13.41,25.81l-.78,11.55ZM86.34,618.21l9.43,6.29,13.27-1.18c10.67-.95,20.46,3.41,26.36,12.26,5.81,2.65,12.15,3.84,17.77,6.97,10.92,6.08,22.11,11.36,34.74,12.64,5.72-3.95,11.81-6.51,18.64-7.12,6.54-.58,12.39-2.59,18.56-4.77l14.77-5.21c11.24-5.35,20.66-12.96,31.2-19.44l23.02-14.16,8.77-4.98c8.58-4.88,17.67-8.78,25.48-14.99,11.66-9.26,21.75-19.64,32.01-30.38l15.17-17.79,9.92-10.72c2.8-3.03,5.11-6.39,8.68-8.4l-6.73,7.71-10.81,12.49c-8.7,10.06-16.73,19.97-26.39,29.18-8.19,7.82-15.92,15.69-25.29,22.01l-18.35,10.48c3.14,1,5.82.23,8.42-1.17,7.56-4.07,14.51-1.41,18.71-3.86,20.32-11.83,29.37-30.14,41.7-40.02,8.5-6.81,16.21-13.86,22.58-22.79l8.99-21.82,15.47-28.44c1.63-3,3.36-6.98,3.35-10.4-.05-13.02-2.89-25.37-7.88-37.26l-7.09-16.88c-.43,4.92.05,9.34.73,14.22l3.5,25.26-.02,13.68c-1.49,11.24-5.37,21.97-10.79,31.64,3.75-10.67,8.61-20.35,9.75-31.59.48-4.77.81-9.15.09-13.78l-3.7-24c-1.13-7.3-1.38-13.91-1.33-21.42l-2.97-11.3c-2.48-9.45-.23-17.7,5-25.73l12.43-19.09-2.77-17.25c-2.29-14.28,3.62-19.64,1.01-26.37-6.59-17-11.24-34.06-14.65-51.97-1.4-7.35-2.9-14.3-5.59-21.24-4.49-11.59-10.71-21.83-16.62-32.91,3.65,3.59,5.53,8.28,8.21,12.54,9.52,15.15,13.88,31.59,17.03,49.13,2.83,15.73,8.5,30.21,13.3,45.68,3.74-13.07,4.9-26.18,2.18-39.48-1.91-9.35-4.36-18.27-7.9-27.06l-10.24-25.43c-4.96-4.74-8.3-10.29-10.88-16.61-1.62-4.75-4.58-8.29-8.03-11.91l-19.68-20.63c-.44,1.82-1.22,3.68-2.33,4.43-6.77-1.62-13.5-.79-19.91,1.2s-11.99,3.29-17.52,6.06c9.3-1.5,17.64-3.83,26.69-2.16,6.28,1.15,11.38,5.12,16.15,9.16,3.41,2.89,6.74,5.87,9.08,9.68-6.77-6.01-12.28-12.29-20.64-15.95-11.64-5.09-24.04-1.28-36.55,1.99-3.25,3.24-6.62,5.65-10.86,7.56-4.38-.45-8.72-2.15-13.08-1.87-13.39.84-26.28,2.97-39.25,6.07-5.23,1.25-9.83,4.36-14.58,6.56-3.67,1.7-6.01,4.38-8.65,7.27-4.47,4.9-8.11,9.83-10.75,16.02-2.11,4.93-4.72,9.63-8.59,13.36l-10.13,9.75c-6.13,10.18-12.02,20.06-18.95,29.74-3.16,4.41-5.4,9.17-9.44,12.87,7.47-12.65,16.34-23.44,23.1-36.56-4.13,3.43-6.37,7.94-9.84,11.8-8.61,9.57-18.43,20.07-23.06,31.81-6.6,16.74-17.69,30.05-32.32,40.5-9.61,6.87-19.74,12.09-30,17.98l-20.48,11.75c-5.98,3.43-10.78,7.87-14.68,14.34,10.09.88,19.7-1.86,27.29-8.54,8.93-7.86,18.48-13.92,28.58-20.22,7.76-4.84,14.13-11.4,19.92-18.44,5.15-6.26,10.38-12.08,14.75-18.86l11.71-18.17.64.55-7.2,11.72c-5.3,8.64-11.33,16.28-17.66,24.21-6.84,8.58-14.35,15.87-23.96,21.36-5.79,3.31-11.11,6.95-16.25,11.19l-12.05,9.93c-7.57,6.23-17.49,7.46-27.12,7.31-4.8,5.77-12.29.98-17.03,11.05-2.48,5.27-6.14,7.52-8.94,13.44-1.35,2.84.04,4.87,1.04,7.26,2.14,5.15,3.23,11.3,2.28,16.89-.88,5.14-2.18,10.62-5,14.89l-6.32,9.57c5.79,8.95-4.85,10.81-9.14,17.41-2.04,3.14,1.02,6.54,3.09,8.44,10.38,9.5,12.5,24.28,4.73,36.13,2.6,5.75,2.31,11.11.87,17.13-1.35,5.64,1.61,11.52,4.47,16.41l8.43,14.41c2.3,3.93,6.9,4.47,8.92,8.7,1.22,2.55,3.14,3.81,5.82,4.5,3.55.91,5.93,3.49,5.53,7.15l-.7,6.46c4.46,8.07,9.25,16.68,17.37,22.09ZM414.66,221.85c-3.94-6.88-7.92-12.85-13.08-18.7,1.26,4.72,3.55,8.58,6.19,12.3l6.89,6.4ZM223.34,216.45l8.17-8.45c-8.1,2.4-13.82,10.25-13.83,17.95,1.87-3.27,3.18-6.94,5.66-9.5ZM209.42,247.09c1.68-1.51,4.06-3.47,5.29-5.41,4.58-7.21,8.85-14.22,11.68-22.04l-11.04,15.77c-2.45,3.5-3.99,7.91-5.93,11.68ZM433.08,346.42c2.41-4.6,2.92-8.85.67-13.53-1.67-3.48-.72-10.73.84-15.27.1-2.09-2.05-6.08-1.59-8.51l3.13-16.3c1.55-8.08-5.42-15.57-5.41-25.66,0-8.03-.65-14.58-4.31-22.08l2.64,2.97c-.58-4.35-2.1-8.81-5.04-11.52-1.63,0-2.14-.55-3.26-1.64l-9.96-9.65,3.79,9.69c3.98,10.17,7.93,19.96,10.51,30.64,2.29,9.5,4.23,18.51,4.68,28.35-.64,8.02-2.43,15.51-4.52,23.16,2.7,7.13,4.72,13.84,4.93,21.29-.69,5.59-3.1,10.86-5.09,15.87,4.21,10.98,5.62,22.39,1.09,34.3,3.13-3.56,6.61-8.05,8.18-12.89l-.67-9.7c-.19-2.78-.38-5.99-2.19-7.95-1.41-1.53-2.62-3.53-1.63-5.42l3.22-6.16ZM197.03,253.42l8.67-11.31c1.15-1.5.24-5.87.05-8.01l-6.24,12.26c-1.11,2.19-1.92,4.54-2.48,7.06ZM436.07,261.74c.84-4.94.57-9.74-2.21-14.04-.41,5.15-.13,9.55,2.21,14.04ZM194.5,262.96l3.92-5.3c-3.61.86-5.1,1.67-6.01,4.41-.15.46,1.78,1.32,2.1.89ZM436.87,284.24c1.43-6.42-.92-11.3-3.29-16.79-.65,3.22-.33,6.38.71,9.39l2.57,7.41ZM440.85,283.38l-3.09,21.84c4.9-5.6,7.32-17.14,3.09-21.84ZM424.67,351.27c5.59-10.03,4.33-20.69.37-30.39-2.27,5.87-2.38,11.22-2.46,16.99l2.09,13.39ZM430.52,389.02l7.29-8.07c3.92-4.34,7.64-9.2,9.85-14.75,5.4-13.58-3.55-29.87-9.9-43.8-3.74,6.56,2.09,13.93.63,18.08l-4.34,12.37c1.59,4.04,3.29,7.6,4.03,11.66,1.75,9.6-5.49,16.1-7.56,24.52ZM410,408.05c1.75-6.04,4.44-11.68,8.66-16.68,4.19-4.97,7.2-10.43,6.53-17.2l-1.55-15.56-11.27,18.26c-4.8,7.78-6.35,16.51-3.94,25.37l1.58,5.8ZM54.09,394.41l4.16-5.35c-4.87,3.3-8.14,7.93-10.43,13.29,3.15-1.79,4.12-5.17,6.27-7.94ZM423.14,418.49l3.45-18.41c.58-3.09-.03-6.77-.69-10.42l-3.73,15.02c-1.12,4.53-1.92,9.13.96,13.82ZM430.24,453.83c-3.18-6.28-5.73-12.17-6.45-18.69-.89-8.03-2.87-15.18-5.37-22.81-1.78-5.45.84-11.65,3.39-16.31.53-.98.78-2.27.76-3.49-7.35,8.71-10.21,18.24-6.12,29.14l7.69,20.49c2.5,6.66,2.97,13.08,4.1,20.79l2-9.12ZM45.94,429.83l-1.74-5.76-3.64,10.74c1.93-.93,4.49-3.19,5.38-4.98ZM34.96,453.92l5.17-4.53c3.83-3.5,5.93-8.15,6.49-13.57l-6.14,5.21-3.59,3.73c-2.31,2.4-2.82,5.9-1.93,9.16ZM422.63,504.84c11.34-11.34,16.7-33.71,8.16-48.23l-2.91,14.71c-3.1,15.69-14.39,31.84-19.71,47.98l14.46-14.46ZM22.64,476.86c5.66-9,16.44-10.22,12.24-15.34l-5.63,5.13c-3.81,2.59-6.39,6.22-6.61,10.2ZM33.79,516.09c4.07-11.66,1.87-18.7-6.2-27.41l.82,10.36c.21,2.62-1.34,6.68.2,9.06l5.18,7.99ZM32.65,540.3c.84-4.15.96-7.79.38-12.18-1.66,4.25-1.5,8.03-.38,12.18ZM63,584.45c-3.59-.97-4.85-3.36-7.04-6.21s-5.67-5.27-8.74-7.78c3.29,9.31,10.32,15.52,18.47,21.23,1.42-2.29.59-6.35-2.69-7.24ZM90.54,624.65c-10.06-6.91-17.56-15.14-23.01-25.57-.14,7.39,3.22,13.12,8.43,17.7,4.5,3.28,9.2,6.25,14.58,7.88ZM284.54,621.78c10.39-2.08,18.24-7.89,26.69-13.11l13.56-8.37c-4.21.09-7.56,1.59-11.2,3.36-4.62-.21-9.46-.55-13.51,2.11l-4.27,5.26-11.28,10.77ZM273.3,627.69c3.75-4.79,7.47-9.45,12.03-13.33,2.63-2.24,4.89-3.93,7.12-6.95l-9.94,5.49-35.07,22.8,10.71-1.12c5.59-1.18,10.76-3.28,15.16-6.89ZM114.99,627.36l-10.33.71,22.52,4.44c-3.16-3.54-7.39-5.48-12.19-5.15ZM235.59,649.13c14.62-1.61,25.27-3.84,35.6-14.79-5.81,2.72-11.04,4.89-17.39,5.32-3.66.25-7.45,1.2-10.33,3.41l-7.88,6.06ZM182.8,659.01c-10.01-3.02-18.97-7.37-28.38-11.61l-15.94-7.18,2.25,7.28,2.35,4.29c1.8,3.28,3.65,6.42,7.25,7.96,12.61,5.4,21.76,9.04,32.46-.74ZM216.48,651.85c3.59-.53,7.03-1.9,10.09-3.63l-16.64,3.29c-3.29.65-6.43.89-9.63,2.74l16.17-2.4Z"/>
      <path class="cls-1" d="M110.25,597.23c11.08,6.63,21.75,12.23,33.53,16.91,12.9,5.12,25.49,9.56,38.84,13.32,11.9,3.35,23.56,3.45,35.59.75,20.79-4.66,27.61-9.56,40.76-25.91,9.46-11.76,21.23-20.67,34.45-28,14.88-8.24,27.69-18.3,39.64-30.33,7.38-7.43,13.96-14.89,19.45-23.82,4.29-6.99,9.36-12.68,15.04-18.58,7.2-7.46,12.69-16.19,14.67-26.51,3.39-17.7.76-35.17-5.65-51.82-3.81-9.91-5.92-19.86-4.3-30.33l4.4-28.43c4.51-29.18,8.98-59.51,6.19-89.07-1.13-11.92-3.83-23.2-9.56-33.59-6.88-12.46-16.01-27.26-29.51-31.27-1.72.32-3.83.4-5.75.04-17.42-3.31-27.98,8.99-49.25,2.53-8.47-2.57-20.75,4.63-25.47,13.28-6,10.99-5.42,27-14.65,45.83-13.17,26.86-27.62,46.11-48.59,67.4l-39.8,40.4c-6.5,6.6-11.85,14.03-15.03,22.69-3.92,10.67-1.37,22.29,4.46,31.78l10.98,17.86c4.11,6.69,4.44,13.71,1.51,20.84-3.83,9.32-.84,19.35,6.91,25.75,7.16,5.92,13.01,12.58,17.43,20.91,3.49,6.57,8.64,10.86,16.04,11.95-7.97.71-13.55-4.83-17.43-11.25-4.75-7.86-9.83-14.89-16.83-20.9-8.28-7.11-11.06-18.04-7.48-28.44,1.85-5.38,2.24-11.17-.76-16.23l-9.94-16.78c-8.4-14.18-12.18-28.16-3.03-43.19,4.89-8.03,10.56-15.11,17.23-21.88l32.98-33.48,10.98-11.83c14.88-16.04,27.54-33.49,37.25-53.19,5.22-10.59,8.38-21.28,10.54-32.82,2.15-11.48,9.72-28.45,19.57-32.54l36.81-15.29c5.99-.91,11.38,1.19,16.2,4.64,5.79,4.45,11.69,8.05,18.41,11.08,5.64,2.54,10.58,5.95,14.54,10.99,9.7,12.32,17.5,26.38,20.98,41.93,3.55,15.83,4.55,31.54,4.49,47.77-.05,14.89-1.56,29.12-2.7,43.89l-.59,7.58-.66,7.59-.64,7.59.11,26.48,2.1,17.68,2.99,16.26,3.42,16.41.56,6.97-.63,6.67c-1.08,11.41-10.95,35.74-19.06,44.74l-19.17,21.27-12.24,16.62c-6.5,8.82-13.81,16.26-23.32,22.03-16.51,10-32.17,20.43-47.99,31.52l-12.95,9.08c-5.99,4.2-10.64,9.62-17.31,12.88-12.8,6.25-26.37,8.68-40.72,8.95-19.8.36-39.64-2.56-57.03-11.9,16.07,5.98,31.55,11.3,49.06,10.79l-12.21-3.01c-23-7-44.68-16.39-65.48-28.43l7.49,7.75c-6.14-3.9-10.44-9.17-15.76-13.91-11.72-10.45-27.07-22.18-31.6-37.74-1.02-3.51-.64-7.74-1.14-11.3l-2.73-19.32c-1.8-12.72,2.03-31.1,7.87-42.84l-4.26,14.29c-1.13,3.78-2.29,8.03-2.28,12.06l.04,18.78,2.4,16.3,1.76,3.24c-3.48,7.01,3.61,18.17,9.27,24.66s11.16,11.87,18.36,17.36c-4.35-9.62-10.2-18.5-17.19-26.74l-5.27-5.4.24-1.04,10.5,10.57c6.63,6.68,11.07,14.83,15.09,23.31,1.14,2.39,2.43,3.75,4.84,5.2ZM293.2,213.08c7.47,1.29,14.44.07,21.36-2.02,7.77-2.35,15.31-3.53,23.22-3.19l-11.02-8.22c-3.39-2.53-9.31-5.56-13.74-3.81l-37.85,14.97c-3.23,1.28-5.94,4.78-7.67,7.74,5.7-3.16,10.66-8.07,17.31-6.93l8.4,1.45ZM373.86,504.81c7.44-7.79,10.82-17.72,13.96-27.6,6.64-20.91-.37-31.45-2.38-45.63l-3.67-25.89-.68-6.8.17-20.27,4.23-52.46.44-10.27c.18-4.15.65-7.88.19-11.79-1.22,3.36-.96,6.26-1.34,9.55l-5.26,45.43-4.93,31.57c-1.5,9.6-1.02,19.18,2.01,28.41l6.94,21.13c3.37,10.25,3.94,20.6,3.31,31.34-.66,11.28-4.86,21.55-12.82,29.73-7.78,8-15.04,15.9-21.36,25.22l6.62-6.41,14.57-15.26ZM290.13,583.39l20.66-12.96c9.58-6.01,18.48-12.44,24.97-21.7l8.92-12.71-15.58,14.98c-10.07,9.68-21.22,17.3-33.42,24.24-12.29,6.99-23.47,15.25-31.94,26.33l26.39-18.18Z"/>
      <path class="cls-1" d="M85.42,445.02c1.79,11.81-1.34,23.98-6.51,34.31,3.11-11.36,7.05-21.9,5.26-33.56l-3.08-20.11v-12.35c.83-11.74,8.3-21.2,18.55-26.65,8.18-4.34,16.6-7.18,25.44-10.21,21.62-7.39,40.31-19.34,56.29-35.64,6.73-6.87,13.07-13.51,17.95-21.84,6.95-11.87,10.41-24.73,12.57-38.25l3.69-17.57c1.32-6.29,3.58-12.31,7.37-17.44-1.77,4.86-4,9.1-5.35,13.96-5.97,21.5-4.76,41.38-18.31,61.97-7.26,11.04-16.37,19.98-26.12,28.79-9.82,8.87-20.5,15.53-32.52,21.08-9.46,4.37-19.02,7.42-28.76,11-25.73,9.45-32.53,22.65-28.44,49.54l1.97,12.96Z"/>
      <path class="cls-1" d="M151.15,556.91c4.45,1.65,8.47,3.09,12.2,5.95l-14.71-5.78-20.66-7.41c-1.26-.45-2.91-.52-4.17-1.32l-13.03-8.3c-13.2-8.41-20.85-21.63-21.96-37.2-.45-6.23-.76-12.33.86-18.2-1.88,23.89,2.45,43.83,24.05,55.75l-4.81-6.22c4.42,3.41,7.56,7.77,12.41,10.37,9.51,5.09,19.44,8.52,29.81,12.37Z"/>
      <path class="cls-1" d="M220.13,542.82c-3.9.58-7.79-.55-11.82-.76-10.44-.53-19.84-3.77-27.91-10.62-7.27-6.17-12.75-13.74-16.43-22.7-3.92-9.52-9.4-17.16-15.9-25.92,8.18,7.03,13.68,16.57,17.81,26.76,3.44,8.48,8.76,14.99,15.62,20.8s14.18,8.86,22.93,10.14l15.71,2.29Z"/>
      <path class="cls-1" d="M260.94,536.68c15.48-5.08,31.18-9.99,41.18-24.34l8.3-11.91.67.56-9.01,14.07c-2.19,3.43-5.34,6.1-8.48,8.71-10,6.04-20.33,11.26-32.66,12.92Z"/>
      <path class="cls-1" d="M231.77,576.33l11.23-.78c-8.15,1.88-16.61,2.32-25.17,1.56-8.62-.76-16.91-1.58-25.08-3.6l15.9,1.87,9.58.9c4.46.42,8.77.39,13.56.06Z"/>
      <path class="cls-1" d="M116.93,436.8l-5.12.36c.9-.36,3.1-1.08,4.1-1.09l19.94-.21,5.49-.37c-1.16.38-3.55,1.08-4.75,1.09l-19.66.22Z"/>
    </g>
  </g>
  <g>
    <path class="cls-1" d="M306.89,467.26c-8.92,9.35-18.18,4.37-27.53,4.37h-13.12c-1.12,0-1.2-1.54,0-1.72l4.72-.86v-16.21c0-10.55-5.58-9.18-5.58-15.27,0-1.2.34-5.23,5.58-6.52v-16.9l-4.72-.86c-1.2-.17-1.12-1.72,0-1.72h18.01c1.11,0,1.2,1.54,0,1.72l-4.72.86v18.96c-9.61-2.57-9.86,3.26-9.86,4.46,0,6.35,9.86,5.58,9.86,14.58v16.9c11.67,0,15.95.17,23.16-8.15l4.2,6.35Z"/>
    <path class="cls-1" d="M365.81,471.63h-12.78c-5.15,0-14.07,1.54-12.09-14.67,1.54-12.52-5.57-14.67-8.66-13.29-2.66,1.2-3,4.8-.34,11.06,5.32,12.44-1.29,20.33-9.52,18.61-6.09-1.29-9.52-7.98-4.46-21.19l14.67-38.25-3.34-.6c-1.2-.17-1.12-1.72,0-1.72h12.95l18.7,57.47,4.89.86c1.2.17,1.11,1.72,0,1.72ZM352,469.23l-17.5-53.86-14.32,37.57c-3.17,8.66-1.72,15.18,2.83,16.12,6.09,1.29,10.72-4.89,7.29-13.98-.94-2.49-2.75-5.75-3.35-8.75-.69-3.26.43-6.52,3.09-7.63,3.69-1.54,8.06-.26,10.72,4.03,2.4,3.86,2.23,8.49,1.46,14.24-1.8,13.98,5.4,13.04,9.78,12.27Z"/>
  </g>
  <g>
    <path class="cls-1" d="M241.34,87.24l8.61,9.87-1.8,1.57-9.71-2.46-.07.06,5.42,6.21-2.09,1.82-8.61-9.87,1.83-1.6,9.67,2.49.09-.08-5.42-6.21,2.08-1.81Z"/>
    <path class="cls-1" d="M254.01,94.11l-2.46,1.66-3.59-13.38,2.96-2,11.08,8.32-2.46,1.66-8.38-6.53-.08.06,2.94,10.21ZM250.97,89.95l5.8-3.93,1.21,1.79-5.81,3.93-1.21-1.79Z"/>
    <path class="cls-1" d="M267.94,85.75l-4.19,1.99-5.61-11.83,4.23-2c1.19-.56,2.33-.81,3.41-.75,1.08.07,2.07.43,2.95,1.09s1.61,1.61,2.2,2.84c.58,1.23.85,2.4.81,3.51-.04,1.11-.39,2.1-1.03,2.98-.64.88-1.56,1.61-2.76,2.18ZM265.23,84.41l1.59-.75c.74-.35,1.3-.78,1.68-1.28.38-.5.57-1.09.56-1.77s-.22-1.46-.64-2.34c-.42-.88-.88-1.53-1.4-1.96-.52-.43-1.09-.66-1.72-.68-.63-.02-1.31.14-2.05.49l-1.59.76,3.58,7.55Z"/>
    <path class="cls-1" d="M274.74,68.99l4.08,12.44-2.63.86-4.08-12.44,2.63-.86Z"/>
    <path class="cls-1" d="M281.48,80.54l-2.52-12.85,8.66-1.7.44,2.24-5.94,1.16.6,3.06,5.5-1.08.44,2.24-5.5,1.08.6,3.07,5.97-1.17.44,2.24-8.68,1.7Z"/>
    <path class="cls-1" d="M305.2,69.45c-.02-.52-.21-.93-.58-1.24-.37-.31-.89-.49-1.55-.53-.45-.03-.84.01-1.15.12-.32.11-.57.26-.74.48s-.28.46-.29.74c-.02.23.01.44.11.62.1.18.24.34.42.48s.4.26.64.37c.25.11.51.2.79.28l1.16.36c.56.16,1.08.37,1.54.61.46.24.86.53,1.19.86.33.33.58.72.74,1.15.17.43.24.92.21,1.47-.05.8-.3,1.48-.74,2.04s-1.05.98-1.82,1.25-1.7.38-2.76.31c-1.05-.07-1.96-.29-2.72-.66-.76-.37-1.34-.89-1.73-1.55-.4-.66-.58-1.47-.54-2.41l2.67.17c0,.44.11.81.31,1.12.21.31.49.54.86.71.37.17.79.27,1.27.3.47.03.88-.01,1.24-.13.35-.11.64-.29.84-.52.21-.23.32-.5.34-.82.02-.29-.05-.55-.21-.76-.16-.21-.4-.4-.72-.56-.32-.16-.72-.31-1.19-.46l-1.4-.45c-1.08-.34-1.93-.81-2.53-1.42s-.87-1.4-.81-2.36c.04-.79.3-1.47.76-2.03.46-.56,1.08-.99,1.85-1.27.77-.28,1.63-.4,2.58-.34.97.06,1.81.28,2.51.66.7.38,1.24.88,1.61,1.49.37.62.53,1.31.5,2.09l-2.65-.17Z"/>
    <path class="cls-1" d="M309.59,79.35l3.11-12.72,8.57,2.1-.54,2.22-5.88-1.44-.74,3.03,5.44,1.33-.54,2.22-5.44-1.33-.74,3.04,5.91,1.45-.54,2.22-8.6-2.1Z"/>
    <path class="cls-1" d="M325.2,84.09l5.8-11.74,7.77,3.84-1.01,2.05-5.29-2.62-1.38,2.8,4.77,2.36-1.01,2.05-4.77-2.36-2.4,4.85-2.48-1.23Z"/>
    <path class="cls-1" d="M344.32,79.65l-6.98,11.08-2.34-1.48,6.98-11.08,2.34,1.48ZM343.01,77.33l2.7-1.74,2.13,1.34-3.2,1.42-1.63-1.03Z"/>
    <path class="cls-1" d="M341.54,93.59l-2.3-1.87,11.77-7.31,2.77,2.25-4.75,13.01-2.3-1.87,3.82-9.91-.08-.06-8.92,5.77ZM344.64,89.48l5.44,4.42-1.36,1.68-5.44-4.42,1.36-1.68Z"/>
  </g>
  <g>
    <path class="cls-1" d="M144.86,698.13l2.62.9-2.77,8.04c-.31.9-.8,1.62-1.46,2.15-.66.53-1.44.85-2.34.96-.9.11-1.86,0-2.88-.36-1.03-.35-1.86-.85-2.5-1.5-.64-.64-1.06-1.38-1.25-2.2-.19-.82-.13-1.69.18-2.59l2.77-8.04,2.62.9-2.7,7.82c-.16.47-.2.93-.12,1.36.08.44.27.83.58,1.17.31.34.71.6,1.22.77.51.18.99.22,1.43.14.45-.08.84-.27,1.18-.56.33-.29.58-.68.75-1.15l2.7-7.81Z"/>
    <path class="cls-1" d="M160.73,702.43l-3.13,12.72-2.32-.57-3.56-9.36-.09-.02-1.97,8-2.69-.66,3.13-12.72,2.36.58,3.52,9.35.11.03,1.97-8,2.68.66Z"/>
    <path class="cls-1" d="M163.71,716.25l-2.93-.44,6.42-12.28,3.53.53,2.52,13.62-2.93-.44-1.74-10.48-.1-.02-4.75,9.5ZM164.29,711.13l6.93,1.04-.32,2.14-6.93-1.04.32-2.14Z"/>
    <path class="cls-1" d="M186.38,718.5l-4.64-.13.37-13.09,4.68.13c1.32.04,2.44.33,3.38.88.94.55,1.65,1.32,2.13,2.31.49.99.71,2.17.67,3.52-.04,1.36-.33,2.53-.87,3.49-.54.97-1.3,1.7-2.27,2.19-.97.5-2.12.73-3.45.69ZM184.57,716.08l1.76.05c.82.02,1.51-.1,2.08-.38.57-.28,1-.72,1.3-1.33s.47-1.4.49-2.38c.03-.97-.09-1.76-.36-2.38s-.67-1.09-1.22-1.39c-.55-.31-1.23-.47-2.05-.49l-1.76-.05-.24,8.35Z"/>
    <path class="cls-1" d="M196.36,718.6l-.64-13.08,8.81-.43.11,2.28-6.05.29.15,3.12,5.59-.27.11,2.28-5.59.27.15,3.12,6.07-.29.11,2.28-8.84.43Z"/>
    <path class="cls-1" d="M212.14,704.43l3.37-.54,4.94,8.12.15-.02,2.18-9.26,3.37-.54,2.05,12.93-2.65.42-1.34-8.42-.11.02-2.02,8.89-1.81.29-4.68-7.86-.11.02,1.34,8.45-2.65.42-2.05-12.93Z"/>
    <path class="cls-1" d="M236.75,699.69l2.69-.65,1.99,8.27c.22.93.2,1.79-.08,2.6s-.76,1.49-1.46,2.07c-.7.58-1.57.99-2.63,1.25-1.06.25-2.03.28-2.91.09-.88-.2-1.63-.59-2.24-1.18s-1.02-1.35-1.25-2.28l-1.99-8.27,2.69-.65,1.93,8.04c.12.48.33.89.63,1.22.3.33.68.55,1.12.67.44.12.92.12,1.44,0,.52-.13.95-.34,1.29-.65s.56-.68.69-1.11c.12-.43.13-.89,0-1.37l-1.93-8.04Z"/>
    <path class="cls-1" d="M254.59,699.25l-2.67.83c-.16-.33-.35-.61-.59-.83-.23-.22-.5-.39-.79-.51s-.61-.18-.95-.19c-.34,0-.69.05-1.04.16-.65.2-1.16.54-1.54,1-.38.47-.61,1.05-.69,1.74-.08.69.02,1.47.29,2.34.28.89.64,1.6,1.1,2.12.46.52.97.87,1.55,1.03.58.16,1.18.14,1.81-.05.35-.11.67-.26.94-.45.27-.19.5-.41.68-.66.18-.25.31-.54.38-.85.08-.31.09-.64.05-.99l2.68-.82c.11.6.11,1.2,0,1.82-.11.62-.33,1.21-.66,1.76-.33.56-.78,1.06-1.34,1.5s-1.25.78-2.05,1.03c-1.12.35-2.19.4-3.22.17-1.03-.23-1.95-.75-2.76-1.55-.8-.8-1.42-1.88-1.84-3.24-.42-1.36-.53-2.6-.31-3.72.22-1.12.69-2.06,1.41-2.84.72-.78,1.64-1.33,2.74-1.67.72-.22,1.43-.33,2.11-.32.68.01,1.33.14,1.93.38.6.24,1.14.59,1.62,1.06s.87,1.05,1.18,1.75Z"/>
    <path class="cls-1" d="M260.28,706.27l-4.61-12.26,2.59-.97,1.9,5.06,5.26-1.98-1.9-5.06,2.58-.97,4.61,12.26-2.58.97-1.9-5.06-5.26,1.98,1.91,5.06-2.59.97Z"/>
    <path class="cls-1" d="M282.47,690.13c.58,1.31.82,2.53.73,3.66-.09,1.13-.45,2.13-1.09,2.98-.64.85-1.48,1.51-2.54,1.98-1.06.47-2.13.65-3.19.54-1.06-.11-2.04-.52-2.93-1.22-.89-.7-1.63-1.7-2.2-3.01-.58-1.31-.82-2.53-.73-3.66.09-1.13.45-2.13,1.08-2.98.63-.85,1.49-1.52,2.55-1.98,1.06-.46,2.12-.64,3.18-.54,1.06.11,2.04.51,2.94,1.21.9.7,1.63,1.7,2.21,3.01ZM279.9,691.26c-.37-.85-.81-1.51-1.32-1.98-.51-.47-1.05-.76-1.64-.85-.59-.1-1.19-.01-1.8.25-.61.27-1.08.65-1.41,1.16-.32.5-.48,1.1-.48,1.79,0,.69.19,1.46.56,2.31.37.85.81,1.51,1.32,1.98s1.06.75,1.64.85c.59.1,1.19.01,1.8-.25.61-.27,1.08-.65,1.41-1.16.32-.5.48-1.1.48-1.79,0-.69-.19-1.46-.57-2.31Z"/>
    <path class="cls-1" d="M299.06,679.53l-2.48,1.3c-.21-.3-.46-.54-.73-.71-.27-.18-.56-.3-.88-.36-.31-.06-.63-.07-.97-.01s-.67.17-1,.34c-.6.31-1.05.74-1.34,1.26-.29.53-.41,1.14-.36,1.83.05.69.28,1.44.7,2.25.43.83.92,1.46,1.46,1.89.54.43,1.11.68,1.71.73.6.05,1.19-.07,1.77-.38.33-.17.61-.38.85-.61.24-.23.42-.49.55-.77.13-.28.21-.58.23-.9s-.02-.65-.13-.99l2.49-1.29c.21.57.32,1.16.33,1.79,0,.63-.11,1.24-.34,1.86-.23.61-.58,1.18-1.05,1.72-.47.53-1.08,1-1.83,1.38-1.04.54-2.08.79-3.14.75-1.06-.04-2.06-.39-2.99-1.03-.93-.64-1.73-1.59-2.39-2.86-.66-1.27-.99-2.47-.97-3.6s.3-2.15.88-3.04c.57-.89,1.37-1.6,2.39-2.14.67-.35,1.35-.58,2.02-.69.67-.11,1.33-.11,1.96.02.63.13,1.23.38,1.78.75.55.38,1.05.88,1.48,1.51Z"/>
    <path class="cls-1" d="M306.2,670.13l2.39-1.39,4.28,7.35c.48.83.7,1.66.67,2.51-.03.85-.3,1.65-.8,2.4-.5.75-1.22,1.41-2.16,1.95-.94.55-1.86.85-2.77.92-.9.07-1.73-.1-2.48-.49-.75-.39-1.37-1-1.85-1.82l-4.28-7.35,2.39-1.39,4.16,7.14c.25.43.57.76.95.98.39.22.81.33,1.26.32.46,0,.92-.15,1.38-.42.46-.27.81-.6,1.04-.99.23-.39.35-.81.34-1.26,0-.45-.13-.88-.38-1.32l-4.16-7.14Z"/>
    <path class="cls-1" d="M313.24,665.8l6.94,11.11-2.35,1.47-6.94-11.11,2.35-1.47Z"/>
    <path class="cls-1" d="M326.65,672.72l-3.86,2.58-7.26-10.9,3.89-2.6c1.1-.73,2.18-1.14,3.26-1.24,1.08-.09,2.11.12,3.07.65s1.83,1.36,2.58,2.49c.76,1.14,1.19,2.25,1.31,3.35.12,1.1-.08,2.13-.58,3.1-.51.97-1.31,1.82-2.42,2.56ZM323.78,671.79l1.46-.97c.68-.45,1.17-.96,1.48-1.51.3-.55.4-1.17.3-1.83s-.43-1.41-.97-2.22c-.54-.8-1.09-1.38-1.67-1.74-.58-.35-1.18-.5-1.8-.43-.62.07-1.28.33-1.96.78l-1.47.98,4.63,6.95Z"/>
    <path class="cls-1" d="M335.53,666.65l-2.4,1.74-4.03-13.26,2.89-2.09,11.34,7.95-2.4,1.74-8.59-6.25-.08.06,3.27,10.11ZM332.35,662.59l5.67-4.11,1.27,1.75-5.67,4.11-1.27-1.75Z"/>
    <path class="cls-1" d="M350.1,647.35c.88,1.12,1.42,2.24,1.62,3.36.2,1.12.09,2.17-.31,3.16-.4.99-1.06,1.84-1.96,2.55-.92.72-1.9,1.16-2.95,1.32-1.05.16-2.1,0-3.14-.44-1.04-.45-2-1.24-2.88-2.36-.88-1.12-1.43-2.24-1.62-3.36-.2-1.12-.1-2.17.3-3.16.4-.99,1.06-1.84,1.97-2.56.91-.71,1.89-1.15,2.94-1.31s2.1-.01,3.15.44c1.04.45,2.01,1.24,2.89,2.36ZM347.89,649.08c-.57-.73-1.16-1.25-1.77-1.58-.61-.33-1.21-.47-1.81-.42-.59.05-1.16.28-1.68.7-.53.41-.88.9-1.07,1.47s-.19,1.18-.02,1.85c.18.67.55,1.37,1.13,2.09.57.73,1.16,1.25,1.77,1.58.61.33,1.21.47,1.81.42s1.16-.28,1.68-.7c.53-.42.88-.91,1.07-1.47.19-.57.19-1.18.02-1.85s-.55-1.37-1.12-2.09Z"/>
  </g>
</svg>