<?xml version="1.0" encoding="UTF-8"?>
<svg id="Layer_1" data-name="Layer 1" xmlns="http://www.w3.org/2000/svg" viewBox="0 0 471.92 768">
  <defs>
    <style>
      .cls-1 {
        fill: #5bc8aa;
      }

      .cls-2 {
        fill: #fff;
      }
    </style>
  </defs>
  <g>
    <path class="cls-1" d="M215.04,591.26v5.97h-.7l-3.25-4.69h-.06v4.69h-.72v-5.97h.7l3.26,4.7h.06v-4.7h.71ZM216.39,597.23v-4.47h.69v4.47h-.69ZM216.74,592.01c-.13,0-.25-.04-.35-.14-.1-.09-.14-.2-.14-.33s.05-.24.14-.33c.1-.09.21-.14.35-.14s.25.04.34.14c.1.09.15.2.15.33s-.05.24-.15.33c-.1.09-.21.14-.34.14ZM223.47,595.4v-2.64h.69v4.47h-.69v-.76h-.05c-.11.23-.27.42-.49.58-.22.16-.5.23-.84.23-.28,0-.53-.06-.75-.18-.22-.12-.39-.31-.51-.56-.12-.25-.19-.56-.19-.95v-2.84h.69v2.8c0,.33.09.59.27.78.18.19.42.29.7.29.17,0,.34-.04.52-.13.18-.09.33-.22.45-.4.12-.18.18-.41.18-.69ZM226.1,594.54v2.69h-.69v-4.47h.66v.7h.06c.11-.23.26-.41.48-.55.21-.14.49-.21.83-.21.3,0,.57.06.8.19.23.12.4.31.53.56.13.25.19.56.19.94v2.84h-.69v-2.8c0-.35-.09-.63-.27-.82-.18-.2-.43-.3-.75-.3-.22,0-.42.05-.59.14-.17.09-.31.23-.41.42-.1.18-.15.4-.15.67ZM235.69,593.76l-.62.18c-.04-.1-.1-.21-.17-.3-.07-.1-.17-.18-.3-.25-.13-.06-.29-.09-.49-.09-.27,0-.5.06-.68.19-.18.12-.27.28-.27.47,0,.17.06.31.19.41.12.1.32.18.58.25l.66.16c.4.09.7.25.89.44.2.2.29.45.29.77,0,.26-.07.49-.22.69-.15.2-.35.36-.61.48s-.57.18-.91.18c-.46,0-.83-.1-1.13-.3-.3-.2-.49-.49-.57-.87l.65-.16c.06.24.18.42.35.54.17.12.4.18.68.18.32,0,.57-.07.76-.2.19-.14.29-.3.29-.5,0-.15-.05-.29-.16-.39-.11-.11-.28-.19-.5-.24l-.75-.17c-.41-.1-.71-.25-.9-.45-.19-.21-.29-.46-.29-.77,0-.25.07-.48.21-.67.14-.2.34-.35.59-.46.25-.11.53-.17.85-.17.44,0,.79.1,1.04.29.25.19.44.45.54.77ZM238.62,597.32c-.4,0-.76-.1-1.06-.29-.3-.19-.54-.46-.71-.81-.17-.34-.25-.75-.25-1.21s.08-.87.25-1.22c.17-.35.41-.62.71-.81.31-.19.66-.29,1.06-.29s.76.1,1.06.29c.3.19.54.46.71.81.17.35.26.76.26,1.22s-.09.87-.26,1.21c-.17.35-.41.62-.71.81-.3.19-.66.29-1.06.29ZM238.62,596.71c.31,0,.56-.08.76-.24s.34-.36.44-.62c.1-.26.14-.53.14-.83s-.05-.58-.14-.84c-.1-.26-.24-.47-.44-.62-.2-.16-.45-.24-.76-.24s-.56.08-.76.24c-.2.16-.34.37-.44.62-.1.26-.14.54-.14.84s.05.58.14.83c.09.26.24.46.44.62s.45.24.76.24ZM242.39,591.26v5.97h-.69v-5.97h.69ZM245.47,597.32c-.4,0-.76-.1-1.06-.29-.3-.19-.54-.46-.71-.81-.17-.34-.25-.75-.25-1.21s.08-.87.25-1.22c.17-.35.41-.62.71-.81.3-.19.66-.29,1.06-.29s.76.1,1.06.29c.3.19.54.46.71.81.17.35.26.76.26,1.22s-.09.87-.26,1.21c-.17.35-.41.62-.71.81-.3.19-.66.29-1.06.29ZM245.47,596.71c.31,0,.56-.08.76-.24.2-.16.34-.36.44-.62.09-.26.14-.53.14-.83s-.05-.58-.14-.84c-.1-.26-.24-.47-.44-.62-.2-.16-.45-.24-.76-.24s-.56.08-.76.24c-.2.16-.34.37-.44.62-.1.26-.14.54-.14.84s.05.58.14.83c.1.26.24.46.44.62.2.16.45.24.76.24ZM250.85,597.23v-4.47h.66v.7h.06c.09-.24.24-.42.45-.56.21-.13.46-.2.75-.2s.54.07.74.2c.2.13.35.32.46.56h.05c.11-.23.29-.41.52-.55.23-.14.5-.21.82-.21.4,0,.73.13.98.38.25.25.38.64.38,1.16v2.99h-.69v-2.99c0-.33-.09-.57-.27-.71-.18-.14-.39-.21-.64-.21-.31,0-.56.09-.73.29-.17.19-.26.43-.26.72v2.91h-.7v-3.06c0-.26-.08-.46-.25-.62-.17-.16-.38-.24-.64-.24-.18,0-.35.05-.5.14-.15.09-.28.23-.37.4-.09.17-.14.36-.14.58v2.8h-.69ZM259.86,597.32c-.43,0-.8-.1-1.12-.29-.31-.19-.55-.46-.72-.8-.17-.34-.25-.75-.25-1.21s.08-.86.25-1.21c.17-.35.4-.62.7-.82.3-.2.66-.3,1.06-.3.23,0,.46.04.69.12.23.08.43.21.62.38.19.17.33.4.45.69.11.29.17.64.17,1.05v.29h-3.45v-.6h2.75c0-.25-.05-.48-.15-.68-.1-.2-.24-.35-.43-.47-.18-.12-.4-.17-.65-.17-.27,0-.51.07-.71.21-.2.13-.35.31-.46.52-.11.21-.16.44-.16.69v.39c0,.34.06.62.17.86.12.23.28.41.49.53.21.12.45.18.73.18.18,0,.34-.03.49-.08.15-.05.27-.13.38-.23s.19-.24.25-.39l.66.19c-.07.23-.19.42-.35.6-.17.17-.37.3-.61.39-.24.09-.52.14-.82.14ZM263.44,594.54v2.69h-.69v-4.47h.66v.7h.06c.1-.23.26-.41.48-.55.21-.14.49-.21.83-.21.3,0,.57.06.8.19.23.12.4.31.53.56.13.25.19.56.19.94v2.84h-.69v-2.8c0-.35-.09-.63-.27-.82-.18-.2-.43-.3-.75-.3-.22,0-.42.05-.59.14-.17.09-.31.23-.4.42-.1.18-.15.4-.15.67ZM270.73,593.76l-.62.18c-.04-.1-.1-.21-.17-.3-.07-.1-.17-.18-.3-.25-.13-.06-.29-.09-.49-.09-.27,0-.5.06-.68.19-.18.12-.27.28-.27.47,0,.17.06.31.19.41.12.1.32.18.58.25l.66.16c.4.09.7.25.89.44.2.2.29.45.29.77,0,.26-.07.49-.22.69-.15.2-.35.36-.61.48-.26.12-.57.18-.91.18-.46,0-.83-.1-1.13-.3-.3-.2-.49-.49-.57-.87l.65-.16c.06.24.18.42.35.54.17.12.4.18.68.18.32,0,.57-.07.76-.2.19-.14.29-.3.29-.5,0-.15-.05-.29-.16-.39-.11-.11-.28-.19-.5-.24l-.75-.17c-.41-.1-.71-.25-.9-.45-.19-.21-.29-.46-.29-.77,0-.25.07-.48.21-.67.14-.2.34-.35.59-.46.25-.11.53-.17.85-.17.44,0,.79.1,1.04.29.25.19.44.45.54.77ZM273.16,597.33c-.28,0-.54-.05-.77-.16-.23-.11-.41-.27-.55-.47-.14-.21-.2-.45-.2-.75,0-.26.05-.46.15-.62.1-.16.24-.29.41-.38.17-.09.36-.16.56-.21.21-.05.41-.08.62-.11.27-.03.49-.06.66-.08.17-.02.3-.05.37-.09.08-.04.12-.12.12-.23v-.03c0-.29-.08-.51-.24-.67-.16-.16-.39-.24-.71-.24s-.59.07-.77.22c-.19.14-.32.3-.39.46l-.65-.23c.12-.27.27-.49.47-.64.2-.15.41-.26.64-.32.23-.06.46-.09.69-.09.14,0,.31.02.5.05.19.03.37.1.54.21.18.11.32.27.44.48.12.21.17.5.17.85v2.95h-.69v-.61h-.03c-.05.1-.12.2-.23.31-.11.11-.25.21-.43.28-.18.08-.4.12-.66.12ZM273.27,596.72c.27,0,.5-.05.69-.16.19-.11.33-.25.43-.41.1-.17.15-.35.15-.53v-.63s-.09.07-.19.1c-.1.03-.21.05-.34.07-.13.02-.25.03-.37.05-.12.02-.21.03-.29.03-.18.03-.35.06-.5.11-.15.05-.28.13-.37.23-.09.1-.14.24-.14.41,0,.24.09.42.27.54.18.12.4.18.68.18ZM276.47,592.76h.69v4.8c0,.28-.05.51-.14.72-.09.2-.24.36-.43.47-.19.11-.43.17-.71.17h-.14v-.64h.13c.21,0,.36-.06.46-.19s.15-.3.15-.53v-4.8ZM276.8,592.01c-.13,0-.25-.04-.35-.14-.1-.09-.14-.2-.14-.33s.05-.24.14-.33c.1-.09.21-.14.35-.14s.25.04.34.14c.1.09.15.2.15.33s-.05.24-.15.33c-.1.09-.21.14-.34.14ZM280.29,597.32c-.43,0-.8-.1-1.12-.29-.31-.19-.55-.46-.72-.8-.17-.34-.25-.75-.25-1.21s.08-.86.25-1.21c.17-.35.4-.62.7-.82.3-.2.66-.3,1.06-.3.23,0,.46.04.69.12.23.08.43.21.62.38.19.17.33.4.45.69.11.29.17.64.17,1.05v.29h-3.45v-.6h2.75c0-.25-.05-.48-.15-.68-.1-.2-.24-.35-.43-.47-.18-.12-.4-.17-.65-.17-.27,0-.51.07-.71.21-.2.13-.35.31-.46.52-.11.21-.16.44-.16.69v.39c0,.34.06.62.17.86.12.23.28.41.49.53.21.12.45.18.73.18.18,0,.34-.03.49-.08.15-.05.27-.13.38-.23.11-.1.19-.24.25-.39l.66.19c-.07.23-.19.42-.35.6-.17.17-.37.3-.61.39-.24.09-.52.14-.82.14ZM196.19,607.96v-5.97h.72v5.33h2.77v.64h-3.5ZM202.53,608.05c-.4,0-.76-.1-1.06-.29-.3-.19-.54-.46-.71-.81-.17-.34-.25-.75-.25-1.21s.08-.87.25-1.22c.17-.35.41-.62.71-.81.31-.19.66-.29,1.06-.29s.76.1,1.06.29c.31.19.54.46.71.81.17.35.26.76.26,1.22s-.09.87-.26,1.21c-.17.35-.41.62-.71.81-.3.19-.66.29-1.06.29ZM202.53,607.44c.31,0,.56-.08.76-.24s.34-.36.44-.62c.1-.26.14-.53.14-.83s-.05-.58-.14-.84c-.09-.26-.24-.47-.44-.62-.2-.16-.45-.24-.76-.24s-.56.08-.76.24c-.2.16-.34.37-.44.62-.1.26-.14.54-.14.84s.05.58.14.83c.09.26.24.46.44.62.2.16.45.24.76.24ZM208.78,604.49l-.62.18c-.04-.1-.1-.21-.17-.3-.07-.1-.17-.18-.3-.25-.13-.06-.29-.09-.49-.09-.27,0-.5.06-.68.19-.18.12-.27.28-.27.47,0,.17.06.31.19.41.12.1.32.18.58.25l.66.16c.4.09.7.25.89.44.2.2.29.45.29.77,0,.26-.07.49-.22.69-.15.2-.35.36-.61.48s-.57.18-.91.18c-.46,0-.83-.1-1.13-.3-.3-.2-.49-.49-.57-.87l.65-.16c.06.24.18.42.35.54.17.12.4.18.68.18.32,0,.57-.07.76-.2.19-.14.29-.3.29-.5,0-.15-.05-.29-.16-.39-.11-.11-.28-.19-.5-.24l-.75-.17c-.41-.1-.71-.25-.9-.45-.19-.21-.29-.46-.29-.77,0-.25.07-.48.21-.67.14-.2.34-.35.59-.46.25-.11.53-.17.85-.17.44,0,.79.1,1.04.29.25.19.44.45.54.77ZM212.29,607.96v-5.97h.69v2.2h.06c.05-.08.12-.18.21-.3.09-.12.22-.23.39-.33.17-.09.4-.15.69-.15.38,0,.71.09,1,.28.29.19.51.45.67.8.16.34.24.75.24,1.22s-.08.88-.24,1.23-.38.62-.67.8c-.29.19-.61.28-.99.28-.29,0-.52-.05-.69-.15-.17-.1-.31-.21-.4-.33-.09-.12-.17-.23-.22-.31h-.08v.69h-.66ZM212.97,605.72c0,.34.05.63.15.89.1.26.24.46.43.6.19.15.42.22.7.22s.53-.08.72-.23c.19-.15.34-.36.44-.62.1-.26.15-.55.15-.87s-.05-.6-.15-.85c-.1-.25-.24-.45-.43-.6-.19-.15-.43-.22-.73-.22s-.51.07-.7.21c-.19.14-.33.34-.43.59-.1.25-.15.54-.15.88ZM217.3,607.96v-4.47h.66v.68h.05c.08-.22.23-.4.44-.54.21-.14.45-.21.72-.21.05,0,.11,0,.19,0,.08,0,.13,0,.17,0v.7s-.08-.02-.16-.03c-.08-.02-.17-.02-.26-.02-.22,0-.41.05-.58.14-.17.09-.3.21-.4.37-.1.16-.15.34-.15.54v2.83h-.69ZM222.03,608.05c-.4,0-.76-.1-1.06-.29-.3-.19-.54-.46-.71-.81-.17-.34-.25-.75-.25-1.21s.08-.87.25-1.22c.17-.35.41-.62.71-.81.31-.19.66-.29,1.06-.29s.76.1,1.06.29c.3.19.54.46.71.81.17.35.26.76.26,1.22s-.09.87-.26,1.21c-.17.35-.41.62-.71.81-.3.19-.66.29-1.06.29ZM222.03,607.44c.31,0,.56-.08.76-.24.2-.16.34-.36.44-.62.1-.26.14-.53.14-.83s-.05-.58-.14-.84c-.1-.26-.24-.47-.44-.62-.2-.16-.45-.24-.76-.24s-.56.08-.76.24c-.2.16-.34.37-.44.62-.1.26-.14.54-.14.84s.05.58.14.83c.09.26.24.46.44.62s.45.24.76.24ZM227.05,603.48v.58h-2.32v-.58h2.32ZM225.41,602.41h.69v4.27c0,.19.03.34.08.44.06.09.13.16.22.19.09.03.19.05.29.05.08,0,.14,0,.19-.01.05,0,.09-.02.12-.02l.14.62s-.11.03-.2.05c-.08.02-.19.03-.32.03-.19,0-.38-.04-.57-.12-.18-.09-.34-.21-.46-.38-.12-.17-.18-.39-.18-.65v-4.45ZM228.87,605.27v2.69h-.69v-5.97h.69v2.19h.06c.11-.23.26-.41.47-.55.21-.14.49-.21.85-.21.3,0,.57.06.8.18.23.12.41.31.53.56.13.25.19.56.19.95v2.84h-.69v-2.8c0-.36-.09-.63-.28-.83-.18-.2-.44-.29-.76-.29-.23,0-.43.05-.61.14-.18.09-.32.23-.42.42-.1.18-.15.4-.15.67ZM234.91,608.05c-.43,0-.8-.1-1.12-.29-.31-.19-.55-.46-.72-.8-.17-.34-.25-.75-.25-1.21s.08-.86.25-1.21c.17-.35.4-.62.71-.82.3-.2.66-.3,1.06-.3.23,0,.46.04.69.12.23.08.43.21.62.38.19.17.34.4.45.69.11.29.17.64.17,1.05v.29h-3.45v-.6h2.75c0-.25-.05-.48-.15-.68-.1-.2-.24-.35-.43-.47-.18-.12-.4-.17-.65-.17-.27,0-.51.07-.71.21-.2.13-.35.31-.46.52-.11.21-.16.44-.16.69v.39c0,.34.06.62.17.86.12.23.28.41.49.53.21.12.45.18.73.18.18,0,.34-.03.49-.08.15-.05.27-.13.38-.23.11-.1.19-.24.25-.39l.66.19c-.07.23-.19.42-.35.6-.17.17-.37.3-.61.39-.24.09-.52.14-.82.14ZM237.81,607.96v-4.47h.66v.68h.05c.08-.22.23-.4.44-.54.21-.14.45-.21.72-.21.05,0,.11,0,.19,0,.08,0,.13,0,.17,0v.7s-.08-.02-.16-.03c-.08-.02-.17-.02-.26-.02-.22,0-.41.05-.58.14-.17.09-.3.21-.4.37-.1.16-.15.34-.15.54v2.83h-.69ZM241.45,601.99v2.05h-.64v-2.05h.64ZM244.99,607.96v-4.47h.66v.7h.06c.09-.24.24-.42.45-.56.21-.13.46-.2.75-.2s.54.07.74.2c.2.13.35.32.46.56h.05c.11-.23.29-.41.52-.55.23-.14.5-.21.82-.21.4,0,.73.13.98.38.25.25.38.64.38,1.16v2.99h-.69v-2.99c0-.33-.09-.57-.27-.71-.18-.14-.39-.21-.64-.21-.31,0-.56.09-.73.29-.17.19-.26.43-.26.72v2.91h-.7v-3.06c0-.26-.08-.46-.25-.62-.17-.16-.38-.24-.64-.24-.18,0-.35.05-.5.14-.15.09-.28.23-.37.4-.09.17-.14.36-.14.58v2.8h-.69ZM253.99,608.05c-.43,0-.8-.1-1.12-.29-.31-.19-.55-.46-.72-.8-.17-.34-.25-.75-.25-1.21s.08-.86.25-1.21c.17-.35.4-.62.7-.82.3-.2.66-.3,1.06-.3.23,0,.46.04.69.12.23.08.43.21.62.38.19.17.33.4.45.69.11.29.17.64.17,1.05v.29h-3.45v-.6h2.75c0-.25-.05-.48-.15-.68-.1-.2-.24-.35-.43-.47-.18-.12-.4-.17-.65-.17-.27,0-.51.07-.71.21-.2.13-.35.31-.46.52-.11.21-.16.44-.16.69v.39c0,.34.06.62.17.86.12.23.28.41.49.53.21.12.45.18.73.18.18,0,.34-.03.49-.08.15-.05.27-.13.38-.23.11-.1.19-.24.25-.39l.66.19c-.07.23-.19.42-.35.6-.17.17-.37.3-.61.39-.24.09-.52.14-.82.14ZM259.89,601.99v5.97h-.69v-5.97h.69ZM262.46,608.06c-.28,0-.54-.05-.77-.16-.23-.11-.41-.27-.55-.47-.14-.21-.2-.45-.2-.75,0-.26.05-.46.15-.62.1-.16.24-.29.4-.38.17-.09.36-.16.56-.21.21-.05.41-.08.62-.11.27-.03.49-.06.66-.08.17-.02.3-.05.37-.09.08-.04.12-.12.12-.23v-.03c0-.29-.08-.51-.24-.67-.16-.16-.39-.24-.71-.24s-.59.07-.77.22c-.19.14-.32.3-.39.46l-.65-.23c.12-.27.27-.49.47-.64.2-.15.41-.26.64-.32.23-.06.46-.09.69-.09.14,0,.31.02.5.05.19.03.37.1.54.21.18.11.32.27.44.48.12.21.17.5.17.85v2.95h-.69v-.61h-.04c-.05.1-.12.2-.23.31-.11.11-.25.21-.43.28-.18.08-.4.12-.66.12ZM262.57,607.44c.27,0,.5-.05.69-.16.19-.11.33-.25.43-.41.1-.17.15-.35.15-.53v-.63s-.09.07-.19.1c-.1.03-.21.05-.34.07-.13.02-.25.03-.37.05-.12.02-.21.03-.29.03-.18.03-.35.06-.5.11-.15.05-.28.13-.37.23-.09.1-.14.24-.14.41,0,.24.09.42.27.54.18.12.4.18.68.18ZM268.08,607.96v-4.47h.66v.7h.06c.09-.24.24-.42.45-.56.21-.13.46-.2.75-.2s.54.07.74.2c.2.13.35.32.46.56h.05c.11-.23.29-.41.52-.55.23-.14.5-.21.82-.21.4,0,.73.13.98.38.25.25.38.64.38,1.16v2.99h-.69v-2.99c0-.33-.09-.57-.27-.71-.18-.14-.39-.21-.64-.21-.31,0-.56.09-.73.29-.17.19-.26.43-.26.72v2.91h-.7v-3.06c0-.26-.08-.46-.25-.62-.17-.16-.38-.24-.64-.24-.18,0-.35.05-.5.14-.15.09-.28.23-.37.4-.09.17-.14.36-.14.58v2.8h-.69ZM277.03,608.05c-.4,0-.76-.1-1.06-.29-.3-.19-.54-.46-.71-.81-.17-.34-.25-.75-.25-1.21s.08-.87.25-1.22c.17-.35.41-.62.71-.81.31-.19.66-.29,1.06-.29s.76.1,1.06.29c.31.19.54.46.71.81.17.35.26.76.26,1.22s-.09.87-.26,1.21c-.17.35-.41.62-.71.81-.3.19-.66.29-1.06.29ZM277.03,607.44c.31,0,.56-.08.76-.24.2-.16.34-.36.44-.62.1-.26.14-.53.14-.83s-.05-.58-.14-.84c-.09-.26-.24-.47-.44-.62-.2-.16-.45-.24-.76-.24s-.56.08-.76.24c-.2.16-.34.37-.44.62-.1.26-.14.54-.14.84s.05.58.14.83c.09.26.24.46.44.62s.45.24.76.24ZM280.79,605.27v2.69h-.69v-4.47h.66v.7h.06c.1-.23.26-.41.48-.55.21-.14.49-.21.83-.21.3,0,.57.06.8.19.23.12.4.31.53.56.13.25.19.56.19.94v2.84h-.69v-2.8c0-.35-.09-.63-.27-.82-.18-.2-.43-.3-.75-.3-.22,0-.42.05-.59.14-.17.09-.31.23-.4.42-.1.18-.15.4-.15.67ZM286.85,603.48v.58h-2.32v-.58h2.32ZM285.21,602.41h.69v4.27c0,.19.03.34.08.44.06.09.13.16.22.19.09.03.19.05.29.05.08,0,.14,0,.19-.01.05,0,.09-.02.12-.02l.14.62s-.11.03-.2.05c-.08.02-.19.03-.32.03-.19,0-.38-.04-.57-.12-.18-.09-.34-.21-.46-.38-.12-.17-.18-.39-.18-.65v-4.45ZM289.2,608.06c-.28,0-.54-.05-.77-.16-.23-.11-.41-.27-.55-.47-.14-.21-.2-.45-.2-.75,0-.26.05-.46.15-.62.1-.16.24-.29.41-.38.17-.09.36-.16.56-.21.21-.05.41-.08.62-.11.27-.03.49-.06.66-.08.17-.02.3-.05.37-.09.08-.04.12-.12.12-.23v-.03c0-.29-.08-.51-.24-.67-.16-.16-.39-.24-.71-.24s-.59.07-.77.22c-.19.14-.32.3-.39.46l-.65-.23c.12-.27.27-.49.47-.64.2-.15.41-.26.64-.32.23-.06.46-.09.69-.09.14,0,.31.02.5.05.19.03.37.1.54.21.18.11.32.27.44.48.12.21.17.5.17.85v2.95h-.69v-.61h-.03c-.05.1-.12.2-.23.31-.11.11-.25.21-.43.28-.18.08-.4.12-.66.12ZM289.31,607.44c.27,0,.5-.05.69-.16.19-.11.33-.25.43-.41.1-.17.15-.35.15-.53v-.63s-.09.07-.19.1c-.1.03-.21.05-.34.07-.13.02-.25.03-.37.05-.12.02-.21.03-.29.03-.18.03-.35.06-.5.11-.15.05-.28.13-.37.23-.09.1-.14.24-.14.41,0,.24.09.42.27.54.18.12.4.18.68.18ZM293.19,605.27v2.69h-.69v-4.47h.66v.7h.06c.11-.23.26-.41.48-.55.21-.14.49-.21.83-.21.3,0,.57.06.8.19s.4.31.53.56c.13.25.19.56.19.94v2.84h-.69v-2.8c0-.35-.09-.63-.27-.82-.18-.2-.43-.3-.75-.3-.22,0-.42.05-.59.14-.17.09-.31.23-.41.42s-.15.4-.15.67ZM195.45,618.69h-1.84v-5.97h1.92c.58,0,1.07.12,1.49.36.41.24.73.58.95,1.02.22.44.33.97.33,1.59s-.11,1.15-.33,1.61c-.22.44-.54.79-.97,1.03-.42.24-.94.36-1.54.36ZM194.33,618.05h1.07c.49,0,.9-.09,1.23-.29.32-.19.57-.46.73-.81.16-.35.24-.77.24-1.26s-.08-.9-.24-1.24c-.16-.35-.39-.62-.7-.8-.31-.19-.7-.28-1.17-.28h-1.15v4.69ZM199.41,618.69v-4.47h.69v4.47h-.69ZM199.76,613.47c-.13,0-.25-.04-.35-.14-.09-.09-.14-.2-.14-.33s.05-.24.14-.33c.1-.09.21-.14.35-.14s.25.04.34.14c.1.09.15.2.15.33s-.05.24-.15.33c-.1.09-.21.14-.34.14ZM203.17,618.78c-.42,0-.78-.1-1.08-.3-.3-.2-.54-.47-.7-.82-.16-.35-.24-.74-.24-1.19s.08-.86.25-1.2c.17-.35.4-.62.71-.82.3-.2.66-.3,1.06-.3.31,0,.6.06.85.18.25.12.46.28.62.49.16.21.26.45.3.73h-.69c-.05-.2-.17-.38-.35-.54-.18-.16-.42-.24-.72-.24-.27,0-.5.07-.7.21-.2.14-.36.33-.47.58-.11.25-.17.55-.17.88s.05.65.16.9c.11.26.27.45.47.6.2.14.44.21.71.21.18,0,.34-.03.49-.09.15-.06.27-.15.37-.27.1-.12.17-.26.22-.42h.69c-.04.27-.14.5-.29.72-.15.21-.35.38-.6.5-.25.12-.54.19-.87.19ZM207.82,618.78c-.43,0-.8-.1-1.12-.29-.31-.19-.55-.46-.72-.8-.17-.34-.25-.75-.25-1.21s.08-.86.25-1.21c.17-.35.4-.62.7-.82.3-.2.66-.3,1.06-.3.23,0,.46.04.69.12.23.08.43.21.62.38.19.17.34.4.45.69.11.29.17.64.17,1.05v.29h-3.45v-.6h2.75c0-.25-.05-.48-.15-.68-.1-.2-.24-.35-.43-.47-.18-.12-.4-.17-.65-.17-.27,0-.51.07-.71.21-.2.13-.35.31-.46.52-.11.21-.16.44-.16.69v.39c0,.34.06.62.17.86.12.23.28.41.49.53.21.12.45.18.73.18.18,0,.34-.03.49-.08.15-.05.27-.13.38-.23.11-.1.19-.24.25-.39l.66.19c-.07.23-.19.42-.35.6-.17.17-.37.3-.61.39-.24.09-.52.14-.82.14ZM211.4,616v2.69h-.69v-4.47h.66v.7h.06c.1-.23.26-.41.48-.55.21-.14.49-.21.83-.21.3,0,.57.06.8.19.23.12.4.31.53.56.13.25.19.56.19.94v2.84h-.69v-2.8c0-.35-.09-.63-.27-.82-.18-.2-.43-.3-.75-.3-.22,0-.42.05-.59.14-.17.09-.31.23-.41.42-.1.18-.15.4-.15.67ZM220.87,620.37v-2.37h-.06c-.05.08-.12.19-.22.31-.09.12-.23.23-.4.33-.17.09-.4.15-.69.15-.37,0-.7-.09-.99-.28-.29-.19-.51-.46-.67-.8s-.24-.76-.24-1.23.08-.88.24-1.22c.16-.35.39-.61.67-.8.29-.19.62-.28,1-.28.29,0,.52.05.69.15.17.1.3.21.39.33.09.12.16.22.21.3h.08v-.71h.66v6.15h-.69ZM219.6,618.16c.28,0,.51-.07.7-.22.19-.15.34-.34.43-.6s.15-.56.15-.89-.05-.63-.15-.88c-.1-.25-.24-.45-.43-.59-.19-.14-.43-.21-.71-.21s-.53.08-.73.22c-.19.15-.34.35-.43.6-.09.25-.14.54-.14.85s.05.61.15.87c.1.26.24.46.44.62.19.15.43.23.72.23ZM225.64,616.86v-2.64h.69v4.47h-.69v-.76h-.05c-.1.23-.27.42-.49.58-.22.16-.5.23-.84.23-.28,0-.53-.06-.75-.18-.22-.12-.39-.31-.51-.56-.12-.25-.19-.56-.19-.95v-2.84h.69v2.8c0,.33.09.59.27.78.18.19.42.29.71.29.17,0,.34-.04.52-.13.18-.09.33-.22.45-.4.12-.18.18-.41.18-.69ZM229.46,618.78c-.43,0-.8-.1-1.12-.29-.31-.19-.55-.46-.72-.8-.17-.34-.25-.75-.25-1.21s.08-.86.25-1.21c.17-.35.4-.62.71-.82.3-.2.66-.3,1.06-.3.23,0,.46.04.69.12.23.08.43.21.62.38.19.17.34.4.45.69.11.29.17.64.17,1.05v.29h-3.45v-.6h2.75c0-.25-.05-.48-.15-.68-.1-.2-.24-.35-.43-.47-.18-.12-.4-.17-.65-.17-.27,0-.51.07-.71.21-.2.13-.35.31-.46.52-.11.21-.16.44-.16.69v.39c0,.34.06.62.17.86.12.23.28.41.49.53.21.12.45.18.73.18.18,0,.34-.03.49-.08.15-.05.27-.13.38-.23.11-.1.19-.24.25-.39l.66.19c-.07.23-.19.42-.35.6-.17.17-.37.3-.61.39-.24.09-.52.14-.82.14ZM236.55,618.78c-.43,0-.8-.1-1.12-.29-.31-.19-.55-.46-.72-.8-.17-.34-.25-.75-.25-1.21s.08-.86.25-1.21c.17-.35.4-.62.7-.82.3-.2.66-.3,1.06-.3.23,0,.46.04.69.12.23.08.43.21.62.38.19.17.33.4.45.69.11.29.17.64.17,1.05v.29h-3.45v-.6h2.75c0-.25-.05-.48-.15-.68-.1-.2-.24-.35-.43-.47-.18-.12-.4-.17-.65-.17-.27,0-.51.07-.71.21-.2.13-.35.31-.46.52-.11.21-.16.44-.16.69v.39c0,.34.06.62.17.86.12.23.28.41.49.53.21.12.45.18.73.18.18,0,.34-.03.49-.08.15-.05.27-.13.38-.23.11-.1.19-.24.25-.39l.66.19c-.07.23-.19.42-.35.6-.17.17-.37.3-.61.39-.24.09-.52.14-.82.14ZM242.62,615.21l-.62.18c-.04-.1-.1-.21-.17-.3-.07-.1-.17-.18-.3-.25-.13-.06-.29-.09-.49-.09-.27,0-.5.06-.68.19-.18.12-.27.28-.27.47,0,.17.06.31.19.41.12.1.32.18.58.25l.66.16c.4.09.7.25.89.44.2.2.29.45.29.77,0,.26-.07.49-.22.69-.15.2-.35.36-.61.48s-.57.18-.91.18c-.46,0-.83-.1-1.13-.3-.3-.2-.49-.49-.57-.87l.65-.16c.06.24.18.42.35.54.17.12.4.18.68.18.32,0,.57-.07.76-.2.19-.14.29-.3.29-.5,0-.15-.05-.29-.16-.39-.11-.11-.28-.19-.5-.24l-.75-.17c-.41-.1-.71-.25-.9-.45-.19-.21-.29-.46-.29-.77,0-.25.07-.48.21-.67.14-.2.34-.35.59-.46.25-.11.53-.17.85-.17.44,0,.79.1,1.04.29.25.19.44.45.54.77ZM245.68,614.21v.58h-2.32v-.58h2.32ZM244.04,613.14h.69v4.27c0,.19.03.34.08.44.06.09.13.16.22.19.09.03.19.05.29.05.08,0,.14,0,.19-.01.05,0,.09-.02.12-.02l.14.62s-.11.03-.2.05c-.08.02-.19.03-.32.03-.19,0-.38-.04-.57-.12-.18-.09-.34-.21-.46-.38-.12-.17-.18-.39-.18-.65v-4.45ZM248.48,618.78c-.4,0-.76-.1-1.06-.29-.3-.19-.54-.46-.71-.81-.17-.34-.25-.75-.25-1.21s.08-.87.25-1.22c.17-.35.41-.62.71-.81.31-.19.66-.29,1.06-.29s.76.1,1.06.29c.31.19.54.46.71.81.17.35.26.76.26,1.22s-.09.87-.26,1.21c-.17.35-.41.62-.71.81-.3.19-.66.29-1.06.29ZM248.48,618.16c.31,0,.56-.08.76-.24s.34-.36.44-.62c.1-.26.14-.53.14-.83s-.05-.58-.14-.84c-.09-.26-.24-.47-.44-.62-.2-.16-.45-.24-.76-.24s-.56.08-.76.24c-.2.16-.34.37-.44.62-.1.26-.14.54-.14.84s.05.58.14.83c.09.26.24.46.44.62.2.16.45.24.76.24ZM251.84,620.37c-.12,0-.22,0-.31-.03-.09-.02-.15-.04-.19-.05l.17-.61c.17.04.31.06.44.05.13-.01.24-.07.34-.17.1-.1.19-.27.28-.49l.13-.35-1.65-4.5h.75l1.24,3.57h.05l1.24-3.57h.75l-1.9,5.13c-.09.23-.19.42-.32.57-.13.15-.27.27-.44.34-.17.07-.35.11-.56.11ZM260.15,618.78c-.43,0-.8-.1-1.12-.29-.31-.19-.55-.46-.72-.8-.17-.34-.25-.75-.25-1.21s.08-.86.25-1.21c.17-.35.4-.62.71-.82.3-.2.66-.3,1.06-.3.23,0,.46.04.69.12.23.08.43.21.62.38.19.17.34.4.45.69.11.29.17.64.17,1.05v.29h-3.45v-.6h2.75c0-.25-.05-.48-.15-.68-.1-.2-.24-.35-.43-.47-.18-.12-.4-.17-.65-.17-.27,0-.51.07-.71.21-.2.13-.35.31-.46.52-.11.21-.16.44-.16.69v.39c0,.34.06.62.17.86.12.23.28.41.49.53.21.12.45.18.73.18.18,0,.34-.03.49-.08.15-.05.27-.13.38-.23.11-.1.19-.24.25-.39l.66.19c-.07.23-.19.42-.35.6-.17.17-.37.3-.61.39-.24.09-.52.14-.82.14ZM263.74,616v2.69h-.69v-4.47h.66v.7h.06c.1-.23.26-.41.48-.55.21-.14.49-.21.83-.21.3,0,.57.06.8.19.23.12.4.31.53.56.13.25.19.56.19.94v2.84h-.69v-2.8c0-.35-.09-.63-.27-.82-.18-.2-.43-.3-.75-.3-.22,0-.42.05-.59.14-.17.09-.31.23-.4.42-.1.18-.15.4-.15.67ZM272.98,616.86v-2.64h.69v4.47h-.69v-.76h-.05c-.1.23-.27.42-.49.58-.22.16-.5.23-.84.23-.28,0-.53-.06-.75-.18-.22-.12-.39-.31-.51-.56-.12-.25-.19-.56-.19-.95v-2.84h.69v2.8c0,.33.09.59.27.78.18.19.42.29.71.29.17,0,.34-.04.52-.13.18-.09.33-.22.45-.4.12-.18.18-.41.18-.69ZM275.61,616v2.69h-.69v-4.47h.66v.7h.06c.1-.23.26-.41.48-.55.21-.14.49-.21.83-.21.3,0,.57.06.8.19.23.12.4.31.53.56.13.25.19.56.19.94v2.84h-.69v-2.8c0-.35-.09-.63-.27-.82-.18-.2-.43-.3-.75-.3-.22,0-.42.05-.59.14-.17.09-.31.23-.4.42-.1.18-.15.4-.15.67ZM285.69,614.21l-1.65,4.47h-.7l-1.66-4.47h.75l1.24,3.57h.05l1.24-3.57h.75ZM286.6,618.69v-4.47h.69v4.47h-.69ZM286.95,613.47c-.13,0-.25-.04-.35-.14-.09-.09-.14-.2-.14-.33s.05-.24.14-.33c.1-.09.21-.14.35-.14s.25.04.34.14c.1.09.15.2.15.33s-.05.24-.15.33c-.09.09-.21.14-.34.14ZM289.86,618.79c-.28,0-.54-.05-.77-.16-.23-.11-.41-.27-.55-.47-.14-.21-.2-.45-.2-.75,0-.26.05-.46.15-.62.1-.16.24-.29.41-.38.17-.09.36-.16.56-.21.21-.05.41-.08.62-.11.27-.03.49-.06.66-.08.17-.02.3-.05.37-.09.08-.04.12-.12.12-.23v-.03c0-.29-.08-.51-.24-.67-.16-.16-.39-.24-.71-.24s-.59.07-.77.22c-.19.14-.32.3-.39.46l-.65-.23c.12-.27.27-.49.47-.64.2-.15.41-.26.64-.32.23-.06.46-.09.69-.09.14,0,.31.02.5.05.19.03.37.1.54.21.18.11.32.27.44.48.12.21.17.5.17.85v2.95h-.69v-.61h-.04c-.05.1-.12.2-.23.31-.11.11-.25.21-.43.28-.18.08-.4.12-.66.12ZM289.97,618.17c.27,0,.5-.05.69-.16.19-.11.33-.25.43-.41.1-.17.15-.35.15-.53v-.63s-.09.07-.19.1c-.1.03-.21.05-.34.07-.13.02-.25.03-.37.05-.12.02-.21.03-.29.03-.18.03-.35.06-.5.11-.15.05-.28.13-.37.23-.09.1-.14.24-.14.41,0,.24.09.42.27.54.18.12.41.18.68.18ZM293.17,614.21h.69v4.8c0,.28-.05.51-.14.72-.09.2-.24.36-.43.47-.19.11-.43.17-.71.17h-.14v-.64h.13c.21,0,.36-.06.46-.19.1-.12.15-.3.15-.53v-4.8ZM293.51,613.47c-.13,0-.25-.04-.35-.14-.1-.09-.14-.2-.14-.33s.05-.24.14-.33c.1-.09.21-.14.35-.14s.25.04.34.14c.1.09.15.2.15.33s-.05.24-.15.33c-.1.09-.21.14-.34.14ZM296.99,618.78c-.43,0-.8-.1-1.12-.29-.31-.19-.55-.46-.72-.8-.17-.34-.25-.75-.25-1.21s.08-.86.25-1.21c.17-.35.4-.62.71-.82.3-.2.66-.3,1.06-.3.23,0,.46.04.69.12.23.08.43.21.62.38.19.17.34.4.45.69.11.29.17.64.17,1.05v.29h-3.45v-.6h2.75c0-.25-.05-.48-.15-.68-.1-.2-.24-.35-.43-.47-.18-.12-.4-.17-.65-.17-.27,0-.51.07-.71.21-.2.13-.35.31-.46.52-.11.21-.16.44-.16.69v.39c0,.34.06.62.17.86.12.23.28.41.49.53.21.12.45.18.73.18.18,0,.34-.03.49-.08.15-.05.27-.13.38-.23.11-.1.19-.24.25-.39l.66.19c-.07.23-.19.42-.35.6-.17.17-.37.3-.61.39-.24.09-.52.14-.82.14Z"/>
    <path class="cls-1" d="M189.54,565.7h.83l1.66,2.79h.07l1.65-2.79h.83l-2.16,3.51v2.46h-.72v-2.46l-2.16-3.51ZM198.06,571.67h-.76l2.19-5.97h.75l2.19,5.97h-.76l-1.78-5.02h-.05l-1.78,5.02ZM198.34,569.34h3.05v.64h-3.05v-.64ZM203.36,571.67v-5.97h.72v2.66h3.18v-2.66h.72v5.97h-.72v-2.67h-3.18v2.67h-.72ZM214.47,568.69c0,.63-.11,1.17-.34,1.63-.23.46-.54.81-.94,1.06-.4.25-.85.37-1.36.37s-.96-.13-1.36-.37c-.4-.25-.71-.6-.94-1.06-.23-.46-.34-1-.34-1.63s.11-1.17.34-1.63c.23-.46.54-.81.94-1.06.4-.25.85-.37,1.36-.37s.96.13,1.36.37c.4.25.71.6.94,1.06.23.46.34,1,.34,1.63ZM213.77,568.69c0-.52-.09-.95-.26-1.31-.17-.36-.4-.62-.7-.81-.29-.18-.62-.27-.98-.27s-.69.09-.98.27c-.29.18-.52.45-.7.81-.17.36-.26.79-.26,1.31s.09.95.26,1.31c.17.36.4.62.7.81.29.18.62.27.98.27s.69-.09.98-.27c.29-.18.53-.45.7-.81.17-.36.26-.79.26-1.31ZM215.69,571.67v-5.97h2.02c.47,0,.85.08,1.15.24.3.16.52.37.66.65.14.27.22.59.22.94s-.07.66-.22.93c-.14.27-.36.49-.66.64-.3.15-.68.23-1.14.23h-1.63v-.65h1.61c.32,0,.57-.05.77-.14.2-.09.34-.22.43-.39.09-.17.13-.38.13-.62s-.04-.45-.13-.63c-.09-.18-.23-.32-.43-.41-.2-.1-.46-.15-.78-.15h-1.27v5.33h-.72ZM218.49,568.99l1.47,2.68h-.84l-1.45-2.68h.82ZM221.18,571.67h-.76l2.19-5.97h.75l2.19,5.97h-.76l-1.78-5.02h-.05l-1.78,5.02ZM221.46,569.34h3.05v.64h-3.05v-.64ZM227.41,570.85l-.05.32c-.03.22-.08.46-.15.71-.07.25-.14.49-.21.72-.07.22-.13.4-.18.53h-.52c.03-.13.06-.29.1-.49.04-.21.08-.43.12-.68.04-.25.08-.51.1-.77l.04-.33h.75ZM235.82,565.7v5.97h-.7l-3.25-4.69h-.06v4.69h-.72v-5.97h.7l3.26,4.7h.06v-4.7h.71ZM237.99,565.7v5.97h-.72v-5.97h.72ZM245.66,565.7h.72v3.95c0,.41-.1.77-.29,1.09-.19.32-.46.57-.81.75-.35.18-.76.27-1.22.27s-.88-.09-1.22-.27c-.35-.18-.62-.44-.81-.75-.19-.32-.29-.68-.29-1.09v-3.95h.72v3.89c0,.29.06.55.19.78.13.22.31.4.55.53.24.13.52.19.86.19s.62-.06.86-.19c.24-.13.42-.31.55-.53.13-.23.19-.49.19-.78v-3.89ZM252.56,565.7v5.97h-.7l-3.25-4.69h-.06v4.69h-.72v-5.97h.7l3.26,4.7h.06v-4.7h.71ZM254.25,571.67h-.76l2.19-5.97h.75l2.19,5.97h-.76l-1.78-5.02h-.05l-1.78,5.02ZM254.53,569.34h3.05v.64h-3.05v-.64ZM261.85,571.67v-5.97h.72v5.33h2.77v.64h-3.5ZM266.47,571.67v-5.97h.72v5.33h2.77v.64h-3.5ZM271.7,571.67h-.76l2.19-5.97h.75l2.19,5.97h-.76l-1.78-5.02h-.05l-1.78,5.02ZM271.98,569.34h3.05v.64h-3.05v-.64ZM277,565.7h.86l2.03,4.95h.07l2.03-4.95h.86v5.97h-.68v-4.53h-.06l-1.86,4.53h-.65l-1.86-4.53h-.06v4.53h-.68v-5.97ZM284.55,571.67h-.76l2.19-5.97h.75l2.19,5.97h-.76l-1.78-5.02h-.05l-1.78,5.02ZM284.83,569.34h3.05v.64h-3.05v-.64ZM291.69,571.67h-1.84v-5.97h1.92c.58,0,1.07.12,1.49.36.41.24.73.58.95,1.02.22.44.33.97.33,1.59s-.11,1.15-.33,1.61c-.22.44-.54.79-.97,1.03-.42.24-.94.36-1.54.36ZM290.57,571.03h1.07c.49,0,.9-.09,1.23-.29.32-.19.57-.46.73-.81.16-.35.24-.77.24-1.26s-.08-.9-.24-1.24c-.16-.35-.39-.62-.7-.8-.31-.19-.7-.28-1.17-.28h-1.15v4.69ZM295.71,571.67h-.76l2.19-5.97h.75l2.19,5.97h-.76l-1.78-5.02h-.05l-1.78,5.02ZM295.99,569.34h3.05v.64h-3.05v-.64Z"/>
    <path class="cls-1" d="M91.08,241.33c0,3.11-1.76,6.63-4.53,10.32.5,7.3,1.68,16.96,1.93,26.27l4.78-5.79c8.48-10.58,16.2-19.73,16.2-23.75,0-1.18-.84-1.93-2.77-1.93l.08-.5h13.09l-.08.5c-2.18,0-4.36.42-6.21,7.05l-12.26,43.65c-1.85,6.63,0,7.05,2.18,7.05l-.08.5h-13.09l.08-.5c2.18,0,4.36-.42,6.21-7.05l12.26-43.65c.17-.5.25-.92.34-1.34-2.52,5.04-8.56,12.26-14.77,20.06-1.93,2.43-3.95,4.95-5.88,7.3v1.76c0,14.86-7.05,24.76-13.51,24.76-1.93,0-3.02-1.18-3.02-3.02,0-4.45,5.2-11.42,11.75-19.39.08-2.6.17-5.12.17-7.64,0-6.88-.42-14.27-.42-20.57-13.01,14.77-38.19,32.82-38.19,49.44,0,7.13,4.7,16.12,18.97,16.12l-.17.5c-16.12,0-23.67-11.08-23.67-18.3,0-17.38,29.46-35.09,43.06-49.69.08-8.48,1.09-14.77,5.37-14.77,1.18,0,2.18,1.01,2.18,2.6ZM74.71,301.77c0,1.59.92,2.6,2.43,2.6,4.03,0,5.88-8.73,6.46-18.63-5.12,6.72-8.9,12.51-8.9,16.03ZM86.46,250.06c2.35-3.11,3.78-6.04,3.78-8.73,0-1.09-.67-1.76-1.34-1.76-2.35,0-2.77,4.2-2.43,10.49ZM151.26,254.35l4.03,10.41h-.5c-3.11-4.78-5.29-9.57-14.44-9.57h-12.09v20.15h7.3c6.63,0,7.05-2.01,7.05-4.2h.5v9.23h-.5c0-2.18-.42-4.2-7.05-4.2h-7.3v27.7h15.44c9.15,0,11.33-4.78,14.44-9.57h.5l-4.03,10.41h-35.09v-.5c2.18,0,4.2-.42,4.2-7.05v-35.25c0-6.63-2.01-7.05-4.2-7.05v-.5h31.73ZM214.11,254.35l4.03,10.41h-.5c-3.11-4.78-5.29-9.57-14.44-9.57h-2.85v41.97c0,6.63,2.01,7.05,4.2,7.05v.5h-12.93v-.5c2.18,0,4.2-.42,4.2-7.05v-41.97h-2.85c-9.15,0-11.33,4.78-14.44,9.57h-.5l4.03-10.41h32.06ZM230.14,268.11c0-.67.08-1.34.17-2.01-3.27-1.59-5.12-3.95-5.12-6.97,0-4.53,3.69-8.48,9.32-10.07l.25.5c-5.29,1.51-8.73,5.12-8.73,9.32,0,2.69,1.59,4.87,4.45,6.3,2.01-9.9,13.6-20.56,27.87-20.56,6.55,0,10.83,2.94,10.83,7.55,0,8.73-16.28,15.86-28.71,15.86-2.1,0-4.11-.17-5.79-.5-.08.42-.08.84-.08,1.26,0,.76.08,1.43.34,2.01,1.85-.5,3.44-.76,4.7-.76,1.85,0,3.44.34,3.44,1.76,0,1.76-1.93,3.27-5.37,3.27-1.85,0-3.78-.42-5.2-1.51-5.12,2.94-10.32,8.65-10.32,17.63,0,8.39,6.55,13.85,16.62,13.85,8.81,0,17.38-5.62,22.83-13.68l.67.59c-5.29,8.23-14.1,14.1-23.75,14.1-12.93,0-21.24-6.38-21.24-16.2s7.22-15.02,13.85-17.79c-.67-1.01-1.01-2.27-1.01-3.95ZM234.76,266.52c1.51.34,3.27.5,5.2.5,10.16,0,24.51-7.05,24.43-15.7,0-3.44-2.43-5.71-6.3-5.71-13.18,0-22.16,11.25-23.33,20.9ZM235.6,271.97c.92,1.18,2.35,1.76,4.03,1.76,1.51,0,2.6-.76,2.6-1.76,0-.67-.76-1.09-1.76-1.09-1.18,0-2.94.34-4.87,1.09ZM287.27,254.85c-2.18,0-5.46,1.43-2.1,7.05l20.9,35.25c.67,1.18,1.34,2.18,1.85,3.02.08-.84.17-1.85.17-3.02v-35.25c0-6.63-2.01-7.05-4.2-7.05v-.5h9.23v.5c-2.18,0-4.2.42-4.2,7.05v35.25c0,6.63,2.01,7.05,4.2,7.05v.5h-14.35v-.5c2.18,0,5.46-1.43,2.1-7.05l-20.9-35.25c-.67-1.18-1.26-2.1-1.76-2.94-.08.84-.17,1.76-.17,2.94v35.25c0,6.63,2.01,7.05,4.2,7.05v.5h-9.23v-.5c2.18,0,4.2-.42,4.2-7.05v-35.25c0-6.63-2.01-7.05-4.2-7.05v-.5h14.27v.5ZM332.33,254.85c-2.18,0-4.2.42-4.2,7.05v35.25c0,6.63,2.01,7.05,4.2,7.05v.5h-12.93v-.5c2.18,0,4.2-.42,4.2-7.05v-35.25c0-6.63-2.01-7.05-4.2-7.05v-.5h12.93v.5ZM323.6,247.63c1.76-2.01,3.11-4.7,4.53-9.23l4.2,2.52c-2.02,3.11-4.95,5.04-7.89,6.72h-.84ZM382.74,245.95h13.26l-.08.5c-2.18,0-4.36.42-6.21,7.05l-12.25,43.65c-1.85,6.63,0,7.05,2.18,7.05l-.08.5h-13.26l.09-.5c2.18,0,4.36-.42,6.21-7.05l4.11-14.69h-23.33c-6.63,6.3-11.5,13.26-11.5,21.57,0,9.82,8.31,16.96,19.81,16.96l-.17.5c-14.19,0-24.51-7.72-24.51-18.3,0-25.18,48.35-38.11,48.35-54.48,0-1.59-.67-2.27-2.69-2.27l.09-.5ZM354.37,281.46h22.66l7.39-26.52c-5.21,8.73-19.48,16.79-30.05,26.52ZM427.27,264.75c-4.36-6.63-8.98-10.91-16.03-10.91-6.55,0-11.25,3.36-11.25,9.23,0,15.44,30.47,13.6,30.47,30.72,0,6.97-6.72,12.26-17.04,12.26-7.05,0-11.5-2.52-12.84-2.52-.59,0-1.01.08-.59,1.76h-.5l-4.28-11h.5c3.11,4.78,9.06,10.91,17.71,10.91,7.55,0,13.01-4.2,13.01-10.07,0-14.94-30.47-13.09-30.47-30.72,0-6.97,5.96-11.42,15.28-11.42,6.21,0,9.82,2.52,11.16,2.52.59,0,1.01-.08.59-1.76h.5l4.28,11h-.5ZM161.93,353.25c0,3.19-2.18,7.3-5.46,11.92,1.43,13.85,7.81,33.91,8.14,43.65.08-.17.08-.34.17-.59l12.26-43.65c1.85-6.63,0-7.05-2.18-7.05l.08-.5h9.49l-.08.5c-2.18,0-4.36.42-6.21,7.05l-12.26,43.65c-1.85,6.63,0,7.05,2.18,7.05l-.08.5h-9.48l.08-.5c3.36,0,4.95-2.6,4.95-5.62,0-7.39-8.48-25.01-11-39.2-10.07,13.01-24.59,29.13-24.59,43.82,0,7.13,4.7,17.79,18.97,17.79l-.17.5c-16.12,0-23.67-11.08-23.67-19.98,0-13.77,17.96-30.64,29.21-43.98-.25-1.76-.42-3.53-.42-5.2,0-7.05,3.11-13.6,7.39-13.6,1.59,0,2.69,1.34,2.69,3.44ZM156.22,360.39c0,1.01.08,2.01.08,3.11,2.94-3.95,4.78-7.39,4.78-10.24,0-1.59-.59-2.6-1.51-2.6-2.1,0-3.36,3.86-3.36,9.74ZM198.24,365.93c-2.18,0-4.2.42-4.2,7.05v27.78c0,8.98,5.54,14.86,14.1,14.86s14.1-5.88,14.1-14.86v-27.78c0-6.63-2.01-7.05-4.2-7.05v-.5h9.23v.5c-2.18,0-4.2.42-4.2,7.05v27.78c0,9.9-6.63,16.37-16.79,16.37s-16.79-6.46-16.79-16.37v-27.78c0-6.63-2.01-7.05-4.2-7.05v-.5h12.93v.5ZM274.44,361.48c0-7.13-3.11-13.85-13.18-13.85l.17-.5c11.92,0,17.88,8.81,17.88,16.03,0,6.3-3.78,12-8.9,17.38,6.88,2.85,12.67,7.13,12.67,14.35,0,12-14.94,22.24-28.37,22.24-6.46,0-10.58-3.19-10.58-8.14,0-13.35,30.3-27.45,30.3-47.51ZM216.44,432.57l.17-.5c13.43,0,18.05-16.96,19.98-23.84l9.65-34.08c2.01-7.22,5.2-13.18,8.73-16.87-2.52-.34-5.12-.76-7.81-.76-6.63,0-11.5,5.12-13.51,12.09l-.5-.25c2.1-7.47,7.05-12.67,14.27-12.67,2.69,0,5.62.5,8.39.76,2.43-2.35,5.12-3.69,7.64-3.69,1.18,0,2.01.67,2.01,1.51,0,1.93-2.69,3.27-6.3,3.27-.5,0-1.09,0-1.59-.08-2.94,4.36-5.29,11.75-7.47,19.56l-8.81,31.23c-1.93,6.97-9.57,24.34-24.85,24.34ZM245.06,408.82c0,4.53,3.86,7.47,9.9,7.47,12.67,0,23.17-11.92,23.17-22.08,0-7.22-3.69-11-8.31-13.09-10.16,10.41-24.76,19.22-24.76,27.7ZM258.16,356.69h1.26c2.94,0,5.12-.92,5.12-2.18,0-.59-.5-1.01-1.26-1.01-1.93,0-3.61,1.18-5.12,3.19ZM319.45,365.42l4.03,10.41h-.5c-3.11-4.78-5.29-9.57-14.44-9.57h-12.09v20.15h7.3c6.63,0,7.05-2.01,7.05-4.2h.5v9.23h-.5c0-2.18-.42-4.2-7.05-4.2h-7.3v27.7h15.44c9.15,0,11.33-4.78,14.44-9.57h.5l-4.03,10.41h-35.09v-.5c2.18,0,4.2-.42,4.2-7.05v-35.25c0-6.63-2.01-7.05-4.2-7.05v-.5h31.73ZM361.07,375.83c-4.36-6.63-8.98-10.91-16.03-10.91-6.55,0-11.25,3.36-11.25,9.23,0,15.44,30.47,13.6,30.47,30.72,0,6.97-6.72,12.26-17.04,12.26-7.05,0-11.5-2.52-12.84-2.52-.59,0-1.01.08-.59,1.76h-.5l-4.28-11h.5c3.11,4.78,9.06,10.91,17.71,10.91,7.55,0,13.01-4.2,13.01-10.07,0-14.94-30.47-13.09-30.47-30.72,0-6.97,5.96-11.42,15.28-11.42,6.21,0,9.82,2.52,11.16,2.52.59,0,1.01-.08.59-1.76h.5l4.28,11h-.5ZM123.67,472.87c0-7.13-3.11-13.85-16.54-13.85l.17-.5c15.28,0,21.24,8.81,21.24,16.03,0,12.93-14.69,20.15-24.43,22.92,7.05,7.39,3.95,30.13,16.62,30.13,1.43,0,3.19-.59,5.37-1.85l-.34.84c-2.43,1.34-4.45,1.93-6.13,1.93-16.87,0-13.77-23.17-18.13-30.39-1.93.42-3.44.59-4.45.59-1.76,0-2.35-.5-2.35-1.18,0-1.43,2.01-2.43,3.95-2.43,1.76,0,3.27.5,4.45,1.43,7.89-2.94,20.65-10.58,20.56-23.67ZM62.31,543.96l.17-.5c13.43,0,18.05-16.96,19.98-23.84l9.65-34.08c2.01-7.22,5.2-13.18,8.73-16.87-2.52-.34-5.12-.76-7.81-.76-6.63,0-11.5,5.12-13.51,12.09l-.5-.25c2.1-7.47,7.05-12.67,14.27-12.67,2.69,0,5.62.5,8.39.76,2.43-2.35,5.12-3.69,7.64-3.69,1.18,0,2.01.67,2.01,1.51,0,1.93-2.69,3.27-6.3,3.27-.5,0-1.09,0-1.59-.08-2.94,4.36-5.29,11.75-7.47,19.56l-8.81,31.23c-1.93,6.97-9.57,24.34-24.85,24.34ZM95.72,497.21c0,.42.34.76,1.85.76.59,0,1.76-.25,3.36-.67-.76-.84-1.68-1.34-2.85-1.34-.84,0-2.35.34-2.35,1.26ZM104.03,468.08h1.26c2.94,0,5.12-.92,5.12-2.18,0-.59-.5-1.01-1.26-1.01-1.93,0-3.61,1.18-5.12,3.19ZM151.52,476.81h.84l16.87,43.14c2.43,6.3,3.02,6.72,5.2,6.72v.5h-12.93v-.5c2.18,0,5.62-.67,3.11-6.97l-3.69-9.32h-21.57l-3.69,9.4c-2.43,6.3.92,6.88,3.11,6.88v.5h-9.32v-.5c2.18,0,2.69-.34,5.2-6.8l16.87-43.06ZM139.68,509.55h20.9l-10.49-26.69-10.41,26.69ZM175.13,484.37c-4.11-5.37-5.62-7.05-7.81-7.05v-.5h13.77v.5c-2.18,0-4.7,1.68-.59,7.05l12.42,16.37,12.51-16.37c4.11-5.37,1.59-7.05-.59-7.05v-.5h9.49v.5c-2.18,0-3.69,1.68-7.81,7.05l-13.43,17.63v17.63c0,6.63,2.01,7.05,4.2,7.05v.5h-12.93v-.5c2.18,0,4.2-.42,4.2-7.05v-17.63l-13.43-17.63ZM240.03,528.52c-15.36,0-26.52-11.16-26.52-26.52s11.16-26.52,26.52-26.52,26.52,11.16,26.52,26.52-11.16,26.52-26.52,26.52ZM218.37,502c0,15.61,8.48,25.69,21.66,25.69s21.66-10.07,21.66-25.69-8.48-25.69-21.66-25.69-21.66,10.07-21.66,25.69ZM274.58,528.52c-1.43,0-2.52-1.09-2.52-2.52s1.09-2.52,2.52-2.52,2.52,1.09,2.52,2.52c0,1.85-1.68,4.7-2.77,5.79l-.42-.25c.5-.59,1.43-1.76,1.43-2.52,0-.34-.25-.5-.76-.5ZM343.17,487.22c-3.11-4.78-8.23-10.91-17.71-10.91-13.18,0-21.66,10.07-21.66,25.69s8.48,25.69,21.66,25.69,21.74-8.14,23.25-20.82h.84c-1.6,13.18-11.08,21.66-24.09,21.66-15.36,0-26.52-11.16-26.52-26.52s11.16-26.52,26.52-26.52c7.05,0,11.5,2.52,12.84,2.52.59,0,1.01-.08.59-1.76h.5l4.28,11h-.5ZM397.87,468.42h13.26l-.09.5c-2.18,0-4.36.42-6.21,7.05l-12.26,43.65c-1.85,6.63,0,7.05,2.18,7.05l-.09.5h-13.26l.08-.5c2.18,0,4.36-.42,6.21-7.05l4.11-14.69h-23.34c-6.63,6.3-11.5,13.26-11.5,21.57,0,9.82,8.31,16.96,19.81,16.96l-.17.5c-14.18,0-24.51-7.72-24.51-18.3,0-25.18,48.35-38.11,48.35-54.48,0-1.59-.67-2.27-2.69-2.27l.08-.5ZM369.5,503.93h22.66l7.39-26.52c-5.2,8.73-19.47,16.79-30.05,26.52ZM423.7,477.32c-2.18,0-4.2.42-4.2,7.05v35.25c0,6.63,2.02,7.05,4.2,7.05v.5h-12.93v-.5c2.18,0,4.2-.42,4.2-7.05v-35.25c0-6.63-2.02-7.05-4.2-7.05v-.5h12.93v.5ZM414.97,470.1c1.76-2.01,3.11-4.7,4.53-9.23l4.2,2.52c-2.01,3.11-4.95,5.04-7.89,6.72h-.84Z"/>
    <path class="cls-1" d="M218.51,336.08c.12-.12.2-.24.24-.36l1.71.91c-.12.08-.2.16-.32.24-2.07,1.75-4.61,2.54-7.47,2.54-6.36,0-9.5-4.29-9.5-9.66,0-4.77,3.1-9.66,8.95-9.66s8.79,4.14,8.79,8.83h-15.11c-.04.32-.04.64-.04.95,0,4.06,1.63,9.07,7.08,9.07,2.31,0,4.37-1.27,5.69-2.86ZM212.27,320.65c-4.41,0-6.16,4.29-6.44,7.55h12.68v-.16c0-3.1-2.35-7.4-6.24-7.4ZM239.46,339.06l.32.36h-4.21l-.08-13.04c0-2.35-1.71-4.57-4.25-4.57-2.86,0-4.77,2.27-4.77,4.73v9.62c0,.91.44,1.91,1.07,2.54l.72.72h-6l.72-.72c.64-.64,1.03-1.63,1.03-2.54v-11.13c0-.87-.4-1.87-1.03-2.5l-.72-.72h4.21v1.95c1.23-1.55,2.7-2.7,5.17-2.7,4.29,0,5.88,2.5,6.24,6.32.2,2.43.04,5.01.16,8.31,0,1.15.56,2.54,1.43,3.38ZM249.83,338.7c.64-.64,1.03-1.63,1.03-2.54v-19.32c0-.87-.4-1.91-1.03-2.54l-.72-.72h4.21v22.58c0,.91.44,1.91,1.07,2.54l.72.72h-6l.72-.72ZM272.35,339.42h-4.1v-3.22c-1.11,2.5-4.89,3.98-7.55,3.98-3.22,0-5.01-2.03-4.21-5.17.4-1.59,1.39-3.02,3.58-4.45,2.86-1.87,6.36-2.78,8.11-3.42,0-2.39-1.71-4.61-3.82-4.61s-3.18,2.54-4.14,4.61l-2.31-1.11c1.47-2.27,3.02-4.21,6.24-4.21,4.57,0,6.4,3.86,6.4,7.95v5.92c0,1.19.6,2.54,1.43,3.38l.36.36ZM268.21,332.98c.04-2.11.08-3.1.08-4.69-1.79.48-5.37,2.27-6.64,3.26-.48.4-2.47,1.83-2.9,4.02-.4,1.79.32,3.18,2.78,3.18.68,0,6.68.12,6.68-5.77ZM275.98,324.91c0,5.01,10.89,2.27,10.89,8.99,0,4.02-3.9,5.65-7.28,5.65-2.27.04-3.98-.52-5.84-1.51v-2.54c1.39,2.11,3.14,3.54,5.41,3.54,2.39,0,5.29-1.35,5.29-4.1,0-6.08-10.85-3.38-10.85-9.46,0-3.38,3.3-5.05,6.48-5.05,1.87,0,3.66.6,5.13,1.71.32.2.44.32.6.4v2.47c-.4-.48-1.11-2.54-2.35-3.3-.28-.16-1.03-.48-1.95-.6-2.66-.36-5.53,1.23-5.53,3.82Z"/>
    <path class="cls-1" d="M182.66,440.01h3.54l-.76.56c-.72.48-1.35,1.35-1.67,2.15l-6.12,16.66c-1.43,3.46-3.86,6.4-7.08,7.79-.64.28-1.43.36-2.15.28l-.28-1.59c.36.48,1.27.52,1.91.36,2.31-.64,5.33-3.98,6.2-6.36l-7.59-17.1c-.4-.83-1.11-1.71-1.83-2.19l-.68-.56,4.49.08-.04.12c-.44.72-.52,1.75-.2,2.54l6.56,15.23,5.88-15.23c.36-.83.24-1.87-.16-2.66l-.04-.08ZM204.47,458.85c2.19,0,3.86-1.51,5.01-3.22l1.51.91c-.12.08-.2.16-.24.24-1.55,1.63-3.78,2.54-6.4,2.54-5.37,0-8.95-3.86-8.95-9.66s3.58-9.66,8.95-9.66c3.14,0,5.65,1.31,7.2,3.58.08.08.12.2.2.32l-1.83.72c-1.15-2.7-3.38-4.06-5.45-4.06-3.78,0-6.72,3.14-6.72,9.22s2.94,9.07,6.72,9.07ZM220.77,441.72c4.89,0,8.11,3.5,8.11,8.79s-3.22,8.83-8.11,8.83-8.19-3.54-8.19-8.83,3.26-8.79,8.19-8.79ZM220.85,458.77c3.06,0,5.77-2.9,5.77-8.15s-2.7-8.35-5.77-8.35c-3.3,0-5.92,2.9-5.92,8.35s2.62,8.15,5.92,8.15ZM258.85,458.22l.36.36h-4.1l-.08-12.29c0-2.35-1.71-4.57-4.37-4.57-2.82,0-4.81,2.27-4.73,4.69l.24,8.43c0,1.19.56,2.54,1.43,3.38l.32.36h-4.06l-.08-12.29c0-2.35-1.75-4.57-4.41-4.57-2.86,0-4.77,2.27-4.77,4.73v9.62c0,.91.44,1.91,1.07,2.54l.72.72h-6l.72-.72c.64-.64,1.03-1.63,1.03-2.54v-11.13c0-.87-.4-1.87-1.03-2.5l-.72-.72h4.21v1.95c1.23-1.55,2.7-2.7,5.17-2.7,2.78,0,4.57,1.47,5.53,3.5,1.35-1.95,2.86-3.5,5.73-3.5,4.61,0,6.44,3.9,6.44,7.99v5.88c0,1.19.56,2.54,1.39,3.38ZM268.66,441.72c4.89,0,8.11,3.5,8.11,8.79s-3.22,8.83-8.11,8.83-8.19-3.54-8.19-8.83,3.26-8.79,8.19-8.79ZM268.74,458.77c3.06,0,5.77-2.9,5.77-8.15s-2.7-8.35-5.77-8.35c-3.3,0-5.92,2.9-5.92,8.35s2.62,8.15,5.92,8.15ZM304.13,459.33h-4.21v-1.95c-1.19,1.55-2.66,2.7-5.13,2.7-4.21,0-5.96-2.5-6.24-6.32-.24-2.43-.08-6.64-.2-9.98,0-1.15-.56-2.54-1.39-3.38l-.36-.36h4.21l.08,14.71c0,2.35,1.75,4.57,4.25,4.57,2.86,0,4.77-2.31,4.77-4.77v-11.25c0-.87-.44-1.91-1.07-2.54l-.68-.72h4.21v16.02c0,.91.44,1.91,1.07,2.54l.68.72ZM322.52,458.97l.32.36h-4.22l-.08-13.04c0-2.35-1.71-4.57-4.25-4.57-2.86,0-4.77,2.27-4.77,4.73v9.62c0,.91.44,1.91,1.07,2.54l.72.72h-6l.72-.72c.64-.64,1.03-1.63,1.03-2.54v-11.13c0-.87-.4-1.87-1.03-2.5l-.72-.72h4.21v1.95c1.23-1.55,2.7-2.7,5.17-2.7,4.29,0,5.89,2.5,6.24,6.32.2,2.43.04,5.01.16,8.31,0,1.15.56,2.54,1.43,3.38Z"/>
  </g>
  <g>
    <path class="cls-2" d="M356.25,147.7l-1.64,2.81c10.18.2,20.62.33,31.22-.58l26.01-2.23h2.34c.62.02.98,1.87.63,2.39-2.17,3.31-14.92.95-21.92,1.21l-14.11.53-24.78.53c-2.41.05-5.16-1.18-7.08-1.97l-25.89.79-26.2-.88c-7.54-.25-14.64-1.26-22.38-3.15.94,2.11,3.53,3.29,5.85,3.59,8.22,1.06,7.38,7.69,10.69,10.54,2.14,1.84,9.3-3.49,18.06-1.63,5.15,1.09,8.68,5.02,9.29,9.91,1.98.48,3.37,1.46,2.63,4.24l2.46-.37-.17,5.43,35.79-.06c-4.66,4.39-12.89.41-23.83,1.9-9.63,1.31-19.47,1.26-29.44-.56,5.58-1.7,10.63-.43,15.94-.98l.15-2.96c.03-.61-1.37-1.04-2.03-1.36l-.76-3.55-5.97,1.47c1.26-1.7,3.18-2.91,3.18-4.1,0-3.92-3.58-7.69-7.35-8.08-9.09-.94-15.55,4.06-19.03,1.74-3.11-2.08-2.32-9.68-10.13-10.4-2.23-.21-4.8-1.54-5.76-3.62l-3.35-7.25c-1.75-3.77-3.58-7.26-5.78-10.61,5.25,3.47,6.61,9.43,8.75,14.96,3.17-4.93,14.48-10.45,19.77-10.87l15.57-1.24c.97-.08,3.29,1.08,3.74.28.64-1.14,1.38-2.38,2.02-2.74.73-.41,2.35.66,3.41,1.62l5.41-13.34c-13.4,2.38-28.32,2-41.81.36-4.16-.51-8.66.52-12.93.56l-35.65.32-20.14.06c-10.32.03-20.44-.71-30.73-2.1-3.34-.45-5.93-1.31-8.84-3.54,1.39-1.28,2.76-2.17,4.42-2.59,13.96-3.51,28.26-4.63,42.34-3.24-.11-.52-.33-1.21-.09-1.34l1.33-.7c-1.48-2.16-2.57-4.05-2.99-6.91l21.66.22.64-2.76c3.25-5.12,8.83-9.39,14.62-7.39l2-6.43c1.1-3.55,3.43-4.86,6.72-5.87,6.81-2.08,13.76-3.53,20.82-3.15,4.7.25,7.29,2.67,9.88,6.24,5.85.73,10.78,5.24,9.34,11.65,4.65-4.38,12.14-7.63,14.03-4.73.56.85.77,2.75.92,4.27,2.47-.55,6.03-1.13,7.61,1.63.93,1.63-.58,4.21-1.31,5.77-1.98,4.23-5.15,5.5-10.09,7.23,5.32,2.25,10.32,2.6,15.65,3.16,3.92.41,7.37,1.61,10.98,2.79,2.22.73,4.05,1.25,6.01,2.77l1.82-2.45,2.3,3.1c.45.61.73,2.07.88,3.38l7.85-5.2c7.91-5.24,11.92-7.7,22.29-3.47,1.98.81,3.14,2.81,3.92,4.65,2.05-1.77,5.8-2.56,7.21.19,1.53,2.99.46,7.01.38,10.25l-.17,7.16c.53,1.7,4.25,4.2,6.16,4.22s4.22-1.85,5.86.17l1.51,1.86c.43.53,2.34-.33,3.04-.35,5.94-.17,16.72,1.12,16.91,3.19.21,2.25-6.78,5.08-11.31,5.3l9.27-5.01c-5.49-1.53-10.28-2.61-15.54-1.68l-2.59.45c-.82.14-1.67-3.92-4.27-2.84-3.13,1.31-5.71.17-7.99-1.79-1.96-1.68-2.5-2.76-2.43-5.37l.21-8.38-.35-7.19c-3.81-1.47-6.05,5.68-7.31,1.44l-1.21-4.1c-4.2-2.45-8.98-3.55-13.89-2.4-3.51.83-12.32,6.88-15.86,10.43-.52.53-2.74.34-3.05-.32l-1.57-3.3-1.52,2.25c-.16.24-1.11.28-1.39.21-.37-.1-.15-1.11.04-1.75-1.28-3.56-5.85-4.83-9.27-3.15l-11.55,3.28-4.6,8.83c-1.26,2.42-1.54,4.24-2.27,7.41l-4.42-1.53-1.19,4.53c-3.39-3.02-6.61-2.73-10.31-2.35-5.15.53-10.39.43-15.21,1.98-5.13,1.65-9.8,3.76-13.31,8.54,7.18,2.26,14.38,3.24,21.85,3.48l29.11.94c5.44.18,10.62-.59,15.85-1.7,2.97.56,6.17.78,9.09.04l7.33-.67ZM281.31,117.13c3.2.04,5.5,1.03,8.23,1.92,2.53.83,6.2.36,9.08.44,8.47.23,16.52-.43,24.59-2.36,2.7-3.17,6.17-3.8,10.38-4.93l-13.25-1.97c-3.62-.54-7.28-1.76-10.14-3.89,7.46-2.14,15.87-7.64,12.65-12.17-2-2.81-6.61,1.56-8.79-.39.81-1.44,1.56-3.86.56-4.86s-4.45-.49-5.57.4l-6.32,4.97c-.39.31-1.51.65-1.91.39-1.83-1.2,1.66-6.18-2.03-9.52-1.76-1.59-3.66-2.51-6.49-2.18l-3.97-4.97c-3.22-4.04-22.41-1.05-30.36,3.32l-2.69,8.09c-.25.76-.87,1.98-1.44,2.34-1.35.84-3.98-3.58-11.71,3.75-1.83,1.73-2.57,3.52-1.91,6.25l-21.9.13c2.69,2.44,9.3.54,9.25,6.83l-6.47-.16c.05.51-.32,1.87-.71,2.19-7.88-1.26-14.83-1.45-22.54-.67-8.23.83-16,1.62-24.01,4.63,2.58,1.27,5,2.23,7.59,2.43l27.87,2.09,30.14-.03,29.44-.49c1.12-1.25,2.66-1.7,4.34-1.68l8.07.1Z"/>
    <path class="cls-2" d="M69.1,189.26l-6.51-.34-17.66-1.78c-1.99-.2-5.91-1.67-6.02-3.71-.13-2.33,3.13-3.79,5.12-4.29,13.14-3.28,26.37-4.38,39.83-4.77,2.88-.08,3.96-1.51,4.42-4.04.38-2.12,3.04-3.8,4.96-3.8,2.46,0,4.06,1.81,5.61,4.31,1.93-4.92,4.3-9.65,8.66-12.28,3.38-2.04,7.67-.62,10.81,1.34,1.74-1.56,3.62-3.18,5.19-3.45,2.46-.42,5.17.43,6.64,2.11l3.15,3.6c1.48-4.58,4.04-7.66,7.94-9.99,10.63-6.35,23.23-9.19,33.76-2.31,2.86,1.87,4.54,5.11,5.86,8.28,3.5-2.42,7.76-2.48,11.97-2.61,1.87-1.58,3.81-3.46,6.28-3.98l-4.67,4.63c4.7,2.08,7.09,4.55,9.61,8.22l.8,1.18c.24.34-1.71,1.08-1.9.7-4.9-9.96-10.36-8.08-10.08-7.8l-1.49-1.48c-5.9-.78-10.31,2.21-13.95,7.23l1.2-5.16c1.61-6.97-11.72-15.41-27.47-9.86-5.02,1.77-9.6,3.94-13.51,7.74-1.15,1.12-1.92,3.93-2.74,5.39-1.82,3.24-1.24,6.78.89,9.65l-6.51,2.23c-5.02,1.72-9.04,4.92-10.43,10.2l25.98,4.12,9.47.53,10.82-1.15.4.54-11,2.17c4.8,1.1,8.84.63,13.27,1.15,12.55,1.47,24.86,2.89,37.45,2.43l17.66-.65,29.62-.49c3.95-.07,12.54-2.87,15.09-5.99.27-.33-1.4-1.06-1.84-1.09l-20.13-1.52c-1.95-.15-3.62,1.66-6.01-.06.91-1.03,2.46-1.78,4.03-2.51l1.45-.67c.45-.21-.34-1.79-.81-2.12l-6.01-4.25c-3.46-2.44-7.16-1.67-11.62-.94,2.12-3.94.66-7.48-2.34-9.55l-.28-.26c-5.17-1.58-10.23-.05-15.76,1.72,3.23-3.68,11.21-3.58,16.06-2.32l.35.49c2.71,1.19,4.5,3.98,4.6,7.69,5.31-.67,9.28,1.13,13.13,4.23,1.66,1.34,3.84,1.9,4.51,4.35.52,1.88,2.46,3.18,4.49,3.09l21.3-1,7.09.7c-4.27.85-8.41.39-13.01.46l-7.35.12c3.44,1.06,6.95.17,9.49,2.46s-8.46,8.02-17.8,8.13l-35.56.41-5.93.44-5.98.38c-12.7.8-24.99-1.37-37.64-2.46-7.04-.61-13.64-.6-20.54-2.18l-5.29-1.21-15.66-3.06c-2.83-.55-5.54-.78-8.29-1.77l2.46-4.52c2.76-5.07,8.76-7.43,14.2-8.66l-1.2-8.14c-.28-1.92-3.54-5.37-6.64-5.52-4.55-.22-4.82,5.81-8.78,2.8-3.65-2.77-8.36-1.59-11.16,2-2.38,3.06-3.77,6.58-5.72,10.32-1.18,2.26-2.88-5.08-6.08-4.87-5.05.34-2.25,7.19-8.1,7.49l-18.52.93c-7.51.38-21.44,2.1-26.75,6.74,1.99,1.61,3.87,2.32,6.11,2.6l23.33,2.88.31.3,11.47.42,25.31.8,25.43-.19c.61,0,2,.74,2.31,1.2-10.22,1.15-19.88.61-30.07.18l-18.81-.8-7.15-.48-8.79-.68-.33-.3Z"/>
    <path class="cls-2" d="M448.72,166.29c3.6,1.17-6.99,4.91-14.7,2.57-2.62-.79-4.77-1.5-7.5-1.15-7.15.91-14.55,1.79-21.57.15-1.46-.34-2.41-.88-4.04-.67-15.29,1.97-30.36,2.04-45.76,1.2-.6-.03-1.94-.65-2.03-1.15-.12-.62.89-1.69,1.53-1.92l13.83-5.01c6.5-2.35,13.47-2.3,20.19-1.03,2.46-2.07,5-4.48,7.98-5.53,4.35-1.54,7.91,1.73,10.43,4.99,1.98-1.08,4.36-2.14,6.33-1.96,2.48.23,3.76,2.2,3.65,4.29l5.76-1.92c3.69-1.23,7.83.92,9.45,3.96l-1.34,2.44,16.25.24,1.55.5ZM411.13,167.07l19.48-.86c.38-3.14-2.01-5.62-5.31-5.66-6.25-.08-9.31,4.41-9.55,3.19l-.4-2.06c-.21-1.08-.18-2.57-.77-2.99s-2.56-.57-3.24-.27l-5.16,3.21c-1.09-3.49-3.76-7.06-7.69-6.57s-7.13,3.9-9.81,6.41c-4.05-2.69-13.95-1.99-18.93-.02l-13.04,5.17c11.78.81,23.23,1.09,34.94-.46,8.06-1.07,15.51-2.62,23.98-.98l-4.51,1.89Z"/>
    <path class="cls-2" d="M225.08,148.34c-8.09-2.04-15.37-.24-23.61,2.31,3.85-3.64,9.75-4.9,15.23-4.32l10.4,1.08,2.07-5.04c.7-1.7,2.59-2.31,4.79-1.85.97-5.37,4.92-9.53,10.32-11.26,4.81-1.54,15.64-2.53,17.77.57-5.81-.71-11.65-1.21-17.15.62-5.81,1.93-9.41,6.72-9.49,12.71l-4.24-1.1-1.94,5.06c-.19.49-.91,1.41-1.35,1.59-.55.22-1.79-.11-2.81-.37Z"/>
    <path class="cls-2" d="M298.39,186.76c2.81.23,5.81-1.34,8.52-.13-8.86,1.13-18.12,1.69-27.23-1.43l18.7,1.56Z"/>
  </g>
</svg>