<?xml version="1.0" encoding="UTF-8"?>
<svg id="Layer_1" data-name="Layer 1" xmlns="http://www.w3.org/2000/svg" viewBox="0 0 471.92 768">
  <defs>
    <style>
      .cls-1 {
        fill: #fff;
      }

      .cls-2 {
        fill: #f12427;
      }

      .cls-3 {
        fill: #fdffe3;
      }
    </style>
  </defs>
  <g>
    <path class="cls-3" d="M107.63,264.77s1.07-.62-.41-4.31l-3.59-9.06h-20.13l-3.62,9.06c-1.45,3.69-.41,4.31-.41,4.31h-3.34s1.58-.62,3.02-4.31l15.97-40.12,15.94,40.12c1.48,3.69,3.02,4.31,3.02,4.31h-6.46ZM83.79,250.65h19.56l-9.8-24.61-9.77,24.61ZM139.02,220.3l1.29,5.93s-1.58-4.31-14.43-4.69c-.25.65-.44,1.64-.44,3.1v36.06c0,3.69,1.29,4.06,1.29,4.06h-6.46s1.32-.4,1.32-4.1v-36.02c0-1.46-.22-2.45-.47-3.1-12.95.34-14.52,4.69-14.52,4.69l1.29-5.93h31.12ZM164.3,264.77s1.07-.62-.41-4.31l-3.59-9.06h-20.13l-3.62,9.06c-1.45,3.69-.41,4.31-.41,4.31h-3.34s1.58-.62,3.02-4.31l15.97-40.12,15.94,40.12c1.48,3.69,3.02,4.31,3.02,4.31h-6.46ZM140.46,250.65h19.56l-9.8-24.61-9.77,24.61ZM201.13,260.46c2.3,3.69,4,4.31,4,4.31h-6.46s.91-.62-1.35-4.31l-8.03-12.91h-11.4v13.13c0,3.69,1.29,4.1,1.29,4.1h-6.46s1.32-.43,1.32-4.13v-35.99c0-3.69-1.32-4.31-1.32-4.31h18.68c8.25,0,15.34,5.09,15.34,13.19s-3.91,12.88-13.7,13.84l8.1,13.09ZM187.18,246.43c8.79,0,15.56-2.08,15.56-12.81,0-8.63-7.15-11.92-13.61-11.92h-10.87c-.22.62-.38,1.58-.38,2.95v21.78h9.29ZM218.75,220.34c17.48,0,23.78,10.02,23.78,22.25s-7.02,22.19-23.53,22.19h-10.3s1.32-.62,1.32-4.31v-36.02c0-3.69-1.32-4.1-1.32-4.1h10.05ZM217.8,263.4c16.32,0,20.73-9.4,20.73-20.91s-4.22-20.98-20.73-20.98h-3.56c-.22.62-.38,1.52-.38,2.89v36.06c0,1.37.16,2.33.38,2.95h3.56ZM261.03,243.08s-1.26-3.13-7.56-3.13h-3.84v20.51c0,1.46.19,2.45.44,3.1h7.65c14.74,0,16.47-4.69,16.47-4.69l-1.29,5.9h-28.44s1.32-.62,1.32-4.31v-36.02c0-3.69-1.32-4.13-1.32-4.13h28.44l1.29,5.93s-1.73-4.69-16.47-4.69h-7.72c-.22.59-.38,1.52-.38,2.85v14.49h3.84c6.3,0,7.56-3.13,7.56-3.13v7.32ZM309.5,257.91c-3.65,4.75-9.32,6.86-16.63,6.86-10.96,0-19.88-8.1-19.88-22.19s8.79-22.28,21.2-22.28c10.96,0,12.69,5.09,16.22,4.16l-2.14,5.71c-4.1-6.58-7.34-8.66-15.4-8.66-6.65,0-15.88,6.67-15.88,20.98s7.12,20.85,15.88,20.85c7.72,0,11.18-2.2,14.08-7.11l2.55,1.68ZM328.93,243.08s-1.26-3.13-7.56-3.13h-3.84v20.51c0,1.46.19,2.45.44,3.1h7.65c14.74,0,16.48-4.69,16.48-4.69l-1.29,5.9h-28.44s1.32-.62,1.32-4.31v-36.02c0-3.69-1.32-4.13-1.32-4.13h28.44l1.29,5.93s-1.73-4.69-16.48-4.69h-7.72c-.22.59-.38,1.52-.38,2.85v14.49h3.84c6.3,0,7.56-3.13,7.56-3.13v7.32ZM372.44,260.46c2.3,3.69,4,4.31,4,4.31h-6.46s.91-.62-1.35-4.31l-8.03-12.91h-11.4v13.13c0,3.69,1.29,4.1,1.29,4.1h-6.46s1.32-.43,1.32-4.13v-35.99c0-3.69-1.32-4.31-1.32-4.31h18.68c8.25,0,15.34,5.09,15.34,13.19s-3.91,12.88-13.7,13.84l8.1,13.09ZM358.49,246.43c8.79,0,15.56-2.08,15.56-12.81,0-8.63-7.15-11.92-13.61-11.92h-10.87c-.22.62-.38,1.58-.38,2.95v21.78h9.29ZM81.3,299.27v17.87c0,3.69,1.29,4.31,1.29,4.31h-6.46s1.32-.62,1.32-4.31v-36.02c0-3.69-1.32-4.13-1.32-4.13h6.46s-1.29.4-1.29,4.1v17.47h24.66v-17.44c0-3.69-1.32-4.13-1.32-4.13h6.46s-1.32.4-1.32,4.1v36.06c0,3.69,1.32,4.31,1.32,4.31h-6.46s1.32-.62,1.32-4.31v-17.87h-24.66ZM129.6,299.77s-1.26-3.13-7.56-3.13h-3.84v20.51c0,1.46.19,2.45.44,3.1h7.65c14.74,0,16.47-4.69,16.47-4.69l-1.29,5.9h-28.44s1.32-.62,1.32-4.31v-36.02c0-3.69-1.32-4.13-1.32-4.13h28.44l1.29,5.93s-1.73-4.69-16.47-4.69h-7.72c-.22.59-.38,1.52-.38,2.85v14.49h3.84c6.3,0,7.56-3.13,7.56-3.13v7.32ZM173.12,317.14c2.3,3.69,4,4.31,4,4.31h-6.46s.91-.62-1.35-4.31l-8.03-12.91h-11.4v13.13c0,3.69,1.29,4.1,1.29,4.1h-6.46s1.32-.43,1.32-4.13v-35.99c0-3.69-1.32-4.31-1.32-4.31h18.68c8.25,0,15.34,5.09,15.34,13.19s-3.91,12.88-13.7,13.84l8.1,13.09ZM159.16,303.12c8.79,0,15.56-2.08,15.56-12.81,0-8.63-7.15-11.92-13.61-11.92h-10.87c-.22.62-.38,1.58-.38,2.95v21.78h9.29ZM224.56,276.99s-1.32.4-1.32,4.1v36.06c0,3.69,1.32,4.31,1.32,4.31h-6.46s1.29-.62,1.29-4.31v-37.11c-.16.34-17.77,41.42-17.77,41.42,0,0-18.18-41.05-18.33-41.36,0,.31-.03,37.05-.03,37.05,0,3.69,1.32,4.31,1.32,4.31h-3.34s1.29-.62,1.29-4.31v-36.02c0-3.26-1.86-4.13-1.86-4.13h5.13l17.07,39.34,17.04-39.34h4.63ZM246.38,277.12c10.96,0,19.88,9.93,19.88,22.15s-8.91,22.12-19.88,22.12-19.88-9.9-19.88-22.12,8.91-22.15,19.88-22.15ZM246.38,320.03c8.76,0,15.88-9.34,15.88-20.85s-7.12-20.85-15.88-20.85-15.88,9.37-15.88,20.85,7.12,20.85,15.88,20.85ZM297.5,309.45c0-12.97-27.03-6.52-27.03-22.53,0-1.74,1.8-9.9,14.46-9.9,7.91,0,14.02,3.23,14.02,3.23l-1.26,6.83s-1.76-8.91-13.23-8.91c-4.35,0-9.99,2.14-9.99,8.72,0,12.44,28.07,6.52,28.07,22.03,0,9-6.9,12.57-17.89,12.57s-15.47-5.71-16.44-7.45l2.68-4.28c.54,1.95,4.41,10.64,13.8,10.64,8.76,0,12.82-4.31,12.82-10.95ZM324.37,277.12c10.96,0,19.88,9.93,19.88,22.15s-8.91,22.12-19.88,22.12-19.88-9.9-19.88-22.12,8.91-22.15,19.88-22.15ZM324.37,320.03c8.76,0,15.88-9.34,15.88-20.85s-7.12-20.85-15.88-20.85-15.88,9.37-15.88,20.85,7.12,20.85,15.88,20.85Z"/>
    <path class="cls-2" d="M102.15,199.22l2.39-9.46c.44-1.71.32-1.65-.72-1.74l-.63-.05c-.07-.11.21-1.14.37-1.26,0,0,1.51.11,2.44.11s2.62-.11,2.62-.11c.12.11-.09,1.14-.21,1.26l-.67.05c-1.11.09-1.18.02-1.62,1.74l-2.3,9.07c-.37,1.51-.28,1.67.46,1.62l.79-.05c.09.11,0,1.1-.12,1.21-.6.05-2.37.21-2.71.21-.3,0-.53-.16-.53-.89l-2.51.94c-.42.16-.86.27-1.21.27-2.46,0-3.87-1.76-3.87-4.39,0-1.37.84-4.3,1.74-8,.42-1.71.32-1.65-.74-1.74l-.63-.05c-.07-.11.23-1.14.39-1.26,0,0,1.65.11,2.58.11s2.62-.11,2.62-.11c.09.11-.12,1.14-.23,1.26l-.67.05c-1.11.09-1.18.02-1.62,1.74-.95,3.7-1.69,6.33-1.69,7.61,0,2.1.77,3.36,3.09,3.36l2.69-.96.46-.05.05-.5ZM111.82,193.46l-.95,3.36c1.53-2.9,3.32-4.59,4.87-4.59.6,0,2.69.27.97,4.48-.37.91-1.25,3.15-1.25,3.61,0,.18.05.3.23.3.42,0,.6-.32,1.39-1.1.26-.05.58.25.58.43-1.16,1.62-2.46,2.24-3.29,2.24-.46,0-.74-.34-.74-.66,0-.78.58-1.83,1.46-4.21,1.02-2.72,1.09-3.86.05-3.86-2.46,0-5.71,8.37-5.71,8.37-.16.16-1.46.16-1.62,0,.19-.69,1.37-4.37,1.79-6.06.32-1.28.23-1.71-.49-1.53l-.46.11c-.14-.11-.28-.69-.21-.94.7-.16,2.34-.91,2.67-.91s.84.09.72.96ZM127.68,192.23c.49,0,1.07.16,1.32.39l.67-.39c.09,0,.28.09.3.18l-2.13,7.34c-.09.32-.12.55.12.55.37,0,.67-.18,1.55-1.12.23-.05.58.25.58.43-1.16,1.62-2.3,2.22-3.36,2.22-.46,0-.7-.34-.7-.69,0-.27.07-.57.16-.87l.3-.78-.44.57c-.93.78-2.53,2.08-3.62,2.08-.79,0-2.18-.25-2.18-2.24,0-3.61,4.01-7.68,7.42-7.68ZM123.1,200.96c.93,0,3.27-2.19,3.62-2.54l1.21-4.39c-.16-.41-.6-.59-1.25-.59-1.55,0-4.52,2.74-4.52,6.17,0,1.17.46,1.35.95,1.35ZM139.99,201.23l1.81-6.54c.19-.64.23-.98-.16-.98h-.84c-.09-.09-.05-.62.07-.75l1.21-.3c.21-.05.35-.21.42-.46l.19-.69c.32-1.17.81-2.38,1.6-3.5.81-1.14,2.44-2.54,4.39-2.54.74,0,1.65.46,1.65,1.03,0,.94-.84,1.55-1.21,1.55-.63,0-.53-.66-.72-.98-.26-.41-.53-.43-.88-.43-.37,0-.84.16-1.23.55-.67.71-1.32,2.4-2.02,4.75-.19.62-.19.66.14.66h2.07c.05.23-.23,1.01-.39,1.1h-1.86c-.35,0-.56.37-.74.98l-1.69,6.01c-1.39,4.98-4.59,7.75-5.64,7.75-.3,0-.65-.53-.65-.94s.65-.87,1.09-.87c.14,0,.32.05.42.05.14,0,.26-.05.39-.18.35-.37,1.79-2.33,2.6-5.28ZM152.51,192.23c1.6,0,2.97,1.35,2.97,3.22,0,3.2-2.78,6.74-5.89,6.74-1.65,0-3.02-1.26-3.02-3.13,0-3.25,2.81-6.83,5.94-6.83ZM150,200.96c2.39,0,3.78-3.59,3.78-5.3,0-1.28-.6-2.26-1.67-2.26-2.16,0-3.78,3.27-3.78,5.44,0,1.26.81,2.13,1.67,2.13ZM161.7,199.98c-1.11,1.76-2.67,2.22-3.5,2.22s-1.48-.46-1.21-1.37l1.97-6.61.3-.48-.44.09h-.93c-.02-.11.19-.91.3-1.03l1.3-.16.95-1.9c.35-.11.77-.25,1.16-.43.09,0,.21.05.26.18l-.51,1.83-.12.39.44-.09h1.69c.02.23-.26,1.05-.44,1.21h-1.72l-.49-.09v.55l-1.93,5.74c-.19.53.16.73.6.73.37,0,.95-.32,1.72-1.21.26-.05.58.25.58.43ZM169.81,192.23c1.6,0,2.97,1.35,2.97,3.22,0,3.2-2.78,6.74-5.89,6.74-1.65,0-3.02-1.26-3.02-3.13,0-3.25,2.81-6.83,5.94-6.83ZM167.3,200.96c2.39,0,3.78-3.59,3.78-5.3,0-1.28-.6-2.26-1.67-2.26-2.16,0-3.78,3.27-3.78,5.44,0,1.26.81,2.13,1.67,2.13ZM184.06,188.75c.35-1.28.44-1.76-.49-1.53l-.46.11c-.14-.11-.28-.69-.21-.94.7-.16,2.46-.91,2.78-.91s.84.14.72,1.01l-2.34,8.27-.46,1.21c.16-.32.49-.8.9-1.26,1-1.1,2.55-2.49,4.06-2.49.46,0,1.9.02,1.9,2.33,0,4.09-4.87,7.59-7.38,7.59-1.16,0-2.32-1.1-1.72-3.31,1.32-4.87,2.07-7.79,2.69-10.08ZM187.65,193.67c-1.25,0-3.53,2.79-4.41,3.93l-.12.48c-.49,1.76-.35,3.04.67,3.04,1.65,0,4.8-3.11,4.8-5.85,0-1.03-.26-1.6-.95-1.6ZM197.55,192.23c1.6,0,2.97,1.35,2.97,3.22,0,3.2-2.78,6.74-5.89,6.74-1.65,0-3.02-1.26-3.02-3.13,0-3.25,2.81-6.83,5.94-6.83ZM195.04,200.96c2.39,0,3.78-3.59,3.78-5.3,0-1.28-.6-2.26-1.67-2.26-2.16,0-3.78,3.27-3.78,5.44,0,1.26.81,2.13,1.67,2.13ZM206.09,193.46l-.95,3.36c1.53-2.9,3.32-4.59,4.87-4.59.6,0,2.69.27.97,4.48-.37.91-1.25,3.15-1.25,3.61,0,.18.05.3.23.3.42,0,.6-.32,1.39-1.1.26-.05.58.25.58.43-1.16,1.62-2.46,2.24-3.29,2.24-.46,0-.74-.34-.74-.66,0-.78.58-1.83,1.46-4.21,1.02-2.72,1.09-3.86.05-3.86-2.46,0-5.71,8.37-5.71,8.37-.16.16-1.46.16-1.62,0,.19-.69,1.37-4.37,1.79-6.06.32-1.28.23-1.71-.49-1.53l-.46.11c-.14-.11-.28-.69-.21-.94.7-.16,2.34-.91,2.67-.91s.84.09.72.96ZM215.36,193.14c.7-.16,2.34-.91,2.67-.91s.84.09.72.96c0,0-2.09,6.77-2.09,7.13,0,.18.05.3.23.3.42,0,.6-.32,1.39-1.1.26-.05.58.25.58.43-1.16,1.62-2.46,2.24-3.29,2.24-.46,0-.74-.34-.74-.66,0-.66,1.28-4.34,1.69-6.03.32-1.28.23-1.71-.49-1.53l-.46.11c-.14-.11-.28-.69-.21-.94ZM217.72,188.87c.14-.73.77-1.35,1.44-1.35.63,0,1.04.59.9,1.33-.14.73-.79,1.33-1.44,1.33s-1.04-.57-.9-1.3ZM225.71,199.98c-1.11,1.76-2.67,2.22-3.5,2.22s-1.48-.46-1.21-1.37l1.97-6.61.3-.48-.44.09h-.93c-.02-.11.19-.91.3-1.03l1.3-.16.95-1.9c.35-.11.77-.25,1.16-.43.09,0,.21.05.26.18l-.51,1.83-.12.39.44-.09h1.69c.02.23-.26,1.05-.44,1.21h-1.72l-.49-.09v.55l-1.93,5.74c-.19.53.16.73.6.73.37,0,.95-.32,1.72-1.21.26-.05.58.25.58.43ZM235.05,192.23c.49,0,1.07.16,1.32.39l.67-.39c.09,0,.28.09.3.18l-2.13,7.34c-.09.32-.12.55.12.55.37,0,.67-.18,1.55-1.12.23-.05.58.25.58.43-1.16,1.62-2.3,2.22-3.36,2.22-.46,0-.7-.34-.7-.69,0-.27.07-.57.16-.87l.3-.78-.44.57c-.93.78-2.53,2.08-3.62,2.08-.79,0-2.18-.25-2.18-2.24,0-3.61,4.01-7.68,7.42-7.68ZM230.48,200.96c.93,0,3.27-2.19,3.62-2.54l1.21-4.39c-.16-.41-.6-.59-1.25-.59-1.55,0-4.52,2.74-4.52,6.17,0,1.17.46,1.35.95,1.35ZM240.87,198.88c.35-.07,1.62.48,1.67,1.37.12,2.61-2.23,4.48-3.6,5.3-.14,0-.44-.48-.49-.62.88-.8,1.6-1.67,1.69-2.86.05-.48-.37-.62-.86-.78-.23-.11-.3-1.97,1.58-2.42ZM261.71,192.59c.14-.09,1.28-.14,1.3.02,0,0-2.13,6.74-2.25,7.13-.09.32-.12.55.12.55.37,0,.67-.18,1.55-1.12.23-.05.58.25.58.43-1.16,1.62-2.3,2.22-3.36,2.22-.46,0-.7-.34-.7-.69,0-.41.14-.85.3-1.33l.7-2.08c-1.67,2.95-3.25,4.46-4.66,4.46-.28,0-1.55.07-1.55-1.67,0-1.37.86-3.18,1.32-4.75.39-1.33.3-1.71-.42-1.53l-.46.11c-.14-.11-.28-.69-.21-.94.7-.16,2.34-.91,2.67-.91s.84.09.72.96c0,.25-2.07,5.81-2.07,6.81,0,.55.21.73.67.73,2.23,0,5.75-8.41,5.75-8.41ZM269.22,193.46l-.95,3.36c1.53-2.9,3.32-4.59,4.87-4.59.6,0,2.69.27.97,4.48-.37.91-1.25,3.15-1.25,3.61,0,.18.05.3.23.3.42,0,.6-.32,1.39-1.1.26-.05.58.25.58.43-1.16,1.62-2.46,2.24-3.29,2.24-.46,0-.74-.34-.74-.66,0-.78.58-1.83,1.46-4.21,1.02-2.72,1.09-3.86.05-3.86-2.46,0-5.71,8.37-5.71,8.37-.16.16-1.46.16-1.62,0,.19-.69,1.37-4.37,1.79-6.06.32-1.28.23-1.71-.49-1.53l-.46.11c-.14-.11-.28-.69-.21-.94.7-.16,2.34-.91,2.67-.91s.84.09.72.96Z"/>
  </g>
  <path class="cls-1" d="M482.33,635.4v1.38l-8.78-.09-23.51-.33-17.33-1.13c-15.36-1-30.47-1.3-45.92-.1-18.62,1.45-36.69,2.83-55.36,1.63-10.54-.68-20.45-1.34-30.96-.59l-19.41.28c-8,.11-15.58-.43-23.53-1.52l-20.3-1.48c-5.82-.42-11.27-.16-17.21.69l8.31,3.69c3.72,1.65,7.98,1.55,12,2.35l9.94,2,16.3,2.16c6.42.85,12.69.52,19.08,1.72l6.87.69c2.47.25,4.94,1.51,7.52,2.47-2.56.63-4.46-.42-6.85-1.09l-3.81-.28-22.17-2.34-17.18-2.16-10.68-2.17c-4.19-.85-8.34-.9-12.32-2.53l-9.33-3.81-9.14.16c-3.81,1.87-7.46,3.68-12.02,3.25-6.42-.61-9.58,2.35-12.81,2.08-4.29-.36-7.86.6-11.79,1.76-3.28.97-5.84,2.41-7.28,5.78l-6.13,4.01,17.29-.78,12.16.2,9.03-4.87c1.95-1.05,3.77-1.78,6-1.92,5-.31,9.38-2.04,13.16-5.27.97-.83.94-1.96.94-3.62.32.18,1.12,1.32,1.18,1.87.08.63-.5,1.99-1,2.4-9.07,7.35-14.06,5.01-17.06,6.57l-9.42,4.88,13.17-.18,24.82-.05c5.51-1.82,10.8-2.67,16.54-3.03l27.86.1c3.47.01,6.63.08,9.99.79,4.17.88,8.32,1.39,12.67,1.16,14.62-.78,28.73-.11,43.36-.07l39.74.11,65.94-.13,26.86-1.47,10.58-.7v1.38l-19.4,1.32-33.7.93-46.61-.03-43.84-.04-33.23-.28-17.06.25-10.14-1.67-10.68-.2-19.83-.17c-6.48-.06-12.41,1.32-18.68,2.87-2.52.62-5.46-.03-8.16.32-2.44.32-5.78.69-7.77,1.75-2.83,1.49-4.81,2.42-7.95,2.72l-31.32,2.94c-14.85,1.9-29.29,3.26-43.87,2.54-4.39,2.78-9.62,1.8-13.88-.29l-7.77.56c-12.73,1.82-25.09,3.69-38,4.23-14.77.62-29.24.97-44.14-.67l40.11-.45c12.37-.58,24.12-2.34,36.34-3.81l13.15-1.58-2.59-8.02c-14.93.48-29.55,1.29-44.56,2.75-14.03,1.36-27.54,1.64-41.55,1.03l-14.34-.4-.72-.63c-.1-.09.02-.26.17-.47l14.87.42,14.77.09,23.11-1.06c16.07-1.54,31.79-2.57,48.02-3.1l-2.02-6.25c-1.07-6.65-2.21-12.98-4.31-19.28-2.28,1.1-4.48,2.5-6.59,2.82l-9.11,1.38-.69-.7c3.18-.99,5.66-1.31,8.89-1.55,2.81-.22,5.34-2.08,7.71-3.62l-2.33-8.76-11.16,3.59c-4.1,1.32-8.39,2.83-12.76,2.75l-10.29-.18c-15.26-1.32-30.18-1.44-45.54-1.17l-15.27-.48.04-.74c3.51-.38,7.73.71,11.12-.45l8.65-2.94c2.2-.75,3.95-1.47,6.36-1.15,7.57,1.01,14.49,1.17,15.83-6.71l3.88-.22c1.77-1.29,3.5-1.98,5.74-1.45,4.08.96,8.41.04,11.89-2.06,1.35-2.71,3.91-3.44,6.65-2.7l4.34-1.28c.41-.81,1-3.07,1.88-3.55l5.44-2.98c4.81-2.64,7.07.47,10.53-.15l-.35-2.83-1.55-15.97c-1.41-14.58-1.92-28.69-1.92-43.34,0-9.62-.17-18.6.99-28.25l-.6-.24c-1.25,1.43-3.35,1.55-4.3.43l.22-1-2.36,1.54c-.88-1.42-.99-1.58-2.12-2.3l3.21-2.59c.81-.65,3.15-.45,4.23-.64l-3.25-1.14c2.13-.8,3.52-.33,5.68.52,1-6.72,1.67-13.34,1.77-20.08.02-1.24-1.5-2.87.06-4.38-2.5.36-3.46-.12-5.1-1.91-.32.55-.44,1.62-.29,2.33l.9,4.14-1.93,1.72-1.91-2.72,1.28,5.26-.46.61-1.21-1.68.08,4.43-1.21-2.73-.5,3.14-1.78-2.13.16,3.74-1.58-.83.31,2.36-1.01-1.44-1.28,3.58c-1-.35-1.71-.53-1.75-1.11l-.14-2.48-1.42,1.62c-.28-3.04.82-7.08,1.86-9.43.28-.64-.5-2.37-.34-3.06l2.32-10.46c-.01-.93-.24-.85-.52-.19-1.71,5.15-2.53,9.51-3.44,15l-1.39-3.8-.33,4.78-1.11-.6c-.19-.1-.58-.02-1.09.01l.89-4.54,2.4-9s-.2.14-.78.55c-1.69,3.7-2.7,8.17-3.19,12.15-.04.32-.52,1.08-.61.86-.07-.15-.55-.95-.52-1.12l1.82-10.68c-2.18,2.3-2.23,6.03-2.5,9.27l-.52,6.28-2.76-4.23-.72,2.75-.9-.41c-.39-3.32-.46-6.42-.21-9.98.24-.62-.09-.49-.7.14l.26,11.37c-2.31-2.59-.64-5.92-1.56-7.26-.09-.13-.36-.12-.38.05l-.1,1.13-.69,7.02c-1.06-1.34-1-3.31-.69-5.08l1.1-6.36-.98.41c-.81,4.04-1.03,7.3-.94,11.59l-.9.73c-.36-3.71-.31-6.08-.2-9.97l-.66.67-.75,10.72h-.71s-.34-5.62-.34-5.62c-2.07,1.93-2.05,5.02-3.95,6.81.03-2.18.5-3.34,1.27-5.14l-.16-.52-2.76,4.12-.61-1.44,1.45-3.29c-2.58,1.76-1.83,4.34-2.25,7.35l-1.47-2.05c-.4,2.63-1.29,4.05-3.32,5.37l-.21-2.71,3.14-5.54c.46-.81,1.46-1.68,2.1-2.21l-1.13-.45c-.22-.09.15-.91.21-1.08-1.24.22-2.08.36-3.18-.53l6.03-2.42c-.83-.18-1.74-.3-1.66-.52s.3-.89.29-.85l-2.58-.41c1.52-1.2,2.16-1.38,4.14-2.11l-2.45-.37,1.82-1.41-1.84-.85c5.18-2.39,10.29-1.41,14.13-2.9-1.2-3.58,2.56-.98,6.69-2.82l-6.95.18.09-4.12c4.46-2.86,7.14-6.56,9.61-10.97.93-1.66,2.99-2.79,4.19-4.55-6.01,1.74-7.17,5.88-10.2,10.4-.27-1.28-.17-2.24-.09-3.62l-3.35,5.73c-1.1-2.65,1.11-3.42,1.53-5.46l-4.87,3.48c-.2.15-1.39-.16-1.4-.41l-.04-.81,1.38-2.5-4.74,3.75,2.27-4.6-5.59,4.26c-.95-2.22,1.11-2.9,2.1-4.01l.75-.85c.15-.17-.48-.8-.69-.7l-1.04.55-4.26,5.31c-.63-2.12.79-2.93,1.59-4.37.97-1.75,2.72-2.84,3.96-4.33,1.73-2.07,2.98-4.62,4.55-6.89-3.66-.32-4.96,6.17-8.16,9.17-.38-4.42,3.32-6.37,5.07-9.78-3.25,1.31-4.64,4.54-6.03,7.51l-.53,1.13c-.1.22-1.09-.17-1.1-.39l1.89-5.49-3.21,5.42-.77,1.01c-.14.18-.58-.15-1.12-.55l3.32-5.75-5.44,6.1c-.38-.41-.66-.85-.58-1.12l.39-1.3-2.42,2.17c-.16,0-.59-.65-.48-.93l.55-1.41c.52-.14-.18.05-.61.16-1.3,1.43-2.66.61-4.02.32-.83-.17-2.6,1.83-3.53-.26l2.91-1.41-3.83.15-.95-.41c-1.79-.78,5.14-1.51,8.96-3.62l8.19-4.53c2.2-1.22,5.34-.84,7.66-1.6,3.1-1.02,5.67-2.05,8.97-2.53,1.79-.26,3.7-1.16,5.38-1.86l-.83,2.27,12.03-4.64.9-.08c1.03-.09-2.51-1.83-8.32,1.91-.29.19-1.18.45-1.5.48-.24.03-.58-.53-.67-.71l.08-.76-1.83.53c-.36.1-.33-1.5,0-1.74,1.1-.81,3.41-1.68,5.02-1.63l-2,2.1c2.62-1.17,4.78-1.78,7.56-2.27-.13-1.54-6.38-.88-7.55-.43l-5.78,2.2c-.14.05-.88-.3-1.01-.36s.14-.68.29-.75l4.82-2.21c-2.81-.6-5.2,2.04-7.76,1.33-.22-.06.47-.8.72-.89l7.34-2.67,5.15,1.37-4-3.36c-5.46,2.59-10.95,6.32-14.28,2.76l3.38-2c-2.06.46-3.37.81-5.01.71-.05-.73.99-1.31,1.81-1.46-.86-.48-2-1.24-2.93-2.09,3.08-2.77,6.38.48,10.84-1.42l4.85,1.21.06-1.61c0-.26,1.39-.19,1.61,0l5.91,5.36,5.07,5.69c.98,1.1,2.14,2.37,3.32,3.12-1.87-2.64-3.85-4.23-3.28-7.36l1.65.84.39-2.54c.07-.48,1.75.11,2.03.53l2.61,3.9.92-1c.8.23.64-.09.15-.43l-1.75-1.8c-1.4-1.44-3.59-2.38-3.5-4.72l7.49,6.05c-1.45-3.19-5.06-3.41-5.99-7.05,1.92.88,3.15,2.4,4.82,2.96l-5.8-6.73c1.7.13,2.26.76,3.55,1.9l.74-.38c-1.13-1.14-1.68-1.57-1.87-3.26l3.5,1.82,3.05,7.87c.17.71.34.73.37-.07l-.48-3.38c-.05-.36.51-1.18.79-1.42,1.61-1.32,3.09,6.85,3.28,12l.36-9.48,1.05-.17.23,9.85c.04.76.19.8.35.04,1.26-3.33-.79-6.53.6-9.19,2.07,4.16.95,8.05.93,12.29.57-1.77,1.16-4.05,1.06-5.96l-.23-4.46c0-.15.55-.74.68-.67s.54.39.57.53l.39,2.09,2.75-.21.47-3.48,2.37-1.26c.18-1.34,1.81-3.57,3.26-3.82,1.63-.28-.58,2.07-1.35,4.28l4.15-2.96c1.55-1.1,3.77-1.65,6.17-.91-.78,1.13-1.83,1.96-3.11,2.69l-3.25,1.86-.03,1.15c0,.22-.54.48-1,.78-.52.36-.54.54.18.27l1.17.74-1.85,2.79c-2.07.9-4.08,1.97-5.57,3.45,2.12.53,2.3.44,4,1.34l-3.32,1.2c3.39.97,6.41-1.26,12-.6,1.66.2,5.67,3.39,4.82,4l-1.16.83c-.96.69-1.83-3.74-3.88-3.04l3.17,5.61c.13.24-.19,1.2-.33,1.43-.1.15-.79-.09-.88-.25l-2.69-4.78.69,8.46c.03.34-1.26,1.5-.94,1.55l1.55.24c4.95.16,10.7-.75,15.91,1.51l-9.54,2.14c-2.53.57-4.96,1.93-5.95,4.55l11.28-3.85,5.49-1.14c.22-.05,1.33.51,1.16.67s-.75.74-.98.81l-5.67,1.85c2.94.76,5.39.02,8.42-.7l-.85,1.79,3.97,1.38-.14,1.27c-.05.44,2.69.45,3.61,2.3l-4.57.07-6.28.46c4.71,1.69,9.32.22,14.02,1.39.3.23-.83,1.2-1.32,1.2l-8.01.1,5.26.55c2.33.25,4.21.41,6.37,2.11-.94.53-1.68.57-2.81.39l-6.26-1.02c-.2-.03-.93.88-.73.86l1.1-.12c3.5.86,7.29,2.1,10.41,3.44.17,1.66.45,2.06,1.58,3.63l-9.42-1.72,1.89,3.19c.1.17,1.26.08,1.17-.1l-.53-1.03.27-.87c2.65.86,4.63,1.78,6.2,4.18-2.46.16-3.97-.22-6.29-.6l6.38,3.62-1.99,1.06,1.38,1.9-2.56-.09c.09.73-.02,1.89-.24,2.58l-.34,1.07c-.05.16-.73-.06-.8-.21l-.37-.72-.81-1.58c-.17-.33-.98-.12-1.73-.09-1.05-1.99-1.67-4.08-2.35-6.32l.31,5.1-1.44-.93-3.56,3.67,2.59-.24c-1.31,1.16-1.79,1.3-1.89,2.48l-3.43,1.95,3.45.54-2.61.7.72,1.68,1.57,3.87c.19.11-1.04,1.21-1.51,1.03-2.02-.75-3.18-3.43-5.19-3.6l4.2,4.77c-1.24.02-1.87.03-1.48.03l1.88,3.32-2.54-1.18.52,3.5c4.18-1.97,4.69-5.69,9.39-5.62,1.1-1.49,2.81-1.68,4.39-1.14,1.9-.67,3.55-1.01,5.54-1.17.44-.03,1.33-.2,1.4.12l.26,1.22c1.03-.07,2.93.31,3.44.88-.01.93.1,1.8.44,2.09l3.11,2.7-1.67.87-2.04-2.68-.51,1.99-2.17-.44c-.38.46-.66.84-.76.66l-.58-1.01c-.88.74-1.81,1.37-3.06,1.79l-2.07.7c-.39.13-1.06-.81-1.49-1.28-.66-.51-.99-.33-.29.65l-.63,1.03-2.85-2.9.6,1.58c.11.28-.62.53-1.23.77l2.81,2.47s-.64.84-.45.6l-1.63-1.05c-.22-.14-.73.49-.67.74l.39,1.51-.46-.23-2.14-1.55.66,1.29c.1.2-.43.48-.65.44l-.88-.16c-.38-.07-1.23-.03-1.6.09s-.54,1.3-.45,1.58l3.72-.61,2.46-.4,4.79,1.36,4.02,1.46.03,1.32c.01.69,2.61.16,2.98,2.06l.99.72c.19.14-.47.54-.69.65l-.88.45,4.82,2.22-2.27.2,1.72,2.32c.31.42,1.01.95,1.91,1.63l-3.14.46,1.91,1.19,1.84,5.37-.94,2.86c-1.52-.86-1.65-4.01-1.51-5.57.02-.2-.69-.55-.68-.36l.1,1.65c.17.14-.29-.25-.74-.64l-1.03-4.53-.25,3.53-1.47-1.27-.64-.56c-.1-.09-.15.02-.21.15l-.61,1.22-.21-3.19-1.8-.47c-.19-.05-.6.92-.66.73l-.32-.9c-.2-.56-.5-1.79-.99-1.89l-1.76-.36c-.92-.19-1.78-1.37-2.49-2.69.4-1.09.13-.41-.44,1.02l-2.35-4.58,1.2,4.71c-.99-.8-1.3-1.45-1.52-2.13-.33.7-1.36,1.54-2.31,2l-.95-3.19-.14.32.55,3.62-1.46-2.78-.36.75-2.51-3.02.44,2.32c.09.45-.74,1.11-1,1.47l1.49,2.8c1.96.13,3.25,1.34,3.02,3.54l2.78,1.67c-.6,1.65.56,3.25,2.28,4.06-1.26,1.43-2.32,2.93-2.81,4.48l-1.37,4.38s-.67-.42-.6-.65l.25-.83.3-1.01c.05-.16-.51-.15-.6,0l-.66,1.06c.16.39-.15-.38-.25-.64l.3-2.43-1.33.29,1.3-2.06c-.03-.17-.17-.9-.07-.35l-1.4.7c-.16.08-.26-.59-.34-1.15.09-.64-.04-.85-.37-.14-.33.41-.93,1.01-1.01.75-.05-.17-.19-.71-.11-.86.35-.64.35-2.16-.08-2.9.65-1.43,1.03-3.01,0-5.06-1.6,2.61.3,4.89-1.34,6.23l-.9-9.02-.81,4.02-.23.28-.3-3.58-.22.72-.88,4.44-1.68-3.91c-2.79.76-.26,3.5-.67,6.27-.04.31-.99,1-.84,1.27l.72,1.3c.15.27.21,1.4-.07,1.32l-1.34-.35c-.41,8.16-.55,16.45-.09,24.88l.74,13.31c.43,7.79.45,15.26-.18,23.07l6.39,4.67c2.59,1.89,11.57-.91,15.96-3.14,2.68-1.36,5.62-1.06,8,1.03l7.35,6.43c.82.72,1.91,1.66,2.75,1.72,2.76.22,4.75-4.68,9.15-2.01l4.79,2.91,6.23,2.6c2.3.96,4.11,1.86,6.77.6-5.65-10.58-3.39-23.02,4.63-31.92,8.85-9.82,22.61-13.06,34.83-7.45,6.41,2.95,12.21,7.47,15.56,13.88,4.89,9.35,3.87,20.64-1.68,29.79l11.18-.37c2.52-.08,4.88-1.77,6.45-3.63,1.17-1.39,2.38-1.6,3.97-.92l7.06,3.05,3.75,1.84,3.33-2.23,3.29-6.71c.72-1.48,1.78-2.36,3.03-3.53,3-2.79,2.16-7.3,4.87-9.76,1.72-1.56,2.84-3.26,4.07-5.2l3.4-5.36,3.27-6.53,5.88.23c1.56,1.67,3.08,2.93,5,3.91,3.11,1.6,4.98,4.25,6.32,7.6l7.32,1.28.86,3.88,6.77-5.95c2.05-1.8,3.02-5.05,5.85-6.1,4.6-1.71,7.88-4.81,10.21-9.21l4.34-8.19c1.4-.48,3.62-.3,5.08-.11l6.47.84c2.57.33,5.39,6.45,8.94,7.17,8.69,1.75,7.07,8.29,11.75,10.57,4.07,1.99,8.33,3.43,12.99,3.35,1.57-.03,3.92-1.04,5.33-1.57,4.87-1.85,8.95.53,11.06,4.99.62,1.3,2.25,2.8,2.33,4.26.09,1.69.49,2.24,1.19,3.64.67,1.32.36,4.6,2.51,5.3l6.32,2.06c6.01,7.23,12.28,2.42,20.82,11.01,1.14,1.15,2.13,2.12,3.08,3.47,2.4,3.41,7.14,3.21,9.79,6.11-9.54-1.51-10.5-5.25-12.54-7.09l-4.93-4.44c-4.05-3.65-11.42-1.3-16.91-7.51l-7.38-3.15c-1.82-.78-1.62-3.7-2.29-5.19-.75-1.66-1.07-2.67-1.41-4.62l-2.31-3.95c-4.37-7.46-10.07-2.03-14.41-1.86-5.22.21-10.09-1.44-14.63-3.86s-3.29-8.58-9.36-9.59c-1.9-.32-3.94-1.45-5.37-2.88l-4.78-4.8-5.96-.63-4.38-.44-.98,5.67-1.93,8.42c2.19.95,2.78,2.12,2.74,4.17-.05,2.37-1.37,3.24-3.4,4.06-.35,1.89-.97,3.98-2.31,5.51-2.02,2.32.63,4.94.67,7.91-1.49,1.85-3.78,2.15-6.02,1.86-3.56-.46-6.78,1.35-10.03,2.45-4.48,1.52-2.83,4.16-7.06,5.82-.11,3.67-3.48,1.57-8.27,7.89-1.45,1.92-.59,3.05.51,4.88.75,1.26-.1,4.48-1.1,5.58l-3.72,4.08,3.7-1.25c4.32-.66,7.9,3.12,10.63,2.85s5.13-.52,7.85-.1c1.23.19,1.8,2.22,1.46,3.78l31.93-2.02c15.32-.97,30.35-1.03,45.63.05l17.61,1.24,21.21.33,11.09.08ZM73.87,422.8c.62-.64-.1-.73-.62-.46-2.29.8-4.12,1.43-5.84,2.47,2.58-.16,4.28-1.05,6.46-2ZM88.57,432.21l1.21-.33c.15-.04-.12-.41-.33-.59l-8.27,2.46.26.44,7.14-1.97ZM118.14,436.33l.4-2.04c-2.57,0-4.35.26-6.11,1.53,2.39-.39,3.96-.56,5.72.51ZM77.2,438.86l1.65-3.94-2.95.78,1.3,3.16ZM110.79,440.18c1.85-.93,3.65-2.31,5.22-1.73,1.77.65,3.68,1.09,4.67-1.52l-2.82,1.25c-2.54-1.63-6.49-1.23-7.07,2ZM53.86,441.94l4.56-1.56c4.8-1.64,8.1.5,11.57-.56-2.32-3.2-5.89-2.54-8.84-1.77l-8.35,2.19,2.31.73c-2.9.49-5.15.89-6.65,2.8l5.39-1.83ZM83.96,444.27l.15-6.25-1.45,2.21c-.94,1.44-.34,3.19,1.3,4.04ZM93.6,441.09c-2.71.57-2.8,4.02-3.48,5.57s-3.02-1.65,1.85-6.97c-2.42-.11-3.03,2.2-3.5,4.06-.55,2.21-.15,3.91,1.9,5.16l1.64-4.93,1.57-2.89ZM115.09,442.94l2.04-2.86c-1.91.13-3.13.38-4.27,1.09-.79.49-1.21,2.33-1.26,3.62l4.36-1.02-.86-.82ZM62.14,451.35c2.25-2.91,3.61-5.62,5.17-8.72-2.77,2.25-4.32,5.52-5.17,8.72ZM106.05,447.59c2.44-.73,3.76-2.43,4.27-4.74l-3.27,2.48c-.5.38-.91,1.38-1,2.26ZM94.87,450.74c-.15-4.08,3.03-4.89,1.5-5.78-.22-.13-1.01.05-1.09.28-2.23,6.88-.35,7.13-.36,6.88l-.05-1.39ZM82.77,445.6c-2.68-.76-5.07,1.04-5.85,3.24,1.94-1.37,3.6-2.23,5.85-3.24ZM127.17,451.29l4.07-3.13c-3.44,1.16-6.86,2.53-8.75,5.66,2.04-.11,3.22-1.4,4.68-2.53ZM86.89,449.48c-3.41-.55-5.94,1.9-7.06,4.93,2.24-.55,2.97-3.31,7.06-4.93ZM91,453.32c-1.01-.98-2.15-1.53-3.62-1.72l-3.71,2.76,7.33-1.04ZM113.28,451.73c-2.9,1.04-5.19,1.99-5.61,4.91,2.18-1.46,4-3.3,5.61-4.91ZM119.51,491.81c.53-1.22,1.49-2.93,2.51-3.79l2.49,1.72-.14-1.28c-.03-.23.77-.31.96-.21l1.25.62,1.4-.97c1.04.55,2.7,2.02,4.04,3.08l-2.63-3.98c3.6,1.15,3.78,4.48,5.33,7.18l-1.31-6.62c2.24,2.68,2.02,5.66,3.02,8.49.38-3.05-.88-5.85-1.94-8.5l-.23-2.64c-.02-.24,1.01-.43,1.01-.21.02,1.27.33,3.73,1.22,4.89l-.74-4.64,1.42-2.07c1.4.12,1.87-.1,2.9-1.05.26.08,1.2.94,1,1.39l-.84,1.9c.14.29.86.95.71,1.26l-.7,1.44,2.35-.99,1.06-3.33.4.29-1.1,5.94.41.3c.97-2.76,1.48-5.6,3.02-8.2l-.94,5.03c1.6-2.65,1.41-4.69,2.38-7.93l.49,4.96c.97-1.69,0-4.59,1.9-5.17.7-.22,1.94-.21,3.13-.23l-.8-3.96-.56,2.08c-.1.37-1.13.66-1.33.32l-.96-1.56c-.16-.27-1.15.19-1.42.22l-.84-3.27-.9,2.41-2.47-8.11-.64-.1,1.18,3.83-.57.52-4.52-7.19c.7,2.82,1.99,4.39,1.98,7.13l-3.8-6.23c.28,1.75.56,2.39.27,3.78l-7.22-10.86-.86-.6c-.17-.12-.69.36-.61.56.73,1.62,6.07,5.45,5.94,10.12l-4.51-5.92.73,4.03-3.52-4.36.65,3.01-4.14-3.76,1.47,3.83c-1.72.76-2.62-2.23-2.91-1.98l-.84.72c-2.99-2.45-6.25-5.21-10.45-5.74,2.04,2.32,4.34,2.99,7.04,4.66-.66.81-1.46.65-3.26.54l3.15,2.41c3.53,4.07,9.55,3.96,8.76,4.84-.12.13-.61.64-.79.64l-5.28-.09c.74.67,2.07,1.22,3.2,1.53l4.61,1.28c-1.36,1.05-1.71.91-3.46,1.16l2.12,2.15c.27.28.56,1.57.19,1.51l-1.58-.22-3.59-4.41c.3,1.78,1.41,2.31.66,4l-4.11-6.75c-.26.15-.98.56-.69.4l2.64,5.24c-1.55.78-1.84-1.94-2.53-1.84l-1.26.2-3.79-5.63c.49,2.08,1.6,3.55,2.32,5.36l-.58.29-3.55-4.69c.08,2.19.07,3.55-.36,5.33l-2.07-2.18c-.09,2.03-.58,2.88-1.56,3.67l-1.07,6.1c-.17,5.04-.33,10-1.15,14.87l5.44,1.34c2.01-2.99,5.06-6.31,8.34-7.33ZM92.9,458.92l-5.61-.54-.52,3.44,6.13-2.9ZM82.08,460.36l-1.76,3.3-.06-4.58-1.64,4.61,3.54-.05-.08-3.28ZM95.78,463.91l1.33,3.13c1.25-1.44,1.27-3.34.12-5.1l-.67-1.47c-.12-.27-1.34-.12-1.26-.06l-.57,1.62c-.08.22-.75.02-1.01-.03l-.68,3.53-1.41-2.12-.75,7.56c4.04-1.17,3.19-4.44,4.9-7.06ZM71.12,465.09c.57.42,2.74-.24,2.75-.99l.05-2.97-1.6,2.38c-.49-.13-1.13-.33-1.28-.02-.11.24-.13,1.44.08,1.6ZM148.04,468.76c-.46-2.81-1.83-5.45-4.77-6.56l4.77,6.56ZM88.17,472.86c1.47-2.89,2.12-5.87,1.47-8.86l-1.47,8.86ZM102.89,471.19l-.08-1.78c-.02-.38-1.35-.34-1.77-.2-.58.2-1.27.75-1.36,1.18-.25,1.12,3.22,1.07,3.21.8ZM75.15,481.32l-.08-10.81c-1.16,2.7-.77,5.16-.85,7.97-.03,1.17.05,2.1.93,2.84ZM107.08,475.89l-3.22-2.39-1.21,1.48c-.18.22.47,1.09.79,1.08l3.64-.16ZM102.16,523.88l-1.18-.4c-.2-.07-.17-.9.04-.93l1.46-.21c.13.14.13-1.12-.02-.93l-1.69-.93c-.22-.12-.01-.85.23-.87l1.78-.16c.24-5.52-.04-11.25.74-16.93.96-6.9,1.93-13.32,1.84-20.3-.02-1.44.53-3.26.95-4.71l-3.22.25-2.66,25.98c-1,9.76-1.3,19.23-.77,28.91.92-.73.75-1.12.86-2.04.29-.31,1.05-1.11.85-1.44l-.7-1.13,2.7-1.13-3.4-.71c.54-.74.96-1,2.43-1.6.62.15.1-.76-.24-.72ZM149.47,495.15c-.74-2.52-2.86-4.67-5.57-4.74l5.57,4.74ZM123.44,501.74l-.06-1.71c0-.16-.6.14-.74.19l-.99.34,1.15-2.22-2.75,1.41,1.37-3.51-3.91,3.32,6.14,2.99c1.54-.89,2.78-2.48,3.21-4.38l-3.42,3.57ZM129.84,503.21l.87-4.22-3.16,3.89,2.29.33ZM122.71,508.37c-2.03-.06-3.86-.87-5.99-1.57l3.61-2.56-6.57,2.35c1.23-2.8,3.64-2.31,5.79-3.48l-4.98-.31c-2.72-.17-5.43,1.37-8.74,1l4.15-2.31c-2.21.14-3.83,1.04-5.41,2.31l-.3,11.62,3.97-.29-1.81-1.17,7.18-.68,5.56-.97c3.17-.55,5.91-1.68,8.38-3.82l-4.82-.14ZM144.04,504.04c.19-.32.46-1.37.38-1.69s-.75-.68-.89-.67l-1.65,6.08,2.16-3.72ZM113.68,594.97l3.38-4.1c1.89-2.3,7.35-4.13,8.93-.73.49,1.05,1.67,2.91,2.7,3.14l5.88,1.27c.58-3.18.76-6.56.81-9.91l.23-14.33-.31-10.61.45-22.17.36-7.76c-.01-1.28-2.24-3.17-.75-5.13-1.16.18-2.39.21-2.5-.38l-.54-2.83-1.51,1.4c-.04-2.62.63-3.6,1.67-5.91.15-.51-1.13-.76-.95-.06l-1.31,3.12c-.23,2.68-.23,4.6-1.08,7.41l-.53-5.35-1.19,3.23c-1.53-3.01,1.36-6.37.66-9.55l-2.01,7.2c-.42,1.51-1.49,2.72-2.92,3.49l.51,1.61-2.55.3-.57-.69-.43,3.24-1.29-4.75-1.27,5.5-.64-5.78-1.11,5.98-.58-.52v-4.9s-1.23,6.84-1.23,6.84c-1.08-.31-2.03-.74-2.33-.47l-1.44,1.28-.72-1.88-1.79,4.14-.47-1.52c-.07-.23-.62-.35-.76-.28-.23,1.71-1.02,2.95-2.19,3.9-.22,4.74-.06,9.59.5,14.25l2.94,24.7,2.08,15.98c.69.89,2.89,2.02,3.85,1.62ZM105.46,518.28l1.17-1.38-2.18-.38.07,2.97c1.97.07,3.58-.04,5.41-.62l-4.47-.59ZM140.05,519.07c-.17-.65-1.77-1.01-2.25-.76s-.86,1.33-.88,2.11c-.06,1.93,1.25,3.05,2.65,3.18.42-1.54.83-3.22.49-4.53ZM108.08,526.48l3.21-2.55c-1.59-.19-2.19.23-3.33,1.21l-3.68,1.44c.9,1.04,2.73.76,3.81-.1ZM137.95,525.4c.05-.17-.25-1.02-.34-1.19s-.89-.05-.98.12c-.55.94-1.41,3.47.49,4.24l.84-3.16ZM124.21,653.38l-4.12-10.7-3.61-13.08c-1.35-4.88-2.67-9.37-3.73-14.33l-1.68-7.85-2.59-15.44-3.26-23.05-1.64-14.26c-.72-6.27-1.02-12.12-.76-18.59l-3.42-.3c.02,12.37.84,24,1.77,36.1.79,10.26,1.6,20.12,3.49,30.29-.16,6.7,1.1,12.96,2.85,19.4.43,3.55,1.42,6.74,2.14,10.24l2.74,13.52,4.08,12.97c.31.99,1.07,2.55,1.64,3.36,3.36,1.45,7.1,1.79,10.29.34l-4.19-8.63ZM127.31,657.21c3.06-1.11,5.79-6.32,5.8-7.96.04-4.58,1.53-8.31,2.25-12.63,1.61-9.56,2.27-19.07,2.82-28.72l.67-11.73c.38-6.74,1.05-13.1.71-19.86l-.93-18.46-.1-22.23c-.76-.07-1.64.73-1.6,1.41.41,7.75-.25,14.97-.29,22.66l-.12,22.14-.54,12.22-.6,11.54-3.51,24.08c-.76,5.22-1.32,9.95-3.17,14.92-1.02,2.74-1.49,5.2-3.86,7.47l2.47,5.14ZM298.32,634.17c-5.03,1.53-6.42-4.54-8.95.87l14.32-.44,16.61-.05c2.48,0,3.94-.79,4.63-3.38,1.55-.28,4.26-.47,5.11-1.69l2.84-4.09c1.27-.79,2.25-1.09,2.45-2.54.15-1.08-.33-2.2-1.02-3.33-1.13-1.84-.2-4.29,1.44-5.69l6.44-5.49c1.22-1.04,2.13-2.27,3.66-2.81.67-2.81,2.63-3.91,5.32-4.95l4.62-1.79c2.5-.97,3.73-4.05,5.54-5.9l3.68-3.77c1.32-1.35,1.8-4.2,3.13-5.49.93-.91,2.04-1.51,2.32-2.27,1.37-3.7-2.9-3.7-2.29-6.36l1.87-8.12-2.87,5.11c-1.76,3.14-4.65,5.25-7.81,6.89l-4,2.08c-.9,2.7-1.12,5.6-1.33,8.26-2.1,2.41-3.87,4.64-3.86,8.17l-4.38,4.04-.95,4.25c-1.42-1.59-.78-3.96.57-5.13l4.09-3.54c-.32-3.52,1.4-5.89,3.66-8.24l.29-5.16-3.83,4.02-8.05,7.23-5.05,2.75c-3.99,2.17-.3,6.02-5.92,9.4-2.59,1.56-5.45,3.63-6.95,6.26-1.15,2.01-2.16,3.18-4.25,4.22l-6.03,2.99,2.27,2.55c.38.43.77,1.92.3,2.25-.39.28-1.46.39-2.07.36-7.28-.43-9.06,6.58-15.55,8.55ZM244.04,615.99l3.62.96,5.96-3.59,5.49-.41c3.88-4.56,5.28-10.37,5.41-16.32.15-6.84-1.9-12.99-6.54-18.07-4.41-4.83-10.19-8.49-16.58-10.01-11.35-2.7-22.16,1.47-29.37,10.3-6.76,8.28-8.38,19.27-3.54,29.03,6.27.23,7.24,5.54,8.7,5.9.77.19,2.6-1.75,3.85-.16,2.39,3.02,6.15,3.41,9.25,1.45,2.22-1.4,5.02-1.26,7.1.29,1.97,1.46,4.05,1.67,6.66.62ZM218.07,632.45c6.97-.3,13.22-.99,19.88-.65l12.88.67c3.01-2.98,7.18-4.02,11.32-2.99,4.53-.96,8.93-1.06,13.47-.78,4.99.4,9.45-.87,13.29-3.88,3.91-3.05,8.18-.58,15.6-3.86l17.29-7.63c1.72-3.02,4.2-5.33,7.3-6.99,4.33-2.32,2.82-7.53,4.64-8.59l6.3-3.67c1.39-.81,2.42-3.15,2.43-5.08-.74.39-2.09.83-2.73.49-.69-.37-1.7-1.53-2.25-2.12-4.66-1.05-2.91-5.58-9.64-8.98-3.49-1.76-3.6-4.66-6.45-2.91-.36,3.04-1.7,5.84-3.22,8.41,3.07,13.54-4.21,14.55-7.33,18.02l-4.98,5.55c-2.11,2.35-3.38,4.86-7.01,3.53-1.65.91-3.8,2.37-5,3.83l-3.25,3.96c-3.09.62-6.09-.21-8.85-1.98-2.25,4.11-6.31,5.68-10.51,4.34-3.21.56-6.19.07-9-1.59l-3.29,2.38c-3.48,1.4-6.75,2.57-9.81,4.6-8.72,5.78-19.41,5.36-29.61,3.6-4.91-.84-10.76,2.22-20.6.14-3.12-.66-5.78.54-7.39,3.28l26.54-1.13ZM304.07,607.41l6.25-6.44c2.11-2.17,5.29-3.35,6.6-6.38.79-1.83,1.25-5.09.83-7.01-.5-2.33-1.11-3.99.44-6.04,1.34-1.78,2.35-4.21,1.72-6.67l-5.1,8.84c-1.91,3.32-3.76,6.44-6.91,8.82l-1.73,5.63c-.69,2.25-2.44,3.3-3.86,4.94-1.55,1.8-2.58,4.59-3.55,6.49,3.15,1.39,3.77-.6,5.31-2.18ZM122.7,611.38l11.23-3.23.8-11.78c-1.78-.69-3.8-1.27-5.66-1.45-2.81-.28-3.32-2.84-4.79-4.53-1.75-2.02-5.15.14-6.37,1.72l-2.74,3.56c-1,1.31-3.52.54-4.97-.47l3.13,17.64,9.36-1.47ZM363.27,598.96c.72.03,2.36-.71,2.75-1.37l-1.96-6.39-5.66,7.53,4.88.23ZM82.99,616.85c5.14-1.13,9.89-1.24,15.12-1.63,1.87-.14,4.42-1.84,6.35-1.82l-.78-8.98-1.39-9.47-7.4-1.29-6.06,2.72c-3.46,1.55-2.21,5.42-6.67,5.27l1.65,6.76c.65,2.65-3.62,5.35-5.17,8.88l4.35-.45ZM149.29,602.91l-4.97-3.92-4.57-3.96-.27,10.55,4.04-1,5.77-1.67ZM240,618.3l-3.81-1.76c-1.54-.71-3.18-1.31-4.78-.26-3.09,2.02-7.39,2.22-10.24-.37-.47-.43-1.24-1.36-1.71-1.19l-2,.69c-2.17.75-3.81-6.2-7.43-5.83-2.01.2-4.04,1.21-6.03,1.16-1.67-.04-3.53-1.52-5.07-2.1-3.48-1.32-6.56-2.69-9.58-4.7-3.85-2.56-5.01,2.57-9.13,2.02-1.09-.15-2.56-1.26-3.62-2.23l-6.06-5.52c-1.68-1.53-4.19-2.82-6.44-1.74-4.71,2.26-9.24,3.7-14.79,4.35l1.5,2.52,7.88-4.19,5.18,4.43c.69.59,2.25,1.82,2.99,1.44,1.05-.55,2.87-1.73,3.65-1.21l5.23,3.5c2.1.02,4.64-.56,6.46.03,4.45,1.45,8.4,4.06,12.92,5.01,3.48.73,6.48,1.14,9.72,2.85,4.36,2.32,5.39-.51,7.31-1.15,1.88-.62,6.32,6.05,17.69,5.71,3.67-.11,7.11-.5,10.18-1.45ZM252.91,622.57c-3.16-.02-5.6-.31-7.88-1.41-2.78-1.35-5.38-1.23-8.32-.54-3.53.83-7.35.76-11.03.43-5.04-.46-9.3-2.75-13.25-5.75l-2.64,2.02c-2.08.21-4.41-.29-6.26-1.31-2.55-1.4-5.03-1.77-7.88-2.35-4.72-.95-8.87-3.22-13.32-5.09-1.38-.58-3.66-.23-5.21-.13s-2.59-.66-3.81-1.48l-3.58-2.42c-1.44.89-2.72,1.57-4.01,1.93l-4.5-4.09-2.83-2.05c-2.27,1.5-4.51,3.08-7.03,3.71-2.95.74-6.43.1-8.53,2.53,2.37.25,4.93-1.34,6.46.89-3.53-.4-7.64.72-9.91,3.59l-1.23,10.61c3.43.9,6.74,1.29,9.87,2.33l15.31,5.1c8.5,2.31,16.84,4.47,25.7,4.4l3.88-3.73c2.82-2.71,9.89.95,19.35-.83,4.49-.85,8.43-.29,12.8.54,6.44,1.21,13.25.19,19.34-2.12l4.71-2.66,3.81-2.12ZM32.75,615.63l-7.98,3.14c13.35-.4,26.13-.26,39.33.56,4.34-1.14,8.53-1.63,13.02-1.77,1.92-4.88,6.19-6.8,5.5-9.71l-1.36-5.68-3.83.03,1.89,1.65c-.37.38-1.74,1.13-2.05.78l-1.43-1.62c-4.95,5.94-10.9,4.17-16.88,4.47-1.69.08-3.59,2.47-5.99,1.39-1.21,4.89-5.34,7.71-10.14,7.4l-10.09-.64ZM132.59,618.2l1.05-8.81-6.07,1.86c-3.54,1.09-6.85,1.87-10.44,2.25l6.35,1.62c2.94,2.89,5.66,1.72,9.11,3.09ZM257.93,620.55c1.52-.35,3.09-2.61,4.93-1.93,1.25.46,3.05,1.28,4.24,1.32l5.62.19c2.93.1,5.09-.45,6.89-2.92,2.67-3.67,4.45,1.18,9.93.42l3.18-3.65c-4.32-1.93-8.14-3.56-12.36-4.57-2.13,2.52-4.57,4.49-7.71,4.64l-10.09.48c-1.75.08-3.01.67-4.47,1.47l-5.7,3.14-5.24-1.09c-2.04-.42-3.36-.79-5.44.46l5.48,1.84c3.22,1.08,7.42.96,10.73.19ZM128.96,618.74c-2.51-.45-4.36-.62-5.85-2.23-2.92-1.34-5.83-1.9-9.01-1.92.08,1.02.49,1.72.99,1.92l3.77,1.51c3.29,1.32,6.66,2.32,10.1.72ZM252.57,617.41l5.22-2.72c-3.2-.85-5.61.53-7.87,2.85.83.23,1.99.22,2.65-.13ZM287.11,634.91c1.22-3.17,4.89-4.62,7.28-2.74,1.27,1,2.52,1.58,4.11.86,3.14-1.43,5.72-3.81,7.89-6.38,2.29-.93,4.33-2.13,6.13-3.68l-.63-2.74,6.14-3.87-11.14,4.75c-3.45,1.47-7.29,2.76-11.07,2.99-2.35.14-4.5.2-6.38,1.71-8.76,7.06-16.95,2.1-27.3,4.83-3.49-.65-6.97-.43-9.84,2.26l20.88,1.94,13.92.06ZM93.71,617.12c-2.85-.53-5.31.31-8.03.64l-15.53,1.89c8.05,1.86,16.18-.14,23.56-2.53ZM123.28,620.78l-4.21-1.56-4.71-2.01,1.11,4.72,7.81-1.14ZM122.46,645.39l4.91-.25c.99-3.08,2.25-6.12,2.67-9.3l1.95-14.75c-1.52-1.62-3.28-.2-5.03.08l-11.37,1.81,4.54,15.07,2.33,7.34ZM185.53,638.83c4.26-1.24,7.69-2.25,12.01-2.1,2.87.1,5.83-.36,7.99-2.17l-16.34.43c-8.83.23-17.25-1.85-25.62-4.46-5.8-1.16-10.85-3.19-16.35-5.3-2.92-1.12-6.21-1.3-9.19-2.21-.63,4.36-.61,8.89-1.57,13.2l-2.11,9.48,9.08-.38,8.84-.85,10.24-1.12,14.27-3.79,8.74-.75ZM353.97,635.84c.69-6.16-6.84-.74-12.4-3.73-1.91-1.03-3.88-1.74-5.94-2.12-2.98,1.54-5.81,2.13-9.33,2.3l-1.05,2.59,10.3.86,18.44.1ZM156.73,651.78l6.91-4.55,2.06-3.39-16.21,1.99-15.83,1.51c4.52,2.08,9.12,1.08,13.66,1.74l9.41,2.69ZM127.07,646.67l-4.02.06,1.71,3.7,2.31-3.77ZM212.06,652.69l-14.53.12-15.25-.52c-10.26-.35-22.22,2.55-28.99-.35-3.38-1.45-6.62-1.57-10.29-1.91l-8.77-.81c-1.27,3.7-2.8,7.11-6.46,8.76l1.72,3.16,11.25.42,22.12-1.32,11.69-1.57,33.81-3.56,3.69-2.42Z"/>
</svg>