<?xml version="1.0" encoding="UTF-8"?>
<svg id="Layer_1" data-name="Layer 1" xmlns="http://www.w3.org/2000/svg" viewBox="0 0 471.92 768">
  <defs>
    <style>
      .cls-1 {
        fill: #fff;
      }

      .cls-2 {
        fill: #f12427;
      }
    </style>
  </defs>
  <g>
    <path class="cls-2" d="M95.84,261.85h39.75v77.08h-36.12v-30.5l-9.03,30.5h-19.16l-8.37-28.41v28.41H26.8v-77.08h39.2l14.87,50.54,14.98-50.54ZM177.78,338.93h-36.12v-77.08h36.12v77.08ZM179.43,338.93l26.32-77.08h36.45l26.31,77.08h-36.22l-2.43-7.05h-11.89l-2.42,7.05h-36.12ZM223.92,314.38l-4.51,13.32h9.14l-4.62-13.32ZM339.14,261.85h39.75v77.08h-36.12v-30.5l-9.03,30.5h-19.16l-8.37-28.41v28.41h-36.12v-77.08h39.2l14.86,50.54,14.98-50.54ZM421.08,338.93h-36.12v-77.08h36.12v77.08Z"/>
    <path class="cls-1" d="M210.33,350.74c1.1-.08,1.5.39,1.1,1.42-.55.39-1.18.79-1.81,1.18-.63.39-1.34.79-2.13,1.18-.79.39-1.58.87-2.37,1.26-.79.39-1.5.71-2.21.95-.71.24-1.42.24-2.05-.08-.63-.32-1.03-.71-1.1-1.34-.08-.63-.08-1.18.08-1.66.08-.55.16-.95.24-1.26v-.08h-.08c-.39.08-1.02.39-1.89.95-.95.55-1.66,1.18-2.13,1.81-.55.55-1.1.63-1.73.08-.55-.47-.71-.95-.32-1.34.08-.24.24-.39.55-.55.32-.32.71-.63,1.03-1.03.47-.47.95-1.03,1.26-1.5.08-.08.16-.16.16-.24-.39.16-.95.47-1.5.79-1.18.63-2.52,1.34-4.26,2.21-1.66.79-3.23,1.58-4.81,2.13-1.58.55-3,.95-4.26,1.1-1.34.24-2.21-.08-2.84-.79-.55-.71-.79-1.5-.55-2.37.24-.87.63-1.73,1.26-2.52.55-.87,1.18-1.73,1.97-2.44.71-.79,1.42-1.34,2.13-1.89.63-.47,1.34-.55,2.13-.24.79.32,1.1.87.79,1.5-.24.63-.63,1.26-1.18,1.81-.47.55-1.1,1.18-1.89,1.74-.79.55-1.34.87-1.73,1.02-.39.08-.87.24-1.34.39-.08,0-.16,0-.24-.08-.16.32-.24.63-.32.95-.08.55-.08.95.08,1.1.16.16.79.24,1.74.24,1.02,0,2.29-.24,3.86-.71,1.5-.47,3.08-1.1,4.73-1.97,1.66-.79,3-1.58,4.1-2.21,1.1-.71,1.97-1.26,2.68-1.66.63-.39,1.26-.24,1.81.32.55.63.71,1.1.32,1.58-.08.16-.16.32-.32.47.24-.08.39-.16.63-.24.71-.24,1.34-.08,1.89.47.55.55.71,1.03.55,1.58-.24.55-.32,1.02-.47,1.34-.08.39-.16.55-.08.63-.24,0,.32,0,.71-.08.47-.08,1.1-.24,1.89-.55.79-.32,1.5-.63,2.29-1.03.79-.39,1.42-.79,2.05-1.18.55-.39,1.1-.79,1.58-1.18ZM184.39,348.84c-.39.24-.87.55-1.34.95q-.08.08-.16.16c.71-.32,1.18-.71,1.5-1.1ZM291.05,350.97c1.5.87,1.42,1.42-.32,1.58-1.26-.32-2.84-.47-4.65-.55l-1.5-.08c.39.55.63,1.1.79,1.66.39,1.42.55,3.08.24,4.89-.32,1.81-.95,3.63-1.97,5.6-1.02,1.97-2.36,3.94-4.18,5.99-1.81,2.05-3.86,3.94-6.07,5.68-2.21,1.73-4.58,3.15-6.86,4.49-2.28,1.34-4.73,2.29-7.33,3.08-2.6.79-5.13,1.1-7.65,1.03-2.52-.08-4.73-.47-6.78-1.18-1.97-.71-3.55-1.58-4.49-3-.47-.71-.79-1.42-.87-2.21l-.16.32c-1.11,2.13-2.13,3.63-3.15,4.49-1.03.87-1.42.71-1.34-.63.08-1.26.39-2.68,1.02-4.34.63-1.66,1.42-3.55,2.29-5.6.87-2.05,1.89-4.34,3.08-6.78,1.18-2.44,2.76-5.28,4.65-8.44,1.89-3.15,3.78-6.15,5.6-8.91,1.82-2.76,3.86-5.6,6.07-8.44l.63-.79c.55-1.26,1.42-3.08,2.76-5.52,1.34-2.44,2.76-4.89,4.26-7.1l3.08-4.57c.31-.47.47-.79.71-1.1.94-1.26,1.58-1.42,1.89-.55.32.87,0,1.97-1.1,3.31-1.11,1.34-2.45,3.08-3.86,5.44l-2.13,3.47c1.65-1.89,3.31-3.47,5.05-5.05,1.74-1.58,3.23-2.68,4.49-3.15,1.26-.47,2.05-.16,2.6,1.02.55,1.18.39,2.76-.39,4.57-.79,1.89-1.89,3.86-3.23,6.15-1.34,2.21-2.84,4.34-4.42,6.23-1.58,1.97-3.15,3.63-4.42,5.13l-.39.47c.48-.16,1.02-.32,1.58-.47,1.82-.55,3.86-.79,6.23-.79s4.49.32,6.55.79c2.05.47,3.71,1.5,5.21,2.52.47.32.79.71,1.1,1.03h2.52c1.89,0,3.55.16,4.89.32ZM258.96,343.25c-.95,1.34-1.58,1.5-1.97.63l-2.21,4.02c-2.21,4.02-4.18,7.89-6.15,11.83l-5.28,10.33c1.73-1.74,4.1-3.71,7.18-5.84,3.23-2.29,6.62-4.34,10.17-6.15,3.63-1.89,7.02-3.47,10.41-4.65,3.31-1.18,6.15-1.89,8.59-2.29l2.13-.32c-.08,0-.16-.08-.24-.16-1.11-1.1-2.76-1.73-4.58-2.29-1.89-.55-3.94-.71-6.23-.63-2.21.08-4.18.32-5.75.87-1.66.55-3.08,1.1-4.18,1.81-1.11.71-1.89,1.26-2.36,1.81-.32.39-.63.47-.95.39l-.16.08c-.63.32-1.1.16-1.42-.79-.32-.87-.08-1.5.79-1.89l3.08-1.34c.79-.71,1.65-1.5,2.6-2.44,1.42-1.42,2.84-3.08,4.42-4.97,1.58-1.89,3.08-3.86,4.26-6.15s2.13-4.26,2.6-5.99c.48-1.74.71-2.84.63-3.31-.08-.47-.48-.63-1.19-.39-.71.24-1.89,1.03-3.62,2.6-1.74,1.58-3.55,3.15-5.28,5.05-.95,1.02-1.97,2.13-3,3.39l-1.42,3.15c-.55,1.18-.79,2.37-.87,3.63ZM238.3,377.7c1.26-2.13,2.52-4.73,4.18-7.89l5.44-10.49c1.97-3.86,4.1-7.89,6.15-11.83l2.52-4.81.08-.16.15-.47c-1.65,2.21-3.23,4.42-4.65,6.54-1.81,2.76-3.71,5.68-5.52,8.91-1.81,3.15-3.23,5.99-4.42,8.44-1.1,2.37-2.13,4.65-2.92,6.7-.79,2.13-1.34,3.94-1.81,5.68l-.48,1.73c.32-.71.71-1.42,1.26-2.37ZM284.03,358.23c.16-1.66.08-3.08-.15-4.26-.16-.71-.48-1.34-1.03-2.05-.94.08-1.97.08-3.07.24-2.29.32-5.13.95-8.44,2.13-3.31,1.18-6.62,2.76-10.17,4.57-3.55,1.81-6.86,3.86-10.02,6.23-3.15,2.37-5.44,4.42-7.02,6.23-1.58,1.81-2.6,3.39-2.99,4.73-.39,1.26-.32,2.44.39,3.47.63.95,1.89,1.73,3.71,2.44,1.89.71,4.02,1.03,6.39,1.18,2.36.16,4.73-.24,7.25-.95,2.52-.71,4.89-1.66,7.09-2.92,2.29-1.26,4.5-2.68,6.7-4.42,2.21-1.73,4.18-3.55,5.83-5.6,1.66-2.05,2.92-3.94,3.86-5.83.87-1.81,1.5-3.55,1.65-5.2ZM304.95,347.27c.24.39.31.71.31,1.1-.71.71-1.42.71-2.05.24,0-.16-.08-.24-.08-.32l-.08-.24c0-.08-.24-.16-.63-.16-.32,0-.71,0-1.19.08-.47.08-1.02.24-1.65.55-.63.32-1.26.63-1.97,1.34-.63.63-1.34,1.18-1.97,1.97-.32.39-.63.79-.95,1.26l-.55,1.1c-.48.95-.71,1.81-1.02,2.52-.32.71-.71,1.26-1.11,1.66-.47.47-.79.32-.95-.32-.16-.55-.16-1.26.24-1.89.39-.63.87-1.42,1.58-2.44l1.03-1.5c.24-.47.47-1.03.79-1.58.63-1.1,1.02-2.13,1.34-3,.31-.87.71-1.26,1.26-1.1.55.16.87.32.79.55l-.08.32c0,.16-.08.39-.24.71.39-.32.79-.55,1.18-.79.79-.47,1.42-.71,1.97-.87s1.11-.24,1.65-.24c.48,0,1.03,0,1.42.24.39.24.71.47.95.79ZM315.74,351.29c.95-.16,1.18.24.79,1.1-.55.32-1.18.71-1.97,1.18-.79.55-1.58,1.03-2.45,1.66-.95.55-1.81,1.18-2.76,1.81-1.02.63-1.89,1.26-2.6,1.81-.79.47-1.58.71-2.37.79-.79,0-1.18-.39-1.1-1.18,0-.79.24-1.5.55-2.29.31-.79.71-1.58,1.18-2.37.24-.47.47-.87.71-1.26-.08-.24-.08-.47,0-.87.32-.32.55-.63.79-.95.16-.24.39-.55.63-.87.08-.08.08-.24.15-.32.16-.47.48-.55.95-.24.24,0,.39.16.63.32.55.47.63.87.15,1.18-.47.32-.94.79-1.5,1.42-.48.63-.95,1.34-1.42,2.13-.47.79-.79,1.58-1.1,2.29-.24.71-.39,1.18-.48,1.5-.08.24,0,.32.08.16.15-.16.63-.39,1.42-.79.79-.39,1.65-.87,2.6-1.5,1.03-.55,1.97-1.18,2.84-1.73.87-.63,1.65-1.18,2.45-1.66.71-.55,1.34-.95,1.81-1.34ZM310.14,347.11c-1.02-.16-1.26-.63-.79-1.42h.16c0-.24.08-.39.08-.55.08-.16.24-.16.32-.16.16-.16.39-.08.79.16.47.39.63.71.55,1.1,0,.32-.08.47-.32.63,0,.16-.08.24-.24.32-.16-.08-.24-.16-.39-.16,0,0-.08,0-.16.08ZM359.35,350.58c1.11.16,1.42.63.87,1.58-.55.24-1.34.55-2.13.95-.79.32-1.82.79-3.08,1.34-1.26.71-2.52,1.26-4.02,1.89-1.5.71-3.08,1.18-4.65,1.66-1.58.47-3.15.71-4.49.79-1.42.08-2.68-.08-3.78-.39-1.11-.32-1.97-.79-2.52-1.34-.08-.16-.16-.24-.24-.32-.63,1.02-1.18,1.89-1.58,2.6-.63.95-1.42,1.42-2.29,1.42s-1.18-.47-.63-1.34c.48-1.03,1.18-2.05,2.13-3.23.63-.79,1.26-1.58,1.97-2.29.16-.32.48-.55.79-.79.08-.08.24-.24.32-.32.32-.32.55-.47.79-.71.55-.87,1.11-1.81,1.58-2.76,1.18-1.97,2.45-4.18,3.86-6.62.47-.79.95-1.66,1.5-2.44-2.05,1.97-4.18,3.86-6.31,5.6-2.21,1.97-4.57,4.02-7.33,6.23-2.6,2.21-5.05,4.1-7.33,5.76-2.29,1.58-4.34,2.84-6.07,3.78-1.81.87-2.99.87-3.86,0-.71-.87-1.03-1.89-.71-3.23.24-1.18.71-2.52,1.42-3.94.63-1.26,1.34-2.52,2.21-3.55.79-1.1,1.65-1.89,2.36-2.52.71-.79,1.42-1.26,2.13-1.58.63-.32,1.26-.24,1.89.24.55.55.71,1.03.55,1.66-.15.63-.39,1.18-.63,1.81-.24.55-.47.95-.63,1.26s-.48.47-.79.47c-.39-.08-.55-.16-.39-.24.71-.39.63-.32-.32.08-.16.08-.31,0-.55-.39-.24-.39-.24-.71,0-1.03.24-.39.48-.71.79-1.18.08-.16.08-.24.16-.32-.24.16-.63.32-1.11.63-.71.47-1.5,1.18-2.36,2.05-.79.95-1.5,1.97-2.21,3.31-.63,1.18-1.02,2.37-1.18,3.39-.16,1.1-.16,1.81.08,2.13.32.24,1.18.08,2.84-.47,1.58-.63,3.55-1.73,5.83-3.15,2.36-1.58,4.81-3.39,7.41-5.6,2.68-2.13,5.05-4.18,7.25-6.15,2.13-1.97,4.34-3.94,6.55-5.99.71-.55,1.34-1.18,1.89-1.73.39-.63.79-1.18,1.18-1.73,1.26-2.05,2.6-3.94,3.86-5.68,1.18-1.58,2.29-2.84,3.23-3.71.87-.87,1.81-1.42,2.6-1.81.95-.39,1.26-.08,1.02.95-.24,1.03-1.02,2.13-2.29,3.55-1.34,1.34-2.99,3-4.89,4.89-1.1,1.26-2.36,2.37-3.62,3.63-1.11,1.66-2.21,3.55-3.47,5.44-1.34,2.44-2.68,4.65-3.79,6.7-.16.24-.31.47-.39.79.24-.24.55-.39.79-.55,1.18-.71,2.29-1.26,3.08-1.66.87-.47,1.74-.71,2.36-.71.63-.08,1.03.32.87,1.1-.16.79-.71,1.34-1.5,1.81-.95.32-1.81.71-2.99,1.18-1.03.47-1.89,1.03-2.76,1.42-.79.39-1.34.79-1.74,1.1-.31.32-.39.47-.39.71.08.08.24.32.63.71.24.39.79.71,1.58,1.1.87.39,1.89.55,3.15.55s2.68-.16,4.18-.63c1.5-.39,2.99-.87,4.49-1.5,1.34-.63,2.68-1.26,3.86-1.89,1.26-.63,2.28-1.18,3.07-1.66.71-.47,1.34-.79,1.89-1.1ZM351.31,331.02c-.79.87-1.58,1.89-2.36,3,.15-.24.31-.39.55-.55,1.82-1.89,3.39-3.63,4.58-5.05.39-.39.79-.71,1.11-1.03-.16.08-.32.24-.48.32-1.02.63-2.05,1.81-3.39,3.31ZM408.5,315.8c1.11.32,1.5,1.1,1.34,2.29-.16,1.1-.79,2.44-1.97,3.94-1.18,1.42-2.6,3-4.18,4.57-1.58,1.58-3.31,3.23-5.13,4.97-1.81,1.74-3.71,3.47-5.52,5.2-1.89,1.74-3.86,3.39-5.83,5.13-2.05,1.74-4.02,3.39-6.07,4.89-1.58,1.18-3.23,2.29-4.89,3.47-.08.08-.08.16-.08.24-.79,1.97-1.26,3.71-1.58,5.28-.32,1.58-.39,2.84-.24,3.94.15,1.1.47,1.81.94,2.29.48.39,1.19.63,1.97.71.87.08,1.81,0,2.92-.32,1.18-.24,2.36-.63,3.62-1.26,1.26-.55,2.6-1.26,3.86-2.05,1.34-.71,2.6-1.58,3.79-2.44,1.18-.79,2.28-1.58,3.23-2.37.95-.71,1.74-1.42,2.29-1.97.63-.55,1.11-1.03,1.42-1.5,1.03-.24,1.5.16,1.34,1.26-.47.39-1.02.87-1.73,1.42-.71.47-1.58,1.1-2.52,1.81-1.02.71-2.13,1.5-3.31,2.37-1.26.87-2.52,1.66-3.86,2.44-1.34.87-2.6,1.58-3.94,2.21-1.34.63-2.6,1.18-3.78,1.5-1.26.32-2.36.47-3.47.39-1.11,0-1.97-.47-2.76-1.18-.71-.79-1.11-1.81-1.18-3.08-.16-1.34,0-2.76.39-4.42.31-1.34.79-2.84,1.42-4.49-.08.08-.16.08-.32.16-2.21,1.42-4.18,2.6-5.99,3.47-1.74.87-3.39,1.58-4.81,2.05-1.42.47-2.52.63-3.39.47-.87-.24-1.5-.55-1.97-1.03-.39-.47-.63-1.1-.63-1.73.08-.71.16-1.34.31-1.89.24-.55.48-1.18.79-1.81.32-.71.79-1.34,1.26-1.89.47-.63.95-1.1,1.5-1.58.55-.47,1.1-.87,1.74-1.1.55-.32,1.18-.24,1.73.16.63.47.87.95.71,1.5-.16.55-.39,1.1-.71,1.58-.32.47-.71.87-1.19,1.26-.47.39-.87.79-1.34,1.03-.48.24-.87.32-1.26.32-.32-.08-.55-.16-.79-.24q-.08,0-.08-.08c-.24.55-.39.95-.48,1.42-.16.47-.24.87-.24,1.18,0,.24.08.47.24.63.24.16.55.32.95.47.39.16,1.26.08,2.6-.16,1.26-.24,2.84-.79,4.58-1.58,1.81-.79,3.78-1.81,5.99-3.23.47-.24.95-.55,1.42-.87.87-1.89,2.13-4.1,3.79-6.7,1.89-2.92,3.94-5.83,6.31-8.83,2.29-2.92,4.65-5.76,7.18-8.36,2.45-2.68,4.65-4.65,6.46-6.07,1.82-1.42,3.55-2.44,5.13-3.23,1.65-.79,2.99-.95,4.02-.55ZM363.16,348.69c-.08.08-.16.16-.24.16-.32.24-.63.47-.95.79.31-.16.55-.32.79-.47.16-.16.24-.32.39-.47ZM408.73,318.25c0-.79-.24-1.18-.71-1.26-.55-.08-1.58.16-3.15.71-1.5.47-3.16,1.42-4.97,2.76-1.81,1.26-3.94,3.23-6.46,5.76-2.52,2.52-4.97,5.28-7.25,8.28-2.29,2.92-4.34,5.83-6.15,8.75-1.34,2.05-2.36,3.94-3.15,5.52,1.26-.87,2.52-1.73,3.71-2.68,2.05-1.5,4.1-3.08,6.07-4.81,1.97-1.66,3.94-3.39,5.76-5.13,1.89-1.73,3.71-3.47,5.52-5.2,1.81-1.73,3.55-3.39,5.12-4.97,1.58-1.58,2.92-3.15,4.02-4.49,1.11-1.42,1.66-2.52,1.66-3.23ZM436.65,307.05c.63.47.79,1.18.47,2.21-.31.95-.79,2.05-1.5,3.15-.71,1.1-1.65,2.44-2.84,4.02-1.18,1.66-2.45,3.23-3.86,4.89-1.34,1.58-3,3.47-4.89,5.68-1.82,2.13-3.71,4.26-5.68,6.39-1.89,2.05-3.86,4.18-5.92,6.23-2.05,2.13-3.86,3.94-5.36,5.6-1.58,1.58-2.92,3.08-4.02,4.34-1.18,1.26-1.97,2.21-2.52,2.84-.63.63-1.03,1.1-1.34,1.42-.16.16-.24.24-.39.32-.32.87-.63,1.66-.87,2.44-.79,1.97-1.34,3.78-1.89,5.52-.48,1.66-.79,3.15-.95,4.34-.16,1.26-.08,2.29.16,3.08.24.79.63,1.34,1.18,1.81.63.39,1.34.71,2.28.87.87.16,1.97.16,3.16-.08,1.26-.24,2.6-.71,4.1-1.42,1.5-.71,3.08-1.66,4.73-2.76,1.73-1.1,3.39-2.29,5.13-3.55,1.65-1.26,3.31-2.6,4.89-3.86s2.99-2.52,4.34-3.71c1.34-1.18,2.52-2.29,3.63-3.31.79-.71,1.42-1.34,2.05-1.89.32-.16.87-.39,1.03-.16.15.16.08.47-.08.71-.71.55-1.5,1.26-2.36,1.97-1.11,1.02-2.36,2.05-3.71,3.23-1.42,1.18-2.84,2.44-4.42,3.71-1.58,1.34-3.23,2.6-4.97,3.94-1.66,1.26-3.39,2.44-5.05,3.63-1.66,1.1-3.31,2.13-4.81,2.92-1.5.79-2.92,1.34-4.26,1.58-1.34.32-2.52.39-3.63.24-1.1-.08-2.05-.47-2.76-1.1-.79-.63-1.26-1.42-1.5-2.44-.24-.95-.24-2.13,0-3.47.16-1.26.55-2.76,1.11-4.49.47-1.66,1.18-3.55,1.89-5.52.31-.71.63-1.5.87-2.21-.71-.39-.87-.87-.47-1.58.16,0,.31-.08.55-.24.15-.16.47-.47,1.1-.95.24-.55.48-1.1.79-1.66,1.03-2.44,2.21-4.81,3.39-7.1,1.18-2.29,2.44-4.57,3.78-6.94,1.34-2.29,2.76-4.42,4.1-6.39,1.42-1.97,2.76-3.78,4.18-5.52,1.34-1.81,2.84-3.47,4.34-5.13,1.5-1.66,3-3.08,4.34-4.34,1.34-1.26,2.68-2.52,3.94-3.63,1.34-1.1,2.44-2.05,3.47-2.68,1.02-.63,1.97-1.02,2.76-1.26.87-.32,1.58-.16,2.29.32ZM436.02,309.1c.24-.79.24-1.18.08-1.18-.24.08-.71.16-1.42.24-.71.16-1.5.47-2.45.95-1.02.55-2.13,1.26-3.47,2.37-1.34,1.03-2.68,2.21-4.02,3.39-1.34,1.26-2.76,2.68-4.34,4.34-1.5,1.58-2.99,3.23-4.34,4.97-1.34,1.73-2.76,3.63-4.1,5.52-1.42,1.97-2.76,4.1-4.18,6.39-1.34,2.29-2.6,4.57-3.78,6.86-1.18,2.29-2.29,4.65-3.39,7.02-.08.16-.16.32-.24.47.55-.47,1.18-1.03,1.81-1.66,1.26-1.18,2.68-2.6,4.26-4.18,1.66-1.5,3.47-3.31,5.52-5.36,2.05-2.13,4.02-4.18,5.91-6.23,1.97-2.13,3.86-4.26,5.76-6.39,1.81-2.21,3.47-4.1,4.73-5.76,1.34-1.66,2.6-3.23,3.79-4.89,1.18-1.58,2.05-2.92,2.68-4.02.55-1.1,1.03-2.05,1.18-2.84Z"/>
    <path class="cls-1" d="M93.34,244.36c1.18.79,1.1,1.42-.24,1.81-.87-.24-1.97-.16-3.31.16-1.34.24-3,.87-4.97,1.89-1.97,1.03-4.1,2.44-6.47,4.18-.47.39-1.03.79-1.5,1.18-.63,1.26-1.18,2.52-1.81,3.71-1.58,3.08-3.23,6.15-4.97,9.3-1.73,3.08-3.31,5.83-4.89,8.44-1.5,2.52-2.92,4.73-4.26,6.62-1.34,1.89-2.44,3.23-3.31,4.02-.87.87-1.74,1.03-2.76.55-.95-.47-1.34-1.42-1.1-2.84.24-1.42.79-3.08,1.58-5.05.79-1.97,1.89-4.1,3.31-6.47,1.42-2.29,3.15-4.65,5.2-7.1,2.05-2.44,4.26-4.81,6.7-7.1,1.81-1.73,3.71-3.39,5.6-4.89.79-1.73,1.66-3.55,2.44-5.36,1.42-3.23,2.6-6.31,3.55-9.07,1.03-2.84,1.66-5.28,1.97-7.49.39-2.13.47-3.71.32-4.65-.16-1.03-.32-1.66-.47-1.97-.24-.39-1.18,0-2.92,1.03-1.66,1.03-3.71,2.68-6.07,4.73-2.29,2.13-4.65,4.57-7.1,7.25-2.37,2.68-4.34,5.13-5.91,7.33-1.66,2.13-3.15,4.18-4.49,6.07-1.42,1.97-2.68,3.63-3.78,5.13-1.03,1.42-1.97,2.68-2.68,3.63-.79.95-1.58,1.1-2.37.47-.79-.63-1.03-1.66-.71-3,.32-1.42.79-3.08,1.42-5.13.63-1.97,1.26-4.18,2.05-6.62.79-2.44,1.58-4.81,2.44-7.1.95-2.29,1.81-4.49,2.76-6.62s1.73-3.71,2.29-4.89c.55-1.18,1.1-2.29,1.58-3.23,1.73-1.34,2.44-.95,2.05,1.18-.71.87-1.34,1.81-1.89,3-.55,1.1-1.42,2.68-2.44,4.65-1.1,2.05-2.05,4.18-3,6.47-.95,2.21-1.73,4.57-2.6,6.94-.79,2.44-1.5,4.57-2.05,6.62-.55,1.97-.95,3.63-1.1,4.89v.32c.87-.47,1.81-1.42,3-2.68,1.18-1.34,2.44-2.92,3.94-4.81,1.42-1.89,3-3.86,4.57-6.07,1.66-2.13,3.71-4.57,6.23-7.25,2.44-2.68,4.81-5.13,7.18-7.25,2.37-2.13,4.42-3.86,6.23-5.05,1.81-1.26,3.23-1.58,4.34-1.03,1.02.47,1.58,1.42,1.58,2.68.08,1.26-.16,3-.79,5.28-.55,2.21-1.34,4.73-2.44,7.57-1.02,2.76-2.29,5.83-3.71,9.07-.55,1.26-1.18,2.44-1.73,3.71,2.37-1.81,4.49-3.23,6.47-4.34,2.05-1.1,3.78-1.89,5.2-2.37,1.5-.39,2.76-.55,3.86-.47ZM74.18,256.89c.32-.63.63-1.26.95-1.89-1.34,1.03-2.6,2.21-3.94,3.47-2.37,2.21-4.49,4.57-6.47,7.02-1.97,2.37-3.63,4.73-4.97,7.02-1.34,2.29-2.29,4.42-2.92,6.31-.63,1.97-.95,3.39-.87,4.42v1.66c-.08.08.24-.16.95-.63.71-.39,1.74-1.58,3.08-3.31,1.34-1.81,2.76-3.94,4.34-6.47,1.58-2.52,3.23-5.28,4.97-8.36,1.73-3.08,3.31-6.15,4.89-9.23ZM106.83,244.51c.87.24,1.1.71.63,1.5l-1.5.55c-.63.24-1.26.32-2.05.55-.71.24-1.5.47-2.37.63-.79.16-1.66.39-2.44.47-.87.08-1.73.16-2.44.08l-1.34,2.05c-.47.71-.87,1.34-1.42,1.66-.55.32-1.02.39-1.66.24-.55-.16-.87-.55-.95-1.18-.08-.63,0-1.26.24-1.97.24-.71.47-1.42.79-2.13l.55-1.18c-.16-.39-.32-.87-.32-1.26,0-.71.08-1.42.47-2.13.39-.71.95-1.26,1.66-1.81.63-.47,1.34-.95,1.97-1.34.71-.39,1.34-.63,2.05-.71.71-.08,1.26.08,1.58.47s.55.79.55,1.26-.08,1.03-.32,1.58c-.24.63-.47,1.18-.87,1.73-.39.55-.87,1.34-1.34,2.21l-.63,1.1c.39,0,.79,0,1.26-.08.79-.16,1.58-.08,2.37-.32.79-.24,1.5-.39,2.21-.63.71-.24,1.34-.47,1.89-.71l1.42-.63ZM99.02,240.41l-.24-.08q-.08.08-.08.16c0,.24-.16.47-.39.71l-.24.24c-.39.39-.71.95-1.1,1.5-.39.63-.63,1.18-.95,1.73-.32.55-.55.95-.63,1.18l-.24.55c.08,0,.16.08.24.08.24.16.47.24.79.32.39-.55.71-1.1,1.1-1.66.63-.87.95-1.58,1.18-2.13.24-.63.39-1.18.55-1.58.16-.47.24-.79.08-.95l-.08-.08ZM95.48,241.68c-.47.47-.95.87-1.18,1.34-.08.16-.16.32-.16.55l.32-.47c.32-.47.71-1.03,1.1-1.5l-.08.08ZM94.21,249.32c.32-.39.71-.79,1.02-1.26l-.55-.24c-.39-.16-.63-.32-.95-.63,0,.08-.08.16-.08.32-.39.71-.71,1.34-.79,1.97-.08.47-.16.79-.16,1.03.08-.08.16-.16.24-.16.32,0,.79-.39,1.26-1.03ZM168.54,200.59c.63.47.79,1.18.47,2.21-.32.95-.79,2.05-1.5,3.15-.71,1.1-1.66,2.44-2.84,4.02-1.18,1.66-2.44,3.23-3.86,4.89-1.34,1.58-3,3.47-4.89,5.68-1.81,2.13-3.71,4.26-5.68,6.39-1.89,2.05-3.86,4.18-5.91,6.23-2.05,2.13-3.86,3.94-5.36,5.6-1.58,1.58-2.92,3.08-4.02,4.34-1.18,1.26-1.97,2.21-2.52,2.84-.63.63-1.02,1.1-1.34,1.42-.16.16-.24.24-.39.32-.32.87-.63,1.66-.87,2.44-.79,1.97-1.34,3.78-1.89,5.52-.47,1.66-.79,3.15-.95,4.34-.16,1.26-.08,2.29.16,3.08.24.79.63,1.34,1.18,1.81.63.39,1.34.71,2.29.87.87.16,1.97.16,3.15-.08,1.26-.24,2.6-.71,4.1-1.42,1.5-.71,3.08-1.66,4.73-2.76,1.73-1.1,3.39-2.29,5.13-3.55,1.66-1.26,3.31-2.6,4.89-3.86s3-2.52,4.34-3.71c1.34-1.18,2.52-2.29,3.63-3.31.79-.71,1.42-1.34,2.05-1.89.32-.16.87-.39,1.03-.16.16.16.08.47-.08.71-.71.55-1.5,1.26-2.37,1.97-1.1,1.02-2.37,2.05-3.71,3.23-1.42,1.18-2.84,2.44-4.42,3.71-1.58,1.34-3.23,2.6-4.97,3.94-1.66,1.26-3.39,2.44-5.05,3.63-1.66,1.1-3.31,2.13-4.81,2.92-1.5.79-2.92,1.34-4.26,1.58-1.34.32-2.52.39-3.63.24-1.1-.08-2.05-.47-2.76-1.1-.79-.63-1.26-1.42-1.5-2.44-.24-.95-.24-2.13,0-3.47.16-1.26.55-2.76,1.1-4.49.47-1.66,1.18-3.55,1.89-5.52.32-.71.63-1.5.87-2.21-.71-.39-.87-.87-.47-1.58.16,0,.32-.08.55-.24.16-.16.47-.47,1.1-.95.24-.55.47-1.1.79-1.66,1.03-2.44,2.21-4.81,3.39-7.1,1.18-2.29,2.44-4.57,3.78-6.94,1.34-2.29,2.76-4.42,4.1-6.39,1.42-1.97,2.76-3.78,4.18-5.52,1.34-1.81,2.84-3.47,4.34-5.13,1.5-1.66,3-3.08,4.34-4.34,1.34-1.26,2.68-2.52,3.94-3.63,1.34-1.1,2.44-2.05,3.47-2.68,1.03-.63,1.97-1.03,2.76-1.26.87-.32,1.58-.16,2.29.32ZM167.91,202.64c.24-.79.24-1.18.08-1.18-.24.08-.71.16-1.42.24-.71.16-1.5.47-2.44.95-1.03.55-2.13,1.26-3.47,2.37-1.34,1.03-2.68,2.21-4.02,3.39-1.34,1.26-2.76,2.68-4.34,4.34-1.5,1.58-3,3.23-4.34,4.97-1.34,1.73-2.76,3.63-4.1,5.52-1.42,1.97-2.76,4.1-4.18,6.39-1.34,2.29-2.6,4.57-3.78,6.86-1.18,2.29-2.29,4.65-3.39,7.02-.08.16-.16.32-.24.47.55-.47,1.18-1.03,1.81-1.66,1.26-1.18,2.68-2.6,4.26-4.18,1.66-1.5,3.47-3.31,5.52-5.36,2.05-2.13,4.02-4.18,5.91-6.23,1.97-2.13,3.86-4.26,5.76-6.39,1.81-2.21,3.47-4.1,4.73-5.76,1.34-1.66,2.6-3.23,3.78-4.89,1.18-1.58,2.05-2.92,2.68-4.02.55-1.1,1.02-2.05,1.18-2.84ZM177.7,244.12c.95.32,1.1.79.47,1.42-.55.16-1.1.32-1.81.55-.79.32-1.58.63-2.44.95-.95.32-1.81.63-2.68.87-.87.32-1.58.24-2.29-.08-.63-.39-1.1-.79-1.18-1.34-.16-.32-.24-.55-.24-.79-.32.16-.71.47-1.18.95-.55.47-1.1,1.03-1.73,1.73-.63.63-1.18,1.18-1.74,1.81-.55.55-1.1.71-1.81.47-.71-.24-1.03-.63-.87-1.18.08-.55.32-1.1.63-1.81.32-.63.79-1.26,1.26-1.97.55-.63,1.1-1.18,1.66-1.73.55-.55,1.18-.87,1.73-.95.63-.08,1.03,0,1.26.39.16.32.32.47.39.71.32-.16.71-.24,1.18-.16.63.08.95.39,1.03.87.08.55.16.87.16,1.1s.08.39.32.55c.16.08.55.08,1.26,0,.71-.16,1.5-.39,2.37-.63.95-.32,1.74-.63,2.44-.95.71-.32,1.34-.55,1.81-.79ZM163.66,247.35c.63-.55,1.26-1.18,1.81-1.73.24-.24.47-.39.63-.63-.08-.08-.24-.16-.39-.32,0,.08,0,.16-.16.16-.08-.08-.39.08-.87.47-.55.32-1.03.71-1.5,1.34-.47.55-.87,1.1-1.1,1.66,0,.08-.08.24-.08.32.47-.32,1.02-.71,1.66-1.26ZM227.52,244.51c.79.71.71,1.34,0,1.89h-2.84c-.47,0-.95,0-1.34.08h-1.42c-.39,0-.87,0-1.34-.08-.39,0-.63-.08-.87-.16v.16c-.16.47-.47,1.02-.71,1.5-.39.55-.79,1.03-1.18,1.42-.47.32-1.03.71-1.5,1.03-.39.32-.95.24-1.5-.08-.47-.39-.71-.79-.47-1.34.16-.55.55-1.1,1.03-1.74.47-.63.95-1.26,1.42-1.81.16-.16.32-.39.39-.63-.08-.08-.24-.08-.39-.16,0,0-.16-.08-.16-.16-.32.08-.47.24-.87.32-.95.55-2.13,1.1-3.39,1.66-1.42.71-2.76,1.42-4.26,2.37-1.42.71-2.84,1.58-4.18,2.29-1.42.63-2.52,1.26-3.55,1.66-.95.39-1.73.32-2.21-.32-.55-.63-.71-1.26-.39-2.13.39-.87.79-1.74,1.5-2.6.63-1.1,1.26-1.89,1.97-2.84.71-.71,1.5-1.42,2.21-2.05.63-.47,1.18-.87,1.81-1.1.47-.24,1.03-.08,1.42.47.39.39.63.87.47,1.34-.16.32-.16.63-.32.63-.08.08-.24.32-.24.55-.79.63-1.34.47-1.58-.55,0-.08.08-.24.08-.39-.24.08-.55.24-.95.39-.63.32-1.26.87-2.05,1.66-.71.63-1.42,1.5-1.97,2.37-.55.95-.95,1.73-1.26,2.37-.16.71-.24,1.03-.08,1.03.08,0,.55-.08,1.34-.24.87-.16,1.89-.55,3.39-1.26,1.26-.55,2.76-1.26,4.18-2.13,1.5-.79,2.92-1.5,4.18-2.21,1.34-.71,2.52-1.34,3.47-1.81.47-.32.95-.47,1.34-.71.08-.39.32-.63.47-.63.08.08.16.24.16.32.08,0,.39-.16.39-.16.55-.32,1.1-.16,1.66.32.32.47.47.87.32,1.1,0,.08.08.08.16.08.08-.08.24,0,.39.16.16.24.47.32.63.32.32,0,.63,0,1.03.08h1.34c.39,0,.87-.08,1.26-.08s.79-.08,1.03-.08c.39-.08.71-.08,1.02-.08.24-.08.55,0,.95,0ZM217.58,247.04c.32-.32.39-.63.39-.87v.08c-.63.63-1.1,1.26-1.58,1.74-.08.16-.16.24-.16.39.08-.16.32-.24.47-.32.39-.32.63-.55.87-1.03ZM250.95,243.1c.24.47.39.95.31,1.34-.08.55-.15.95-.31,1.34-.16.47-.48.87-.79,1.26-.32.39-.63.79-1.03.95-.47.24-.87.47-1.34.47s-.94-.08-1.34-.39c-.39-.24-.71-.47-.95-.87-.24-.47-.55-.71-.63-1.1-.08-.39-.08-.71-.24-.79-.08-.08-.08-.16-.08-.16-.24,0-.55.16-1.18.47-.71.32-1.34.79-2.21,1.26-.71.47-1.5.95-2.36,1.42-.79.47-1.58.79-2.13.87-.71.16-1.26.08-1.89-.16-.47-.32-.94-.71-1.18-1.26-.15-.63-.31-1.18-.39-1.74l-.47-1.42c-.16-.47-.24-.63-.16-.63.08-.08,0,0-.39,0-.24,0-.79.24-1.5.71-.71.47-1.42,1.03-2.28,1.89-.79.79-1.26,1.42-1.66,2.13-.32.39-.63.55-.95.55-.79.47-1.34.16-1.73-.87-.08-.24.24-.63.79-1.42.63-.71,1.26-1.66,2.05-2.68.71-1.03,1.5-2.05,2.44-3.08.79-.95,1.58-1.66,1.97-1.89.55-.32.87-.08.94.55.16.63-.08,1.5-1.02,2.37-.47.55-2.05,2.21-1.5,1.66l.24-.24c.79-.55,1.42-.95,2.05-1.18.55-.24,1.11-.16,1.58.24.55.32.87.79.95,1.34.08.63.16,1.18.24,1.66.08.55.16.87.32,1.26.16.39.32.55.48.55s.39-.08.87-.08c.39,0,.95-.24,1.81-.55.79-.32,1.5-.63,2.29-1.1.79-.47,1.5-.87,2.13-1.34.71-.39,1.18-.71,1.74-.95.39-.24.87-.24,1.42.08.39.24.71.47.79.87.08.39.16.71.24.95.08.32.15.55.31.71.08.16.16.32.24.32.08.08.16.08.32.08.08,0,.24-.08.47-.16l.55-.55c.16-.24.39-.47.48-.71.08-.24.16-.47.16-.71v-.08c-.08-.08-.63.08-.63.08-.24.08-.63.32-1.1.55-.95-.08-1.26-.63-.87-1.58.48-.24.87-.55,1.42-.71.4-.24.95-.39,1.58-.32.47.08.87.39,1.18.79ZM266.64,244.75c.95.16,1.18.63.55,1.42-.55.16-1.19.39-1.74.63-.63.24-1.34.55-2.21,1.03-.87.39-1.74.87-2.6,1.34-.87.47-1.74.87-2.68,1.34-.95.39-1.81.55-2.6.32-.79-.16-1.26-.63-1.34-1.5-.08-.79.08-1.66.47-2.52.39-.95.87-1.73,1.5-2.52.55-.79,1.11-1.42,1.58-1.89.55-.47,1.02-.79,1.5-1.03.39-.24.87-.16,1.5.24.55.39.79.79.79,1.26,0,.39-.08.79-.15,1.03,0,.32-.24.47-.48.71-.31.16-.55.16-.55.08-.08-.08-.24-.08-.31-.16-.16.16-.24,0-.39-.32-.08-.24-.16-.47-.16-.71v-.08c-.24.08-.48.16-.71.32-.47.32-1.02.79-1.58,1.42-.55.63-1.02,1.34-1.34,2.13-.39.71-.47,1.34-.47,1.74.08.39.24.55.55.55s.87-.16,1.74-.39c.87-.32,1.74-.63,2.6-1.1s1.74-.87,2.6-1.34c.87-.47,1.58-.79,2.21-1.1.55-.32,1.18-.63,1.74-.87ZM276.26,244.83c.95-.16,1.18.24.79,1.1-.55.32-1.18.71-1.97,1.18-.79.55-1.58,1.03-2.45,1.66-.95.55-1.81,1.18-2.76,1.81-1.02.63-1.89,1.26-2.6,1.81-.79.47-1.58.71-2.36.79-.79,0-1.19-.39-1.11-1.18,0-.79.24-1.5.55-2.29.31-.79.71-1.58,1.18-2.37.24-.47.47-.87.71-1.26-.08-.24-.08-.47,0-.87.32-.32.55-.63.79-.95.15-.24.39-.55.63-.87.08-.08.08-.24.16-.32.15-.47.47-.55.94-.24.24,0,.39.16.63.32.55.47.63.87.16,1.18-.48.32-.95.79-1.5,1.42-.48.63-.95,1.34-1.42,2.13-.47.79-.79,1.58-1.1,2.29-.24.71-.39,1.18-.48,1.5-.08.24,0,.32.08.16.16-.16.63-.39,1.42-.79.79-.39,1.66-.87,2.6-1.5,1.03-.55,1.97-1.18,2.84-1.73.87-.63,1.66-1.18,2.45-1.66.71-.55,1.34-.95,1.81-1.34ZM272.95,234.5c.24.16.39.32.39.63v.16c0,.24-.08.39-.24.55h-.16c-.16.32-.39.39-.55.55-.16.08-.39.16-.47.39h-.24c-.39.16-.63.47-.94.71-.32.24-.63.55-.95.87-.71.16-1.03-.16-.71-.87.32-.32.55-.55.95-.79.32-.32.71-.55,1.02-.95,0,0,.08-.08.08-.16.08,0,.15-.08.24-.16.31-.24.55-.55.63-.71.24-.24.55-.39.95-.24ZM329.4,244.28c1.1-.08,1.5.39,1.1,1.42-.55.39-1.18.79-1.81,1.18-.63.39-1.34.79-2.13,1.18-.79.39-1.58.87-2.36,1.26-.79.39-1.5.71-2.21.95-.71.24-1.42.24-2.05-.08-.63-.32-1.02-.71-1.11-1.34-.08-.63-.08-1.18.08-1.66.08-.55.16-.95.24-1.26v-.08h-.08c-.39.08-1.03.39-1.89.95-.95.55-1.66,1.18-2.13,1.81-.55.55-1.11.63-1.74.08-.55-.47-.71-.95-.32-1.34.08-.24.24-.39.55-.55.32-.32.71-.63,1.02-1.03.48-.47.95-1.03,1.26-1.5.08-.08.16-.16.16-.24-.39.16-.95.47-1.5.79-1.18.63-2.52,1.34-4.26,2.21-1.65.79-3.23,1.58-4.81,2.13-1.58.55-2.99.95-4.26,1.1-1.34.24-2.21-.08-2.84-.79-.55-.71-.79-1.5-.55-2.37.24-.87.63-1.73,1.26-2.52.55-.87,1.19-1.73,1.97-2.44.71-.79,1.42-1.34,2.13-1.89.63-.47,1.34-.55,2.13-.24.79.32,1.1.87.79,1.5-.24.63-.63,1.26-1.18,1.81-.48.55-1.11,1.18-1.89,1.74-.79.55-1.34.87-1.74,1.02-.39.08-.87.24-1.34.39-.08,0-.16,0-.24-.08-.16.32-.24.63-.32.95-.08.55-.08.95.08,1.1.15.16.79.24,1.73.24,1.03,0,2.29-.24,3.86-.71,1.5-.47,3.08-1.1,4.73-1.97,1.65-.79,2.99-1.58,4.1-2.21,1.1-.71,1.97-1.26,2.68-1.66.63-.39,1.26-.24,1.81.32.55.63.71,1.1.32,1.58-.08.16-.16.32-.32.47.24-.08.39-.16.63-.24.71-.24,1.34-.08,1.89.47.55.55.71,1.03.55,1.58-.24.55-.32,1.02-.48,1.34-.08.39-.15.55-.08.63-.24,0,.32,0,.71-.08.47-.08,1.1-.24,1.89-.55.79-.32,1.5-.63,2.29-1.03.79-.39,1.42-.79,2.05-1.18.55-.39,1.1-.79,1.58-1.18ZM303.45,242.39c-.39.24-.87.55-1.34.95q-.08.08-.15.16c.71-.32,1.18-.71,1.5-1.1Z"/>
  </g>
  <g>
    <path class="cls-2" d="M110.98,598.27c.21.23.67,1.43.7,2.04.21,5.52,1.87,11.95,6.31,14.73l4.1-.74c-1.27-.33-3.42-.65-3.98-1.47s.56-6.46,4.63-6.78l.51-17.22.13-1.08c.04-.32,1.17.31,1.34.49l-.29,16.66c2.34,1.96,5.37-.49,7.4.98-2.39,1.19-4.27,1.08-7.43,1.54l4.07.47-3.71,1.37.83,1.4c.16.26-.89.72-1.47,1l.17,7.09,6.04-.74c-1.45-2.64-3.3-1.03-5.33-1.27,1.07-.64,3.66-1.28,4.85-1.16l6.01,1.81-2.92-2.2c2.8-.19,4.6,1.03,5.7,3.9l-6.8-1.07-1.05-.22c-.2-.04-.48.52-.33.66l.72.67c4.68.65,9.22,1.07,13.12,3.61l-4.99-.89c2.29,1.19,3.38,1.87,5.95,4.1l.48-38.67-.06-23.65c0-2.55-2.72-2.6-4.15-2.58-9.91.15-18.65,2.86-28.83,4.67,9.75-5.1,21.25-6.08,31.78-5.77l13.28,7.41-.85,27.78-1.75,45.14c-.37,9.42.07,18.38.2,27.72l.31,22.71c2.89-.67,6.3-.33,7.64,2.23.86,1.65,1.58,2.87,3.71,2.08l.57,4.44c1.22-1.31,1.72-1.77,3.4-2.07l1.08-2.08,1.75.61c.37.13,1.08-.56,1.27-.91l1.61-2.94-.14-32.1-.99-1.64s2.58-3.03.58-9.62l1.72-1-.59-4.05c3.22.09,5.78.18,8.67-.44,9.11-1.96,18.16-2.37,27.46-2.13l11.22.29-.02-4.02-12.82.55c-8.88.38-17.53,1.1-26.28,2.8-2.95.57-5.82.67-8.47-.63,1.19-.68,2.26-1.08,2.49-1.66.26-.68-.77-2.12-1.42-2.9l17.09-2.98c9.63-1.68,19.7-3.33,29.51-1.37-12.22,1.29-23.34,1.33-34.73,3.95l-9.01,1.4.25,3.18,17.94-2.84,24.7-1.3,1.75.76c.49.21.58,1.74.52,2.37l-.53,6.26-.46,8.33.14,11.73-.32,6.21-.25,22.59.05,25.21-.02,14.82-4.28,1.15,1.68,3.21,3.48,2.62,2.19-4.48.57,3.47,2.79.21c-.09-14.27-.67-27.85.1-41.98s.86-27.45.58-41.5l.72-21.43-3.92-3.35.59-12.57-4.12-.07-.41,4.8c.35.19,1.82,1.22,1.81,1.87l-.04,10.42c-2.42-2.93-1.18-6.25-1.22-10.06-7.12-.16-14.41-.11-21.54,1.27l-21.25,4.12c-.95.18-3.14-.19-3.74-.46,3.09-2.47-.38-6.6,3.18-7.7l7.25-2.22-.68-1.95c4.95-.79,8.09-4.89,12.37-6.16,7.48-2.22,15.57-1.63,23.45-2.34,1.64,1.81,2.59,3.65,3.45,5.83l2.98,1.43-.33,13.19c2.27,1.37,3.72,3.1,3.62,5.93l-.65,19.43-.25,37.54c.88.09,2.09-.02,2.91-.28l1.01-23.08.95-21.58,2.64-30.97,3.91-47.08,1.18-.05c.35-.02.46.97.41,1.52l-4.94,58.22-2.56,29.44.03,12.6-1.03,20.44,15.64,5.72.41,6.15,2.62.3.36-6.2c.05-.93,2.84-.85,3.65-.2,1.11-9.29-.14-18.3-.04-27.83.23-22.22.83-43.87-.1-66.09-.46-11.12-.27-21.56.69-32.65-2.57,1.33-4.98,2.16-7.53,1.27l-.27,30.83-.63,29.4-.2,30.97-.9,14.18c-.32,5.05,1.13,10.04-.94,15.24-.73-6.79-.64-13.21-.35-19.73l.94-20.74-.08-36.72.68-13.67.2-30.86-2.84-.63.32,6.85.25,19.45c-.85,16.42-.58,32.33-.69,48.78l-.16,24.69.19,19.3c-.07,1.04-1.4.85-1.55-.17l-.18-20.71.14-22.56.02-31.01.63-30.44-.46-12.64c-.05-1.31.2-3.04.46-4.26l5.54,2.33.07-5.31-5.35.9-.13-1.75c-.03-.36,1.27-.13,1.67-.19l5.2-.7.37,8.29,6.52-2.1-.2-13.32,11.52-.14c1.08,4.87.87,9.01,1.37,13.7l.17,1.57c.04.4,1.46-.67,1.66-.9,1.01.5,2.74.92,3.71.57l1.93-.71c.45-.17-.03-1.48-.13-2.16,2.89-1.19,1.19,3.03,2.73,4.13,2.14,1.54,4.35-1.54,4.7.04.59,2.73,1.08,6.98.91,9.97l-1.09,19.5c-.27,4.89-.14,9.82.44,14.69l20.06-.23c.76.38,2.46,1.34,3.06,1.96l8.01,8.16-.62,8.09,3.12.39c.21.03.75-.62.58-.74l-1.33-.9c-.14.16.17-.19.46-.52l3.15,1.62-.92-81.29.1-10.17-3.89-.43-3.42,7.15c-.18.38-1.4.78-1.78.67-.48-.13-.85-1.42-.75-1.92l1.69-3.94-.57-.48-4.13,8.3-1.46-3.62-1.71,3.56-.39.82c-.14.28-1.47-.02-1.36-.31l.49-1.29,3.64-8.23c-2.28,1.27-3.4,3.4-4.84,5.43-2.21,3.11-2.26,4.8-3.36,4.48-.58-3.67,1.79-5.66,3.83-8.84l-3.67.9c-.84,2.83-1.7,4.98-3.08,7.35-1.22-2.04-.27-3.18.39-4.61l.07-.8c.02-.21-1.49.18-1.54.39l-2.49,8.87c-.97-1.24-.89-2.54-1.49-4.86l-1.2,5.65c-.34-.07-1-.24-1.1-.53l-.6-1.73-1.84,4.92c-.1.27-.55,1.2-.75,1.03l-1.16-.98c-.12,1.39.5,3.1-1.77,4.07l.79-6.52c.05-.38-.37-1.63-.02-1.78l1.6-.71c.02-.33-.09-1.14.16-1.38l1.08-1.08,1.77-2.35-1.27-.57,4.45-.97-1.3-.48c-.28-.1-.74-1.09-.44-1.07l1.76.12c.72-2.36,4.41-5.4,6.91-5.15l2.21,1.04c.51.24,1.29-1.08,1.57-1.74l9.69-.95c2.03-.2,4.23.35,6.43.41l5.34.13c.34,0,.91-1.1.93-1.43.03-.45-1.04-.38-1.69-.46l-5.84-.76c-.62-.08-2.02-.74-2.04-1.33s.52-1.67.88-2.21l.61-.9c.1-.16-.12-.58-.3-.65-1.57-.65-2.05,5.03-6.95,3.78-.67.45-1.72.82-2.03.48-.37-.4-.46-1.66-.22-2.15l.46-.96c.08-.17-.53-.42-.63-.25l-.49.85-.52.89c-.11.19-1.16.17-1.13-.05l.25-1.4.43-3.08-4,5.54c-.21.3-.77,1.18-1.14,1.18h-1.98c-.34-.01-1.16.78-1.43.58l-1.03-.76-.71,1.88-1.56-1.73c-.31-.35.5-1.52.85-1.89l2.96-3.16c-.6-.24-2.32-.51-2.68-.02l-1.53,2.1c-.58.79-.85,1.63-.99,2.66l-2.29,2.88c-.35.44-2.16-.09-2.13-.24,1.18-1.07,1.89-1.91,2.53-2.97l2.69-4.44-18.05,3.27c2.72-2.08,6.16-2.28,9.41-3.29,4.29-1.33,8.34-1.72,12.82-2.06l9.07-.68c-1.36-.51-3.01-.58-4.96-.55-.36-.03.19-1.1.77-1.8.83-.9.12-1.09-.66-.57l-1.85.15c-.42.03-.08-1.1.21-2.08l-4.81,1.32-2.15-1.91c3.9-1.79,8.65.52,9.68-2.33l-12.67,1.96-1.32.56c-.29.12-.98-.61-.79-.85l1.01-1.26-4.6-.08c-.34,0-1.64-.63-1.45-.91.25-.37.89-1.16,1.25-1.46l4.6-1.3-7.68.38-7.6,1.95c1.16-1.95,3.04-2.59,4.78-3.17-.06-.17-.03-1.42.28-1.44l4.52-.32c.16-.01.85.52.71.61l-1.14.77,1.69-.13c.41-.03.92-.79,1-1.34-2.65-.51-5.65-.99-8.11-.92-3.89,1.11-7.43,3.35-11.63,1.29,2.34-2.35,5.55-2.65,8.46-3.46,2.36-.66,3.99-1.07,6.4.14s5.43.12,6.84,3.63c3.44.41,7.62.53,10.74,2.29,3.5,1.98,7.32,2.51,11.06,3.81,1.94.68,3.49,2.81,6.02,3.3-1.98-4.87-6.96-3-13.33-8.16l-4.7-3.81c-.26-.21-.82-.75-.57-.84s1.2-.45,1.4-.27l3.02,2.56c6.48,5.5,11.64,2.99,14.31,7.72,3.41,6.04,7.69,6.56,5.6,11.05l5.69,4.92,1.26-8.25-2.46.78c.75-6.6-5.83-6.69-6.44-8.71-.11-.38,1.45-1.1,1.77-.89l4.89,3.24c1.44-2.86-3.48-7.07-6.62-7.7l-6.58-1.33c4.26-2.67,8.2-.02,12.1,2.31-2.01-5.04-7.65-7.02-12.68-7.13l-.77-.69c-1.17-1.05,4.31-2.15,10.45,1.98,1.22-3.61-6.4-5.13-11.52-5.63-.85-3.44-4.54-.69-4.87-3.57h7.18s-2.29-1.32-2.29-1.32c4.32-.76,9.05.35,12.54,3.2l-1,1.72c5.42-.14,5.66,6.72,4.83,13.02,1.76-1.32,1.96-3.34,1.05-5.5l1.47-.76,1.37,7.98.3-3.56c.38-.09,2.14-.61,2.51-1.13l2.99-4.14-1.08-1.25,1.65-.71c.47-.2,1.11.73,1.59,1.49l1.8-1.63-2.19-1.71,3.64-2.08c1.78-1.12,3.3-1.74,5.4-2.4s3.83-3.18,6.64-1.34c-2.06,2.3-4.73,3.88-7.57,5.21-.61,2.29-2.08,3.91-4.69,4.17-1.15.3-2.46,1.19-2.98,2.12l-.54.95c-.09.15-.5.53-.57.37l-.73-1.58-1.83,3.1c-.21.35-.5,1.4-.85,1.39l-1.41-.06-.72,3.51,4.6-2.78,4.61-2.99c1.7-1.11,3.22-1.1,4.62-2.47.9-.88,2.14-1.32,3.36-1.94,3.02-1.53,7.46-4.22,8.45-1.39.18.51.05,1.93-.12,2-2.36-.52-3.21-.13-4.82.88-2.05,1.28-4.48,1.87-7.16,2.82,1.06.48,2.42.56,4.09.45l13.19-.88c.24-.02,1.06.2,1.27.25.32.07-.59,1.25-.93,1.27l-7.97.34c-1.17.12-1.4.62-.31.87,1.93-.23,3.65-.17,3.95,2.26l-4.49-.54,2.37,2.45,6.93-.97,1.58,1.85c3.02.66,6.98,2.25,7.9,5.27.42,1.4.95,2.42,2.05,3.65l.88.98c.27.3-.4,1.62-.74,1.42l-1.58-.95-3.67-1.73.37,4.77c-2.82-1.03-3.8-2.94-5.03-4.95l-1.1,1.23c-.92,1.03-2.29-7.06-5.39-8.12l1.55,2.46,1.13,6.23-4.69-4.12-2.5.28c-.44-2.2-.42-4.43-.03-6.79l-2.68-.12,2.03,6.87-2.76.8.61.4,4.67.06c1.1,3.76,3.88,1.55,7.18,3.66-.21,1.07-.37,1.56-.19,1.88l.65,1.21c-2.23-1.63-4.33-2.87-7.36-2.55l6.61,3.15c3.24-.98,6.05,1.57,7.53,4.21l1.59,2.83c-2.68.02-4.82-.8-6.71-2.43l-3.71-3.2c-.52-.45-1.69-1.18-2.63-1.73-.26.27-1.09,1.55-.68,1.79l1.77,1.02,1.27.64c.29.15-.07,1.4-.4,1.37s-1.17-.13-1.45-.28l-4.09-2.22-5.6-3.33c-3.43-2.04-8.6-1.57-11.8-3.69.59-.73,1.88-1.53,2.56-1.42l5.77.96c1.4-1.22,2.74-1.54,4.34-1.78l-.31-.53-3.64-.43c-.46.08.03-1.29.79-2.18l-2.45-5.2c-.49-1.04-2.06-1.79-3.33-1.22.49,2.98,4.5,2.82,3.33,6.62l-6.35-5.61.72,3.18c-.64-.05-1.83-.17-1.75.1l.57,1.95c-2.08.24-4.12-.11-6.73-1.1-1.19,1.1-2.05,3.11-2.32,5.39l1.59-1.35c1.41-1.2,4.03-1.51,6.33-1.26-.29,1.18-1.43,1.63-2.73,1.86l-2.6.46,1.87,4.06c.5-.48,1.68-1.47,2.28-1.2,2.51,1.13,2.53,3.28,3.04,3.07l1.8-.71c.99-.39,2.5-.25,3.57.41s1.76,2.37,1.43,3.39l-2.84-1.06c-.63-.24-1.5,1.27-1.69,1.82l.21.38,4.92,1.06.14-5.35c.01-.55,1.55.09,1.99.4l6.93,4.87c3.73,2.62,6.99,2.28,10.8,7.18.52.66.67,1.85.03,2.39-1.57,1.33-2.96-2.34-4.97-3.03l2.05,7.03c.81,2.78.11,6.95-3.18,7.93l1.81-4.48c.1-2.38-.57-5.11-1.45-7.11l-1.61,4.43c-.66-.53-.91-1.57-.74-2.38l1.16-5.51c-.39-1.13-1.83-2.93-2.74-3.76.94,3.5,1.93,6.99-.94,10.4l-.02-7.02-1.43,4.32c-.29.02-1.23-.05-1.24-.34l-.03-1.41c.79-2.22,1.75-4.14,1.63-6.27l-2.44,5.66c-.11.26-1.56.4-1.58.12l-.12-1.54c-.22-2.72.43-6.02-.31-9.02l-.52,5.49c-.06.62-1.27,1.67-1.73,1.4l-2.05-1.24,2.97,5.51c-3.17,2.71,3.4,4.76-.11,7.6l-4.54-5.74.48-2.24c.16-.74-3.29-1.03-4.56-3.41,1.01-.41,2.36-.41,3.69-.27l-.97-1.92c-.16-.32,1.1-.77,1.54-.89l-3.19-2.41-.23-.53-2.18-.17,3.37,3.86c-1.85.12-3.7-.14-5.41-.64-.64,2.36.41,4.67,2.42,5.5-.88,1.07-1.36,1.82-1.99,3.37s-3.17,3.2-4.35,4.19c-.45.38-1.49,2.04-1.84,1.59-1.88-2.43.99-5.69.87-9.37-1.64,1.81-.8,4.89-4.07,5.52,1.28-3.61,2.72-6.92,4.74-9.94.9-1.35,1.08-2.87.11-3.92l-3.5,6.77-.81,1.66c-.2.4-.93.27-1.9.19l.81,29.83,1.51,42.56c4.3-.53,8.24,2.05,9.17,6.51l.32,5.43c.02.42,1.34.93,1.65.65s.87-.98,1.04-1.37l2.1-4.88.9.66c.26.19.93-.29,1.35-.45,2.19-.83,3.63,1.76,4.52,3.33,4.12-.52,8.19.19,8.23,2.95,0,.28,1.04-.13.95-.16l-.47-20.02,14.77-3.48,2.15,1.81,16.23,10.9-.05,13.79,5.94,2.67-.15.9-5.49-2.06c-.77,2.42,0,4.5,1.22,5.86l1.53,36.24.81,45.49c1.75-20.95,1.77-41.69,2.12-62.75l.39-23.42c1.01,1.68,1.65,3.98,1.61,6l-.38,18.46-.8,41.94-.33,11.3,1.22-8.38,3.92-45.92,3.03-21.04c.86-11.32,1.28-22.28,4.26-33.25.43-1.58.45-2.81.18-4.53l2.85-4.4c.98-1.52.61-3.76-1.32-4.02l.56.8c.16.23.78.96.52.99l-1.75.25-2.43,4.23c-.18.32-1.41,1-1.43.66l-.07-1.61c.46-.82.32-1.3-.44-.55-.87,1.99-1.46,3.82-4.25,3.52l3.27-5.57c-.04-.08-.49-.65-.63-.56-.21.15-.86.68-1.05,1.01l-3.27,5.8-.92-3.4c-.66,1.46-.93,3.17-3.02,3.32l2.34-6.35c-.14-.11-1-.39-1.14-.16l-.67,1.12-4.29,7.22c-1.7-2.57.99-3.05,1.08-5.43l-5.34,7.18c-.24-1.65.24-2.65.71-4.97-2.86,2.21-2.4,6.29-5.48,5.61.06-1.36.34-3.23.97-4l3.34-4.08c.62-.75,2.25-2.1,2.86-2.57,1.49-.12,2.4-.34,3.89-.71,5.88-1.43,11.42-.1,14.71-1.26.97-.34-1.49-2.6-1.68-5.35l-2.11,1.22c-.46.27-1.71-.42-2.45-.8l-2.62,2.36-.64-1.69c-.4,2.88-2.73,3.81-5,4.07l-.45-3.97-6.75,4.23c-2.69-1.23-2.94.42-4.68.01-.25-.06.32-.83.54-.99l4.14-3.12,3.74-3.34c-3.97.2-5.29,3.66-8.45,5.52.12-2.34,1.81-3.71,3.67-5.37-5.33-.11-5.29,4.96-8.14,8.89l-.06-5.03-1.68,5.09c-.1.31-.83,1.35-.98,1.11-.2-.32-.52-1.04-.52-1.4l.02-2.67-1.9,5.01-2.07.88-1.48,1.58c-.36.38-2.06,0-2.54-.37.12-1.17,1.2-2.79,1.94-3.69.96-5.89,5.04-5.19,6.96-8.08l-5.58,1.15c2.46-1.75,4.92-2.23,7.84-2.92,5.01-1.18,10.1-2.49,15.19-1.45l10.38,2.11-1.99-1.53,2.5-1.1-4.35-.31,1.02-1.5-3.87,1.12c-.27-.8-.46-1.66-.78-1.63l-2,.18c-1.5.13-2.79.11-3.9-.45,1.47-1.41,2.46-1.27,4.54-1.59-.76-.28-2.59-1.01-3.4-.98l-5.26.19,1.73-2.55-5.68,1.09c.88-1.85,1.84-1.88,3.48-2.68l-6.85.67-3.35,1.38c.23-1.8.93-2.38,2.81-3.09.29-.27.21-.51-.2-.57-2.04.49-3.38.53-4.37-.97l-1.59,1.94c-.56-1.55.57-3.29,2.12-4.1l2.62-1.37-1.64,2.83c.85.09,2.55-.45,3.45-1.06,3.63-.35,7.19,1.59,10.46,2.66,2.42.79,4.54,1.53,6.59,2.87l5.43,3.56,3.94,3.57,5.56,6.16c.2.23,1.47.39,1.45.65l-.1,1.92,1.76-.95,1.78,2.62,1.17.62c.3.16.03,1.03-.03,1.43l1.86-1.06c.29,1.76.84,2.74,2.06,3.36l7.71,3.92,5.52,3.43-.42,1.69c-.09.36-1.1.09-2.04-.06l1.92,3.48-1.8.34c.18,2.19.04,4.08-.43,6.29-.87.74-2.57,1.87-3.57,2.38.77-3.45,1.22-5,.45-7.54l-1.84,4.87c-.95-1.32-.81-2.33-.72-3.56l-1.22-1.6c-.73-.96,2.82-5.03.09-7.26l-.84,4.41c-.04.23-.48.66-.64.56-.24-.15-1.02-.97-.97-1.24l1.12-6.11-2.86-2.72c-.06,2.98,2.13,5.29-.45,8.1l-.47-5.3-2.45-4.48c.65,3.26,1.15,5.29.31,7.85l-1.55-5.75c-1.68,3.61,2.37,7.5.31,11l-1.58-5.18c-2.87,11.41-3.46,22.92-4.08,34.88l-3.82,36.91-4.05,45.7,3.02-1.12c1.11-.41,2.67,7.62,7.02,8.38l3.86.68.99-1.63c.26-.43,1.65.1,2.13.34l3.55,1.76.17-2.86c.04-.58,3.2-2.69,5.71-2.86l-.34,2.87,3.72.51c.37.68.62,2.67.56,3.46l.17.49,3.96-2.98c.9,4.51,5.02,2.22,6.5,5.8l2.18-.04c.39,0,.77,1.48.44,1.72-2.36.36-6.19.13-8.35-.6l4.03-1.08-2.64-1.18c-1.75-1.14-3.66-1.83-5.76-1.07-.56,1.18-.92.62-.79-.33l-.34-.48-1.35-1.87-5.84-2.53-.65,4.32c-1.76.1-3.51-.67-5.07-1.86-.24,0-1.02,0-.66,0l.21,2.12c.04.37-.8.78-.84.58-1.13-1.41-2.72-1.63-4.4-1.62-2.75.12-4.94-1.64-6.12-3.78-2.06-.46-2.08-2.18-1.71-4.41l-3.44.79-.69,9.25c1.46,1.45,3.83,3.79,5.78,3.93l10.07.77c5.62,1.08,10.84,1.16,16.6.75l17.88-1.27c.4-.03,1.37.17,1.36-.12l-.03-1.19c-.03-1.25-1.09-3.1-2.36-3.67-1.16-.53-3.5.38-4.14,1.32l-.66.97c-.12.18-.51.09-.54-.12l-.18-1.35c-.04-.34.25-1.34.59-1.42l1.65-.4c.91-.22,2.9-.97,3.71-.58s1.99,1.45,2.93,2.37l.93,4.47c.05.23.39,1.17.38,1.18-.01,0-.71.04-1.05.07l-23.21,1.49c-3.45.22-6.81-.08-10.24-.42l-10.63-1.06c-3.53-.35-6.35-1.05-8.85-3.67l-.64,8.05c-.1,1.27,1,4.75-.06,3.7-1.57-1.56-4.54-1.46-7.3-1.38-.5.43-.93.85-1.05.62l-.5-.92,2.9-21.54c-4.15.43-2.22,5.37-3.41,5.6l-1.7.33.42-2.94c-.18-.51-.56-2.13-.07-2.32l1.9-.73-.23-45.05-1.35-36.18-1.6-1.59-.04-20.25-14.95-10.04,2.01,47.56,1.27,31.52.39,38.83.23,9.99,6.6-4.03c2.5-1.52,6.1-2.73,9-.7l-5.58.64-6.13,3.67c-3.36,2.01-6.5,2.88-9.94.74l-8.42-5.23c-1.86-1.16-3.49-1.51-5.94-1.36.37-3.54-2.77-7.03-6.09-6.16-.66,1.03-1.88,3.02-2.87,3.35-3.63,1.2-4.09-5.15-8.3-1.98-1.9-2.55-5.94-.41-5.65-1.42l.46-1.61c.21-.72.55-2.56.09-3.15s-1.98-.7-3.09-.87l-.62-3.91c-4.84-.95-9.55.24-13.12-.63.25-1.75.21-2.89-.25-4.33l-.27-.85c-.06-.17.92-.59,1.03-.45l1.7,2.26c.66.87,2.49,1.4,3.74,1.83l-1.15-30.94-1.86-43.69c-1.75,1.13-1.65,3.42-1.64,5.31l.02,1.58c0,.18-.5-.39-.66-.47l-1.03-.47,1.26,3.72-2.72-2.64s.09.64.19,1.35l.2,1.24c.04.23-.64.25-.83.12l-1-.67.28,60.31c0,.56.53,2.06.35,2.65-.52,1.68-.64,4.9.09,7-.97,3.22-4.54,3.26-4.33,4.39l.43,2.23-4.25,4.27c-.61.61-2.2,1.43-3.1,1.55l-15.25,2.1c-11.64,1.6-16.1-5.88-23.52-3.07l-3.03,2.41c-.83.66-1.02,3.07-.85,4.28l-4.65.44-14.63.81-2.12-1.63c-3.3.76-7.08,2.85-10.38,1.7l-9.56-3.35c-2.46-.86-4.41-2.94-5.45-5.15-1.98,1.18-4.23.87-6.12-1-5.8.43-11.3,2.89-16.02,6.43-3.33,2.5-6.76,3.63-10.99,2.45l-14.71-4.13c-3.52-.99-6.06-1.55-9.85-1.9l-12.24-1.13c-5.01-.46-8.2-2.45-11.53-5.98-2.36-2.5-6.6-2.86-9.84-3.69-1.64-.42-2.74-.33-4.08.31l-6.86,3.25c-4.03,1.91-8.4,2.23-12-.61l-1.05,9.13c-.17,1.45-1.45,2.87-2.65,3.49l-1.28.66c-.25.13-.99-.63-.8-.84l.87-.96,2.24-2.48,3.02-23.66,7-48.73.62-6.82c.21-2.29.39-4.36.1-6.41l-1.46,11.14-4.43,31.21-4.37,32.13c-.22,1.64-.73,3.15-2.49,4.02,1.48-6.58,1.51-13,.64-19.78-.76-5.92-.38-11.75.3-17.72.89-7.8,1.02-15.25,1.07-23.13l.15-21.83-19.44-7.02-1.25,6.59,17.98,3.35c-.58,5.16-.03,9.75.17,14.74.5,12.58-.75,24.84-1.14,37.38l-.89,28.13,2.65.64c.41,1.75.68,4.63.32,6.39-1.78,1.49-4.42.52-6.22.73-2.08.24-3.68.4-5.64-.14-.56-.15-2.26-.21-2.29.35l-.13,2.12c-.11,1.78-.18,3.84-.62,5.05-1.42-.63-2.65-1.51-3.18-1.15l-2.05,1.42.1-4.08c-3.1-.72-7.48-1.07-10.05,1.4-2.73,2.62-5.32,3.88-9.22,4.6l-6.23,2.52c-3.22,1.3-6.9.66-10.35.34l-9.15-.86c-5.99-.56-11.13-1.38-16.63-3.99l-12.33,1.51c-.39.05-1.31-.19-1.55-.34-.17-.1-.04-.5.09-1.01l13.92-1.77,6.76,2.69c-.81-13.09-.43-25.31-.04-38.41.61-20.5,1.5-40.47,3.65-60.78l-.44-2.41,35.88-4.82-2.82-20.15c-1.11-7.92-1.86-15.66-1.5-23.63.19-4.07,1.78-8.72-2.2-11.78l.42,6.61-2.94.88c-.31-.18-.77-1.74-.4-2.06l1.29-1.15.42-10.52-1.72,1.09c.3,1.39.58,2.93.43,4.51-1.56-1.7-1.39-3.26-2-5.77-1.76,3.99-1.2,7.72-2.46,9.72-.14.23-.9-1-.86-1.31l1.02-7.8-2.79,2.75.27,8.4c-2.24-1.05-1.43-2.58-1.47-4.23-.26-1.18-.75-.98-.89-.06.24,2.44.41,3.95-.16,6.47l-1.45-3.63-1.15.72c1.5,2.27,2.1,5.04.14,7.59l-.52-4.23c-.16-.07-.98.83-.91,1.19l.78,4.61,1.4,3.08-2.33-.37c-1.1-.18-.23-2.89-2.94-4.21-.42-.2-1.69-.97-1.49-1.38l.88-1.8c.12-.24.77-1.1.96-.91l1.11,1.13,1.22-3.2-4.64,1.1c.63-4.28,5.29-2.34,5.69-5.36-2.34.97-4.42,2.56-6.93.37,4.63-5.75,13.74-6.23,14.93-10.96.67-2.67,1.55-2.57,3.98-3.56,2.14-.87,3.8-4.39,5.33-6.27,1.24-1.53,1.62-2.81,2.52-4.48,1.18-2.19,3.48-4.34,5.18-6.24,4.85-5.42,10.74-8.74,18.39-9.66-1.01,1.85-2.65,2.43-4.64,3.5l-8.15,4.39c-2.77,1.49-5.14,3.64-7.08,6.17,4.78-3.13,9.11-6.37,14.54-7.63.78-1.76,2.11-2.9,3.92-3.54,1.99-.7,3.09.25,4.8.81l6.9,2.27c1.33.44,2.66.46,4.51.51-.25,1.08-2.05,1.81-3.27,1.41l-6.25-2.07c1.3,1.92,2.01,2.67,2.95,4.97l-6.87-4.99c-1.03-.75-4.06-.47-5.15.22,1.64.21,2.84.25,3.98.99l3.86,2.47c.35.23.36,1.66-.04,1.58l-1.24-.24c-3.54-1.12-6.83-2.27-10.6-2.78,2.87,1.37,5.32,1.98,8.01,4.59l-8.98-.79c-1.17-.1-2.28-2.05-3.96-.09l4.58,1.6c1.39.48,2.31.38,3.24,1.86l-7.63-1.22,3.18,2.05c-1.62,1.21-3.03,1.41-4.46.96l-5.2-1.64,3,3.88-4.77.13c.05.74.03,1.38.25,1.35l1.09-.18,9.99-1.62c5.63-.91,11.84-1.53,17.27.55l8.39,3.23c.82.32,1.21,1.98,1.15,2.83,1.92.29,4.36,2.81,4.27,4.36-.03.45-1.43,1.11-1.65.8l-1-1.4c-.29-.41-.57-1.79-1.06-1.85l-1.89-.24c2.44,3.25,5.52,5.62,5.08,10.22l-3.33-5.69-.22,2.84c-2.44-1.45-1.56-5.82-4.49-7.72.37,1.83,1.08,3.17-.34,4.43-1.61-3.29-2.25-6.45-4.48-8.33l2.2,6c.1.28-1.44.94-1.54.66l-.31-.85-1.92-4.63c.11,2.22.39,3.34-.14,4.94-2.28-4.15-3.3-8.35-8.07-9.4l4.71,4.82-.23,1.85c-.2,1.59-4.51-6.38-9.15-5.98l4.14,3.69,3.68,3.74c-.28.55-1.92.71-2.61.32-.47-.27-.68-1.11-.64-2.07-2.31-2.29-5.22-4.7-8.82-5.23l8.13,5.78-1.48,1.29-5.36-4.61-.12,3.99-3.3.32c-1.72-1.39-3.33-3.25-4.45-5.13l-.4,1.4c-.09.31-1.8-1.18-2.03-.96l-.95.94c-.22.22-.95.95-1.17.74l-1.15-1.05c-1.61.88-2.47,2.36-2.92,5.01l8.92.39,8.26,1.22c3.16.47,10.34,5.21,11.26,9.41l-3.32-2.07,3.84,7.4-.89.27-4.58-6.99.66,5.18c-2.19-1.32-1.97-2.47-2.5-4.25-.9-2.97-3.07-5.87-5.57-7.45l3.64,6.1c.18.3.28,1.2.19,1.46-.79,2.32-3.71-5.83-7.52-8.86.64,4.02,4.81,5.41,4.35,9.91l-6.49-8.93c.76,2.79.87,5-.13,7l-2.94-4.63.52,4.22c-3.62-2.69-3.01-8.71-6.08-7.95,1.07,2.58,3.49,4.06,2.67,7.03l-5.75-7.34c-.92,4.83,1.14,8.08,2.65,12.1,1.02,2.71.45,6.28.88,9.13l1.86,12.31,4.79,30.93c4.83-.24,9.59-1.23,14.13-1.07l16.25,5.71c2.64-4.04-.41-8.29.49-11.59.65-2.4.82-6.1,2.35-7.55l6.65-5.86-8.15,4.13c-.21,1.39-.68,2.51-1.59,3.81-1.66-1.48-1.85-3.29-1.12-5.19-.38-.66-.98-1.71-.78-2.24l1.01-2.6c-2.45.65-1.74,2.57-2.96,4.83-.1.19-.74-.19-.77-.41l-.18-1.39-.95,2.26-.77-2.79-.55,3.85-1.58-1.59c-.14,1.52-1.18,3.29-3.09,3.48,1.43-5.19,4.95-8.15,9.47-9.31l4.22-1.08c-1.75-1.18-2.97-.67-4.8-.29l-7,1.45c-.21-.6-.43-1.66-.37-2.15.17-1.29,6.61-3.06,10.82-1.06,1.7.81,2.78,1.21,4.9,1.6l-1.54-2.96-3.55-1.17c-.92-.18-1.96-.44-3.03-.86l-2.9.11,2.46-2.55-4.15,1.19c-1.95-.51-4.25-.62-7.09-.83,4.58-2.27,10.03-2.55,14.72-.56,2.71,1.15,5.3,2.06,8.19,1.56l-5.62-2.13-1.58-.63c-.23-.09.14-.78.31-1.09l4.9,1.5-3.01-1.98c-.27-.17-.91-.55-.74-.77l.67-.89c.11-.15.66.6.84.63l2.63.46,4.17,5.3c.51.65,1.53,1.04,2.26.75l-3.22-3.36c.34-.29,1.53-1.28,1.5-1.26-1-.52-1.92-1-2.02-1.5-.69-3.53-2.91-4.86-.98-4.81l1.11.03.04-3.87-.11-.25c-.4-.19-1.09-.51-1.1-.92l-.05-1.68.72-27.83,1.03-.98c.2-.19.6.78.64,1.02l-.53,21.46-.22,8.62.33.3ZM299.94,521.18c-3.17-.86-6.1.36-9.34,1.3,2.94.24,6,.28,9.34-1.3ZM312.63,526.56c-1.32,1.53-2.13,2.52-3.91,2.58l2.52-4.19c-1.8,1.09-2.52,2.53-3.23,4.58.87.41,2.54.67,3.31.34l4.06-1.73c-.63-.61-2.12-1.56-2.75-1.59ZM319.28,532.6l.96-3.15c-3.14.15-5.33.4-8.07,1.47,3.03.52,4.15.71,7.11,1.68ZM359.22,535.88c-2.6-2.24-5.23-.95-7.32.44l7.32-.44ZM336.94,538.98l-2.74-1.52c.77,2.35,2.73,5.23,5.38,4.48-.95-1.11-1.93-2.52-2.64-2.96ZM330.13,550.57c1.63-1.38,2.75-2.87,3.6-4.77l1.37-3.06-1.38-.36c-.3-.08-.28-.97-.41-1.34l-.96-2.85-.63,4.75-2.6,3.32,1.01,4.32ZM330.77,635.84l-.89-32.85-1.63-44.07c-.15-3.92-.06-7.58-1.03-11.53-.91,11.7-.07,22.55.07,34.11l.68,54.29,2.79.04ZM272.97,571.96l-.83-13.05-8.99.03.22,12.55,5.34-.99,4.27,1.46ZM154.19,701.16l-1.05-2.11c-.12-.23.75-.83,1-1.02l-.09-23.61c-.36-11.85-.88-23.3-.37-35.16l1.37-31.54,1.17-39.55-9-4.62v21.64s-.28,40.61-.28,40.61c-.06,8.85.82,17.19,1.08,26.05l.69,23.63.15,23.66,5.34,2.02ZM268.54,701.02l.11-15.59.74-33.78-.22-19.78c-.67-11.66.26-22.93.18-34.62l-.19-25.81c-2.58,1.33-4.53,1.73-6.6,1.12-1.49,13.39-.65,26.25-.63,39.61l.06,46.78-.18,14.97.36,26.06c1.35,1.93,4.37,2.02,6.39,1.04ZM267.58,734.01c.15-10.45-1.04-20.66,2.29-30.78.25,11.28-1.77,21.55-.46,32.78l3.77-.91.17-11.34.02-35.67,1.26-29.55c.51-12-.26-23.5-.24-35.59l.1-47.76c-.62-1-2.13-1.71-3.56-1.75-.55,7.91.02,15.01.03,22.76.01,12.01-.93,23.66-.21,35.67.46,7.72.26,14.91.09,22.62l-.68,30.93-.14,17.12-5.6.91.17,18.21,1.13,17.03c1.91-1.14,1.84-2.58,1.87-4.69ZM274.9,735.46c1.02-.12,1.93-.33,2.03-.49l-.1-21.72,1.54-35.8c.6-13.96,1.31-27.34,1.35-41.36l.11-36.24-.1-26.11-3.76.83-.03,48.9c0,12.73.71,24.8.19,37.42l-1.15,27.73.03,34.61-.12,12.23ZM293.2,625.64c-1.93,6.38-.31,12.36.5,18.32l.09,14.2c.03,5.14.87,10.01.16,14.96-1.79-8-1.77-15.52-1.71-23.37l-1.03-11.07-.55-13.67c-.06-1.38-.64-2.34-2.06-2.91-1.08-5.64-1.48-11.57-1.15-17.5l.88-15.9-.16-12.76c-2.8-.27-4.61-.98-6.79-2.67l-.17,36.02v20.52c-.02,13.33.15,26.03-.73,39.42-1.48,22.51-2.42,44.57-1.93,66.78,5.74,2.95,11.19,4.17,17.53,2.42.24-1.11.67-3.23.62-4.48l-.3-8.05-.86-25.21-.7-34.13-.29-21.38-1.36-19.54ZM400.36,593.64c-2.67-.66-7.35,3.3-8.83,5.27l8.83-5.27ZM398.47,751.38l5.45.38,1.64-25.35,3.7-40.97c1.14-12.61,3.29-24.55,3.87-37.15.64-13.82,1.67-26.89,4.91-40.83-2.55,3.32-2.64,7.27-3.65,11.18-1.79,9.13-1.62,18.17-2.95,27.43l-3.05,21.16-3.15,36.06c-.9,10.36-2.29,20.1-3.92,30.26l-2.85,17.83ZM68.31,642.17l-1.78-10.82-3.06-21.02c-.35,2.75-.17,5.27.21,7.94l3.28,24.04.75,1.14c.15.23.65-.99.6-1.28ZM199.03,618.51l21.59-.97.48-5.22c-6.41,1.19-13.52.11-19.81,2.35-3.47,1.24-6.53,4.15-9.96,5.57l7.71-1.74ZM226.54,617.68l-2.49-5.13c-.17-.36-1.59.64-1.63,1.03l-.45,4.03,4.57.06ZM377.37,624.27l-.76-8.28-13.09,2.96.2,7.33,13.65-2.01ZM115.44,621.06c.78-.24,1.13-.64.02-.85-.97-.86-1.99-1.79-2.76-1.9s-2.38.6-3.14.93l-3.41,1.4,4.57.06c.3.59,1.43,2.08,2.04,1.76l2.68-1.4ZM318.15,720.25l-.34-26.94.35-40.23-1.66.2c-.29.04-.4-.9-.21-1.12l.65-.78c.2-.24.48-1.01.59-1.35.38-1.26-1.64,1.09-1.44,1.3l-1.04-1.09-.52,1.06c-.11.22-.86.4-.97.25l-.19-3.09c3.64-3.13,7.55-4.3,12.42-3.94l-.09-3.08c-2.14,2.65-4.54.82-7.23,2.89-.09-.18-.99-1.55-1.26-1.24l-1.19,1.43-.79-1.5-2.39,2.44-.21,4.69c-1.43-.71-1.57-1.94-1.59-3.57l-.41-27.63-10.74-.06c1.79.73,3.49,1.46,4.46,2.34l.3,19.61.17,37.75.47,13.18.03,41.17,5.69,4.19-.74-18.92,2.04-1.02.13-32.2-.39-26.33c-.03-2.09-.13-4.31,1.37-5.95l.51,26.41.18,39.09c-1.75.49-2.04,1.38-1.96,2.9l.66,12.66,2.4-3.01-.87-2.12c1.21-.84,2.48-1.44,3.81-1.58l-.03-6.84ZM203.91,625.79c6.54-1.29,12.97-1.16,19.46-1.48l.05-5.11c-8.07.32-16.1-.33-24.03.97-6.04.99-11.42,3.39-17.41,4.91-.3,1.91-.29,3.54.13,5.01l21.81-4.3ZM135.8,626.3c-.32-.46-1.05-1.44-1.49-1.82l-5.05-4.37c-.09.46-.28,1.66-.72,1.73l-1.73.31c-.48.09-1.18.09-1.32-.25l-.71-1.68-.35,2.25c-.16,1.04,5.47.41,10.92,4.19l.45-.35ZM298.07,731.08l.93-5.78.08-17.27.02-27.85c.01-15.7-.29-30.88-1.32-46.48l-.12-13.34-5.21-.15-.16,3.71c.95-.49,2.85.07,2.9,1.11l1,20.54-.38,9.98c.94,14.64,1.21,28.85,1.12,43.53l.96,13.13.17,18.86ZM303.78,733.96l.05-34.85-.52-19.98-.17-36.18-.41-20.06c-.02-1.07-2.5-2.18-3.51-2.06l.86,24.72.67,18.4-.03,40.91-.28,28.91,3.37.19ZM317.81,638.76l.94-10.55-6.17-6.64.1,19.24c1.68-1.14,2.85-1.65,5.13-2.05ZM105.7,698.78l2.74-21.26c1.34-10.39,3.54-20.35,3.65-30.91.02-1.76,0-3.76,1.59-4.67,3.87-2.21-.86-5.89,3.23-8.62l.05,4.42c.02,1.76-.63,3.86-1.37,5.38-.18,10.36-.71,20.25-2.18,30.61l-8,56.45,3.4,1.07c2.66.84,5.22.29,7.68-.9l6.09-2.95-.24-19.41-.36-22.04c-.28-17.12-.95-33.76-.15-50.88.1-2.25.46-5.1-.3-6.96l-1.49-3.65c-.89.19-1.91.39-2.19-.06l-1.47-2.31c-1,1.33-1.72,3.38-2.01,5.04.68.27,1.44.58,1.28.77l-.83,1.01-2.24,3.49,2.27,1.47-3.85.42.83-1.47c.09-.16.11-.5-.06-.47l-1.22.22c-.36.06-1.37.29-1.42-.07-.04-.27-.02-1.15.07-1.5l1.66-5.92c-4.67,1.95-3.46,4.25-4.67,6.35-.35.61-1.77.96-2.83.68-.9,3.32-.86,6.75.04,10.76l7.78-1.96c-.15.7-1.31,1.99-2.08,2.17l-5.47,1.28-1.43,3.88,2.34,1.16-.38,22.41c-.15,8.71-.16,17.08-1.15,25.7-.71,6.17-.69,12.1.34,18l2.34-16.72ZM135.81,626.97c4.2,5.47,2.06,8.17,1.22,6.04l-.53-1.33-1.03,2.46-4.33-4.58c.38,3.01,4.73,5.51,2.33,9.19l-1.75-5c-.11,2.94.41,5.24-2.1,7.07-3.04-2.64,1.59-8.84-2.82-12.13.65,2.16,2.41,4.17.7,5.97l-1.13-2.93c-1.1.05-1.84-.62-2.51-1.97-1.41,17.09-.8,34.05-.48,51.5l.83,45.6c2.62-.47,4.95-.15,7.41.39,8.95,2,9.12,6.6,14.74,8.36l.35-13.72c-1.59-1.25-2.65-3.45-1.52-5.46l2.83-5.05-1.06-1.21c-.2-.23-1.19,2.75-1.52,2.1l-.59-1.18c-.18-.37-.57-1.13-.53-1.06-.27,1.06-.42,2.3-.89,2.7-.39.33-1.48.71-2.08.96l-1.64,3.09c-1.12-4.96,2.79-8.83,7.55-10.01l.34-4.76c-2.29,1.36-3.84.9-5.67-.04l-.78.9c-.96,1.12-2.8-2.74,6.07-3.93l-.06-23.48-.65-23.13-1.3-24.2-4.31-2.28c-.13-.27-.74-1.52-.64-1.3s-.83,1.05-1.05.95l-3.38-1.43.25,2.58-.27.29ZM355.25,650.01l.71,6.68c-1.57-.47-2.04-.86-2.68-1.86l-2.76-4.29c-.43-.67-.86-2.6-1.25-2.99-.71.54-1.31,1.25-1.63,1.1l-1.45-.67c-.26-.12-1.31.3-1.33.01l-.1-1.56c-.92.74-1.22,2.95-.54,3.41l2.89,1.14,3.76,1.1c-2.2,2.65-3.88.12-5.24-.37l-4.93-1.81c-.79,4.75,4.01,4.18,4.34,10.14l1.82,33.28,1.43,20.54c5.06.68,11.05.04,15.2-2.03.4-.2,1.21-1.54,1.36-1.22l.71,1.5c2.14.11,4.97-.92,7.19,1.12l-7.93.41,1.32,24.55,7.57,4.5-1.39-27.36c.35-.27,1.25-.64,1.33-.34l.28.99,1.68,27.73c1.78,1.53,4.04,2.46,5.59,2.3l-.28-22.26-1.49-44.56-.43-12.14-1.58-41.06-13.64,1.93.44,11.68c3.41,3.27,2.25,6.28,1.38,5.66l-1.17-.83.4,33.17.29,31.35c-.2.26-1.08.98-1.16.68l-.27-1.1-.59-40.89-.38-16.15c-.68,1.38-.59,3.04-.62,4.59l-2.63-2.88-.76-3.41c-.17.21-1.11,1.08-1.53.87l-1.69-.84-.22.19ZM336.36,629.19c.12-.53-.38-2.28-1.03-2.46-.55-.15-1.93-.1-2.69.06-.55.11-.24,1.94,0,2.54.68-.42,1.15-.87,1.54-.76l2.19.61ZM336.13,636.48l-2.79-4.42,2.66-.96-3.53-.28.18,5.55,4.73,1.29c.43.12,1.45.73,1.62.36.13-.28.49-1.08.47-1.05l-3.34-.49ZM331.6,705.65v-29.16s-.71-39.19-.71-39.19c-.59-.6-1.92-.79-3.09-.66l.3,20.43,1.26,34.69,1.48,29.82c1.81-5.45.76-10.43.76-15.92ZM326.1,639.47c-1.98-2.77-4.57-2.52-7.01-1.13,1.19.5,2.4.66,3.67.68l3.33.45ZM357.64,640.1l-1.54,2.96-3.25-2.64-.71,1.86c-1.09-1.9-1.21-2.73-3.13-3.98.37,1.42,1.06,2.33,1.89,3.4-.13.22-.96.96-1.15.73l-.91-1.05c-2.45-2.82-4.45-2.87-4-1.92l.54,1.14c.37.77.81,1.82,1.19,2.3s1.81.17,2.57.23l4.35.36c4.17.34,7,2.22,9.12,5.95l-.19-8.1-1.82.8c-.26.11-.8-.44-.95-.56l-1.1.99c-.23.21-.66-.7-.7-1.01l-.2-1.48ZM342.22,648.7l.1-5.58-3.62-.97-3.06-3.23.6,3.83,2.71,2.7,3.26,3.24ZM208.17,660.94c4.77.2,9.27-1.15,14.2.34-5.48,1.51-10.7,1.56-15.99,1.28-7.32-.39-14.31.5-21.61,1.1l-6.66.55.3,2.78,8.81-.9c5.95-.61,11.78-.91,17.8-.55l15.34.28,1.15.23c.19.04.13.41.11,1.14l-16.08.09c-7.29-.46-14.24.52-21.51.87l-5.86.28.13,2.9c8.17-1.39,15.82-1.81,24.05-.89,3.28.37,6.67-.05,9.97-.14l11.22-.32c.43-2.05.5-4.67.42-7.07l-.12-3.72-.02-16.21-12.49-.14c-8.82-.1-17.19.4-25.79,2.14l-6.51.58.86,3.1c11.33-1.78,22.1-3.18,33.52-3.2,3,0,6.18-.34,8.91,1.64-14.36,0-27.99.44-41.89,3.35-.57-.26-2.32-.48-2.3.02l.09,1.64c.02.37,1.21.56,1.58.51l13.9-1.97c9.01-1.28,17.93-.43,27.08.04.85.04,1.85.65,2.18,1.53-10.87-.12-21.62-1.17-32.47.48l-12.47,1.89.05,2.86c10.56-1.88,20.22-2.2,30.65-1.76l11.09.47c.68.03,1.64.71,2.02,1.44l-8.96-.03c-8.25-.03-16.42-1.04-24.59.12l-10.39,1.47.65,3.58,13.2-1.56c5.4-.64,10.93-.43,16.45-.19ZM80.71,650.03l.74-6.25-10.6,1.31.8,4.99,9.06-.05ZM85.66,746.09l-2.57-13.29c-2.67-11.55-4.81-22.9-6.29-34.69l-2.12-16.83-5.38-35.59c.04-.32-1.45-1.18-1.5-.74l-.17,1.46c1.72,8.46,2.81,16.7,3.6,25.32l1.87,13.73,4.43,28.82,4.89,31.56c1.4-.05,1.79.02,3.23.25ZM355.34,649.42l-.79-2.08c-1.03-.07-1.64-.1-1.91-.49l-1.26-1.86c-.19,2.37.85,4.31,3.47,4.88l.5-.45ZM46.74,699.6c1.77.68,3.65.99,5.68.85l20.79-1.35-.56-4.17-23.12,1.91c-1.83.15-4.26-.57-4.67-2.49,1.98.4,4.05,1,5.84.85l21.63-1.86-.57-4.94-19.04,1.81c-2.27.22-4.66-.55-6.31-1.74,1.37-2.42,2.91.32,3.73.25l21.58-1.91-.63-4.73-19.93,1.76c-1.5.13-3.18.11-3.66-1.58l3.05-.11,20.16-1.71-.36-4.23-15.54,1.35c-2.28.2-4.57-.35-6.49-1.41l6.52-.26,15.19-1.3-.55-4.45-14.22,1.04c-1.99.15-7-.86-7.93-2.33-1.16-1.81,4.65,1.05,8.44.75l13.46-1.06-.45-4.42-17.18,1.15c-1.02.07-3.26-.58-3.86-.9.5-2.39,2.11-.67,2.76-.71l18.11-1.14-.55-4.77-17.92,1.36c-.47.04-1.82-.33-2.24-.53-.34-.16-.14-1.1.04-1.48l4.07.27,15.6-1.24-.62-3.92-15.93,1.59c-1.11.11-2.26-.07-3.23-1.01l18.85-2.2-.84-5.26-18.9,2.24-15.14,2.15c-2.41,21.25-3.29,41.8-3.88,63.01-.33,11.65-.66,22.71-.12,34.21.12,2.46,1.53,4.04,4.01,4.19l10.44.64c4,.25,8.81,1.72,12.69.28l12.17-4.49-17.52,1.87c-2.21.23-5.17-.06-5.56-2.6,2.82.93,4.94,1.22,7.44.93l17.81-2.06c3.33-2.32,6.63-3.3,11.11-2.38-.07-1.23-.31-2.54-.88-3.77l-26.23,2.24c-3.65.31-7.16.49-10.39-.61,1.76-2.5,3.61-.45,5.12-.59l31.73-2.87-.72-5.22-31,2.86c-1.17.11-2.5-.13-3.23-1.02.97-.34,2.16-.57,3.23-.67l30.71-2.8-.83-5.14c-9.89.13-19.07,1.26-28.78,2.92-1.77.3-4.02.12-4.64-1.71.24-.77,2.03-.4,2.8.42,10.03-1.72,20.1-3.1,30.3-3.28l-.79-4.58-25.09,1.39c-2.25.12-5.21.07-6.09-2.71l3.96,1.14,26.92-1.44-.93-5-24.4,1.68c-1.93.13-4.23-.18-5.15-1.52.18-.48,1.22-1.42,1.57-1.17l1.57,1.17,25.99-1.7-.63-4.86-26.51,2.32c-1.15.1-2.31-.29-2.4-1.48l28.49-2.46-.56-4.11-21.37,1.39c-7.02.46-7.21-3.24-6.32-2.9l.89.34ZM345.5,731.9l-.87-12.87c-4.97.45-6.59,5.94-10.05,1.58l4.21-.56c1.34-1.79,3.02-2.61,5.81-2.35.3-9.67.05-19.1-1.24-28.8-1.45-10.91-1.32-21.81-1.69-32.67-2.03-1.07-3.42-5.23-1.72-7.19l-2.6-3.38c-.16-.21-1.23.37-1.06.58l.66.86c.24.31.4,1.29.46,1.77.04.38-1.2-.07-1.35-.14l-2.63,3.25-.03-3.88-.68.03-.13,5.85.95,37.24-.18,27.35c0,1.15.46,3.17,1.35,3.45,2.1.67,2.57,2.15,3.75,3.51,1.54,1.77,4.1,2.76,2.75,6.53l4.28-.17ZM79.3,655.11l.62-3.52-8.02.1.66,4.29,6.74-.87ZM81.79,658.06c.02-.22.49-.9.63-1.05s.88.47.88.68l.06,3.62,14.8.32.25-6.99-16.6-2.95-.73,3.32c5.72,0,11.05-1.71,16.71.6l-24.95,1.85.6,4.55,8.12-.55.24-3.4ZM74.56,667.96l7.65-.76-.19-4.19-8.32.69.85,4.25ZM97.03,687.86l-12.79-.17-.08,5.07c4.8.48,9.37-1.11,13.88,1.96l-14.23-.36-.02,4.62c4.45.27,8.75-1.56,13.29.88l-13.26.8-.06,3.73,13.66,1.1.74-11.82.2-5.68c.29-8.26.86-16.06-.06-24.69l-14.74-.3.26,3.99,12.16-.46c.37-.01,1.57.69,1.35.86s-.93.67-1.35.69l-11.85.58.26,4.33c5.09.39,9.07-1.54,13.7,1.16l-13.36.65-.3,4.87,12.42,1.19.11,1.2-12.83-.56.04,4.49,11.45.24c.39,0,1.18.2,1.47.31s.06,1.32-.09,1.33ZM82.48,668.75l-7.87.74.43,4.58,7.87-.74-.43-4.58ZM222.91,675.42c.14-1.28.08-2.66-.3-3.97l-13.9.81c-4.73.28-9.42-.52-14.18-.63-5.54-.13-10.67.68-16.23,1.22l.04,3.76c9.02-1.09,17.6-.49,26.69-.72l17.88-.47ZM82.92,679.81l.15-4.87-7.62.78.67,4.42,6.81-.33ZM205.29,681.56l17.68.12v-4.59s-17.41.44-17.41.44c-9.28.24-17.97-.36-27.25.67l.21,3.28c9.33-1.3,17.51-.6,26.78.08ZM82.73,686.03l-.21-4.59-6.17.46.71,4.74,5.67-.62ZM178.28,691.82l6.71.07,4.97,1.12,30.33.37,2.75.32-.05-10.39-17.99-.12c-9.08-.71-17.59-1.18-26.74-.13l.02,4.1,15.22.12,25.21.43c-1.61,1.59-3.79,1.56-5.81,1.54l-20.99-.27-13.69-.09.06,2.92ZM82.65,692.84v-4.97s-5.53.35-5.53.35l.77,5,4.76-.38ZM162.55,699.27l-1.64-1c-.15-.09.31-.5.47-.59l.66-.37-2.86-1.62,2.52-1.34c-1.95-.41-3.16-.84-4.6-1.71l2.47-.75-3.94-.17.15,7.2c1.59.86,3.46,1.78,4.53,2.73l3.29,2.91-.42-2.67,2.1-.44-4.67-.67,1.94-1.53ZM78.62,699.21l3.62-.11v-4.55s-4.28.26-4.28.26l.67,4.39ZM189.02,699.01c8.66-.54,16.61-.43,24.93,0l9.31.49-.37-4.53-33.86-.21c-2.16,2.53-5.59.19-9.35,1.74l3.51,1.45c1.57.65,3.6,1.2,5.84,1.06ZM244.92,699.97l6.92,1.47-.05-1.09-12.1-4.71-.54,3.34,5.77.99ZM176.38,703.26l6.6,2.69c.64.26,2.55-.54,2.51-1.11-1.89-4.66-6.69-.55-9.56-3.18l-.57-1.53c-.07-.2-.79.34-.75.38l.41,1.51c.28,1.06-2.87-.75-5.01.66-1,.66-1.66,2.11-1.54,3.52.29.94,2.32,1.93,3.58,2.01l-.88-1.19c-.15-.21.06-.64.28-.76l.89-.52-.95-2.04,5-.45ZM189.55,705.29l21.25.51,12.48.29-.03-4.98-27.05-.74-10.9.27,3.42.89c.06.02-.07.98-.36,1.1l-1.6.68.69,1.64c.15.35,1.36.32,2.1.33ZM264.31,741.27l-1.25-19.57-.14-18.51c-.88-1.52-2.92-2.86-4.8-3.16l.09,27.43.53,15.7c2,.81,4.37.29,5.57-1.9ZM82.34,704.55l-.1-3.85-3.38.04.37,3.91,3.11-.11ZM244.2,728.71l4.59,1.66c-2.32,2.02-4.27-.65-6.29-.87l-9.96-1.1.1,3,5.82-.09c.68-.01,2.02,1.25,2.25,1.73l-8-.17.14,2.97,8.97.06c2.2.02,4.6.86,6.01,2.67l-5.96-1.03-9.15-.23.11,3.08c4.88.47,9.31.66,13.64,2.35,1.02.4,2.06,1.1,3.22.99l.67-17.88.35-20.94-10.09-4.15-7.88.58-.27,3.62,6.25-.06c.58,0,1.72.91,2.07,1.52l-7.86.25c-.28.14-.42,1.76-.2,1.83,2.9.21,5.92-1.81,8.6,1.14l-8.83.59-.04,3.13,6.73.55c1.04.09,2.45,1.01,3.22,1.98l-9.84-.91-.1,2.68c5.04.53,14.07-.46,12.56.6-2.72,1.92-7.95,1.17-12.38,1.04l-.28,3.44,11.6.48c.83.03,2.09.8,2.61,1.65l-13.75-.41c-.39.03-.65,1.63-.26,1.98,1.05.93,4.9-.16,11.62,2.26ZM153.82,705.21c.28-.05.91-.97.65-.97l-1.28-.04c-1.48-.04-2.45.02-3.77-1.34l-.42,3.23,4.82-.87ZM166.97,710.17c.85.27,1.92.57,1.78.33-1.26-2.1-3.26-2.11-3.9-4,.74-.82,1.48-1.59,1.13-1.71l-1.6-.55c-.35-.12-.03,1.32.03,1.8-.86.71-3.36.56-4.24-.24-.22-.2-.41-1.26-.69-1.24l-1.41.1c-.37.03-1.07-1.05-1.23-.73l-.7,1.43c-.16.32,1.3.65,1.67.85,4.04,2.22,7.15,1.1,7.05,2.24l-.17,1.86c-.09,1.03.37,2.19,1.22,2.74l1.07-2.88ZM82.35,708.69c.03-.55.03-2.33-.47-2.3l-2.29.15.93,4.06c.09.4,1.69.66,1.72.25l.12-2.16ZM97.16,711.06l.09-4.08-13.5-.82.1,4.56,13.31.34ZM223.27,707.54l-9.86.02-11-.42-18.38-.25,1.82,3.21,20.24,1.19,17.22.35-.04-4.1ZM257.18,743.34l-.82-33.73c-.02-.7-.36-2.31-1.01-2.39l-3.06-.41-.36,19.12-.51,17.79,5.76-.38ZM153.67,722.78c.38-3.81,1.53-7.34-1.02-11.16l-1.61,3.4c-.23-1.31-.23-2.94.21-4.52l3.15-2.72c-5.59.78-3.44,6.94-5.74,8.5l-.65,19.65,4.26.59,1.38-13.74ZM96.9,716.89v-4.31s-13.09-.27-13.09-.27l-.16,4.95,13.25-.37ZM167.29,737.37l-2.14-15.66c-.25-1.81-.63-3.26-1.66-5.09l.08,5.1-1.42-.71-.1-3.43.3-5.44c-2.07,1.84-3.19,3.78-4.17,5.58-.99.05-2.15.62-3.01,1.44l1.5,1.51c-.82,5.23-1.1,10.82-.96,15.98,4.41-1.02,6.9,1.66,11.6.74ZM175.22,718.22c-.06-2.44-1.2-4.58-2.5-6.08-1.29,2.24-.36,3.24,1.15,5.88l-4.14-.94-1.36-5.25-3.47,3.89c.96,2.26,1.7,4.14,1.98,6.25l2.17,16.18,6.73,2.44-.57-22.37ZM206.16,712.93l-22.55-.89.17,2.63c-1.66-1.61-2.39-2.21-4.02-2.25l-1.98-.04,1.64,4.6,25.07.08,18.42.49.18-4.34-16.92-.28ZM353.42,731.39l-.16-14.4.99.25.73,13.64c4.18.9,6.95,2.94,9.27,6.93l-1.06-23.91c-3.84,1.19-7.38,1.97-11.25,1.66-1.08-.09-2.43.03-3.03.64-.46.47-.48,2-.43,2.8l.78,12.63,4.16-.23ZM347.13,728.97c.45-3.94.29-7.5-.64-11.52l.13,6.9.5,4.62ZM96.66,724v-5.53s-13.34.48-13.34.48l-.1,4.81,13.44.24ZM222.9,723.15l.03-4.1-14.98-.27-30.71-.17-.03,2.64,22.08.28,23.6,1.61ZM223.18,728.48l-.16-3.76-27.94-1.79-17.98-.05-.07,3.68,8.58-.21c5.23-.13,10.05.16,15.26.54l22.31,1.6ZM96.67,729.8l-.03-4.29-13.38-.09,1,5.09,12.41-.71ZM222.97,733.53l-.09-3.27-28.37-2.36-17.63.21.28,3.5,25.24,1.1,10.58,1.5c3.19.45,5.14-1.36,9.98-.68ZM96.68,736.47l-.22-5.16-11.8.93,1.14,4.96,10.88-.74ZM201.62,738.03l7.34-3.07-31.78-1.7.25,3.85,24.19.92ZM307.66,737.09c-1.18-1.4-2.12-1.76-3.03-1.69-2.43.79-3.69.54-6.17-.6l-.37,3.68,9.58-1.38ZM97.25,738.09l-8.39.59c2.46,1.92,6.08,2.28,8.39-.59ZM198.79,739.55l-21.87-.85c1.14,3.11,3.89,3.07,6.35,3.16,5.72,3.52,10.21,2.11,15.51-2.32ZM241.29,742.95l-9.01-.84c.43,3.08,5.86,2.29,9.01.84Z"/>
    <path class="cls-2" d="M443.91,603.11l-.22,3.16c3.77,1.6,7.07,3.56,8.82,7.51-3.07-1.46-4.81-4.12-8.15-4.3l8.07,5.81c.3.22.85,1.05.99,1.31.19.35-.92.58-2.04.73l3.73,4.98c.26.34.79,1.59.54,1.94l-1.05,1.44c.83,1.2,1.42,2.4,1.48,4.33l-1.89-2.31-.37.3,1.32,2.18.53.87c.17.29-.66,1.3-.89,1.06l-1.16-1.25-1.93,3.1-1-3.5c1.15-2.21,1.77-4.06,1.65-6.07-1.41,2.16-1.56,3.89-4.05,4.99l2.81-6.77c.48-1.16.06-3.36-.69-4.47l-2.24,5.63c-.06.16-.67.77-.8.67l-.8-.64c.88-2.57,1.73-5.08,2.04-7.97l-3.06,3.74c-1.45-2.03,1.58-3.98.95-6.18-.17-.6-1.28-1.46-1.84-1.72.29,2.34.9,3.4-.41,5.46l-2.13-8.45c-.52,1.44-.96,2.47-1.88,3.09-.19-2.72-.2-4.08-1.32-5.99.16-.19.71-.72.57-.91l-.8-1.12c-.18-.26-.71.34-1.1.72l-6.07-2.25c-1.77.43-4.08.69-5.25-1.02l-2.92-4.28-1.36.39c-1.48.43,1.43-2.93.45-5.67l1.91.42c.89.2,5.39-7.62,13.68-5.88l-3.64,1.42c2.14,1.66,2.99-.17,4.54-1.34,2.36-1.78,6.94-2.69,9.73-1.61l3.09,1.19c2.7,1.04,4.85,3.45,5.1,6.16-2.3,2.25-5.24-.35-6.95-4.42l-.7-1.68c-.17-.4-1.52-.26-2.17-.13l2.06,2.71c.96,1.26,1.97,2.43,1.66,3.74l-4.27-2.94c.74,1.72,1.75,2.4,3.19,3.58.16.18-1.28.64-1.65.34l-2.58-2.03-.88.74c-.51.43-2.37-1.4-2.39-1.04l-.08,1.32c-.05.76-.45,2.26-1.07,2.58-2.27,1.18-4.77-2.75-8.41-2.55l3.64,3.26-5.9,2.38c-1.86-1.73-2.93-4.42-1.75-6.71l4.1,2.14-1.79-4.51-4.22,4.06c.75,1.29,1.6,3.75.69,4.34l-2.06,1.35,1.54.11c.34.03.51.89.73,1.65l5.44-1.06,10.81-2c.19-.04,1.24,0,1.24.01l.15.95c3.91.07,7.63.64,11.35,2.14.33,3.19-.12,5.43-1.75,8.37-1.28-2.78-1.18-4.85-1.21-7.93-1.89,1.96-.82,3.91-2.54,5.08-.35.24-1.2-.95-1.24-1.43l-.4-4.69-.87,6.42-.16,1.18c-.03.25-1.27-.28-1.32-.48l.4-7.05-.74-.24-.25,2.83c-.02.22-.25,1.03-.45,1l-2.14-.29ZM446.65,588.22c-.21-.67-.75-1.79-1.23-2.12-1.27-.87-6.39.55-5.69,3.32,2.17-1.99,4.32-2.99,6.92-1.2ZM439.39,593.8l.2-.75-6.88-4.96-.27,1.08,6.95,4.63Z"/>
    <path class="cls-2" d="M22.83,590.57l4.22-2.65-1.14-.6c-.27-.14.4-.85.68-.98l8.33-3.86-1.01-6.83c-1.23,2.72-.09,4.56-.34,7.19-1.77-1.17-1.84-2.92-2.1-4.69l-.24-1.65c-.05-.34-1.31-.3-1.37-.2l.72,6.8c-.2.13-1.12.54-1.16.35l-.35-1.37-1.54-4.28-.5-1.38c-.14-.39-1.53.05-1.62.29,1.56,2.11,2.88,5.03.55,7.17l-1.7-7.24c-.61.13-1.42.31-1.4.31,1,.15,2.7,5.55,1.56,7.5-.15.26-1.16.35-1.25.06l-.43-1.45c-.61-2.04-.03-4.72-2.77-5.62.91,2.67,1.8,4.48.77,7.16l-2.49-6.23.89,8.11-1.93-1.07c-.32-.18-1.26.23-1.63.32l-1.11-2.83.29,3.88c.03.41-.06,1.21-.12,1.56s-1.48-.07-1.57-.42l-.93-3.78-1.71,7.17c-.87-1.95-.76-3.19-.87-5.25l-2,4.52c-.64,1.44.1,3.72-1.84,4.95-1.25-10.74,8.76-19.13,19.11-20.9,6.1-1.04,19.88.29,26.02,3.74l-7.52,1.32-2.74.68c-.39.1-1.49.97-1.71.63l-1.24-1.86c-.55,1.25-.81,2.15-.87,3.81l-1.84,1.84-.89,5.33-1.4-2.24c-3.46,2.75-1.62,8.9-3.44,6.19l-.84-1.25c-.18-.27-.79,1.04-.73,1.38l.98,5.47-3.03-3.23c-.48,3.65,2.39,5.92,1.76,8.71-.07.32-1.09-.51-1.22-.82l-2.05-4.7c-1.68,3.94,2,7.47,1.31,10.98l-3.04-5.18c-.28,2.52.41,5.18,1.31,8.23-.45.06-1.27-.03-1.49.22l-1.41,1.54-.63-4.39-1.38.32c-.29.07-.12-1.25.11-1.49.84-.89.19-3.06.41-4.05l.88-3.97c.37-1.67,1.71-2.46-.16-4.43,1.06-1.32,2.75-2.8,4.23-4.01l2.9-2.37c-1.62.12-2.21.32-4.27-.46Z"/>
    <path class="cls-2" d="M53.8,563.31c-1.11-4.38-5.18-4.98-4.09-5.66l1.93-1.2-2.11-1.48c-.45-.31,0-1.69.14-2.37-2.39-.11-4.24-.18-5.71-1.94l4.27-1.13,4.9-1.03c-1.37-1.81-3.74-1.82-5.02-.4-1.66,1.83-5.54.68-7.63-.46l-7.15-3.89c.94-1.41,2.08-1.48,3.39-1.44l8.33.24c-2.35-.63-3.97-.82-5.59-1.8,1.71-.17,4.05-.48,5.19-.07l5.43,1.95c2.58.93,4.47,2.76,6.43,4.63,5.39,5.12,7.73,12.13,3.64,18.76l-3.33-.37.98-1.18c.14-.17.14-.37-.07-.36l-1.33.1.56,4.89c.03.25-.68,1.11-.83,1.31s-.74-.79-.81-1.06l-1.53-6.06ZM48.64,545.26c-1.03-.37-1.39-.52-1.23-.63l1.25-.82-5.08-.35-6.74.56c3.6,1.76,7.53,1.4,11.92,1.67,1.07-.07.76-.37-.12-.43ZM58.49,554.74l-4.95.86,7.09,1.88-2.6-6.43c-2.47,1.4-3.99,1.43-6.53,1.94,1.98.97,3.85.45,5.94-.29l1.05,2.05ZM60.25,561.65c-1.76-2.99-4.49-4.21-7.43-3.57l2.93,1.33c.55.25-.15,1.97-.53,2.96l5.03-.72Z"/>
    <path class="cls-2" d="M425.91,583.83c-1.59-1.1-2.48-1.73-4.15-2.09l1.58,1.57-3.37.43c-1.32.8-2.14,1.13-3.79,1.67.19.43.96,1.6,1.57,1.76.79.21,2.4.02,3.04-.17l-.44-2.55,5.37-.49c-2.85,2.85-4.16,7.12-4.8,10.85-.69-.13-2.13-.75-2.53-1.2s.45-1.68,1.03-2.27c-1.43-.02-2.22-.6-2.94-1.7-2.55-3.9-2.4-7.43-.47-11.39s4.5-7.38,9.01-9.13l8.52-3.31c.31-.12,1.65,1.09,1.37,1.28l-1.34.89-5.3,3.49,3.62-.79,4.41.11c.08.36-.9,1.37-1.66,1.93-4.64,3.38-7.88.38-9.63,2.14l5.9,1.12c-1.44,1.41-2.26,1.32-3.65,1.2l-4.33-.37,3.23,1.39.3,4.17c.33.12-.12,1.23-.54,1.45Z"/>
    <path class="cls-2" d="M45.01,572.89l1.15-4.48-5.66,3.51c-.38.23-1.21.56-1.62.64s-.93-1.18-.81-1.49l7.98-4.41.58,1.38c.21.5,1.22-.81,1.2-1.05-.11-1.01-2.1-2.32-3.28-2.27l-10.66,7.76c-.9-2.61-.07-4.02.35-6.33l-2.95,2.85.83-4.39c-1.87,1.96-3.77,3.94-6.17,5.15-.89-2.56,1.21-5.91,3.47-6.14l6.22-.62-2.6-.99c6.68-2.22,15.2.8,20.12,7.03l1.17,1.36c.35.4-.51,1.97-.99,1.94l-3.95-5.14-2.13,3.41.52.46,1.72-2.33.29,4.13,2.66-.68-2.59,3.3c-.14.11-1.09.09-1.07-.19l.11-1.81-.07-1.55c-.05-1.22-4.22,4.92-7.34,1.33-.23-.4.4-1.51.88-1.54l1.91-.15c-.67,1.52-.26,1.6.73,1.31ZM35.29,569.64l3.85-2.89-3.15-3.18.16,2.38-.85,3.68Z"/>
    <path class="cls-2" d="M465.91,613.39c-2.08-.65-1.85-1.97-2.1-3.62l-1.23.95c-.25.19-.65-.98-.96-1.03l-2.28-.37c.08-2.06.47-4.47-.25-6.09-1.26-2.85-3.93-4.03-5.66-6.69l8.94,6.48c4.33,3.14,8.15,8.41,7.47,14.27-2.06-3.34-2.48-6.88-4.67-9.62l.75,5.73Z"/>
    <path class="cls-2" d="M289.35,536.97c-3.73,3.22-6.3,6.71-9.6,10.53l-1.21-3.22c1.91-2.61,3.72-5.87,6.76-6.93l6.09-2.13c.26,1.88-.47,3.41-1.71,4.98s-.38,3.91-3.17,4.76l2.83-7.99Z"/>
    <path class="cls-2" d="M20.51,567.89l-5.46,3.96c-.3-2.28,1.75-2.32,2.61-3.42.45-.92.75-2.94,1.45-3.6.89-.83,2.71-1.39,4.3-1.49l1.65-2.34,2.45,2.49-4.56,4.45-.93.91c-.2.19-1.03-.57-1.51-.97Z"/>
    <path class="cls-2" d="M368.98,509.63l-7.21,1.08c-.2.03-1.03-.45-1.2-.56-.25-.17.23-1.28.55-1.3l7.42-.47.45,1.25Z"/>
    <path class="cls-2" d="M281.32,569.76c.06.42-1.53.98-1.58.65-.26-.98-.87-2.7-1.33-3.42l-2.11-3.31c2.94.42,4.73,3.93,5.02,6.08Z"/>
    <path class="cls-2" d="M260.73,561.76c0,.06-3.6,1.73-5.52.74,1.73-1.35,3.42-1.76,5.34-2.1l.17,1.36Z"/>
  </g>
</svg>