<?xml version="1.0" encoding="UTF-8"?>
<svg id="Layer_1" data-name="Layer 1" xmlns="http://www.w3.org/2000/svg" viewBox="0 0 471.92 768">
  <defs>
    <style>
      .cls-1 {
        fill: #f6f7e9;
      }

      .cls-2 {
        fill: #ff1516;
      }
    </style>
  </defs>
  <path class="cls-1" d="M170.4,234.52h-7.91v33.13c0,1.88.72,3.21,2.49,3.76v.66h-10.51v-.66c1.77-.5,2.49-1.83,2.49-3.76v-33.13h-7.91c-4.2,0-5.59,1.44-7.19,7.69h-.17l1.38-8.85h33.3l1.38,8.85h-.17c-1.6-6.25-2.99-7.69-7.19-7.69ZM186.66,237.95v18.42c0,9.57,3.65,14.55,10.57,14.55s10.01-3.82,10.01-11.06v-22.13c0-1.88-.72-3.21-2.49-3.71v-.66h6.08v.66c-1.77.5-2.49,1.83-2.49,3.76v22.07c0,8.08-3.93,12.22-11.56,12.22-10.29,0-15.65-5.09-15.65-14.94v-19.19c0-1.94-.72-3.43-2.49-3.93v-.66h10.51v.66c-1.77.5-2.49,1.99-2.49,3.93ZM195.34,229.77h-.72l3.82-4.76h1.94l-5.03,4.76ZM234.35,270.92h11.51c4.26,0,5.64-1.55,7.47-8.63h.17l-1.66,9.79h-25.5v-.66c1.77-.55,2.49-1.88,2.49-3.76v-29.87c0-1.94-.72-3.26-2.49-3.76v-.66h24.95l1.38,8.85h-.17c-1.6-6.25-2.99-7.69-7.19-7.69h-10.95v18.2h7.25c2.66,0,3.93-1.27,4.87-4.92h.11v11.01h-.11c-.94-3.65-2.21-4.92-4.87-4.92h-7.25v17.04ZM268.67,234.52h-5.75v20.36h5.75c4.65,0,8.08-4.31,8.08-10.18s-3.43-10.18-8.08-10.18ZM274.97,267.66c-1.33-3.43-3.54-10.29-8.13-11.67l-3.93.06v11.51c0,1.99.77,3.32,2.49,3.87v.66h-10.51v-.66c1.77-.5,2.49-1.83,2.49-3.76v-29.7c0-1.94-.72-3.43-2.49-3.93v-.66h8.02l7.85.06c7.08,0,12.06,4.65,12.06,11.28,0,5.53-3.43,9.62-8.68,10.9,2.88,2.21,4.65,8.19,6.58,12.06,1,1.99,2.6,3.26,4.65,3.76v.66h-11.89v-.66c1.38,0,2.21-1.99,1.49-3.76ZM295.32,270.92h11.51c4.26,0,5.64-1.55,7.47-8.63h.17l-1.66,9.79h-25.5v-.66c1.77-.55,2.49-1.88,2.49-3.76v-29.87c0-1.94-.72-3.26-2.49-3.76v-.66h24.95l1.38,8.85h-.17c-1.61-6.25-2.99-7.69-7.19-7.69h-10.95v18.2h7.25c2.65,0,3.93-1.27,4.87-4.92h.11v11.01h-.11c-.94-3.65-2.21-4.92-4.87-4.92h-7.25v17.04ZM318.35,242.43h-.83l-.5-9.07h1.94l-.61,9.07ZM128.86,286.4v29.87c0,1.94.77,3.26,2.49,3.76v.66h-10.51v-.66c1.77-.5,2.49-1.83,2.49-3.76v-29.87l-14.22,34.3h-3.21l-13.61-31.53v27.1c0,1.94.77,3.26,2.49,3.76v.66h-6.08v-.66c1.77-.5,2.49-1.83,2.49-3.76v-29.87c0-2.16-.89-3.21-3.15-3.76v-.66h7.8l13.99,33.91,14.16-33.91h7.36v.66c-1.71.5-2.49,1.83-2.49,3.76ZM141.32,286.4v29.87c0,1.94.77,3.26,2.49,3.76v.66h-10.51v-.66c1.77-.5,2.49-1.83,2.49-3.76v-29.87c0-1.94-.72-3.26-2.49-3.76v-.66h10.51v.66c-1.71.5-2.49,1.83-2.49,3.76ZM191.79,312.73l.77,2.88c-3.48,3.76-7.74,5.64-12.67,5.64-11.95,0-20.58-8.35-20.58-19.91,0-10.73,8.96-19.91,19.53-19.91,5.14,0,9.9,2.27,13.33,6.31v4.65h-.66c-1.11-5.81-6.2-9.79-12.56-9.79-8.08,0-13.55,7.52-13.55,18.75s5.86,18.75,14.27,18.75c4.92,0,9.51-2.82,12-7.36h.11ZM217.57,307.87l-8.68-21.08-8.8,21.08h17.48ZM195.39,316.27l14.22-34.3h3.32l14.27,34.3c.77,1.94,2.05,3.26,4.04,3.76v.66h-11.06v-.66c.94-.33,1.33-.94,1.33-1.83,0-.55-.11-1.22-.44-1.94l-3.04-7.25h-18.36l-3.04,7.25c-.28.72-.44,1.38-.44,1.94,0,.89.44,1.49,1.38,1.83v.66h-6.2v-.66c1.99-.5,3.26-1.83,4.04-3.76ZM240.19,281.98l23.12,31.47v-27.05c0-1.94-.72-3.26-2.49-3.76v-.66h6.08v.66c-1.72.5-2.49,1.83-2.49,3.76v34.3h-2.77l-25.45-34.96v30.53c0,1.94.77,3.26,2.49,3.76v.66h-6.08v-.66c1.77-.5,2.49-1.83,2.49-3.76v-29.87c0-2.05-.83-3.26-2.49-3.76v-.66h7.58ZM299.65,312.73l.78,2.88c-3.49,3.76-7.74,5.64-12.67,5.64-11.95,0-20.58-8.35-20.58-19.91,0-10.73,8.96-19.91,19.53-19.91,5.14,0,9.9,2.27,13.33,6.31v4.65h-.66c-1.11-5.81-6.19-9.79-12.56-9.79-8.08,0-13.55,7.52-13.55,18.75s5.86,18.75,14.27,18.75c4.92,0,9.51-2.82,12-7.36h.11ZM308.69,286.4v29.87c0,1.94.77,3.26,2.49,3.76v.66h-10.51v-.66c1.77-.5,2.49-1.83,2.49-3.76v-29.87c0-1.94-.72-3.26-2.49-3.76v-.66h10.51v.66c-1.72.5-2.49,1.83-2.49,3.76ZM330.82,281.31c10.68,0,19.36,8.91,19.36,20.02s-8.74,20.02-19.36,20.02-19.36-8.85-19.36-20.02,8.68-20.02,19.36-20.02ZM330.82,320.26c7.8,0,13.28-8.35,13.28-18.97s-5.7-18.86-13.28-18.86-13.28,8.35-13.28,18.86,5.42,18.97,13.28,18.97ZM329.66,278.38h-.72l3.82-4.76h1.94l-5.03,4.76ZM358.04,281.98l23.12,31.47v-27.05c0-1.94-.72-3.26-2.49-3.76v-.66h6.08v.66c-1.72.5-2.49,1.83-2.49,3.76v34.3h-2.77l-25.45-34.96v30.53c0,1.94.77,3.26,2.49,3.76v.66h-6.08v-.66c1.77-.5,2.49-1.83,2.49-3.76v-29.87c0-2.05-.83-3.26-2.49-3.76v-.66h7.58ZM56.99,369.32v-.66c1.77-.55,2.49-1.88,2.49-3.76v-29.87c0-1.94-.72-3.26-2.49-3.76v-.66h24.95l1.38,8.85h-.17c-1.6-6.25-2.99-7.69-7.19-7.69h-10.95v18.2h7.25c2.66,0,3.93-1.27,4.87-4.92h.11v11.01h-.11c-.94-3.65-2.21-4.92-4.87-4.92h-7.25v13.77c0,1.94.72,3.26,2.49,3.76v.66h-10.51ZM100.38,356.48l-8.68-21.08-8.8,21.08h17.48ZM78.2,364.89l14.22-34.3h3.32l14.27,34.3c.77,1.94,2.05,3.26,4.04,3.76v.66h-11.06v-.66c.94-.33,1.33-.94,1.33-1.83,0-.55-.11-1.22-.44-1.94l-3.04-7.25h-18.36l-3.04,7.25c-.28.72-.44,1.38-.44,1.94,0,.89.44,1.49,1.38,1.83v.66h-6.2v-.66c1.99-.5,3.26-1.83,4.04-3.76ZM123.67,364.5l12.28-29.48c.72-1.77.17-3.15-1.49-3.76v-.66h6.75v.66c-1.99.5-3.26,1.83-4.04,3.76l-14.22,34.3h-3.32l-14.27-34.3c-.77-1.94-2.05-3.26-4.04-3.76v-.66h11.62v.66c-1.66.61-2.21,1.99-1.44,3.76l12.17,29.48ZM155.3,329.93c10.68,0,19.36,8.91,19.36,20.02s-8.74,20.02-19.36,20.02-19.36-8.85-19.36-20.02,8.68-20.02,19.36-20.02ZM155.3,368.87c7.8,0,13.28-8.35,13.28-18.97s-5.7-18.86-13.28-18.86-13.28,8.35-13.28,18.86,5.42,18.97,13.28,18.97ZM188.98,331.76h-5.75v20.36h5.75c4.65,0,8.08-4.31,8.08-10.18s-3.43-10.18-8.08-10.18ZM195.29,364.89c-1.33-3.43-3.54-10.29-8.13-11.67l-3.93.06v11.51c0,1.99.77,3.32,2.49,3.87v.66h-10.51v-.66c1.77-.5,2.49-1.83,2.49-3.76v-29.7c0-1.94-.72-3.43-2.49-3.93v-.66h8.02l7.85.06c7.08,0,12.06,4.65,12.06,11.28,0,5.53-3.43,9.62-8.68,10.9,2.88,2.21,4.65,8.19,6.58,12.06,1,1.99,2.6,3.26,4.65,3.76v.66h-11.89v-.66c1.38,0,2.21-1.99,1.49-3.76ZM215.63,335.02v29.87c0,1.94.77,3.26,2.49,3.76v.66h-10.51v-.66c1.77-.5,2.49-1.83,2.49-3.76v-29.87c0-1.94-.72-3.26-2.49-3.76v-.66h10.51v.66c-1.71.5-2.49,1.83-2.49,3.76ZM248.79,331.76h-7.91v33.13c0,1.88.72,3.21,2.49,3.76v.66h-10.51v-.66c1.77-.5,2.49-1.83,2.49-3.76v-33.13h-7.91c-4.2,0-5.59,1.44-7.19,7.69h-.17l1.38-8.85h33.3l1.38,8.85h-.17c-1.61-6.25-2.99-7.69-7.19-7.69ZM273.25,356.48l-8.68-21.08-8.8,21.08h17.48ZM251.07,364.89l14.22-34.3h3.32l14.27,34.3c.78,1.94,2.05,3.26,4.04,3.76v.66h-11.06v-.66c.94-.33,1.33-.94,1.33-1.83,0-.55-.11-1.22-.44-1.94l-3.04-7.25h-18.37l-3.04,7.25c-.28.72-.44,1.38-.44,1.94,0,.89.44,1.49,1.38,1.83v.66h-6.2v-.66c1.99-.5,3.26-1.83,4.04-3.76ZM333.26,334.97l-9.73,15.65v14.27c0,1.94.77,3.26,2.49,3.76v.66h-10.51v-.66c1.77-.5,2.49-1.83,2.49-3.76v-12.28l-10.68-17.42c-1.16-1.94-2.82-3.43-4.87-3.93v-.66h12.06v.66c-1.33.44-1.61,2.32-.61,3.93l9.02,14.6,9.18-14.77c1.16-1.88.88-3.21-.72-3.76v-.66h6.64v.66c-2.1.5-3.6,1.83-4.76,3.71ZM361.5,368.15h11.51c4.26,0,5.64-1.55,7.47-8.63h.17l-1.66,9.79h-25.5v-.66c1.77-.55,2.49-1.88,2.49-3.76v-29.87c0-1.94-.72-3.26-2.49-3.76v-.66h24.95l1.38,8.85h-.17c-1.6-6.25-2.99-7.69-7.19-7.69h-10.95v18.2h7.25c2.66,0,3.93-1.27,4.87-4.92h.11v11.01h-.11c-.94-3.65-2.21-4.92-4.87-4.92h-7.25v17.04ZM389.09,330.6l23.12,31.47v-27.05c0-1.94-.72-3.26-2.49-3.76v-.66h6.08v.66c-1.71.5-2.49,1.83-2.49,3.76v34.3h-2.77l-25.45-34.96v30.53c0,1.94.78,3.26,2.49,3.76v.66h-6.08v-.66c1.77-.5,2.49-1.83,2.49-3.76v-29.87c0-2.05-.83-3.26-2.49-3.76v-.66h7.58ZM51.64,380.37h-5.75v20.36h5.75c4.65,0,8.08-4.31,8.08-10.18s-3.43-10.18-8.08-10.18ZM57.95,413.51c-1.33-3.43-3.54-10.29-8.13-11.67l-3.93.06v11.51c0,1.99.77,3.32,2.49,3.87v.66h-10.51v-.66c1.77-.5,2.49-1.83,2.49-3.76v-29.7c0-1.94-.72-3.43-2.49-3.93v-.66h8.02l7.85.06c7.08,0,12.06,4.65,12.06,11.28,0,5.53-3.43,9.62-8.68,10.9,2.88,2.21,4.65,8.19,6.58,12.06,1,1.99,2.6,3.26,4.65,3.76v.66h-11.89v-.66c1.38,0,2.21-1.99,1.49-3.76ZM78.29,416.77h11.51c4.26,0,5.64-1.55,7.47-8.63h.17l-1.66,9.79h-25.5v-.66c1.77-.55,2.49-1.88,2.49-3.76v-29.87c0-1.94-.72-3.26-2.49-3.76v-.66h24.95l1.38,8.85h-.17c-1.6-6.25-2.99-7.69-7.19-7.69h-10.95v18.2h7.25c2.66,0,3.93-1.27,4.87-4.92h.11v11.01h-.11c-.94-3.65-2.21-4.92-4.87-4.92h-7.25v17.04ZM112.61,380.37h-5.75v20.91h5.75c4.65,0,8.08-4.43,8.08-10.45s-3.43-10.45-8.08-10.45ZM109.35,417.27v.66h-10.51v-.66c1.77-.5,2.49-1.83,2.49-3.76v-29.7c0-1.94-.72-3.43-2.49-3.93v-.66h8.02l7.85.06c7.08,0,12.06,4.76,12.06,11.56s-4.98,11.51-12.06,11.56l-7.85.06v11.06c0,1.94.77,3.26,2.49,3.76ZM135.05,416.77h11.51c4.26,0,5.64-1.55,7.47-8.63h.17l-1.66,9.79h-25.5v-.66c1.77-.55,2.49-1.88,2.49-3.76v-29.87c0-1.94-.72-3.26-2.49-3.76v-.66h24.95l1.38,8.85h-.17c-1.6-6.25-2.99-7.69-7.19-7.69h-10.95v18.2h7.25c2.66,0,3.93-1.27,4.87-4.92h.11v11.01h-.11c-.94-3.65-2.21-4.92-4.87-4.92h-7.25v17.04ZM181.28,405.1l-8.68-21.08-8.8,21.08h17.48ZM159.1,413.51l14.22-34.3h3.32l14.27,34.3c.77,1.94,2.05,3.26,4.04,3.76v.66h-11.06v-.66c.94-.33,1.33-.94,1.33-1.83,0-.55-.11-1.22-.44-1.94l-3.04-7.25h-18.36l-3.04,7.25c-.28.72-.44,1.38-.44,1.94,0,.89.44,1.49,1.38,1.83v.66h-6.2v-.66c1.99-.5,3.26-1.83,4.04-3.76ZM213.96,380.37h-7.91v33.13c0,1.88.72,3.21,2.49,3.76v.66h-10.51v-.66c1.77-.5,2.49-1.83,2.49-3.76v-33.13h-7.91c-4.2,0-5.59,1.44-7.19,7.69h-.17l1.38-8.85h33.3l1.38,8.85h-.17c-1.6-6.25-2.99-7.69-7.19-7.69ZM265.54,380.37h-7.91v33.13c0,1.88.72,3.21,2.49,3.76v.66h-10.51v-.66c1.77-.5,2.49-1.83,2.49-3.76v-33.13h-7.91c-4.2,0-5.59,1.44-7.19,7.69h-.17l1.38-8.85h33.3l1.38,8.85h-.17c-1.6-6.25-2.99-7.69-7.19-7.69ZM282.33,416.77h11.51c4.26,0,5.64-1.55,7.47-8.63h.17l-1.66,9.79h-25.5v-.66c1.77-.55,2.49-1.88,2.49-3.76v-29.87c0-1.94-.72-3.26-2.49-3.76v-.66h24.95l1.38,8.85h-.17c-1.61-6.25-2.99-7.69-7.19-7.69h-10.95v18.2h7.25c2.65,0,3.93-1.27,4.87-4.92h.11v11.01h-.11c-.94-3.65-2.21-4.92-4.87-4.92h-7.25v17.04ZM339.32,413.12l12.28-29.48c.72-1.77.17-3.15-1.49-3.76v-.66h6.75v.66c-1.99.5-3.26,1.83-4.04,3.76l-14.22,34.3h-3.32l-14.27-34.3c-.78-1.94-2.05-3.26-4.04-3.76v-.66h11.62v.66c-1.66.61-2.21,1.99-1.44,3.76l12.17,29.48ZM370.95,378.55c10.68,0,19.36,8.91,19.36,20.02s-8.74,20.02-19.36,20.02-19.36-8.85-19.36-20.02,8.68-20.02,19.36-20.02ZM370.95,417.49c7.8,0,13.28-8.35,13.28-18.97s-5.7-18.86-13.28-18.86-13.28,8.35-13.28,18.86,5.42,18.97,13.28,18.97ZM394.2,388.28h-.83l-.5-9.07h1.94l-.61,9.07ZM421.28,405.1l-8.68-21.08-8.79,21.08h17.48ZM399.1,413.51l14.22-34.3h3.32l14.27,34.3c.77,1.94,2.05,3.26,4.04,3.76v.66h-11.06v-.66c.94-.33,1.33-.94,1.33-1.83,0-.55-.11-1.22-.44-1.94l-3.04-7.25h-18.36l-3.04,7.25c-.28.72-.44,1.38-.44,1.94,0,.89.44,1.49,1.38,1.83v.66h-6.19v-.66c1.99-.5,3.26-1.83,4.04-3.76ZM174.31,428.99h-7.91v33.14c0,1.88.72,3.21,2.49,3.76v.67h-10.51v-.67c1.77-.5,2.49-1.82,2.49-3.76v-33.14h-7.91c-4.2,0-5.59,1.44-7.19,7.69h-.17l1.38-8.85h33.3l1.38,8.85h-.17c-1.6-6.25-2.99-7.69-7.19-7.69ZM200.77,427.17c10.68,0,19.36,8.91,19.36,20.03s-8.74,20.02-19.36,20.02-19.36-8.85-19.36-20.02,8.68-20.03,19.36-20.03ZM200.77,466.11c7.8,0,13.28-8.35,13.28-18.97s-5.7-18.86-13.28-18.86-13.28,8.35-13.28,18.86,5.42,18.97,13.28,18.97ZM255.09,458.59l.78,2.88c-3.49,3.76-7.75,5.64-12.67,5.64-11.95,0-20.58-8.35-20.58-19.91,0-10.73,8.96-19.91,19.53-19.91,5.14,0,9.9,2.27,13.33,6.31v4.65h-.66c-1.11-5.81-6.2-9.79-12.56-9.79-8.08,0-13.55,7.52-13.55,18.75s5.86,18.75,14.27,18.75c4.92,0,9.51-2.82,12-7.36h.11ZM280.87,453.72l-8.68-21.07-8.79,21.07h17.48ZM258.69,462.13l14.22-34.3h3.32l14.27,34.3c.77,1.94,2.05,3.26,4.04,3.76v.67h-11.06v-.67c.94-.33,1.33-.94,1.33-1.82,0-.55-.11-1.22-.44-1.94l-3.04-7.25h-18.36l-3.04,7.25c-.28.72-.44,1.38-.44,1.94,0,.88.44,1.49,1.38,1.82v.67h-6.19v-.67c1.99-.5,3.26-1.82,4.04-3.76ZM310.23,428.99h-5.75v20.36h5.75c4.65,0,8.08-4.32,8.08-10.18s-3.43-10.18-8.08-10.18ZM316.53,462.13c-1.33-3.43-3.54-10.29-8.13-11.67l-3.93.06v11.5c0,1.99.77,3.32,2.49,3.87v.67h-10.51v-.67c1.77-.5,2.49-1.82,2.49-3.76v-29.71c0-1.94-.72-3.43-2.49-3.93v-.66h8.02l7.85.06c7.08,0,12.06,4.65,12.06,11.28,0,5.53-3.43,9.62-8.68,10.9,2.88,2.21,4.65,8.19,6.58,12.06,1,1.99,2.6,3.26,4.65,3.76v.67h-11.89v-.67c1.38,0,2.21-1.99,1.49-3.76Z"/>
  <g>
    <path class="cls-2" d="M458.78,500.67v2.79c-.08-.14-1.04-.75-1.19-1.09l-2.89-6.61c-1.55-3.55-3.5-5.9-6.78-7.6-3.22-1.67-6.07-3.86-9.97-4.32l6.31,5.7c1.93,1.74-.37,2.63-5.42-2.55-1.19-1.22-2.82-2.47-3.45-3.78-1.22-2.53-2.47-4.15-5.29-4.91-1.53-.41-3.7-1.37-5.35-1.19l-10.01,1.1c-5.47,1.3-10.16,3.75-15.55,5.76-1.57,0-4.15-1.17-5.54-1.79-1.62-.72-7.02,1.7-13.3,1.84-3.39.07-7.02-.9-10.33-.16l-11.02,2.47c-3.36.75-6.83,2.45-9.2,4.82l-4.34,4.34c-3.28,4.32-5.3,9.33-6.57,14.58-.73,2.99.93,5.4,3.93,6.21,4.64,1.26,10.02,2.21,14.85,1.26,5.22-1.03,9.1-4.45,13.37-7.34,5.87-1.24,12.38.37,17.11-4.92l-3.36-4.64c-.11-.16-.3-1.03-.13-1.07l.88-.2,6.21,7.47c3.07,3.69,7.72,5.11,12.13,5.98,2.09.41,4.01.82,6.04.62.23-2.56-1.85-4.51-.1-6.88l6.59,18.64c1.33,3.75,3.7,6.16,7.28,8.02l4.87,3.5,3.34,1.56c-1.89,1.27-2.76.29-4.39-.05-5.23-1.1-8.01-.57-11.95,3.24-1.19,1.15-1.41,3.21-2.2,4.68l-.58,1.09c-.16.31-.94-.51-1.32-1.05-2.2,4.65-.23,9.16-1.4,13.16-2.43-4.16-1.55-15.12,1.71-13.63.78-3.48,2.79-6.07,5.8-7.87,2.45-1.46,4.53-2.09,7.73-1.4-1.37-1.97-4.39-.37-8.41-2.69l.29-1.46c.16-.83-5.72-4.64-10.27-4.91l-13.67.19-1.52.61c-.37.15-.79-.95-1.04-1.6-1.68-.26-3.98.45-5.52,1.71l-8.1,6.57-3.63,2.86-.29,4.04c-.21,2.82.18,5.22,2.86,6.74l7.59,4.3,6.8,3.22c2.37,1.12,4.66,2.75,7.49,1.87-1.25-.55-2.59-.86-4.2-1.24,1.29-2.06,3.8-1.38,5.38-.19.51.38,2.09.43,2.77.59,3.13.75,5,3.38,6.85,5.67l2.14,2.65-.33-4.3c2.48,1.29,1.86,2.99,2.36,4.86,1.07,4.01,1.32,8.88,4.23,12.19l8.51,7.83,4.42,2.89c2.24,2.43,4.77,4.96,6.34,7.75,2.04,3.64,3.05,7.73,5.33,11.09,1.35,1.99,3.02,3.3,4.63,4.98l7.38,7.68,5.09,5.34v2.4s-7.78-8.52-7.78-8.52c-1.97-2.23-4.06-4.7-6.47-6.35-2.7-1.85-4.23-3.93-5.49-6.89l-3.56-8.33c-.46-1.07-1.1-1.92-1.96-2.79-1.59-1.61-2.91-4.19-4.85-5.37-3.25-1.97-5.77-4.09-8.59-6.64-1.65-1.49-4.07-2.32-4.9-4.54l-3.31-8.84c-1.26-3.37-4.54-5.86-6.55-8.84-2.28-3.37-8.22,1.08-16.06-3.87l-6.21-2.8-7.63-4.39c-3.65-1.56-4.55-5.24-3.7-8.87.31-1.33-.34-3.77.82-4.68l4.36-3.43c3.48-2.74,6.52-5.7,10.52-7.61,1.81-.72,3.61-.52,5.13.72l12.33-.23c4.25-.08,7.9,1.29,11.66,3.36l-1.44-3.39-4.5-10.92c-2.8.34-4.72-.18-7.23-.6-5.36-.91-10.59-3.26-14.09-7.85-3.28,3.58-7.67,4.22-12.43,4.65l-5.32.48c-5.2,4.26-12.42,8.95-18.93,7.71-2.15,2.52-5.2,3.92-8.39,5.16l-9.23,3.57,8.22,3.64c5.58,1.52,10.5,3.52,15.26,6.78,2.39,1.64,4.61,3.46,6.05,5.94-.51.38-.92.69-1.1.56l-.87-.64c-1.55,1.96-3.83,3.34-5.48,2.29l-.22-.14-3.75,1.1-.59-1.49c-.1-.26-.9,0-1.29.06l.15-1.7c-.95-.3-1.77-.68-2.12-1.13l-.12-.62-2.83-.9,1.26-1.27-.32-.2c-.87.96-3.46.94-4.33-.3,1.15-1.38,3.8-1.47,4.63-.14l.23.37,1.58-.13,3.09-.31-3.04,2.95.21.02c.73.12,1.57.44,2.34.9l3.14,1.91,1.53-.36c.22-.05.39.79.38.83l.28.26,5.11-2.48c-3.67-4.32-11.22-8.31-17.06-9.89-3.24-.88-6.26-2.2-9.21-3.64s-6.02-1.3-9.28-.95c-6.02.64-11.99.76-17.93,2.1l-7.68,1.73c-3.08.7-6.07,1.65-8.49,3.54-4.18,3.28-8.27,6.26-11.6,10.44l-2.42,4.41c-.16.28-.92.96-1.18.79l-1-.66,3.07-4.9c2.39-3.82,6.41-6.46,9.69-9.37-.69-.81-1.86-2.17-1.86-3.17,0-1.07,1.9-1.94,2.79-2.16l3.9-.97c-1.07-2.49-.4-5.49,2.61-6.4-.96-1.95-.94-3.97.15-5.22,1.42-1.63,3.28-2.02,5.59-1.55-1.07-3.61.65-6.86,4.14-7.7,1.31-2.72,3.56-4,6.58-4.33l3.41,2.12c2.42-7.17,8.45-2.67,10-4.28,1.05-1.1,3.27-1.72,4.81-1.65,2.37-1.94,5.44-2.61,8.49-.94l1.73-2.52c1.97-3.78,4.61-6.44,7.88-9.09,1.94-1.57,3.87-3.1,6.42-3.83,1.64-.47,2.47-1.88,3.73-2.75,2.64-1.83,5.84-3.17,8.82-4.49l10.5-4.64c3.41-1.5,6.64-2.44,10.43-1.93,2.26-.91,4.65-.89,6.99-.21l21.4,2.6,3.07,1.65c6.08-.91,12.42.4,15.69,5.63,2.78.95,6.22,1.74,8.91,3.42l6.94,4.32c2.52,2.12,3.27,5.41,4.65,8.28l1.73,3.09ZM381,482.54c4.11-.25,7.68-1.54,11.54-1.99,2.13-.25,4.39.99,6.29,1.87l12.02-4.79,6.86-1.79-25.42-3.07-7.2.75c-3.25.34-6.15,2.17-9.05,3.4l-6.72,2.84-9.05,4.43c3.7.43,6.47-1.44,9.81-2s7.1.58,10.91.34ZM330.48,527.45c4.19-.84,7.42-2.15,11.02-3.57,3.06-1.2,5.94-2.4,8.95-4.38-6.52-1.33-13.25-1.71-13.25-8.55.7-3.24,1.63-6.49,2.89-9.44l-3.96.15c-2.18.08-2.53.91-3.71,2.39l-4.13,5.19c-2.05,2.58-3.52,4.63-3.85,7.95l-.53,5.36c-.22,2.18.95,3.49,2.97,4.01.79.2,2.64,1.08,3.62.88ZM295.4,526.97l-.65,5.19c-.82.14-1.64.42-2.27.76l-3.8,1.39,1.86,2.13c3.79-3.53,8.26-4.23,13.03-5.39,7.37-1.79,14.53-2.82,22.33-3.11-2.15-1.11-3.57-2.19-3.47-4.53.15-3.47.27-7.35,1.57-10.64.99-2.51,3.03-4.43,4.58-6.69l.36-3.15-1.87,2.42c-4.46.53-7.19-1.8-9.01,2.42-.25.58-1.2,1.66-1.77,1.58-.49-.07-1.3-.69-1.82-1.13-1.81-1.53-4.5-.55-5.71,1.46-1.68,2.8-5.26.63-5.35,6.93l-.04,2.87c-1.85-.35-2.63-.48-4.07-.15-.91.21-2.14,1.58-1.86,2.66s.62,2.38.46,3.14c-.14.68-1.36,1.14-2.51,1.84Z"/>
    <path class="cls-2" d="M275.85,559.61c-.22,1.91.04,3.75,1.61,4.1s2.54.15,4.08,1.4l-3.84.08c-.88.02-2.31-1.07-2.76-1.8-.54-.89-.59-2.62-.16-3.67l-3.39-1.06.28-1.99-3.89-1.42c-1.35-.49-3.57-1.7-4.67.07-1.66,2.65-5.52,5.66-8.01,4.92-1.79-.53-3.09-.76-5.03-.03l-3.51-2.13-3.48-.86c-2.2-.54-5.02,1.13-6.92,2.14-4.16,2.21-4.13-2.65-7.9-1.54-1.86-2.09-4.29-2.64-7.04-2.16l-3.14-.1c-1.4-.05-3.68-.68-4.43-2.14-.59-1.15-.37-2.91-.33-4.4l-6-1.57-4.75.79c-3.08,2.29-6.34,3.44-10.02,3.92-.31-2.41-1.44-4.49-3.86-5.09l-2.18,4.05,3.69.47c1.55.2,4.08,1.78,2.89,3.58-1.94.55-4.77.46-6.96-.46l5.84-.7c-1.68-.9-3.57-1.59-5.23-1.49l-6.43.39c-6.97,1.08-13.64,1.28-20.71,1.18-6.59-.09-12.88-.08-19.31-1.37l-8.74-1.22c-5.48-.77-10.51-2.81-14.6-6.54-1.29-1.18-3.07-.99-4.72-.83l-1.48.14c-.26.02-.3-.92-.06-1.01l1.01-.4c2.44-.98,4.75-.51,6.63,1.18,5.61,5.03,12.18,5.95,19.37,6.81.07-.48.15-.98.15-.97,0,.02.43.09,1.05.2-3.57-8.26-.4-16.09,7.45-21.37-2.24-.5-4.29-.38-6.42.11l-5.23,1.2-10.53,4.62-8.67,4.74c-4.42,2.42-8.09.67-6.78,2.27l1,1.23c.19.23-1.03.69-1.15.43l-.61-1.28c-6.49,2.06-11.94-.22-10.34-.73,1.98-.62,5.72.88,9.98-.25l-5.66-1.9c2.92-1.05,5.19-.03,7.65.77,1.35.44,1.81-.05,2.84-.67,7.18-4.25,14.45-7.85,22.28-10.86l4.67-.97c3.21-.67,5.92-.29,9.04.27l8.85,1.59c4.83.87,9.52,2.01,14.23,3.37,4.39,1.26,7.9,3.95,11.54,6.53,2.89,2.05,5.63,4.1,7.82,6.86l3.6,4.57c2.59-.65,4.96-1.93,7.5-3.33,1.25-.69,4.22-1.4,5.59-1.07l4.95,1.17c.58.14,1.65.81,1.94,1.31.32.57.03,2.02-.02,2.84-.16,2.44,2.82,2.91,4.6,2.88l2.91-.04c2.5-.03,4.49.23,6.25,1.83l2.63.35c.94.8,2.45,2.04,3.54,2.17,3.41-1.91,7.48-3.9,10.55-2.52l5.02,2.24c1.95.04,3.81-.1,6.01.59,6.2-1.75,6.18-8.69,11.13-4.64,3.41-.09,6.47,1.38,8.78,3.49,4.09-.53,6.87-3.47,9.37-6.23.87-.96,2.51-1.75,3.63-2.17,7.48-2.83,15.47-10.02,21.85-10.57l9.3-.8,8.2,1.55c1.96.37,4.47-.56,6.19.33,2.71,1.41,4.88,2.17,7.96,2.62,1.42.21,3.86,1.22,4.77,2.23l2.49,2.77c.58.64.84,2.87,1.61,3.13,2.91.97,5.92,1.79,8.67,3.28-1.1.59-2.82-.2-3.79-.49-.64-.18-1.2,1.4-1.53,1.95-.58.99-1.16,1.93-1.29,3.14-1.94,2.01-4.85,3.14-7.8,3.23-4.96,2.42-10.16,3.22-15.41,4.56-4.92,1.26-9.45,2.11-14.59.63l-7.58-.9-13.81-1.35c-4.5-.44-8.9-.56-12.95-2.44-1.17-.54-2.13-1.24-1.7-3.03l2.08,1.75,4.29,1.58-.78-3.32c-.05-.23.24-1.01.35-1.22s1.06,0,1.22.23l3.2,4.54,11.44.95,4.82.61c-3.96-6.48-3.91-14.64.34-20.91l2.81-2.88c-2.09.73-4.37,1.45-6.13,2.59-4.18,2.73-8.11,5.08-12.74,7.12-1.28.56-3.6,1.24-4.43,2.34-2.68,3.56-5.83,6.12-10.09,6.9ZM184.64,551.16l1.66-2.76c.63-1.04,1.24-1.7,2.46-2.69-2.04-2.24-4.78-3.98-7.22-5.8-4.12-3.07-8.15-5.49-13.26-6.64l-10.03-2.26-9.9-1.61-4.63,3.55c-4.81,3.7-6.77,13.41-2.16,18.59,4.73.68,9.35,1.03,14.19.99,5.8-.05,11.46.3,17.23-.25l11.65-1.12ZM328.85,565.19c3.42-.84,5.48-3.11,6.07-6.6,1.39-8.17,2.92-10.72-4.83-17.41l-5.61-.68c-2.18-.27-4.31-1.03-6.44-.92-4.23.23-8.26,1.72-10.67,5.34-5.11,7.66-2.09,19.1,2.34,19.79l9,1.4c3.44.53,6.89-.13,10.15-.93ZM353.28,554.76c.19-.34.52-1.43.2-1.58l-1.1-.5-2.73-1.41c-1-3.09-3.93-6.63-6.94-7.03s-5.68-1.23-8.4-2.87c-.45-.27-1.56-.5-2.04-.49l3.83,4.8c3.22,4.04,2.17,13.78-1.64,18.35l10.89-3.51c2.2-.71,4.93-.45,6.28-2.84l1.64-2.91Z"/>
    <path class="cls-2" d="M144.32,581.41c2.51.17,5.01-.7,5.4-3.29.19-1.24-.36-3.78-1.24-4.71-2.89-3.06-7.01-5.29-11.22-5.32l-4.44-.04-4.66-.2-9.53-.33c-2.3-.08-4.92.57-7.15.8l.06,1.14c.02.32-1.13.29-1.53.24-5.26-3.67-11.38-5.4-17.51-5.3l.19,1.11c.22,1.26-7.71-1.03-13.54-6.26-.38-.34-.61-2.02-.97-2.43l-4.32-4.83-3.15-3.4-.7-.8c-.38-.44,1.54-1.56,4.53,2.76.63-.01,1.95-2.09,1.43-2.77-1.15-1.5-.62-2.76-.22-4.25.74-2.76,1.16-5.01,3.33-7.14l2.92-2.88c-9.01-.06-9.62-3.75-7.35-2.88,8.59,3.3,20.83-.09,26.74-7.52-1.43.16-2.26.26-3.81-.69l5.02-1.3c1.38-.36,2.59-1.26,3.07-2.87l-3.62-2.31c-.25-.16-.67-.7-.8-.94-.17-.32,1.1-.64,1.5-.53,2.17.62,4.28,2.86,6.42,3.68,5.9,2.25,14.72-.99,20.81-4.24,1.61.78,3.58,1.46,5.45,1.46l17.34-.06c.97,0,3.04-1.02,3.09-1.94l.21-4.55c-4.57-2.64-9.28-3.57-14.3-5.13l-4.46-1.39c-.25-.08-1.2-.49-1.03-.65l1.04-.98-7.59-1.25c-12.98-2.13-18.83,2.19-28.74,7.13l-6.63,3.3-1.85,4.69c-.75,1.92-2.42,3.32-4.65,3.53-4.35.4-12.73.56-12.58-1.77,5.38.37,14.03,1.9,15.47-1.69l2.16-5.38c-8.3-5.74-17.25-9.03-26.98-11.14-2.9-.63-5.44-1.03-8.51-1.09s-5.95-1.61-8.89-1.48l-5.16,2.21c-5.07,2.17-9.54,4.11-14.86,5.5-3.89,1.02-7.02,4.01-10.95,5.35l-.19-.9c-.07-.32.59-.76.94-.96l7.86-4.43c-3.49.64-5.96,2.48-8.72,4.27-.18-.82.18-1.9.96-2.36,2.95-1.75,6.14-4.02,9.68-3.77,2.79.2,5.03.33,7.62-.88l9.17-4.27c2.25-1.05,4.36-1.68,6.84-.96,3.58,1.04,7.09,1.46,10.95,1.63,2.87.13,5.8-.95,8.62-1.79,3.83-1.14,7.59-1.78,11.58-2.23,3.17-.36,6.3-1.13,9.5-1.23,7.45-.25,14.66.74,22.03-.46,3.59-.58,7.85-1.55,10.79,1.29,1.33,1.36-.32,4.24-1.41,5.5l9.92,1.5c3.4.08,6.38,1.33,8.61,3.91,5.22,1.07,9.98,2.58,14.72,5.05,2.12,4.17-1.82,7.82,2.72,8.06,8.77,2.22,16.66,6.17,24.05,11.3l.63,1.15c.15.28-1.21.23-1.48.15-7.03-5.01-14.64-8.64-22.96-11.05-1.32-.06-2.45-.55-3.48-1.21l-2.97.99-19.11-.05-4.46-1.04-5.71,2.45c-4.56,1.95-9.39,2.77-14.36,1.9l-2.36-1.07-3.64,3.38c-6.93,10.03-15.69,9.33-20.03,11.63-2.23,1.19-4.57,4.12-5.72,6.47-1.55,4.57.55,8.54-2.77,10.95,1.42,1.51,3.26,3.22,4.21,4.92.89,1.6,1.42,2.64,2.93,3.68,2.31,1.59,4.78,2.54,7.75,2.53,6.68-.01,13.05,1.18,18.88,4.53l8.26-1.05,6.98-.11c.66,0,1.77-.5,2.14-.95l.59-.73c.17-.21,1.15,0,1.08.27l-.45,1.55,4.03.19c1.2.06,3.11.79,4.32,1.31l1.03-1.42c4.06.67,7.56,2.01,10.62,4.18.9-.81,1.89-1.47,2.88-1.68l12.81-2.75c1.33-.29,3.46-1.21,4.65-1.05,2.06.26,2.84.19,4.7-.33,1.38-.38,3.51-.2,5.18-.03-.82,2.05-3.49.3-6.72,2.19-1.99-.46-3.66-.27-5.64.12l-12.91,2.55c-1.6.32-2.96.62-4.03,1.65,2.1,2.36,3.03,4.79,2.47,7.8-.28,1.48-2.36,3.83-4.02,3.85-4.78.06-8.91.81-13.55,1.62-5.92,1.03-11.71,1.88-17.37,3.72-1.29,1.78-3.16,2.39-5.26,2.47l-11.25-1.5c-5.03.98-9.92.07-15.04.02l-19.4-.18c-2.22-.02-4.85-.31-6.67-1.41-3.12-1.88-6.09-3.53-9.64-4.19-2.28.89-4.56,1.03-6.85.76-3.55,0-6.2-1.65-9.1-3.36l-9.06-1.29c-2.27-.32-4.26-.22-6.46.03-.06-.16-.3-1.26-.05-1.39.33-.17,1.28-.56,1.69-.51l9.48.99,10.4,1.31c5.97.75,12.18,1.51,17.37,4.62,2.92,1.75,5.36,2.94,8.9,2.96l19.3.15c5.38.04,10.22.51,15.62.21,5.95-.33,11.81,3.33,15.05-.97.38-.5,1.93-.64,2.57-.82,4.98-1.42,9.7-2.24,14.79-2.96,3.83-.54,7.52-1.9,11.73-1.61ZM96.87,503.87c-.35-.17-.85-.95-.61-1.21.18-.19.97-.29,1.23-.18l3.88,1.6,9.4-4.07c3.3-1.43,6.66-2.21,10.26-2.66l1.72-1.79c.75-.78,1.55-2.23,1.3-3.17-3.15-2.07-6.47-1.13-9.82-.55-7.28,1.25-14.49.02-21.82.45-4.44.26-8.74,1.17-13.16,1.72-3.94.49-7.58,1.65-11.6,2.95,9.29,2.07,18.04,5.38,25.98,11.02,2.45-.64,4.29-1.37,6.58-2.47l-3.35-1.62ZM45.43,582.26l-8.26-.99c2.67,1.43,5.39,1.5,8.26.99Z"/>
    <path class="cls-2" d="M22.11,526.06c5.14,1.96,13.74,5.79,17.59,4.64l7.96-2.37c2.79-.83,4.66-2.97,5.46-5.75l-4.42-.77c-.55-.1-1.3-1.18-1.05-1.71l6.72.93,7.73-2.4c2.7-.84,4.86-1.48,7.21-3.27l-3.16-3.65c-.72-.83-1.05-2.01-.14-2.75,2.43,3.05,4.44,5.15,7.34,7.68-.83.42-1.94.19-2.7-.36-1.63,1.45-3.74,2.43-6,3.17l-10.36,3.4c-.42,2.99-2.21,5.17-4.92,6.36-6.41,2.83-12.09,4.15-18.76,1.69l-7.29-2.69c-.75-.28-1.43-1.42-1.23-2.17Z"/>
    <path class="cls-2" d="M148.17,524.28c-.38.48-.95,1.35-1.3,1.21l-1.63-.66-1.44.61-1.45-.54c-1.55.32-3.59.44-4.9-.27l-2.1,1.34c-1.92,1.22-3.94,1.48-4.59,1.06-.28-.18-.52-.92-.53-1.25s.85-.81,1.18-.87l2.26-.4,2.8-.42.77-.85,2.18-.45,1.21,1.08c.67.6,2.51-.78,2.82-.63l1.12.55-.74-1.21c-.14-.22.38-.79.5-.81.49.69,1,1.48,1.46,1.56l2.03.33.42-1.11c.11-.3.97.64,1.22.93l.52-1.55,2.09,1.95.94-.84c.17-.15.77.36,1,.44l2.17.77,2.18,4.06c-1.85-1.15-2.69-2.18-3.83-3.59l-1.48,2.26-1.85-1.78-1.24.98-1.78-1.88Z"/>
    <path class="cls-2" d="M317.69,582.58c-2.04.43-3.38-.5-5.07-1.33l-8.89-4.4c-4.13-2.04-11.78-4.51-10.61-8.4,2.33,2.35,4.48,3.98,7.2,5.31l14.16,6.91c1.11.54,1.88.61,3.21,1.91Z"/>
    <path class="cls-2" d="M113.67,550.67l-5.61,2.12c-.28.1-1.04-.87-.87-1.1s.67-.83.93-.94l2.92-1.29c-2.03.17-3.45.31-5.49-.16l2.55-1.24-5.73.52.15-1.35,9.11-.86-.57,1.53,1.3-.04,3.05,1.36-1.32,1.1.18.32,3.33-.36c-.37,2.03-1.98,1.55-3.17,1.58l-1.11.02c-.17,0-.19-.23-.08-.37l.52-.62-.09-.23Z"/>
    <path class="cls-2" d="M331.4,536.03l-2.26,1.21c-2.45-2.89-4.8.64-7.16-1.5l-3.46,1.02c-.99-.75-2.02-.91-2.9-.54l-2.87,1.21.85-3.89,1.15,1.08c.39.37,2.13-.87,5.06.5l2.42-1.38c.38-.2,1.28.9,1.4,1.18,1.05-.36,2.18-.57,3.4-.56l1.72.02c.36,0,.4,1.17.4,1.56l2.66-2.99.03,2.53-.02.39,1.95-1.47c2.16,1.33,5.03-.34,5.1.55l.13,1.82,1.74-1.37c.3.54.63,1.48,1.07,1.52l2.31.2c-.47,1.41-2.6,2.02-3.69.8l-1.22.49c-.28-.62-.9-1.68-1.34-1.53l-1.69.61c-.46-.74-1.6-1.16-2.58-.93l-1.24.29c-.24.06-.59-.46-.72-.65l-.23-.16Z"/>
    <path class="cls-2" d="M45.62,510.59c.66.39,1.36,1.32,1.47,2.22-.72-.06-1.83-.73-2.39-1.08-3.24-1.14-5.72-2.89-7.9-5.58-.81-1-1.91-1.9-1.57-3.42l4.52,2.64c.2.11.65.56.8.72.2.21-.7.57-1.25.81l6.32,3.69Z"/>
    <path class="cls-2" d="M311.71,569.29c-.04.63,5.7.78,7.05,3.97l-5.73-1.84c-2.94,1.24-5.2-1.52-5.69-.89l-.93,1.23-4.03-2.64-2.23-.9,3.08-.17,2.95,1.88c.43-.3,1.6-.88,2.03-.67l3.42,1.69.03-.89.05-.77Z"/>
    <path class="cls-2" d="M117.79,558.45c-.38.2-1.34-.13-1.18-.37s.54-.7.78-.9l2.14-1.83-5.25-.9c1.63-.85,4.17-.59,5.41-1.08l1.05-.41c.19-.08.8-.05.77.16l-.17,1.5,2.53-.87c.22-.07.92.14,1.14.23.28.12-.33.85-.66,1.02l-6.56,3.44Z"/>
    <path class="cls-2" d="M299.67,537.89l1.29,1.05,1.75-1.3,3.04-.65,1.08-.23c.19-.04.63.6.47.72l-1.01.79c-1.15.91-2.87,1.27-4.1.88l-3.18,4.12.4-4.87-.43-.32-.71,5.09c-.11.19-.66.59-.76.4l-.71-1.32c-1.37,1.12-2.61,2.45-3.6,4.04-.02,0-.5-.78-.65-.67l-1.1.8c-.19.14-.87-.53-.77-.76.8-1.84,1.79-1.19,2.99-3.21,4.51-.85,3.81-5.55,4.55-5.17l1.06.54.37.07Z"/>
    <path class="cls-2" d="M187.67,539.34c.33.37-.42,1.79-.77,1.71l-2.62-3.92-1.37-.2c-.4-.06-.9-1.33-1.32-1.46-2.76-.87-4.34-3.43-3.27-4.82l3.06,4.04c.39-.64.88-1.41,1.13-1.15l1.19,1.26,3.97,4.53Z"/>
    <path class="cls-2" d="M151.41,559.69c-6.98.87-12.71,3.72-10.46.61l7.13-1.57c-.52.11,4.17.08,3.97-.38l.31.71c.11.25-.52.58-.95.63Z"/>
    <path class="cls-2" d="M79.48,520.84c1.16.13,2.38.49,3.54,1.08-4.32,1.29-9.01-.42-11.75-3.94,1.49-1.76,2.64,2.23,8.21,2.86Z"/>
    <path class="cls-2" d="M106.54,545.65l-8.66.23c-.15,0-.88-.62-.76-.71.17-.13.81-.57,1.05-.58l7.74-.21,3.26-.02c-.27.91-.39,1.33-.71,1.32l-1.93-.03Z"/>
    <path class="cls-2" d="M325.67,572.53c.73.65,1.53,1.95,1.83,3.45l-6.38-3.84c-.64.82-.86,1.12-1.24,1.17s-.96-1.3-.69-1.65c1.72-2.23,3.69.9,6.48.86Z"/>
    <path class="cls-2" d="M174.89,556.06c-.87,2.43-2.7,1.54-4.07,2.37-1,.61-2.24.55-3.19.13l-1.09.53c-.19.09-.43-.11-.91-.46l2.77-2.67.64,1.55c.13.3.99-.56,1.38-.63l4.47-.82Z"/>
    <path class="cls-2" d="M368.44,562.97c-2.81-1.14-5.68-1.81-9.31-2.43,2.14-1.93,5.07-.48,7.3.11l-.61-2.06c1.89.41,2.98,1.19,3.88,2.26l-1.09.61c-.17.1-.13.44-.17,1.5Z"/>
    <path class="cls-2" d="M163.8,559.14l-5.65,2.55v-1.98c0-.49,1.15-1.04,1.69-1.13l4.42-.73c.17-.03.79.64.64.72l-1.1.56Z"/>
    <path class="cls-2" d="M120.04,560.2c-.25-2.29,2.16-3.38,4.03-3.73l3.07-.58c-.05.44-.43,1.03-.73,1.18l-6.37,3.13Z"/>
    <path class="cls-2" d="M125.71,530.74l-2.19.11c-.45.02-.91-1.29-.53-1.54l2.17-1.43,1.05.54c.23.12.71-.36.99-.54.45.42.98,1.57.74,2.06s-1.5.75-2.23.79Z"/>
    <path class="cls-2" d="M171.47,529.19c.11.72.02,1.91-.45,1.95-.5.05-1.58-.52-1.74-1l-1.28-3.76c2.05-.43,3.15.73,3.47,2.81Z"/>
    <path class="cls-2" d="M333.32,574.64l-4.25-.18-.49-1.2c-.34-.82,2.58-.05,2.71-.29l.84-1.53,2.93,2.71c-.18.23-1.25.52-1.74.5Z"/>
    <path class="cls-2" d="M115.04,534.12c-.76,1.91-3.91.05-3.57-.36,1.18-1.42,2.18.5,3.29-1.16.73-1.1,1.45-1.19,2.68-1.1,1.05.08,1.66.44,1.53,1.44-.11.85-.65,1.25-1.46,1.24l-2.47-.05Z"/>
    <path class="cls-2" d="M351.79,570.82l-5.52-1.71-.86-.27c-.26-.08.26-1.09.56-1.07,6.11.43,8.33,3.82,5.82,3.05Z"/>
    <path class="cls-2" d="M72.99,521.12c.51.39-3.43,4.92-6.57,3.14l5.93-3.63.64.49Z"/>
    <path class="cls-2" d="M361.47,565.34c-2.07.31-4.68-.03-7.08-.34l-.88-.43c-1.41-.69,4.21-1.79,7.96.77Z"/>
    <path class="cls-2" d="M356.34,568.08c-2.63.32-5.35-.71-7.66-2.23,2.76-.47,5.33.17,7.66,2.23Z"/>
    <path class="cls-2" d="M132.79,561.62l-.08-1.31c1.97-.88,4.12-1.7,6.29-2.12-1.26,2.61-3.8,2.52-6.21,3.43Z"/>
    <path class="cls-2" d="M365.31,555.81c-.19.06-.91.09-1.1.08s-.58-.69-.4-.77l1.1-.52c1.82-.86,4.02-2.18,5.97-.45l-5.57,1.66Z"/>
    <path class="cls-2" d="M160.5,524.13c.97-.86,2.8,2.68,2.79,4.65-2.11-.46-3.51-2.84-2.79-4.65Z"/>
    <path class="cls-2" d="M359.82,550.1l-2.27-1.38-1.23.2c-.3.05-.4-.74-.2-1.24l5.98,1.48c-.04.38-.47,1.15-.8,1.23s-1.16-.09-1.48-.29Z"/>
    <path class="cls-2" d="M349.44,571.73c-2.37.07-4.03-.56-6.21-1.33.84.9,1.28,1.29,1.91,2.38-2.55-.45-4.1-1.56-5.93-3.13,1.4-.74,2.59.04,3.64.84l.79-1.17c.13-.2,4.41.48,5.79,2.39Z"/>
    <path class="cls-2" d="M311.65,533.03c1.16-.66-.16,4.43-3,5.7.56-2.43,1.46-4.82,3-5.7Z"/>
    <path class="cls-2" d="M177.33,532.46c-.86,0-1.85-.43-2.9-1.08l-1.16.78-.65-3.5,2.77,1.61c.65.38,1.03.75,1.95,2.19Z"/>
    <path class="cls-2" d="M362.64,563.28l-5.68-.28-.18-.85c-.05-.24.95-.6,1.21-.57l4.74.45c.19.02.17,1.26-.09,1.25Z"/>
    <path class="cls-2" d="M111.44,539.02c-2.03-.21-3.87-.56-5.7-1.7,2.11-.95,4.29-.23,5.7,1.7Z"/>
    <path class="cls-2" d="M365.61,553.1c-.25.09-1.15.15-1.25-.08l-.38-.88,4.01-1.04c.41-.11,1.43.3,1.49.64l-3.86,1.36Z"/>
    <path class="cls-2" d="M338.74,573.06l-4.13-.46c-.23,0-.89-.03-.86-.22l.19-1.12c1.45.07,3.35-.71,4.8,1.8Z"/>
    <path class="cls-2" d="M135.05,557.61c-.54,1.63-2.66,2.5-4.42,1.44,1.12-.88,2.4-1.37,4.42-1.44Z"/>
    <path class="cls-2" d="M119.6,529.77l1.85-1.4c.32.38.93,1.36.96,1.87s-.98,1.14-1.49,1.19c-.67.07-1.81-1.29-1.32-1.66Z"/>
    <path class="cls-2" d="M130.13,557.31c-.97,1.51-2.51,1.74-4.07,1.06.88-1.32,2.4-1.73,4.07-1.06Z"/>
    <path class="cls-2" d="M154.65,560.18l-2,1.62c-.71-.95-.03-2.44.79-2.67l1.18-.33c.26-.07.25,1.2.03,1.39Z"/>
    <path class="cls-2" d="M45.43,582.26c-2.87.51-5.59.44-8.26-.99l8.26.99Z"/>
  </g>
</svg>